<svg width="639.79" height="277.35" version="1.1" viewBox="0 0 169.28 73.383" xmlns="http://www.w3.org/2000/svg">
 <g transform="matrix(7.2627 0 0 7.2627 -684.21 -699.11)" stroke-width=".13769">
  <rect x="94.208" y="96.454" width="23.308" height="9.7115" fill="#1d232d" style="paint-order:normal"/>
  <g fill="#7b8694">
   <path d="m94.596 96.26h1.1654v0.19408h-1.1654z"/>
   <path d="m96.538 96.26h1.1654v0.19408h-1.1654z"/>
   <path d="m98.481 96.26h1.1654v0.19408h-1.1654z"/>
   <path d="m100.42 96.26h1.1654v0.19408h-1.1654z"/>
   <path d="m102.37 96.26h1.1654v0.19408h-1.1654z"/>
   <path d="m104.31 96.26h1.1654v0.19408h-1.1654z"/>
   <path d="m106.25 96.26h1.1654v0.19408h-1.1654z"/>
   <path d="m108.19 96.26h1.1654v0.19408h-1.1654z"/>
   <path d="m110.13 96.26h1.1654v0.19408h-1.1654z" fill="#7b8694"/>
   <path d="m112.08 96.26h1.1654v0.19408h-1.1654z"/>
   <path d="m114.02 96.26h1.1654v0.19408h-1.1654z"/>
   <path d="m115.96 96.26h1.1654v0.19408h-1.1654z"/>
   <path d="m115.96 106.17h1.1654v0.19405h-1.1654z"/>
   <path d="m114.02 106.17h1.1654v0.19405h-1.1654z"/>
   <path d="m112.08 106.17h1.1654v0.19405h-1.1654z"/>
   <path d="m110.13 106.17h1.1654v0.19405h-1.1654z"/>
   <path d="m108.19 106.17h1.1654v0.19405h-1.1654z"/>
   <path d="m106.25 106.17h1.1654v0.19405h-1.1654z"/>
   <path d="m104.31 106.17h1.1654v0.19405h-1.1654z"/>
   <path d="m102.37 106.17h1.1654v0.19405h-1.1654z"/>
   <path d="m100.42 106.17h1.1654v0.19405h-1.1654z"/>
   <path d="m98.481 106.17h1.1654v0.19405h-1.1654z"/>
   <path d="m96.538 106.17h1.1654v0.19405h-1.1654z"/>
   <path d="m94.596 106.17h1.1654v0.19405h-1.1654z"/>
  </g>
 </g>
 <path d="m84.354 59.543c-0.47469-0.09116-1.3504-0.34362-2.039-0.58776-4.1956-1.4877-8.0134-4.359-10.811-8.1319-3.4326-4.6282-5.4889-10.67-6.0806-17.866-0.14608-1.7764-0.17249-2.9516-0.17249-7.6825 0-5.3438-0.01576-5.0776 0.33184-5.7403 0.35923-0.6856 1.0002-1.2122 1.78-1.4624 0.38729-0.12432 0.39404-0.12462 2.3546-0.1379 2.0804-0.01425 2.8952-0.06752 4.4178-0.28923 1.6088-0.23453 2.5903-0.51386 3.6792-1.047 1.6117-0.78926 3.3294-2.0308 5.0084-3.6201 0.55602-0.52624 0.94771-0.74674 1.5576-0.87666 0.68215-0.14533 1.5622-5.48e-4 2.1776 0.35803 0.12304 0.07202 0.76149 0.5612 1.4187 1.0876 2.464 1.9737 3.8471 2.8731 5.3104 3.4532 1.5329 0.60772 4.7394 1.0068 7.582 0.94373 1.4203-0.03151 1.7405 0.0098 2.3459 0.30956 0.5432 0.26822 1.0727 0.7831 1.3293 1.2933 0.34437 0.6847 0.33012 0.39382 0.30686 6.3693-0.0225 5.4487-0.03 5.7591-0.23109 7.8183-0.66023 6.7797-2.7191 12.615-6.0058 17.022-2.968 3.9793-7.0073 6.9344-11.434 8.3645-1.3423 0.43373-2.1438 0.5534-2.827 0.42218z" fill="#fbb227" stroke-width=".99998"/>
 <path d="m81.436 45.614c0.0293-0.23844 0.57245-6.4598 0.91424-8.8716l0.32787-2.3132-0.34723-0.3596c-0.34415-0.35645-0.5576-0.6348-0.7573-0.98725-0.50658-0.89414-0.67667-2.0338-0.44776-2.9995 0.37311-1.5736 1.6799-2.8632 3.2988-3.2551 0.30236-0.07353 0.344-0.07623 0.85505-0.06077 0.29553 9e-3 0.65979 0.03676 0.80966 0.06227 1.1744 0.19987 2.4429 1.1876 3.0221 2.3534 0.29905 0.60172 0.41692 1.1137 0.41782 1.8149 8.8e-4 0.72116-0.11809 1.2134-0.46006 1.902-0.21743 0.43793-0.44026 0.74809-0.84763 1.1804-0.16026 0.17009-0.29733 0.34017-0.30468 0.37799-7e-3 0.03751 0.0819 0.74149 0.19747 1.5637 0.94171 6.6841 0.99834 9.4508 0.99834 9.6144v0.11562h-7.6937z" fill="#1d232d" stroke-width=".0038704"/>
</svg>
