<?xml version="1.0" encoding="UTF-8" standalone="no"?>
<svg
   width="534.7196"
   height="259"
   version="1.1"
   viewBox="0 0 141.47764 68.527"
   id="svg21835"
   sodipodi:docname="physics_flow_cs.svg"
   inkscape:version="1.2.2 (732a01da63, 2022-12-09)"
   xmlns:inkscape="http://www.inkscape.org/namespaces/inkscape"
   xmlns:sodipodi="http://sodipodi.sourceforge.net/DTD/sodipodi-0.dtd"
   xmlns="http://www.w3.org/2000/svg"
   xmlns:svg="http://www.w3.org/2000/svg"
   xmlns:rdf="http://www.w3.org/1999/02/22-rdf-syntax-ns#"
   xmlns:cc="http://creativecommons.org/ns#"
   xmlns:dc="http://purl.org/dc/elements/1.1/">
  <defs
     id="defs21839" />
  <sodipodi:namedview
     id="namedview21837"
     pagecolor="#ffffff"
     bordercolor="#000000"
     borderopacity="0.25"
     inkscape:showpageshadow="2"
     inkscape:pageopacity="0.0"
     inkscape:pagecheckerboard="0"
     inkscape:deskcolor="#d1d1d1"
     showgrid="false"
     inkscape:zoom="1.5361124"
     inkscape:cx="262.0251"
     inkscape:cy="146.47366"
     inkscape:window-width="1920"
     inkscape:window-height="1017"
     inkscape:window-x="-8"
     inkscape:window-y="-8"
     inkscape:window-maximized="1"
     inkscape:current-layer="svg21835" />
  <metadata
     id="metadata21345">
    <rdf:RDF>
      <cc:Work
         rdf:about="">
        <dc:format>image/svg+xml</dc:format>
        <dc:type
           rdf:resource="http://purl.org/dc/dcmitype/StillImage" />
      </cc:Work>
    </rdf:RDF>
  </metadata>
  <path
     id="path18636"
     style="fill:#1d232d;fill-opacity:1;stroke:#2f3744;stroke-width:0.264583;stroke-linecap:round;stroke-miterlimit:4;stroke-dasharray:none;stroke-opacity:1"
     d="m 4.2664015,0.1322915 -4.13411,3.704161 V 64.690524 l 4.13411,3.70416 H 37.008531 l 4.13411,-3.70416 V 3.8364525 l -4.13411,-3.704161 z"
     inkscape:connector-curvature="0"
     sodipodi:nodetypes="ccccccccc" />
  <g
     aria-label="ANIMAČNÍ ENGINE"
     id="text18646"
     style="font-size:3.70416px;line-height:1.25;font-family:'Small Fonts';-inkscape-font-specification:'Small Fonts';text-align:center;text-anchor:middle;fill:#e8eaec;stroke:#cf2f25;stroke-width:0.264583;stroke-linecap:round">
    <path
       d="m 6.2598108,33.924823 0.059267,-0.22225 c 0.066675,-0.24077 0.1333497,-0.522287 0.1889121,-0.777874 h 0.014817 c 0.066675,0.251883 0.1296456,0.537104 0.1963204,0.777874 l 0.059267,0.22225 z m 0.7778736,1.000123 H 7.6155333 L 6.8561805,32.509834 H 6.2042484 l -0.7593528,2.415112 h 0.555624 L 6.148686,34.350801 h 0.740832 z"
       style="font-weight:bold;font-family:'Source Sans Pro';-inkscape-font-specification:'Source Sans Pro Bold';text-align:start;text-anchor:start;stroke:none"
       id="path22175" />
    <path
       d="m 7.8674131,34.924946 h 0.5222866 v -0.855661 c 0,-0.28522 -0.04445,-0.607482 -0.070379,-0.874182 h 0.014817 l 0.2370662,0.525991 0.6297072,1.203852 H 9.7602389 V 32.509834 H 9.2416565 v 0.851956 c 0,0.285221 0.04445,0.626003 0.070379,0.88159 H 9.2972189 L 9.0564485,33.709981 8.4267413,32.509834 H 7.8674131 Z"
       style="font-weight:bold;font-family:'Source Sans Pro';-inkscape-font-specification:'Source Sans Pro Bold';text-align:start;text-anchor:start;stroke:none"
       id="path22177" />
    <path
       d="m 10.326974,34.924946 h 0.548215 v -2.415112 h -0.548215 z"
       style="font-weight:bold;font-family:'Source Sans Pro';-inkscape-font-specification:'Source Sans Pro Bold';text-align:start;text-anchor:start;stroke:none"
       id="path22179" />
    <path
       d="m 11.438219,34.924946 h 0.503765 v -0.885294 c 0,-0.237067 -0.04445,-0.588962 -0.07038,-0.822324 h 0.01482 l 0.192616,0.559328 0.370416,0.937153 H 12.668 l 0.37412,-0.937153 0.19632,-0.559328 h 0.01482 c -0.02593,0.233362 -0.07038,0.585257 -0.07038,0.822324 v 0.885294 h 0.511174 v -2.415112 h -0.577849 l -0.392641,1.085318 -0.144462,0.422275 h -0.01482 l -0.144462,-0.422275 -0.403753,-1.085318 h -0.577849 z"
       style="font-weight:bold;font-family:'Source Sans Pro';-inkscape-font-specification:'Source Sans Pro Bold';text-align:start;text-anchor:start;stroke:none"
       id="path22181" />
    <path
       d="m 14.764553,33.924823 0.05927,-0.22225 c 0.06668,-0.24077 0.13335,-0.522287 0.188912,-0.777874 h 0.01482 c 0.06668,0.251883 0.129645,0.537104 0.19632,0.777874 l 0.05927,0.22225 z m 0.777874,1.000123 h 0.577849 l -0.759353,-2.415112 h -0.651932 l -0.759353,2.415112 h 0.555624 l 0.148167,-0.574145 h 0.740832 z"
       style="font-weight:bold;font-family:'Source Sans Pro';-inkscape-font-specification:'Source Sans Pro Bold';text-align:start;text-anchor:start;stroke:none"
       id="path22183" />
    <path
       d="m 16.220284,33.732206 c 0,0.811211 0.511174,1.23719 1.137177,1.23719 0.300037,0 0.566737,-0.122238 0.766761,-0.3556 l -0.300037,-0.32967 c -0.118533,0.129646 -0.259291,0.214841 -0.459315,0.214841 -0.351896,0 -0.585258,-0.288924 -0.585258,-0.785281 0,-0.485245 0.262996,-0.777874 0.600074,-0.777874 0.170392,0 0.285221,0.07038 0.407458,0.181504 l 0.300037,-0.337079 c -0.162983,-0.166687 -0.414866,-0.314853 -0.714903,-0.314853 -0.622299,0 -1.151994,0.466724 -1.151994,1.266822 z m 1.307569,-1.85208 -0.200025,0.225954 h -0.01482 l -0.19632,-0.225954 h -0.414866 l 0.355599,0.4445 h 0.529695 l 0.3556,-0.4445 z"
       style="font-weight:bold;font-family:'Source Sans Pro';-inkscape-font-specification:'Source Sans Pro Bold';text-align:start;text-anchor:start;stroke:none"
       id="path22185" />
    <path
       d="m 18.483526,34.924946 h 0.522286 v -0.855661 c 0,-0.28522 -0.04445,-0.607482 -0.07038,-0.874182 h 0.01482 l 0.237066,0.525991 0.629707,1.203852 h 0.559329 v -2.415112 h -0.518583 v 0.851956 c 0,0.285221 0.04445,0.626003 0.07038,0.88159 h -0.01482 l -0.240771,-0.533399 -0.629707,-1.200147 h -0.559328 z"
       style="font-weight:bold;font-family:'Source Sans Pro';-inkscape-font-specification:'Source Sans Pro Bold';text-align:start;text-anchor:start;stroke:none"
       id="path22187" />
    <path
       d="m 20.943086,34.924946 h 0.548216 v -2.415112 h -0.548216 z m 0.874182,-3.04482 h -0.577849 l -0.300037,0.4445 h 0.433387 z"
       style="font-weight:bold;font-family:'Source Sans Pro';-inkscape-font-specification:'Source Sans Pro Bold';text-align:start;text-anchor:start;stroke:none"
       id="path22189" />
    <path
       d="M 22.824797,34.924946 H 24.37684 V 34.46563 h -1.003827 v -0.555624 h 0.822323 v -0.455612 h -0.822323 v -0.485245 h 0.966786 v -0.459315 h -1.515002 z"
       style="font-weight:bold;font-family:'Source Sans Pro';-inkscape-font-specification:'Source Sans Pro Bold';text-align:start;text-anchor:start;stroke:none"
       id="path22191" />
    <path
       d="m 24.847268,34.924946 h 0.522286 v -0.855661 c 0,-0.28522 -0.04445,-0.607482 -0.07038,-0.874182 h 0.01482 l 0.237066,0.525991 0.629707,1.203852 h 0.559328 v -2.415112 h -0.518582 v 0.851956 c 0,0.285221 0.04445,0.626003 0.07038,0.88159 h -0.01482 l -0.24077,-0.533399 -0.629707,-1.200147 h -0.559328 z"
       style="font-weight:bold;font-family:'Source Sans Pro';-inkscape-font-specification:'Source Sans Pro Bold';text-align:start;text-anchor:start;stroke:none"
       id="path22193" />
    <path
       d="m 27.191999,33.732206 c 0,0.811211 0.518583,1.23719 1.170515,1.23719 0.337078,0 0.637115,-0.140758 0.811211,-0.292629 V 33.565519 H 28.28843 v 0.444499 h 0.40005 v 0.414866 c -0.05927,0.04815 -0.159279,0.07408 -0.255587,0.07408 -0.455612,0 -0.681566,-0.288924 -0.681566,-0.785281 0,-0.485245 0.2667,-0.777874 0.637116,-0.777874 0.207433,0 0.322262,0.07038 0.444499,0.181504 l 0.300037,-0.337079 c -0.162983,-0.162983 -0.411162,-0.314853 -0.751945,-0.314853 -0.655636,0 -1.189035,0.466724 -1.189035,1.266822 z"
       style="font-weight:bold;font-family:'Source Sans Pro';-inkscape-font-specification:'Source Sans Pro Bold';text-align:start;text-anchor:start;stroke:none"
       id="path22195" />
    <path
       d="m 29.662673,34.924946 h 0.548215 v -2.415112 h -0.548215 z"
       style="font-weight:bold;font-family:'Source Sans Pro';-inkscape-font-specification:'Source Sans Pro Bold';text-align:start;text-anchor:start;stroke:none"
       id="path22197" />
    <path
       d="m 30.773917,34.924946 h 0.522286 v -0.855661 c 0,-0.28522 -0.04445,-0.607482 -0.07038,-0.874182 h 0.01482 l 0.237066,0.525991 0.629707,1.203852 h 0.559329 V 32.509834 H 32.14816 v 0.851956 c 0,0.285221 0.04445,0.626003 0.07038,0.88159 h -0.01482 l -0.240771,-0.533399 -0.629707,-1.200147 h -0.559328 z"
       style="font-weight:bold;font-family:'Source Sans Pro';-inkscape-font-specification:'Source Sans Pro Bold';text-align:start;text-anchor:start;stroke:none"
       id="path22199" />
    <path
       d="M 33.233477,34.924946 H 34.78552 V 34.46563 h -1.003827 v -0.555624 h 0.822323 v -0.455612 h -0.822323 v -0.485245 h 0.966786 v -0.459315 h -1.515002 z"
       style="font-weight:bold;font-family:'Source Sans Pro';-inkscape-font-specification:'Source Sans Pro Bold';text-align:start;text-anchor:start;stroke:none"
       id="path22201" />
  </g>
  <path
     sodipodi:nodetypes="cc"
     inkscape:connector-curvature="0"
     id="path18648"
     d="m 42.690851,33.520857 h 29.26949"
     style="fill:none;fill-opacity:1;stroke:#6f8ce9;stroke-width:0.264583;stroke-linecap:round;stroke-miterlimit:4;stroke-dasharray:1.05833, 1.05833;stroke-dashoffset:0;stroke-opacity:1"
     inkscape:export-xdpi="96"
     inkscape:export-ydpi="96" />
  <g
     style="fill:#6f8ce9;fill-opacity:1;stroke-width:123.849"
     transform="matrix(-0.00211827,-0.00366895,0.00373178,-0.00215454,71.976951,34.871474)"
     id="g18654">
    <g
       style="fill:#6f8ce9;fill-opacity:1;stroke-width:123.849"
       id="g18652">
      <path
         style="fill:#6f8ce9;fill-opacity:1;stroke-width:123.849"
         inkscape:connector-curvature="0"
         d="M 486.413,221.412 122.347,12.916 C 69.409,-17.402 26.495,7.476 26.495,68.479 v 415.652 c 0,61.004 42.914,85.882 95.852,55.563 l 364.066,-208.49 c 52.938,-30.317 52.938,-79.473 0,-109.792 z"
         id="path18650" />
    </g>
  </g>
  <path
     sodipodi:nodetypes="ccccccccc"
     inkscape:connector-curvature="0"
     d="m 78.349621,0.1322915 -4.13411,3.704161 V 64.690524 l 4.13411,3.70416 h 40.679619 l 4.13411,-3.70416 V 3.8364525 l -4.13411,-3.704161 z"
     style="fill:#1d232d;fill-opacity:1;stroke:#2f3744;stroke-width:0.264583;stroke-linecap:round;stroke-miterlimit:4;stroke-dasharray:none;stroke-opacity:1"
     id="path18674" />
  <path
     sodipodi:nodetypes="ccccc"
     inkscape:connector-curvature="0"
     d="M 84.005081,7.2760305 H 114.43211 V 16.409353 H 84.005081 Z"
     style="fill:#2f3744;fill-opacity:1;stroke:#7b8694;stroke-width:0.264583;stroke-linecap:round;stroke-miterlimit:4;stroke-dasharray:none;stroke-opacity:1"
     id="path18676" />
  <g
     aria-label="Aplikuj silová
působení"
     id="text18680"
     style="font-size:3.175px;line-height:1.25;font-family:'Small Fonts';-inkscape-font-specification:'Small Fonts';text-align:center;text-anchor:middle;fill:#e8eaec;stroke:#cf2f25;stroke-width:0.264583;stroke-linecap:round">
    <path
       d="m 91.180028,9.9955234 0.1016,-0.3175 c 0.07303,-0.231775 0.1397,-0.460375 0.206375,-0.701675 h 0.0127 c 0.06668,0.2413 0.13335,0.4699 0.206375,0.701675 l 0.09843,0.3175 z m 0.892175,0.8477246 h 0.2794 l -0.70485,-2.0827996 h -0.29845 l -0.70485,2.0827996 h 0.269875 l 0.200025,-0.635 h 0.758825 z"
       style="font-family:'Source Sans Pro';-inkscape-font-specification:'Source Sans Pro';stroke:none"
       id="path22204" />
    <path
       d="m 92.865953,10.703548 c 0.142875,0.111125 0.28575,0.1778 0.428625,0.1778 0.352425,0 0.66675,-0.307975 0.66675,-0.83185 0,-0.4794246 -0.212725,-0.7873996 -0.6096,-0.7873996 -0.180975,0 -0.352425,0.098425 -0.492125,0.2159 h -0.0095 l -0.02222,-0.1778 h -0.2159 v 2.1939246 h 0.26035 v -0.5207 z m 0.0063,-0.2032 V 9.6907234 c 0.1524,-0.136525 0.282575,-0.20955 0.41275,-0.20955 0.2921,0 0.4064,0.2286 0.4064,0.5683246 0,0.381 -0.187325,0.612775 -0.441325,0.612775 -0.1016,0 -0.238125,-0.04445 -0.377825,-0.161925 z"
       style="font-family:'Source Sans Pro';-inkscape-font-specification:'Source Sans Pro';stroke:none"
       id="path22206" />
    <path
       d="m 94.374079,10.532098 c 0,0.225425 0.07937,0.34925 0.276225,0.34925 0.06985,0 0.1143,-0.0095 0.149225,-0.0254 l -0.03493,-0.19685 c -0.02858,0.0063 -0.04127,0.0063 -0.05715,0.0063 -0.0381,0 -0.07303,-0.03175 -0.07303,-0.1143 V 8.5826484 h -0.26035 z"
       style="font-family:'Source Sans Pro';-inkscape-font-specification:'Source Sans Pro';stroke:none"
       id="path22208" />
    <path
       d="m 95.317051,8.9826984 c 0.1016,0 0.180975,-0.06985 0.180975,-0.168275 0,-0.1016 -0.07937,-0.168275 -0.180975,-0.168275 -0.1016,0 -0.180975,0.066675 -0.180975,0.168275 0,0.098425 0.07937,0.168275 0.180975,0.168275 z m -0.13335,1.8605496 h 0.26035 V 9.3001984 h -0.26035 z"
       style="font-family:'Source Sans Pro';-inkscape-font-specification:'Source Sans Pro';stroke:none"
       id="path22210" />
    <path
       d="m 95.964752,10.843248 h 0.257175 v -0.4064 l 0.288925,-0.33655 0.45085,0.74295 h 0.28575 l -0.587375,-0.9239246 0.517525,-0.619125 h -0.288925 l -0.657225,0.8127996 h -0.0095 V 8.5826484 h -0.257175 z"
       style="font-family:'Source Sans Pro';-inkscape-font-specification:'Source Sans Pro';stroke:none"
       id="path22212" />
    <path
       d="m 97.469705,10.278098 c 0,0.3937 0.14605,0.60325 0.473075,0.60325 0.212725,0 0.365125,-0.111125 0.508,-0.2794 h 0.0095 l 0.02222,0.2413 h 0.2159 V 9.3001984 h -0.26035 v 1.0953746 c -0.14605,0.180975 -0.257175,0.26035 -0.415925,0.26035 -0.2032,0 -0.288925,-0.123825 -0.288925,-0.41275 V 9.3001984 h -0.263525 z"
       style="font-family:'Source Sans Pro';-inkscape-font-specification:'Source Sans Pro';stroke:none"
       id="path22214" />
    <path
       d="m 99.222307,11.017873 c 0,0.187325 -0.0381,0.301625 -0.1905,0.301625 -0.05397,0 -0.10795,-0.0127 -0.14605,-0.0254 l -0.05397,0.19685 c 0.05397,0.02223 0.13335,0.04128 0.2286,0.04128 0.307975,0 0.422275,-0.200025 0.422275,-0.51435 V 9.3001984 h -0.26035 z m 0.13335,-2.0351746 c 0.09843,0 0.1778,-0.06985 0.1778,-0.168275 0,-0.1016 -0.07937,-0.168275 -0.1778,-0.168275 -0.1016,0 -0.180975,0.066675 -0.180975,0.168275 0,0.098425 0.07937,0.168275 0.180975,0.168275 z"
       style="font-family:'Source Sans Pro';-inkscape-font-specification:'Source Sans Pro';stroke:none"
       id="path22216" />
    <path
       d="m 100.47325,10.668623 c 0.14605,0.12065 0.3556,0.212725 0.57468,0.212725 0.36512,0 0.56515,-0.20955 0.56515,-0.460375 0,-0.2921 -0.24765,-0.384175 -0.4699,-0.4667246 -0.17463,-0.066675 -0.3429,-0.123825 -0.3429,-0.2667 0,-0.117475 0.0889,-0.22225 0.28257,-0.22225 0.13653,0 0.24765,0.05715 0.35243,0.136525 l 0.12382,-0.1651 c -0.11747,-0.09525 -0.28575,-0.174625 -0.47942,-0.174625 -0.33338,0 -0.53023,0.1905 -0.53023,0.43815 0,0.26035 0.2413,0.3651246 0.46038,0.4444996 0.16827,0.0635 0.35242,0.13335 0.35242,0.2921 0,0.13335 -0.1016,0.2413 -0.3048,0.2413 -0.18415,0 -0.32067,-0.0762 -0.45402,-0.18415 z"
       style="font-family:'Source Sans Pro';-inkscape-font-specification:'Source Sans Pro';stroke:none"
       id="path22218" />
    <path
       d="m 102.10838,8.9826984 c 0.1016,0 0.18098,-0.06985 0.18098,-0.168275 0,-0.1016 -0.0794,-0.168275 -0.18098,-0.168275 -0.1016,0 -0.18097,0.066675 -0.18097,0.168275 0,0.098425 0.0794,0.168275 0.18097,0.168275 z m -0.13335,1.8605496 h 0.26035 V 9.3001984 h -0.26035 z"
       style="font-family:'Source Sans Pro';-inkscape-font-specification:'Source Sans Pro';stroke:none"
       id="path22220" />
    <path
       d="m 102.75608,10.532098 c 0,0.225425 0.0794,0.34925 0.27623,0.34925 0.0699,0 0.1143,-0.0095 0.14922,-0.0254 l -0.0349,-0.19685 c -0.0286,0.0063 -0.0413,0.0063 -0.0571,0.0063 -0.0381,0 -0.073,-0.03175 -0.073,-0.1143 V 8.5826484 h -0.26035 z"
       style="font-family:'Source Sans Pro';-inkscape-font-specification:'Source Sans Pro';stroke:none"
       id="path22222" />
    <path
       d="m 103.45141,10.074898 c 0,0.511175 0.33655,0.80645 0.71437,0.80645 0.37783,0 0.71438,-0.295275 0.71438,-0.80645 0,-0.5175246 -0.33655,-0.8127996 -0.71438,-0.8127996 -0.37782,0 -0.71437,0.295275 -0.71437,0.8127996 z m 0.26987,0 c 0,-0.3555996 0.18098,-0.5968996 0.4445,-0.5968996 0.2667,0 0.4445,0.2413 0.4445,0.5968996 0,0.352425 -0.1778,0.59055 -0.4445,0.59055 -0.26352,0 -0.4445,-0.238125 -0.4445,-0.59055 z"
       style="font-family:'Source Sans Pro';-inkscape-font-specification:'Source Sans Pro';stroke:none"
       id="path22224" />
    <path
       d="m 105.60723,10.843248 h 0.3048 l 0.5461,-1.5430496 h -0.25717 l -0.2921,0.8762996 c -0.0444,0.1524 -0.0953,0.307975 -0.1397,0.454025 h -0.0127 c -0.0476,-0.14605 -0.0984,-0.301625 -0.14288,-0.454025 l -0.2921,-0.8762996 h -0.26987 z"
       style="font-family:'Source Sans Pro';-inkscape-font-specification:'Source Sans Pro';stroke:none"
       id="path22226" />
    <path
       d="m 106.61688,10.443198 c 0,0.276225 0.19368,0.43815 0.45403,0.43815 0.1905,0 0.36195,-0.1016 0.51117,-0.22225 h 0.006 l 0.0222,0.18415 h 0.2159 V 9.8970984 c 0,-0.384175 -0.15875,-0.635 -0.53658,-0.635 -0.24765,0 -0.46355,0.10795 -0.60642,0.200025 l 0.10477,0.180975 c 0.12065,-0.08255 0.2794,-0.1651 0.46038,-0.1651 0.25082,0 0.3175,0.1905 0.3175,0.38735 -0.65723,0.073025 -0.94933,0.2412996 -0.94933,0.5778496 z m 0.25718,-0.01905 c 0,-0.19685 0.17462,-0.32385 0.69215,-0.38735 v 0.428625 c -0.14923,0.13335 -0.27305,0.206375 -0.42228,0.206375 -0.1524,0 -0.26987,-0.07303 -0.26987,-0.24765 z m 0.76517,-1.8478496 h -0.27305 l -0.28575,0.447675 h 0.20003 z"
       style="font-family:'Source Sans Pro';-inkscape-font-specification:'Source Sans Pro';stroke:none"
       id="path22228" />
    <path
       d="m 93.667636,14.790822 c 0.142875,0.111125 0.28575,0.1778 0.428625,0.1778 0.352425,0 0.66675,-0.307975 0.66675,-0.83185 0,-0.479425 -0.212725,-0.7874 -0.6096,-0.7874 -0.180975,0 -0.352425,0.09842 -0.492125,0.2159 h -0.0095 l -0.02222,-0.1778 h -0.2159 v 2.193925 h 0.26035 v -0.5207 z m 0.0063,-0.2032 v -0.809625 c 0.1524,-0.136525 0.282575,-0.20955 0.41275,-0.20955 0.2921,0 0.4064,0.2286 0.4064,0.568325 0,0.381 -0.187325,0.612775 -0.441325,0.612775 -0.1016,0 -0.238125,-0.04445 -0.377825,-0.161925 z"
       style="font-family:'Source Sans Pro';-inkscape-font-specification:'Source Sans Pro';stroke:none"
       id="path22230" />
    <path
       d="m 95.153537,14.365372 c 0,0.3937 0.14605,0.60325 0.473075,0.60325 0.212725,0 0.365125,-0.111125 0.508,-0.2794 h 0.0095 l 0.02223,0.2413 h 0.2159 v -1.54305 h -0.26035 v 1.095375 c -0.14605,0.180975 -0.257175,0.26035 -0.415925,0.26035 -0.2032,0 -0.288925,-0.123825 -0.288925,-0.41275 v -0.942975 h -0.263525 z m 0.625475,-1.1557 c 0.174625,0 0.29845,-0.117475 0.29845,-0.295275 0,-0.174625 -0.123825,-0.2921 -0.29845,-0.2921 -0.17145,0 -0.295275,0.117475 -0.295275,0.2921 0,0.1778 0.123825,0.295275 0.295275,0.295275 z m 0,-0.117475 c -0.08255,0 -0.1524,-0.06985 -0.1524,-0.1778 0,-0.104775 0.06985,-0.174625 0.1524,-0.174625 0.08573,0 0.1524,0.06985 0.1524,0.174625 0,0.10795 -0.06667,0.1778 -0.1524,0.1778 z"
       style="font-family:'Source Sans Pro';-inkscape-font-specification:'Source Sans Pro';stroke:none"
       id="path22232" />
    <path
       d="m 96.731514,14.755897 c 0.14605,0.12065 0.3556,0.212725 0.574675,0.212725 0.365125,0 0.56515,-0.20955 0.56515,-0.460375 0,-0.2921 -0.24765,-0.384175 -0.4699,-0.466725 -0.174625,-0.06668 -0.3429,-0.123825 -0.3429,-0.2667 0,-0.117475 0.0889,-0.22225 0.282575,-0.22225 0.136525,0 0.24765,0.05715 0.352425,0.136525 l 0.123825,-0.1651 c -0.117475,-0.09525 -0.28575,-0.174625 -0.479425,-0.174625 -0.333375,0 -0.530225,0.1905 -0.530225,0.43815 0,0.26035 0.2413,0.365125 0.460375,0.4445 0.168275,0.0635 0.352425,0.13335 0.352425,0.2921 0,0.13335 -0.1016,0.2413 -0.3048,0.2413 -0.18415,0 -0.320675,-0.0762 -0.454025,-0.18415 z"
       style="font-family:'Source Sans Pro';-inkscape-font-specification:'Source Sans Pro';stroke:none"
       id="path22234" />
    <path
       d="m 98.118991,14.162172 c 0,0.511175 0.33655,0.80645 0.714375,0.80645 0.377825,0 0.714375,-0.295275 0.714375,-0.80645 0,-0.517525 -0.33655,-0.8128 -0.714375,-0.8128 -0.377825,0 -0.714375,0.295275 -0.714375,0.8128 z m 0.269875,0 c 0,-0.3556 0.180975,-0.5969 0.4445,-0.5969 0.2667,0 0.4445,0.2413 0.4445,0.5969 0,0.352425 -0.1778,0.59055 -0.4445,0.59055 -0.263525,0 -0.4445,-0.238125 -0.4445,-0.59055 z"
       style="font-family:'Source Sans Pro';-inkscape-font-specification:'Source Sans Pro';stroke:none"
       id="path22236" />
    <path
       d="m 99.954141,14.930522 h 0.209549 l 0.0222,-0.1524 h 0.01 c 0.13653,0.12065 0.29845,0.1905 0.44133,0.1905 0.35242,0 0.66675,-0.307975 0.66675,-0.835025 0,-0.47625 -0.21273,-0.784225 -0.61278,-0.784225 -0.17145,0 -0.3429,0.09207 -0.4826,0.2159 l 0.006,-0.2794 v -0.61595 h -0.260349 z m 0.260349,-0.3429 v -0.809625 c 0.14605,-0.136525 0.28258,-0.20955 0.41275,-0.20955 0.2921,0 0.4064,0.2286 0.4064,0.568325 0,0.381 -0.18732,0.612775 -0.44132,0.612775 -0.1016,0 -0.2413,-0.04445 -0.37783,-0.161925 z"
       style="font-family:'Source Sans Pro';-inkscape-font-specification:'Source Sans Pro';stroke:none"
       id="path22238" />
    <path
       d="m 101.60197,14.162172 c 0,0.504825 0.32702,0.80645 0.73977,0.80645 0.20955,0 0.37465,-0.07302 0.508,-0.15875 l -0.0921,-0.17145 c -0.1143,0.07302 -0.23813,0.12065 -0.38418,0.12065 -0.29527,0 -0.4953,-0.20955 -0.51435,-0.542925 h 1.0414 c 0.006,-0.0381 0.01,-0.0889 0.01,-0.142875 0,-0.441325 -0.22225,-0.7239 -0.61595,-0.7239 -0.35243,0 -0.69215,0.307975 -0.69215,0.8128 z m 0.254,-0.117475 c 0.0318,-0.31115 0.2286,-0.48895 0.4445,-0.48895 0.2413,0 0.381,0.174625 0.381,0.48895 z"
       style="font-family:'Source Sans Pro';-inkscape-font-specification:'Source Sans Pro';stroke:none"
       id="path22240" />
    <path
       d="m 103.29107,14.930522 h 0.26035 v -1.1176 c 0.15557,-0.155575 0.26352,-0.238125 0.42227,-0.238125 0.2032,0 0.2921,0.123825 0.2921,0.41275 v 0.942975 h 0.26035 v -0.9779 c 0,-0.3937 -0.14605,-0.60325 -0.4699,-0.60325 -0.21272,0 -0.37147,0.1143 -0.51752,0.26035 h -0.01 l -0.0222,-0.22225 h -0.2159 z"
       style="font-family:'Source Sans Pro';-inkscape-font-specification:'Source Sans Pro';stroke:none"
       id="path22242" />
    <path
       d="m 105.02779,14.930522 h 0.26035 v -1.54305 h -0.26035 z m 0.4826,-2.26695 h -0.27305 l -0.28575,0.447675 h 0.20003 z"
       style="font-family:'Source Sans Pro';-inkscape-font-specification:'Source Sans Pro';stroke:none"
       id="path22244" />
  </g>
  <g
     aria-label="FYZIKÁLNÍ ENGINE"
     id="text18684"
     style="font-size:3.70416px;line-height:1.25;font-family:'Small Fonts';-inkscape-font-specification:'Small Fonts';text-align:center;text-anchor:middle;fill:#e8eaec;stroke:#cf2f25;stroke-width:0.264583;stroke-linecap:round">
    <path
       d="m 84.59809,4.2333274 h 0.548216 V 3.2961749 h 0.833436 V 2.8368591 H 85.146306 V 2.2775309 h 0.977898 V 1.8182151 H 84.59809 Z"
       style="font-weight:bold;font-family:'Source Sans Pro';-inkscape-font-specification:'Source Sans Pro Bold';text-align:start;text-anchor:start;stroke:none"
       id="path22247" />
    <path
       d="m 86.898376,4.2333274 h 0.544512 V 3.3739623 l 0.72972,-1.5557472 h -0.570441 l -0.214841,0.555624 c -0.06668,0.1815038 -0.137054,0.348191 -0.203729,0.533399 h -0.01482 c -0.07038,-0.185208 -0.13335,-0.3518952 -0.19632,-0.533399 l -0.218546,-0.555624 h -0.581553 l 0.726015,1.5557472 z"
       style="font-weight:bold;font-family:'Source Sans Pro';-inkscape-font-specification:'Source Sans Pro Bold';text-align:start;text-anchor:start;stroke:none"
       id="path22249" />
    <path
       d="m 88.191131,4.2333274 h 1.748364 V 3.7740116 H 88.865288 L 89.932087,2.1478853 V 1.8182151 h -1.640943 v 0.4593158 h 0.966785 l -1.066798,1.6261263 z"
       style="font-weight:bold;font-family:'Source Sans Pro';-inkscape-font-specification:'Source Sans Pro Bold';text-align:start;text-anchor:start;stroke:none"
       id="path22251" />
    <path
       d="m 90.343252,4.2333274 h 0.548215 V 1.8182151 h -0.548215 z"
       style="font-weight:bold;font-family:'Source Sans Pro';-inkscape-font-specification:'Source Sans Pro Bold';text-align:start;text-anchor:start;stroke:none"
       id="path22253" />
    <path
       d="m 91.454497,4.2333274 h 0.548216 v -0.648228 l 0.281516,-0.370416 0.585257,1.018644 H 93.46956 L 92.602787,2.7812967 93.332506,1.8182151 h -0.59637 l -0.722311,0.9890107 h -0.01111 V 1.8182151 h -0.548216 z"
       style="font-weight:bold;font-family:'Source Sans Pro';-inkscape-font-specification:'Source Sans Pro Bold';text-align:start;text-anchor:start;stroke:none"
       id="path22255" />
    <path
       d="m 95.051238,1.1885079 h -0.577849 l -0.296332,0.4444992 h 0.433386 z m -0.855661,2.0446963 0.05927,-0.2222496 c 0.06667,-0.2407704 0.13335,-0.5222866 0.188912,-0.7778736 h 0.01482 c 0.06668,0.2518829 0.129645,0.5371032 0.19632,0.7778736 l 0.05927,0.2222496 z m 0.777874,1.0001232 H 95.5513 L 94.791947,1.8182151 h -0.651932 l -0.759353,2.4151123 h 0.555624 l 0.148167,-0.5741448 h 0.740832 z"
       style="font-weight:bold;font-family:'Source Sans Pro';-inkscape-font-specification:'Source Sans Pro Bold';text-align:start;text-anchor:start;stroke:none"
       id="path22257" />
    <path
       d="m 95.80318,4.2333274 h 1.500185 V 3.7740116 H 96.351396 V 1.8182151 H 95.80318 Z"
       style="font-weight:bold;font-family:'Source Sans Pro';-inkscape-font-specification:'Source Sans Pro Bold';text-align:start;text-anchor:start;stroke:none"
       id="path22259" />
    <path
       d="m 97.714529,4.2333274 h 0.522287 v -0.855661 c 0,-0.2852203 -0.04445,-0.6074822 -0.07038,-0.8741817 h 0.01482 l 0.237067,0.5259907 0.629707,1.203852 h 0.559328 V 1.8182151 h -0.518583 v 0.8519568 c 0,0.2852203 0.04445,0.626003 0.07038,0.8815901 h -0.01482 L 98.903564,3.0183629 98.273857,1.8182151 h -0.559328 z"
       style="font-weight:bold;font-family:'Source Sans Pro';-inkscape-font-specification:'Source Sans Pro Bold';text-align:start;text-anchor:start;stroke:none"
       id="path22261" />
    <path
       d="m 100.17409,4.2333274 h 0.54822 V 1.8182151 h -0.54822 z m 0.87418,-3.0448195 h -0.57785 l -0.30003,0.4444992 h 0.43338 z"
       style="font-weight:bold;font-family:'Source Sans Pro';-inkscape-font-specification:'Source Sans Pro Bold';text-align:start;text-anchor:start;stroke:none"
       id="path22263" />
    <path
       d="m 102.0558,4.2333274 h 1.55204 V 3.7740116 h -1.00382 v -0.555624 h 0.82232 V 2.7627759 h -0.82232 v -0.485245 h 0.96678 V 1.8182151 h -1.515 z"
       style="font-weight:bold;font-family:'Source Sans Pro';-inkscape-font-specification:'Source Sans Pro Bold';text-align:start;text-anchor:start;stroke:none"
       id="path22265" />
    <path
       d="m 104.07827,4.2333274 h 0.52229 v -0.855661 c 0,-0.2852203 -0.0444,-0.6074822 -0.0704,-0.8741817 h 0.0148 l 0.23706,0.5259907 0.62971,1.203852 h 0.55933 V 1.8182151 h -0.51859 v 0.8519568 c 0,0.2852203 0.0444,0.626003 0.0704,0.8815901 h -0.0148 L 105.26731,3.0183629 104.6376,1.8182151 h -0.55933 z"
       style="font-weight:bold;font-family:'Source Sans Pro';-inkscape-font-specification:'Source Sans Pro Bold';text-align:start;text-anchor:start;stroke:none"
       id="path22267" />
    <path
       d="m 106.423,3.0405879 c 0,0.811211 0.51858,1.2371894 1.17052,1.2371894 0.33708,0 0.63711,-0.1407581 0.81121,-0.2926286 v -1.111248 h -0.8853 v 0.4444992 h 0.40005 v 0.4148659 c -0.0593,0.048154 -0.15928,0.074083 -0.25558,0.074083 -0.45562,0 -0.68157,-0.2889245 -0.68157,-0.7852819 0,-0.485245 0.2667,-0.7778736 0.63712,-0.7778736 0.20743,0 0.32226,0.070379 0.4445,0.1815038 l 0.30003,-0.3370785 c -0.16298,-0.1629831 -0.41116,-0.3148536 -0.75194,-0.3148536 -0.65564,0 -1.18904,0.4667241 -1.18904,1.2668227 z"
       style="font-weight:bold;font-family:'Source Sans Pro';-inkscape-font-specification:'Source Sans Pro Bold';text-align:start;text-anchor:start;stroke:none"
       id="path22269" />
    <path
       d="m 108.89368,4.2333274 h 0.54821 V 1.8182151 h -0.54821 z"
       style="font-weight:bold;font-family:'Source Sans Pro';-inkscape-font-specification:'Source Sans Pro Bold';text-align:start;text-anchor:start;stroke:none"
       id="path22271" />
    <path
       d="m 110.00492,4.2333274 h 0.52229 v -0.855661 c 0,-0.2852203 -0.0444,-0.6074822 -0.0704,-0.8741817 h 0.0148 l 0.23707,0.5259907 0.62971,1.203852 h 0.55933 V 1.8182151 h -0.51859 v 0.8519568 c 0,0.2852203 0.0444,0.626003 0.0704,0.8815901 h -0.0148 l -0.24077,-0.5333991 -0.62971,-1.2001478 h -0.55933 z"
       style="font-weight:bold;font-family:'Source Sans Pro';-inkscape-font-specification:'Source Sans Pro Bold';text-align:start;text-anchor:start;stroke:none"
       id="path22273" />
    <path
       d="m 112.46448,4.2333274 h 1.55205 V 3.7740116 h -1.00383 v -0.555624 h 0.82232 V 2.7627759 h -0.82232 v -0.485245 h 0.96678 V 1.8182151 h -1.515 z"
       style="font-weight:bold;font-family:'Source Sans Pro';-inkscape-font-specification:'Source Sans Pro Bold';text-align:start;text-anchor:start;stroke:none"
       id="path22275" />
  </g>
  <path
     id="path18686"
     style="fill:#2f3744;fill-opacity:1;stroke:#7b8694;stroke-width:0.264583;stroke-linecap:round;stroke-miterlimit:4;stroke-dasharray:none;stroke-opacity:1"
     d="m 84.005081,23.151006 h 30.427029 v 9.133323 H 84.005081 Z"
     inkscape:connector-curvature="0"
     sodipodi:nodetypes="ccccc" />
  <g
     aria-label="Aktualizuj pozice
a rychlosti"
     id="text18692"
     style="font-size:3.175px;line-height:1.25;font-family:'Small Fonts';-inkscape-font-specification:'Small Fonts';text-align:center;text-anchor:middle;fill:#e8eaec;stroke:#cf2f25;stroke-width:0.264583;stroke-linecap:round">
    <path
       d="m 88.627368,26.007444 0.1016,-0.3175 c 0.07303,-0.231775 0.1397,-0.460375 0.206375,-0.701675 h 0.0127 c 0.06668,0.2413 0.13335,0.4699 0.206375,0.701675 l 0.09842,0.3175 z m 0.892175,0.847725 h 0.2794 l -0.70485,-2.0828 h -0.29845 l -0.70485,2.0828 h 0.269875 l 0.200025,-0.635 h 0.758825 z"
       style="font-family:'Source Sans Pro';-inkscape-font-specification:'Source Sans Pro';stroke:none"
       id="path22278" />
    <path
       d="m 90.059293,26.855169 h 0.257175 v -0.4064 l 0.288925,-0.33655 0.45085,0.74295 h 0.28575 l -0.587375,-0.923925 0.517525,-0.619125 h -0.288925 l -0.657225,0.8128 h -0.0095 v -1.53035 h -0.257175 z"
       style="font-family:'Source Sans Pro';-inkscape-font-specification:'Source Sans Pro';stroke:none"
       id="path22280" />
    <path
       d="m 91.630921,26.378919 c 0,0.3048 0.111125,0.51435 0.441325,0.51435 0.09525,0 0.200025,-0.02858 0.28575,-0.05715 l -0.0508,-0.19685 c -0.0508,0.01905 -0.12065,0.04128 -0.174625,0.04128 -0.1778,0 -0.238125,-0.10795 -0.238125,-0.29845 v -0.85725 h 0.415925 v -0.212725 h -0.415925 v -0.4318 h -0.219075 l -0.03175,0.4318 -0.2413,0.01588 v 0.19685 h 0.2286 z"
       style="font-family:'Source Sans Pro';-inkscape-font-specification:'Source Sans Pro';stroke:none"
       id="path22282" />
    <path
       d="m 92.618342,26.290019 c 0,0.3937 0.14605,0.60325 0.473075,0.60325 0.212725,0 0.365125,-0.111125 0.508,-0.2794 h 0.0095 l 0.02223,0.2413 h 0.2159 v -1.54305 h -0.26035 v 1.095375 c -0.14605,0.180975 -0.257175,0.26035 -0.415925,0.26035 -0.2032,0 -0.288925,-0.123825 -0.288925,-0.41275 v -0.942975 h -0.263525 z"
       style="font-family:'Source Sans Pro';-inkscape-font-specification:'Source Sans Pro';stroke:none"
       id="path22284" />
    <path
       d="m 94.291569,26.455119 c 0,0.276225 0.193675,0.43815 0.454025,0.43815 0.1905,0 0.36195,-0.1016 0.511175,-0.22225 h 0.0063 l 0.02222,0.18415 h 0.2159 v -0.94615 c 0,-0.384175 -0.15875,-0.635 -0.536575,-0.635 -0.24765,0 -0.46355,0.10795 -0.606425,0.200025 l 0.104775,0.180975 c 0.12065,-0.08255 0.2794,-0.1651 0.460375,-0.1651 0.250825,0 0.3175,0.1905 0.3175,0.38735 -0.657225,0.07303 -0.949325,0.2413 -0.949325,0.57785 z m 0.257175,-0.01905 c 0,-0.19685 0.174625,-0.32385 0.69215,-0.38735 v 0.428625 c -0.149225,0.13335 -0.27305,0.206375 -0.422275,0.206375 -0.1524,0 -0.269875,-0.07303 -0.269875,-0.24765 z"
       style="font-family:'Source Sans Pro';-inkscape-font-specification:'Source Sans Pro';stroke:none"
       id="path22286" />
    <path
       d="m 95.993366,26.544019 c 0,0.225425 0.07937,0.34925 0.276225,0.34925 0.06985,0 0.1143,-0.0095 0.149225,-0.0254 l -0.03493,-0.19685 c -0.02858,0.0063 -0.04127,0.0063 -0.05715,0.0063 -0.0381,0 -0.07303,-0.03175 -0.07303,-0.1143 v -1.9685 h -0.26035 z"
       style="font-family:'Source Sans Pro';-inkscape-font-specification:'Source Sans Pro';stroke:none"
       id="path22288" />
    <path
       d="m 96.936339,24.994619 c 0.1016,0 0.180975,-0.06985 0.180975,-0.168275 0,-0.1016 -0.07937,-0.168275 -0.180975,-0.168275 -0.1016,0 -0.180975,0.06668 -0.180975,0.168275 0,0.09843 0.07937,0.168275 0.180975,0.168275 z m -0.13335,1.86055 h 0.26035 v -1.54305 h -0.26035 z"
       style="font-family:'Source Sans Pro';-inkscape-font-specification:'Source Sans Pro';stroke:none"
       id="path22290" />
    <path
       d="m 97.422114,26.855169 h 1.1684 v -0.212725 h -0.8382 l 0.8128,-1.190625 v -0.1397 h -1.0541 v 0.212725 h 0.7239 l -0.8128,1.190625 z"
       style="font-family:'Source Sans Pro';-inkscape-font-specification:'Source Sans Pro';stroke:none"
       id="path22292" />
    <path
       d="m 98.879437,26.290019 c 0,0.3937 0.14605,0.60325 0.473075,0.60325 0.212725,0 0.365125,-0.111125 0.508,-0.2794 h 0.0095 l 0.02223,0.2413 h 0.215898 v -1.54305 h -0.260348 v 1.095375 c -0.14605,0.180975 -0.257175,0.26035 -0.415925,0.26035 -0.2032,0 -0.288925,-0.123825 -0.288925,-0.41275 v -0.942975 h -0.263525 z"
       style="font-family:'Source Sans Pro';-inkscape-font-specification:'Source Sans Pro';stroke:none"
       id="path22294" />
    <path
       d="m 100.63204,27.029794 c 0,0.187325 -0.0381,0.301625 -0.1905,0.301625 -0.054,0 -0.10795,-0.0127 -0.14605,-0.0254 l -0.054,0.19685 c 0.054,0.02222 0.13335,0.04127 0.2286,0.04127 0.30798,0 0.42228,-0.200025 0.42228,-0.51435 v -1.717675 h -0.26035 z m 0.13335,-2.035175 c 0.0984,0 0.1778,-0.06985 0.1778,-0.168275 0,-0.1016 -0.0794,-0.168275 -0.1778,-0.168275 -0.1016,0 -0.18098,0.06668 -0.18098,0.168275 0,0.09843 0.0794,0.168275 0.18098,0.168275 z"
       style="font-family:'Source Sans Pro';-inkscape-font-specification:'Source Sans Pro';stroke:none"
       id="path22296" />
    <path
       d="m 102.30844,26.715469 c 0.14287,0.111125 0.28575,0.1778 0.42862,0.1778 0.35243,0 0.66675,-0.307975 0.66675,-0.83185 0,-0.479425 -0.21272,-0.7874 -0.6096,-0.7874 -0.18097,0 -0.35242,0.09843 -0.49212,0.2159 h -0.01 l -0.0222,-0.1778 h -0.2159 v 2.193925 h 0.26035 v -0.5207 z m 0.006,-0.2032 v -0.809625 c 0.1524,-0.136525 0.28257,-0.20955 0.41275,-0.20955 0.2921,0 0.4064,0.2286 0.4064,0.568325 0,0.381 -0.18733,0.612775 -0.44133,0.612775 -0.1016,0 -0.23812,-0.04445 -0.37782,-0.161925 z"
       style="font-family:'Source Sans Pro';-inkscape-font-specification:'Source Sans Pro';stroke:none"
       id="path22298" />
    <path
       d="m 103.70226,26.086819 c 0,0.511175 0.33655,0.80645 0.71438,0.80645 0.37782,0 0.71437,-0.295275 0.71437,-0.80645 0,-0.517525 -0.33655,-0.8128 -0.71437,-0.8128 -0.37783,0 -0.71438,0.295275 -0.71438,0.8128 z m 0.26988,0 c 0,-0.3556 0.18097,-0.5969 0.4445,-0.5969 0.2667,0 0.4445,0.2413 0.4445,0.5969 0,0.352425 -0.1778,0.59055 -0.4445,0.59055 -0.26353,0 -0.4445,-0.238125 -0.4445,-0.59055 z"
       style="font-family:'Source Sans Pro';-inkscape-font-specification:'Source Sans Pro';stroke:none"
       id="path22300" />
    <path
       d="m 105.35643,26.855169 h 1.1684 v -0.212725 h -0.8382 l 0.8128,-1.190625 v -0.1397 h -1.0541 v 0.212725 h 0.7239 l -0.8128,1.190625 z"
       style="font-family:'Source Sans Pro';-inkscape-font-specification:'Source Sans Pro';stroke:none"
       id="path22302" />
    <path
       d="m 107.00108,24.994619 c 0.1016,0 0.18098,-0.06985 0.18098,-0.168275 0,-0.1016 -0.0794,-0.168275 -0.18098,-0.168275 -0.1016,0 -0.18097,0.06668 -0.18097,0.168275 0,0.09843 0.0794,0.168275 0.18097,0.168275 z m -0.13335,1.86055 h 0.26035 v -1.54305 h -0.26035 z"
       style="font-family:'Source Sans Pro';-inkscape-font-specification:'Source Sans Pro';stroke:none"
       id="path22304" />
    <path
       d="m 107.53448,26.086819 c 0,0.511175 0.31433,0.80645 0.7239,0.80645 0.18415,0 0.36195,-0.0762 0.50165,-0.200025 l -0.11747,-0.17145 c -0.0921,0.08255 -0.2159,0.155575 -0.36195,0.155575 -0.28258,0 -0.47625,-0.238125 -0.47625,-0.59055 0,-0.3556 0.2032,-0.5969 0.4826,-0.5969 0.12382,0 0.21907,0.05715 0.31115,0.136525 l 0.13017,-0.168275 c -0.10477,-0.09843 -0.24765,-0.18415 -0.45085,-0.18415 -0.39687,0 -0.74295,0.295275 -0.74295,0.8128 z"
       style="font-family:'Source Sans Pro';-inkscape-font-specification:'Source Sans Pro';stroke:none"
       id="path22306" />
    <path
       d="m 108.91561,26.086819 c 0,0.504825 0.32702,0.80645 0.73977,0.80645 0.20955,0 0.37465,-0.07303 0.508,-0.15875 l -0.0921,-0.17145 c -0.1143,0.07303 -0.23813,0.12065 -0.38418,0.12065 -0.29527,0 -0.4953,-0.20955 -0.51435,-0.542925 h 1.0414 c 0.006,-0.0381 0.01,-0.0889 0.01,-0.142875 0,-0.441325 -0.22225,-0.7239 -0.61595,-0.7239 -0.35243,0 -0.69215,0.307975 -0.69215,0.8128 z m 0.254,-0.117475 c 0.0317,-0.31115 0.2286,-0.48895 0.4445,-0.48895 0.2413,0 0.381,0.174625 0.381,0.48895 z"
       style="font-family:'Source Sans Pro';-inkscape-font-specification:'Source Sans Pro';stroke:none"
       id="path22308" />
    <path
       d="m 92.507215,30.542393 c 0,0.276225 0.193675,0.43815 0.454025,0.43815 0.1905,0 0.36195,-0.1016 0.511175,-0.22225 h 0.0063 l 0.02223,0.18415 h 0.2159 v -0.94615 c 0,-0.384175 -0.15875,-0.635 -0.536575,-0.635 -0.24765,0 -0.46355,0.10795 -0.606425,0.200025 l 0.104775,0.180975 c 0.12065,-0.08255 0.2794,-0.1651 0.460375,-0.1651 0.250825,0 0.3175,0.1905 0.3175,0.38735 -0.657225,0.07303 -0.949325,0.2413 -0.949325,0.57785 z m 0.257175,-0.01905 c 0,-0.19685 0.174625,-0.32385 0.69215,-0.38735 v 0.428625 c -0.149225,0.13335 -0.27305,0.206375 -0.422275,0.206375 -0.1524,0 -0.269875,-0.07303 -0.269875,-0.24765 z"
       style="font-family:'Source Sans Pro';-inkscape-font-specification:'Source Sans Pro';stroke:none"
       id="path22310" />
    <path
       d="m 94.850361,30.942443 h 0.26035 v -0.9906 c 0.104775,-0.26035 0.26035,-0.3556 0.390525,-0.3556 0.0635,0 0.09842,0.0095 0.149225,0.0254 l 0.0508,-0.2286 c -0.0508,-0.02222 -0.09843,-0.03175 -0.1651,-0.03175 -0.174625,0 -0.333375,0.123825 -0.43815,0.3175 h -0.0095 l -0.02223,-0.2794 h -0.2159 z"
       style="font-family:'Source Sans Pro';-inkscape-font-specification:'Source Sans Pro';stroke:none"
       id="path22312" />
    <path
       d="m 95.907634,31.367893 -0.0508,0.206375 c 0.0508,0.01905 0.111125,0.03175 0.180975,0.03175 0.31115,0 0.4699,-0.231775 0.57785,-0.536575 l 0.581025,-1.67005 h -0.254 l -0.276225,0.854075 c -0.04127,0.136525 -0.08572,0.295275 -0.130175,0.434975 h -0.0127 c -0.04762,-0.142875 -0.1016,-0.301625 -0.149225,-0.434975 l -0.314325,-0.854075 h -0.269875 l 0.619125,1.546225 -0.03493,0.1143 c -0.0635,0.1905 -0.174625,0.3302 -0.34925,0.3302 -0.0381,0 -0.08572,-0.0127 -0.117475,-0.02223 z"
       style="font-family:'Source Sans Pro';-inkscape-font-specification:'Source Sans Pro';stroke:none"
       id="path22314" />
    <path
       d="m 97.368138,30.174093 c 0,0.511175 0.314325,0.80645 0.7239,0.80645 0.18415,0 0.36195,-0.0762 0.50165,-0.200025 l -0.117475,-0.17145 c -0.09208,0.08255 -0.2159,0.155575 -0.36195,0.155575 -0.282575,0 -0.47625,-0.238125 -0.47625,-0.59055 0,-0.3556 0.2032,-0.5969 0.4826,-0.5969 0.123825,0 0.219075,0.05715 0.31115,0.136525 l 0.130175,-0.168275 c -0.104775,-0.09842 -0.24765,-0.18415 -0.45085,-0.18415 -0.396875,0 -0.74295,0.295275 -0.74295,0.8128 z"
       style="font-family:'Source Sans Pro';-inkscape-font-specification:'Source Sans Pro';stroke:none"
       id="path22316" />
    <path
       d="m 98.930236,30.942443 h 0.26035 v -1.1176 c 0.155575,-0.155575 0.263525,-0.238125 0.422275,-0.238125 0.2032,0 0.2921,0.123825 0.2921,0.41275 v 0.942975 h 0.260349 v -0.9779 c 0,-0.3937 -0.14605,-0.60325 -0.469899,-0.60325 -0.212725,0 -0.3683,0.1143 -0.51435,0.254 l 0.0095,-0.3175 v -0.61595 h -0.26035 z"
       style="font-family:'Source Sans Pro';-inkscape-font-specification:'Source Sans Pro';stroke:none"
       id="path22318" />
    <path
       d="m 100.65744,30.631293 c 0,0.225425 0.0794,0.34925 0.27622,0.34925 0.0699,0 0.1143,-0.0095 0.14923,-0.0254 l -0.0349,-0.19685 c -0.0286,0.0064 -0.0413,0.0064 -0.0572,0.0064 -0.0381,0 -0.073,-0.03175 -0.073,-0.1143 v -1.9685 h -0.26035 z"
       style="font-family:'Source Sans Pro';-inkscape-font-specification:'Source Sans Pro';stroke:none"
       id="path22320" />
    <path
       d="m 101.35276,30.174093 c 0,0.511175 0.33655,0.80645 0.71438,0.80645 0.37782,0 0.71437,-0.295275 0.71437,-0.80645 0,-0.517525 -0.33655,-0.8128 -0.71437,-0.8128 -0.37783,0 -0.71438,0.295275 -0.71438,0.8128 z m 0.26988,0 c 0,-0.3556 0.18097,-0.5969 0.4445,-0.5969 0.2667,0 0.4445,0.2413 0.4445,0.5969 0,0.352425 -0.1778,0.59055 -0.4445,0.59055 -0.26353,0 -0.4445,-0.238125 -0.4445,-0.59055 z"
       style="font-family:'Source Sans Pro';-inkscape-font-specification:'Source Sans Pro';stroke:none"
       id="path22322" />
    <path
       d="m 103.01646,30.767818 c 0.14605,0.12065 0.3556,0.212725 0.57467,0.212725 0.36513,0 0.56515,-0.20955 0.56515,-0.460375 0,-0.2921 -0.24765,-0.384175 -0.4699,-0.466725 -0.17462,-0.06668 -0.3429,-0.123825 -0.3429,-0.2667 0,-0.117475 0.0889,-0.22225 0.28258,-0.22225 0.13652,0 0.24765,0.05715 0.35242,0.136525 l 0.12383,-0.1651 c -0.11748,-0.09525 -0.28575,-0.174625 -0.47943,-0.174625 -0.33337,0 -0.53022,0.1905 -0.53022,0.43815 0,0.26035 0.2413,0.365125 0.46037,0.4445 0.16828,0.0635 0.35243,0.13335 0.35243,0.2921 0,0.13335 -0.1016,0.2413 -0.3048,0.2413 -0.18415,0 -0.32068,-0.0762 -0.45403,-0.18415 z"
       style="font-family:'Source Sans Pro';-inkscape-font-specification:'Source Sans Pro';stroke:none"
       id="path22324" />
    <path
       d="m 104.56269,30.466193 c 0,0.3048 0.11112,0.51435 0.44132,0.51435 0.0953,0 0.20003,-0.02858 0.28575,-0.05715 l -0.0508,-0.19685 c -0.0508,0.01905 -0.12065,0.04127 -0.17462,0.04127 -0.1778,0 -0.23813,-0.10795 -0.23813,-0.29845 v -0.85725 h 0.41593 v -0.212725 h -0.41593 v -0.4318 h -0.21907 l -0.0318,0.4318 -0.2413,0.01588 v 0.19685 h 0.2286 z"
       style="font-family:'Source Sans Pro';-inkscape-font-specification:'Source Sans Pro';stroke:none"
       id="path22326" />
    <path
       d="m 105.72473,29.081893 c 0.1016,0 0.18098,-0.06985 0.18098,-0.168275 0,-0.1016 -0.0794,-0.168275 -0.18098,-0.168275 -0.1016,0 -0.18097,0.06668 -0.18097,0.168275 0,0.09842 0.0794,0.168275 0.18097,0.168275 z m -0.13335,1.86055 h 0.26035 v -1.54305 h -0.26035 z"
       style="font-family:'Source Sans Pro';-inkscape-font-specification:'Source Sans Pro';stroke:none"
       id="path22328" />
  </g>
  <path
     sodipodi:nodetypes="ccccc"
     inkscape:connector-curvature="0"
     d="m 84.005081,39.025982 h 30.427029 v 9.133323 H 84.005081 Z"
     style="fill:#2f3744;fill-opacity:1;stroke:#7b8694;stroke-width:0.264583;stroke-linecap:round;stroke-miterlimit:4;stroke-dasharray:none;stroke-opacity:1"
     id="path18694" />
  <g
     aria-label="Detekuj kolize"
     id="text18698"
     style="font-size:3.175px;line-height:1.25;font-family:'Small Fonts';-inkscape-font-specification:'Small Fonts';text-align:center;text-anchor:middle;fill:#e8eaec;stroke:#cf2f25;stroke-width:0.264583;stroke-linecap:round">
    <path
       d="m 90.245012,44.846806 h 0.5334 c 0.62865,0 0.97155,-0.38735 0.97155,-1.050925 0,-0.6604 -0.3429,-1.031875 -0.98425,-1.031875 h -0.5207 z m 0.2667,-0.2159 v -1.651 h 0.23495 c 0.48895,0 0.73025,0.2921 0.73025,0.815975 0,0.52705 -0.2413,0.835025 -0.73025,0.835025 z"
       style="font-family:'Source Sans Pro';-inkscape-font-specification:'Source Sans Pro';stroke:none"
       id="path22331" />
    <path
       d="m 92.057935,44.078456 c 0,0.504825 0.327025,0.80645 0.739775,0.80645 0.20955,0 0.37465,-0.07303 0.508,-0.15875 l -0.09208,-0.17145 c -0.1143,0.07302 -0.238125,0.12065 -0.384175,0.12065 -0.295275,0 -0.4953,-0.20955 -0.51435,-0.542925 h 1.0414 c 0.0063,-0.0381 0.0095,-0.0889 0.0095,-0.142875 0,-0.441325 -0.22225,-0.7239 -0.61595,-0.7239 -0.352425,0 -0.69215,0.307975 -0.69215,0.8128 z m 0.254,-0.117475 c 0.03175,-0.31115 0.2286,-0.48895 0.4445,-0.48895 0.2413,0 0.381,0.174625 0.381,0.48895 z"
       style="font-family:'Source Sans Pro';-inkscape-font-specification:'Source Sans Pro';stroke:none"
       id="path22333" />
    <path
       d="m 93.747036,44.370556 c 0,0.3048 0.111125,0.51435 0.441325,0.51435 0.09525,0 0.200025,-0.02858 0.28575,-0.05715 l -0.0508,-0.19685 c -0.0508,0.01905 -0.12065,0.04127 -0.174625,0.04127 -0.1778,0 -0.238125,-0.10795 -0.238125,-0.29845 v -0.85725 h 0.415925 v -0.212725 h -0.415925 v -0.4318 h -0.219075 l -0.03175,0.4318 -0.2413,0.01588 v 0.19685 h 0.2286 z"
       style="font-family:'Source Sans Pro';-inkscape-font-specification:'Source Sans Pro';stroke:none"
       id="path22335" />
    <path
       d="m 94.629684,44.078456 c 0,0.504825 0.327025,0.80645 0.739775,0.80645 0.20955,0 0.37465,-0.07303 0.508,-0.15875 l -0.09208,-0.17145 c -0.1143,0.07302 -0.238125,0.12065 -0.384175,0.12065 -0.295275,0 -0.4953,-0.20955 -0.51435,-0.542925 h 1.0414 c 0.0063,-0.0381 0.0095,-0.0889 0.0095,-0.142875 0,-0.441325 -0.22225,-0.7239 -0.61595,-0.7239 -0.352425,0 -0.69215,0.307975 -0.69215,0.8128 z m 0.254,-0.117475 c 0.03175,-0.31115 0.2286,-0.48895 0.4445,-0.48895 0.2413,0 0.381,0.174625 0.381,0.48895 z"
       style="font-family:'Source Sans Pro';-inkscape-font-specification:'Source Sans Pro';stroke:none"
       id="path22337" />
    <path
       d="m 96.318784,44.846806 h 0.257175 v -0.4064 l 0.288925,-0.33655 0.45085,0.74295 h 0.28575 l -0.587375,-0.923925 0.517525,-0.619125 h -0.288925 l -0.657225,0.8128 h -0.0095 v -1.53035 h -0.257175 z"
       style="font-family:'Source Sans Pro';-inkscape-font-specification:'Source Sans Pro';stroke:none"
       id="path22339" />
    <path
       d="m 97.823737,44.281656 c 0,0.3937 0.14605,0.60325 0.473075,0.60325 0.212725,0 0.365125,-0.111125 0.508,-0.2794 h 0.0095 l 0.02223,0.2413 h 0.2159 v -1.54305 h -0.26035 v 1.095375 c -0.14605,0.180975 -0.257175,0.26035 -0.415925,0.26035 -0.2032,0 -0.288925,-0.123825 -0.288925,-0.41275 v -0.942975 h -0.263525 z"
       style="font-family:'Source Sans Pro';-inkscape-font-specification:'Source Sans Pro';stroke:none"
       id="path22341" />
    <path
       d="m 99.576339,45.021431 c 0,0.187325 -0.0381,0.301625 -0.1905,0.301625 -0.05398,0 -0.10795,-0.0127 -0.14605,-0.0254 l -0.05398,0.19685 c 0.05398,0.02222 0.13335,0.04127 0.2286,0.04127 0.307975,0 0.422275,-0.200025 0.422275,-0.51435 v -1.717675 h -0.26035 z m 0.13335,-2.035175 c 0.09843,0 0.1778,-0.06985 0.1778,-0.168275 0,-0.1016 -0.07937,-0.168275 -0.1778,-0.168275 -0.1016,0 -0.180975,0.06667 -0.180975,0.168275 0,0.09842 0.07938,0.168275 0.180975,0.168275 z"
       style="font-family:'Source Sans Pro';-inkscape-font-specification:'Source Sans Pro';stroke:none"
       id="path22343" />
    <path
       d="m 100.99874,44.846806 h 0.25717 v -0.4064 l 0.28893,-0.33655 0.45085,0.74295 h 0.28575 l -0.58738,-0.923925 0.51753,-0.619125 h -0.28893 l -0.65722,0.8128 h -0.01 v -1.53035 h -0.25717 z"
       style="font-family:'Source Sans Pro';-inkscape-font-specification:'Source Sans Pro';stroke:none"
       id="path22345" />
    <path
       d="m 102.39892,44.078456 c 0,0.511175 0.33655,0.80645 0.71437,0.80645 0.37783,0 0.71438,-0.295275 0.71438,-0.80645 0,-0.517525 -0.33655,-0.8128 -0.71438,-0.8128 -0.37782,0 -0.71437,0.295275 -0.71437,0.8128 z m 0.26987,0 c 0,-0.3556 0.18098,-0.5969 0.4445,-0.5969 0.2667,0 0.4445,0.2413 0.4445,0.5969 0,0.352425 -0.1778,0.59055 -0.4445,0.59055 -0.26352,0 -0.4445,-0.238125 -0.4445,-0.59055 z"
       style="font-family:'Source Sans Pro';-inkscape-font-specification:'Source Sans Pro';stroke:none"
       id="path22347" />
    <path
       d="m 104.23407,44.535656 c 0,0.225425 0.0794,0.34925 0.27622,0.34925 0.0699,0 0.1143,-0.0095 0.14923,-0.0254 l -0.0349,-0.19685 c -0.0286,0.0064 -0.0413,0.0064 -0.0571,0.0064 -0.0381,0 -0.073,-0.03175 -0.073,-0.1143 v -1.9685 h -0.26035 z"
       style="font-family:'Source Sans Pro';-inkscape-font-specification:'Source Sans Pro';stroke:none"
       id="path22349" />
    <path
       d="m 105.17704,42.986256 c 0.1016,0 0.18097,-0.06985 0.18097,-0.168275 0,-0.1016 -0.0794,-0.168275 -0.18097,-0.168275 -0.1016,0 -0.18098,0.06667 -0.18098,0.168275 0,0.09842 0.0794,0.168275 0.18098,0.168275 z m -0.13335,1.86055 h 0.26035 v -1.54305 h -0.26035 z"
       style="font-family:'Source Sans Pro';-inkscape-font-specification:'Source Sans Pro';stroke:none"
       id="path22351" />
    <path
       d="m 105.66281,44.846806 h 1.1684 v -0.212725 h -0.8382 l 0.8128,-1.190625 v -0.1397 h -1.0541 v 0.212725 h 0.7239 l -0.8128,1.190625 z"
       style="font-family:'Source Sans Pro';-inkscape-font-specification:'Source Sans Pro';stroke:none"
       id="path22353" />
    <path
       d="m 107.02806,44.078456 c 0,0.504825 0.32703,0.80645 0.73978,0.80645 0.20955,0 0.37465,-0.07303 0.508,-0.15875 l -0.0921,-0.17145 c -0.1143,0.07302 -0.23812,0.12065 -0.38417,0.12065 -0.29528,0 -0.4953,-0.20955 -0.51435,-0.542925 h 1.0414 c 0.006,-0.0381 0.01,-0.0889 0.01,-0.142875 0,-0.441325 -0.22225,-0.7239 -0.61595,-0.7239 -0.35242,0 -0.69215,0.307975 -0.69215,0.8128 z m 0.254,-0.117475 c 0.0318,-0.31115 0.2286,-0.48895 0.4445,-0.48895 0.2413,0 0.381,0.174625 0.381,0.48895 z"
       style="font-family:'Source Sans Pro';-inkscape-font-specification:'Source Sans Pro';stroke:none"
       id="path22355" />
  </g>
  <path
     id="path18700"
     style="fill:#2f3744;fill-opacity:1;stroke:#7b8694;stroke-width:0.264583;stroke-linecap:round;stroke-miterlimit:4;stroke-dasharray:none;stroke-opacity:1"
     d="m 84.005081,54.900954 h 30.427029 v 9.13333 H 84.005081 Z"
     inkscape:connector-curvature="0"
     sodipodi:nodetypes="ccccc" />
  <g
     aria-label="Vyřeš kolize a
constrainty"
     id="text18706"
     style="font-size:3.175px;line-height:1.25;font-family:'Small Fonts';-inkscape-font-specification:'Small Fonts';text-align:center;text-anchor:middle;fill:#e8eaec;stroke:#cf2f25;stroke-width:0.264583;stroke-linecap:round">
    <path
       d="m 91.299502,58.605114 h 0.307975 l 0.6604,-2.0828 h -0.269875 l -0.333375,1.12395 c -0.06985,0.24765 -0.123825,0.4445 -0.200025,0.688975 h -0.0127 c -0.0762,-0.244475 -0.127,-0.441325 -0.200025,-0.688975 l -0.33655,-1.12395 h -0.2794 z"
       style="font-family:'Source Sans Pro';-inkscape-font-specification:'Source Sans Pro';stroke:none"
       id="path22358" />
    <path
       d="m 92.388526,59.030564 -0.0508,0.206375 c 0.0508,0.01905 0.111125,0.03175 0.180975,0.03175 0.31115,0 0.4699,-0.231775 0.57785,-0.536575 l 0.581025,-1.67005 h -0.254 l -0.276225,0.854075 c -0.04127,0.136525 -0.08572,0.295275 -0.130175,0.434975 h -0.0127 c -0.04762,-0.142875 -0.1016,-0.301625 -0.149225,-0.434975 l -0.314325,-0.854075 h -0.269875 l 0.619125,1.546225 -0.03493,0.1143 c -0.0635,0.1905 -0.174625,0.3302 -0.34925,0.3302 -0.0381,0 -0.08572,-0.0127 -0.117475,-0.02222 z"
       style="font-family:'Source Sans Pro';-inkscape-font-specification:'Source Sans Pro';stroke:none"
       id="path22360" />
    <path
       d="m 93.976029,58.605114 h 0.26035 v -0.9906 c 0.104775,-0.26035 0.26035,-0.3556 0.390525,-0.3556 0.0635,0 0.09843,0.0095 0.149225,0.0254 l 0.0508,-0.2286 c -0.0508,-0.02222 -0.09843,-0.03175 -0.1651,-0.03175 -0.174625,0 -0.333375,0.123825 -0.43815,0.3175 h -0.0095 l -0.02222,-0.2794 h -0.2159 z m 0.32385,-1.819275 h 0.212725 l 0.301625,-0.447675 h -0.187325 l -0.212725,0.2921 h -0.0127 l -0.212725,-0.2921 h -0.1905 z"
       style="font-family:'Source Sans Pro';-inkscape-font-specification:'Source Sans Pro';stroke:none"
       id="path22362" />
    <path
       d="m 94.931703,57.836764 c 0,0.504825 0.327025,0.80645 0.739775,0.80645 0.20955,0 0.37465,-0.07303 0.508,-0.15875 l -0.09208,-0.17145 c -0.1143,0.07302 -0.238125,0.12065 -0.384175,0.12065 -0.295275,0 -0.4953,-0.20955 -0.51435,-0.542925 h 1.0414 c 0.0063,-0.0381 0.0095,-0.0889 0.0095,-0.142875 0,-0.441325 -0.22225,-0.7239 -0.61595,-0.7239 -0.352425,0 -0.69215,0.307975 -0.69215,0.8128 z m 0.254,-0.117475 c 0.03175,-0.31115 0.2286,-0.48895 0.4445,-0.48895 0.2413,0 0.381,0.174625 0.381,0.48895 z"
       style="font-family:'Source Sans Pro';-inkscape-font-specification:'Source Sans Pro';stroke:none"
       id="path22364" />
    <path
       d="m 96.449354,58.430489 c 0.14605,0.12065 0.3556,0.212725 0.574675,0.212725 0.365125,0 0.56515,-0.20955 0.56515,-0.460375 0,-0.2921 -0.24765,-0.384175 -0.4699,-0.466725 -0.174625,-0.06667 -0.3429,-0.123825 -0.3429,-0.2667 0,-0.117475 0.0889,-0.22225 0.282575,-0.22225 0.136525,0 0.24765,0.05715 0.352425,0.136525 l 0.123825,-0.1651 c -0.117475,-0.09525 -0.28575,-0.174625 -0.479425,-0.174625 -0.333375,0 -0.530225,0.1905 -0.530225,0.43815 0,0.26035 0.2413,0.365125 0.460375,0.4445 0.168275,0.0635 0.352425,0.13335 0.352425,0.2921 0,0.13335 -0.1016,0.2413 -0.3048,0.2413 -0.18415,0 -0.320675,-0.0762 -0.454025,-0.18415 z m 0.50165,-1.64465 h 0.2159 l 0.29845,-0.447675 h -0.187325 l -0.212725,0.2921 h -0.0127 l -0.212725,-0.2921 h -0.1905 z"
       style="font-family:'Source Sans Pro';-inkscape-font-specification:'Source Sans Pro';stroke:none"
       id="path22366" />
    <path
       d="m 98.59248,58.605114 h 0.257175 v -0.4064 l 0.288925,-0.33655 0.45085,0.74295 h 0.28575 l -0.587375,-0.923925 0.517525,-0.619125 h -0.288925 l -0.657225,0.8128 h -0.0095 v -1.53035 H 98.59248 Z"
       style="font-family:'Source Sans Pro';-inkscape-font-specification:'Source Sans Pro';stroke:none"
       id="path22368" />
    <path
       d="m 99.992659,57.836764 c 0,0.511175 0.336551,0.80645 0.714371,0.80645 0.37783,0 0.71438,-0.295275 0.71438,-0.80645 0,-0.517525 -0.33655,-0.8128 -0.71438,-0.8128 -0.37782,0 -0.714371,0.295275 -0.714371,0.8128 z m 0.269871,0 c 0,-0.3556 0.18098,-0.5969 0.4445,-0.5969 0.2667,0 0.4445,0.2413 0.4445,0.5969 0,0.352425 -0.1778,0.59055 -0.4445,0.59055 -0.26352,0 -0.4445,-0.238125 -0.4445,-0.59055 z"
       style="font-family:'Source Sans Pro';-inkscape-font-specification:'Source Sans Pro';stroke:none"
       id="path22370" />
    <path
       d="m 101.82781,58.293964 c 0,0.225425 0.0794,0.34925 0.27622,0.34925 0.0699,0 0.1143,-0.0095 0.14923,-0.0254 l -0.0349,-0.19685 c -0.0286,0.0064 -0.0413,0.0064 -0.0571,0.0064 -0.0381,0 -0.073,-0.03175 -0.073,-0.1143 v -1.9685 h -0.26035 z"
       style="font-family:'Source Sans Pro';-inkscape-font-specification:'Source Sans Pro';stroke:none"
       id="path22372" />
    <path
       d="m 102.77078,56.744564 c 0.1016,0 0.18098,-0.06985 0.18098,-0.168275 0,-0.1016 -0.0794,-0.168275 -0.18098,-0.168275 -0.1016,0 -0.18097,0.06667 -0.18097,0.168275 0,0.09842 0.0794,0.168275 0.18097,0.168275 z m -0.13335,1.86055 h 0.26035 v -1.54305 h -0.26035 z"
       style="font-family:'Source Sans Pro';-inkscape-font-specification:'Source Sans Pro';stroke:none"
       id="path22374" />
    <path
       d="m 103.25656,58.605114 h 1.1684 v -0.212725 h -0.8382 l 0.8128,-1.190625 v -0.1397 h -1.0541 v 0.212725 h 0.7239 l -0.8128,1.190625 z"
       style="font-family:'Source Sans Pro';-inkscape-font-specification:'Source Sans Pro';stroke:none"
       id="path22376" />
    <path
       d="m 104.6218,57.836764 c 0,0.504825 0.32703,0.80645 0.73978,0.80645 0.20955,0 0.37465,-0.07303 0.508,-0.15875 l -0.0921,-0.17145 c -0.1143,0.07302 -0.23812,0.12065 -0.38417,0.12065 -0.29528,0 -0.4953,-0.20955 -0.51435,-0.542925 h 1.0414 c 0.006,-0.0381 0.01,-0.0889 0.01,-0.142875 0,-0.441325 -0.22225,-0.7239 -0.61595,-0.7239 -0.35242,0 -0.69215,0.307975 -0.69215,0.8128 z m 0.254,-0.117475 c 0.0318,-0.31115 0.2286,-0.48895 0.4445,-0.48895 0.2413,0 0.381,0.174625 0.381,0.48895 z"
       style="font-family:'Source Sans Pro';-inkscape-font-specification:'Source Sans Pro';stroke:none"
       id="path22378" />
    <path
       d="m 106.87605,58.205064 c 0,0.276225 0.19368,0.43815 0.45403,0.43815 0.1905,0 0.36195,-0.1016 0.51117,-0.22225 h 0.006 l 0.0222,0.18415 h 0.2159 v -0.94615 c 0,-0.384175 -0.15875,-0.635 -0.53658,-0.635 -0.24765,0 -0.46355,0.10795 -0.60642,0.200025 l 0.10477,0.180975 c 0.12065,-0.08255 0.2794,-0.1651 0.46038,-0.1651 0.25082,0 0.3175,0.1905 0.3175,0.38735 -0.65723,0.07303 -0.94933,0.2413 -0.94933,0.57785 z m 0.25718,-0.01905 c 0,-0.19685 0.17462,-0.32385 0.69215,-0.38735 v 0.428625 c -0.14923,0.13335 -0.27305,0.206375 -0.42228,0.206375 -0.1524,0 -0.26987,-0.07303 -0.26987,-0.24765 z"
       style="font-family:'Source Sans Pro';-inkscape-font-specification:'Source Sans Pro';stroke:none"
       id="path22380" />
    <path
       d="m 92.14405,61.924038 c 0,0.511175 0.314325,0.80645 0.7239,0.80645 0.18415,0 0.36195,-0.0762 0.50165,-0.200025 l -0.117475,-0.17145 c -0.09208,0.08255 -0.2159,0.155575 -0.36195,0.155575 -0.282575,0 -0.47625,-0.238125 -0.47625,-0.59055 0,-0.3556 0.2032,-0.5969 0.4826,-0.5969 0.123825,0 0.219075,0.05715 0.31115,0.136525 l 0.130175,-0.168275 c -0.104775,-0.09843 -0.24765,-0.18415 -0.45085,-0.18415 -0.396875,0 -0.74295,0.295275 -0.74295,0.8128 z"
       style="font-family:'Source Sans Pro';-inkscape-font-specification:'Source Sans Pro';stroke:none"
       id="path22382" />
    <path
       d="m 93.525173,61.924038 c 0,0.511175 0.33655,0.80645 0.714375,0.80645 0.377825,0 0.714375,-0.295275 0.714375,-0.80645 0,-0.517525 -0.33655,-0.8128 -0.714375,-0.8128 -0.377825,0 -0.714375,0.295275 -0.714375,0.8128 z m 0.269875,0 c 0,-0.3556 0.180975,-0.5969 0.4445,-0.5969 0.2667,0 0.4445,0.2413 0.4445,0.5969 0,0.352425 -0.1778,0.59055 -0.4445,0.59055 -0.263525,0 -0.4445,-0.238125 -0.4445,-0.59055 z"
       style="font-family:'Source Sans Pro';-inkscape-font-specification:'Source Sans Pro';stroke:none"
       id="path22384" />
    <path
       d="m 95.360322,62.692388 h 0.26035 v -1.1176 c 0.155575,-0.155575 0.263525,-0.238125 0.422275,-0.238125 0.2032,0 0.2921,0.123825 0.2921,0.41275 v 0.942975 h 0.26035 v -0.9779 c 0,-0.3937 -0.14605,-0.60325 -0.4699,-0.60325 -0.212725,0 -0.371475,0.1143 -0.517525,0.26035 h -0.0095 l -0.02222,-0.22225 h -0.2159 z"
       style="font-family:'Source Sans Pro';-inkscape-font-specification:'Source Sans Pro';stroke:none"
       id="path22386" />
    <path
       d="m 96.9256,62.517763 c 0.14605,0.12065 0.3556,0.212725 0.574675,0.212725 0.365125,0 0.56515,-0.20955 0.56515,-0.460375 0,-0.2921 -0.24765,-0.384175 -0.4699,-0.466725 -0.174625,-0.06667 -0.3429,-0.123825 -0.3429,-0.2667 0,-0.117475 0.0889,-0.22225 0.282575,-0.22225 0.136525,0 0.24765,0.05715 0.352425,0.136525 l 0.123825,-0.1651 c -0.117475,-0.09525 -0.28575,-0.174625 -0.479425,-0.174625 -0.333375,0 -0.530225,0.1905 -0.530225,0.43815 0,0.26035 0.2413,0.365125 0.460375,0.4445 0.168275,0.0635 0.352425,0.13335 0.352425,0.2921 0,0.13335 -0.1016,0.2413 -0.3048,0.2413 -0.18415,0 -0.320675,-0.0762 -0.454025,-0.18415 z"
       style="font-family:'Source Sans Pro';-inkscape-font-specification:'Source Sans Pro';stroke:none"
       id="path22388" />
    <path
       d="m 98.471827,62.216138 c 0,0.3048 0.111125,0.51435 0.441325,0.51435 0.09525,0 0.200025,-0.02858 0.28575,-0.05715 l -0.0508,-0.19685 c -0.0508,0.01905 -0.12065,0.04127 -0.174625,0.04127 -0.1778,0 -0.238125,-0.10795 -0.238125,-0.29845 v -0.85725 h 0.415925 v -0.212725 h -0.415925 v -0.4318 h -0.219075 l -0.03175,0.4318 -0.2413,0.01588 v 0.19685 h 0.2286 z"
       style="font-family:'Source Sans Pro';-inkscape-font-specification:'Source Sans Pro';stroke:none"
       id="path22390" />
    <path
       d="m 99.500525,62.692388 h 0.26035 v -0.9906 c 0.104775,-0.26035 0.260345,-0.3556 0.390525,-0.3556 0.0635,0 0.0984,0.0095 0.14922,0.0254 l 0.0508,-0.2286 c -0.0508,-0.02223 -0.0984,-0.03175 -0.1651,-0.03175 -0.17462,0 -0.33337,0.123825 -0.438145,0.3175 h -0.0095 l -0.02223,-0.2794 h -0.2159 z"
       style="font-family:'Source Sans Pro';-inkscape-font-specification:'Source Sans Pro';stroke:none"
       id="path22392" />
    <path
       d="m 100.44668,62.292338 c 0,0.276225 0.19367,0.43815 0.45402,0.43815 0.1905,0 0.36195,-0.1016 0.51118,-0.22225 h 0.006 l 0.0222,0.18415 h 0.2159 v -0.94615 c 0,-0.384175 -0.15875,-0.635 -0.53657,-0.635 -0.24765,0 -0.46355,0.10795 -0.60643,0.200025 l 0.10478,0.180975 c 0.12065,-0.08255 0.2794,-0.1651 0.46037,-0.1651 0.25083,0 0.3175,0.1905 0.3175,0.38735 -0.65722,0.07302 -0.94932,0.2413 -0.94932,0.57785 z m 0.25717,-0.01905 c 0,-0.19685 0.17463,-0.32385 0.69215,-0.38735 v 0.428625 c -0.14922,0.13335 -0.27305,0.206375 -0.42227,0.206375 -0.1524,0 -0.26988,-0.07303 -0.26988,-0.24765 z"
       style="font-family:'Source Sans Pro';-inkscape-font-specification:'Source Sans Pro';stroke:none"
       id="path22394" />
    <path
       d="m 102.28182,60.831838 c 0.1016,0 0.18098,-0.06985 0.18098,-0.168275 0,-0.1016 -0.0794,-0.168275 -0.18098,-0.168275 -0.1016,0 -0.18097,0.06667 -0.18097,0.168275 0,0.09842 0.0794,0.168275 0.18097,0.168275 z m -0.13335,1.86055 h 0.26035 v -1.54305 h -0.26035 z"
       style="font-family:'Source Sans Pro';-inkscape-font-specification:'Source Sans Pro';stroke:none"
       id="path22396" />
    <path
       d="m 102.92952,62.692388 h 0.26035 v -1.1176 c 0.15558,-0.155575 0.26353,-0.238125 0.42228,-0.238125 0.2032,0 0.2921,0.123825 0.2921,0.41275 v 0.942975 h 0.26035 v -0.9779 c 0,-0.3937 -0.14605,-0.60325 -0.4699,-0.60325 -0.21273,0 -0.37148,0.1143 -0.51753,0.26035 h -0.01 l -0.0222,-0.22225 h -0.2159 z"
       style="font-family:'Source Sans Pro';-inkscape-font-specification:'Source Sans Pro';stroke:none"
       id="path22398" />
    <path
       d="m 104.7107,62.216138 c 0,0.3048 0.11113,0.51435 0.44133,0.51435 0.0953,0 0.20002,-0.02858 0.28575,-0.05715 l -0.0508,-0.19685 c -0.0508,0.01905 -0.12065,0.04127 -0.17463,0.04127 -0.1778,0 -0.23812,-0.10795 -0.23812,-0.29845 v -0.85725 h 0.41592 v -0.212725 h -0.41592 v -0.4318 h -0.21908 l -0.0318,0.4318 -0.2413,0.01588 v 0.19685 h 0.2286 z"
       style="font-family:'Source Sans Pro';-inkscape-font-specification:'Source Sans Pro';stroke:none"
       id="path22400" />
    <path
       d="m 105.63463,63.117838 -0.0508,0.206375 c 0.0508,0.01905 0.11112,0.03175 0.18097,0.03175 0.31115,0 0.4699,-0.231775 0.57785,-0.536575 l 0.58103,-1.67005 h -0.254 l -0.27623,0.854075 c -0.0413,0.136525 -0.0857,0.295275 -0.13017,0.434975 h -0.0127 c -0.0476,-0.142875 -0.1016,-0.301625 -0.14923,-0.434975 l -0.31432,-0.854075 h -0.26988 l 0.61913,1.546225 -0.0349,0.1143 c -0.0635,0.1905 -0.17462,0.3302 -0.34925,0.3302 -0.0381,0 -0.0857,-0.0127 -0.11747,-0.02222 z"
       style="font-family:'Source Sans Pro';-inkscape-font-specification:'Source Sans Pro';stroke:none"
       id="path22402" />
  </g>
  <g
     id="g18712"
     transform="matrix(0.00211827,-0.00366895,-0.00373178,-0.00215454,43.261501,34.871474)"
     style="fill:#6f8ce9;fill-opacity:1;stroke-width:123.849">
    <g
       id="g18710"
       style="fill:#6f8ce9;fill-opacity:1;stroke-width:123.849">
      <path
         id="path18708"
         d="M 486.413,221.412 122.347,12.916 C 69.409,-17.402 26.495,7.476 26.495,68.479 v 415.652 c 0,61.004 42.914,85.882 95.852,55.563 l 364.066,-208.49 c 52.938,-30.317 52.938,-79.473 0,-109.792 z"
         inkscape:connector-curvature="0"
         style="fill:#6f8ce9;fill-opacity:1;stroke-width:123.849" />
    </g>
  </g>
  <g
     aria-label="sync"
     id="text18716"
     style="font-size:3.175px;line-height:1.25;font-family:'Small Fonts';-inkscape-font-specification:'Small Fonts';text-align:center;text-anchor:middle;fill:#e8eaec;stroke:#cf2f25;stroke-width:0.264583;stroke-linecap:round">
    <path
       d="m 54.636908,30.913866 c 0.14605,0.12065 0.3556,0.212725 0.574675,0.212725 0.365125,0 0.56515,-0.20955 0.56515,-0.460375 0,-0.2921 -0.24765,-0.384175 -0.4699,-0.466725 -0.174625,-0.06668 -0.3429,-0.123825 -0.3429,-0.2667 0,-0.117475 0.0889,-0.22225 0.282575,-0.22225 0.136525,0 0.24765,0.05715 0.352425,0.136525 l 0.123825,-0.1651 c -0.117475,-0.09525 -0.28575,-0.174625 -0.479425,-0.174625 -0.333375,0 -0.530225,0.1905 -0.530225,0.43815 0,0.26035 0.2413,0.365125 0.460375,0.4445 0.168275,0.0635 0.352425,0.13335 0.352425,0.2921 0,0.13335 -0.1016,0.2413 -0.3048,0.2413 -0.18415,0 -0.320675,-0.0762 -0.454025,-0.18415 z"
       style="font-family:'Source Sans Pro';-inkscape-font-specification:'Source Sans Pro';stroke:none"
       id="path22405" />
    <path
       d="m 56.03391,31.513941 -0.0508,0.206375 c 0.0508,0.01905 0.111125,0.03175 0.180975,0.03175 0.31115,0 0.4699,-0.231775 0.57785,-0.536575 l 0.581025,-1.67005 h -0.254 l -0.276225,0.854075 c -0.04127,0.136525 -0.08573,0.295275 -0.130175,0.434975 h -0.0127 c -0.04762,-0.142875 -0.1016,-0.301625 -0.149225,-0.434975 L 56.18631,29.545441 h -0.269875 l 0.619125,1.546225 -0.03492,0.1143 c -0.0635,0.1905 -0.174625,0.3302 -0.34925,0.3302 -0.0381,0 -0.08572,-0.0127 -0.117475,-0.02223 z"
       style="font-family:'Source Sans Pro';-inkscape-font-specification:'Source Sans Pro';stroke:none"
       id="path22407" />
    <path
       d="m 57.621413,31.088491 h 0.26035 v -1.1176 c 0.155575,-0.155575 0.263525,-0.238125 0.422275,-0.238125 0.2032,0 0.2921,0.123825 0.2921,0.41275 v 0.942975 h 0.26035 v -0.9779 c 0,-0.3937 -0.14605,-0.60325 -0.4699,-0.60325 -0.212725,0 -0.371475,0.1143 -0.517525,0.26035 h -0.0095 l -0.02222,-0.22225 h -0.2159 z"
       style="font-family:'Source Sans Pro';-inkscape-font-specification:'Source Sans Pro';stroke:none"
       id="path22409" />
    <path
       d="m 59.243841,30.320141 c 0,0.511175 0.314325,0.80645 0.7239,0.80645 0.18415,0 0.36195,-0.0762 0.50165,-0.200025 l -0.117475,-0.17145 c -0.09208,0.08255 -0.2159,0.155575 -0.36195,0.155575 -0.282575,0 -0.47625,-0.238125 -0.47625,-0.59055 0,-0.3556 0.2032,-0.5969 0.4826,-0.5969 0.123825,0 0.219075,0.05715 0.31115,0.136525 l 0.130175,-0.168275 c -0.104775,-0.09842 -0.24765,-0.18415 -0.45085,-0.18415 -0.396875,0 -0.74295,0.295275 -0.74295,0.8128 z"
       style="font-family:'Source Sans Pro';-inkscape-font-specification:'Source Sans Pro';stroke:none"
       id="path22411" />
  </g>
  <g
     aria-label="dynamika"
     id="text18720"
     style="font-size:3.175px;line-height:1.25;font-family:'Small Fonts';-inkscape-font-specification:'Small Fonts';text-align:center;text-anchor:middle;fill:#e8eaec;stroke:#cf2f25;stroke-width:0.264583;stroke-linecap:round">
    <path
       d="m 128.6729,19.736828 c 0,0.51435 0.25082,0.80645 0.63817,0.80645 0.18098,0 0.34608,-0.1016 0.46673,-0.219075 h 0.01 l 0.0222,0.180975 h 0.2159 v -2.2606 h -0.26353 v 0.593725 l 0.0127,0.263525 c -0.13652,-0.111125 -0.254,-0.1778 -0.4318,-0.1778 -0.35242,0 -0.66992,0.31115 -0.66992,0.8128 z m 0.26987,-0.0032 c 0,-0.352425 0.19685,-0.59055 0.4445,-0.59055 0.127,0 0.24448,0.04445 0.37465,0.161925 v 0.80645 c -0.127,0.142875 -0.25082,0.212725 -0.3937,0.212725 -0.26987,0 -0.42545,-0.22225 -0.42545,-0.59055 z"
       style="font-family:'Source Sans Pro';-inkscape-font-specification:'Source Sans Pro';stroke:none"
       id="path22414" />
    <path
       d="m 130.44137,20.930628 -0.0508,0.206375 c 0.0508,0.01905 0.11113,0.03175 0.18098,0.03175 0.31115,0 0.4699,-0.231775 0.57785,-0.536575 l 0.58102,-1.67005 h -0.254 l -0.27622,0.854075 c -0.0413,0.136525 -0.0857,0.295275 -0.13018,0.434975 h -0.0127 c -0.0476,-0.142875 -0.1016,-0.301625 -0.14922,-0.434975 l -0.31433,-0.854075 h -0.26987 l 0.61912,1.546225 -0.0349,0.1143 c -0.0635,0.1905 -0.17463,0.3302 -0.34925,0.3302 -0.0381,0 -0.0857,-0.0127 -0.11748,-0.02223 z"
       style="font-family:'Source Sans Pro';-inkscape-font-specification:'Source Sans Pro';stroke:none"
       id="path22416" />
    <path
       d="m 132.02888,20.505178 h 0.26035 v -1.1176 c 0.15557,-0.155575 0.26352,-0.238125 0.42227,-0.238125 0.2032,0 0.2921,0.123825 0.2921,0.41275 v 0.942975 h 0.26035 v -0.9779 c 0,-0.3937 -0.14605,-0.60325 -0.4699,-0.60325 -0.21272,0 -0.37147,0.1143 -0.51752,0.26035 h -0.01 l -0.0222,-0.22225 h -0.2159 z"
       style="font-family:'Source Sans Pro';-inkscape-font-specification:'Source Sans Pro';stroke:none"
       id="path22418" />
    <path
       d="m 133.6894,20.105128 c 0,0.276225 0.19368,0.43815 0.45403,0.43815 0.1905,0 0.36195,-0.1016 0.51117,-0.22225 h 0.006 l 0.0222,0.18415 h 0.2159 v -0.94615 c 0,-0.384175 -0.15875,-0.635 -0.53658,-0.635 -0.24765,0 -0.46355,0.10795 -0.60642,0.200025 l 0.10477,0.180975 c 0.12065,-0.08255 0.2794,-0.1651 0.46038,-0.1651 0.25082,0 0.3175,0.1905 0.3175,0.38735 -0.65723,0.07303 -0.94933,0.2413 -0.94933,0.57785 z m 0.25718,-0.01905 c 0,-0.19685 0.17462,-0.32385 0.69215,-0.38735 v 0.428625 c -0.14923,0.13335 -0.27305,0.206375 -0.42228,0.206375 -0.1524,0 -0.26987,-0.07303 -0.26987,-0.24765 z"
       style="font-family:'Source Sans Pro';-inkscape-font-specification:'Source Sans Pro';stroke:none"
       id="path22420" />
    <path
       d="m 135.3912,20.505178 h 0.26035 v -1.1176 c 0.14288,-0.15875 0.27305,-0.238125 0.38735,-0.238125 0.19685,0 0.28893,0.123825 0.28893,0.41275 v 0.942975 h 0.26035 v -1.1176 c 0.14287,-0.15875 0.2667,-0.238125 0.38735,-0.238125 0.19367,0 0.28575,0.123825 0.28575,0.41275 v 0.942975 h 0.26035 v -0.9779 c 0,-0.3937 -0.1524,-0.60325 -0.4699,-0.60325 -0.18733,0 -0.34608,0.12065 -0.508,0.295275 -0.0635,-0.18415 -0.1905,-0.295275 -0.42545,-0.295275 -0.18415,0 -0.34608,0.1143 -0.47943,0.26035 h -0.01 l -0.0222,-0.22225 h -0.2159 z"
       style="font-family:'Source Sans Pro';-inkscape-font-specification:'Source Sans Pro';stroke:none"
       id="path22422" />
    <path
       d="m 138.15663,18.644628 c 0.1016,0 0.18097,-0.06985 0.18097,-0.168275 0,-0.1016 -0.0794,-0.168275 -0.18097,-0.168275 -0.1016,0 -0.18098,0.06668 -0.18098,0.168275 0,0.09842 0.0794,0.168275 0.18098,0.168275 z m -0.13335,1.86055 h 0.26035 v -1.54305 h -0.26035 z"
       style="font-family:'Source Sans Pro';-inkscape-font-specification:'Source Sans Pro';stroke:none"
       id="path22424" />
    <path
       d="m 138.80433,20.505178 h 0.25717 v -0.4064 l 0.28893,-0.33655 0.45085,0.74295 h 0.28575 l -0.58738,-0.923925 0.51753,-0.619125 h -0.28893 l -0.65722,0.8128 h -0.01 v -1.53035 h -0.25717 z"
       style="font-family:'Source Sans Pro';-inkscape-font-specification:'Source Sans Pro';stroke:none"
       id="path22426" />
    <path
       d="m 140.26801,20.105128 c 0,0.276225 0.19367,0.43815 0.45402,0.43815 0.1905,0 0.36195,-0.1016 0.51118,-0.22225 h 0.006 l 0.0222,0.18415 h 0.2159 v -0.94615 c 0,-0.384175 -0.15875,-0.635 -0.53657,-0.635 -0.24765,0 -0.46355,0.10795 -0.60643,0.200025 l 0.10478,0.180975 c 0.12065,-0.08255 0.2794,-0.1651 0.46037,-0.1651 0.25083,0 0.3175,0.1905 0.3175,0.38735 -0.65722,0.07303 -0.94932,0.2413 -0.94932,0.57785 z m 0.25717,-0.01905 c 0,-0.19685 0.17463,-0.32385 0.69215,-0.38735 v 0.428625 c -0.14922,0.13335 -0.27305,0.206375 -0.42227,0.206375 -0.1524,0 -0.26988,-0.07303 -0.26988,-0.24765 z"
       style="font-family:'Source Sans Pro';-inkscape-font-specification:'Source Sans Pro';stroke:none"
       id="path22428" />
  </g>
  <path
     inkscape:export-ydpi="96"
     inkscape:export-xdpi="96"
     style="fill:none;fill-opacity:1;stroke:#e8eaec;stroke-width:0.264583;stroke-linecap:square;stroke-miterlimit:4;stroke-dasharray:0.264583, 0.793749;stroke-dashoffset:0;stroke-opacity:1"
     d="m 114.65741,59.449984 h 24.77157"
     id="path18728"
     inkscape:connector-curvature="0"
     sodipodi:nodetypes="cc" />
  <g
     aria-label="relaxace"
     id="text18732"
     style="font-size:3.175px;line-height:1.25;font-family:'Small Fonts';-inkscape-font-specification:'Small Fonts';text-align:center;text-anchor:middle;fill:#e8eaec;stroke:#cf2f25;stroke-width:0.264583;stroke-linecap:round">
    <path
       d="m 127.95496,58.340534 h 0.26035 v -0.9906 c 0.10477,-0.26035 0.26035,-0.3556 0.39052,-0.3556 0.0635,0 0.0984,0.0095 0.14923,0.0254 l 0.0508,-0.2286 c -0.0508,-0.02222 -0.0984,-0.03175 -0.1651,-0.03175 -0.17463,0 -0.33338,0.123825 -0.43815,0.3175 h -0.01 l -0.0222,-0.2794 h -0.2159 z"
       style="font-family:'Source Sans Pro';-inkscape-font-specification:'Source Sans Pro';stroke:none"
       id="path22431" />
    <path
       d="m 128.91063,57.572184 c 0,0.504825 0.32703,0.80645 0.73978,0.80645 0.20955,0 0.37465,-0.07303 0.508,-0.15875 l -0.0921,-0.17145 c -0.1143,0.07303 -0.23812,0.12065 -0.38417,0.12065 -0.29528,0 -0.4953,-0.20955 -0.51435,-0.542925 h 1.0414 c 0.006,-0.0381 0.01,-0.0889 0.01,-0.142875 0,-0.441325 -0.22225,-0.7239 -0.61595,-0.7239 -0.35242,0 -0.69215,0.307975 -0.69215,0.8128 z m 0.254,-0.117475 c 0.0318,-0.31115 0.2286,-0.48895 0.4445,-0.48895 0.2413,0 0.381,0.174625 0.381,0.48895 z"
       style="font-family:'Source Sans Pro';-inkscape-font-specification:'Source Sans Pro';stroke:none"
       id="path22433" />
    <path
       d="m 130.59973,58.029384 c 0,0.225425 0.0794,0.34925 0.27623,0.34925 0.0699,0 0.1143,-0.0095 0.14922,-0.0254 l -0.0349,-0.19685 c -0.0286,0.0063 -0.0413,0.0063 -0.0572,0.0063 -0.0381,0 -0.073,-0.03175 -0.073,-0.1143 v -1.9685 h -0.26035 z"
       style="font-family:'Source Sans Pro';-inkscape-font-specification:'Source Sans Pro';stroke:none"
       id="path22435" />
    <path
       d="m 131.33316,57.940484 c 0,0.276225 0.19367,0.43815 0.45402,0.43815 0.1905,0 0.36195,-0.1016 0.51118,-0.22225 h 0.006 l 0.0222,0.18415 h 0.2159 v -0.94615 c 0,-0.384175 -0.15875,-0.635 -0.53657,-0.635 -0.24765,0 -0.46355,0.10795 -0.60643,0.200025 l 0.10478,0.180975 c 0.12065,-0.08255 0.2794,-0.1651 0.46037,-0.1651 0.25083,0 0.3175,0.1905 0.3175,0.38735 -0.65722,0.07303 -0.94932,0.2413 -0.94932,0.57785 z m 0.25717,-0.01905 c 0,-0.19685 0.17463,-0.32385 0.69215,-0.38735 v 0.428625 c -0.14922,0.13335 -0.27305,0.206375 -0.42227,0.206375 -0.1524,0 -0.26988,-0.07303 -0.26988,-0.24765 z"
       style="font-family:'Source Sans Pro';-inkscape-font-specification:'Source Sans Pro';stroke:none"
       id="path22437" />
    <path
       d="m 132.81905,58.340534 h 0.27305 l 0.20955,-0.358775 c 0.0508,-0.09525 0.1016,-0.187325 0.15558,-0.276225 h 0.0127 c 0.0572,0.0889 0.1143,0.18415 0.16827,0.276225 l 0.22543,0.358775 h 0.28257 l -0.50165,-0.777875 0.46673,-0.765175 h -0.27305 l -0.18733,0.339725 c -0.0476,0.08255 -0.0952,0.17145 -0.1397,0.257175 h -0.0127 c -0.054,-0.08573 -0.10477,-0.174625 -0.1524,-0.257175 l -0.20637,-0.339725 h -0.28258 l 0.46673,0.7366 z"
       style="font-family:'Source Sans Pro';-inkscape-font-specification:'Source Sans Pro';stroke:none"
       id="path22439" />
    <path
       d="m 134.34305,57.940484 c 0,0.276225 0.19367,0.43815 0.45402,0.43815 0.1905,0 0.36195,-0.1016 0.51118,-0.22225 h 0.006 l 0.0222,0.18415 h 0.2159 v -0.94615 c 0,-0.384175 -0.15875,-0.635 -0.53657,-0.635 -0.24765,0 -0.46355,0.10795 -0.60643,0.200025 l 0.10478,0.180975 c 0.12065,-0.08255 0.2794,-0.1651 0.46037,-0.1651 0.25083,0 0.3175,0.1905 0.3175,0.38735 -0.65722,0.07303 -0.94932,0.2413 -0.94932,0.57785 z m 0.25717,-0.01905 c 0,-0.19685 0.17463,-0.32385 0.69215,-0.38735 v 0.428625 c -0.14922,0.13335 -0.27305,0.206375 -0.42227,0.206375 -0.1524,0 -0.26988,-0.07303 -0.26988,-0.24765 z"
       style="font-family:'Source Sans Pro';-inkscape-font-specification:'Source Sans Pro';stroke:none"
       id="path22441" />
    <path
       d="m 135.93055,57.572184 c 0,0.511175 0.31432,0.80645 0.7239,0.80645 0.18415,0 0.36195,-0.0762 0.50165,-0.200025 l -0.11748,-0.17145 c -0.0921,0.08255 -0.2159,0.155575 -0.36195,0.155575 -0.28257,0 -0.47625,-0.238125 -0.47625,-0.59055 0,-0.3556 0.2032,-0.5969 0.4826,-0.5969 0.12383,0 0.21908,0.05715 0.31115,0.136525 l 0.13018,-0.168275 c -0.10478,-0.09842 -0.24765,-0.18415 -0.45085,-0.18415 -0.39688,0 -0.74295,0.295275 -0.74295,0.8128 z"
       style="font-family:'Source Sans Pro';-inkscape-font-specification:'Source Sans Pro';stroke:none"
       id="path22443" />
    <path
       d="m 137.31167,57.572184 c 0,0.504825 0.32702,0.80645 0.73977,0.80645 0.20955,0 0.37465,-0.07303 0.508,-0.15875 l -0.0921,-0.17145 c -0.1143,0.07303 -0.23813,0.12065 -0.38418,0.12065 -0.29527,0 -0.4953,-0.20955 -0.51435,-0.542925 h 1.0414 c 0.006,-0.0381 0.01,-0.0889 0.01,-0.142875 0,-0.441325 -0.22225,-0.7239 -0.61595,-0.7239 -0.35243,0 -0.69215,0.307975 -0.69215,0.8128 z m 0.254,-0.117475 c 0.0317,-0.31115 0.2286,-0.48895 0.4445,-0.48895 0.2413,0 0.381,0.174625 0.381,0.48895 z"
       style="font-family:'Source Sans Pro';-inkscape-font-specification:'Source Sans Pro';stroke:none"
       id="path22445" />
  </g>
  <path
     style="fill:none;fill-opacity:1;stroke:#e8eaec;stroke-width:0.264583;stroke-linecap:square;stroke-miterlimit:4;stroke-dasharray:0.264583, 0.793749;stroke-dashoffset:0;stroke-opacity:1"
     d="m 114.43211,11.646861 12.69999,7.937488 -12.4354,8.20207"
     id="path18734"
     inkscape:connector-curvature="0"
     sodipodi:nodetypes="ccc" />
  <path
     inkscape:export-ydpi="96"
     inkscape:export-xdpi="96"
     style="fill:none;fill-opacity:1;stroke:#6f8ce9;stroke-width:0.264583;stroke-linecap:round;stroke-miterlimit:4;stroke-dasharray:none;stroke-dashoffset:0;stroke-opacity:1"
     d="m 99.443891,16.462667 v 4.398691"
     id="path18736"
     inkscape:connector-curvature="0"
     sodipodi:nodetypes="cc" />
  <g
     id="g18742"
     transform="matrix(-0.00366895,-0.00211827,-0.00215454,0.00373178,100.7945,21.142557)"
     style="fill:#6f8ce9;fill-opacity:1;stroke-width:123.849">
    <g
       id="g18740"
       style="fill:#6f8ce9;fill-opacity:1;stroke-width:123.849">
      <path
         id="path18738"
         d="M 486.413,221.412 122.347,12.916 C 69.409,-17.402 26.495,7.476 26.495,68.479 v 415.652 c 0,61.004 42.914,85.882 95.852,55.563 l 364.066,-208.49 c 52.938,-30.317 52.938,-79.473 0,-109.792 z"
         inkscape:connector-curvature="0"
         style="fill:#6f8ce9;fill-opacity:1;stroke-width:123.849" />
    </g>
  </g>
  <path
     sodipodi:nodetypes="cc"
     inkscape:connector-curvature="0"
     id="path18744"
     d="m 99.443891,32.337643 v 4.398691"
     style="fill:none;fill-opacity:1;stroke:#6f8ce9;stroke-width:0.264583;stroke-linecap:round;stroke-miterlimit:4;stroke-dasharray:none;stroke-dashoffset:0;stroke-opacity:1"
     inkscape:export-xdpi="96"
     inkscape:export-ydpi="96" />
  <g
     style="fill:#6f8ce9;fill-opacity:1;stroke-width:123.849"
     transform="matrix(-0.00366895,-0.00211827,-0.00215454,0.00373178,100.7945,37.017533)"
     id="g18750">
    <g
       style="fill:#6f8ce9;fill-opacity:1;stroke-width:123.849"
       id="g18748">
      <path
         style="fill:#6f8ce9;fill-opacity:1;stroke-width:123.849"
         inkscape:connector-curvature="0"
         d="M 486.413,221.412 122.347,12.916 C 69.409,-17.402 26.495,7.476 26.495,68.479 v 415.652 c 0,61.004 42.914,85.882 95.852,55.563 l 364.066,-208.49 c 52.938,-30.317 52.938,-79.473 0,-109.792 z"
         id="path18746" />
    </g>
  </g>
  <path
     inkscape:export-ydpi="96"
     inkscape:export-xdpi="96"
     style="fill:none;fill-opacity:1;stroke:#6f8ce9;stroke-width:0.264583;stroke-linecap:round;stroke-miterlimit:4;stroke-dasharray:none;stroke-dashoffset:0;stroke-opacity:1"
     d="M 99.443891,48.212618 V 52.61131"
     id="path18752"
     inkscape:connector-curvature="0"
     sodipodi:nodetypes="cc" />
  <g
     id="g18758"
     transform="matrix(-0.00366895,-0.00211827,-0.00215454,0.00373178,100.7945,52.892504)"
     style="fill:#6f8ce9;fill-opacity:1;stroke-width:123.849">
    <g
       id="g18756"
       style="fill:#6f8ce9;fill-opacity:1;stroke-width:123.849">
      <path
         id="path18754"
         d="M 486.413,221.412 122.347,12.916 C 69.409,-17.402 26.495,7.476 26.495,68.479 v 415.652 c 0,61.004 42.914,85.882 95.852,55.563 l 364.066,-208.49 c 52.938,-30.317 52.938,-79.473 0,-109.792 z"
         inkscape:connector-curvature="0"
         style="fill:#6f8ce9;fill-opacity:1;stroke-width:123.849" />
    </g>
  </g>
  <path
     style="fill:none;fill-opacity:1;stroke:#6f8ce9;stroke-width:0.264583;stroke-linecap:square;stroke-miterlimit:4;stroke-dasharray:none;stroke-dashoffset:0;stroke-opacity:1"
     d="m 84.005081,60.065534 h -6.34999 V 11.117695 h 5.29166"
     id="path18760"
     inkscape:connector-curvature="0" />
  <g
     style="fill:#6f8ce9;fill-opacity:1;stroke-width:123.849"
     transform="matrix(-0.00211827,-0.00366895,-0.00373178,0.00215454,84.009601,11.366932)"
     id="g18766">
    <g
       style="fill:#6f8ce9;fill-opacity:1;stroke-width:123.849"
       id="g18764">
      <path
         style="fill:#6f8ce9;fill-opacity:1;stroke-width:123.849"
         inkscape:connector-curvature="0"
         d="M 486.413,221.412 122.347,12.916 C 69.409,-17.402 26.495,7.476 26.495,68.479 v 415.652 c 0,61.004 42.914,85.882 95.852,55.563 l 364.066,-208.49 c 52.938,-30.317 52.938,-79.473 0,-109.792 z"
         id="path18762" />
    </g>
  </g>
</svg>
