<?xml version="1.0" encoding="UTF-8" standalone="no"?>
<svg
   width="399.99"
   height="184.78"
   version="1.1"
   viewBox="0 0 105.83 48.889"
   id="svg16"
   sodipodi:docname="minitalk_accessibility_cs.svg"
   inkscape:version="1.2.2 (732a01da63, 2022-12-09)"
   xmlns:inkscape="http://www.inkscape.org/namespaces/inkscape"
   xmlns:sodipodi="http://sodipodi.sourceforge.net/DTD/sodipodi-0.dtd"
   xmlns:xlink="http://www.w3.org/1999/xlink"
   xmlns="http://www.w3.org/2000/svg"
   xmlns:svg="http://www.w3.org/2000/svg">
  <sodipodi:namedview
     id="namedview18"
     pagecolor="#ffffff"
     bordercolor="#000000"
     borderopacity="0.25"
     inkscape:showpageshadow="2"
     inkscape:pageopacity="0.0"
     inkscape:pagecheckerboard="0"
     inkscape:deskcolor="#d1d1d1"
     showgrid="false"
     inkscape:zoom="2.1390515"
     inkscape:cx="165.96141"
     inkscape:cy="82.279457"
     inkscape:window-width="1920"
     inkscape:window-height="1017"
     inkscape:window-x="-8"
     inkscape:window-y="-8"
     inkscape:window-maximized="1"
     inkscape:current-layer="svg16" />
  <defs
     id="defs8">
    <linearGradient
       id="linearGradient5577"
       x1="184.53"
       x2="184.53"
       y1="227.51"
       y2="1.371"
       gradientUnits="userSpaceOnUse"
       xlink:href="#linearGradient5571" />
    <linearGradient
       id="linearGradient5571">
      <stop
         stop-color="#0566b0"
         offset="0"
         id="stop3" />
      <stop
         stop-color="#0566b0"
         stop-opacity="0"
         offset="1"
         id="stop5" />
    </linearGradient>
  </defs>
  <path
     fill="#154f92"
     d="m 54.122199,7.4598104 c 9.259261,0 16.754032,7.4933226 16.754032,16.7540336 0,9.259261 -7.49332,16.754032 -16.754032,16.754032 -9.259261,0 -16.754032,-7.493321 -16.754032,-16.754032 0,-9.259261 7.493321,-16.7540336 16.754032,-16.7540336 m 0,-3.2219294 c -11.032449,0 -19.975961,8.943513 -19.975961,19.975963 0,11.03245 8.943512,19.975962 19.975961,19.975962 11.03245,0 19.975963,-8.943512 19.975963,-19.975962 0,-11.03245 -8.943513,-19.975963 -19.975963,-19.975963 z m 0,4.5107014 c -8.541254,0 -15.46526,6.9240066 -15.46526,15.4652616 0,8.541254 6.924006,15.46526 15.46526,15.46526 8.541254,0 15.465262,-6.924006 15.465262,-15.46526 0,-8.541255 -6.924008,-15.4652616 -15.465262,-15.4652616 z m 0,3.5441226 c 1.60146,0 2.899737,1.298276 2.899737,2.899736 0,1.601461 -1.298277,2.899737 -2.899737,2.899737 -1.601459,0 -2.899736,-1.298276 -2.899736,-2.899737 0,-1.60146 1.298277,-2.899736 2.899736,-2.899736 z m 9.48383,7.89558 c -2.312701,0.546036 -4.471313,1.026829 -6.616232,1.273226 0.06854,8.137223 0.991226,9.911621 2.016686,12.534996 0.291343,0.745877 -0.07708,1.586639 -0.822961,1.877982 -0.745958,0.291343 -1.58672,-0.07708 -1.878063,-0.822961 -0.701172,-1.79687 -1.376246,-3.273158 -1.793084,-6.326984 h -0.78019 c -0.416193,3.048831 -1.09014,4.527456 -1.793165,6.326984 -0.291182,0.745474 -1.131702,1.114466 -1.877982,0.822961 -0.745876,-0.291343 -1.114304,-1.132186 -0.822961,-1.877982 1.024009,-2.62112 1.948059,-4.393181 2.016686,-12.534996 -2.144919,-0.246317 -4.303531,-0.727109 -6.616313,-1.273226 -0.692714,-0.163594 -1.121715,-0.857678 -0.958121,-1.550474 0.163594,-0.692794 0.857597,-1.121714 1.550473,-0.95812 7.787887,1.838835 10.010776,1.83513 17.783037,0 0.692634,-0.163514 1.386879,0.265326 1.550472,0.95812 0.163432,0.692796 -0.265567,1.38696 -0.958282,1.550474 z"
     id="path1164"
     style="stroke-width:0.264582" />
</svg>
