<svg width="399.99" height="184.78" version="1.1" viewBox="0 0 105.83 48.889" xmlns="http://www.w3.org/2000/svg" xmlns:xlink="http://www.w3.org/1999/xlink">
 <path d="m53.323 48.578c-0.47469-0.09116-1.3504-0.34362-2.039-0.58775-4.1955-1.4876-8.0132-4.3589-10.811-8.1317-3.4325-4.6281-5.4888-10.67-6.0805-17.865-0.14608-1.7764-0.17248-2.9516-0.17248-7.6824 0-5.3437-0.01576-5.0775 0.33184-5.7402 0.35922-0.68558 1.0001-1.2122 1.7799-1.4624 0.38728-0.12432 0.39403-0.12462 2.3545-0.1379 2.0804-0.01425 2.8951-0.06752 4.4177-0.28922 1.6088-0.23453 2.5902-0.51385 3.6791-1.047 1.6116-0.78925 3.3294-2.0308 5.0083-3.62 0.55602-0.52623 0.94769-0.74673 1.5576-0.87664 0.68213-0.14532 1.5621-5.48e-4 2.1775 0.35802 0.12304 0.07202 0.76148 0.56119 1.4187 1.0876 2.464 1.9737 3.847 2.8731 5.3103 3.4532 1.5329 0.60771 4.7393 1.0067 7.5818 0.94371 1.4203-0.03151 1.7404 0.0098 2.3458 0.30956 0.54319 0.26822 1.0726 0.78309 1.3293 1.2933 0.34436 0.68468 0.33011 0.39381 0.30685 6.3691-0.0225 5.4486-0.03 5.759-0.23108 7.8181-0.66022 6.7795-2.7191 12.615-6.0056 17.021-2.9679 3.9792-7.0071 6.9343-11.433 8.3643-1.3423 0.43372-2.1438 0.55339-2.8269 0.42217z" fill="#fbb227" stroke-width=".99997"/>
 <path d="m50.405 34.649c0.02926-0.23843 0.57244-6.4597 0.91422-8.8715l0.32786-2.3132-0.34722-0.3596c-0.34414-0.35645-0.55759-0.63479-0.75728-0.98723-0.50657-0.89412-0.67666-2.0337-0.44775-2.9994 0.3731-1.5735 1.6799-2.8631 3.2987-3.255 0.30235-0.07353 0.34399-0.07623 0.85504-0.06077 0.29553 9e-3 0.65978 0.03676 0.80965 0.06227 1.1744 0.19987 2.4428 1.1876 3.0221 2.3534 0.29905 0.6017 0.41692 1.1137 0.41782 1.8149 8.78e-4 0.72114-0.11809 1.2134-0.46006 1.902-0.21742 0.43792-0.44025 0.74808-0.84761 1.1803-0.16025 0.17008-0.29733 0.34017-0.30468 0.37798-0.0071 0.03751 0.08185 0.74148 0.19747 1.5637 0.94169 6.6839 0.99833 9.4506 0.99833 9.6142v0.11561h-7.6936z" fill="#1d232d" stroke-width=".0038703"/>
</svg>
