<?xml version="1.0" encoding="UTF-8" standalone="no"?>
<svg
   xmlns:dc="http://purl.org/dc/elements/1.1/"
   xmlns:cc="http://creativecommons.org/ns#"
   xmlns:rdf="http://www.w3.org/1999/02/22-rdf-syntax-ns#"
   xmlns:svg="http://www.w3.org/2000/svg"
   xmlns="http://www.w3.org/2000/svg"
   xmlns:sodipodi="http://sodipodi.sourceforge.net/DTD/sodipodi-0.dtd"
   xmlns:inkscape="http://www.inkscape.org/namespaces/inkscape"
   inkscape:version="0.92.3 (2405546, 2018-03-11)"
   sodipodi:docname="talk_gamification_cs.svg"
   id="svg126"
   viewBox="0 0 72.868046 44.417879"
   version="1.1"
   height="167.87608"
   width="275.40616">
  <defs
     id="defs130" />
  <sodipodi:namedview
     inkscape:current-layer="svg126"
     inkscape:window-maximized="1"
     inkscape:window-y="-8"
     inkscape:window-x="2552"
     inkscape:cy="106.65124"
     inkscape:cx="159.6514"
     inkscape:zoom="2.8884842"
     showgrid="false"
     id="namedview128"
     inkscape:window-height="1377"
     inkscape:window-width="2560"
     inkscape:pageshadow="2"
     inkscape:pageopacity="0"
     guidetolerance="10"
     gridtolerance="10"
     objecttolerance="10"
     borderopacity="1"
     bordercolor="#666666"
     pagecolor="#ffffff" />
  <metadata
     id="metadata2">
    <rdf:RDF>
      <cc:Work
         rdf:about="">
        <dc:format>image/svg+xml</dc:format>
        <dc:type
           rdf:resource="http://purl.org/dc/dcmitype/StillImage" />
        <dc:title></dc:title>
      </cc:Work>
    </rdf:RDF>
  </metadata>
  <path
     style="fill:#f9f9f9;fill-opacity:1;stroke-width:1"
     d="m 23.200569,19.220536 c -0.558939,-1.640397 -0.378119,-2.043959 1.1164,-2.491727 1.114468,-0.333915 1.216028,-0.446707 1.134433,-1.259802 -0.07066,-0.703854 -0.292244,-0.961506 -1.045979,-1.21609 -1.69561,-0.572717 -1.775392,-0.824501 -1.012138,-3.194318 l 0.685026,-2.1269443 1.515423,0.1794998 c 2.25547,0.2671123 2.941417,-0.6134893 1.707058,-2.1915241 -0.320854,-0.410158 -0.586337,-0.9092203 -0.589982,-1.1089955 -0.0094,-0.5046715 3.053001,-2.7684277 3.749345,-2.7717161 0.313243,-0.0015 0.909675,0.4110975 1.325437,0.9167789 0.626118,0.7615804 0.895053,0.8845526 1.566126,0.7161252 0.720189,-0.1807682 0.810198,-0.342276 0.810198,-1.4537379 0,-0.6877178 0.161085,-1.4114819 0.357966,-1.6083632 0.471487,-0.4714914 4.182141,-0.4714914 4.653628,0 0.196881,0.1968813 0.357966,0.9206454 0.357966,1.6083632 0,1.1114808 0.09001,1.2729837 0.810197,1.4537379 0.671075,0.1684134 0.940009,0.045568 1.566126,-0.7161252 0.966293,-1.1753509 1.612141,-1.1465398 3.380658,0.1507968 1.769993,1.2984499 1.920338,1.6668687 1.131996,2.7739992 -1.199389,1.6843818 -0.518855,2.6985115 1.471776,2.1932388 1.514396,-0.3844144 1.782432,-0.1404149 2.519181,2.2928815 0.623637,2.05974 0.517671,2.331987 -1.123441,2.886299 -0.75374,0.254569 -0.975345,0.512234 -1.045979,1.216089 -0.0816,0.813118 0.01973,0.925897 1.134432,1.259803 1.493796,0.447551 1.674921,0.850752 1.118885,2.49073 -2.159428,0.431533 -26.56776,0.830248 -27.294738,0.001 z m 5.117434,-1.812657 3.159128,-0.101753 v -1.692782 c 0,-2.1124 0.687361,-3.475006 2.346099,-4.650851 2.279056,-1.6155741 5.678763,-1.0387408 7.432986,1.26116 0.638961,0.83772 0.818648,1.442566 0.910273,3.06404 l 0.114154,2.020284 3.126943,0.100812 c 2.817895,0.09086 3.180616,0.167146 3.669935,0.772 0.667203,0.824751 0.894812,0.846765 0.894812,0.08653 0,-0.421385 -0.325693,-0.682227 -1.166312,-0.934081 -1.102165,-0.330201 -1.172119,-0.422323 -1.27173,-1.674802 -0.114671,-1.442134 0.06911,-1.721028 1.345142,-2.041295 1.129176,-0.283413 1.241268,-0.727347 0.640402,-2.536379 C 49.078249,9.7512752 48.928748,9.5756886 48.373516,9.7344574 46.357658,10.310886 46.231115,10.287515 45.388749,9.1831095 L 44.572398,8.1128139 45.333353,7.1151494 C 45.751873,6.566437 46.089978,5.9959176 46.084688,5.8473335 46.079454,5.6987446 45.441763,5.1384098 44.667715,4.6021322 l -1.407349,-0.9750541 -0.927517,1.08849 -0.927513,1.0884852 -1.30981,-0.4379685 C 38.818221,4.9390152 38.785153,4.8954719 38.762976,3.6119467 l -0.02255,-1.316184 H 36.8469 34.953371 l -0.02255,1.316184 c -0.02208,1.2835252 -0.05525,1.3270544 -1.332551,1.7541381 L 32.288462,5.8040533 31.360943,4.7155681 30.43343,3.6270781 29.026082,4.6021322 c -0.774047,0.5362776 -1.411683,1.0966171 -1.416972,1.2452013 -0.0052,0.1485888 0.332786,0.7191035 0.751333,1.2678159 l 0.760947,0.9976645 -0.816351,1.0702956 c -0.842372,1.1044055 -0.96891,1.1277765 -2.984768,0.5513479 -0.555232,-0.1587829 -0.704737,0.016911 -1.146319,1.3463056 -0.609406,1.834751 -0.483432,2.281908 0.717164,2.545601 1.113308,0.244516 1.137276,0.281205 1.255771,1.922353 0.09471,1.31176 0.0879,1.321953 -1.165081,1.739609 -0.897086,0.299011 -1.260351,0.584914 -1.260351,0.991877 0.785454,0.09386 3.479023,-0.835114 4.59655,-0.872324 z m 13.177581,-1.120285 c 0.4367,-2.327767 -1.310599,-4.930088 -3.598416,-5.359286 -3.345411,-0.627602 -6.301086,2.151724 -5.699341,5.359286 l 0.201251,1.072861 h 4.447609 4.447609 z"
     id="path858"
     inkscape:connector-curvature="0"
     sodipodi:nodetypes="ccccccccccccsccscccccccscccccsscccccscccscsccccccccccccccccccacccccccccccscccac" />
  <path
     inkscape:connector-curvature="0"
     id="path54"
     d="m 63.580938,23.628577 1.409654,12.678741 c 0.03937,0.260598 0.07432,0.531891 0.07432,0.80341 l 0.01689,0.0743 -0.01124,0.0026 c 0.0023,0.0743 0.0039,0.111444 0.0039,0.18574 0,3.41081 -2.763585,6.180084 -6.177267,6.180084 -2.030812,0 -3.832213,-0.981947 -4.958477,-2.49207 -0.148588,-0.185741 -0.260597,-0.379361 -0.383301,-0.580242 l -6.2077,-9.414243 z"
     style="fill:#7b8694;stroke-width:1" />
  <rect
     id="rect56"
     height="16.640636"
     width="24.028593"
     y="16.491646"
     x="25.02577"
     style="fill:#7b8694;stroke-width:1" />
  <path
     inkscape:connector-curvature="0"
     id="path58"
     d="m 51.029404,10.277797 c 0,0 -1.573339,0.531892 -2.15729,4.297128 -0.580241,3.765235 0.18574,1.9156 0.18574,1.9156 l 10.93841,-0.822041 c 0,0 -0.29775,-4.836844 -1.818847,-5.05855 C 56.119922,10.15245 51.03317,10.275039 51.03317,10.275039 Z"
     style="fill:#7b8694;stroke-width:1" />
  <path
     inkscape:connector-curvature="0"
     id="path60"
     d="m 23.224654,10.193369 c 0,0 1.573388,0.531892 2.157344,4.29679 0.580241,3.765236 -0.18574,1.915544 -0.18574,1.915544 l -10.93841,-0.821985 c 0,0 0.297747,-4.8369 1.818847,-5.05855 1.510124,-0.222888 7.144244,-0.334894 7.144244,-0.334894 z"
     style="fill:#7b8694;stroke-width:1" />
  <path
     d="m 54.12507,32.409025 a 9.473877,9.473877 0 1 1 0,-18.947754 9.473877,9.473877 0 0 1 0,18.947754 z"
     id="path64"
     inkscape:connector-curvature="0"
     style="fill:#e5e5e5;fill-rule:evenodd;stroke-width:1" />
  <circle
     cx="44.669189"
     cy="32.127594"
     r="4.4726806"
     stroke-miterlimit="40"
     id="circle66"
     style="fill:#535e70;stroke-width:0.2;stroke-miterlimit:40" />
  <path
     d="M 10.110269,23.628577 8.7005568,36.307318 c -0.0394,0.260598 -0.074298,0.531891 -0.074298,0.80341 l -0.016888,0.0743 0.011261,0.0026 c -0.00217,0.0743 -0.0041,0.111444 -0.0041,0.18574 0,3.41081 2.7636452,6.180084 6.1772692,6.180084 2.030873,0 3.832215,-0.981947 4.958532,-2.49207 0.148592,-0.185741 0.260599,-0.379361 0.3833,-0.580242 l 6.207664,-9.414215 z"
     id="path68"
     inkscape:connector-curvature="0"
     style="fill:#7b8694;stroke-width:1" />
  <path
     d="m 19.62242,32.971874 a 9.4738768,9.4738768 0 1 1 0,-18.947753 9.4738768,9.4738768 0 0 1 0,18.947753 z"
     id="path70"
     inkscape:connector-curvature="0"
     style="fill:#e5e5e5;fill-rule:evenodd;stroke-width:1" />
  <flowRoot
     transform="matrix(0.08703898,0,0,0.08703898,39.716133,-37.631922)"
     letter-spacing="0px"
     word-spacing="0px"
     style="line-height:0.01%;font-family:Calibri;letter-spacing:0px;word-spacing:0px;fill:#000000;stroke-width:6.0795927"
     xml:space="preserve"
     id="flowRoot82"><flowRegion
       id="flowRegion78"
       style="stroke-width:6.0795927"><rect
         x="-175.71001"
         y="576.65002"
         width="162.86"
         height="62.856998"
         id="rect76"
         style="stroke-width:6.0795927" /></flowRegion><flowPara
       font-size="30px"
       style="font-size:30px;line-height:1.25;stroke-width:7.20224714"
       id="flowPara80"> </flowPara></flowRoot>  <g
     transform="matrix(5.6284913,0,0,5.6284913,-559.71819,-544.56762)"
     stroke-miterlimit="40"
     id="g90"
     style="stroke-width:0.03553354;stroke-miterlimit:40">
    <path
       d="m 102.31,98.679 c 0.26913,-0.07574 0.57538,-0.1135 0.82661,-0.09378 0.14627,0.01227 0.43154,0.0877 0.43154,0.0877 0.01,-0.08789 -0.001,-0.14392 -0.0577,-0.21273 -0.39502,-0.12472 -0.79075,-0.1187 -1.1514,0.04949 -0.0372,0.05365 -0.0485,0.1047 -0.0495,0.16933 z"
       id="path86"
       inkscape:connector-curvature="0"
       style="fill:#e5e5e5;stroke-width:0.04209515" />
    <path
       d="m 108.5,98.679 c 0.26913,-0.07574 0.57538,-0.1135 0.82661,-0.09378 0.14627,0.01227 0.43154,0.0877 0.43154,0.0877 0.01,-0.08789 -0.001,-0.14392 -0.0577,-0.21273 -0.39502,-0.12472 -0.79075,-0.1187 -1.1514,0.04949 -0.0372,0.05365 -0.0485,0.1047 -0.0495,0.16933 z"
       id="path88"
       inkscape:connector-curvature="0"
       style="fill:#e5e5e5;stroke-width:0.04209515" />
  </g>
  <g
     transform="matrix(5.6284913,0,0,5.6284913,-559.71819,-544.56762)"
     stroke-miterlimit="40"
     id="g102"
     style="fill:#ffffff;stroke-width:0.03553354;stroke-miterlimit:40">
    <path
       d="m 102.08,100.71 c 0,-0.0137 0.006,-0.0284 0.0153,-0.0381 0.0137,-0.0138 0.0345,-0.0221 0.054,-0.0221 h 0.31559 c 0.0256,0 0.0517,0.01 0.0731,0.0239 0.0632,0.0414 0.11323,0.10372 0.15042,0.16946 0.0359,0.0616 0.0245,0.11397 -0.004,0.1707 -0.0426,0.0666 -0.10427,0.12243 -0.17192,0.16331 -0.0174,0.0105 -0.0374,0.0196 -0.0577,0.0196 h -0.3119 c -0.0177,0 -0.0354,-0.0109 -0.0473,-0.0239 -0.0115,-0.0125 -0.019,-0.0303 -0.019,-0.0473 0,-0.14134 0.004,-0.27703 0.004,-0.41557 z"
       id="path94"
       inkscape:connector-curvature="0"
       style="fill:#535e70;fill-opacity:1;stroke-width:0.03553354" />
    <path
       d="m 103.76,100.71 c 0,-0.0137 -0.006,-0.0284 -0.0153,-0.0381 -0.0137,-0.0138 -0.0345,-0.0221 -0.054,-0.0221 h -0.31559 c -0.0256,0 -0.0517,0.01 -0.0731,0.0239 -0.0632,0.0414 -0.11323,0.10372 -0.15042,0.16946 -0.0359,0.0616 -0.0245,0.11397 0.004,0.1707 0.0426,0.0666 0.10427,0.12243 0.17192,0.16331 0.0174,0.0105 0.0374,0.0196 0.0577,0.0196 h 0.3119 c 0.0177,0 0.0354,-0.0109 0.0473,-0.0239 0.0115,-0.0125 0.019,-0.0303 0.019,-0.0473 0,-0.14134 -0.004,-0.27703 -0.004,-0.41557 z"
       id="path96"
       inkscape:connector-curvature="0"
       style="fill:#535e70;fill-opacity:1;stroke-width:0.03553354" />
    <path
       d="m 103.13,100.1 c 0.0137,0 0.0284,0.006 0.0381,0.0153 0.0138,0.0137 0.0221,0.0345 0.0221,0.054 v 0.31559 c 0,0.0256 -0.01,0.0517 -0.0239,0.0731 -0.0414,0.0632 -0.10372,0.11323 -0.16946,0.15042 -0.0616,0.0359 -0.11397,0.0245 -0.1707,-0.004 -0.0666,-0.0426 -0.12243,-0.10427 -0.16331,-0.17192 -0.0105,-0.0174 -0.0196,-0.0374 -0.0196,-0.0577 v -0.3119 c 0,-0.0177 0.0109,-0.0354 0.0239,-0.0473 0.0125,-0.0115 0.0303,-0.019 0.0473,-0.019 0.14134,0 0.27703,0.004 0.41557,0.004 z"
       id="path98"
       inkscape:connector-curvature="0"
       style="fill:#535e70;fill-opacity:1;stroke-width:0.03553354" />
    <path
       d="m 103.13,101.79 c 0.0137,0 0.0284,-0.006 0.0381,-0.0153 0.0138,-0.0137 0.0221,-0.0345 0.0221,-0.054 v -0.31559 c 0,-0.0256 -0.01,-0.0517 -0.0239,-0.0731 -0.0414,-0.0632 -0.10372,-0.11323 -0.16946,-0.15042 -0.0616,-0.0359 -0.11397,-0.0245 -0.1707,0.004 -0.0666,0.0426 -0.12243,0.10427 -0.16331,0.17192 -0.0105,0.0174 -0.0196,0.0374 -0.0196,0.0577 v 0.3119 c 0,0.0177 0.0109,0.0354 0.0239,0.0473 0.0125,0.0115 0.0303,0.019 0.0473,0.019 0.14134,0 0.27703,-0.004 0.41557,-0.004 z"
       id="path100"
       inkscape:connector-curvature="0"
       style="fill:#535e70;fill-opacity:1;stroke-width:0.03553354" />
  </g>
  <g
     transform="matrix(5.6284913,0,0,5.6284913,-559.71819,-544.56762)"
     stroke-miterlimit="40"
     id="g122"
     style="stroke-width:0.03553354;stroke-miterlimit:40">
    <circle
       cx="109.05"
       cy="100.08"
       r="0.36223999"
       id="circle104"
       style="fill:#535e70;fill-opacity:1;stroke-width:0.03553354" />
    <circle
       cx="109.05"
       cy="101.74"
       r="0.36223999"
       id="circle106"
       style="fill:#535e70;fill-opacity:1;stroke-width:0.03553354" />
    <circle
       cx="109.86"
       cy="100.93"
       r="0.36223999"
       id="circle108"
       style="fill:#535e70;fill-opacity:1;stroke-width:0.03553354" />
    <circle
       cx="108.23"
       cy="100.93"
       r="0.36223999"
       id="circle110"
       style="fill:#535e70;fill-opacity:1;stroke-width:0.03553354" />
    <circle
       cx="107.38"
       cy="102.46"
       r="0.58104998"
       id="circle112"
       style="fill:#7b8694;stroke-width:0.04209515" />
    <circle
       cx="107.38"
       cy="102.46"
       r="0.50812"
       id="circle114"
       style="fill:#f4f4f4;stroke-width:0.04209515" />
    <circle
       cx="104.65"
       cy="102.46"
       r="0.79465002"
       id="circle116"
       style="fill:#535e70;stroke-width:0.04209515" />
    <circle
       cx="104.65"
       cy="102.46"
       r="0.58104998"
       id="circle118"
       style="fill:#7b8694;stroke-width:0.04209515" />
    <circle
       cx="104.65"
       cy="102.46"
       r="0.50812"
       id="circle120"
       style="fill:#f4f4f4;stroke-width:0.04209515" />
  </g>
</svg>
