<?xml version="1.0" encoding="UTF-8" standalone="no"?>
<svg
   width="112.44791mm"
   height="28.310411mm"
   version="1.1"
   viewBox="0 0 112.44792 28.310412"
   id="svg4976"
   sodipodi:docname="chain.svg"
   inkscape:version="1.2.2 (732a01da63, 2022-12-09)"
   xmlns:inkscape="http://www.inkscape.org/namespaces/inkscape"
   xmlns:sodipodi="http://sodipodi.sourceforge.net/DTD/sodipodi-0.dtd"
   xmlns="http://www.w3.org/2000/svg"
   xmlns:svg="http://www.w3.org/2000/svg"
   xmlns:rdf="http://www.w3.org/1999/02/22-rdf-syntax-ns#"
   xmlns:cc="http://creativecommons.org/ns#"
   xmlns:dc="http://purl.org/dc/elements/1.1/">
  <defs
     id="defs4980" />
  <sodipodi:namedview
     id="namedview4978"
     pagecolor="#ffffff"
     bordercolor="#000000"
     borderopacity="0.25"
     inkscape:showpageshadow="2"
     inkscape:pageopacity="0.0"
     inkscape:pagecheckerboard="0"
     inkscape:deskcolor="#d1d1d1"
     inkscape:document-units="mm"
     showgrid="false"
     inkscape:zoom="2.0131374"
     inkscape:cx="76.745881"
     inkscape:cy="21.359695"
     inkscape:window-width="1920"
     inkscape:window-height="1017"
     inkscape:window-x="-8"
     inkscape:window-y="-8"
     inkscape:window-maximized="1"
     inkscape:current-layer="svg4976" />
  <metadata
     id="metadata4842">
    <rdf:RDF>
      <cc:Work
         rdf:about="">
        <dc:format>image/svg+xml</dc:format>
        <dc:type
           rdf:resource="http://purl.org/dc/dcmitype/StillImage" />
        <dc:title />
      </cc:Work>
    </rdf:RDF>
  </metadata>
  <rect
     style="fill:#2f3744;fill-opacity:1;stroke:#7b8694;stroke-width:0.264583;stroke-linecap:round;stroke-miterlimit:4;stroke-dasharray:none;stroke-opacity:1"
     id="rect1409"
     width="25.929167"
     height="9.5250044"
     x="0.1322915"
     y="0.1322915" />
  <g
     aria-label="Otevřít dveře"
     id="text1413"
     style="font-size:3.70417px;line-height:1.25;font-family:'Small Fonts';-inkscape-font-specification:'Small Fonts';text-align:center;text-anchor:middle;fill:#e8eaec;stroke:#cf2f25;stroke-width:0.264583;stroke-linecap:round">
    <path
       d="m 4.2394577,6.2332179 c 0.6074839,0 1.0371676,-0.4889504 1.0371676,-1.2705303 0,-0.7741715 -0.4296837,-1.2483052 -1.0371676,-1.2483052 -0.611188,0 -1.0408717,0.4704295 -1.0408717,1.2483052 0,0.7815799 0.4296837,1.2705303 1.0408717,1.2705303 z m 0,-0.2704044 c -0.437092,0 -0.7223131,-0.392642 -0.7223131,-1.0001259 0,-0.6037797 0.2852211,-0.9779008 0.7223131,-0.9779008 0.4333879,0 0.718609,0.3741211 0.718609,0.9779008 0,0.6074839 -0.2852211,1.0001259 -0.718609,1.0001259 z"
       style="font-family:'Source Sans Pro';-inkscape-font-specification:'Source Sans Pro';stroke:none"
       id="path5204" />
    <path
       d="m 5.8137315,5.6331424 c 0,0.3556003 0.129646,0.6000755 0.5148797,0.6000755 0.1111251,0 0.2333627,-0.033338 0.3333753,-0.066675 L 6.6027197,5.9368844 c -0.059267,0.022225 -0.1407584,0.048154 -0.2037293,0.048154 -0.2074335,0 -0.2778128,-0.1259418 -0.2778128,-0.348192 V 4.6367207 H 6.6064239 V 4.3885413 H 6.1211776 V 3.8847742 H 5.8655899 l -0.037042,0.5037671 -0.2815169,0.018521 v 0.2296586 h 0.2667002 z"
       style="font-family:'Source Sans Pro';-inkscape-font-specification:'Source Sans Pro';stroke:none"
       id="path5206" />
    <path
       d="m 6.8434874,5.2923588 c 0,0.588963 0.3815295,0.9408591 0.8630716,0.9408591 0.2444752,0 0.4370921,-0.085196 0.5926672,-0.1852084 L 8.1918053,5.8479843 c -0.1333501,0.085196 -0.2778128,0.1407584 -0.4482046,0.1407584 -0.3444878,0 -0.5778505,-0.2444752 -0.6000755,-0.633413 h 1.2149677 c 0.00741,-0.04445 0.011113,-0.1037168 0.011113,-0.1666877 0,-0.5148796 -0.2592919,-0.8445507 -0.718609,-0.8445507 -0.4111629,0 -0.8075091,0.3593044 -0.8075091,0.9482675 z M 7.139821,5.1553045 c 0.037042,-0.3630087 0.2667003,-0.5704422 0.5185838,-0.5704422 0.2815169,0 0.4445004,0.2037294 0.4445004,0.5704422 z"
       style="font-family:'Source Sans Pro';-inkscape-font-specification:'Source Sans Pro';stroke:none"
       id="path5208" />
    <path
       d="M 9.2215627,6.1887679 H 9.577163 L 10.21428,4.3885413 H 9.9142425 L 9.5734588,5.4108922 C 9.5216004,5.5886924 9.4623337,5.7701967 9.4104753,5.9405885 H 9.3956587 C 9.3400961,5.7701967 9.2808294,5.5886924 9.228971,5.4108922 L 8.8881874,4.3885413 H 8.5733329 Z"
       style="font-family:'Source Sans Pro';-inkscape-font-specification:'Source Sans Pro';stroke:none"
       id="path5210" />
    <path
       d="m 10.562476,6.1887679 h 0.303742 v -1.155701 c 0.122237,-0.303742 0.303741,-0.4148671 0.455612,-0.4148671 0.07408,0 0.11483,0.011112 0.174096,0.029633 l 0.05927,-0.2667002 c -0.05927,-0.025929 -0.114829,-0.037042 -0.192617,-0.037042 -0.203729,0 -0.388938,0.1444626 -0.511175,0.370417 h -0.01111 l -0.02593,-0.325967 h -0.251883 z m 0.377825,-2.1224894 h 0.248179 l 0.351896,-0.522288 H 11.32183 l -0.248179,0.3407837 h -0.01482 L 10.810655,3.5439905 h -0.22225 z"
       style="font-family:'Source Sans Pro';-inkscape-font-specification:'Source Sans Pro';stroke:none"
       id="path5212" />
    <path
       d="m 11.847823,6.1887679 h 0.303742 V 4.3885413 h -0.303742 z m 0.563034,-2.6447774 h -0.318559 l -0.333375,0.522288 h 0.233363 z"
       style="font-family:'Source Sans Pro';-inkscape-font-specification:'Source Sans Pro';stroke:none"
       id="path5214" />
    <path
       d="m 12.810909,5.6331424 c 0,0.3556003 0.129646,0.6000755 0.514879,0.6000755 0.111125,0 0.233363,-0.033338 0.333376,-0.066675 l -0.05927,-0.2296585 c -0.05927,0.022225 -0.140759,0.048154 -0.203729,0.048154 -0.207434,0 -0.277813,-0.1259418 -0.277813,-0.348192 V 4.6367207 h 0.485246 V 4.3885413 H 13.118355 V 3.8847742 h -0.255588 l -0.03704,0.5037671 -0.281517,0.018521 v 0.2296586 h 0.266701 z"
       style="font-family:'Source Sans Pro';-inkscape-font-specification:'Source Sans Pro';stroke:none"
       id="path5216" />
    <path
       d="m 14.629652,5.2923588 c 0,0.6000755 0.29263,0.9408591 0.744538,0.9408591 0.211138,0 0.403755,-0.1185334 0.544513,-0.2555877 h 0.01111 l 0.02593,0.2111377 h 0.251884 v -2.637369 h -0.307446 v 0.6926798 l 0.01482,0.3074461 C 15.75572,4.4218788 15.618666,4.3440913 15.411232,4.3440913 c -0.411163,0 -0.78158,0.3630086 -0.78158,0.9482675 z m 0.314855,-0.0037 c 0,-0.4111629 0.229658,-0.6889756 0.518584,-0.6889756 0.148166,0 0.285221,0.051858 0.437092,0.1889127 v 0.9408591 c -0.148167,0.1666877 -0.29263,0.2481794 -0.459317,0.2481794 -0.314855,0 -0.496359,-0.2592919 -0.496359,-0.6889756 z"
       style="font-family:'Source Sans Pro';-inkscape-font-specification:'Source Sans Pro';stroke:none"
       id="path5218" />
    <path
       d="m 17.204052,6.1887679 h 0.3556 l 0.637117,-1.8002266 h -0.300037 l -0.340784,1.0223509 c -0.05186,0.1778002 -0.111125,0.3593045 -0.162984,0.5296963 h -0.01482 C 17.322585,5.7701967 17.263318,5.5886924 17.21146,5.4108922 L 16.870676,4.3885413 h -0.314854 z"
       style="font-family:'Source Sans Pro';-inkscape-font-specification:'Source Sans Pro';stroke:none"
       id="path5220" />
    <path
       d="m 18.396799,5.2923588 c 0,0.588963 0.38153,0.9408591 0.863072,0.9408591 0.244475,0 0.437092,-0.085196 0.592667,-0.1852084 L 19.745117,5.8479843 c -0.13335,0.085196 -0.277813,0.1407584 -0.448204,0.1407584 -0.344488,0 -0.577851,-0.2444752 -0.600076,-0.633413 h 1.214968 c 0.0074,-0.04445 0.01111,-0.1037168 0.01111,-0.1666877 0,-0.5148796 -0.259292,-0.8445507 -0.718609,-0.8445507 -0.411163,0 -0.807509,0.3593044 -0.807509,0.9482675 z m 0.296334,-0.1370543 c 0.03704,-0.3630087 0.2667,-0.5704422 0.518584,-0.5704422 0.281517,0 0.4445,0.2037294 0.4445,0.5704422 z"
       style="font-family:'Source Sans Pro';-inkscape-font-specification:'Source Sans Pro';stroke:none"
       id="path5222" />
    <path
       d="m 20.367418,6.1887679 h 0.303742 v -1.155701 c 0.122238,-0.303742 0.303742,-0.4148671 0.455613,-0.4148671 0.07408,0 0.114829,0.011112 0.174096,0.029633 l 0.05927,-0.2667002 c -0.05927,-0.025929 -0.11483,-0.037042 -0.192617,-0.037042 -0.203729,0 -0.388938,0.1444626 -0.511176,0.370417 h -0.01111 l -0.02593,-0.325967 h -0.251884 z m 0.377826,-2.1224894 h 0.248179 l 0.351896,-0.522288 h -0.218546 l -0.248179,0.3407837 h -0.01482 L 20.615598,3.5439905 h -0.222251 z"
       style="font-family:'Source Sans Pro';-inkscape-font-specification:'Source Sans Pro';stroke:none"
       id="path5224" />
    <path
       d="m 21.482372,5.2923588 c 0,0.588963 0.38153,0.9408591 0.863072,0.9408591 0.244475,0 0.437092,-0.085196 0.592667,-0.1852084 L 22.83069,5.8479843 c -0.13335,0.085196 -0.277812,0.1407584 -0.448204,0.1407584 -0.344488,0 -0.577851,-0.2444752 -0.600076,-0.633413 h 1.214968 c 0.0074,-0.04445 0.01111,-0.1037168 0.01111,-0.1666877 0,-0.5148796 -0.259291,-0.8445507 -0.718609,-0.8445507 -0.411162,0 -0.807509,0.3593044 -0.807509,0.9482675 z m 0.296334,-0.1370543 c 0.03704,-0.3630087 0.2667,-0.5704422 0.518584,-0.5704422 0.281517,0 0.4445,0.2037294 0.4445,0.5704422 z"
       style="font-family:'Source Sans Pro';-inkscape-font-specification:'Source Sans Pro';stroke:none"
       id="path5226" />
  </g>
  <g
     inkscape:export-ydpi="96"
     inkscape:export-xdpi="96"
     style="fill:#6f8ce9;fill-opacity:1;stroke:none;stroke-width:82.566;stroke-opacity:1"
     transform="matrix(0.00317741,0,0,0.00323182,41.330769,4.123783)"
     id="g1419">
    <g
       style="fill:#6f8ce9;fill-opacity:1;stroke:none;stroke-width:82.566;stroke-opacity:1"
       id="g1417">
      <path
         style="fill:#6f8ce9;fill-opacity:1;stroke:none;stroke-width:82.566;stroke-opacity:1"
         inkscape:connector-curvature="0"
         d="M 486.413,221.412 122.347,12.916 C 69.409,-17.402 26.495,7.476 26.495,68.479 v 415.652 c 0,61.004 42.914,85.882 95.852,55.563 l 364.066,-208.49 c 52.938,-30.317 52.938,-79.473 0,-109.792 z"
         id="path1415" />
    </g>
  </g>
  <path
     inkscape:export-ydpi="96"
     inkscape:export-xdpi="96"
     style="fill:none;fill-opacity:1;stroke:#6f8ce9;stroke-width:0.264583;stroke-linecap:round;stroke-miterlimit:4;stroke-dasharray:none;stroke-opacity:1"
     d="M 41.456919,5.011804 H 26.210309"
     id="path1421"
     inkscape:connector-curvature="0"
     sodipodi:nodetypes="cc" />
  <rect
     y="0.1322915"
     x="43.259365"
     height="9.5250044"
     width="25.929167"
     id="rect1423"
     style="fill:#2f3744;fill-opacity:1;stroke:#7b8694;stroke-width:0.264583;stroke-linecap:round;stroke-miterlimit:4;stroke-dasharray:none;stroke-opacity:1" />
  <g
     aria-label="Vstoupit"
     id="text1427"
     style="font-size:3.70417px;line-height:1.25;font-family:'Small Fonts';-inkscape-font-specification:'Small Fonts';text-align:center;text-anchor:middle;fill:#e8eaec;stroke:#cf2f25;stroke-width:0.264583;stroke-linecap:round">
    <path
       d="m 50.550288,6.1887679 h 0.359305 L 51.68006,3.7588324 h -0.314854 l -0.388938,1.3112762 c -0.08149,0.2889252 -0.144463,0.5185838 -0.233363,0.8038049 h -0.01482 C 50.639188,5.5886924 50.579922,5.3590338 50.494726,5.0701086 L 50.102084,3.7588324 h -0.325967 z"
       style="font-family:'Source Sans Pro';-inkscape-font-specification:'Source Sans Pro';stroke:none"
       id="path5229" />
    <path
       d="m 51.731923,5.9850386 c 0.170391,0.1407584 0.414867,0.2481793 0.670454,0.2481793 0.42598,0 0.659343,-0.2444752 0.659343,-0.5371046 0,-0.3407836 -0.288926,-0.4482046 -0.548218,-0.544513 -0.203729,-0.077788 -0.40005,-0.1444626 -0.40005,-0.3111503 0,-0.1370543 0.103717,-0.2592919 0.329671,-0.2592919 0.159279,0 0.288925,0.066675 0.411163,0.1592793 l 0.144463,-0.1926168 c -0.137055,-0.1111251 -0.333376,-0.2037293 -0.55933,-0.2037293 -0.388938,0 -0.618596,0.2222502 -0.618596,0.5111754 0,0.303742 0.281517,0.4259796 0.537104,0.5185838 0.196321,0.074083 0.411163,0.1555752 0.411163,0.3407837 0,0.1555751 -0.118533,0.2815169 -0.3556,0.2815169 -0.214842,0 -0.374121,-0.0889 -0.529696,-0.2148419 z"
       style="font-family:'Source Sans Pro';-inkscape-font-specification:'Source Sans Pro';stroke:none"
       id="path5231" />
    <path
       d="m 53.535856,5.6331424 c 0,0.3556003 0.129646,0.6000755 0.514879,0.6000755 0.111125,0 0.233363,-0.033338 0.333376,-0.066675 l -0.05927,-0.2296585 c -0.05927,0.022225 -0.140759,0.048154 -0.20373,0.048154 -0.207433,0 -0.277812,-0.1259418 -0.277812,-0.348192 V 4.6367207 h 0.485246 V 4.3885413 H 53.843302 V 3.8847742 h -0.255588 l -0.03704,0.5037671 -0.281517,0.018521 v 0.2296586 h 0.266701 z"
       style="font-family:'Source Sans Pro';-inkscape-font-specification:'Source Sans Pro';stroke:none"
       id="path5233" />
    <path
       d="m 54.565612,5.2923588 c 0,0.5963713 0.392642,0.9408591 0.833438,0.9408591 0.440796,0 0.833438,-0.3444878 0.833438,-0.9408591 0,-0.6037797 -0.392642,-0.9482675 -0.833438,-0.9482675 -0.440796,0 -0.833438,0.3444878 -0.833438,0.9482675 z m 0.314854,0 c 0,-0.4148671 0.211138,-0.696384 0.518584,-0.696384 0.31115,0 0.518584,0.2815169 0.518584,0.696384 0,0.4111628 -0.207434,0.6889756 -0.518584,0.6889756 -0.307446,0 -0.518584,-0.2778128 -0.518584,-0.6889756 z"
       style="font-family:'Source Sans Pro';-inkscape-font-specification:'Source Sans Pro';stroke:none"
       id="path5235" />
    <path
       d="m 56.680692,5.5294257 c 0,0.459317 0.170392,0.7037922 0.551921,0.7037922 0.24818,0 0.42598,-0.1296459 0.592668,-0.3259669 h 0.01111 l 0.02593,0.2815169 h 0.251884 V 4.3885413 h -0.303742 v 1.2779386 c -0.170392,0.2111377 -0.300038,0.303742 -0.485246,0.303742 -0.237067,0 -0.33708,-0.1444626 -0.33708,-0.4815421 V 4.3885413 h -0.307446 z"
       style="font-family:'Source Sans Pro';-inkscape-font-specification:'Source Sans Pro';stroke:none"
       id="path5237" />
    <path
       d="m 59.018026,6.0257844 c 0.166687,0.129646 0.333375,0.2074335 0.500063,0.2074335 0.411163,0 0.777875,-0.3593044 0.777875,-0.9704925 0,-0.5593297 -0.248179,-0.9186341 -0.7112,-0.9186341 -0.211138,0 -0.411163,0.1148292 -0.574147,0.2518835 h -0.01111 l -0.02593,-0.2074335 h -0.251884 v 2.5595815 h 0.303742 V 6.3406389 Z m 0.0074,-0.2370668 V 4.8441542 c 0.1778,-0.1592793 0.329671,-0.2444752 0.481542,-0.2444752 0.340784,0 0.474134,0.2667002 0.474134,0.6630464 0,0.4445004 -0.218546,0.7149048 -0.51488,0.7149048 -0.118533,0 -0.277812,-0.051858 -0.440796,-0.1889126 z"
       style="font-family:'Source Sans Pro';-inkscape-font-specification:'Source Sans Pro';stroke:none"
       id="path5239" />
    <path
       d="m 60.933082,4.0181243 c 0.118534,0 0.211138,-0.081492 0.211138,-0.196321 0,-0.1185335 -0.0926,-0.196321 -0.211138,-0.196321 -0.118533,0 -0.211138,0.077788 -0.211138,0.196321 0,0.1148293 0.0926,0.196321 0.211138,0.196321 z m -0.155575,2.1706436 h 0.303742 V 4.3885413 h -0.303742 z"
       style="font-family:'Source Sans Pro';-inkscape-font-specification:'Source Sans Pro';stroke:none"
       id="path5241" />
    <path
       d="m 61.740593,5.6331424 c 0,0.3556003 0.129646,0.6000755 0.514879,0.6000755 0.111125,0 0.233363,-0.033338 0.333375,-0.066675 l -0.05927,-0.2296585 c -0.05927,0.022225 -0.140759,0.048154 -0.20373,0.048154 -0.207433,0 -0.277812,-0.1259418 -0.277812,-0.348192 V 4.6367207 h 0.485246 V 4.3885413 H 62.048039 V 3.8847742 h -0.255588 l -0.03704,0.5037671 -0.281517,0.018521 v 0.2296586 h 0.266701 z"
       style="font-family:'Source Sans Pro';-inkscape-font-specification:'Source Sans Pro';stroke:none"
       id="path5243" />
  </g>
  <g
     inkscape:export-ydpi="96"
     inkscape:export-xdpi="96"
     style="fill:#6f8ce9;fill-opacity:1;stroke:none;stroke-width:82.566;stroke-opacity:1"
     transform="matrix(0.00317741,0,0,0.00323182,84.457849,4.123783)"
     id="g1433">
    <g
       style="fill:#6f8ce9;fill-opacity:1;stroke:none;stroke-width:82.566;stroke-opacity:1"
       id="g1431">
      <path
         style="fill:#6f8ce9;fill-opacity:1;stroke:none;stroke-width:82.566;stroke-opacity:1"
         inkscape:connector-curvature="0"
         d="M 486.413,221.412 122.347,12.916 C 69.409,-17.402 26.495,7.476 26.495,68.479 v 415.652 c 0,61.004 42.914,85.882 95.852,55.563 l 364.066,-208.49 c 52.938,-30.317 52.938,-79.473 0,-109.792 z"
         id="path1429" />
    </g>
  </g>
  <path
     inkscape:export-ydpi="96"
     inkscape:export-xdpi="96"
     style="fill:none;fill-opacity:1;stroke:#6f8ce9;stroke-width:0.264583;stroke-linecap:round;stroke-miterlimit:4;stroke-dasharray:none;stroke-opacity:1"
     d="M 84.584009,5.011804 H 69.337389"
     id="path1435"
     inkscape:connector-curvature="0"
     sodipodi:nodetypes="cc" />
  <rect
     y="0.1322915"
     x="86.386459"
     height="9.5250044"
     width="25.929167"
     id="rect1437"
     style="fill:#2f3744;fill-opacity:1;stroke:#7b8694;stroke-width:0.264583;stroke-linecap:round;stroke-miterlimit:4;stroke-dasharray:none;stroke-opacity:1" />
  <g
     aria-label="Zavřít dveře"
     id="text1441"
     style="font-size:3.70417px;line-height:1.25;font-family:'Small Fonts';-inkscape-font-specification:'Small Fonts';text-align:center;text-anchor:middle;fill:#e8eaec;stroke:#cf2f25;stroke-width:0.264583;stroke-linecap:round">
    <path
       d="m 90.275087,6.1887679 h 1.674285 V 5.9257718 H 90.656617 L 91.93826,3.9403367 V 3.7588324 h -1.548344 v 0.2592919 h 1.166814 l -1.281643,1.9854351 z"
       style="font-family:'Source Sans Pro';-inkscape-font-specification:'Source Sans Pro';stroke:none"
       id="path5246" />
    <path
       d="m 92.253113,5.7220425 c 0,0.3222628 0.225954,0.5111754 0.529696,0.5111754 0.22225,0 0.422275,-0.1185334 0.596371,-0.2592918 h 0.0074 l 0.02593,0.2148418 h 0.251883 V 5.0849253 c 0,-0.4482046 -0.185208,-0.740834 -0.626004,-0.740834 -0.288926,0 -0.540809,0.1259417 -0.707497,0.2333627 l 0.122238,0.2111377 c 0.140758,-0.096308 0.325967,-0.1926169 0.537105,-0.1926169 0.292629,0 0.370417,0.2222502 0.370417,0.4519088 -0.766764,0.085196 -1.107547,0.2815169 -1.107547,0.6741589 z m 0.300037,-0.022225 c 0,-0.2296586 0.20373,-0.3778254 0.80751,-0.4519088 v 0.500063 c -0.174096,0.1555751 -0.318559,0.240771 -0.492655,0.240771 -0.1778,0 -0.314855,-0.085196 -0.314855,-0.2889252 z"
       style="font-family:'Source Sans Pro';-inkscape-font-specification:'Source Sans Pro';stroke:none"
       id="path5248" />
    <path
       d="m 94.627482,6.1887679 h 0.355601 L 95.6202,4.3885413 h -0.300038 l -0.340784,1.0223509 c -0.05186,0.1778002 -0.111125,0.3593045 -0.162983,0.5296963 h -0.01482 C 94.746016,5.7701967 94.686749,5.5886924 94.634891,5.4108922 L 94.294107,4.3885413 h -0.314854 z"
       style="font-family:'Source Sans Pro';-inkscape-font-specification:'Source Sans Pro';stroke:none"
       id="path5250" />
    <path
       d="m 95.968395,6.1887679 h 0.303742 v -1.155701 c 0.122238,-0.303742 0.303742,-0.4148671 0.455613,-0.4148671 0.07408,0 0.114829,0.011112 0.174096,0.029633 l 0.05927,-0.2667002 c -0.05927,-0.025929 -0.114829,-0.037042 -0.192617,-0.037042 -0.203729,0 -0.388938,0.1444626 -0.511175,0.370417 h -0.01111 l -0.02593,-0.325967 H 95.968395 Z M 96.346221,4.0662785 H 96.5944 l 0.351896,-0.522288 H 96.72775 l -0.248179,0.3407837 h -0.01482 L 96.216575,3.5439905 h -0.222251 z"
       style="font-family:'Source Sans Pro';-inkscape-font-specification:'Source Sans Pro';stroke:none"
       id="path5252" />
    <path
       d="m 97.253743,6.1887679 h 0.303742 V 4.3885413 h -0.303742 z m 0.563034,-2.6447774 h -0.318559 l -0.333375,0.522288 h 0.233363 z"
       style="font-family:'Source Sans Pro';-inkscape-font-specification:'Source Sans Pro';stroke:none"
       id="path5254" />
    <path
       d="m 98.216828,5.6331424 c 0,0.3556003 0.129646,0.6000755 0.51488,0.6000755 0.111125,0 0.233363,-0.033338 0.333375,-0.066675 l -0.05927,-0.2296585 c -0.05927,0.022225 -0.140759,0.048154 -0.20373,0.048154 -0.207433,0 -0.277813,-0.1259418 -0.277813,-0.348192 V 4.6367207 h 0.485247 V 4.3885413 H 98.524274 V 3.8847742 h -0.255587 l -0.03704,0.5037671 -0.281517,0.018521 v 0.2296586 h 0.2667 z"
       style="font-family:'Source Sans Pro';-inkscape-font-specification:'Source Sans Pro';stroke:none"
       id="path5256" />
    <path
       d="m 100.03557,5.2923588 c 0,0.6000755 0.29263,0.9408591 0.74454,0.9408591 0.21114,0 0.40376,-0.1185334 0.54451,-0.2555877 h 0.0111 l 0.0259,0.2111377 h 0.25188 v -2.637369 h -0.30745 v 0.6926798 l 0.0148,0.3074461 c -0.15928,-0.129646 -0.29633,-0.2074335 -0.50377,-0.2074335 -0.41116,0 -0.78158,0.3630086 -0.78158,0.9482675 z m 0.31486,-0.0037 c 0,-0.4111629 0.22966,-0.6889756 0.51858,-0.6889756 0.14817,0 0.28522,0.051858 0.43709,0.1889127 v 0.9408591 c -0.14816,0.1666877 -0.29263,0.2481794 -0.45931,0.2481794 -0.31486,0 -0.49636,-0.2592919 -0.49636,-0.6889756 z"
       style="font-family:'Source Sans Pro';-inkscape-font-specification:'Source Sans Pro';stroke:none"
       id="path5258" />
    <path
       d="m 102.60997,6.1887679 h 0.3556 l 0.63712,-1.8002266 h -0.30004 l -0.34078,1.0223509 c -0.0519,0.1778002 -0.11113,0.3593045 -0.16299,0.5296963 h -0.0148 C 102.7285,5.7701967 102.66924,5.5886924 102.61738,5.4108922 L 102.2766,4.3885413 h -0.31486 z"
       style="font-family:'Source Sans Pro';-inkscape-font-specification:'Source Sans Pro';stroke:none"
       id="path5260" />
    <path
       d="m 103.80272,5.2923588 c 0,0.588963 0.38153,0.9408591 0.86307,0.9408591 0.24448,0 0.43709,-0.085196 0.59267,-0.1852084 l -0.10742,-0.2000252 c -0.13335,0.085196 -0.27782,0.1407584 -0.44821,0.1407584 -0.34449,0 -0.57785,-0.2444752 -0.60007,-0.633413 h 1.21496 c 0.007,-0.04445 0.0111,-0.1037168 0.0111,-0.1666877 0,-0.5148796 -0.2593,-0.8445507 -0.71861,-0.8445507 -0.41117,0 -0.80751,0.3593044 -0.80751,0.9482675 z m 0.29633,-0.1370543 c 0.037,-0.3630087 0.2667,-0.5704422 0.51859,-0.5704422 0.28151,0 0.4445,0.2037294 0.4445,0.5704422 z"
       style="font-family:'Source Sans Pro';-inkscape-font-specification:'Source Sans Pro';stroke:none"
       id="path5262" />
    <path
       d="m 105.77334,6.1887679 h 0.30374 v -1.155701 c 0.12224,-0.303742 0.30374,-0.4148671 0.45561,-0.4148671 0.0741,0 0.11483,0.011112 0.1741,0.029633 l 0.0593,-0.2667002 c -0.0593,-0.025929 -0.11483,-0.037042 -0.19262,-0.037042 -0.20373,0 -0.38894,0.1444626 -0.51118,0.370417 h -0.0111 l -0.0259,-0.325967 h -0.25188 z m 0.37782,-2.1224894 h 0.24818 l 0.3519,-0.522288 h -0.21855 l -0.24818,0.3407837 h -0.0148 l -0.24818,-0.3407837 h -0.22225 z"
       style="font-family:'Source Sans Pro';-inkscape-font-specification:'Source Sans Pro';stroke:none"
       id="path5264" />
    <path
       d="m 106.88829,5.2923588 c 0,0.588963 0.38153,0.9408591 0.86307,0.9408591 0.24448,0 0.4371,-0.085196 0.59267,-0.1852084 l -0.10742,-0.2000252 c -0.13335,0.085196 -0.27781,0.1407584 -0.4482,0.1407584 -0.34449,0 -0.57785,-0.2444752 -0.60008,-0.633413 h 1.21497 c 0.007,-0.04445 0.0111,-0.1037168 0.0111,-0.1666877 0,-0.5148796 -0.25929,-0.8445507 -0.71861,-0.8445507 -0.41116,0 -0.80751,0.3593044 -0.80751,0.9482675 z m 0.29634,-0.1370543 c 0.037,-0.3630087 0.2667,-0.5704422 0.51858,-0.5704422 0.28152,0 0.4445,0.2037294 0.4445,0.5704422 z"
       style="font-family:'Source Sans Pro';-inkscape-font-specification:'Source Sans Pro';stroke:none"
       id="path5266" />
  </g>
  <rect
     style="fill:#2f3744;fill-opacity:1;stroke:#7b8694;stroke-width:0.264583;stroke-linecap:round;stroke-miterlimit:4;stroke-dasharray:none;stroke-opacity:1"
     id="rect1443"
     width="25.929167"
     height="9.5250044"
     x="86.386459"
     y="18.653116" />
  <g
     aria-label="Načíst scénu"
     id="text1447"
     style="font-size:3.70417px;line-height:1.25;font-family:'Small Fonts';-inkscape-font-specification:'Small Fonts';text-align:center;text-anchor:middle;fill:#e8eaec;stroke:#cf2f25;stroke-width:0.264583;stroke-linecap:round">
    <path
       d="m 89.925044,24.709593 h 0.29263 v -1.27053 c 0,-0.255588 -0.02223,-0.51488 -0.03704,-0.759355 h 0.01482 l 0.262996,0.500063 0.877888,1.529822 h 0.318559 v -2.429936 h -0.29263 v 1.255714 c 0,0.255588 0.02593,0.529696 0.04075,0.774171 h -0.01482 l -0.262997,-0.503767 -0.881592,-1.526118 h -0.318559 z"
       style="font-family:'Source Sans Pro';-inkscape-font-specification:'Source Sans Pro';stroke:none"
       id="path5269" />
    <path
       d="m 92.195701,24.242867 c 0,0.322263 0.225955,0.511176 0.529697,0.511176 0.22225,0 0.422275,-0.118534 0.596371,-0.259292 h 0.0074 l 0.02593,0.214842 H 93.60699 V 23.60575 c 0,-0.448204 -0.185208,-0.740834 -0.626005,-0.740834 -0.288925,0 -0.540808,0.125942 -0.707496,0.233363 l 0.122238,0.211138 c 0.140758,-0.09631 0.325967,-0.192617 0.537104,-0.192617 0.29263,0 0.370417,0.22225 0.370417,0.451908 -0.766763,0.0852 -1.107547,0.281517 -1.107547,0.674159 z m 0.300038,-0.02222 c 0,-0.229658 0.20373,-0.377825 0.807509,-0.451908 v 0.500063 c -0.174096,0.155575 -0.318558,0.240771 -0.492654,0.240771 -0.1778,0 -0.314855,-0.0852 -0.314855,-0.288926 z"
       style="font-family:'Source Sans Pro';-inkscape-font-specification:'Source Sans Pro';stroke:none"
       id="path5271" />
    <path
       d="m 94.047783,23.813184 c 0,0.596371 0.366713,0.940859 0.844551,0.940859 0.214842,0 0.422275,-0.0889 0.585259,-0.233363 l -0.137055,-0.200025 c -0.107421,0.09631 -0.251883,0.181504 -0.422275,0.181504 -0.329671,0 -0.555626,-0.277812 -0.555626,-0.688975 0,-0.414867 0.237067,-0.696384 0.563034,-0.696384 0.144463,0 0.255588,0.06668 0.363009,0.159279 l 0.151871,-0.196321 c -0.122238,-0.114829 -0.288925,-0.214842 -0.525992,-0.214842 -0.463021,0 -0.866776,0.344488 -0.866776,0.948268 z m 0.73713,-1.226081 h 0.248179 l 0.351896,-0.522288 h -0.218546 l -0.248179,0.340784 h -0.01482 l -0.248179,-0.340784 h -0.22225 z"
       style="font-family:'Source Sans Pro';-inkscape-font-specification:'Source Sans Pro';stroke:none"
       id="path5273" />
    <path
       d="m 95.870232,24.709593 h 0.303742 v -1.800227 h -0.303742 z m 0.563034,-2.644778 h -0.318558 l -0.333376,0.522288 h 0.233363 z"
       style="font-family:'Source Sans Pro';-inkscape-font-specification:'Source Sans Pro';stroke:none"
       id="path5275" />
    <path
       d="m 96.581434,24.505863 c 0.170392,0.140759 0.414868,0.24818 0.670455,0.24818 0.42598,0 0.659343,-0.244475 0.659343,-0.537105 0,-0.340783 -0.288926,-0.448204 -0.548218,-0.544513 -0.203729,-0.07779 -0.40005,-0.144462 -0.40005,-0.31115 0,-0.137054 0.103717,-0.259292 0.329671,-0.259292 0.159279,0 0.288925,0.06668 0.411163,0.159279 l 0.144463,-0.192616 c -0.137055,-0.111126 -0.333376,-0.20373 -0.55933,-0.20373 -0.388938,0 -0.618596,0.22225 -0.618596,0.511176 0,0.303742 0.281516,0.425979 0.537104,0.518583 0.196321,0.07408 0.411163,0.155576 0.411163,0.340784 0,0.155575 -0.118533,0.281517 -0.3556,0.281517 -0.214842,0 -0.374121,-0.0889 -0.529697,-0.214842 z"
       style="font-family:'Source Sans Pro';-inkscape-font-specification:'Source Sans Pro';stroke:none"
       id="path5277" />
    <path
       d="m 98.385368,24.153967 c 0,0.355601 0.129646,0.600076 0.514879,0.600076 0.111125,0 0.233363,-0.03334 0.333376,-0.06668 l -0.05927,-0.229659 c -0.05927,0.02222 -0.140759,0.04815 -0.203729,0.04815 -0.207434,0 -0.277813,-0.125941 -0.277813,-0.348192 v -1.000125 h 0.485246 v -0.24818 h -0.485246 v -0.503767 h -0.255588 l -0.03704,0.503767 -0.281517,0.01852 v 0.229659 h 0.266701 z"
       style="font-family:'Source Sans Pro';-inkscape-font-specification:'Source Sans Pro';stroke:none"
       id="path5279" />
    <path
       d="m 100.13373,24.505863 c 0.17039,0.140759 0.41487,0.24818 0.67046,0.24818 0.42598,0 0.65934,-0.244475 0.65934,-0.537105 0,-0.340783 -0.28893,-0.448204 -0.54822,-0.544513 -0.20373,-0.07779 -0.40005,-0.144462 -0.40005,-0.31115 0,-0.137054 0.10372,-0.259292 0.32967,-0.259292 0.15928,0 0.28893,0.06668 0.41117,0.159279 l 0.14446,-0.192616 c -0.13706,-0.111126 -0.33338,-0.20373 -0.55933,-0.20373 -0.38894,0 -0.6186,0.22225 -0.6186,0.511176 0,0.303742 0.28152,0.425979 0.53711,0.518583 0.19632,0.07408 0.41116,0.155576 0.41116,0.340784 0,0.155575 -0.11853,0.281517 -0.3556,0.281517 -0.21484,0 -0.37412,-0.0889 -0.5297,-0.214842 z"
       style="font-family:'Source Sans Pro';-inkscape-font-specification:'Source Sans Pro';stroke:none"
       id="path5281" />
    <path
       d="m 101.75246,23.813184 c 0,0.596371 0.36671,0.940859 0.84455,0.940859 0.21484,0 0.42227,-0.0889 0.58526,-0.233363 l -0.13706,-0.200025 c -0.10742,0.09631 -0.25188,0.181504 -0.42227,0.181504 -0.32967,0 -0.55563,-0.277812 -0.55563,-0.688975 0,-0.414867 0.23707,-0.696384 0.56304,-0.696384 0.14446,0 0.25558,0.06668 0.363,0.159279 l 0.15187,-0.196321 c -0.12223,-0.114829 -0.28892,-0.214842 -0.52599,-0.214842 -0.46302,0 -0.86677,0.344488 -0.86677,0.948268 z"
       style="font-family:'Source Sans Pro';-inkscape-font-specification:'Source Sans Pro';stroke:none"
       id="path5283" />
    <path
       d="m 103.36377,23.813184 c 0,0.588963 0.38153,0.940859 0.86307,0.940859 0.24448,0 0.43709,-0.0852 0.59267,-0.185209 l -0.10742,-0.200025 c -0.13335,0.0852 -0.27782,0.140759 -0.44821,0.140759 -0.34449,0 -0.57785,-0.244476 -0.60007,-0.633413 h 1.21496 c 0.007,-0.04445 0.0111,-0.103717 0.0111,-0.166688 0,-0.51488 -0.2593,-0.844551 -0.71861,-0.844551 -0.41117,0 -0.80751,0.359305 -0.80751,0.948268 z m 0.29633,-0.137055 c 0.037,-0.363008 0.2667,-0.570442 0.51859,-0.570442 0.28151,0 0.4445,0.20373 0.4445,0.570442 z m 0.92234,-1.611314 h -0.31485 l -0.33708,0.522288 h 0.23336 z"
       style="font-family:'Source Sans Pro';-inkscape-font-specification:'Source Sans Pro';stroke:none"
       id="path5285" />
    <path
       d="m 105.33439,24.709593 h 0.30374 v -1.303868 c 0.1815,-0.181504 0.30745,-0.277813 0.49265,-0.277813 0.23707,0 0.34079,0.144463 0.34079,0.481542 v 1.100139 h 0.30374 v -1.140885 c 0,-0.459317 -0.17039,-0.703792 -0.54822,-0.703792 -0.24818,0 -0.43339,0.13335 -0.60378,0.303742 h -0.0111 l -0.0259,-0.259292 h -0.25188 z"
       style="font-family:'Source Sans Pro';-inkscape-font-specification:'Source Sans Pro';stroke:none"
       id="path5287" />
    <path
       d="m 107.33464,24.050251 c 0,0.459317 0.17039,0.703792 0.55192,0.703792 0.24818,0 0.42598,-0.129646 0.59267,-0.325967 h 0.0111 l 0.0259,0.281517 h 0.25189 v -1.800227 h -0.30375 v 1.277939 c -0.17039,0.211138 -0.30003,0.303742 -0.48524,0.303742 -0.23707,0 -0.33708,-0.144463 -0.33708,-0.481542 v -1.100139 h -0.30745 z"
       style="font-family:'Source Sans Pro';-inkscape-font-specification:'Source Sans Pro';stroke:none"
       id="path5289" />
  </g>
  <g
     id="g1453"
     transform="matrix(0,0.00317741,-0.00323182,0,100.25517,16.835311)"
     style="fill:#6f8ce9;fill-opacity:1;stroke:none;stroke-width:82.566;stroke-opacity:1"
     inkscape:export-xdpi="96"
     inkscape:export-ydpi="96">
    <g
       id="g1451"
       style="fill:#6f8ce9;fill-opacity:1;stroke:none;stroke-width:82.566;stroke-opacity:1">
      <path
         id="path1449"
         d="M 486.413,221.412 122.347,12.916 C 69.409,-17.402 26.495,7.476 26.495,68.479 v 415.652 c 0,61.004 42.914,85.882 95.852,55.563 l 364.066,-208.49 c 52.938,-30.317 52.938,-79.473 0,-109.792 z"
         inkscape:connector-curvature="0"
         style="fill:#6f8ce9;fill-opacity:1;stroke:none;stroke-width:82.566;stroke-opacity:1" />
    </g>
  </g>
  <path
     sodipodi:nodetypes="cc"
     inkscape:connector-curvature="0"
     id="path1455"
     d="M 99.367149,16.961464 V 9.65235"
     style="fill:none;fill-opacity:1;stroke:#6f8ce9;stroke-width:0.264583;stroke-linecap:round;stroke-miterlimit:4;stroke-dasharray:none;stroke-opacity:1"
     inkscape:export-xdpi="96"
     inkscape:export-ydpi="96" />
</svg>
