<?xml version="1.0" encoding="UTF-8" standalone="no"?>
<svg
   width="147.10831mm"
   height="134.14374mm"
   version="1.1"
   viewBox="0 0 147.10831 134.14374"
   id="svg26281"
   sodipodi:docname="messaging_types.svg"
   inkscape:version="1.2.2 (732a01da63, 2022-12-09)"
   xmlns:inkscape="http://www.inkscape.org/namespaces/inkscape"
   xmlns:sodipodi="http://sodipodi.sourceforge.net/DTD/sodipodi-0.dtd"
   xmlns="http://www.w3.org/2000/svg"
   xmlns:svg="http://www.w3.org/2000/svg"
   xmlns:rdf="http://www.w3.org/1999/02/22-rdf-syntax-ns#"
   xmlns:cc="http://creativecommons.org/ns#"
   xmlns:dc="http://purl.org/dc/elements/1.1/">
  <defs
     id="defs26285" />
  <sodipodi:namedview
     id="namedview26283"
     pagecolor="#ffffff"
     bordercolor="#000000"
     borderopacity="0.25"
     inkscape:showpageshadow="2"
     inkscape:pageopacity="0.0"
     inkscape:pagecheckerboard="0"
     inkscape:deskcolor="#d1d1d1"
     inkscape:document-units="mm"
     showgrid="false"
     inkscape:zoom="0.58369322"
     inkscape:cx="304.0981"
     inkscape:cy="215.86682"
     inkscape:window-width="1366"
     inkscape:window-height="705"
     inkscape:window-x="1912"
     inkscape:window-y="77"
     inkscape:window-maximized="1"
     inkscape:current-layer="svg26281" />
  <metadata
     id="metadata25893">
    <rdf:RDF>
      <cc:Work
         rdf:about="">
        <dc:format>image/svg+xml</dc:format>
        <dc:type
           rdf:resource="http://purl.org/dc/dcmitype/StillImage" />
        <dc:title />
      </cc:Work>
    </rdf:RDF>
  </metadata>
  <rect
     style="fill:#1d232d;fill-opacity:1;stroke:#fbb227;stroke-width:0.264583;stroke-linecap:square;stroke-miterlimit:22;stroke-dasharray:none;stroke-dashoffset:0;stroke-opacity:1"
     id="rect7191"
     width="57.427963"
     height="10.583333"
     x="44.979076"
     y="2.7781246" />
  <path
     style="fill:none;fill-opacity:1;stroke:#fbb227;stroke-width:0.264583;stroke-linecap:square;stroke-miterlimit:22;stroke-dasharray:none;stroke-dashoffset:0;stroke-opacity:1"
     d="m 45.38927,2.7781253 h 56.60758"
     id="path7193"
     inkscape:connector-curvature="0" />
  <path
     inkscape:connector-curvature="0"
     id="path7195"
     d="m 45.38927,13.361458 h 56.60758"
     style="fill:none;fill-opacity:1;stroke:#fbb227;stroke-width:0.264583;stroke-linecap:square;stroke-miterlimit:22;stroke-dasharray:none;stroke-dashoffset:0;stroke-opacity:1" />
  <path
     id="path7189"
     style="fill:#1d232d;fill-opacity:1;stroke:#6f8ce9;stroke-width:0.264583;stroke-linecap:round;stroke-miterlimit:4;stroke-dasharray:none;stroke-opacity:1"
     d="M 0.1322915,0.1322915 H 45.111458 V 16.007291 H 0.1322915 Z"
     inkscape:connector-curvature="0"
     sodipodi:nodetypes="ccccc" />
  <g
     aria-label="Component"
     id="text7199"
     style="font-size:3.52777px;line-height:1.25;font-family:'Small Fonts';-inkscape-font-specification:'Small Fonts';text-align:center;text-anchor:middle;fill:#47d58a;stroke:#cf2f25;stroke-width:0.264583;stroke-linecap:round">
    <path
       d="m 14.042307,7.9710157 c 0,0.7549428 0.433916,1.1994418 1.015998,1.1994418 0.292805,0 0.52211,-0.123472 0.702026,-0.3351382 L 15.594526,8.6554031 c -0.148166,0.1658051 -0.310444,0.2575272 -0.529165,0.2575272 -0.440972,0 -0.719666,-0.3668881 -0.719666,-0.9489702 0,-0.5750265 0.292805,-0.934859 0.733777,-0.934859 0.190499,0 0.338666,0.084666 0.462138,0.2151939 L 15.707415,7.0573232 C 15.569832,6.9056291 15.35111,6.7715738 15.075944,6.7715738 c -0.592666,0 -1.033637,0.4550824 -1.033637,1.1994419 z"
       style="font-family:'Source Sans Pro';-inkscape-font-specification:'Source Sans Pro';stroke:none"
       id="path27856" />
    <path
       d="m 16.028442,8.2744039 c 0,0.567971 0.373943,0.8960536 0.793748,0.8960536 0.419805,0 0.793748,-0.3280826 0.793748,-0.8960536 0,-0.5750265 -0.373943,-0.9031091 -0.793748,-0.9031091 -0.419805,0 -0.793748,0.3280826 -0.793748,0.9031091 z m 0.29986,0 c 0,-0.3951103 0.201083,-0.6632208 0.493888,-0.6632208 0.296333,0 0.493888,0.2681105 0.493888,0.6632208 0,0.3915825 -0.197555,0.6561652 -0.493888,0.6561652 -0.292805,0 -0.493888,-0.2645827 -0.493888,-0.6561652 z"
       style="font-family:'Source Sans Pro';-inkscape-font-specification:'Source Sans Pro';stroke:none"
       id="path27858" />
    <path
       d="m 18.067492,9.1281242 h 0.289277 v -1.241775 c 0.15875,-0.1763885 0.303389,-0.2645828 0.430388,-0.2645828 0.218722,0 0.321027,0.1375831 0.321027,0.4586101 v 1.0477477 h 0.289278 v -1.241775 c 0.158749,-0.1763885 0.296332,-0.2645828 0.430388,-0.2645828 0.215194,0 0.317499,0.1375831 0.317499,0.4586101 v 1.0477477 h 0.289277 V 8.0415711 c 0,-0.4374435 -0.169333,-0.6702763 -0.52211,-0.6702763 -0.208138,0 -0.384527,0.1340552 -0.564443,0.3280826 -0.07056,-0.2046107 -0.211666,-0.3280826 -0.472721,-0.3280826 -0.204611,0 -0.384527,0.1269997 -0.532694,0.2892771 h -0.01058 L 18.307381,7.413628 h -0.239889 z"
       style="font-family:'Source Sans Pro';-inkscape-font-specification:'Source Sans Pro';stroke:none"
       id="path27860" />
    <path
       d="m 21.274237,8.9729024 c 0.158749,0.1234719 0.317499,0.1975551 0.476249,0.1975551 0.391582,0 0.740831,-0.3421937 0.740831,-0.9242758 0,-0.5326932 -0.23636,-0.8748869 -0.677331,-0.8748869 -0.201083,0 -0.391583,0.1093608 -0.546805,0.2398883 h -0.01058 L 21.231904,7.413628 h -0.239889 v 2.4376891 h 0.289277 V 9.2727628 Z m 0.0071,-0.2257773 V 7.8475437 c 0.169333,-0.1516941 0.313972,-0.2328328 0.45861,-0.2328328 0.324555,0 0.451555,0.2539994 0.451555,0.6314708 0,0.4233324 -0.208138,0.6808596 -0.49036,0.6808596 -0.112889,0 -0.264583,-0.049389 -0.419805,-0.1799162 z"
       style="font-family:'Source Sans Pro';-inkscape-font-specification:'Source Sans Pro';stroke:none"
       id="path27862" />
    <path
       d="m 22.822929,8.2744039 c 0,0.567971 0.373944,0.8960536 0.793749,0.8960536 0.419804,0 0.793748,-0.3280826 0.793748,-0.8960536 0,-0.5750265 -0.373944,-0.9031091 -0.793748,-0.9031091 -0.419805,0 -0.793749,0.3280826 -0.793749,0.9031091 z m 0.299861,0 c 0,-0.3951103 0.201083,-0.6632208 0.493888,-0.6632208 0.296332,0 0.493887,0.2681105 0.493887,0.6632208 0,0.3915825 -0.197555,0.6561652 -0.493887,0.6561652 -0.292805,0 -0.493888,-0.2645827 -0.493888,-0.6561652 z"
       style="font-family:'Source Sans Pro';-inkscape-font-specification:'Source Sans Pro';stroke:none"
       id="path27864" />
    <path
       d="m 24.861979,9.1281242 h 0.289277 v -1.241775 c 0.172861,-0.1728607 0.292805,-0.2645828 0.469194,-0.2645828 0.225777,0 0.324555,0.1375831 0.324555,0.4586101 v 1.0477477 h 0.289277 V 8.0415711 c 0,-0.4374435 -0.162278,-0.6702763 -0.52211,-0.6702763 -0.236361,0 -0.412749,0.1269997 -0.575027,0.2892771 h -0.01058 L 25.101868,7.413628 h -0.239889 z"
       style="font-family:'Source Sans Pro';-inkscape-font-specification:'Source Sans Pro';stroke:none"
       id="path27866" />
    <path
       d="m 26.664673,8.2744039 c 0,0.5609154 0.36336,0.8960536 0.82197,0.8960536 0.232833,0 0.416277,-0.081139 0.564443,-0.1763885 L 27.948781,8.8035694 c -0.127,0.081139 -0.264583,0.1340553 -0.42686,0.1340553 -0.328083,0 -0.550332,-0.2328329 -0.571499,-0.6032487 h 1.157109 c 0.0071,-0.042333 0.01058,-0.098778 0.01058,-0.1587497 0,-0.49036 -0.246944,-0.8043315 -0.684387,-0.8043315 -0.391583,0 -0.769054,0.3421937 -0.769054,0.9031091 z m 0.282221,-0.1305275 c 0.03528,-0.3457215 0.254,-0.5432766 0.493888,-0.5432766 0.268111,0 0.423333,0.1940274 0.423333,0.5432766 z"
       style="font-family:'Source Sans Pro';-inkscape-font-specification:'Source Sans Pro';stroke:none"
       id="path27868" />
    <path
       d="m 28.541447,9.1281242 h 0.289278 v -1.241775 c 0.17286,-0.1728607 0.292805,-0.2645828 0.469193,-0.2645828 0.225777,0 0.324555,0.1375831 0.324555,0.4586101 V 9.1281242 H 29.91375 V 8.0415711 c 0,-0.4374435 -0.162277,-0.6702763 -0.52211,-0.6702763 -0.236361,0 -0.412749,0.1269997 -0.575026,0.2892771 H 28.80603 L 28.781336,7.413628 h -0.239889 z"
       style="font-family:'Source Sans Pro';-inkscape-font-specification:'Source Sans Pro';stroke:none"
       id="path27870" />
    <path
       d="m 30.52053,8.5989587 c 0,0.338666 0.123472,0.5714988 0.49036,0.5714988 0.105834,0 0.22225,-0.03175 0.3175,-0.0635 l -0.05645,-0.2187217 c -0.05644,0.021167 -0.134055,0.045861 -0.194027,0.045861 -0.197555,0 -0.264583,-0.1199442 -0.264583,-0.3316104 V 7.6499886 h 0.462138 V 7.413628 H 30.813335 V 6.9338513 h -0.243416 l -0.03528,0.4797767 -0.26811,0.017639 v 0.2187218 h 0.253999 z"
       style="font-family:'Source Sans Pro';-inkscape-font-specification:'Source Sans Pro';stroke:none"
       id="path27872" />
  </g>
  <path
     id="path7201"
     style="fill:#1d232d;fill-opacity:1;stroke:#ff867f;stroke-width:0.264583;stroke-linecap:round;stroke-miterlimit:22;stroke-dasharray:none;stroke-opacity:1"
     d="m 63.376227,3.8364583 -1.066879,0.955913 v 6.1451617 l 1.066879,0.955913 h 8.449601 l 1.066853,-0.955913 V 4.7923713 l -1.066853,-0.955913 z"
     inkscape:connector-curvature="0"
     sodipodi:nodetypes="ccccccccc" />
  <path
     inkscape:connector-curvature="0"
     d="m 63.401812,3.8364583 -1.092464,0.955913 4.779565,2.759456 h 1.024202 l 4.779566,-2.759456 -1.092465,-0.955913 z"
     style="fill:#ff867f;fill-opacity:1;stroke:none;stroke-width:0.264583;stroke-linecap:square;stroke-miterlimit:22;stroke-dasharray:none;stroke-opacity:1"
     id="path7203" />
  <g
     style="fill:#6f8ce9;fill-opacity:1;stroke-width:123.849"
     transform="matrix(-0.00211827,-0.00366895,0.00373178,-0.00215454,73.732627,9.5529553)"
     id="g7209">
    <g
       style="fill:#6f8ce9;fill-opacity:1;stroke-width:123.849"
       id="g7207">
      <path
         style="fill:#6f8ce9;fill-opacity:1;stroke-width:123.849"
         inkscape:connector-curvature="0"
         d="M 486.413,221.412 122.347,12.916 C 69.409,-17.402 26.495,7.476 26.495,68.479 v 415.652 c 0,61.004 42.914,85.882 95.852,55.563 l 364.066,-208.49 c 52.938,-30.317 52.938,-79.473 0,-109.792 z"
         id="path7205" />
    </g>
  </g>
  <rect
     style="fill:#1d232d;fill-opacity:1;stroke:#fbb227;stroke-width:0.264581;stroke-linecap:round;stroke-miterlimit:4;stroke-dasharray:none;stroke-opacity:1"
     id="rect7217"
     width="19.84375"
     height="48.947918"
     x="63.632263"
     y="25.26771" />
  <path
     id="path7219"
     style="fill:#1d232d;fill-opacity:1;stroke:#6f8ce9;stroke-width:0.264583;stroke-linecap:round;stroke-miterlimit:4;stroke-dasharray:none;stroke-opacity:1"
     d="M 0.1322915,23.944791 H 45.111458 v 15.875 H 0.1322915 Z"
     inkscape:connector-curvature="0"
     sodipodi:nodetypes="ccccc" />
  <rect
     style="fill:#1d232d;fill-opacity:1;stroke:none;stroke-width:0.264583;stroke-linecap:square;stroke-miterlimit:22;stroke-dasharray:none;stroke-dashoffset:0;stroke-opacity:1"
     id="rect7221"
     width="18.520834"
     height="10.583333"
     x="45.243725"
     y="26.590624" />
  <path
     style="fill:none;fill-opacity:1;stroke:#fbb227;stroke-width:0.264583;stroke-linecap:square;stroke-miterlimit:22;stroke-dasharray:none;stroke-dashoffset:0;stroke-opacity:1"
     d="m 45.376014,26.590624 h 18.25625"
     id="path7223"
     inkscape:connector-curvature="0" />
  <path
     inkscape:connector-curvature="0"
     id="path7225"
     d="m 45.376014,37.173957 h 18.25625"
     style="fill:none;fill-opacity:1;stroke:#fbb227;stroke-width:0.264583;stroke-linecap:square;stroke-miterlimit:22;stroke-dasharray:none;stroke-dashoffset:0;stroke-opacity:1" />
  <g
     aria-label="Component"
     id="text7229"
     style="font-size:3.52777px;line-height:1.25;font-family:'Small Fonts';-inkscape-font-specification:'Small Fonts';text-align:center;text-anchor:middle;fill:#47d58a;stroke:#cf2f25;stroke-width:0.264583;stroke-linecap:round">
    <path
       d="m 14.042307,31.783516 c 0,0.754942 0.433916,1.199441 1.015998,1.199441 0.292805,0 0.52211,-0.123471 0.702026,-0.335138 l -0.165805,-0.179916 c -0.148166,0.165805 -0.310444,0.257527 -0.529165,0.257527 -0.440972,0 -0.719666,-0.366888 -0.719666,-0.94897 0,-0.575026 0.292805,-0.934859 0.733777,-0.934859 0.190499,0 0.338666,0.08467 0.462138,0.215194 l 0.165805,-0.186972 c -0.137583,-0.151694 -0.356305,-0.285749 -0.631471,-0.285749 -0.592666,0 -1.033637,0.455082 -1.033637,1.199442 z"
       style="font-family:'Source Sans Pro';-inkscape-font-specification:'Source Sans Pro';stroke:none"
       id="path27875" />
    <path
       d="m 16.028442,32.086904 c 0,0.567971 0.373943,0.896053 0.793748,0.896053 0.419805,0 0.793748,-0.328082 0.793748,-0.896053 0,-0.575027 -0.373943,-0.903109 -0.793748,-0.903109 -0.419805,0 -0.793748,0.328082 -0.793748,0.903109 z m 0.29986,0 c 0,-0.39511 0.201083,-0.663221 0.493888,-0.663221 0.296333,0 0.493888,0.268111 0.493888,0.663221 0,0.391582 -0.197555,0.656165 -0.493888,0.656165 -0.292805,0 -0.493888,-0.264583 -0.493888,-0.656165 z"
       style="font-family:'Source Sans Pro';-inkscape-font-specification:'Source Sans Pro';stroke:none"
       id="path27877" />
    <path
       d="m 18.067492,32.940624 h 0.289277 v -1.241775 c 0.15875,-0.176388 0.303389,-0.264583 0.430388,-0.264583 0.218722,0 0.321027,0.137583 0.321027,0.458611 v 1.047747 h 0.289278 v -1.241775 c 0.158749,-0.176388 0.296332,-0.264583 0.430388,-0.264583 0.215194,0 0.317499,0.137583 0.317499,0.458611 v 1.047747 h 0.289277 v -1.086553 c 0,-0.437443 -0.169333,-0.670276 -0.52211,-0.670276 -0.208138,0 -0.384527,0.134055 -0.564443,0.328082 -0.07056,-0.20461 -0.211666,-0.328082 -0.472721,-0.328082 -0.204611,0 -0.384527,0.126999 -0.532694,0.289277 h -0.01058 l -0.02469,-0.246944 h -0.239889 z"
       style="font-family:'Source Sans Pro';-inkscape-font-specification:'Source Sans Pro';stroke:none"
       id="path27879" />
    <path
       d="m 21.274237,32.785402 c 0.158749,0.123472 0.317499,0.197555 0.476249,0.197555 0.391582,0 0.740831,-0.342193 0.740831,-0.924275 0,-0.532694 -0.23636,-0.874887 -0.677331,-0.874887 -0.201083,0 -0.391583,0.109361 -0.546805,0.239888 h -0.01058 l -0.02469,-0.197555 h -0.239889 v 2.437689 h 0.289277 v -0.578554 z m 0.0071,-0.225777 v -0.899581 c 0.169333,-0.151694 0.313972,-0.232833 0.45861,-0.232833 0.324555,0 0.451555,0.253999 0.451555,0.631471 0,0.423332 -0.208138,0.680859 -0.49036,0.680859 -0.112889,0 -0.264583,-0.04939 -0.419805,-0.179916 z"
       style="font-family:'Source Sans Pro';-inkscape-font-specification:'Source Sans Pro';stroke:none"
       id="path27881" />
    <path
       d="m 22.822929,32.086904 c 0,0.567971 0.373944,0.896053 0.793749,0.896053 0.419804,0 0.793748,-0.328082 0.793748,-0.896053 0,-0.575027 -0.373944,-0.903109 -0.793748,-0.903109 -0.419805,0 -0.793749,0.328082 -0.793749,0.903109 z m 0.299861,0 c 0,-0.39511 0.201083,-0.663221 0.493888,-0.663221 0.296332,0 0.493887,0.268111 0.493887,0.663221 0,0.391582 -0.197555,0.656165 -0.493887,0.656165 -0.292805,0 -0.493888,-0.264583 -0.493888,-0.656165 z"
       style="font-family:'Source Sans Pro';-inkscape-font-specification:'Source Sans Pro';stroke:none"
       id="path27883" />
    <path
       d="m 24.861979,32.940624 h 0.289277 v -1.241775 c 0.172861,-0.172861 0.292805,-0.264583 0.469194,-0.264583 0.225777,0 0.324555,0.137583 0.324555,0.458611 v 1.047747 h 0.289277 v -1.086553 c 0,-0.437443 -0.162278,-0.670276 -0.52211,-0.670276 -0.236361,0 -0.412749,0.126999 -0.575027,0.289277 h -0.01058 l -0.02469,-0.246944 h -0.239889 z"
       style="font-family:'Source Sans Pro';-inkscape-font-specification:'Source Sans Pro';stroke:none"
       id="path27885" />
    <path
       d="m 26.664673,32.086904 c 0,0.560915 0.36336,0.896053 0.82197,0.896053 0.232833,0 0.416277,-0.08114 0.564443,-0.176388 l -0.102305,-0.1905 c -0.127,0.08114 -0.264583,0.134056 -0.42686,0.134056 -0.328083,0 -0.550332,-0.232833 -0.571499,-0.603249 h 1.157109 c 0.0071,-0.04233 0.01058,-0.09878 0.01058,-0.15875 0,-0.49036 -0.246944,-0.804331 -0.684387,-0.804331 -0.391583,0 -0.769054,0.342193 -0.769054,0.903109 z m 0.282221,-0.130528 c 0.03528,-0.345721 0.254,-0.543276 0.493888,-0.543276 0.268111,0 0.423333,0.194027 0.423333,0.543276 z"
       style="font-family:'Source Sans Pro';-inkscape-font-specification:'Source Sans Pro';stroke:none"
       id="path27887" />
    <path
       d="m 28.541447,32.940624 h 0.289278 v -1.241775 c 0.17286,-0.172861 0.292805,-0.264583 0.469193,-0.264583 0.225777,0 0.324555,0.137583 0.324555,0.458611 v 1.047747 h 0.289277 v -1.086553 c 0,-0.437443 -0.162277,-0.670276 -0.52211,-0.670276 -0.236361,0 -0.412749,0.126999 -0.575026,0.289277 h -0.01058 l -0.02469,-0.246944 h -0.239889 z"
       style="font-family:'Source Sans Pro';-inkscape-font-specification:'Source Sans Pro';stroke:none"
       id="path27889" />
    <path
       d="m 30.52053,32.411459 c 0,0.338666 0.123472,0.571498 0.49036,0.571498 0.105834,0 0.22225,-0.03175 0.3175,-0.0635 l -0.05645,-0.218722 c -0.05644,0.02117 -0.134055,0.04586 -0.194027,0.04586 -0.197555,0 -0.264583,-0.119944 -0.264583,-0.33161 v -0.952498 h 0.462138 v -0.236361 h -0.462138 v -0.479777 h -0.243416 l -0.03528,0.479777 -0.26811,0.01764 v 0.218722 h 0.253999 z"
       style="font-family:'Source Sans Pro';-inkscape-font-specification:'Source Sans Pro';stroke:none"
       id="path27891" />
  </g>
  <path
     sodipodi:nodetypes="ccccc"
     inkscape:connector-curvature="0"
     d="m 146.97602,59.928124 h -44.97917 v 15.875 h 44.97917 z"
     style="fill:#1d232d;fill-opacity:1;stroke:#6f8ce9;stroke-width:0.264583;stroke-linecap:round;stroke-miterlimit:4;stroke-dasharray:none;stroke-opacity:1"
     id="path7255" />
  <rect
     y="62.573959"
     x="-101.86456"
     height="10.583333"
     width="18.520834"
     id="rect7257"
     style="fill:#1d232d;fill-opacity:1;stroke:#2f3744;stroke-width:0.264583;stroke-linecap:square;stroke-miterlimit:22;stroke-dasharray:none;stroke-dashoffset:0;stroke-opacity:1"
     transform="scale(-1,1)" />
  <path
     inkscape:connector-curvature="0"
     id="path7259"
     d="M 101.73229,62.573957 H 83.47604"
     style="fill:none;fill-opacity:1;stroke:#fbb227;stroke-width:0.264583;stroke-linecap:square;stroke-miterlimit:22;stroke-dasharray:none;stroke-dashoffset:0;stroke-opacity:1" />
  <path
     style="fill:none;fill-opacity:1;stroke:#fbb227;stroke-width:0.264583;stroke-linecap:square;stroke-miterlimit:22;stroke-dasharray:none;stroke-dashoffset:0;stroke-opacity:1"
     d="M 101.73229,73.15729 H 83.47604"
     id="path7265"
     inkscape:connector-curvature="0" />
  <g
     aria-label="Component"
     id="text7269"
     style="font-size:3.52777px;line-height:1.25;font-family:'Small Fonts';-inkscape-font-specification:'Small Fonts';text-align:center;text-anchor:middle;fill:#ff867f;stroke:#cf2f25;stroke-width:0.264583;stroke-linecap:round">
    <path
       d="m 115.77951,67.766849 c 0,0.754943 0.43391,1.199442 1.01599,1.199442 0.29281,0 0.52211,-0.123472 0.70203,-0.335138 l -0.1658,-0.179916 c -0.14817,0.165805 -0.31045,0.257527 -0.52917,0.257527 -0.44097,0 -0.71966,-0.366888 -0.71966,-0.94897 0,-0.575027 0.2928,-0.934859 0.73377,-0.934859 0.1905,0 0.33867,0.08467 0.46214,0.215194 l 0.1658,-0.186972 c -0.13758,-0.151694 -0.3563,-0.28575 -0.63147,-0.28575 -0.59266,0 -1.03363,0.455083 -1.03363,1.199442 z"
       style="font-family:'Source Sans Pro';-inkscape-font-specification:'Source Sans Pro';stroke:none"
       id="path27894" />
    <path
       d="m 117.76564,68.070237 c 0,0.567971 0.37395,0.896054 0.79375,0.896054 0.4198,0 0.79375,-0.328083 0.79375,-0.896054 0,-0.575026 -0.37395,-0.903109 -0.79375,-0.903109 -0.4198,0 -0.79375,0.328083 -0.79375,0.903109 z m 0.29986,0 c 0,-0.39511 0.20108,-0.66322 0.49389,-0.66322 0.29633,0 0.49389,0.26811 0.49389,0.66322 0,0.391583 -0.19756,0.656166 -0.49389,0.656166 -0.29281,0 -0.49389,-0.264583 -0.49389,-0.656166 z"
       style="font-family:'Source Sans Pro';-inkscape-font-specification:'Source Sans Pro';stroke:none"
       id="path27896" />
    <path
       d="m 119.80469,68.923958 h 0.28928 v -1.241775 c 0.15875,-0.176389 0.30339,-0.264583 0.43039,-0.264583 0.21872,0 0.32102,0.137583 0.32102,0.45861 v 1.047748 h 0.28928 v -1.241775 c 0.15875,-0.176389 0.29633,-0.264583 0.43039,-0.264583 0.21519,0 0.3175,0.137583 0.3175,0.45861 v 1.047748 h 0.28928 v -1.086553 c 0,-0.437444 -0.16934,-0.670277 -0.52211,-0.670277 -0.20814,0 -0.38453,0.134056 -0.56445,0.328083 -0.0705,-0.204611 -0.21166,-0.328083 -0.47272,-0.328083 -0.20461,0 -0.38453,0.127 -0.53269,0.289277 h -0.0106 l -0.0247,-0.246943 h -0.23989 z"
       style="font-family:'Source Sans Pro';-inkscape-font-specification:'Source Sans Pro';stroke:none"
       id="path27898" />
    <path
       d="m 123.01144,68.768736 c 0.15875,0.123472 0.3175,0.197555 0.47625,0.197555 0.39158,0 0.74083,-0.342194 0.74083,-0.924276 0,-0.532693 -0.23636,-0.874887 -0.67733,-0.874887 -0.20109,0 -0.39159,0.109361 -0.54681,0.239889 h -0.0106 l -0.0247,-0.197555 h -0.23989 v 2.437689 h 0.28928 v -0.578555 z m 0.007,-0.225777 v -0.899582 c 0.16934,-0.151694 0.31397,-0.232833 0.45861,-0.232833 0.32456,0 0.45156,0.254 0.45156,0.631471 0,0.423333 -0.20814,0.68086 -0.49036,0.68086 -0.11289,0 -0.26459,-0.04939 -0.41981,-0.179916 z"
       style="font-family:'Source Sans Pro';-inkscape-font-specification:'Source Sans Pro';stroke:none"
       id="path27900" />
    <path
       d="m 124.56013,68.070237 c 0,0.567971 0.37394,0.896054 0.79375,0.896054 0.4198,0 0.79375,-0.328083 0.79375,-0.896054 0,-0.575026 -0.37395,-0.903109 -0.79375,-0.903109 -0.41981,0 -0.79375,0.328083 -0.79375,0.903109 z m 0.29986,0 c 0,-0.39511 0.20108,-0.66322 0.49389,-0.66322 0.29633,0 0.49389,0.26811 0.49389,0.66322 0,0.391583 -0.19756,0.656166 -0.49389,0.656166 -0.29281,0 -0.49389,-0.264583 -0.49389,-0.656166 z"
       style="font-family:'Source Sans Pro';-inkscape-font-specification:'Source Sans Pro';stroke:none"
       id="path27902" />
    <path
       d="m 126.59918,68.923958 h 0.28928 v -1.241775 c 0.17286,-0.172861 0.2928,-0.264583 0.46919,-0.264583 0.22578,0 0.32455,0.137583 0.32455,0.45861 v 1.047748 h 0.28928 v -1.086553 c 0,-0.437444 -0.16228,-0.670277 -0.52211,-0.670277 -0.23636,0 -0.41275,0.127 -0.57502,0.289277 h -0.0106 l -0.0247,-0.246943 h -0.23989 z"
       style="font-family:'Source Sans Pro';-inkscape-font-specification:'Source Sans Pro';stroke:none"
       id="path27904" />
    <path
       d="m 128.40187,68.070237 c 0,0.560916 0.36336,0.896054 0.82197,0.896054 0.23284,0 0.41628,-0.08114 0.56445,-0.176388 l -0.10231,-0.1905 c -0.127,0.08114 -0.26458,0.134055 -0.42686,0.134055 -0.32808,0 -0.55033,-0.232833 -0.5715,-0.603248 h 1.15711 c 0.007,-0.04233 0.0106,-0.09878 0.0106,-0.15875 0,-0.49036 -0.24694,-0.804332 -0.68438,-0.804332 -0.39159,0 -0.76906,0.342194 -0.76906,0.903109 z m 0.28222,-0.130527 c 0.0353,-0.345721 0.254,-0.543277 0.49389,-0.543277 0.26811,0 0.42333,0.194028 0.42333,0.543277 z"
       style="font-family:'Source Sans Pro';-inkscape-font-specification:'Source Sans Pro';stroke:none"
       id="path27906" />
    <path
       d="m 130.27865,68.923958 h 0.28927 v -1.241775 c 0.17287,-0.172861 0.29281,-0.264583 0.4692,-0.264583 0.22578,0 0.32455,0.137583 0.32455,0.45861 v 1.047748 h 0.28928 v -1.086553 c 0,-0.437444 -0.16228,-0.670277 -0.52211,-0.670277 -0.23636,0 -0.41275,0.127 -0.57503,0.289277 h -0.0106 l -0.0247,-0.246943 h -0.23989 z"
       style="font-family:'Source Sans Pro';-inkscape-font-specification:'Source Sans Pro';stroke:none"
       id="path27908" />
    <path
       d="m 132.25773,68.394792 c 0,0.338666 0.12347,0.571499 0.49036,0.571499 0.10583,0 0.22225,-0.03175 0.3175,-0.0635 l -0.0564,-0.218722 c -0.0565,0.02117 -0.13406,0.04586 -0.19403,0.04586 -0.19756,0 -0.26458,-0.119944 -0.26458,-0.33161 v -0.952498 h 0.46213 v -0.23636 h -0.46213 v -0.479777 h -0.24342 l -0.0353,0.479777 -0.26811,0.01764 v 0.218722 h 0.254 z"
       style="font-family:'Source Sans Pro';-inkscape-font-specification:'Source Sans Pro';stroke:none"
       id="path27910" />
  </g>
  <path
     id="path7271"
     style="fill:#1d232d;fill-opacity:1;stroke:#6f8ce9;stroke-width:0.264583;stroke-linecap:round;stroke-miterlimit:4;stroke-dasharray:none;stroke-opacity:1"
     d="M 146.97602,0.1322915 H 101.99685 V 16.007291 h 44.97917 z"
     inkscape:connector-curvature="0"
     sodipodi:nodetypes="ccccc" />
  <rect
     transform="scale(-1,1)"
     style="fill:#1d232d;fill-opacity:1;stroke:#2f3744;stroke-width:0.264583;stroke-linecap:square;stroke-miterlimit:22;stroke-dasharray:none;stroke-dashoffset:0;stroke-opacity:1"
     id="rect7273"
     width="18.520834"
     height="10.583333"
     x="-101.86456"
     y="26.590624" />
  <path
     style="fill:none;fill-opacity:1;stroke:#fbb227;stroke-width:0.264583;stroke-linecap:square;stroke-miterlimit:22;stroke-dasharray:none;stroke-dashoffset:0;stroke-opacity:1"
     d="M 101.73229,26.590624 H 83.47604"
     id="path7275"
     inkscape:connector-curvature="0" />
  <path
     inkscape:connector-curvature="0"
     id="path7277"
     d="M 101.73229,37.173957 H 83.47604"
     style="fill:none;fill-opacity:1;stroke:#fbb227;stroke-width:0.264583;stroke-linecap:square;stroke-miterlimit:22;stroke-dasharray:none;stroke-dashoffset:0;stroke-opacity:1" />
  <g
     aria-label="Component"
     id="text7281"
     style="font-size:3.52777px;line-height:1.25;font-family:'Small Fonts';-inkscape-font-specification:'Small Fonts';text-align:center;text-anchor:middle;fill:#ff867f;stroke:#cf2f25;stroke-width:0.264583;stroke-linecap:round">
    <path
       d="m 115.77951,7.9710157 c 0,0.7549428 0.43391,1.1994418 1.01599,1.1994418 0.29281,0 0.52211,-0.123472 0.70203,-0.3351382 l -0.1658,-0.1799162 c -0.14817,0.1658051 -0.31045,0.2575272 -0.52917,0.2575272 -0.44097,0 -0.71966,-0.3668881 -0.71966,-0.9489702 0,-0.5750265 0.2928,-0.934859 0.73377,-0.934859 0.1905,0 0.33867,0.084666 0.46214,0.2151939 l 0.1658,-0.1869718 c -0.13758,-0.1516941 -0.3563,-0.2857494 -0.63147,-0.2857494 -0.59266,0 -1.03363,0.4550824 -1.03363,1.1994419 z"
       style="font-family:'Source Sans Pro';-inkscape-font-specification:'Source Sans Pro';stroke:none"
       id="path27913" />
    <path
       d="m 117.76564,8.2744039 c 0,0.567971 0.37395,0.8960536 0.79375,0.8960536 0.4198,0 0.79375,-0.3280826 0.79375,-0.8960536 0,-0.5750265 -0.37395,-0.9031091 -0.79375,-0.9031091 -0.4198,0 -0.79375,0.3280826 -0.79375,0.9031091 z m 0.29986,0 c 0,-0.3951103 0.20108,-0.6632208 0.49389,-0.6632208 0.29633,0 0.49389,0.2681105 0.49389,0.6632208 0,0.3915825 -0.19756,0.6561652 -0.49389,0.6561652 -0.29281,0 -0.49389,-0.2645827 -0.49389,-0.6561652 z"
       style="font-family:'Source Sans Pro';-inkscape-font-specification:'Source Sans Pro';stroke:none"
       id="path27915" />
    <path
       d="m 119.80469,9.1281242 h 0.28928 v -1.241775 c 0.15875,-0.1763885 0.30339,-0.2645828 0.43039,-0.2645828 0.21872,0 0.32102,0.1375831 0.32102,0.4586101 v 1.0477477 h 0.28928 v -1.241775 c 0.15875,-0.1763885 0.29633,-0.2645828 0.43039,-0.2645828 0.21519,0 0.3175,0.1375831 0.3175,0.4586101 v 1.0477477 h 0.28928 V 8.0415711 c 0,-0.4374435 -0.16934,-0.6702763 -0.52211,-0.6702763 -0.20814,0 -0.38453,0.1340552 -0.56445,0.3280826 -0.0705,-0.2046107 -0.21166,-0.3280826 -0.47272,-0.3280826 -0.20461,0 -0.38453,0.1269997 -0.53269,0.2892771 h -0.0106 l -0.0247,-0.2469439 h -0.23989 z"
       style="font-family:'Source Sans Pro';-inkscape-font-specification:'Source Sans Pro';stroke:none"
       id="path27917" />
    <path
       d="m 123.01144,8.9729024 c 0.15875,0.1234719 0.3175,0.1975551 0.47625,0.1975551 0.39158,0 0.74083,-0.3421937 0.74083,-0.9242758 0,-0.5326932 -0.23636,-0.8748869 -0.67733,-0.8748869 -0.20109,0 -0.39159,0.1093608 -0.54681,0.2398883 h -0.0106 L 122.9691,7.413628 h -0.23989 v 2.4376891 h 0.28928 V 9.2727628 Z m 0.007,-0.2257773 V 7.8475437 c 0.16934,-0.1516941 0.31397,-0.2328328 0.45861,-0.2328328 0.32456,0 0.45156,0.2539994 0.45156,0.6314708 0,0.4233324 -0.20814,0.6808596 -0.49036,0.6808596 -0.11289,0 -0.26459,-0.049389 -0.41981,-0.1799162 z"
       style="font-family:'Source Sans Pro';-inkscape-font-specification:'Source Sans Pro';stroke:none"
       id="path27919" />
    <path
       d="m 124.56013,8.2744039 c 0,0.567971 0.37394,0.8960536 0.79375,0.8960536 0.4198,0 0.79375,-0.3280826 0.79375,-0.8960536 0,-0.5750265 -0.37395,-0.9031091 -0.79375,-0.9031091 -0.41981,0 -0.79375,0.3280826 -0.79375,0.9031091 z m 0.29986,0 c 0,-0.3951103 0.20108,-0.6632208 0.49389,-0.6632208 0.29633,0 0.49389,0.2681105 0.49389,0.6632208 0,0.3915825 -0.19756,0.6561652 -0.49389,0.6561652 -0.29281,0 -0.49389,-0.2645827 -0.49389,-0.6561652 z"
       style="font-family:'Source Sans Pro';-inkscape-font-specification:'Source Sans Pro';stroke:none"
       id="path27921" />
    <path
       d="m 126.59918,9.1281242 h 0.28928 v -1.241775 c 0.17286,-0.1728607 0.2928,-0.2645828 0.46919,-0.2645828 0.22578,0 0.32455,0.1375831 0.32455,0.4586101 v 1.0477477 h 0.28928 V 8.0415711 c 0,-0.4374435 -0.16228,-0.6702763 -0.52211,-0.6702763 -0.23636,0 -0.41275,0.1269997 -0.57502,0.2892771 h -0.0106 l -0.0247,-0.2469439 h -0.23989 z"
       style="font-family:'Source Sans Pro';-inkscape-font-specification:'Source Sans Pro';stroke:none"
       id="path27923" />
    <path
       d="m 128.40187,8.2744039 c 0,0.5609154 0.36336,0.8960536 0.82197,0.8960536 0.23284,0 0.41628,-0.081139 0.56445,-0.1763885 l -0.10231,-0.1904996 c -0.127,0.081139 -0.26458,0.1340553 -0.42686,0.1340553 -0.32808,0 -0.55033,-0.2328329 -0.5715,-0.6032487 h 1.15711 c 0.007,-0.042333 0.0106,-0.098778 0.0106,-0.1587497 0,-0.49036 -0.24694,-0.8043315 -0.68438,-0.8043315 -0.39159,0 -0.76906,0.3421937 -0.76906,0.9031091 z m 0.28222,-0.1305275 c 0.0353,-0.3457215 0.254,-0.5432766 0.49389,-0.5432766 0.26811,0 0.42333,0.1940274 0.42333,0.5432766 z"
       style="font-family:'Source Sans Pro';-inkscape-font-specification:'Source Sans Pro';stroke:none"
       id="path27925" />
    <path
       d="m 130.27865,9.1281242 h 0.28927 v -1.241775 c 0.17287,-0.1728607 0.29281,-0.2645828 0.4692,-0.2645828 0.22578,0 0.32455,0.1375831 0.32455,0.4586101 v 1.0477477 h 0.28928 V 8.0415711 c 0,-0.4374435 -0.16228,-0.6702763 -0.52211,-0.6702763 -0.23636,0 -0.41275,0.1269997 -0.57503,0.2892771 h -0.0106 l -0.0247,-0.2469439 h -0.23989 z"
       style="font-family:'Source Sans Pro';-inkscape-font-specification:'Source Sans Pro';stroke:none"
       id="path27927" />
    <path
       d="m 132.25773,8.5989587 c 0,0.338666 0.12347,0.5714988 0.49036,0.5714988 0.10583,0 0.22225,-0.03175 0.3175,-0.0635 l -0.0564,-0.2187217 c -0.0565,0.021167 -0.13406,0.045861 -0.19403,0.045861 -0.19756,0 -0.26458,-0.1199442 -0.26458,-0.3316104 V 7.6499886 h 0.46213 V 7.413628 h -0.46213 V 6.9338513 h -0.24342 l -0.0353,0.4797767 -0.26811,0.017639 v 0.2187218 h 0.254 z"
       style="font-family:'Source Sans Pro';-inkscape-font-specification:'Source Sans Pro';stroke:none"
       id="path27929" />
  </g>
  <path
     id="path7311"
     style="fill:#1d232d;fill-opacity:1;stroke:#ff867f;stroke-width:0.264583;stroke-linecap:round;stroke-miterlimit:22;stroke-dasharray:none;stroke-opacity:1"
     d="m 50.14706,27.648958 -1.066879,0.955913 v 6.145162 l 1.066879,0.955913 h 8.449601 l 1.066853,-0.955913 v -6.145162 l -1.066853,-0.955913 z"
     inkscape:connector-curvature="0"
     sodipodi:nodetypes="ccccccccc" />
  <path
     inkscape:connector-curvature="0"
     d="m 50.172646,27.648958 -1.092465,0.955913 4.779566,2.759456 h 1.024202 l 4.779565,-2.759456 -1.092464,-0.955913 z"
     style="fill:#ff867f;fill-opacity:1;stroke:none;stroke-width:0.264583;stroke-linecap:square;stroke-miterlimit:22;stroke-dasharray:none;stroke-opacity:1"
     id="path7313" />
  <g
     style="fill:#6f8ce9;fill-opacity:1;stroke-width:123.849"
     transform="matrix(-0.00211827,-0.00366895,0.00373178,-0.00215454,60.503461,33.365455)"
     id="g7319">
    <g
       style="fill:#6f8ce9;fill-opacity:1;stroke-width:123.849"
       id="g7317">
      <path
         style="fill:#6f8ce9;fill-opacity:1;stroke-width:123.849"
         inkscape:connector-curvature="0"
         d="M 486.413,221.412 122.347,12.916 C 69.409,-17.402 26.495,7.476 26.495,68.479 v 415.652 c 0,61.004 42.914,85.882 95.852,55.563 l 364.066,-208.49 c 52.938,-30.317 52.938,-79.473 0,-109.792 z"
         id="path7315" />
    </g>
  </g>
  <path
     id="path7401"
     style="fill:#1d232d;fill-opacity:1;stroke:#6f8ce9;stroke-width:0.264583;stroke-linecap:round;stroke-miterlimit:4;stroke-dasharray:none;stroke-opacity:1"
     d="m 146.97602,23.944791 h -44.97917 v 15.875 h 44.97917 z"
     inkscape:connector-curvature="0"
     sodipodi:nodetypes="ccccc" />
  <g
     aria-label="Component"
     id="text7405"
     style="font-size:3.52777px;line-height:1.25;font-family:'Small Fonts';-inkscape-font-specification:'Small Fonts';text-align:center;text-anchor:middle;fill:#ff867f;stroke:#cf2f25;stroke-width:0.264583;stroke-linecap:round">
    <path
       d="m 115.77951,31.783516 c 0,0.754942 0.43391,1.199441 1.01599,1.199441 0.29281,0 0.52211,-0.123471 0.70203,-0.335138 l -0.1658,-0.179916 c -0.14817,0.165805 -0.31045,0.257527 -0.52917,0.257527 -0.44097,0 -0.71966,-0.366888 -0.71966,-0.94897 0,-0.575026 0.2928,-0.934859 0.73377,-0.934859 0.1905,0 0.33867,0.08467 0.46214,0.215194 l 0.1658,-0.186972 c -0.13758,-0.151694 -0.3563,-0.285749 -0.63147,-0.285749 -0.59266,0 -1.03363,0.455082 -1.03363,1.199442 z"
       style="font-family:'Source Sans Pro';-inkscape-font-specification:'Source Sans Pro';stroke:none"
       id="path27932" />
    <path
       d="m 117.76564,32.086904 c 0,0.567971 0.37395,0.896053 0.79375,0.896053 0.4198,0 0.79375,-0.328082 0.79375,-0.896053 0,-0.575027 -0.37395,-0.903109 -0.79375,-0.903109 -0.4198,0 -0.79375,0.328082 -0.79375,0.903109 z m 0.29986,0 c 0,-0.39511 0.20108,-0.663221 0.49389,-0.663221 0.29633,0 0.49389,0.268111 0.49389,0.663221 0,0.391582 -0.19756,0.656165 -0.49389,0.656165 -0.29281,0 -0.49389,-0.264583 -0.49389,-0.656165 z"
       style="font-family:'Source Sans Pro';-inkscape-font-specification:'Source Sans Pro';stroke:none"
       id="path27934" />
    <path
       d="m 119.80469,32.940624 h 0.28928 v -1.241775 c 0.15875,-0.176388 0.30339,-0.264583 0.43039,-0.264583 0.21872,0 0.32102,0.137583 0.32102,0.458611 v 1.047747 h 0.28928 v -1.241775 c 0.15875,-0.176388 0.29633,-0.264583 0.43039,-0.264583 0.21519,0 0.3175,0.137583 0.3175,0.458611 v 1.047747 h 0.28928 v -1.086553 c 0,-0.437443 -0.16934,-0.670276 -0.52211,-0.670276 -0.20814,0 -0.38453,0.134055 -0.56445,0.328082 -0.0705,-0.20461 -0.21166,-0.328082 -0.47272,-0.328082 -0.20461,0 -0.38453,0.126999 -0.53269,0.289277 h -0.0106 l -0.0247,-0.246944 h -0.23989 z"
       style="font-family:'Source Sans Pro';-inkscape-font-specification:'Source Sans Pro';stroke:none"
       id="path27936" />
    <path
       d="m 123.01144,32.785402 c 0.15875,0.123472 0.3175,0.197555 0.47625,0.197555 0.39158,0 0.74083,-0.342193 0.74083,-0.924275 0,-0.532694 -0.23636,-0.874887 -0.67733,-0.874887 -0.20109,0 -0.39159,0.109361 -0.54681,0.239888 h -0.0106 l -0.0247,-0.197555 h -0.23989 v 2.437689 h 0.28928 v -0.578554 z m 0.007,-0.225777 v -0.899581 c 0.16934,-0.151694 0.31397,-0.232833 0.45861,-0.232833 0.32456,0 0.45156,0.253999 0.45156,0.631471 0,0.423332 -0.20814,0.680859 -0.49036,0.680859 -0.11289,0 -0.26459,-0.04939 -0.41981,-0.179916 z"
       style="font-family:'Source Sans Pro';-inkscape-font-specification:'Source Sans Pro';stroke:none"
       id="path27938" />
    <path
       d="m 124.56013,32.086904 c 0,0.567971 0.37394,0.896053 0.79375,0.896053 0.4198,0 0.79375,-0.328082 0.79375,-0.896053 0,-0.575027 -0.37395,-0.903109 -0.79375,-0.903109 -0.41981,0 -0.79375,0.328082 -0.79375,0.903109 z m 0.29986,0 c 0,-0.39511 0.20108,-0.663221 0.49389,-0.663221 0.29633,0 0.49389,0.268111 0.49389,0.663221 0,0.391582 -0.19756,0.656165 -0.49389,0.656165 -0.29281,0 -0.49389,-0.264583 -0.49389,-0.656165 z"
       style="font-family:'Source Sans Pro';-inkscape-font-specification:'Source Sans Pro';stroke:none"
       id="path27940" />
    <path
       d="m 126.59918,32.940624 h 0.28928 v -1.241775 c 0.17286,-0.172861 0.2928,-0.264583 0.46919,-0.264583 0.22578,0 0.32455,0.137583 0.32455,0.458611 v 1.047747 h 0.28928 v -1.086553 c 0,-0.437443 -0.16228,-0.670276 -0.52211,-0.670276 -0.23636,0 -0.41275,0.126999 -0.57502,0.289277 h -0.0106 l -0.0247,-0.246944 h -0.23989 z"
       style="font-family:'Source Sans Pro';-inkscape-font-specification:'Source Sans Pro';stroke:none"
       id="path27942" />
    <path
       d="m 128.40187,32.086904 c 0,0.560915 0.36336,0.896053 0.82197,0.896053 0.23284,0 0.41628,-0.08114 0.56445,-0.176388 l -0.10231,-0.1905 c -0.127,0.08114 -0.26458,0.134056 -0.42686,0.134056 -0.32808,0 -0.55033,-0.232833 -0.5715,-0.603249 h 1.15711 c 0.007,-0.04233 0.0106,-0.09878 0.0106,-0.15875 0,-0.49036 -0.24694,-0.804331 -0.68438,-0.804331 -0.39159,0 -0.76906,0.342193 -0.76906,0.903109 z m 0.28222,-0.130528 c 0.0353,-0.345721 0.254,-0.543276 0.49389,-0.543276 0.26811,0 0.42333,0.194027 0.42333,0.543276 z"
       style="font-family:'Source Sans Pro';-inkscape-font-specification:'Source Sans Pro';stroke:none"
       id="path27944" />
    <path
       d="m 130.27865,32.940624 h 0.28927 v -1.241775 c 0.17287,-0.172861 0.29281,-0.264583 0.4692,-0.264583 0.22578,0 0.32455,0.137583 0.32455,0.458611 v 1.047747 h 0.28928 v -1.086553 c 0,-0.437443 -0.16228,-0.670276 -0.52211,-0.670276 -0.23636,0 -0.41275,0.126999 -0.57503,0.289277 h -0.0106 l -0.0247,-0.246944 h -0.23989 z"
       style="font-family:'Source Sans Pro';-inkscape-font-specification:'Source Sans Pro';stroke:none"
       id="path27946" />
    <path
       d="m 132.25773,32.411459 c 0,0.338666 0.12347,0.571498 0.49036,0.571498 0.10583,0 0.22225,-0.03175 0.3175,-0.0635 l -0.0564,-0.218722 c -0.0565,0.02117 -0.13406,0.04586 -0.19403,0.04586 -0.19756,0 -0.26458,-0.119944 -0.26458,-0.33161 v -0.952498 h 0.46213 v -0.236361 h -0.46213 v -0.479777 h -0.24342 l -0.0353,0.479777 -0.26811,0.01764 v 0.218722 h 0.254 z"
       style="font-family:'Source Sans Pro';-inkscape-font-specification:'Source Sans Pro';stroke:none"
       id="path27948" />
  </g>
  <path
     sodipodi:nodetypes="ccccccccc"
     inkscape:connector-curvature="0"
     d="m 79.251227,27.648958 -1.06688,0.955913 v 6.145162 l 1.06688,0.955913 h 8.449601 l 1.066853,-0.955913 v -6.145162 l -1.066853,-0.955913 z"
     style="fill:#1d232d;fill-opacity:1;stroke:#ff867f;stroke-width:0.264583;stroke-linecap:round;stroke-miterlimit:22;stroke-dasharray:none;stroke-opacity:1"
     id="path7407" />
  <path
     id="path7409"
     style="fill:#ff867f;fill-opacity:1;stroke:none;stroke-width:0.264583;stroke-linecap:square;stroke-miterlimit:22;stroke-dasharray:none;stroke-opacity:1"
     d="m 79.276812,27.648958 -1.092465,0.955913 4.779566,2.759456 h 1.024202 l 4.779566,-2.759456 -1.092465,-0.955913 z"
     inkscape:connector-curvature="0" />
  <g
     id="g7415"
     transform="matrix(-0.00211827,-0.00366895,0.00373178,-0.00215454,89.607627,33.365455)"
     style="fill:#6f8ce9;fill-opacity:1;stroke-width:123.849">
    <g
       id="g7413"
       style="fill:#6f8ce9;fill-opacity:1;stroke-width:123.849">
      <path
         id="path7411"
         d="M 486.413,221.412 122.347,12.916 C 69.409,-17.402 26.495,7.476 26.495,68.479 v 415.652 c 0,61.004 42.914,85.882 95.852,55.563 l 364.066,-208.49 c 52.938,-30.317 52.938,-79.473 0,-109.792 z"
         inkscape:connector-curvature="0"
         style="fill:#6f8ce9;fill-opacity:1;stroke-width:123.849" />
    </g>
  </g>
  <path
     id="path7417"
     style="fill:#1d232d;fill-opacity:1;stroke:#ff867f;stroke-width:0.264583;stroke-linecap:round;stroke-miterlimit:22;stroke-dasharray:none;stroke-opacity:1"
     d="m 79.251227,63.63229 -1.06688,0.955914 v 6.145162 l 1.06688,0.955913 h 8.449601 l 1.066853,-0.955913 V 64.588204 L 87.700828,63.63229 Z"
     inkscape:connector-curvature="0"
     sodipodi:nodetypes="ccccccccc" />
  <path
     inkscape:connector-curvature="0"
     d="m 79.276812,63.63229 -1.092465,0.955914 4.779566,2.759456 h 1.024202 l 4.779566,-2.759456 -1.092465,-0.955914 z"
     style="fill:#ff867f;fill-opacity:1;stroke:none;stroke-width:0.264583;stroke-linecap:square;stroke-miterlimit:22;stroke-dasharray:none;stroke-opacity:1"
     id="path7419" />
  <g
     style="fill:#6f8ce9;fill-opacity:1;stroke-width:123.849"
     transform="matrix(-0.00211827,-0.00366895,0.00373178,-0.00215454,89.607627,69.348788)"
     id="g7425">
    <g
       style="fill:#6f8ce9;fill-opacity:1;stroke-width:123.849"
       id="g7423">
      <path
         style="fill:#6f8ce9;fill-opacity:1;stroke-width:123.849"
         inkscape:connector-curvature="0"
         d="M 486.413,221.412 122.347,12.916 C 69.409,-17.402 26.495,7.476 26.495,68.479 v 415.652 c 0,61.004 42.914,85.882 95.852,55.563 l 364.066,-208.49 c 52.938,-30.317 52.938,-79.473 0,-109.792 z"
         id="path7421" />
    </g>
  </g>
  <path
     id="path7427"
     style="fill:#1d232d;fill-opacity:1;stroke:#6f8ce9;stroke-width:0.264583;stroke-linecap:round;stroke-miterlimit:4;stroke-dasharray:none;stroke-opacity:1"
     d="m 146.97602,41.936457 h -44.97917 v 15.875 h 44.97917 z"
     inkscape:connector-curvature="0"
     sodipodi:nodetypes="ccccc" />
  <rect
     transform="scale(-1,1)"
     style="fill:#1d232d;fill-opacity:1;stroke:#2f3744;stroke-width:0.264583;stroke-linecap:square;stroke-miterlimit:22;stroke-dasharray:none;stroke-dashoffset:0;stroke-opacity:1"
     id="rect7429"
     width="18.520834"
     height="10.583333"
     x="-101.86456"
     y="44.582291" />
  <path
     style="fill:none;fill-opacity:1;stroke:#fbb227;stroke-width:0.264583;stroke-linecap:square;stroke-miterlimit:22;stroke-dasharray:none;stroke-dashoffset:0;stroke-opacity:1"
     d="M 101.73229,44.582291 H 83.47604"
     id="path7431"
     inkscape:connector-curvature="0" />
  <path
     inkscape:connector-curvature="0"
     id="path7433"
     d="M 101.73229,55.165624 H 83.47604"
     style="fill:none;fill-opacity:1;stroke:#fbb227;stroke-width:0.264583;stroke-linecap:square;stroke-miterlimit:22;stroke-dasharray:none;stroke-dashoffset:0;stroke-opacity:1" />
  <g
     aria-label="Component"
     id="text7437"
     style="font-size:3.52777px;line-height:1.25;font-family:'Small Fonts';-inkscape-font-specification:'Small Fonts';text-align:center;text-anchor:middle;fill:#47d58a;stroke:#cf2f25;stroke-width:0.264583;stroke-linecap:round">
    <path
       d="m 115.77951,49.775181 c 0,0.754942 0.43391,1.199441 1.01599,1.199441 0.29281,0 0.52211,-0.123472 0.70203,-0.335138 l -0.1658,-0.179916 c -0.14817,0.165805 -0.31045,0.257527 -0.52917,0.257527 -0.44097,0 -0.71966,-0.366888 -0.71966,-0.94897 0,-0.575027 0.2928,-0.934859 0.73377,-0.934859 0.1905,0 0.33867,0.08467 0.46214,0.215194 l 0.1658,-0.186972 c -0.13758,-0.151694 -0.3563,-0.285749 -0.63147,-0.285749 -0.59266,0 -1.03363,0.455082 -1.03363,1.199442 z"
       style="font-family:'Source Sans Pro';-inkscape-font-specification:'Source Sans Pro';stroke:none"
       id="path27951" />
    <path
       d="m 117.76564,50.078569 c 0,0.567971 0.37395,0.896053 0.79375,0.896053 0.4198,0 0.79375,-0.328082 0.79375,-0.896053 0,-0.575027 -0.37395,-0.903109 -0.79375,-0.903109 -0.4198,0 -0.79375,0.328082 -0.79375,0.903109 z m 0.29986,0 c 0,-0.39511 0.20108,-0.663221 0.49389,-0.663221 0.29633,0 0.49389,0.268111 0.49389,0.663221 0,0.391582 -0.19756,0.656165 -0.49389,0.656165 -0.29281,0 -0.49389,-0.264583 -0.49389,-0.656165 z"
       style="font-family:'Source Sans Pro';-inkscape-font-specification:'Source Sans Pro';stroke:none"
       id="path27953" />
    <path
       d="m 119.80469,50.932289 h 0.28928 v -1.241775 c 0.15875,-0.176388 0.30339,-0.264583 0.43039,-0.264583 0.21872,0 0.32102,0.137583 0.32102,0.45861 v 1.047748 h 0.28928 v -1.241775 c 0.15875,-0.176388 0.29633,-0.264583 0.43039,-0.264583 0.21519,0 0.3175,0.137583 0.3175,0.45861 v 1.047748 h 0.28928 v -1.086553 c 0,-0.437444 -0.16934,-0.670276 -0.52211,-0.670276 -0.20814,0 -0.38453,0.134055 -0.56445,0.328082 -0.0705,-0.20461 -0.21166,-0.328082 -0.47272,-0.328082 -0.20461,0 -0.38453,0.126999 -0.53269,0.289277 h -0.0106 l -0.0247,-0.246944 h -0.23989 z"
       style="font-family:'Source Sans Pro';-inkscape-font-specification:'Source Sans Pro';stroke:none"
       id="path27955" />
    <path
       d="m 123.01144,50.777067 c 0.15875,0.123472 0.3175,0.197555 0.47625,0.197555 0.39158,0 0.74083,-0.342193 0.74083,-0.924275 0,-0.532694 -0.23636,-0.874887 -0.67733,-0.874887 -0.20109,0 -0.39159,0.109361 -0.54681,0.239888 h -0.0106 l -0.0247,-0.197555 h -0.23989 v 2.437689 h 0.28928 v -0.578554 z m 0.007,-0.225777 v -0.899581 c 0.16934,-0.151695 0.31397,-0.232833 0.45861,-0.232833 0.32456,0 0.45156,0.253999 0.45156,0.631471 0,0.423332 -0.20814,0.680859 -0.49036,0.680859 -0.11289,0 -0.26459,-0.04939 -0.41981,-0.179916 z"
       style="font-family:'Source Sans Pro';-inkscape-font-specification:'Source Sans Pro';stroke:none"
       id="path27957" />
    <path
       d="m 124.56013,50.078569 c 0,0.567971 0.37394,0.896053 0.79375,0.896053 0.4198,0 0.79375,-0.328082 0.79375,-0.896053 0,-0.575027 -0.37395,-0.903109 -0.79375,-0.903109 -0.41981,0 -0.79375,0.328082 -0.79375,0.903109 z m 0.29986,0 c 0,-0.39511 0.20108,-0.663221 0.49389,-0.663221 0.29633,0 0.49389,0.268111 0.49389,0.663221 0,0.391582 -0.19756,0.656165 -0.49389,0.656165 -0.29281,0 -0.49389,-0.264583 -0.49389,-0.656165 z"
       style="font-family:'Source Sans Pro';-inkscape-font-specification:'Source Sans Pro';stroke:none"
       id="path27959" />
    <path
       d="m 126.59918,50.932289 h 0.28928 v -1.241775 c 0.17286,-0.172861 0.2928,-0.264583 0.46919,-0.264583 0.22578,0 0.32455,0.137583 0.32455,0.45861 v 1.047748 h 0.28928 v -1.086553 c 0,-0.437444 -0.16228,-0.670276 -0.52211,-0.670276 -0.23636,0 -0.41275,0.126999 -0.57502,0.289277 h -0.0106 l -0.0247,-0.246944 h -0.23989 z"
       style="font-family:'Source Sans Pro';-inkscape-font-specification:'Source Sans Pro';stroke:none"
       id="path27961" />
    <path
       d="m 128.40187,50.078569 c 0,0.560915 0.36336,0.896053 0.82197,0.896053 0.23284,0 0.41628,-0.08114 0.56445,-0.176388 l -0.10231,-0.1905 c -0.127,0.08114 -0.26458,0.134056 -0.42686,0.134056 -0.32808,0 -0.55033,-0.232833 -0.5715,-0.603249 h 1.15711 c 0.007,-0.04233 0.0106,-0.09878 0.0106,-0.15875 0,-0.49036 -0.24694,-0.804331 -0.68438,-0.804331 -0.39159,0 -0.76906,0.342193 -0.76906,0.903109 z m 0.28222,-0.130528 c 0.0353,-0.345721 0.254,-0.543276 0.49389,-0.543276 0.26811,0 0.42333,0.194027 0.42333,0.543276 z"
       style="font-family:'Source Sans Pro';-inkscape-font-specification:'Source Sans Pro';stroke:none"
       id="path27963" />
    <path
       d="m 130.27865,50.932289 h 0.28927 v -1.241775 c 0.17287,-0.172861 0.29281,-0.264583 0.4692,-0.264583 0.22578,0 0.32455,0.137583 0.32455,0.45861 v 1.047748 h 0.28928 v -1.086553 c 0,-0.437444 -0.16228,-0.670276 -0.52211,-0.670276 -0.23636,0 -0.41275,0.126999 -0.57503,0.289277 h -0.0106 l -0.0247,-0.246944 h -0.23989 z"
       style="font-family:'Source Sans Pro';-inkscape-font-specification:'Source Sans Pro';stroke:none"
       id="path27965" />
    <path
       d="m 132.25773,50.403124 c 0,0.338666 0.12347,0.571498 0.49036,0.571498 0.10583,0 0.22225,-0.03175 0.3175,-0.0635 l -0.0564,-0.218722 c -0.0565,0.02117 -0.13406,0.04586 -0.19403,0.04586 -0.19756,0 -0.26458,-0.119944 -0.26458,-0.331611 v -0.952498 h 0.46213 v -0.23636 h -0.46213 v -0.479777 h -0.24342 l -0.0353,0.479777 -0.26811,0.01764 v 0.218721 h 0.254 z"
       style="font-family:'Source Sans Pro';-inkscape-font-specification:'Source Sans Pro';stroke:none"
       id="path27967" />
  </g>
  <rect
     y="83.476036"
     x="63.632263"
     height="48.947918"
     width="19.84375"
     id="rect7439"
     style="fill:#1d232d;fill-opacity:1;stroke:#fbb227;stroke-width:0.264581;stroke-linecap:round;stroke-miterlimit:4;stroke-dasharray:none;stroke-opacity:1" />
  <path
     sodipodi:nodetypes="ccccc"
     inkscape:connector-curvature="0"
     d="M 0.1322915,82.153124 H 45.111458 V 98.028122 H 0.1322915 Z"
     style="fill:#1d232d;fill-opacity:1;stroke:#6f8ce9;stroke-width:0.264583;stroke-linecap:round;stroke-miterlimit:4;stroke-dasharray:none;stroke-opacity:1"
     id="path7441" />
  <rect
     y="84.798958"
     x="45.243725"
     height="10.583333"
     width="18.520834"
     id="rect7443"
     style="fill:#1d232d;fill-opacity:1;stroke:none;stroke-width:0.264583;stroke-linecap:square;stroke-miterlimit:22;stroke-dasharray:none;stroke-dashoffset:0;stroke-opacity:1" />
  <path
     inkscape:connector-curvature="0"
     id="path7445"
     d="m 45.376014,84.798957 h 18.25625"
     style="fill:none;fill-opacity:1;stroke:#fbb227;stroke-width:0.264583;stroke-linecap:square;stroke-miterlimit:22;stroke-dasharray:none;stroke-dashoffset:0;stroke-opacity:1" />
  <path
     style="fill:none;fill-opacity:1;stroke:#fbb227;stroke-width:0.264583;stroke-linecap:square;stroke-miterlimit:22;stroke-dasharray:none;stroke-dashoffset:0;stroke-opacity:1"
     d="m 45.376014,95.382292 h 18.25625"
     id="path7447"
     inkscape:connector-curvature="0" />
  <g
     aria-label="Component"
     id="text7451"
     style="font-size:3.52777px;line-height:1.25;font-family:'Small Fonts';-inkscape-font-specification:'Small Fonts';text-align:center;text-anchor:middle;fill:#47d58a;stroke:#cf2f25;stroke-width:0.264583;stroke-linecap:round">
    <path
       d="m 14.042307,89.991848 c 0,0.754943 0.433916,1.199442 1.015998,1.199442 0.292805,0 0.52211,-0.123472 0.702026,-0.335139 l -0.165805,-0.179916 c -0.148166,0.165805 -0.310444,0.257527 -0.529165,0.257527 -0.440972,0 -0.719666,-0.366888 -0.719666,-0.94897 0,-0.575026 0.292805,-0.934859 0.733777,-0.934859 0.190499,0 0.338666,0.08467 0.462138,0.215194 l 0.165805,-0.186972 c -0.137583,-0.151694 -0.356305,-0.285749 -0.631471,-0.285749 -0.592666,0 -1.033637,0.455082 -1.033637,1.199442 z"
       style="font-family:'Source Sans Pro';-inkscape-font-specification:'Source Sans Pro';stroke:none"
       id="path27970" />
    <path
       d="m 16.028442,90.295236 c 0,0.567971 0.373943,0.896054 0.793748,0.896054 0.419805,0 0.793748,-0.328083 0.793748,-0.896054 0,-0.575027 -0.373943,-0.903109 -0.793748,-0.903109 -0.419805,0 -0.793748,0.328082 -0.793748,0.903109 z m 0.29986,0 c 0,-0.39511 0.201083,-0.663221 0.493888,-0.663221 0.296333,0 0.493888,0.268111 0.493888,0.663221 0,0.391582 -0.197555,0.656165 -0.493888,0.656165 -0.292805,0 -0.493888,-0.264583 -0.493888,-0.656165 z"
       style="font-family:'Source Sans Pro';-inkscape-font-specification:'Source Sans Pro';stroke:none"
       id="path27972" />
    <path
       d="m 18.067492,91.148956 h 0.289277 v -1.241775 c 0.15875,-0.176388 0.303389,-0.264583 0.430388,-0.264583 0.218722,0 0.321027,0.137584 0.321027,0.458611 v 1.047747 h 0.289278 v -1.241775 c 0.158749,-0.176388 0.296332,-0.264583 0.430388,-0.264583 0.215194,0 0.317499,0.137584 0.317499,0.458611 v 1.047747 h 0.289277 v -1.086553 c 0,-0.437443 -0.169333,-0.670276 -0.52211,-0.670276 -0.208138,0 -0.384527,0.134055 -0.564443,0.328082 -0.07056,-0.20461 -0.211666,-0.328082 -0.472721,-0.328082 -0.204611,0 -0.384527,0.127 -0.532694,0.289277 h -0.01058 l -0.02469,-0.246944 h -0.239889 z"
       style="font-family:'Source Sans Pro';-inkscape-font-specification:'Source Sans Pro';stroke:none"
       id="path27974" />
    <path
       d="m 21.274237,90.993734 c 0.158749,0.123472 0.317499,0.197556 0.476249,0.197556 0.391582,0 0.740831,-0.342194 0.740831,-0.924276 0,-0.532693 -0.23636,-0.874887 -0.677331,-0.874887 -0.201083,0 -0.391583,0.109361 -0.546805,0.239888 h -0.01058 l -0.02469,-0.197555 h -0.239889 v 2.437689 h 0.289277 v -0.578554 z m 0.0071,-0.225777 v -0.899581 c 0.169333,-0.151694 0.313972,-0.232833 0.45861,-0.232833 0.324555,0 0.451555,0.253999 0.451555,0.631471 0,0.423332 -0.208138,0.680859 -0.49036,0.680859 -0.112889,0 -0.264583,-0.04939 -0.419805,-0.179916 z"
       style="font-family:'Source Sans Pro';-inkscape-font-specification:'Source Sans Pro';stroke:none"
       id="path27976" />
    <path
       d="m 22.822929,90.295236 c 0,0.567971 0.373944,0.896054 0.793749,0.896054 0.419804,0 0.793748,-0.328083 0.793748,-0.896054 0,-0.575027 -0.373944,-0.903109 -0.793748,-0.903109 -0.419805,0 -0.793749,0.328082 -0.793749,0.903109 z m 0.299861,0 c 0,-0.39511 0.201083,-0.663221 0.493888,-0.663221 0.296332,0 0.493887,0.268111 0.493887,0.663221 0,0.391582 -0.197555,0.656165 -0.493887,0.656165 -0.292805,0 -0.493888,-0.264583 -0.493888,-0.656165 z"
       style="font-family:'Source Sans Pro';-inkscape-font-specification:'Source Sans Pro';stroke:none"
       id="path27978" />
    <path
       d="m 24.861979,91.148956 h 0.289277 v -1.241775 c 0.172861,-0.17286 0.292805,-0.264583 0.469194,-0.264583 0.225777,0 0.324555,0.137584 0.324555,0.458611 v 1.047747 h 0.289277 v -1.086553 c 0,-0.437443 -0.162278,-0.670276 -0.52211,-0.670276 -0.236361,0 -0.412749,0.127 -0.575027,0.289277 h -0.01058 l -0.02469,-0.246944 h -0.239889 z"
       style="font-family:'Source Sans Pro';-inkscape-font-specification:'Source Sans Pro';stroke:none"
       id="path27980" />
    <path
       d="m 26.664673,90.295236 c 0,0.560915 0.36336,0.896054 0.82197,0.896054 0.232833,0 0.416277,-0.08114 0.564443,-0.176389 l -0.102305,-0.1905 c -0.127,0.08114 -0.264583,0.134056 -0.42686,0.134056 -0.328083,0 -0.550332,-0.232833 -0.571499,-0.603249 h 1.157109 c 0.0071,-0.04233 0.01058,-0.09878 0.01058,-0.15875 0,-0.49036 -0.246944,-0.804331 -0.684387,-0.804331 -0.391583,0 -0.769054,0.342194 -0.769054,0.903109 z m 0.282221,-0.130528 c 0.03528,-0.345721 0.254,-0.543276 0.493888,-0.543276 0.268111,0 0.423333,0.194027 0.423333,0.543276 z"
       style="font-family:'Source Sans Pro';-inkscape-font-specification:'Source Sans Pro';stroke:none"
       id="path27982" />
    <path
       d="m 28.541447,91.148956 h 0.289278 v -1.241775 c 0.17286,-0.17286 0.292805,-0.264583 0.469193,-0.264583 0.225777,0 0.324555,0.137584 0.324555,0.458611 v 1.047747 h 0.289277 v -1.086553 c 0,-0.437443 -0.162277,-0.670276 -0.52211,-0.670276 -0.236361,0 -0.412749,0.127 -0.575026,0.289277 h -0.01058 l -0.02469,-0.246944 h -0.239889 z"
       style="font-family:'Source Sans Pro';-inkscape-font-specification:'Source Sans Pro';stroke:none"
       id="path27984" />
    <path
       d="m 30.52053,90.619791 c 0,0.338666 0.123472,0.571499 0.49036,0.571499 0.105834,0 0.22225,-0.03175 0.3175,-0.0635 l -0.05645,-0.218722 c -0.05644,0.02117 -0.134055,0.04586 -0.194027,0.04586 -0.197555,0 -0.264583,-0.119944 -0.264583,-0.33161 v -0.952498 h 0.462138 V 89.43446 h -0.462138 v -0.479777 h -0.243416 l -0.03528,0.479777 -0.26811,0.01764 v 0.218722 h 0.253999 z"
       style="font-family:'Source Sans Pro';-inkscape-font-specification:'Source Sans Pro';stroke:none"
       id="path27986" />
  </g>
  <path
     id="path7453"
     style="fill:#1d232d;fill-opacity:1;stroke:#6f8ce9;stroke-width:0.264583;stroke-linecap:round;stroke-miterlimit:4;stroke-dasharray:none;stroke-opacity:1"
     d="m 146.97602,118.13645 h -44.97917 v 15.875 h 44.97917 z"
     inkscape:connector-curvature="0"
     sodipodi:nodetypes="ccccc" />
  <rect
     transform="scale(-1,1)"
     style="fill:#1d232d;fill-opacity:1;stroke:#2f3744;stroke-width:0.264583;stroke-linecap:square;stroke-miterlimit:22;stroke-dasharray:none;stroke-dashoffset:0;stroke-opacity:1"
     id="rect7455"
     width="18.520834"
     height="10.583333"
     x="-101.86456"
     y="120.78229" />
  <path
     style="fill:none;fill-opacity:1;stroke:#fbb227;stroke-width:0.264583;stroke-linecap:square;stroke-miterlimit:22;stroke-dasharray:none;stroke-dashoffset:0;stroke-opacity:1"
     d="M 101.73229,120.78229 H 83.47604"
     id="path7457"
     inkscape:connector-curvature="0" />
  <path
     inkscape:connector-curvature="0"
     id="path7459"
     d="M 101.73229,131.36562 H 83.47604"
     style="fill:none;fill-opacity:1;stroke:#fbb227;stroke-width:0.264583;stroke-linecap:square;stroke-miterlimit:22;stroke-dasharray:none;stroke-dashoffset:0;stroke-opacity:1" />
  <g
     aria-label="Component"
     id="text7463"
     style="font-size:3.52777px;line-height:1.25;font-family:'Small Fonts';-inkscape-font-specification:'Small Fonts';text-align:center;text-anchor:middle;fill:#ff867f;stroke:#cf2f25;stroke-width:0.264583;stroke-linecap:round">
    <path
       d="m 115.77951,125.97519 c 0,0.75494 0.43391,1.19944 1.01599,1.19944 0.29281,0 0.52211,-0.12348 0.70203,-0.33514 l -0.1658,-0.17992 c -0.14817,0.16581 -0.31045,0.25753 -0.52917,0.25753 -0.44097,0 -0.71966,-0.36689 -0.71966,-0.94897 0,-0.57503 0.2928,-0.93486 0.73377,-0.93486 0.1905,0 0.33867,0.0847 0.46214,0.21519 l 0.1658,-0.18697 c -0.13758,-0.15169 -0.3563,-0.28575 -0.63147,-0.28575 -0.59266,0 -1.03363,0.45509 -1.03363,1.19945 z"
       style="font-family:'Source Sans Pro';-inkscape-font-specification:'Source Sans Pro';stroke:none"
       id="path27989" />
    <path
       d="m 117.76564,126.27857 c 0,0.56797 0.37395,0.89606 0.79375,0.89606 0.4198,0 0.79375,-0.32809 0.79375,-0.89606 0,-0.57502 -0.37395,-0.90311 -0.79375,-0.90311 -0.4198,0 -0.79375,0.32809 -0.79375,0.90311 z m 0.29986,0 c 0,-0.39511 0.20108,-0.66322 0.49389,-0.66322 0.29633,0 0.49389,0.26811 0.49389,0.66322 0,0.39159 -0.19756,0.65617 -0.49389,0.65617 -0.29281,0 -0.49389,-0.26458 -0.49389,-0.65617 z"
       style="font-family:'Source Sans Pro';-inkscape-font-specification:'Source Sans Pro';stroke:none"
       id="path27991" />
    <path
       d="m 119.80469,127.13229 h 0.28928 v -1.24177 c 0.15875,-0.17639 0.30339,-0.26458 0.43039,-0.26458 0.21872,0 0.32102,0.13758 0.32102,0.45861 v 1.04774 h 0.28928 v -1.24177 c 0.15875,-0.17639 0.29633,-0.26458 0.43039,-0.26458 0.21519,0 0.3175,0.13758 0.3175,0.45861 v 1.04774 h 0.28928 v -1.08655 c 0,-0.43744 -0.16934,-0.67028 -0.52211,-0.67028 -0.20814,0 -0.38453,0.13406 -0.56445,0.32809 -0.0705,-0.20461 -0.21166,-0.32809 -0.47272,-0.32809 -0.20461,0 -0.38453,0.127 -0.53269,0.28928 h -0.0106 l -0.0247,-0.24694 h -0.23989 z"
       style="font-family:'Source Sans Pro';-inkscape-font-specification:'Source Sans Pro';stroke:none"
       id="path27993" />
    <path
       d="m 123.01144,126.97707 c 0.15875,0.12347 0.3175,0.19756 0.47625,0.19756 0.39158,0 0.74083,-0.3422 0.74083,-0.92428 0,-0.53269 -0.23636,-0.87489 -0.67733,-0.87489 -0.20109,0 -0.39159,0.10937 -0.54681,0.23989 h -0.0106 l -0.0247,-0.19755 h -0.23989 v 2.43769 h 0.28928 v -0.57856 z m 0.007,-0.22578 v -0.89958 c 0.16934,-0.15169 0.31397,-0.23283 0.45861,-0.23283 0.32456,0 0.45156,0.254 0.45156,0.63147 0,0.42333 -0.20814,0.68086 -0.49036,0.68086 -0.11289,0 -0.26459,-0.0494 -0.41981,-0.17992 z"
       style="font-family:'Source Sans Pro';-inkscape-font-specification:'Source Sans Pro';stroke:none"
       id="path27995" />
    <path
       d="m 124.56013,126.27857 c 0,0.56797 0.37394,0.89606 0.79375,0.89606 0.4198,0 0.79375,-0.32809 0.79375,-0.89606 0,-0.57502 -0.37395,-0.90311 -0.79375,-0.90311 -0.41981,0 -0.79375,0.32809 -0.79375,0.90311 z m 0.29986,0 c 0,-0.39511 0.20108,-0.66322 0.49389,-0.66322 0.29633,0 0.49389,0.26811 0.49389,0.66322 0,0.39159 -0.19756,0.65617 -0.49389,0.65617 -0.29281,0 -0.49389,-0.26458 -0.49389,-0.65617 z"
       style="font-family:'Source Sans Pro';-inkscape-font-specification:'Source Sans Pro';stroke:none"
       id="path27997" />
    <path
       d="m 126.59918,127.13229 h 0.28928 v -1.24177 c 0.17286,-0.17286 0.2928,-0.26458 0.46919,-0.26458 0.22578,0 0.32455,0.13758 0.32455,0.45861 v 1.04774 h 0.28928 v -1.08655 c 0,-0.43744 -0.16228,-0.67028 -0.52211,-0.67028 -0.23636,0 -0.41275,0.127 -0.57502,0.28928 h -0.0106 l -0.0247,-0.24694 h -0.23989 z"
       style="font-family:'Source Sans Pro';-inkscape-font-specification:'Source Sans Pro';stroke:none"
       id="path27999" />
    <path
       d="m 128.40187,126.27857 c 0,0.56092 0.36336,0.89606 0.82197,0.89606 0.23284,0 0.41628,-0.0811 0.56445,-0.17639 l -0.10231,-0.1905 c -0.127,0.0811 -0.26458,0.13405 -0.42686,0.13405 -0.32808,0 -0.55033,-0.23283 -0.5715,-0.60324 h 1.15711 c 0.007,-0.0423 0.0106,-0.0988 0.0106,-0.15875 0,-0.49036 -0.24694,-0.80434 -0.68438,-0.80434 -0.39159,0 -0.76906,0.3422 -0.76906,0.90311 z m 0.28222,-0.13052 c 0.0353,-0.34573 0.254,-0.54328 0.49389,-0.54328 0.26811,0 0.42333,0.19403 0.42333,0.54328 z"
       style="font-family:'Source Sans Pro';-inkscape-font-specification:'Source Sans Pro';stroke:none"
       id="path28001" />
    <path
       d="m 130.27865,127.13229 h 0.28927 v -1.24177 c 0.17287,-0.17286 0.29281,-0.26458 0.4692,-0.26458 0.22578,0 0.32455,0.13758 0.32455,0.45861 v 1.04774 h 0.28928 v -1.08655 c 0,-0.43744 -0.16228,-0.67028 -0.52211,-0.67028 -0.23636,0 -0.41275,0.127 -0.57503,0.28928 h -0.0106 l -0.0247,-0.24694 h -0.23989 z"
       style="font-family:'Source Sans Pro';-inkscape-font-specification:'Source Sans Pro';stroke:none"
       id="path28003" />
    <path
       d="m 132.25773,126.60313 c 0,0.33866 0.12347,0.5715 0.49036,0.5715 0.10583,0 0.22225,-0.0317 0.3175,-0.0635 l -0.0564,-0.21872 c -0.0565,0.0212 -0.13406,0.0459 -0.19403,0.0459 -0.19756,0 -0.26458,-0.11995 -0.26458,-0.33161 v -0.9525 h 0.46213 v -0.23636 h -0.46213 v -0.47978 h -0.24342 l -0.0353,0.47978 -0.26811,0.0176 v 0.21872 h 0.254 z"
       style="font-family:'Source Sans Pro';-inkscape-font-specification:'Source Sans Pro';stroke:none"
       id="path28005" />
  </g>
  <rect
     y="84.798958"
     x="-101.86456"
     height="10.583333"
     width="18.520834"
     id="rect7465"
     style="fill:#1d232d;fill-opacity:1;stroke:#2f3744;stroke-width:0.264583;stroke-linecap:square;stroke-miterlimit:22;stroke-dasharray:none;stroke-dashoffset:0;stroke-opacity:1"
     transform="scale(-1,1)" />
  <path
     inkscape:connector-curvature="0"
     id="path7467"
     d="M 101.73229,84.798957 H 83.47604"
     style="fill:none;fill-opacity:1;stroke:#fbb227;stroke-width:0.264583;stroke-linecap:square;stroke-miterlimit:22;stroke-dasharray:none;stroke-dashoffset:0;stroke-opacity:1" />
  <path
     style="fill:none;fill-opacity:1;stroke:#fbb227;stroke-width:0.264583;stroke-linecap:square;stroke-miterlimit:22;stroke-dasharray:none;stroke-dashoffset:0;stroke-opacity:1"
     d="M 101.73229,95.382292 H 83.47604"
     id="path7469"
     inkscape:connector-curvature="0" />
  <path
     sodipodi:nodetypes="ccccccccc"
     inkscape:connector-curvature="0"
     d="m 50.14706,85.85729 -1.066879,0.955913 v 6.145159 l 1.066879,0.95592 h 8.449601 l 1.066853,-0.95592 V 86.813203 L 58.596661,85.85729 Z"
     style="fill:#1d232d;fill-opacity:1;stroke:#6f8ce9;stroke-width:0.264583;stroke-linecap:round;stroke-miterlimit:22;stroke-dasharray:none;stroke-opacity:1"
     id="path7471" />
  <path
     id="path7473"
     style="fill:#6f8ce9;fill-opacity:1;stroke:none;stroke-width:0.264583;stroke-linecap:square;stroke-miterlimit:22;stroke-dasharray:none;stroke-opacity:1"
     d="m 50.172646,85.85729 -1.092465,0.955913 4.779566,2.759456 h 1.024202 L 59.663514,86.813203 58.57105,85.85729 Z"
     inkscape:connector-curvature="0" />
  <g
     id="g7479"
     transform="matrix(-0.00211827,-0.00366895,0.00373178,-0.00215454,60.503461,91.573792)"
     style="fill:#6f8ce9;fill-opacity:1;stroke-width:123.849">
    <g
       id="g7477"
       style="fill:#6f8ce9;fill-opacity:1;stroke-width:123.849">
      <path
         id="path7475"
         d="M 486.413,221.412 122.347,12.916 C 69.409,-17.402 26.495,7.476 26.495,68.479 v 415.652 c 0,61.004 42.914,85.882 95.852,55.563 l 364.066,-208.49 c 52.938,-30.317 52.938,-79.473 0,-109.792 z"
         inkscape:connector-curvature="0"
         style="fill:#6f8ce9;fill-opacity:1;stroke-width:123.849" />
    </g>
  </g>
  <path
     sodipodi:nodetypes="ccccc"
     inkscape:connector-curvature="0"
     d="m 146.97602,82.153124 h -44.97917 v 15.874998 h 44.97917 z"
     style="fill:#1d232d;fill-opacity:1;stroke:#6f8ce9;stroke-width:0.264583;stroke-linecap:round;stroke-miterlimit:4;stroke-dasharray:none;stroke-opacity:1"
     id="path7481" />
  <g
     aria-label="Component"
     id="text7485"
     style="font-size:3.52777px;line-height:1.25;font-family:'Small Fonts';-inkscape-font-specification:'Small Fonts';text-align:center;text-anchor:middle;fill:#ff867f;stroke:#cf2f25;stroke-width:0.264583;stroke-linecap:round">
    <path
       d="m 115.77951,89.991848 c 0,0.754943 0.43391,1.199442 1.01599,1.199442 0.29281,0 0.52211,-0.123472 0.70203,-0.335139 l -0.1658,-0.179916 c -0.14817,0.165805 -0.31045,0.257527 -0.52917,0.257527 -0.44097,0 -0.71966,-0.366888 -0.71966,-0.94897 0,-0.575026 0.2928,-0.934859 0.73377,-0.934859 0.1905,0 0.33867,0.08467 0.46214,0.215194 l 0.1658,-0.186972 c -0.13758,-0.151694 -0.3563,-0.285749 -0.63147,-0.285749 -0.59266,0 -1.03363,0.455082 -1.03363,1.199442 z"
       style="font-family:'Source Sans Pro';-inkscape-font-specification:'Source Sans Pro';stroke:none"
       id="path28008" />
    <path
       d="m 117.76564,90.295236 c 0,0.567971 0.37395,0.896054 0.79375,0.896054 0.4198,0 0.79375,-0.328083 0.79375,-0.896054 0,-0.575027 -0.37395,-0.903109 -0.79375,-0.903109 -0.4198,0 -0.79375,0.328082 -0.79375,0.903109 z m 0.29986,0 c 0,-0.39511 0.20108,-0.663221 0.49389,-0.663221 0.29633,0 0.49389,0.268111 0.49389,0.663221 0,0.391582 -0.19756,0.656165 -0.49389,0.656165 -0.29281,0 -0.49389,-0.264583 -0.49389,-0.656165 z"
       style="font-family:'Source Sans Pro';-inkscape-font-specification:'Source Sans Pro';stroke:none"
       id="path28010" />
    <path
       d="m 119.80469,91.148956 h 0.28928 v -1.241775 c 0.15875,-0.176388 0.30339,-0.264583 0.43039,-0.264583 0.21872,0 0.32102,0.137584 0.32102,0.458611 v 1.047747 h 0.28928 v -1.241775 c 0.15875,-0.176388 0.29633,-0.264583 0.43039,-0.264583 0.21519,0 0.3175,0.137584 0.3175,0.458611 v 1.047747 h 0.28928 v -1.086553 c 0,-0.437443 -0.16934,-0.670276 -0.52211,-0.670276 -0.20814,0 -0.38453,0.134055 -0.56445,0.328082 -0.0705,-0.20461 -0.21166,-0.328082 -0.47272,-0.328082 -0.20461,0 -0.38453,0.127 -0.53269,0.289277 h -0.0106 l -0.0247,-0.246944 h -0.23989 z"
       style="font-family:'Source Sans Pro';-inkscape-font-specification:'Source Sans Pro';stroke:none"
       id="path28012" />
    <path
       d="m 123.01144,90.993734 c 0.15875,0.123472 0.3175,0.197556 0.47625,0.197556 0.39158,0 0.74083,-0.342194 0.74083,-0.924276 0,-0.532693 -0.23636,-0.874887 -0.67733,-0.874887 -0.20109,0 -0.39159,0.109361 -0.54681,0.239888 h -0.0106 l -0.0247,-0.197555 h -0.23989 v 2.437689 h 0.28928 v -0.578554 z m 0.007,-0.225777 v -0.899581 c 0.16934,-0.151694 0.31397,-0.232833 0.45861,-0.232833 0.32456,0 0.45156,0.253999 0.45156,0.631471 0,0.423332 -0.20814,0.680859 -0.49036,0.680859 -0.11289,0 -0.26459,-0.04939 -0.41981,-0.179916 z"
       style="font-family:'Source Sans Pro';-inkscape-font-specification:'Source Sans Pro';stroke:none"
       id="path28014" />
    <path
       d="m 124.56013,90.295236 c 0,0.567971 0.37394,0.896054 0.79375,0.896054 0.4198,0 0.79375,-0.328083 0.79375,-0.896054 0,-0.575027 -0.37395,-0.903109 -0.79375,-0.903109 -0.41981,0 -0.79375,0.328082 -0.79375,0.903109 z m 0.29986,0 c 0,-0.39511 0.20108,-0.663221 0.49389,-0.663221 0.29633,0 0.49389,0.268111 0.49389,0.663221 0,0.391582 -0.19756,0.656165 -0.49389,0.656165 -0.29281,0 -0.49389,-0.264583 -0.49389,-0.656165 z"
       style="font-family:'Source Sans Pro';-inkscape-font-specification:'Source Sans Pro';stroke:none"
       id="path28016" />
    <path
       d="m 126.59918,91.148956 h 0.28928 v -1.241775 c 0.17286,-0.17286 0.2928,-0.264583 0.46919,-0.264583 0.22578,0 0.32455,0.137584 0.32455,0.458611 v 1.047747 h 0.28928 v -1.086553 c 0,-0.437443 -0.16228,-0.670276 -0.52211,-0.670276 -0.23636,0 -0.41275,0.127 -0.57502,0.289277 h -0.0106 l -0.0247,-0.246944 h -0.23989 z"
       style="font-family:'Source Sans Pro';-inkscape-font-specification:'Source Sans Pro';stroke:none"
       id="path28018" />
    <path
       d="m 128.40187,90.295236 c 0,0.560915 0.36336,0.896054 0.82197,0.896054 0.23284,0 0.41628,-0.08114 0.56445,-0.176389 l -0.10231,-0.1905 c -0.127,0.08114 -0.26458,0.134056 -0.42686,0.134056 -0.32808,0 -0.55033,-0.232833 -0.5715,-0.603249 h 1.15711 c 0.007,-0.04233 0.0106,-0.09878 0.0106,-0.15875 0,-0.49036 -0.24694,-0.804331 -0.68438,-0.804331 -0.39159,0 -0.76906,0.342194 -0.76906,0.903109 z m 0.28222,-0.130528 c 0.0353,-0.345721 0.254,-0.543276 0.49389,-0.543276 0.26811,0 0.42333,0.194027 0.42333,0.543276 z"
       style="font-family:'Source Sans Pro';-inkscape-font-specification:'Source Sans Pro';stroke:none"
       id="path28020" />
    <path
       d="m 130.27865,91.148956 h 0.28927 v -1.241775 c 0.17287,-0.17286 0.29281,-0.264583 0.4692,-0.264583 0.22578,0 0.32455,0.137584 0.32455,0.458611 v 1.047747 h 0.28928 v -1.086553 c 0,-0.437443 -0.16228,-0.670276 -0.52211,-0.670276 -0.23636,0 -0.41275,0.127 -0.57503,0.289277 h -0.0106 l -0.0247,-0.246944 h -0.23989 z"
       style="font-family:'Source Sans Pro';-inkscape-font-specification:'Source Sans Pro';stroke:none"
       id="path28022" />
    <path
       d="m 132.25773,90.619791 c 0,0.338666 0.12347,0.571499 0.49036,0.571499 0.10583,0 0.22225,-0.03175 0.3175,-0.0635 l -0.0564,-0.218722 c -0.0565,0.02117 -0.13406,0.04586 -0.19403,0.04586 -0.19756,0 -0.26458,-0.119944 -0.26458,-0.33161 v -0.952498 h 0.46213 V 89.43446 h -0.46213 v -0.479777 h -0.24342 l -0.0353,0.479777 -0.26811,0.01764 v 0.218722 h 0.254 z"
       style="font-family:'Source Sans Pro';-inkscape-font-specification:'Source Sans Pro';stroke:none"
       id="path28024" />
  </g>
  <path
     id="path7487"
     style="fill:#1d232d;fill-opacity:1;stroke:#6f8ce9;stroke-width:0.264583;stroke-linecap:round;stroke-miterlimit:22;stroke-dasharray:none;stroke-opacity:1"
     d="m 79.251227,85.85729 -1.06688,0.955913 v 6.145159 l 1.06688,0.95592 h 8.449601 l 1.066853,-0.95592 V 86.813203 L 87.700828,85.85729 Z"
     inkscape:connector-curvature="0"
     sodipodi:nodetypes="ccccccccc" />
  <path
     inkscape:connector-curvature="0"
     d="m 79.276812,85.85729 -1.092465,0.955913 4.779566,2.759456 h 1.024202 l 4.779566,-2.759456 -1.092465,-0.955913 z"
     style="fill:#6f8ce9;fill-opacity:1;stroke:none;stroke-width:0.264583;stroke-linecap:square;stroke-miterlimit:22;stroke-dasharray:none;stroke-opacity:1"
     id="path7489" />
  <g
     style="fill:#6f8ce9;fill-opacity:1;stroke-width:123.849"
     transform="matrix(-0.00211827,-0.00366895,0.00373178,-0.00215454,89.607627,91.573792)"
     id="g7495">
    <g
       style="fill:#6f8ce9;fill-opacity:1;stroke-width:123.849"
       id="g7493">
      <path
         style="fill:#6f8ce9;fill-opacity:1;stroke-width:123.849"
         inkscape:connector-curvature="0"
         d="M 486.413,221.412 122.347,12.916 C 69.409,-17.402 26.495,7.476 26.495,68.479 v 415.652 c 0,61.004 42.914,85.882 95.852,55.563 l 364.066,-208.49 c 52.938,-30.317 52.938,-79.473 0,-109.792 z"
         id="path7491" />
    </g>
  </g>
  <path
     sodipodi:nodetypes="ccccccccc"
     inkscape:connector-curvature="0"
     d="m 79.251227,121.84062 -1.06688,0.95591 v 6.14517 l 1.06688,0.95591 h 8.449601 l 1.066853,-0.95591 v -6.14517 l -1.066853,-0.95591 z"
     style="fill:#1d232d;fill-opacity:1;stroke:#6f8ce9;stroke-width:0.264583;stroke-linecap:round;stroke-miterlimit:22;stroke-dasharray:none;stroke-opacity:1"
     id="path7497" />
  <path
     id="path7499"
     style="fill:#6f8ce9;fill-opacity:1;stroke:none;stroke-width:0.264583;stroke-linecap:square;stroke-miterlimit:22;stroke-dasharray:none;stroke-opacity:1"
     d="m 79.276812,121.84062 -1.092465,0.95591 4.779566,2.75946 h 1.024202 l 4.779566,-2.75946 -1.092465,-0.95591 z"
     inkscape:connector-curvature="0" />
  <g
     id="g7505"
     transform="matrix(-0.00211827,-0.00366895,0.00373178,-0.00215454,89.607627,127.55712)"
     style="fill:#6f8ce9;fill-opacity:1;stroke-width:123.849">
    <g
       id="g7503"
       style="fill:#6f8ce9;fill-opacity:1;stroke-width:123.849">
      <path
         id="path7501"
         d="M 486.413,221.412 122.347,12.916 C 69.409,-17.402 26.495,7.476 26.495,68.479 v 415.652 c 0,61.004 42.914,85.882 95.852,55.563 l 364.066,-208.49 c 52.938,-30.317 52.938,-79.473 0,-109.792 z"
         inkscape:connector-curvature="0"
         style="fill:#6f8ce9;fill-opacity:1;stroke-width:123.849" />
    </g>
  </g>
  <path
     sodipodi:nodetypes="ccccc"
     inkscape:connector-curvature="0"
     d="m 146.97602,100.14479 h -44.97917 v 15.875 h 44.97917 z"
     style="fill:#1d232d;fill-opacity:1;stroke:#6f8ce9;stroke-width:0.264583;stroke-linecap:round;stroke-miterlimit:4;stroke-dasharray:none;stroke-opacity:1"
     id="path7507" />
  <rect
     y="102.79062"
     x="-101.86456"
     height="10.583333"
     width="18.520834"
     id="rect7509"
     style="fill:#1d232d;fill-opacity:1;stroke:#2f3744;stroke-width:0.264583;stroke-linecap:square;stroke-miterlimit:22;stroke-dasharray:none;stroke-dashoffset:0;stroke-opacity:1"
     transform="scale(-1,1)" />
  <path
     inkscape:connector-curvature="0"
     id="path7511"
     d="M 101.73229,102.79062 H 83.47604"
     style="fill:none;fill-opacity:1;stroke:#fbb227;stroke-width:0.264583;stroke-linecap:square;stroke-miterlimit:22;stroke-dasharray:none;stroke-dashoffset:0;stroke-opacity:1" />
  <path
     style="fill:none;fill-opacity:1;stroke:#fbb227;stroke-width:0.264583;stroke-linecap:square;stroke-miterlimit:22;stroke-dasharray:none;stroke-dashoffset:0;stroke-opacity:1"
     d="M 101.73229,113.37395 H 83.47604"
     id="path7513"
     inkscape:connector-curvature="0" />
  <g
     aria-label="Component"
     id="text7517"
     style="font-size:3.52777px;line-height:1.25;font-family:'Small Fonts';-inkscape-font-specification:'Small Fonts';text-align:center;text-anchor:middle;fill:#47d58a;stroke:#cf2f25;stroke-width:0.264583;stroke-linecap:round">
    <path
       d="m 115.77951,107.98351 c 0,0.75494 0.43391,1.19944 1.01599,1.19944 0.29281,0 0.52211,-0.12347 0.70203,-0.33514 l -0.1658,-0.17991 c -0.14817,0.1658 -0.31045,0.25752 -0.52917,0.25752 -0.44097,0 -0.71966,-0.36688 -0.71966,-0.94897 0,-0.57502 0.2928,-0.93486 0.73377,-0.93486 0.1905,0 0.33867,0.0847 0.46214,0.2152 l 0.1658,-0.18697 c -0.13758,-0.1517 -0.3563,-0.28575 -0.63147,-0.28575 -0.59266,0 -1.03363,0.45508 -1.03363,1.19944 z"
       style="font-family:'Source Sans Pro';-inkscape-font-specification:'Source Sans Pro';stroke:none"
       id="path28027" />
    <path
       d="m 117.76564,108.2869 c 0,0.56797 0.37395,0.89605 0.79375,0.89605 0.4198,0 0.79375,-0.32808 0.79375,-0.89605 0,-0.57503 -0.37395,-0.90311 -0.79375,-0.90311 -0.4198,0 -0.79375,0.32808 -0.79375,0.90311 z m 0.29986,0 c 0,-0.39511 0.20108,-0.66322 0.49389,-0.66322 0.29633,0 0.49389,0.26811 0.49389,0.66322 0,0.39158 -0.19756,0.65616 -0.49389,0.65616 -0.29281,0 -0.49389,-0.26458 -0.49389,-0.65616 z"
       style="font-family:'Source Sans Pro';-inkscape-font-specification:'Source Sans Pro';stroke:none"
       id="path28029" />
    <path
       d="m 119.80469,109.14062 h 0.28928 v -1.24178 c 0.15875,-0.17639 0.30339,-0.26458 0.43039,-0.26458 0.21872,0 0.32102,0.13758 0.32102,0.45861 v 1.04775 h 0.28928 v -1.24178 c 0.15875,-0.17639 0.29633,-0.26458 0.43039,-0.26458 0.21519,0 0.3175,0.13758 0.3175,0.45861 v 1.04775 h 0.28928 v -1.08656 c 0,-0.43744 -0.16934,-0.67027 -0.52211,-0.67027 -0.20814,0 -0.38453,0.13405 -0.56445,0.32808 -0.0705,-0.20461 -0.21166,-0.32808 -0.47272,-0.32808 -0.20461,0 -0.38453,0.127 -0.53269,0.28928 h -0.0106 l -0.0247,-0.24695 h -0.23989 z"
       style="font-family:'Source Sans Pro';-inkscape-font-specification:'Source Sans Pro';stroke:none"
       id="path28031" />
    <path
       d="m 123.01144,108.9854 c 0.15875,0.12347 0.3175,0.19755 0.47625,0.19755 0.39158,0 0.74083,-0.34219 0.74083,-0.92428 0,-0.53269 -0.23636,-0.87488 -0.67733,-0.87488 -0.20109,0 -0.39159,0.10936 -0.54681,0.23989 h -0.0106 l -0.0247,-0.19756 h -0.23989 v 2.43769 h 0.28928 v -0.57855 z m 0.007,-0.22578 v -0.89958 c 0.16934,-0.1517 0.31397,-0.23284 0.45861,-0.23284 0.32456,0 0.45156,0.254 0.45156,0.63147 0,0.42334 -0.20814,0.68086 -0.49036,0.68086 -0.11289,0 -0.26459,-0.0494 -0.41981,-0.17991 z"
       style="font-family:'Source Sans Pro';-inkscape-font-specification:'Source Sans Pro';stroke:none"
       id="path28033" />
    <path
       d="m 124.56013,108.2869 c 0,0.56797 0.37394,0.89605 0.79375,0.89605 0.4198,0 0.79375,-0.32808 0.79375,-0.89605 0,-0.57503 -0.37395,-0.90311 -0.79375,-0.90311 -0.41981,0 -0.79375,0.32808 -0.79375,0.90311 z m 0.29986,0 c 0,-0.39511 0.20108,-0.66322 0.49389,-0.66322 0.29633,0 0.49389,0.26811 0.49389,0.66322 0,0.39158 -0.19756,0.65616 -0.49389,0.65616 -0.29281,0 -0.49389,-0.26458 -0.49389,-0.65616 z"
       style="font-family:'Source Sans Pro';-inkscape-font-specification:'Source Sans Pro';stroke:none"
       id="path28035" />
    <path
       d="m 126.59918,109.14062 h 0.28928 v -1.24178 c 0.17286,-0.17286 0.2928,-0.26458 0.46919,-0.26458 0.22578,0 0.32455,0.13758 0.32455,0.45861 v 1.04775 h 0.28928 v -1.08656 c 0,-0.43744 -0.16228,-0.67027 -0.52211,-0.67027 -0.23636,0 -0.41275,0.127 -0.57502,0.28928 h -0.0106 l -0.0247,-0.24695 h -0.23989 z"
       style="font-family:'Source Sans Pro';-inkscape-font-specification:'Source Sans Pro';stroke:none"
       id="path28037" />
    <path
       d="m 128.40187,108.2869 c 0,0.56091 0.36336,0.89605 0.82197,0.89605 0.23284,0 0.41628,-0.0811 0.56445,-0.17639 l -0.10231,-0.1905 c -0.127,0.0811 -0.26458,0.13406 -0.42686,0.13406 -0.32808,0 -0.55033,-0.23284 -0.5715,-0.60325 h 1.15711 c 0.007,-0.0423 0.0106,-0.0988 0.0106,-0.15875 0,-0.49036 -0.24694,-0.80433 -0.68438,-0.80433 -0.39159,0 -0.76906,0.34219 -0.76906,0.90311 z m 0.28222,-0.13053 c 0.0353,-0.34572 0.254,-0.54328 0.49389,-0.54328 0.26811,0 0.42333,0.19403 0.42333,0.54328 z"
       style="font-family:'Source Sans Pro';-inkscape-font-specification:'Source Sans Pro';stroke:none"
       id="path28039" />
    <path
       d="m 130.27865,109.14062 h 0.28927 v -1.24178 c 0.17287,-0.17286 0.29281,-0.26458 0.4692,-0.26458 0.22578,0 0.32455,0.13758 0.32455,0.45861 v 1.04775 h 0.28928 v -1.08656 c 0,-0.43744 -0.16228,-0.67027 -0.52211,-0.67027 -0.23636,0 -0.41275,0.127 -0.57503,0.28928 h -0.0106 l -0.0247,-0.24695 h -0.23989 z"
       style="font-family:'Source Sans Pro';-inkscape-font-specification:'Source Sans Pro';stroke:none"
       id="path28041" />
    <path
       d="m 132.25773,108.61145 c 0,0.33867 0.12347,0.5715 0.49036,0.5715 0.10583,0 0.22225,-0.0318 0.3175,-0.0635 l -0.0564,-0.21872 c -0.0565,0.0212 -0.13406,0.0459 -0.19403,0.0459 -0.19756,0 -0.26458,-0.11994 -0.26458,-0.33161 v -0.9525 h 0.46213 v -0.23636 h -0.46213 v -0.47978 h -0.24342 l -0.0353,0.47978 -0.26811,0.0176 v 0.21872 h 0.254 z"
       style="font-family:'Source Sans Pro';-inkscape-font-specification:'Source Sans Pro';stroke:none"
       id="path28043" />
  </g>
  <path
     id="path7519"
     style="fill:#1d232d;fill-opacity:1;stroke:#6f8ce9;stroke-width:0.264583;stroke-linecap:round;stroke-miterlimit:22;stroke-dasharray:none;stroke-opacity:1"
     d="m 79.251227,104.11354 -1.06688,0.95591 v 6.14516 l 1.06688,0.95592 h 8.449601 l 1.066853,-0.95592 v -6.14516 l -1.066853,-0.95591 z"
     inkscape:connector-curvature="0"
     sodipodi:nodetypes="ccccccccc" />
  <path
     inkscape:connector-curvature="0"
     d="m 79.276812,104.11354 -1.092465,0.95591 4.779566,2.75946 h 1.024202 l 4.779566,-2.75946 -1.092465,-0.95591 z"
     style="fill:#6f8ce9;fill-opacity:1;stroke:none;stroke-width:0.264583;stroke-linecap:square;stroke-miterlimit:22;stroke-dasharray:none;stroke-opacity:1"
     id="path7521" />
  <g
     style="fill:#6f8ce9;fill-opacity:1;stroke-width:123.849"
     transform="matrix(-0.00211827,-0.00366895,0.00373178,-0.00215454,89.607627,109.83004)"
     id="g7527">
    <g
       style="fill:#6f8ce9;fill-opacity:1;stroke-width:123.849"
       id="g7525">
      <path
         style="fill:#6f8ce9;fill-opacity:1;stroke-width:123.849"
         inkscape:connector-curvature="0"
         d="M 486.413,221.412 122.347,12.916 C 69.409,-17.402 26.495,7.476 26.495,68.479 v 415.652 c 0,61.004 42.914,85.882 95.852,55.563 l 364.066,-208.49 c 52.938,-30.317 52.938,-79.473 0,-109.792 z"
         id="path7523" />
    </g>
  </g>
</svg>
