<?xml version="1.0" encoding="UTF-8" standalone="no"?>
<svg
   width="147.10834mm"
   height="137.84792mm"
   version="1.1"
   viewBox="0 0 147.10834 137.84791"
   id="svg25770"
   sodipodi:docname="messaging.svg"
   inkscape:version="1.2.2 (732a01da63, 2022-12-09)"
   xmlns:inkscape="http://www.inkscape.org/namespaces/inkscape"
   xmlns:sodipodi="http://sodipodi.sourceforge.net/DTD/sodipodi-0.dtd"
   xmlns="http://www.w3.org/2000/svg"
   xmlns:svg="http://www.w3.org/2000/svg"
   xmlns:rdf="http://www.w3.org/1999/02/22-rdf-syntax-ns#"
   xmlns:cc="http://creativecommons.org/ns#"
   xmlns:dc="http://purl.org/dc/elements/1.1/">
  <defs
     id="defs25774" />
  <sodipodi:namedview
     id="namedview25772"
     pagecolor="#ffffff"
     bordercolor="#000000"
     borderopacity="0.25"
     inkscape:showpageshadow="2"
     inkscape:pageopacity="0.0"
     inkscape:pagecheckerboard="0"
     inkscape:deskcolor="#d1d1d1"
     inkscape:document-units="mm"
     showgrid="false"
     inkscape:zoom="0.80325078"
     inkscape:cx="259.57024"
     inkscape:cy="255.21295"
     inkscape:window-width="1366"
     inkscape:window-height="705"
     inkscape:window-x="1912"
     inkscape:window-y="77"
     inkscape:window-maximized="1"
     inkscape:current-layer="svg25770" />
  <metadata
     id="metadata25472">
    <rdf:RDF>
      <cc:Work
         rdf:about="">
        <dc:format>image/svg+xml</dc:format>
        <dc:type
           rdf:resource="http://purl.org/dc/dcmitype/StillImage" />
        <dc:title />
      </cc:Work>
    </rdf:RDF>
  </metadata>
  <rect
     y="1.4552078"
     x="63.63229"
     height="136.26042"
     width="19.84375"
     id="rect6765"
     style="fill:#1d232d;fill-opacity:1;stroke:#fbb227;stroke-width:0.264581;stroke-linecap:round;stroke-miterlimit:4;stroke-dasharray:none;stroke-opacity:1" />
  <path
     sodipodi:nodetypes="ccccc"
     inkscape:connector-curvature="0"
     d="M 0.1323185,0.1322915 H 45.111484 V 16.007291 H 0.1323185 Z"
     style="fill:#1d232d;fill-opacity:1;stroke:#6f8ce9;stroke-width:0.264583;stroke-linecap:round;stroke-miterlimit:4;stroke-dasharray:none;stroke-opacity:1"
     id="path6813" />
  <rect
     y="2.7781248"
     x="45.243752"
     height="10.583333"
     width="18.520834"
     id="rect6815"
     style="fill:#1d232d;fill-opacity:1;stroke:none;stroke-width:0.264583;stroke-linecap:square;stroke-miterlimit:22;stroke-dasharray:none;stroke-dashoffset:0;stroke-opacity:1" />
  <path
     inkscape:connector-curvature="0"
     id="path6817"
     d="M 45.376041,2.7781248 H 63.63229"
     style="fill:none;fill-opacity:1;stroke:#fbb227;stroke-width:0.264583;stroke-linecap:square;stroke-miterlimit:22;stroke-dasharray:none;stroke-dashoffset:0;stroke-opacity:1" />
  <path
     style="fill:none;fill-opacity:1;stroke:#fbb227;stroke-width:0.264583;stroke-linecap:square;stroke-miterlimit:22;stroke-dasharray:none;stroke-dashoffset:0;stroke-opacity:1"
     d="M 45.376041,13.361458 H 63.63229"
     id="path6821"
     inkscape:connector-curvature="0" />
  <g
     aria-label="Component"
     id="text6825"
     style="font-size:3.52777px;line-height:1.25;font-family:'Small Fonts';-inkscape-font-specification:'Small Fonts';text-align:center;text-anchor:middle;fill:#86ecec;stroke:#cf2f25;stroke-width:0.264583;stroke-linecap:round">
    <path
       d="m 14.042334,7.9710157 c 0,0.7549428 0.433916,1.1994418 1.015998,1.1994418 0.292805,0 0.52211,-0.123472 0.702026,-0.3351382 L 15.594553,8.6554031 c -0.148167,0.1658051 -0.310444,0.2575272 -0.529166,0.2575272 -0.440971,0 -0.719665,-0.3668881 -0.719665,-0.9489702 0,-0.5750265 0.292805,-0.934859 0.733776,-0.934859 0.1905,0 0.338666,0.084666 0.462138,0.2151939 l 0.165805,-0.1869718 c -0.137583,-0.1516941 -0.356304,-0.2857494 -0.63147,-0.2857494 -0.592666,0 -1.033637,0.4550824 -1.033637,1.1994419 z"
       style="font-family:'Source Sans Pro';-inkscape-font-specification:'Source Sans Pro';stroke:none"
       id="path29832" />
    <path
       d="m 16.028468,8.2744039 c 0,0.567971 0.373944,0.8960536 0.793749,0.8960536 0.419804,0 0.793748,-0.3280826 0.793748,-0.8960536 0,-0.5750265 -0.373944,-0.9031091 -0.793748,-0.9031091 -0.419805,0 -0.793749,0.3280826 -0.793749,0.9031091 z m 0.299861,0 c 0,-0.3951103 0.201083,-0.6632208 0.493888,-0.6632208 0.296332,0 0.493888,0.2681105 0.493888,0.6632208 0,0.3915825 -0.197556,0.6561652 -0.493888,0.6561652 -0.292805,0 -0.493888,-0.2645827 -0.493888,-0.6561652 z"
       style="font-family:'Source Sans Pro';-inkscape-font-specification:'Source Sans Pro';stroke:none"
       id="path29834" />
    <path
       d="m 18.067519,9.1281242 h 0.289277 v -1.241775 c 0.15875,-0.1763885 0.303388,-0.2645828 0.430388,-0.2645828 0.218722,0 0.321027,0.1375831 0.321027,0.4586101 v 1.0477477 h 0.289277 v -1.241775 c 0.15875,-0.1763885 0.296333,-0.2645828 0.430388,-0.2645828 0.215194,0 0.3175,0.1375831 0.3175,0.4586101 v 1.0477477 h 0.289277 V 8.0415711 c 0,-0.4374435 -0.169333,-0.6702763 -0.52211,-0.6702763 -0.208139,0 -0.384527,0.1340552 -0.564443,0.3280826 -0.07056,-0.2046107 -0.211667,-0.3280826 -0.472722,-0.3280826 -0.20461,0 -0.384527,0.1269997 -0.532693,0.2892771 h -0.01058 L 18.307407,7.413628 h -0.239888 z"
       style="font-family:'Source Sans Pro';-inkscape-font-specification:'Source Sans Pro';stroke:none"
       id="path29836" />
    <path
       d="m 21.274263,8.9729024 c 0.15875,0.1234719 0.3175,0.1975551 0.476249,0.1975551 0.391583,0 0.740832,-0.3421937 0.740832,-0.9242758 0,-0.5326932 -0.23636,-0.8748869 -0.677332,-0.8748869 -0.201083,0 -0.391582,0.1093608 -0.546804,0.2398883 h -0.01058 L 21.23193,7.413628 h -0.239888 v 2.4376891 h 0.289277 V 9.2727628 Z m 0.0071,-0.2257773 V 7.8475437 c 0.169333,-0.1516941 0.313972,-0.2328328 0.45861,-0.2328328 0.324555,0 0.451555,0.2539994 0.451555,0.6314708 0,0.4233324 -0.208139,0.6808596 -0.49036,0.6808596 -0.112889,0 -0.264583,-0.049389 -0.419805,-0.1799162 z"
       style="font-family:'Source Sans Pro';-inkscape-font-specification:'Source Sans Pro';stroke:none"
       id="path29838" />
    <path
       d="m 22.822956,8.2744039 c 0,0.567971 0.373944,0.8960536 0.793748,0.8960536 0.419805,0 0.793749,-0.3280826 0.793749,-0.8960536 0,-0.5750265 -0.373944,-0.9031091 -0.793749,-0.9031091 -0.419804,0 -0.793748,0.3280826 -0.793748,0.9031091 z m 0.29986,0 c 0,-0.3951103 0.201083,-0.6632208 0.493888,-0.6632208 0.296333,0 0.493888,0.2681105 0.493888,0.6632208 0,0.3915825 -0.197555,0.6561652 -0.493888,0.6561652 -0.292805,0 -0.493888,-0.2645827 -0.493888,-0.6561652 z"
       style="font-family:'Source Sans Pro';-inkscape-font-specification:'Source Sans Pro';stroke:none"
       id="path29840" />
    <path
       d="m 24.862006,9.1281242 h 0.289277 v -1.241775 c 0.172861,-0.1728607 0.292805,-0.2645828 0.469194,-0.2645828 0.225777,0 0.324554,0.1375831 0.324554,0.4586101 v 1.0477477 h 0.289278 V 8.0415711 c 0,-0.4374435 -0.162278,-0.6702763 -0.52211,-0.6702763 -0.236361,0 -0.41275,0.1269997 -0.575027,0.2892771 h -0.01058 L 25.101894,7.413628 h -0.239888 z"
       style="font-family:'Source Sans Pro';-inkscape-font-specification:'Source Sans Pro';stroke:none"
       id="path29842" />
    <path
       d="m 26.6647,8.2744039 c 0,0.5609154 0.36336,0.8960536 0.82197,0.8960536 0.232833,0 0.416277,-0.081139 0.564443,-0.1763885 L 27.948808,8.8035694 c -0.127,0.081139 -0.264583,0.1340553 -0.42686,0.1340553 -0.328083,0 -0.550333,-0.2328329 -0.571499,-0.6032487 h 1.157108 c 0.0071,-0.042333 0.01058,-0.098778 0.01058,-0.1587497 0,-0.49036 -0.246944,-0.8043315 -0.684388,-0.8043315 -0.391582,0 -0.769053,0.3421937 -0.769053,0.9031091 z m 0.282221,-0.1305275 c 0.03528,-0.3457215 0.254,-0.5432766 0.493888,-0.5432766 0.26811,0 0.423332,0.1940274 0.423332,0.5432766 z"
       style="font-family:'Source Sans Pro';-inkscape-font-specification:'Source Sans Pro';stroke:none"
       id="path29844" />
    <path
       d="m 28.541474,9.1281242 h 0.289277 v -1.241775 c 0.172861,-0.1728607 0.292805,-0.2645828 0.469194,-0.2645828 0.225777,0 0.324555,0.1375831 0.324555,0.4586101 v 1.0477477 h 0.289277 V 8.0415711 c 0,-0.4374435 -0.162278,-0.6702763 -0.52211,-0.6702763 -0.236361,0 -0.412749,0.1269997 -0.575027,0.2892771 h -0.01058 L 28.781363,7.413628 h -0.239889 z"
       style="font-family:'Source Sans Pro';-inkscape-font-specification:'Source Sans Pro';stroke:none"
       id="path29846" />
    <path
       d="m 30.520557,8.5989587 c 0,0.338666 0.123472,0.5714988 0.49036,0.5714988 0.105833,0 0.22225,-0.03175 0.317499,-0.0635 l -0.05644,-0.2187217 c -0.05644,0.021167 -0.134055,0.045861 -0.194027,0.045861 -0.197555,0 -0.264583,-0.1199442 -0.264583,-0.3316104 V 7.6499886 H 31.2755 V 7.413628 H 30.813362 V 6.9338513 h -0.243416 l -0.03528,0.4797767 -0.26811,0.017639 v 0.2187218 h 0.253999 z"
       style="font-family:'Source Sans Pro';-inkscape-font-specification:'Source Sans Pro';stroke:none"
       id="path29848" />
  </g>
  <path
     id="path6827"
     style="fill:#1d232d;fill-opacity:1;stroke:#6f8ce9;stroke-width:0.264583;stroke-linecap:round;stroke-miterlimit:4;stroke-dasharray:none;stroke-opacity:1"
     d="M 0.1322915,31.882291 H 45.111457 v 15.875 H 0.1322915 Z"
     inkscape:connector-curvature="0"
     sodipodi:nodetypes="ccccc" />
  <rect
     style="fill:#1d232d;fill-opacity:1;stroke:none;stroke-width:0.264583;stroke-linecap:square;stroke-miterlimit:22;stroke-dasharray:none;stroke-dashoffset:0;stroke-opacity:1"
     id="rect6829"
     width="18.520834"
     height="10.583333"
     x="45.243752"
     y="34.528126" />
  <path
     style="fill:none;fill-opacity:1;stroke:#fbb227;stroke-width:0.264583;stroke-linecap:square;stroke-miterlimit:22;stroke-dasharray:none;stroke-dashoffset:0;stroke-opacity:1"
     d="M 45.376041,34.528124 H 63.63229"
     id="path6831"
     inkscape:connector-curvature="0" />
  <path
     inkscape:connector-curvature="0"
     id="path6833"
     d="M 45.376041,45.111458 H 63.63229"
     style="fill:none;fill-opacity:1;stroke:#fbb227;stroke-width:0.264583;stroke-linecap:square;stroke-miterlimit:22;stroke-dasharray:none;stroke-dashoffset:0;stroke-opacity:1" />
  <g
     aria-label="Component"
     id="text6837"
     style="font-size:3.52777px;line-height:1.25;font-family:'Small Fonts';-inkscape-font-specification:'Small Fonts';text-align:center;text-anchor:middle;fill:#ff867f;stroke:#cf2f25;stroke-width:0.264583;stroke-linecap:round">
    <path
       d="m 14.042334,39.721016 c 0,0.754942 0.433916,1.199441 1.015998,1.199441 0.292805,0 0.52211,-0.123471 0.702026,-0.335138 l -0.165805,-0.179916 c -0.148167,0.165805 -0.310444,0.257527 -0.529166,0.257527 -0.440971,0 -0.719665,-0.366888 -0.719665,-0.94897 0,-0.575026 0.292805,-0.934859 0.733776,-0.934859 0.1905,0 0.338666,0.08467 0.462138,0.215194 l 0.165805,-0.186972 c -0.137583,-0.151694 -0.356304,-0.285749 -0.63147,-0.285749 -0.592666,0 -1.033637,0.455082 -1.033637,1.199442 z"
       style="font-family:'Source Sans Pro';-inkscape-font-specification:'Source Sans Pro';stroke:none"
       id="path29851" />
    <path
       d="m 16.028468,40.024404 c 0,0.567971 0.373944,0.896053 0.793749,0.896053 0.419804,0 0.793748,-0.328082 0.793748,-0.896053 0,-0.575027 -0.373944,-0.903109 -0.793748,-0.903109 -0.419805,0 -0.793749,0.328082 -0.793749,0.903109 z m 0.299861,0 c 0,-0.39511 0.201083,-0.663221 0.493888,-0.663221 0.296332,0 0.493888,0.268111 0.493888,0.663221 0,0.391582 -0.197556,0.656165 -0.493888,0.656165 -0.292805,0 -0.493888,-0.264583 -0.493888,-0.656165 z"
       style="font-family:'Source Sans Pro';-inkscape-font-specification:'Source Sans Pro';stroke:none"
       id="path29853" />
    <path
       d="m 18.067519,40.878124 h 0.289277 v -1.241775 c 0.15875,-0.176388 0.303388,-0.264583 0.430388,-0.264583 0.218722,0 0.321027,0.137583 0.321027,0.458611 v 1.047747 h 0.289277 v -1.241775 c 0.15875,-0.176388 0.296333,-0.264583 0.430388,-0.264583 0.215194,0 0.3175,0.137583 0.3175,0.458611 v 1.047747 h 0.289277 v -1.086553 c 0,-0.437443 -0.169333,-0.670276 -0.52211,-0.670276 -0.208139,0 -0.384527,0.134055 -0.564443,0.328082 -0.07056,-0.20461 -0.211667,-0.328082 -0.472722,-0.328082 -0.20461,0 -0.384527,0.126999 -0.532693,0.289277 h -0.01058 l -0.02469,-0.246944 h -0.239888 z"
       style="font-family:'Source Sans Pro';-inkscape-font-specification:'Source Sans Pro';stroke:none"
       id="path29855" />
    <path
       d="m 21.274263,40.722902 c 0.15875,0.123472 0.3175,0.197555 0.476249,0.197555 0.391583,0 0.740832,-0.342193 0.740832,-0.924275 0,-0.532694 -0.23636,-0.874887 -0.677332,-0.874887 -0.201083,0 -0.391582,0.109361 -0.546804,0.239888 h -0.01058 l -0.0247,-0.197555 h -0.239888 v 2.437689 h 0.289277 v -0.578554 z m 0.0071,-0.225777 v -0.899581 c 0.169333,-0.151694 0.313972,-0.232833 0.45861,-0.232833 0.324555,0 0.451555,0.253999 0.451555,0.631471 0,0.423332 -0.208139,0.680859 -0.49036,0.680859 -0.112889,0 -0.264583,-0.04939 -0.419805,-0.179916 z"
       style="font-family:'Source Sans Pro';-inkscape-font-specification:'Source Sans Pro';stroke:none"
       id="path29857" />
    <path
       d="m 22.822956,40.024404 c 0,0.567971 0.373944,0.896053 0.793748,0.896053 0.419805,0 0.793749,-0.328082 0.793749,-0.896053 0,-0.575027 -0.373944,-0.903109 -0.793749,-0.903109 -0.419804,0 -0.793748,0.328082 -0.793748,0.903109 z m 0.29986,0 c 0,-0.39511 0.201083,-0.663221 0.493888,-0.663221 0.296333,0 0.493888,0.268111 0.493888,0.663221 0,0.391582 -0.197555,0.656165 -0.493888,0.656165 -0.292805,0 -0.493888,-0.264583 -0.493888,-0.656165 z"
       style="font-family:'Source Sans Pro';-inkscape-font-specification:'Source Sans Pro';stroke:none"
       id="path29859" />
    <path
       d="m 24.862006,40.878124 h 0.289277 v -1.241775 c 0.172861,-0.172861 0.292805,-0.264583 0.469194,-0.264583 0.225777,0 0.324554,0.137583 0.324554,0.458611 v 1.047747 h 0.289278 v -1.086553 c 0,-0.437443 -0.162278,-0.670276 -0.52211,-0.670276 -0.236361,0 -0.41275,0.126999 -0.575027,0.289277 h -0.01058 l -0.02469,-0.246944 h -0.239888 z"
       style="font-family:'Source Sans Pro';-inkscape-font-specification:'Source Sans Pro';stroke:none"
       id="path29861" />
    <path
       d="m 26.6647,40.024404 c 0,0.560915 0.36336,0.896053 0.82197,0.896053 0.232833,0 0.416277,-0.08114 0.564443,-0.176388 l -0.102305,-0.1905 c -0.127,0.08114 -0.264583,0.134056 -0.42686,0.134056 -0.328083,0 -0.550333,-0.232833 -0.571499,-0.603249 h 1.157108 c 0.0071,-0.04233 0.01058,-0.09878 0.01058,-0.15875 0,-0.49036 -0.246944,-0.804331 -0.684388,-0.804331 -0.391582,0 -0.769053,0.342193 -0.769053,0.903109 z m 0.282221,-0.130528 c 0.03528,-0.345721 0.254,-0.543276 0.493888,-0.543276 0.26811,0 0.423332,0.194027 0.423332,0.543276 z"
       style="font-family:'Source Sans Pro';-inkscape-font-specification:'Source Sans Pro';stroke:none"
       id="path29863" />
    <path
       d="m 28.541474,40.878124 h 0.289277 v -1.241775 c 0.172861,-0.172861 0.292805,-0.264583 0.469194,-0.264583 0.225777,0 0.324555,0.137583 0.324555,0.458611 v 1.047747 h 0.289277 v -1.086553 c 0,-0.437443 -0.162278,-0.670276 -0.52211,-0.670276 -0.236361,0 -0.412749,0.126999 -0.575027,0.289277 h -0.01058 l -0.02469,-0.246944 h -0.239889 z"
       style="font-family:'Source Sans Pro';-inkscape-font-specification:'Source Sans Pro';stroke:none"
       id="path29865" />
    <path
       d="m 30.520557,40.348959 c 0,0.338666 0.123472,0.571498 0.49036,0.571498 0.105833,0 0.22225,-0.03175 0.317499,-0.0635 l -0.05644,-0.218722 c -0.05644,0.02117 -0.134055,0.04586 -0.194027,0.04586 -0.197555,0 -0.264583,-0.119944 -0.264583,-0.33161 V 39.399989 H 31.2755 v -0.236361 h -0.462138 v -0.479777 h -0.243416 l -0.03528,0.479777 -0.26811,0.01764 v 0.218722 h 0.253999 z"
       style="font-family:'Source Sans Pro';-inkscape-font-specification:'Source Sans Pro';stroke:none"
       id="path29867" />
  </g>
  <path
     sodipodi:nodetypes="ccccc"
     inkscape:connector-curvature="0"
     d="M 0.1323185,63.632291 H 45.111484 V 79.50729 H 0.1323185 Z"
     style="fill:#1d232d;fill-opacity:1;stroke:#6f8ce9;stroke-width:0.264583;stroke-linecap:round;stroke-miterlimit:4;stroke-dasharray:none;stroke-opacity:1"
     id="path6839" />
  <rect
     y="66.278122"
     x="45.243752"
     height="10.583333"
     width="18.520834"
     id="rect6841"
     style="fill:#1d232d;fill-opacity:1;stroke:none;stroke-width:0.264583;stroke-linecap:square;stroke-miterlimit:22;stroke-dasharray:none;stroke-dashoffset:0;stroke-opacity:1" />
  <path
     inkscape:connector-curvature="0"
     id="path6843"
     d="M 45.376041,66.278124 H 63.63229"
     style="fill:none;fill-opacity:1;stroke:#fbb227;stroke-width:0.264583;stroke-linecap:square;stroke-miterlimit:22;stroke-dasharray:none;stroke-dashoffset:0;stroke-opacity:1" />
  <path
     style="fill:none;fill-opacity:1;stroke:#fbb227;stroke-width:0.264583;stroke-linecap:square;stroke-miterlimit:22;stroke-dasharray:none;stroke-dashoffset:0;stroke-opacity:1"
     d="M 45.376041,76.861457 H 63.63229"
     id="path6845"
     inkscape:connector-curvature="0" />
  <g
     aria-label="Component"
     id="text6849"
     style="font-size:3.52777px;line-height:1.25;font-family:'Small Fonts';-inkscape-font-specification:'Small Fonts';text-align:center;text-anchor:middle;fill:#47d58a;stroke:#cf2f25;stroke-width:0.264583;stroke-linecap:round">
    <path
       d="m 14.042334,71.471012 c 0,0.754943 0.433916,1.199442 1.015998,1.199442 0.292805,0 0.52211,-0.123472 0.702026,-0.335138 l -0.165805,-0.179917 c -0.148167,0.165805 -0.310444,0.257527 -0.529166,0.257527 -0.440971,0 -0.719665,-0.366888 -0.719665,-0.94897 0,-0.575026 0.292805,-0.934859 0.733776,-0.934859 0.1905,0 0.338666,0.08467 0.462138,0.215194 l 0.165805,-0.186972 c -0.137583,-0.151694 -0.356304,-0.285749 -0.63147,-0.285749 -0.592666,0 -1.033637,0.455082 -1.033637,1.199442 z"
       style="font-family:'Source Sans Pro';-inkscape-font-specification:'Source Sans Pro';stroke:none"
       id="path29870" />
    <path
       d="m 16.028468,71.7744 c 0,0.567971 0.373944,0.896054 0.793749,0.896054 0.419804,0 0.793748,-0.328083 0.793748,-0.896054 0,-0.575026 -0.373944,-0.903109 -0.793748,-0.903109 -0.419805,0 -0.793749,0.328083 -0.793749,0.903109 z m 0.299861,0 c 0,-0.39511 0.201083,-0.663221 0.493888,-0.663221 0.296332,0 0.493888,0.268111 0.493888,0.663221 0,0.391583 -0.197556,0.656165 -0.493888,0.656165 -0.292805,0 -0.493888,-0.264582 -0.493888,-0.656165 z"
       style="font-family:'Source Sans Pro';-inkscape-font-specification:'Source Sans Pro';stroke:none"
       id="path29872" />
    <path
       d="m 18.067519,72.62812 h 0.289277 v -1.241775 c 0.15875,-0.176388 0.303388,-0.264582 0.430388,-0.264582 0.218722,0 0.321027,0.137583 0.321027,0.45861 v 1.047747 h 0.289277 v -1.241775 c 0.15875,-0.176388 0.296333,-0.264582 0.430388,-0.264582 0.215194,0 0.3175,0.137583 0.3175,0.45861 v 1.047747 h 0.289277 v -1.086553 c 0,-0.437443 -0.169333,-0.670276 -0.52211,-0.670276 -0.208139,0 -0.384527,0.134055 -0.564443,0.328083 -0.07056,-0.204611 -0.211667,-0.328083 -0.472722,-0.328083 -0.20461,0 -0.384527,0.127 -0.532693,0.289277 h -0.01058 l -0.02469,-0.246944 h -0.239888 z"
       style="font-family:'Source Sans Pro';-inkscape-font-specification:'Source Sans Pro';stroke:none"
       id="path29874" />
    <path
       d="m 21.274263,72.472899 c 0.15875,0.123471 0.3175,0.197555 0.476249,0.197555 0.391583,0 0.740832,-0.342194 0.740832,-0.924276 0,-0.532693 -0.23636,-0.874887 -0.677332,-0.874887 -0.201083,0 -0.391582,0.109361 -0.546804,0.239888 h -0.01058 l -0.0247,-0.197555 h -0.239888 v 2.437689 h 0.289277 v -0.578554 z m 0.0071,-0.225778 V 71.34754 c 0.169333,-0.151694 0.313972,-0.232833 0.45861,-0.232833 0.324555,0 0.451555,0.254 0.451555,0.631471 0,0.423332 -0.208139,0.68086 -0.49036,0.68086 -0.112889,0 -0.264583,-0.04939 -0.419805,-0.179917 z"
       style="font-family:'Source Sans Pro';-inkscape-font-specification:'Source Sans Pro';stroke:none"
       id="path29876" />
    <path
       d="m 22.822956,71.7744 c 0,0.567971 0.373944,0.896054 0.793748,0.896054 0.419805,0 0.793749,-0.328083 0.793749,-0.896054 0,-0.575026 -0.373944,-0.903109 -0.793749,-0.903109 -0.419804,0 -0.793748,0.328083 -0.793748,0.903109 z m 0.29986,0 c 0,-0.39511 0.201083,-0.663221 0.493888,-0.663221 0.296333,0 0.493888,0.268111 0.493888,0.663221 0,0.391583 -0.197555,0.656165 -0.493888,0.656165 -0.292805,0 -0.493888,-0.264582 -0.493888,-0.656165 z"
       style="font-family:'Source Sans Pro';-inkscape-font-specification:'Source Sans Pro';stroke:none"
       id="path29878" />
    <path
       d="m 24.862006,72.62812 h 0.289277 v -1.241775 c 0.172861,-0.17286 0.292805,-0.264582 0.469194,-0.264582 0.225777,0 0.324554,0.137583 0.324554,0.45861 v 1.047747 h 0.289278 v -1.086553 c 0,-0.437443 -0.162278,-0.670276 -0.52211,-0.670276 -0.236361,0 -0.41275,0.127 -0.575027,0.289277 h -0.01058 l -0.02469,-0.246944 h -0.239888 z"
       style="font-family:'Source Sans Pro';-inkscape-font-specification:'Source Sans Pro';stroke:none"
       id="path29880" />
    <path
       d="m 26.6647,71.7744 c 0,0.560916 0.36336,0.896054 0.82197,0.896054 0.232833,0 0.416277,-0.08114 0.564443,-0.176389 l -0.102305,-0.190499 c -0.127,0.08114 -0.264583,0.134055 -0.42686,0.134055 -0.328083,0 -0.550333,-0.232833 -0.571499,-0.603249 h 1.157108 c 0.0071,-0.04233 0.01058,-0.09878 0.01058,-0.158749 0,-0.490361 -0.246944,-0.804332 -0.684388,-0.804332 -0.391582,0 -0.769053,0.342194 -0.769053,0.903109 z m 0.282221,-0.130527 c 0.03528,-0.345722 0.254,-0.543277 0.493888,-0.543277 0.26811,0 0.423332,0.194027 0.423332,0.543277 z"
       style="font-family:'Source Sans Pro';-inkscape-font-specification:'Source Sans Pro';stroke:none"
       id="path29882" />
    <path
       d="m 28.541474,72.62812 h 0.289277 v -1.241775 c 0.172861,-0.17286 0.292805,-0.264582 0.469194,-0.264582 0.225777,0 0.324555,0.137583 0.324555,0.45861 v 1.047747 h 0.289277 v -1.086553 c 0,-0.437443 -0.162278,-0.670276 -0.52211,-0.670276 -0.236361,0 -0.412749,0.127 -0.575027,0.289277 h -0.01058 l -0.02469,-0.246944 h -0.239889 z"
       style="font-family:'Source Sans Pro';-inkscape-font-specification:'Source Sans Pro';stroke:none"
       id="path29884" />
    <path
       d="m 30.520557,72.098955 c 0,0.338666 0.123472,0.571499 0.49036,0.571499 0.105833,0 0.22225,-0.03175 0.317499,-0.0635 l -0.05644,-0.218722 c -0.05644,0.02117 -0.134055,0.04586 -0.194027,0.04586 -0.197555,0 -0.264583,-0.119944 -0.264583,-0.33161 V 71.149985 H 31.2755 v -0.236361 h -0.462138 v -0.479777 h -0.243416 l -0.03528,0.479777 -0.26811,0.01764 v 0.218722 h 0.253999 z"
       style="font-family:'Source Sans Pro';-inkscape-font-specification:'Source Sans Pro';stroke:none"
       id="path29886" />
  </g>
  <path
     id="path6863"
     style="fill:#1d232d;fill-opacity:1;stroke:#6f8ce9;stroke-width:0.264583;stroke-linecap:round;stroke-miterlimit:4;stroke-dasharray:none;stroke-opacity:1"
     d="m 146.97604,82.153124 h -44.97917 v 15.875 h 44.97917 z"
     inkscape:connector-curvature="0"
     sodipodi:nodetypes="ccccc" />
  <rect
     transform="scale(-1,1)"
     style="fill:#1d232d;fill-opacity:1;stroke:none;stroke-width:0.264583;stroke-linecap:square;stroke-miterlimit:22;stroke-dasharray:none;stroke-dashoffset:0;stroke-opacity:1"
     id="rect6865"
     width="18.520834"
     height="10.583333"
     x="-101.86458"
     y="84.798958" />
  <path
     style="fill:none;fill-opacity:1;stroke:#2f3744;stroke-width:0.264583;stroke-linecap:square;stroke-miterlimit:22;stroke-dasharray:none;stroke-dashoffset:0;stroke-opacity:1"
     d="M 101.73232,84.798957 H 83.476067"
     id="path6867"
     inkscape:connector-curvature="0" />
  <path
     sodipodi:nodetypes="ccccccccc"
     inkscape:connector-curvature="0"
     d="m 86.924169,85.85729 -1.066879,0.955913 v 6.145163 l 1.066879,0.955913 h 8.449601 l 1.066853,-0.955913 V 86.813203 L 95.37377,85.85729 Z"
     style="fill:#1d232d;fill-opacity:1;stroke:#fbb227;stroke-width:0.264583;stroke-linecap:round;stroke-miterlimit:22;stroke-dasharray:none;stroke-opacity:1"
     id="path6809" />
  <path
     id="path6811"
     style="fill:#6f8ce9;fill-opacity:1;stroke:none;stroke-width:0.264583;stroke-linecap:square;stroke-miterlimit:22;stroke-dasharray:none;stroke-opacity:1"
     d="m 86.949755,85.85729 -1.092465,0.955913 4.779566,2.759456 h 1.024202 l 4.779565,-2.759456 -1.092464,-0.955913 z"
     inkscape:connector-curvature="0" />
  <path
     inkscape:connector-curvature="0"
     id="path6869"
     d="M 101.73232,95.38229 H 83.476067"
     style="fill:none;fill-opacity:1;stroke:#fbb227;stroke-width:0.264583;stroke-linecap:square;stroke-miterlimit:22;stroke-dasharray:none;stroke-dashoffset:0;stroke-opacity:1" />
  <g
     aria-label="Component"
     id="text6873"
     style="font-size:3.52777px;line-height:1.25;font-family:'Small Fonts';-inkscape-font-specification:'Small Fonts';text-align:center;text-anchor:middle;fill:#86ecec;stroke:#cf2f25;stroke-width:0.264583;stroke-linecap:round">
    <path
       d="m 115.77953,89.991848 c 0,0.754943 0.43392,1.199442 1.016,1.199442 0.2928,0 0.52211,-0.123472 0.70202,-0.335139 l -0.1658,-0.179916 c -0.14817,0.165805 -0.31045,0.257527 -0.52917,0.257527 -0.44097,0 -0.71966,-0.366888 -0.71966,-0.94897 0,-0.575026 0.2928,-0.934859 0.73377,-0.934859 0.1905,0 0.33867,0.08467 0.46214,0.215194 l 0.16581,-0.186972 c -0.13759,-0.151694 -0.35631,-0.285749 -0.63147,-0.285749 -0.59267,0 -1.03364,0.455082 -1.03364,1.199442 z"
       style="font-family:'Source Sans Pro';-inkscape-font-specification:'Source Sans Pro';stroke:none"
       id="path29889" />
    <path
       d="m 117.76566,90.295236 c 0,0.567971 0.37395,0.896054 0.79375,0.896054 0.41981,0 0.79375,-0.328083 0.79375,-0.896054 0,-0.575027 -0.37394,-0.903109 -0.79375,-0.903109 -0.4198,0 -0.79375,0.328082 -0.79375,0.903109 z m 0.29986,0 c 0,-0.39511 0.20109,-0.663221 0.49389,-0.663221 0.29634,0 0.49389,0.268111 0.49389,0.663221 0,0.391582 -0.19755,0.656165 -0.49389,0.656165 -0.2928,0 -0.49389,-0.264583 -0.49389,-0.656165 z"
       style="font-family:'Source Sans Pro';-inkscape-font-specification:'Source Sans Pro';stroke:none"
       id="path29891" />
    <path
       d="m 119.80471,91.148956 h 0.28928 v -1.241775 c 0.15875,-0.176388 0.30339,-0.264583 0.43039,-0.264583 0.21872,0 0.32103,0.137584 0.32103,0.458611 v 1.047747 h 0.28927 v -1.241775 c 0.15875,-0.176388 0.29634,-0.264583 0.43039,-0.264583 0.2152,0 0.3175,0.137584 0.3175,0.458611 v 1.047747 h 0.28928 v -1.086553 c 0,-0.437443 -0.16933,-0.670276 -0.52211,-0.670276 -0.20814,0 -0.38453,0.134055 -0.56444,0.328082 -0.0706,-0.20461 -0.21167,-0.328082 -0.47273,-0.328082 -0.20461,0 -0.38452,0.127 -0.53269,0.289277 h -0.0106 l -0.0247,-0.246944 h -0.23989 z"
       style="font-family:'Source Sans Pro';-inkscape-font-specification:'Source Sans Pro';stroke:none"
       id="path29893" />
    <path
       d="m 123.01146,90.993734 c 0.15875,0.123472 0.3175,0.197556 0.47625,0.197556 0.39158,0 0.74083,-0.342194 0.74083,-0.924276 0,-0.532693 -0.23636,-0.874887 -0.67733,-0.874887 -0.20108,0 -0.39158,0.109361 -0.54681,0.239888 h -0.0106 l -0.0247,-0.197555 h -0.23989 v 2.437689 h 0.28927 v -0.578554 z m 0.007,-0.225777 v -0.899581 c 0.16934,-0.151694 0.31398,-0.232833 0.45862,-0.232833 0.32455,0 0.45155,0.253999 0.45155,0.631471 0,0.423332 -0.20814,0.680859 -0.49036,0.680859 -0.11289,0 -0.26458,-0.04939 -0.41981,-0.179916 z"
       style="font-family:'Source Sans Pro';-inkscape-font-specification:'Source Sans Pro';stroke:none"
       id="path29895" />
    <path
       d="m 124.56015,90.295236 c 0,0.567971 0.37395,0.896054 0.79375,0.896054 0.4198,0 0.79375,-0.328083 0.79375,-0.896054 0,-0.575027 -0.37395,-0.903109 -0.79375,-0.903109 -0.4198,0 -0.79375,0.328082 -0.79375,0.903109 z m 0.29986,0 c 0,-0.39511 0.20109,-0.663221 0.49389,-0.663221 0.29633,0 0.49389,0.268111 0.49389,0.663221 0,0.391582 -0.19756,0.656165 -0.49389,0.656165 -0.2928,0 -0.49389,-0.264583 -0.49389,-0.656165 z"
       style="font-family:'Source Sans Pro';-inkscape-font-specification:'Source Sans Pro';stroke:none"
       id="path29897" />
    <path
       d="m 126.5992,91.148956 h 0.28928 v -1.241775 c 0.17286,-0.17286 0.2928,-0.264583 0.46919,-0.264583 0.22578,0 0.32456,0.137584 0.32456,0.458611 v 1.047747 h 0.28927 v -1.086553 c 0,-0.437443 -0.16227,-0.670276 -0.52211,-0.670276 -0.23636,0 -0.41274,0.127 -0.57502,0.289277 h -0.0106 l -0.0247,-0.246944 h -0.23989 z"
       style="font-family:'Source Sans Pro';-inkscape-font-specification:'Source Sans Pro';stroke:none"
       id="path29899" />
    <path
       d="m 128.4019,90.295236 c 0,0.560915 0.36336,0.896054 0.82197,0.896054 0.23283,0 0.41627,-0.08114 0.56444,-0.176389 l -0.10231,-0.1905 c -0.127,0.08114 -0.26458,0.134056 -0.42686,0.134056 -0.32808,0 -0.55033,-0.232833 -0.5715,-0.603249 h 1.15711 c 0.007,-0.04233 0.0106,-0.09878 0.0106,-0.15875 0,-0.49036 -0.24695,-0.804331 -0.68439,-0.804331 -0.39158,0 -0.76905,0.342194 -0.76905,0.903109 z m 0.28222,-0.130528 c 0.0353,-0.345721 0.254,-0.543276 0.49388,-0.543276 0.26812,0 0.42334,0.194027 0.42334,0.543276 z"
       style="font-family:'Source Sans Pro';-inkscape-font-specification:'Source Sans Pro';stroke:none"
       id="path29901" />
    <path
       d="m 130.27867,91.148956 h 0.28928 v -1.241775 c 0.17286,-0.17286 0.2928,-0.264583 0.46919,-0.264583 0.22578,0 0.32456,0.137584 0.32456,0.458611 v 1.047747 h 0.28927 v -1.086553 c 0,-0.437443 -0.16227,-0.670276 -0.52211,-0.670276 -0.23636,0 -0.41275,0.127 -0.57502,0.289277 h -0.0106 l -0.0247,-0.246944 h -0.23989 z"
       style="font-family:'Source Sans Pro';-inkscape-font-specification:'Source Sans Pro';stroke:none"
       id="path29903" />
    <path
       d="m 132.25775,90.619791 c 0,0.338666 0.12348,0.571499 0.49036,0.571499 0.10584,0 0.22225,-0.03175 0.3175,-0.0635 l -0.0564,-0.218722 c -0.0565,0.02117 -0.13406,0.04586 -0.19403,0.04586 -0.19755,0 -0.26458,-0.119944 -0.26458,-0.33161 v -0.952498 h 0.46214 V 89.43446 h -0.46214 v -0.479777 h -0.24342 l -0.0353,0.479777 -0.26811,0.01764 v 0.218722 h 0.254 z"
       style="font-family:'Source Sans Pro';-inkscape-font-specification:'Source Sans Pro';stroke:none"
       id="path29905" />
  </g>
  <path
     sodipodi:nodetypes="ccccc"
     inkscape:connector-curvature="0"
     d="m 146.97604,47.757291 h -44.97917 v 15.875 h 44.97917 z"
     style="fill:#1d232d;fill-opacity:1;stroke:#6f8ce9;stroke-width:0.264583;stroke-linecap:round;stroke-miterlimit:4;stroke-dasharray:none;stroke-opacity:1"
     id="path6875" />
  <rect
     y="50.403126"
     x="-101.86458"
     height="10.583333"
     width="18.520834"
     id="rect6877"
     style="fill:#1d232d;fill-opacity:1;stroke:none;stroke-width:0.264583;stroke-linecap:square;stroke-miterlimit:22;stroke-dasharray:none;stroke-dashoffset:0;stroke-opacity:1"
     transform="scale(-1,1)" />
  <path
     inkscape:connector-curvature="0"
     id="path6879"
     d="M 101.73232,50.403124 H 83.476067"
     style="fill:none;fill-opacity:1;stroke:#fbb227;stroke-width:0.264583;stroke-linecap:square;stroke-miterlimit:22;stroke-dasharray:none;stroke-dashoffset:0;stroke-opacity:1" />
  <path
     style="fill:none;fill-opacity:1;stroke:#fbb227;stroke-width:0.264583;stroke-linecap:square;stroke-miterlimit:22;stroke-dasharray:none;stroke-dashoffset:0;stroke-opacity:1"
     d="M 101.73232,60.986457 H 83.476067"
     id="path6881"
     inkscape:connector-curvature="0" />
  <g
     aria-label="Component"
     id="text6885"
     style="font-size:3.52777px;line-height:1.25;font-family:'Small Fonts';-inkscape-font-specification:'Small Fonts';text-align:center;text-anchor:middle;fill:#6f8ce9;stroke:#cf2f25;stroke-width:0.264583;stroke-linecap:round">
    <path
       d="m 115.77953,55.596016 c 0,0.754942 0.43392,1.199441 1.016,1.199441 0.2928,0 0.52211,-0.123471 0.70202,-0.335138 l -0.1658,-0.179916 c -0.14817,0.165805 -0.31045,0.257527 -0.52917,0.257527 -0.44097,0 -0.71966,-0.366888 -0.71966,-0.94897 0,-0.575026 0.2928,-0.934859 0.73377,-0.934859 0.1905,0 0.33867,0.08467 0.46214,0.215194 l 0.16581,-0.186972 c -0.13759,-0.151694 -0.35631,-0.285749 -0.63147,-0.285749 -0.59267,0 -1.03364,0.455082 -1.03364,1.199442 z"
       style="font-family:'Source Sans Pro';-inkscape-font-specification:'Source Sans Pro';stroke:none"
       id="path29908" />
    <path
       d="m 117.76566,55.899404 c 0,0.567971 0.37395,0.896053 0.79375,0.896053 0.41981,0 0.79375,-0.328082 0.79375,-0.896053 0,-0.575027 -0.37394,-0.903109 -0.79375,-0.903109 -0.4198,0 -0.79375,0.328082 -0.79375,0.903109 z m 0.29986,0 c 0,-0.39511 0.20109,-0.663221 0.49389,-0.663221 0.29634,0 0.49389,0.268111 0.49389,0.663221 0,0.391582 -0.19755,0.656165 -0.49389,0.656165 -0.2928,0 -0.49389,-0.264583 -0.49389,-0.656165 z"
       style="font-family:'Source Sans Pro';-inkscape-font-specification:'Source Sans Pro';stroke:none"
       id="path29910" />
    <path
       d="m 119.80471,56.753124 h 0.28928 v -1.241775 c 0.15875,-0.176388 0.30339,-0.264583 0.43039,-0.264583 0.21872,0 0.32103,0.137583 0.32103,0.458611 v 1.047747 h 0.28927 v -1.241775 c 0.15875,-0.176388 0.29634,-0.264583 0.43039,-0.264583 0.2152,0 0.3175,0.137583 0.3175,0.458611 v 1.047747 h 0.28928 v -1.086553 c 0,-0.437443 -0.16933,-0.670276 -0.52211,-0.670276 -0.20814,0 -0.38453,0.134055 -0.56444,0.328082 -0.0706,-0.20461 -0.21167,-0.328082 -0.47273,-0.328082 -0.20461,0 -0.38452,0.126999 -0.53269,0.289277 h -0.0106 l -0.0247,-0.246944 h -0.23989 z"
       style="font-family:'Source Sans Pro';-inkscape-font-specification:'Source Sans Pro';stroke:none"
       id="path29912" />
    <path
       d="m 123.01146,56.597902 c 0.15875,0.123472 0.3175,0.197555 0.47625,0.197555 0.39158,0 0.74083,-0.342193 0.74083,-0.924275 0,-0.532694 -0.23636,-0.874887 -0.67733,-0.874887 -0.20108,0 -0.39158,0.109361 -0.54681,0.239888 h -0.0106 l -0.0247,-0.197555 h -0.23989 v 2.437689 h 0.28927 v -0.578554 z m 0.007,-0.225777 v -0.899581 c 0.16934,-0.151694 0.31398,-0.232833 0.45862,-0.232833 0.32455,0 0.45155,0.253999 0.45155,0.631471 0,0.423332 -0.20814,0.680859 -0.49036,0.680859 -0.11289,0 -0.26458,-0.04939 -0.41981,-0.179916 z"
       style="font-family:'Source Sans Pro';-inkscape-font-specification:'Source Sans Pro';stroke:none"
       id="path29914" />
    <path
       d="m 124.56015,55.899404 c 0,0.567971 0.37395,0.896053 0.79375,0.896053 0.4198,0 0.79375,-0.328082 0.79375,-0.896053 0,-0.575027 -0.37395,-0.903109 -0.79375,-0.903109 -0.4198,0 -0.79375,0.328082 -0.79375,0.903109 z m 0.29986,0 c 0,-0.39511 0.20109,-0.663221 0.49389,-0.663221 0.29633,0 0.49389,0.268111 0.49389,0.663221 0,0.391582 -0.19756,0.656165 -0.49389,0.656165 -0.2928,0 -0.49389,-0.264583 -0.49389,-0.656165 z"
       style="font-family:'Source Sans Pro';-inkscape-font-specification:'Source Sans Pro';stroke:none"
       id="path29916" />
    <path
       d="m 126.5992,56.753124 h 0.28928 v -1.241775 c 0.17286,-0.172861 0.2928,-0.264583 0.46919,-0.264583 0.22578,0 0.32456,0.137583 0.32456,0.458611 v 1.047747 h 0.28927 v -1.086553 c 0,-0.437443 -0.16227,-0.670276 -0.52211,-0.670276 -0.23636,0 -0.41274,0.126999 -0.57502,0.289277 h -0.0106 l -0.0247,-0.246944 h -0.23989 z"
       style="font-family:'Source Sans Pro';-inkscape-font-specification:'Source Sans Pro';stroke:none"
       id="path29918" />
    <path
       d="m 128.4019,55.899404 c 0,0.560915 0.36336,0.896053 0.82197,0.896053 0.23283,0 0.41627,-0.08114 0.56444,-0.176388 l -0.10231,-0.1905 c -0.127,0.08114 -0.26458,0.134056 -0.42686,0.134056 -0.32808,0 -0.55033,-0.232833 -0.5715,-0.603249 h 1.15711 c 0.007,-0.04233 0.0106,-0.09878 0.0106,-0.15875 0,-0.49036 -0.24695,-0.804331 -0.68439,-0.804331 -0.39158,0 -0.76905,0.342193 -0.76905,0.903109 z m 0.28222,-0.130528 c 0.0353,-0.345721 0.254,-0.543276 0.49388,-0.543276 0.26812,0 0.42334,0.194027 0.42334,0.543276 z"
       style="font-family:'Source Sans Pro';-inkscape-font-specification:'Source Sans Pro';stroke:none"
       id="path29920" />
    <path
       d="m 130.27867,56.753124 h 0.28928 v -1.241775 c 0.17286,-0.172861 0.2928,-0.264583 0.46919,-0.264583 0.22578,0 0.32456,0.137583 0.32456,0.458611 v 1.047747 h 0.28927 v -1.086553 c 0,-0.437443 -0.16227,-0.670276 -0.52211,-0.670276 -0.23636,0 -0.41275,0.126999 -0.57502,0.289277 h -0.0106 l -0.0247,-0.246944 h -0.23989 z"
       style="font-family:'Source Sans Pro';-inkscape-font-specification:'Source Sans Pro';stroke:none"
       id="path29922" />
    <path
       d="m 132.25775,56.223959 c 0,0.338666 0.12348,0.571498 0.49036,0.571498 0.10584,0 0.22225,-0.03175 0.3175,-0.0635 l -0.0564,-0.218722 c -0.0565,0.02117 -0.13406,0.04586 -0.19403,0.04586 -0.19755,0 -0.26458,-0.119944 -0.26458,-0.33161 v -0.952498 h 0.46214 v -0.236361 h -0.46214 v -0.479777 h -0.24342 l -0.0353,0.479777 -0.26811,0.01764 v 0.218722 h 0.254 z"
       style="font-family:'Source Sans Pro';-inkscape-font-specification:'Source Sans Pro';stroke:none"
       id="path29924" />
  </g>
  <path
     id="path6887"
     style="fill:#1d232d;fill-opacity:1;stroke:#ff867f;stroke-width:0.264583;stroke-linecap:round;stroke-miterlimit:22;stroke-dasharray:none;stroke-opacity:1"
     d="m 69.46167,85.85729 -1.06688,0.955913 v 6.145163 l 1.06688,0.955913 h 8.449601 l 1.066852,-0.955913 V 86.813203 L 77.911271,85.85729 Z"
     inkscape:connector-curvature="0"
     sodipodi:nodetypes="ccccccccc" />
  <path
     inkscape:connector-curvature="0"
     d="m 69.487255,85.85729 -1.092465,0.955913 4.779566,2.759456 h 1.024202 l 4.779565,-2.759456 -1.092464,-0.955913 z"
     style="fill:#ff867f;fill-opacity:1;stroke:none;stroke-width:0.264583;stroke-linecap:square;stroke-miterlimit:22;stroke-dasharray:none;stroke-opacity:1"
     id="path6889" />
  <path
     sodipodi:nodetypes="ccccccccc"
     inkscape:connector-curvature="0"
     d="m 50.940837,67.336457 -1.06688,0.955913 v 6.145163 l 1.06688,0.955913 h 8.4496 L 60.45729,74.437533 V 68.29237 l -1.066853,-0.955913 z"
     style="fill:#1d232d;fill-opacity:1;stroke:#47d58a;stroke-width:0.264583;stroke-linecap:round;stroke-miterlimit:22;stroke-dasharray:none;stroke-opacity:1"
     id="path6891" />
  <path
     id="path6893"
     style="fill:#47d58a;fill-opacity:1;stroke:none;stroke-width:0.264583;stroke-linecap:square;stroke-miterlimit:22;stroke-dasharray:none;stroke-opacity:1"
     d="m 50.966422,67.336457 -1.092465,0.955913 4.779566,2.759456 h 1.024202 L 60.45729,68.29237 59.364826,67.336457 Z"
     inkscape:connector-curvature="0" />
  <path
     id="path6895"
     style="fill:#1d232d;fill-opacity:1;stroke:#ff867f;stroke-width:0.264583;stroke-linecap:round;stroke-miterlimit:22;stroke-dasharray:none;stroke-opacity:1"
     d="m 69.46167,72.628124 -1.06688,0.955913 v 6.145162 l 1.06688,0.955913 h 8.449601 l 1.066852,-0.955913 v -6.145162 l -1.066852,-0.955913 z"
     inkscape:connector-curvature="0"
     sodipodi:nodetypes="ccccccccc" />
  <path
     inkscape:connector-curvature="0"
     d="m 69.487255,72.628124 -1.092465,0.955913 4.779566,2.759456 h 1.024202 l 4.779565,-2.759456 -1.092464,-0.955913 z"
     style="fill:#ff867f;fill-opacity:1;stroke:none;stroke-width:0.264583;stroke-linecap:square;stroke-miterlimit:22;stroke-dasharray:none;stroke-opacity:1"
     id="path6897" />
  <path
     sodipodi:nodetypes="ccccccccc"
     inkscape:connector-curvature="0"
     d="m 69.46167,43.523958 -1.06688,0.955913 v 6.145162 l 1.06688,0.955913 h 8.449601 l 1.066852,-0.955913 v -6.145162 l -1.066852,-0.955913 z"
     style="fill:#1d232d;fill-opacity:1;stroke:#6f8ce9;stroke-width:0.264583;stroke-linecap:round;stroke-miterlimit:22;stroke-dasharray:none;stroke-opacity:1"
     id="path6899" />
  <path
     id="path6901"
     style="fill:#6f8ce9;fill-opacity:1;stroke:none;stroke-width:0.264583;stroke-linecap:square;stroke-miterlimit:22;stroke-dasharray:none;stroke-opacity:1"
     d="m 69.487255,43.523958 -1.092465,0.955913 4.779566,2.759456 h 1.024202 l 4.779565,-2.759456 -1.092464,-0.955913 z"
     inkscape:connector-curvature="0" />
  <path
     id="path6903"
     style="fill:#1d232d;fill-opacity:1;stroke:#47d58a;stroke-width:0.264583;stroke-linecap:round;stroke-miterlimit:22;stroke-dasharray:none;stroke-opacity:1"
     d="m 82.690836,51.461457 -1.066879,0.955914 v 6.145162 l 1.066879,0.955913 h 8.449601 l 1.066853,-0.955913 v -6.145162 l -1.066853,-0.955914 z"
     inkscape:connector-curvature="0"
     sodipodi:nodetypes="ccccccccc" />
  <path
     inkscape:connector-curvature="0"
     d="m 82.716421,51.461457 -1.092464,0.955914 4.779565,2.759456 h 1.024202 l 4.779566,-2.759456 -1.092465,-0.955914 z"
     style="fill:#47d58a;fill-opacity:1;stroke:none;stroke-width:0.264583;stroke-linecap:square;stroke-miterlimit:22;stroke-dasharray:none;stroke-opacity:1"
     id="path6905" />
  <path
     sodipodi:nodetypes="ccccccccc"
     inkscape:connector-curvature="0"
     d="m 69.46167,22.357291 -1.06688,0.955913 v 6.145162 l 1.06688,0.955914 h 8.449601 l 1.066852,-0.955914 v -6.145162 l -1.066852,-0.955913 z"
     style="fill:#1d232d;fill-opacity:1;stroke:#ff867f;stroke-width:0.264583;stroke-linecap:round;stroke-miterlimit:22;stroke-dasharray:none;stroke-opacity:1"
     id="path6907" />
  <path
     id="path6909"
     style="fill:#ff867f;fill-opacity:1;stroke:none;stroke-width:0.264583;stroke-linecap:square;stroke-miterlimit:22;stroke-dasharray:none;stroke-opacity:1"
     d="m 69.487255,22.357291 -1.092465,0.955913 4.779566,2.759456 h 1.024202 l 4.779565,-2.759456 -1.092464,-0.955913 z"
     inkscape:connector-curvature="0" />
  <path
     id="path6911"
     style="fill:#1d232d;fill-opacity:1;stroke:#86ecec;stroke-width:0.264583;stroke-linecap:round;stroke-miterlimit:22;stroke-dasharray:none;stroke-opacity:1"
     d="m 69.46167,6.4822914 -1.06688,0.9559131 v 6.1451625 l 1.06688,0.955913 h 8.449601 l 1.066852,-0.955913 V 7.4382045 L 77.911271,6.4822914 Z"
     inkscape:connector-curvature="0"
     sodipodi:nodetypes="ccccccccc" />
  <path
     inkscape:connector-curvature="0"
     d="M 69.487255,6.4822914 68.39479,7.4382045 73.174356,10.19766 h 1.024202 L 78.978123,7.4382045 77.885659,6.4822914 Z"
     style="fill:#86ecec;fill-opacity:1;stroke:none;stroke-width:0.264583;stroke-linecap:square;stroke-miterlimit:22;stroke-dasharray:none;stroke-opacity:1"
     id="path6913" />
  <path
     sodipodi:nodetypes="ccccccccc"
     inkscape:connector-curvature="0"
     d="m 50.147087,3.8364581 -1.06688,0.9559131 v 6.1451618 l 1.06688,0.955913 h 8.4496 L 59.66354,10.937533 V 4.7923712 L 58.596687,3.8364581 Z"
     style="fill:#1d232d;fill-opacity:1;stroke:#ff867f;stroke-width:0.264583;stroke-linecap:round;stroke-miterlimit:22;stroke-dasharray:none;stroke-opacity:1"
     id="path6915" />
  <path
     id="path6917"
     style="fill:#ff867f;fill-opacity:1;stroke:none;stroke-width:0.264583;stroke-linecap:square;stroke-miterlimit:22;stroke-dasharray:none;stroke-opacity:1"
     d="m 50.172672,3.8364581 -1.092465,0.9559131 4.779566,2.7594559 h 1.024202 L 59.66354,4.7923712 58.571076,3.8364581 Z"
     inkscape:connector-curvature="0" />
  <g
     id="g6923"
     transform="matrix(-0.00211827,-0.00366895,0.00373178,-0.00215454,60.503487,9.5529555)"
     style="fill:#6f8ce9;fill-opacity:1;stroke-width:123.849">
    <g
       id="g6921"
       style="fill:#6f8ce9;fill-opacity:1;stroke-width:123.849">
      <path
         id="path6919"
         d="M 486.413,221.412 122.347,12.916 C 69.409,-17.402 26.495,7.476 26.495,68.479 v 415.652 c 0,61.004 42.914,85.882 95.852,55.563 l 364.066,-208.49 c 52.938,-30.317 52.938,-79.473 0,-109.792 z"
         inkscape:connector-curvature="0"
         style="fill:#6f8ce9;fill-opacity:1;stroke-width:123.849" />
    </g>
  </g>
  <g
     style="fill:#6f8ce9;fill-opacity:1;stroke-width:123.849"
     transform="matrix(0.00211827,-0.00366895,-0.00373178,-0.00215454,48.98591,72.788371)"
     id="g6929">
    <g
       style="fill:#6f8ce9;fill-opacity:1;stroke-width:123.849"
       id="g6927">
      <path
         style="fill:#6f8ce9;fill-opacity:1;stroke-width:123.849"
         inkscape:connector-curvature="0"
         d="M 486.413,221.412 122.347,12.916 C 69.409,-17.402 26.495,7.476 26.495,68.479 v 415.652 c 0,61.004 42.914,85.882 95.852,55.563 l 364.066,-208.49 c 52.938,-30.317 52.938,-79.473 0,-109.792 z"
         id="path6925" />
    </g>
  </g>
  <g
     id="g6935"
     transform="matrix(0.00211827,-0.00366895,-0.00373178,-0.00215454,84.969243,91.309205)"
     style="fill:#6f8ce9;fill-opacity:1;stroke-width:123.849">
    <g
       id="g6933"
       style="fill:#6f8ce9;fill-opacity:1;stroke-width:123.849">
      <path
         id="path6931"
         d="M 486.413,221.412 122.347,12.916 C 69.409,-17.402 26.495,7.476 26.495,68.479 v 415.652 c 0,61.004 42.914,85.882 95.852,55.563 l 364.066,-208.49 c 52.938,-30.317 52.938,-79.473 0,-109.792 z"
         inkscape:connector-curvature="0"
         style="fill:#6f8ce9;fill-opacity:1;stroke-width:123.849" />
    </g>
  </g>
  <g
     style="fill:#6f8ce9;fill-opacity:1;stroke-width:123.849"
     transform="matrix(0.00211827,-0.00366895,-0.00373178,-0.00215454,80.735909,56.913372)"
     id="g6941">
    <g
       style="fill:#6f8ce9;fill-opacity:1;stroke-width:123.849"
       id="g6939">
      <path
         style="fill:#6f8ce9;fill-opacity:1;stroke-width:123.849"
         inkscape:connector-curvature="0"
         d="M 486.413,221.412 122.347,12.916 C 69.409,-17.402 26.495,7.476 26.495,68.479 v 415.652 c 0,61.004 42.914,85.882 95.852,55.563 l 364.066,-208.49 c 52.938,-30.317 52.938,-79.473 0,-109.792 z"
         id="path6937" />
    </g>
  </g>
  <g
     style="fill:#6f8ce9;fill-opacity:1;stroke-width:123.849"
     transform="matrix(0.00366895,-0.00211827,0.00215454,0.00373178,72.424236,15.264198)"
     id="g6947">
    <g
       style="fill:#6f8ce9;fill-opacity:1;stroke-width:123.849"
       id="g6945">
      <path
         style="fill:#6f8ce9;fill-opacity:1;stroke-width:123.849"
         inkscape:connector-curvature="0"
         d="M 486.413,221.412 122.347,12.916 C 69.409,-17.402 26.495,7.476 26.495,68.479 v 415.652 c 0,61.004 42.914,85.882 95.852,55.563 l 364.066,-208.49 c 52.938,-30.317 52.938,-79.473 0,-109.792 z"
         id="path6943" />
    </g>
  </g>
  <g
     id="g6953"
     transform="matrix(0.00366895,-0.00211827,0.00215454,0.00373178,72.424236,31.139198)"
     style="fill:#6f8ce9;fill-opacity:1;stroke-width:123.849">
    <g
       id="g6951"
       style="fill:#6f8ce9;fill-opacity:1;stroke-width:123.849">
      <path
         id="path6949"
         d="M 486.413,221.412 122.347,12.916 C 69.409,-17.402 26.495,7.476 26.495,68.479 v 415.652 c 0,61.004 42.914,85.882 95.852,55.563 l 364.066,-208.49 c 52.938,-30.317 52.938,-79.473 0,-109.792 z"
         inkscape:connector-curvature="0"
         style="fill:#6f8ce9;fill-opacity:1;stroke-width:123.849" />
    </g>
  </g>
  <g
     style="fill:#6f8ce9;fill-opacity:1;stroke-width:123.849"
     transform="matrix(0.00366895,-0.00211827,0.00215454,0.00373178,72.424236,52.305865)"
     id="g6959">
    <g
       style="fill:#6f8ce9;fill-opacity:1;stroke-width:123.849"
       id="g6957">
      <path
         style="fill:#6f8ce9;fill-opacity:1;stroke-width:123.849"
         inkscape:connector-curvature="0"
         d="M 486.413,221.412 122.347,12.916 C 69.409,-17.402 26.495,7.476 26.495,68.479 v 415.652 c 0,61.004 42.914,85.882 95.852,55.563 l 364.066,-208.49 c 52.938,-30.317 52.938,-79.473 0,-109.792 z"
         id="path6955" />
    </g>
  </g>
  <g
     id="g6965"
     transform="matrix(0.00366895,0.00211827,0.00215454,-0.00373178,72.424236,84.973706)"
     style="fill:#6f8ce9;fill-opacity:1;stroke-width:123.849">
    <g
       id="g6963"
       style="fill:#6f8ce9;fill-opacity:1;stroke-width:123.849">
      <path
         id="path6961"
         d="M 486.413,221.412 122.347,12.916 C 69.409,-17.402 26.495,7.476 26.495,68.479 v 415.652 c 0,61.004 42.914,85.882 95.852,55.563 l 364.066,-208.49 c 52.938,-30.317 52.938,-79.473 0,-109.792 z"
         inkscape:connector-curvature="0"
         style="fill:#6f8ce9;fill-opacity:1;stroke-width:123.849" />
    </g>
  </g>
  <g
     style="fill:#6f8ce9;fill-opacity:1;stroke-width:123.849"
     transform="matrix(0.00366895,0.00211827,0.00215454,-0.00373178,72.424236,71.74454)"
     id="g6971">
    <g
       style="fill:#6f8ce9;fill-opacity:1;stroke-width:123.849"
       id="g6969">
      <path
         style="fill:#6f8ce9;fill-opacity:1;stroke-width:123.849"
         inkscape:connector-curvature="0"
         d="M 486.413,221.412 122.347,12.916 C 69.409,-17.402 26.495,7.476 26.495,68.479 v 415.652 c 0,61.004 42.914,85.882 95.852,55.563 l 364.066,-208.49 c 52.938,-30.317 52.938,-79.473 0,-109.792 z"
         id="path6967" />
    </g>
  </g>
  <path
     sodipodi:nodetypes="ccccc"
     inkscape:connector-curvature="0"
     d="m 146.97604,121.84063 h -44.97917 v 15.875 h 44.97917 z"
     style="fill:#1d232d;fill-opacity:1;stroke:#6f8ce9;stroke-width:0.264583;stroke-linecap:round;stroke-miterlimit:4;stroke-dasharray:none;stroke-opacity:1"
     id="path7057" />
  <rect
     y="124.48646"
     x="-101.86458"
     height="10.583333"
     width="18.520834"
     id="rect7059"
     style="fill:#1d232d;fill-opacity:1;stroke:none;stroke-width:0.264583;stroke-linecap:square;stroke-miterlimit:22;stroke-dasharray:none;stroke-dashoffset:0;stroke-opacity:1"
     transform="scale(-1,1)" />
  <path
     inkscape:connector-curvature="0"
     id="path7061"
     d="M 101.73232,124.48646 H 83.476067"
     style="fill:none;fill-opacity:1;stroke:#fbb227;stroke-width:0.264583;stroke-linecap:square;stroke-miterlimit:22;stroke-dasharray:none;stroke-dashoffset:0;stroke-opacity:1" />
  <path
     id="path7063"
     style="fill:#1d232d;fill-opacity:1;stroke:#86ecec;stroke-width:0.264583;stroke-linecap:round;stroke-miterlimit:22;stroke-dasharray:none;stroke-opacity:1"
     d="m 86.924169,125.54479 -1.066879,0.95592 v 6.14516 l 1.066879,0.95591 h 8.449601 l 1.066853,-0.95591 v -6.14516 l -1.066853,-0.95592 z"
     inkscape:connector-curvature="0"
     sodipodi:nodetypes="ccccccccc" />
  <path
     inkscape:connector-curvature="0"
     d="m 86.949755,125.54479 -1.092465,0.95592 4.779566,2.75945 h 1.024202 l 4.779565,-2.75945 -1.092464,-0.95592 z"
     style="fill:#86ecec;fill-opacity:1;stroke:none;stroke-width:0.264583;stroke-linecap:square;stroke-miterlimit:22;stroke-dasharray:none;stroke-opacity:1"
     id="path7065" />
  <path
     style="fill:none;fill-opacity:1;stroke:#fbb227;stroke-width:0.264583;stroke-linecap:square;stroke-miterlimit:22;stroke-dasharray:none;stroke-dashoffset:0;stroke-opacity:1"
     d="M 101.73232,135.06979 H 83.476067"
     id="path7067"
     inkscape:connector-curvature="0" />
  <g
     aria-label="Component"
     id="text7071"
     style="font-size:3.52777px;line-height:1.25;font-family:'Small Fonts';-inkscape-font-specification:'Small Fonts';text-align:center;text-anchor:middle;fill:#86ecec;stroke:#cf2f25;stroke-width:0.264583;stroke-linecap:round">
    <path
       d="m 115.77953,129.67935 c 0,0.75494 0.43392,1.19944 1.016,1.19944 0.2928,0 0.52211,-0.12347 0.70202,-0.33514 l -0.1658,-0.17991 c -0.14817,0.1658 -0.31045,0.25752 -0.52917,0.25752 -0.44097,0 -0.71966,-0.36689 -0.71966,-0.94897 0,-0.57502 0.2928,-0.93486 0.73377,-0.93486 0.1905,0 0.33867,0.0847 0.46214,0.2152 l 0.16581,-0.18697 c -0.13759,-0.1517 -0.35631,-0.28575 -0.63147,-0.28575 -0.59267,0 -1.03364,0.45508 -1.03364,1.19944 z"
       style="font-family:'Source Sans Pro';-inkscape-font-specification:'Source Sans Pro';stroke:none"
       id="path29927" />
    <path
       d="m 117.76566,129.98274 c 0,0.56797 0.37395,0.89605 0.79375,0.89605 0.41981,0 0.79375,-0.32808 0.79375,-0.89605 0,-0.57503 -0.37394,-0.90311 -0.79375,-0.90311 -0.4198,0 -0.79375,0.32808 -0.79375,0.90311 z m 0.29986,0 c 0,-0.39511 0.20109,-0.66322 0.49389,-0.66322 0.29634,0 0.49389,0.26811 0.49389,0.66322 0,0.39158 -0.19755,0.65616 -0.49389,0.65616 -0.2928,0 -0.49389,-0.26458 -0.49389,-0.65616 z"
       style="font-family:'Source Sans Pro';-inkscape-font-specification:'Source Sans Pro';stroke:none"
       id="path29929" />
    <path
       d="m 119.80471,130.83646 h 0.28928 v -1.24178 c 0.15875,-0.17639 0.30339,-0.26458 0.43039,-0.26458 0.21872,0 0.32103,0.13758 0.32103,0.45861 v 1.04775 h 0.28927 v -1.24178 c 0.15875,-0.17639 0.29634,-0.26458 0.43039,-0.26458 0.2152,0 0.3175,0.13758 0.3175,0.45861 v 1.04775 h 0.28928 v -1.08656 c 0,-0.43744 -0.16933,-0.67027 -0.52211,-0.67027 -0.20814,0 -0.38453,0.13405 -0.56444,0.32808 -0.0706,-0.20461 -0.21167,-0.32808 -0.47273,-0.32808 -0.20461,0 -0.38452,0.127 -0.53269,0.28927 h -0.0106 l -0.0247,-0.24694 h -0.23989 z"
       style="font-family:'Source Sans Pro';-inkscape-font-specification:'Source Sans Pro';stroke:none"
       id="path29931" />
    <path
       d="m 123.01146,130.68123 c 0.15875,0.12348 0.3175,0.19756 0.47625,0.19756 0.39158,0 0.74083,-0.34219 0.74083,-0.92428 0,-0.53269 -0.23636,-0.87488 -0.67733,-0.87488 -0.20108,0 -0.39158,0.10936 -0.54681,0.23989 h -0.0106 l -0.0247,-0.19756 h -0.23989 v 2.43769 h 0.28927 v -0.57856 z m 0.007,-0.22577 v -0.89958 c 0.16934,-0.1517 0.31398,-0.23284 0.45862,-0.23284 0.32455,0 0.45155,0.254 0.45155,0.63147 0,0.42334 -0.20814,0.68086 -0.49036,0.68086 -0.11289,0 -0.26458,-0.0494 -0.41981,-0.17991 z"
       style="font-family:'Source Sans Pro';-inkscape-font-specification:'Source Sans Pro';stroke:none"
       id="path29933" />
    <path
       d="m 124.56015,129.98274 c 0,0.56797 0.37395,0.89605 0.79375,0.89605 0.4198,0 0.79375,-0.32808 0.79375,-0.89605 0,-0.57503 -0.37395,-0.90311 -0.79375,-0.90311 -0.4198,0 -0.79375,0.32808 -0.79375,0.90311 z m 0.29986,0 c 0,-0.39511 0.20109,-0.66322 0.49389,-0.66322 0.29633,0 0.49389,0.26811 0.49389,0.66322 0,0.39158 -0.19756,0.65616 -0.49389,0.65616 -0.2928,0 -0.49389,-0.26458 -0.49389,-0.65616 z"
       style="font-family:'Source Sans Pro';-inkscape-font-specification:'Source Sans Pro';stroke:none"
       id="path29935" />
    <path
       d="m 126.5992,130.83646 h 0.28928 v -1.24178 c 0.17286,-0.17286 0.2928,-0.26458 0.46919,-0.26458 0.22578,0 0.32456,0.13758 0.32456,0.45861 v 1.04775 h 0.28927 v -1.08656 c 0,-0.43744 -0.16227,-0.67027 -0.52211,-0.67027 -0.23636,0 -0.41274,0.127 -0.57502,0.28927 h -0.0106 l -0.0247,-0.24694 h -0.23989 z"
       style="font-family:'Source Sans Pro';-inkscape-font-specification:'Source Sans Pro';stroke:none"
       id="path29937" />
    <path
       d="m 128.4019,129.98274 c 0,0.56091 0.36336,0.89605 0.82197,0.89605 0.23283,0 0.41627,-0.0811 0.56444,-0.17639 l -0.10231,-0.1905 c -0.127,0.0811 -0.26458,0.13406 -0.42686,0.13406 -0.32808,0 -0.55033,-0.23284 -0.5715,-0.60325 h 1.15711 c 0.007,-0.0423 0.0106,-0.0988 0.0106,-0.15875 0,-0.49036 -0.24695,-0.80433 -0.68439,-0.80433 -0.39158,0 -0.76905,0.34219 -0.76905,0.90311 z m 0.28222,-0.13053 c 0.0353,-0.34572 0.254,-0.54328 0.49388,-0.54328 0.26812,0 0.42334,0.19403 0.42334,0.54328 z"
       style="font-family:'Source Sans Pro';-inkscape-font-specification:'Source Sans Pro';stroke:none"
       id="path29939" />
    <path
       d="m 130.27867,130.83646 h 0.28928 v -1.24178 c 0.17286,-0.17286 0.2928,-0.26458 0.46919,-0.26458 0.22578,0 0.32456,0.13758 0.32456,0.45861 v 1.04775 h 0.28927 v -1.08656 c 0,-0.43744 -0.16227,-0.67027 -0.52211,-0.67027 -0.23636,0 -0.41275,0.127 -0.57502,0.28927 h -0.0106 l -0.0247,-0.24694 h -0.23989 z"
       style="font-family:'Source Sans Pro';-inkscape-font-specification:'Source Sans Pro';stroke:none"
       id="path29941" />
    <path
       d="m 132.25775,130.30729 c 0,0.33867 0.12348,0.5715 0.49036,0.5715 0.10584,0 0.22225,-0.0318 0.3175,-0.0635 l -0.0564,-0.21872 c -0.0565,0.0212 -0.13406,0.0459 -0.19403,0.0459 -0.19755,0 -0.26458,-0.11995 -0.26458,-0.33161 v -0.9525 h 0.46214 v -0.23636 h -0.46214 v -0.47978 h -0.24342 l -0.0353,0.47978 -0.26811,0.0176 v 0.21872 h 0.254 z"
       style="font-family:'Source Sans Pro';-inkscape-font-specification:'Source Sans Pro';stroke:none"
       id="path29943" />
  </g>
  <g
     style="fill:#6f8ce9;fill-opacity:1;stroke-width:123.849"
     transform="matrix(-0.00211827,-0.00366895,0.00373178,-0.00215454,97.28057,130.99671)"
     id="g7077">
    <g
       style="fill:#6f8ce9;fill-opacity:1;stroke-width:123.849"
       id="g7075">
      <path
         style="fill:#6f8ce9;fill-opacity:1;stroke-width:123.849"
         inkscape:connector-curvature="0"
         d="M 486.413,221.412 122.347,12.916 C 69.409,-17.402 26.495,7.476 26.495,68.479 v 415.652 c 0,61.004 42.914,85.882 95.852,55.563 l 364.066,-208.49 c 52.938,-30.317 52.938,-79.473 0,-109.792 z"
         id="path7073" />
    </g>
  </g>
  <path
     sodipodi:nodetypes="ccccccccc"
     inkscape:connector-curvature="0"
     d="m 69.46167,107.02396 -1.06688,0.95591 v 6.14517 l 1.06688,0.95591 h 8.449601 l 1.066852,-0.95591 v -6.14517 l -1.066852,-0.95591 z"
     style="fill:#1d232d;fill-opacity:1;stroke:#86ecec;stroke-width:0.264583;stroke-linecap:round;stroke-miterlimit:22;stroke-dasharray:none;stroke-opacity:1"
     id="path7079" />
  <path
     id="path7081"
     style="fill:#86ecec;fill-opacity:1;stroke:none;stroke-width:0.264583;stroke-linecap:square;stroke-miterlimit:22;stroke-dasharray:none;stroke-opacity:1"
     d="m 69.487255,107.02396 -1.092465,0.95591 4.779566,2.75946 h 1.024202 l 4.779565,-2.75946 -1.092464,-0.95591 z"
     inkscape:connector-curvature="0" />
  <g
     id="g7087"
     transform="matrix(0.00366895,-0.00211827,0.00215454,0.00373178,72.424236,115.80587)"
     style="fill:#6f8ce9;fill-opacity:1;stroke-width:123.849">
    <g
       id="g7085"
       style="fill:#6f8ce9;fill-opacity:1;stroke-width:123.849">
      <path
         id="path7083"
         d="M 486.413,221.412 122.347,12.916 C 69.409,-17.402 26.495,7.476 26.495,68.479 v 415.652 c 0,61.004 42.914,85.882 95.852,55.563 l 364.066,-208.49 c 52.938,-30.317 52.938,-79.473 0,-109.792 z"
         inkscape:connector-curvature="0"
         style="fill:#6f8ce9;fill-opacity:1;stroke-width:123.849" />
    </g>
  </g>
</svg>
