<?xml version="1.0" encoding="UTF-8" standalone="no"?>
<svg
   width="639.79"
   height="277.35"
   version="1.1"
   viewBox="0 0 169.28 73.383"
   id="svg2906"
   sodipodi:docname="chapter_accessibility.svg"
   inkscape:version="1.2.2 (732a01da63, 2022-12-09)"
   xmlns:inkscape="http://www.inkscape.org/namespaces/inkscape"
   xmlns:sodipodi="http://sodipodi.sourceforge.net/DTD/sodipodi-0.dtd"
   xmlns="http://www.w3.org/2000/svg"
   xmlns:svg="http://www.w3.org/2000/svg"
   xmlns:rdf="http://www.w3.org/1999/02/22-rdf-syntax-ns#"
   xmlns:cc="http://creativecommons.org/ns#"
   xmlns:dc="http://purl.org/dc/elements/1.1/">
  <defs
     id="defs2910" />
  <sodipodi:namedview
     id="namedview2908"
     pagecolor="#ffffff"
     bordercolor="#000000"
     borderopacity="0.25"
     inkscape:showpageshadow="2"
     inkscape:pageopacity="0.0"
     inkscape:pagecheckerboard="0"
     inkscape:deskcolor="#d1d1d1"
     showgrid="false"
     inkscape:zoom="1.3373126"
     inkscape:cx="295.74237"
     inkscape:cy="149.55366"
     inkscape:window-width="1920"
     inkscape:window-height="1017"
     inkscape:window-x="-8"
     inkscape:window-y="-8"
     inkscape:window-maximized="1"
     inkscape:current-layer="svg2906" />
  <metadata
     id="metadata2848">
    <rdf:RDF>
      <cc:Work
         rdf:about="">
        <dc:format>image/svg+xml</dc:format>
        <dc:type
           rdf:resource="http://purl.org/dc/dcmitype/StillImage" />
      </cc:Work>
    </rdf:RDF>
  </metadata>
  <g
     transform="matrix(7.2627 0 0 7.2627 -684.21 -699.11)"
     stroke-width=".13769"
     id="g2902">
    <rect
       x="94.208"
       y="96.454"
       width="23.308"
       height="9.7115"
       fill="#1d232d"
       style="paint-order:normal"
       id="rect2850" />
    <g
       fill="#7b8694"
       id="g2900">
      <path
         d="m94.596 96.26h1.1654v0.19408h-1.1654z"
         id="path2852" />
      <path
         d="m96.538 96.26h1.1654v0.19408h-1.1654z"
         id="path2854" />
      <path
         d="m98.481 96.26h1.1654v0.19408h-1.1654z"
         id="path2856" />
      <path
         d="m100.42 96.26h1.1654v0.19408h-1.1654z"
         id="path2858" />
      <path
         d="m102.37 96.26h1.1654v0.19408h-1.1654z"
         id="path2860" />
      <path
         d="m104.31 96.26h1.1654v0.19408h-1.1654z"
         id="path2862" />
      <path
         d="m106.25 96.26h1.1654v0.19408h-1.1654z"
         id="path2864" />
      <path
         d="m108.19 96.26h1.1654v0.19408h-1.1654z"
         id="path2866" />
      <path
         d="m110.13 96.26h1.1654v0.19408h-1.1654z"
         fill="#7b8694"
         id="path2868" />
      <path
         d="m112.08 96.26h1.1654v0.19408h-1.1654z"
         id="path2870" />
      <path
         d="m114.02 96.26h1.1654v0.19408h-1.1654z"
         id="path2872" />
      <path
         d="m115.96 96.26h1.1654v0.19408h-1.1654z"
         id="path2874" />
      <path
         d="m115.96 106.17h1.1654v0.19405h-1.1654z"
         id="path2876" />
      <path
         d="m114.02 106.17h1.1654v0.19405h-1.1654z"
         id="path2878" />
      <path
         d="m112.08 106.17h1.1654v0.19405h-1.1654z"
         id="path2880" />
      <path
         d="m110.13 106.17h1.1654v0.19405h-1.1654z"
         id="path2882" />
      <path
         d="m108.19 106.17h1.1654v0.19405h-1.1654z"
         id="path2884" />
      <path
         d="m106.25 106.17h1.1654v0.19405h-1.1654z"
         id="path2886" />
      <path
         d="m104.31 106.17h1.1654v0.19405h-1.1654z"
         id="path2888" />
      <path
         d="m102.37 106.17h1.1654v0.19405h-1.1654z"
         id="path2890" />
      <path
         d="m100.42 106.17h1.1654v0.19405h-1.1654z"
         id="path2892" />
      <path
         d="m98.481 106.17h1.1654v0.19405h-1.1654z"
         id="path2894" />
      <path
         d="m96.538 106.17h1.1654v0.19405h-1.1654z"
         id="path2896" />
      <path
         d="m94.596 106.17h1.1654v0.19405h-1.1654z"
         id="path2898" />
    </g>
  </g>
  <path
     fill="#154f92"
     d="m 84.633948,14.242429 c 12.405206,0 22.446412,10.039268 22.446412,22.446416 0,12.405205 -10.039262,22.446414 -22.446412,22.446414 -12.405204,0 -22.446413,-10.039266 -22.446413,-22.446414 0,-12.405205 10.039266,-22.446416 22.446413,-22.446416 m 0,-4.316618 c -14.780854,0 -26.76303,11.982177 -26.76303,26.763034 0,14.780856 11.982176,26.763032 26.76303,26.763032 14.780857,0 26.763032,-11.982176 26.763032,-26.763032 0,-14.780857 -11.982175,-26.763034 -26.763032,-26.763034 z m 0,6.043266 c -11.443246,0 -20.719765,9.27652 -20.719765,20.719768 0,11.443247 9.276519,20.719766 20.719765,20.719766 11.443246,0 20.719772,-9.276519 20.719772,-20.719766 0,-11.443248 -9.276526,-20.719768 -20.719772,-20.719768 z m 0,4.74828 c 2.145576,0 3.884957,1.73938 3.884957,3.884956 0,2.145577 -1.739381,3.884957 -3.884957,3.884957 -2.145573,0 -3.884955,-1.73938 -3.884955,-3.884957 0,-2.145576 1.739382,-3.884956 3.884955,-3.884956 z m 12.706074,10.578197 c -3.098469,0.731559 -5.990494,1.375707 -8.864175,1.70582 0.09183,10.901942 1.328006,13.279213 2.701878,16.79391 0.390331,0.999298 -0.103266,2.125719 -1.102571,2.516048 -0.999405,0.390331 -2.125827,-0.103266 -2.516157,-1.102571 -0.939404,-2.407378 -1.843842,-4.385252 -2.402305,-8.476651 h -1.045269 c -0.5576,4.084707 -1.460529,6.065712 -2.402415,8.476651 -0.390115,0.998758 -1.516211,1.493119 -2.516049,1.102571 -0.999295,-0.390329 -1.492902,-1.516859 -1.102571,-2.516048 1.371928,-3.511676 2.609935,-5.885816 2.701879,-16.79391 -2.873681,-0.330005 -5.765707,-0.974153 -8.864285,-1.70582 -0.928071,-0.219177 -1.50283,-1.149083 -1.283652,-2.077265 0.219176,-0.92818 1.148974,-1.50283 2.077264,-1.283653 10.433913,2.463601 13.412055,2.458637 23.825034,0 0.927965,-0.21907 1.858089,0.355473 2.077264,1.283653 0.21896,0.928182 -0.355796,1.858195 -1.28387,2.077265 z"
     id="path1164"
     style="fill:#3384e1;fill-opacity:1;stroke-width:0.264587" />
</svg>
