<?xml version="1.0" encoding="UTF-8" standalone="no"?>
<svg
   width="59.560364mm"
   height="67.127808mm"
   version="1.1"
   viewBox="0 0 59.560364 67.127806"
   id="svg48098"
   sodipodi:docname="models.svg"
   inkscape:version="1.2.2 (732a01da63, 2022-12-09)"
   xmlns:inkscape="http://www.inkscape.org/namespaces/inkscape"
   xmlns:sodipodi="http://sodipodi.sourceforge.net/DTD/sodipodi-0.dtd"
   xmlns="http://www.w3.org/2000/svg"
   xmlns:svg="http://www.w3.org/2000/svg"
   xmlns:rdf="http://www.w3.org/1999/02/22-rdf-syntax-ns#"
   xmlns:cc="http://creativecommons.org/ns#"
   xmlns:dc="http://purl.org/dc/elements/1.1/">
  <defs
     id="defs48102" />
  <sodipodi:namedview
     id="namedview48100"
     pagecolor="#ffffff"
     bordercolor="#000000"
     borderopacity="0.25"
     inkscape:showpageshadow="2"
     inkscape:pageopacity="0.0"
     inkscape:pagecheckerboard="0"
     inkscape:deskcolor="#d1d1d1"
     inkscape:document-units="mm"
     showgrid="false"
     inkscape:zoom="1.0679359"
     inkscape:cx="79.124596"
     inkscape:cy="162.93112"
     inkscape:window-width="1366"
     inkscape:window-height="705"
     inkscape:window-x="1912"
     inkscape:window-y="77"
     inkscape:window-maximized="1"
     inkscape:current-layer="svg48098" />
  <metadata
     id="metadata47332">
    <rdf:RDF>
      <cc:Work
         rdf:about="">
        <dc:format>image/svg+xml</dc:format>
        <dc:type
           rdf:resource="http://purl.org/dc/dcmitype/StillImage" />
      </cc:Work>
    </rdf:RDF>
  </metadata>
  <circle
     style="fill:#121824;fill-opacity:0.48468;stroke:#4d6fdc;stroke-width:0.399997;stroke-opacity:0.534819"
     id="circle42496"
     cx="26.922474"
     cy="44.014954"
     r="22.912853" />
  <circle
     style="fill:#121824;fill-opacity:0.48468;stroke:#4d6fdc;stroke-width:0.4;stroke-opacity:0.534819"
     id="circle43336"
     cx="16.961292"
     cy="22.05961"
     r="16.761292" />
  <circle
     style="fill:#121824;fill-opacity:0.48468;stroke:#4d6fdc;stroke-width:0.4;stroke-opacity:0.534819"
     id="circle42554"
     cx="38.664913"
     cy="16.961292"
     r="16.761292" />
  <ellipse
     style="fill:#121824;fill-opacity:0.498607;stroke:#4d6fdc;stroke-width:0.4;stroke-opacity:0.534819"
     id="path39532"
     cx="42.599072"
     cy="27.412333"
     rx="16.761292"
     ry="6.3102493" />
  <g
     aria-label="prezentační model"
     id="text42500"
     style="font-size:3.70417px;line-height:1.25;font-family:'Small Fonts';-inkscape-font-specification:'Small Fonts';text-align:center;text-anchor:middle;fill:#e8eaec;stroke:#cf2f25;stroke-width:0.264583;stroke-linecap:round">
    <path
       d="m 12.682027,45.967571 c 0.166687,0.129646 0.333375,0.207433 0.500063,0.207433 0.411162,0 0.777875,-0.359304 0.777875,-0.970492 0,-0.55933 -0.248179,-0.918634 -0.7112,-0.918634 -0.211138,0 -0.411163,0.114829 -0.574147,0.251883 h -0.01111 l -0.02593,-0.207433 h -0.251884 v 2.559581 h 0.303742 v -0.607484 z m 0.0074,-0.237067 V 44.78594 c 0.1778,-0.159279 0.329671,-0.244475 0.481542,-0.244475 0.340784,0 0.474134,0.266701 0.474134,0.663047 0,0.4445 -0.218546,0.714905 -0.51488,0.714905 -0.118533,0 -0.277813,-0.05186 -0.440796,-0.188913 z"
       style="font-family:'Source Sans Pro';-inkscape-font-specification:'Source Sans Pro';stroke:none"
       id="path48290" />
    <path
       d="m 14.441508,46.130554 h 0.303742 v -1.155701 c 0.122238,-0.303742 0.303742,-0.414867 0.455613,-0.414867 0.07408,0 0.11483,0.01111 0.174096,0.02963 l 0.05927,-0.2667 c -0.05927,-0.02593 -0.114829,-0.03704 -0.192617,-0.03704 -0.203729,0 -0.388938,0.144462 -0.511175,0.370417 h -0.01111 l -0.02593,-0.325967 h -0.251884 z"
       style="font-family:'Source Sans Pro';-inkscape-font-specification:'Source Sans Pro';stroke:none"
       id="path48292" />
    <path
       d="m 15.556463,45.234145 c 0,0.588963 0.38153,0.940859 0.863072,0.940859 0.244475,0 0.437092,-0.0852 0.592667,-0.185208 l -0.107421,-0.200025 c -0.13335,0.08519 -0.277813,0.140758 -0.448205,0.140758 -0.344487,0 -0.57785,-0.244475 -0.600075,-0.633413 h 1.214968 c 0.0074,-0.04445 0.01111,-0.103717 0.01111,-0.166688 0,-0.514879 -0.259292,-0.84455 -0.718609,-0.84455 -0.411163,0 -0.807509,0.359304 -0.807509,0.948267 z m 0.296334,-0.137054 c 0.03704,-0.363009 0.2667,-0.570442 0.518584,-0.570442 0.281516,0 0.4445,0.203729 0.4445,0.570442 z"
       style="font-family:'Source Sans Pro';-inkscape-font-specification:'Source Sans Pro';stroke:none"
       id="path48294" />
    <path
       d="m 17.352985,46.130554 h 1.363135 v -0.248179 h -0.977901 l 0.948268,-1.389064 v -0.162983 h -1.229785 v 0.248179 h 0.844551 l -0.948268,1.389064 z"
       style="font-family:'Source Sans Pro';-inkscape-font-specification:'Source Sans Pro';stroke:none"
       id="path48296" />
    <path
       d="m 18.945775,45.234145 c 0,0.588963 0.38153,0.940859 0.863072,0.940859 0.244475,0 0.437092,-0.0852 0.592667,-0.185208 l -0.107421,-0.200025 c -0.13335,0.08519 -0.277813,0.140758 -0.448205,0.140758 -0.344487,0 -0.57785,-0.244475 -0.600075,-0.633413 h 1.214968 c 0.0074,-0.04445 0.01111,-0.103717 0.01111,-0.166688 0,-0.514879 -0.259292,-0.84455 -0.718609,-0.84455 -0.411163,0 -0.807509,0.359304 -0.807509,0.948267 z m 0.296334,-0.137054 c 0.03704,-0.363009 0.2667,-0.570442 0.518584,-0.570442 0.281517,0 0.4445,0.203729 0.4445,0.570442 z"
       style="font-family:'Source Sans Pro';-inkscape-font-specification:'Source Sans Pro';stroke:none"
       id="path48298" />
    <path
       d="m 20.916395,46.130554 h 0.303742 v -1.303868 c 0.181504,-0.181504 0.307446,-0.277812 0.492654,-0.277812 0.237067,0 0.340784,0.144462 0.340784,0.481542 v 1.100138 h 0.303742 V 44.98967 c 0,-0.459317 -0.170392,-0.703792 -0.548217,-0.703792 -0.24818,0 -0.433388,0.13335 -0.60378,0.303741 h -0.01111 l -0.02593,-0.259291 h -0.251883 z"
       style="font-family:'Source Sans Pro';-inkscape-font-specification:'Source Sans Pro';stroke:none"
       id="path48300" />
    <path
       d="m 22.994437,45.574929 c 0,0.3556 0.129646,0.600075 0.51488,0.600075 0.111125,0 0.233362,-0.03334 0.333375,-0.06668 l -0.05927,-0.229658 c -0.05927,0.02223 -0.140758,0.04815 -0.203729,0.04815 -0.207434,0 -0.277813,-0.125942 -0.277813,-0.348192 v -1.000126 h 0.485246 V 44.330328 H 23.301883 V 43.82656 h -0.255588 l -0.03704,0.503768 -0.281517,0.01852 v 0.229659 h 0.2667 z"
       style="font-family:'Source Sans Pro';-inkscape-font-specification:'Source Sans Pro';stroke:none"
       id="path48302" />
    <path
       d="m 24.039012,45.663829 c 0,0.322263 0.225954,0.511175 0.529696,0.511175 0.22225,0 0.422276,-0.118533 0.596372,-0.259292 h 0.0074 l 0.02593,0.214842 h 0.251884 v -1.103842 c 0,-0.448205 -0.185209,-0.740834 -0.626005,-0.740834 -0.288925,0 -0.540809,0.125941 -0.707497,0.233362 l 0.122238,0.211138 c 0.140759,-0.09631 0.325967,-0.192617 0.537105,-0.192617 0.292629,0 0.370417,0.22225 0.370417,0.451909 -0.766763,0.0852 -1.107547,0.281517 -1.107547,0.674159 z m 0.300038,-0.02222 c 0,-0.229659 0.203729,-0.377826 0.807509,-0.451909 v 0.500063 c -0.174096,0.155575 -0.318559,0.240771 -0.492655,0.240771 -0.1778,0 -0.314854,-0.0852 -0.314854,-0.288925 z"
       style="font-family:'Source Sans Pro';-inkscape-font-specification:'Source Sans Pro';stroke:none"
       id="path48304" />
    <path
       d="m 25.891094,45.234145 c 0,0.596371 0.366713,0.940859 0.844551,0.940859 0.214842,0 0.422275,-0.0889 0.585259,-0.233362 l -0.137055,-0.200026 c -0.107421,0.09631 -0.251883,0.181505 -0.422275,0.181505 -0.329671,0 -0.555626,-0.277813 -0.555626,-0.688976 0,-0.414867 0.237067,-0.696384 0.563034,-0.696384 0.144463,0 0.255588,0.06667 0.363009,0.159279 l 0.151871,-0.196321 c -0.122238,-0.114829 -0.288925,-0.214841 -0.525992,-0.214841 -0.463022,0 -0.866776,0.344487 -0.866776,0.948267 z m 0.73713,-1.22608 h 0.248179 l 0.351896,-0.522288 h -0.218546 l -0.248179,0.340783 h -0.01482 l -0.248179,-0.340783 h -0.22225 z"
       style="font-family:'Source Sans Pro';-inkscape-font-specification:'Source Sans Pro';stroke:none"
       id="path48306" />
    <path
       d="m 27.713543,46.130554 h 0.303742 v -1.303868 c 0.181505,-0.181504 0.307446,-0.277812 0.492655,-0.277812 0.237067,0 0.340784,0.144462 0.340784,0.481542 v 1.100138 h 0.303741 V 44.98967 c 0,-0.459317 -0.170391,-0.703792 -0.548217,-0.703792 -0.248179,0 -0.433388,0.13335 -0.603779,0.303741 h -0.01111 l -0.02593,-0.259291 h -0.251884 z"
       style="font-family:'Source Sans Pro';-inkscape-font-specification:'Source Sans Pro';stroke:none"
       id="path48308" />
    <path
       d="m 29.739727,46.130554 h 0.303742 v -1.800226 h -0.303742 z m 0.563034,-2.644777 h -0.318558 l -0.333376,0.522288 h 0.233363 z"
       style="font-family:'Source Sans Pro';-inkscape-font-specification:'Source Sans Pro';stroke:none"
       id="path48310" />
    <path
       d="m 31.399195,46.130554 h 0.303742 v -1.303868 c 0.166688,-0.185208 0.318559,-0.277812 0.451909,-0.277812 0.229658,0 0.337079,0.144462 0.337079,0.481542 v 1.100138 h 0.303742 v -1.303868 c 0.166688,-0.185208 0.31115,-0.277812 0.451909,-0.277812 0.225954,0 0.333375,0.144462 0.333375,0.481542 v 1.100138 h 0.303742 V 44.98967 c 0,-0.459317 -0.1778,-0.703792 -0.548217,-0.703792 -0.218546,0 -0.403755,0.140758 -0.592667,0.344487 -0.07408,-0.214842 -0.22225,-0.344487 -0.496359,-0.344487 -0.214842,0 -0.403755,0.13335 -0.55933,0.303741 h -0.01111 l -0.02593,-0.259291 h -0.251884 z"
       style="font-family:'Source Sans Pro';-inkscape-font-specification:'Source Sans Pro';stroke:none"
       id="path48312" />
    <path
       d="m 34.336604,45.234145 c 0,0.596371 0.392642,0.940859 0.833438,0.940859 0.440796,0 0.833438,-0.344488 0.833438,-0.940859 0,-0.60378 -0.392642,-0.948267 -0.833438,-0.948267 -0.440796,0 -0.833438,0.344487 -0.833438,0.948267 z m 0.314854,0 c 0,-0.414867 0.211138,-0.696384 0.518584,-0.696384 0.31115,0 0.518584,0.281517 0.518584,0.696384 0,0.411163 -0.207434,0.688976 -0.518584,0.688976 -0.307446,0 -0.518584,-0.277813 -0.518584,-0.688976 z"
       style="font-family:'Source Sans Pro';-inkscape-font-specification:'Source Sans Pro';stroke:none"
       id="path48314" />
    <path
       d="m 36.347968,45.234145 c 0,0.600076 0.292629,0.940859 0.744538,0.940859 0.211138,0 0.403755,-0.118533 0.544513,-0.255587 h 0.01111 l 0.02593,0.211137 h 0.251883 v -2.637369 h -0.307446 v 0.69268 l 0.01482,0.307446 c -0.159279,-0.129646 -0.296334,-0.207433 -0.503767,-0.207433 -0.411163,0 -0.78158,0.363008 -0.78158,0.948267 z m 0.314854,-0.0037 c 0,-0.411163 0.229659,-0.688976 0.518584,-0.688976 0.148167,0 0.285221,0.05186 0.437092,0.188913 v 0.940859 c -0.148167,0.166688 -0.292629,0.24818 -0.459317,0.24818 -0.314854,0 -0.496359,-0.259292 -0.496359,-0.688976 z"
       style="font-family:'Source Sans Pro';-inkscape-font-specification:'Source Sans Pro';stroke:none"
       id="path48316" />
    <path
       d="m 38.400078,45.234145 c 0,0.588963 0.38153,0.940859 0.863072,0.940859 0.244475,0 0.437092,-0.0852 0.592667,-0.185208 l -0.107421,-0.200025 c -0.13335,0.08519 -0.277812,0.140758 -0.448204,0.140758 -0.344488,0 -0.577851,-0.244475 -0.600076,-0.633413 h 1.214968 c 0.0074,-0.04445 0.01111,-0.103717 0.01111,-0.166688 0,-0.514879 -0.259291,-0.84455 -0.718608,-0.84455 -0.411163,0 -0.80751,0.359304 -0.80751,0.948267 z m 0.296334,-0.137054 c 0.03704,-0.363009 0.2667,-0.570442 0.518584,-0.570442 0.281517,0 0.4445,0.203729 0.4445,0.570442 z"
       style="font-family:'Source Sans Pro';-inkscape-font-specification:'Source Sans Pro';stroke:none"
       id="path48318" />
    <path
       d="m 40.370697,45.767546 c 0,0.262996 0.0926,0.407458 0.322263,0.407458 0.08149,0 0.13335,-0.01111 0.174096,-0.02963 l -0.04075,-0.229659 c -0.03334,0.0074 -0.04815,0.0074 -0.06667,0.0074 -0.04445,0 -0.0852,-0.03704 -0.0852,-0.13335 v -2.296586 h -0.303742 z"
       style="font-family:'Source Sans Pro';-inkscape-font-specification:'Source Sans Pro';stroke:none"
       id="path48320" />
  </g>
  <g
     aria-label="networking model"
     id="text42558"
     style="font-size:3.70417px;line-height:1.25;font-family:'Small Fonts';-inkscape-font-specification:'Small Fonts';text-align:center;text-anchor:middle;fill:#e8eaec;stroke:#cf2f25;stroke-width:0.264583;stroke-linecap:round">
    <path
       d="m 24.737233,17.374834 h 0.303742 v -1.303868 c 0.181504,-0.181504 0.307446,-0.277813 0.492655,-0.277813 0.237067,0 0.340783,0.144463 0.340783,0.481543 v 1.100138 h 0.303742 V 16.23395 c 0,-0.459317 -0.170392,-0.703793 -0.548217,-0.703793 -0.248179,0 -0.433388,0.133351 -0.60378,0.303742 h -0.01111 l -0.02593,-0.259292 h -0.251884 z"
       style="font-family:'Source Sans Pro';-inkscape-font-specification:'Source Sans Pro';stroke:none"
       id="path48323" />
    <path
       d="m 26.630067,16.478425 c 0,0.588963 0.38153,0.940859 0.863072,0.940859 0.244475,0 0.437092,-0.0852 0.592667,-0.185208 L 27.978385,17.03405 c -0.13335,0.0852 -0.277813,0.140759 -0.448204,0.140759 -0.344488,0 -0.577851,-0.244475 -0.600076,-0.633413 h 1.214968 c 0.0074,-0.04445 0.01111,-0.103717 0.01111,-0.166688 0,-0.514879 -0.259292,-0.844551 -0.718609,-0.844551 -0.411162,0 -0.807509,0.359305 -0.807509,0.948268 z m 0.296334,-0.137054 c 0.03704,-0.363009 0.2667,-0.570443 0.518584,-0.570443 0.281517,0 0.4445,0.20373 0.4445,0.570443 z"
       style="font-family:'Source Sans Pro';-inkscape-font-specification:'Source Sans Pro';stroke:none"
       id="path48325" />
    <path
       d="m 28.600687,16.819209 c 0,0.3556 0.129646,0.600075 0.51488,0.600075 0.111125,0 0.233362,-0.03334 0.333375,-0.06668 l -0.05927,-0.229658 c -0.05927,0.02222 -0.140758,0.04815 -0.203729,0.04815 -0.207434,0 -0.277813,-0.125942 -0.277813,-0.348192 v -1.000126 h 0.485246 v -0.24818 H 28.908133 V 15.07084 h -0.255588 l -0.03704,0.503767 -0.281517,0.01852 v 0.229659 h 0.2667 z"
       style="font-family:'Source Sans Pro';-inkscape-font-specification:'Source Sans Pro';stroke:none"
       id="path48327" />
    <path
       d="m 30.086057,17.374834 h 0.3556 l 0.251884,-0.963084 c 0.04815,-0.170392 0.08519,-0.340784 0.125941,-0.522288 h 0.01482 c 0.04445,0.181504 0.07779,0.348192 0.122238,0.518584 l 0.259292,0.966788 h 0.370417 l 0.481542,-1.800227 h -0.288926 l -0.262996,1.040872 c -0.03704,0.170392 -0.07038,0.333376 -0.111125,0.500063 h -0.01482 c -0.04075,-0.166687 -0.08149,-0.329671 -0.125942,-0.500063 l -0.281517,-1.040872 h -0.296334 l -0.277813,1.040872 c -0.04445,0.166688 -0.08149,0.333376 -0.122237,0.500063 h -0.01482 c -0.03334,-0.166687 -0.06668,-0.329671 -0.107421,-0.500063 l -0.2667,-1.040872 h -0.31115 z"
       style="font-family:'Source Sans Pro';-inkscape-font-specification:'Source Sans Pro';stroke:none"
       id="path48329" />
    <path
       d="m 32.312266,16.478425 c 0,0.596371 0.392642,0.940859 0.833438,0.940859 0.440796,0 0.833438,-0.344488 0.833438,-0.940859 0,-0.60378 -0.392642,-0.948268 -0.833438,-0.948268 -0.440796,0 -0.833438,0.344488 -0.833438,0.948268 z m 0.314854,0 c 0,-0.414867 0.211138,-0.696384 0.518584,-0.696384 0.31115,0 0.518584,0.281517 0.518584,0.696384 0,0.411163 -0.207434,0.688976 -0.518584,0.688976 -0.307446,0 -0.518584,-0.277813 -0.518584,-0.688976 z"
       style="font-family:'Source Sans Pro';-inkscape-font-specification:'Source Sans Pro';stroke:none"
       id="path48331" />
    <path
       d="m 34.453275,17.374834 h 0.303742 v -1.155701 c 0.122237,-0.303742 0.303742,-0.414867 0.455613,-0.414867 0.07408,0 0.114829,0.01111 0.174096,0.02963 l 0.05927,-0.2667 c -0.05927,-0.02593 -0.114829,-0.03704 -0.192617,-0.03704 -0.203729,0 -0.388937,0.144463 -0.511175,0.370417 h -0.01111 l -0.02593,-0.325967 h -0.251883 z"
       style="font-family:'Source Sans Pro';-inkscape-font-specification:'Source Sans Pro';stroke:none"
       id="path48333" />
    <path
       d="M 35.738623,17.374834 H 36.03866 V 16.9007 l 0.33708,-0.392642 0.525992,0.866776 h 0.333375 l -0.685271,-1.077913 0.60378,-0.722314 h -0.33708 l -0.766763,0.948268 h -0.01111 v -1.78541 h -0.300037 z"
       style="font-family:'Source Sans Pro';-inkscape-font-specification:'Source Sans Pro';stroke:none"
       id="path48335" />
    <path
       d="m 37.727765,15.20419 c 0.118534,0 0.211138,-0.08149 0.211138,-0.196321 0,-0.118533 -0.0926,-0.196321 -0.211138,-0.196321 -0.118533,0 -0.211137,0.07779 -0.211137,0.196321 0,0.11483 0.0926,0.196321 0.211137,0.196321 z m -0.155575,2.170644 h 0.303742 V 15.574607 H 37.57219 Z"
       style="font-family:'Source Sans Pro';-inkscape-font-specification:'Source Sans Pro';stroke:none"
       id="path48337" />
    <path
       d="m 38.483417,17.374834 h 0.303741 v -1.303868 c 0.181505,-0.181504 0.307447,-0.277813 0.492655,-0.277813 0.237067,0 0.340784,0.144463 0.340784,0.481543 v 1.100138 h 0.303742 V 16.23395 c 0,-0.459317 -0.170392,-0.703793 -0.548217,-0.703793 -0.24818,0 -0.433388,0.133351 -0.60378,0.303742 h -0.01111 L 38.7353,15.574607 h -0.251883 z"
       style="font-family:'Source Sans Pro';-inkscape-font-specification:'Source Sans Pro';stroke:none"
       id="path48339" />
    <path
       d="m 40.639247,17.678576 c 0,-0.103717 0.05556,-0.211138 0.185208,-0.303742 0.07779,0.02222 0.162984,0.02963 0.233363,0.02963 h 0.31115 c 0.233363,0 0.363009,0.05556 0.363009,0.222251 0,0.188912 -0.225955,0.366712 -0.570442,0.366712 -0.325967,0 -0.522288,-0.122237 -0.522288,-0.314854 z m -0.266701,0.04075 c 0,0.31115 0.303742,0.485246 0.744538,0.485246 0.55933,0 0.911226,-0.288925 0.911226,-0.6223 0,-0.300038 -0.211137,-0.429684 -0.629709,-0.429684 h -0.348192 c -0.244475,0 -0.318558,-0.08149 -0.318558,-0.196321 0,-0.100013 0.05186,-0.159279 0.114829,-0.214842 0.08149,0.04075 0.181504,0.06297 0.270404,0.06297 0.366713,0 0.659343,-0.240771 0.659343,-0.626005 0,-0.151871 -0.06297,-0.288925 -0.148167,-0.370417 h 0.370417 v -0.233363 h -0.626005 c -0.06668,-0.02593 -0.155575,-0.04445 -0.255588,-0.04445 -0.366712,0 -0.677863,0.24818 -0.677863,0.640822 0,0.214842 0.11483,0.388938 0.233363,0.485246 v 0.01482 c -0.0926,0.06297 -0.196321,0.181504 -0.196321,0.333375 0,0.140759 0.07038,0.237067 0.159279,0.292629 v 0.01482 c -0.162983,0.111125 -0.262996,0.255588 -0.262996,0.407459 z m 0.744538,-1.118659 c -0.207433,0 -0.381529,-0.166688 -0.381529,-0.429684 0,-0.262996 0.170392,-0.418571 0.381529,-0.418571 0.211138,0 0.38153,0.155575 0.38153,0.418571 0,0.262996 -0.174096,0.429684 -0.38153,0.429684 z"
       style="font-family:'Source Sans Pro';-inkscape-font-specification:'Source Sans Pro';stroke:none"
       id="path48341" />
    <path
       d="m 43.124743,17.374834 h 0.303742 v -1.303868 c 0.166688,-0.185208 0.318559,-0.277813 0.451909,-0.277813 0.229659,0 0.33708,0.144463 0.33708,0.481543 v 1.100138 h 0.303742 v -1.303868 c 0.166687,-0.185208 0.31115,-0.277813 0.451908,-0.277813 0.225955,0 0.333376,0.144463 0.333376,0.481543 v 1.100138 h 0.303741 V 16.23395 c 0,-0.459317 -0.1778,-0.703793 -0.548217,-0.703793 -0.218546,0 -0.403754,0.140759 -0.592667,0.344488 -0.07408,-0.214842 -0.22225,-0.344488 -0.496359,-0.344488 -0.214841,0 -0.403754,0.133351 -0.559329,0.303742 h -0.01111 l -0.02593,-0.259292 h -0.251884 z"
       style="font-family:'Source Sans Pro';-inkscape-font-specification:'Source Sans Pro';stroke:none"
       id="path48343" />
    <path
       d="m 46.06215,16.478425 c 0,0.596371 0.392642,0.940859 0.833438,0.940859 0.440797,0 0.833439,-0.344488 0.833439,-0.940859 0,-0.60378 -0.392642,-0.948268 -0.833439,-0.948268 -0.440796,0 -0.833438,0.344488 -0.833438,0.948268 z m 0.314855,0 c 0,-0.414867 0.211137,-0.696384 0.518583,-0.696384 0.311151,0 0.518584,0.281517 0.518584,0.696384 0,0.411163 -0.207433,0.688976 -0.518584,0.688976 -0.307446,0 -0.518583,-0.277813 -0.518583,-0.688976 z"
       style="font-family:'Source Sans Pro';-inkscape-font-specification:'Source Sans Pro';stroke:none"
       id="path48345" />
    <path
       d="m 48.073514,16.478425 c 0,0.600075 0.29263,0.940859 0.744538,0.940859 0.211138,0 0.403755,-0.118533 0.544513,-0.255588 h 0.01111 l 0.02593,0.211138 h 0.251884 v -2.637369 h -0.307446 v 0.69268 l 0.01482,0.307446 c -0.159279,-0.129646 -0.296333,-0.207434 -0.503767,-0.207434 -0.411163,0 -0.78158,0.363009 -0.78158,0.948268 z m 0.314855,-0.0037 c 0,-0.411163 0.229658,-0.688976 0.518584,-0.688976 0.148166,0 0.285221,0.05186 0.437092,0.188913 v 0.940859 c -0.148167,0.166688 -0.29263,0.248179 -0.459317,0.248179 -0.314855,0 -0.496359,-0.259292 -0.496359,-0.688975 z"
       style="font-family:'Source Sans Pro';-inkscape-font-specification:'Source Sans Pro';stroke:none"
       id="path48347" />
    <path
       d="m 50.125627,16.478425 c 0,0.588963 0.381529,0.940859 0.863071,0.940859 0.244476,0 0.437092,-0.0852 0.592668,-0.185208 L 51.473945,17.03405 c -0.13335,0.0852 -0.277813,0.140759 -0.448205,0.140759 -0.344488,0 -0.57785,-0.244475 -0.600075,-0.633413 h 1.214967 c 0.0074,-0.04445 0.01111,-0.103717 0.01111,-0.166688 0,-0.514879 -0.259292,-0.844551 -0.718609,-0.844551 -0.411163,0 -0.807509,0.359305 -0.807509,0.948268 z m 0.296333,-0.137054 c 0.03704,-0.363009 0.266701,-0.570443 0.518584,-0.570443 0.281517,0 0.444501,0.20373 0.444501,0.570443 z"
       style="font-family:'Source Sans Pro';-inkscape-font-specification:'Source Sans Pro';stroke:none"
       id="path48349" />
    <path
       d="m 52.096246,17.011825 c 0,0.262996 0.0926,0.407459 0.322263,0.407459 0.08149,0 0.13335,-0.01111 0.174096,-0.02963 l -0.04075,-0.229659 c -0.03334,0.0074 -0.04816,0.0074 -0.06668,0.0074 -0.04445,0 -0.0852,-0.03704 -0.0852,-0.133351 v -2.296585 h -0.303742 z"
       style="font-family:'Source Sans Pro';-inkscape-font-specification:'Source Sans Pro';stroke:none"
       id="path48351" />
  </g>
  <g
     aria-label="fyzikální model"
     id="text43340"
     style="font-size:3.70417px;line-height:1.25;font-family:'Small Fonts';-inkscape-font-specification:'Small Fonts';text-align:center;text-anchor:middle;fill:#e8eaec;stroke:#cf2f25;stroke-width:0.264583;stroke-linecap:round">
    <path
       d="m 5.5475205,19.806881 c -0.081492,-0.03334 -0.1889127,-0.05927 -0.3000378,-0.05927 -0.3593044,0 -0.5259921,0.229658 -0.5259921,0.596371 v 0.285221 l -0.2444752,0.01852 v 0.229659 h 0.2444752 v 1.552047 h 0.303742 v -1.552047 h 0.3815295 v -0.24818 H 5.0252326 v -0.285221 c 0,-0.229658 0.081492,-0.348192 0.2518835,-0.348192 0.066675,0 0.1370543,0.01482 0.2037294,0.04445 z"
       style="font-family:'Source Sans Pro';-inkscape-font-specification:'Source Sans Pro';stroke:none"
       id="path48354" />
    <path
       d="m 5.6290116,22.925793 -0.059267,0.240771 c 0.059267,0.02222 0.1296459,0.03704 0.2111377,0.03704 0.3630086,0 0.5482171,-0.270404 0.6741589,-0.626004 L 7.1329046,20.629207 H 6.836571 L 6.5143082,21.625629 C 6.466154,21.784908 6.4142957,21.970117 6.3624373,22.1331 H 6.3476206 C 6.292058,21.966413 6.2290872,21.781204 6.1735246,21.625629 L 5.8068118,20.629207 H 5.4919573 l 0.7223132,1.803931 -0.040746,0.13335 c -0.074083,0.22225 -0.2037293,0.385234 -0.4074587,0.385234 -0.04445,0 -0.1000126,-0.01482 -0.1370543,-0.02593 z"
       style="font-family:'Source Sans Pro';-inkscape-font-specification:'Source Sans Pro';stroke:none"
       id="path48356" />
    <path
       d="m 7.2032866,22.429434 h 1.3631346 v -0.24818 H 7.5885203 L 8.5367878,20.792191 V 20.629207 H 7.3070034 v 0.24818 H 8.1515542 L 7.2032866,22.26645 Z"
       style="font-family:'Source Sans Pro';-inkscape-font-specification:'Source Sans Pro';stroke:none"
       id="path48358" />
    <path
       d="m 9.1220442,20.25879 c 0.1185335,0 0.2111377,-0.08149 0.2111377,-0.196321 0,-0.118533 -0.092604,-0.196321 -0.2111377,-0.196321 -0.1185334,0 -0.2111377,0.07779 -0.2111377,0.196321 0,0.114829 0.092604,0.196321 0.2111377,0.196321 z M 8.9664691,22.429434 H 9.270211 V 20.629207 H 8.9664691 Z"
       style="font-family:'Source Sans Pro';-inkscape-font-specification:'Source Sans Pro';stroke:none"
       id="path48360" />
    <path
       d="M 9.8776958,22.429434 H 10.177734 V 21.9553 l 0.337079,-0.392642 0.525992,0.866776 h 0.333376 l -0.685272,-1.077914 0.60378,-0.722313 h -0.33708 l -0.766763,0.948268 h -0.01111 v -1.78541 H 9.8776958 Z"
       style="font-family:'Source Sans Pro';-inkscape-font-specification:'Source Sans Pro';stroke:none"
       id="path48362" />
    <path
       d="m 11.58532,21.962708 c 0,0.322263 0.225955,0.511176 0.529697,0.511176 0.22225,0 0.422275,-0.118534 0.596371,-0.259292 h 0.0074 l 0.02593,0.214842 h 0.251884 v -1.103843 c 0,-0.448204 -0.185208,-0.740834 -0.626005,-0.740834 -0.288925,0 -0.540809,0.125942 -0.707496,0.233363 l 0.122237,0.211138 c 0.140759,-0.09631 0.325967,-0.192617 0.537105,-0.192617 0.29263,0 0.370417,0.22225 0.370417,0.451908 -0.766763,0.0852 -1.107547,0.281517 -1.107547,0.674159 z m 0.300038,-0.02222 c 0,-0.229658 0.203729,-0.377825 0.807509,-0.451908 v 0.500063 c -0.174096,0.155575 -0.318559,0.240771 -0.492655,0.240771 -0.1778,0 -0.314854,-0.0852 -0.314854,-0.288926 z m 0.892705,-2.155827 h -0.318559 l -0.333375,0.522288 h 0.233363 z"
       style="font-family:'Source Sans Pro';-inkscape-font-specification:'Source Sans Pro';stroke:none"
       id="path48364" />
    <path
       d="m 13.570752,22.066425 c 0,0.262996 0.0926,0.407459 0.322263,0.407459 0.08149,0 0.13335,-0.01111 0.174096,-0.02963 l -0.04075,-0.229659 c -0.03334,0.0074 -0.04815,0.0074 -0.06668,0.0074 -0.04445,0 -0.0852,-0.03704 -0.0852,-0.13335 v -2.296585 h -0.303742 z"
       style="font-family:'Source Sans Pro';-inkscape-font-specification:'Source Sans Pro';stroke:none"
       id="path48366" />
    <path
       d="m 14.515312,22.429434 h 0.303742 v -1.303868 c 0.181505,-0.181504 0.307447,-0.277813 0.492655,-0.277813 0.237067,0 0.340784,0.144463 0.340784,0.481542 v 1.100139 h 0.303742 v -1.140885 c 0,-0.459317 -0.170392,-0.703792 -0.548218,-0.703792 -0.248179,0 -0.433387,0.13335 -0.603779,0.303742 h -0.01111 l -0.02593,-0.259292 h -0.251884 z"
       style="font-family:'Source Sans Pro';-inkscape-font-specification:'Source Sans Pro';stroke:none"
       id="path48368" />
    <path
       d="m 16.541497,22.429434 h 0.303741 v -1.800227 h -0.303741 z m 0.563033,-2.644778 h -0.318558 l -0.333376,0.522288 h 0.233363 z"
       style="font-family:'Source Sans Pro';-inkscape-font-specification:'Source Sans Pro';stroke:none"
       id="path48370" />
    <path
       d="m 18.200965,22.429434 h 0.303742 v -1.303868 c 0.166688,-0.185209 0.318559,-0.277813 0.451909,-0.277813 0.229658,0 0.337079,0.144463 0.337079,0.481542 v 1.100139 h 0.303742 v -1.303868 c 0.166688,-0.185209 0.311151,-0.277813 0.451909,-0.277813 0.225954,0 0.333375,0.144463 0.333375,0.481542 v 1.100139 h 0.303742 v -1.140885 c 0,-0.459317 -0.1778,-0.703792 -0.548217,-0.703792 -0.218546,0 -0.403754,0.140759 -0.592667,0.344488 -0.07408,-0.214842 -0.22225,-0.344488 -0.496359,-0.344488 -0.214842,0 -0.403754,0.13335 -0.55933,0.303742 h -0.01111 l -0.02593,-0.259292 h -0.251884 z"
       style="font-family:'Source Sans Pro';-inkscape-font-specification:'Source Sans Pro';stroke:none"
       id="path48372" />
    <path
       d="m 21.138373,21.533025 c 0,0.596371 0.392642,0.940859 0.833438,0.940859 0.440796,0 0.833438,-0.344488 0.833438,-0.940859 0,-0.60378 -0.392642,-0.948268 -0.833438,-0.948268 -0.440796,0 -0.833438,0.344488 -0.833438,0.948268 z m 0.314854,0 c 0,-0.414867 0.211138,-0.696384 0.518584,-0.696384 0.31115,0 0.518584,0.281517 0.518584,0.696384 0,0.411163 -0.207434,0.688975 -0.518584,0.688975 -0.307446,0 -0.518584,-0.277812 -0.518584,-0.688975 z"
       style="font-family:'Source Sans Pro';-inkscape-font-specification:'Source Sans Pro';stroke:none"
       id="path48374" />
    <path
       d="m 23.149737,21.533025 c 0,0.600075 0.292629,0.940859 0.744538,0.940859 0.211138,0 0.403755,-0.118534 0.544513,-0.255588 h 0.01111 l 0.02593,0.211138 h 0.251883 v -2.637369 h -0.307446 v 0.69268 l 0.01482,0.307446 c -0.159279,-0.129646 -0.296334,-0.207434 -0.503767,-0.207434 -0.411163,0 -0.78158,0.363009 -0.78158,0.948268 z m 0.314854,-0.0037 c 0,-0.411163 0.229659,-0.688976 0.518584,-0.688976 0.148167,0 0.285221,0.05186 0.437092,0.188913 v 0.940859 c -0.148166,0.166687 -0.292629,0.248179 -0.459317,0.248179 -0.314854,0 -0.496359,-0.259292 -0.496359,-0.688975 z"
       style="font-family:'Source Sans Pro';-inkscape-font-specification:'Source Sans Pro';stroke:none"
       id="path48376" />
    <path
       d="m 25.201848,21.533025 c 0,0.588963 0.381529,0.940859 0.863071,0.940859 0.244475,0 0.437092,-0.0852 0.592667,-0.185209 L 26.550165,22.08865 c -0.13335,0.0852 -0.277812,0.140759 -0.448204,0.140759 -0.344488,0 -0.577851,-0.244476 -0.600076,-0.633413 h 1.214968 c 0.0074,-0.04445 0.01111,-0.103717 0.01111,-0.166688 0,-0.51488 -0.259292,-0.844551 -0.718609,-0.844551 -0.411163,0 -0.807509,0.359305 -0.807509,0.948268 z m 0.296333,-0.137055 c 0.03704,-0.363008 0.2667,-0.570442 0.518584,-0.570442 0.281517,0 0.4445,0.20373 0.4445,0.570442 z"
       style="font-family:'Source Sans Pro';-inkscape-font-specification:'Source Sans Pro';stroke:none"
       id="path48378" />
    <path
       d="m 27.172468,22.066425 c 0,0.262996 0.09261,0.407459 0.322263,0.407459 0.08149,0 0.13335,-0.01111 0.174096,-0.02963 l -0.04075,-0.229659 c -0.03334,0.0074 -0.04815,0.0074 -0.06668,0.0074 -0.04445,0 -0.0852,-0.03704 -0.0852,-0.13335 v -2.296585 h -0.303742 z"
       style="font-family:'Source Sans Pro';-inkscape-font-specification:'Source Sans Pro';stroke:none"
       id="path48380" />
  </g>
  <circle
     style="fill:#121824;fill-opacity:0.48468;stroke:#4d6fdc;stroke-width:0.4;stroke-opacity:0.534819"
     id="circle43342"
     cx="24.73724"
     cy="32.196922"
     r="10.247723" />
  <g
     aria-label="doménový model"
     id="text41716"
     style="font-size:3.70417px;line-height:1.25;font-family:'Small Fonts';-inkscape-font-specification:'Small Fonts';text-align:center;text-anchor:middle;fill:#e8eaec;stroke:#cf2f25;stroke-width:0.264583;stroke-linecap:round">
    <path
       d="m 29.567728,27.469743 c 0,0.600075 0.29263,0.940859 0.744539,0.940859 0.211137,0 0.403754,-0.118534 0.544513,-0.255588 h 0.01111 l 0.02593,0.211138 h 0.251884 v -2.637369 h -0.307446 v 0.69268 l 0.01482,0.307446 c -0.159279,-0.129646 -0.296333,-0.207434 -0.503767,-0.207434 -0.411163,0 -0.78158,0.363009 -0.78158,0.948268 z m 0.314855,-0.0037 c 0,-0.411163 0.229658,-0.688976 0.518584,-0.688976 0.148166,0 0.285221,0.05186 0.437092,0.188913 v 0.940859 c -0.148167,0.166687 -0.29263,0.248179 -0.459317,0.248179 -0.314855,0 -0.496359,-0.259292 -0.496359,-0.688975 z"
       style="font-family:'Source Sans Pro';-inkscape-font-specification:'Source Sans Pro';stroke:none"
       id="path48383" />
    <path
       d="m 31.61984,27.469743 c 0,0.596371 0.392642,0.940859 0.833438,0.940859 0.440796,0 0.833438,-0.344488 0.833438,-0.940859 0,-0.60378 -0.392642,-0.948268 -0.833438,-0.948268 -0.440796,0 -0.833438,0.344488 -0.833438,0.948268 z m 0.314854,0 c 0,-0.414867 0.211138,-0.696384 0.518584,-0.696384 0.31115,0 0.518584,0.281517 0.518584,0.696384 0,0.411163 -0.207434,0.688975 -0.518584,0.688975 -0.307446,0 -0.518584,-0.277812 -0.518584,-0.688975 z"
       style="font-family:'Source Sans Pro';-inkscape-font-specification:'Source Sans Pro';stroke:none"
       id="path48385" />
    <path
       d="m 33.760849,28.366152 h 0.303742 v -1.303868 c 0.166688,-0.185209 0.318559,-0.277813 0.451909,-0.277813 0.229658,0 0.337079,0.144463 0.337079,0.481542 v 1.100139 h 0.303742 v -1.303868 c 0.166688,-0.185209 0.31115,-0.277813 0.451909,-0.277813 0.225954,0 0.333375,0.144463 0.333375,0.481542 v 1.100139 h 0.303742 v -1.140885 c 0,-0.459317 -0.1778,-0.703792 -0.548217,-0.703792 -0.218546,0 -0.403755,0.140759 -0.592667,0.344488 -0.07408,-0.214842 -0.222251,-0.344488 -0.496359,-0.344488 -0.214842,0 -0.403755,0.13335 -0.55933,0.303742 h -0.01111 l -0.02593,-0.259292 h -0.251884 z"
       style="font-family:'Source Sans Pro';-inkscape-font-specification:'Source Sans Pro';stroke:none"
       id="path48387" />
    <path
       d="m 36.698258,27.469743 c 0,0.588963 0.381529,0.940859 0.863071,0.940859 0.244475,0 0.437092,-0.0852 0.592667,-0.185209 l -0.10742,-0.200025 c -0.133351,0.0852 -0.277813,0.140759 -0.448205,0.140759 -0.344488,0 -0.577851,-0.244476 -0.600076,-0.633413 h 1.214968 c 0.0074,-0.04445 0.01111,-0.103717 0.01111,-0.166688 0,-0.51488 -0.259292,-0.844551 -0.718609,-0.844551 -0.411163,0 -0.807509,0.359305 -0.807509,0.948268 z m 0.296333,-0.137055 c 0.03704,-0.363008 0.266701,-0.570442 0.518584,-0.570442 0.281517,0 0.4445,0.20373 0.4445,0.570442 z m 0.922339,-1.611314 h -0.314855 l -0.337079,0.522288 h 0.233362 z"
       style="font-family:'Source Sans Pro';-inkscape-font-specification:'Source Sans Pro';stroke:none"
       id="path48389" />
    <path
       d="m 38.668878,28.366152 h 0.303742 v -1.303868 c 0.181504,-0.181504 0.307446,-0.277813 0.492654,-0.277813 0.237067,0 0.340784,0.144463 0.340784,0.481542 v 1.100139 H 40.1098 v -1.140885 c 0,-0.459317 -0.170392,-0.703792 -0.548217,-0.703792 -0.24818,0 -0.433388,0.13335 -0.60378,0.303742 h -0.01111 l -0.02593,-0.259292 h -0.251883 z"
       style="font-family:'Source Sans Pro';-inkscape-font-specification:'Source Sans Pro';stroke:none"
       id="path48391" />
    <path
       d="m 40.561712,27.469743 c 0,0.596371 0.392642,0.940859 0.833438,0.940859 0.440796,0 0.833438,-0.344488 0.833438,-0.940859 0,-0.60378 -0.392642,-0.948268 -0.833438,-0.948268 -0.440796,0 -0.833438,0.344488 -0.833438,0.948268 z m 0.314854,0 c 0,-0.414867 0.211138,-0.696384 0.518584,-0.696384 0.31115,0 0.518584,0.281517 0.518584,0.696384 0,0.411163 -0.207434,0.688975 -0.518584,0.688975 -0.307446,0 -0.518584,-0.277812 -0.518584,-0.688975 z"
       style="font-family:'Source Sans Pro';-inkscape-font-specification:'Source Sans Pro';stroke:none"
       id="path48393" />
    <path
       d="m 43.076843,28.366152 h 0.3556 l 0.637118,-1.800227 h -0.300038 l -0.340784,1.022351 c -0.05186,0.1778 -0.111125,0.359305 -0.162983,0.529696 h -0.01482 c -0.05556,-0.170391 -0.114829,-0.351896 -0.166688,-0.529696 l -0.340783,-1.022351 h -0.314855 z"
       style="font-family:'Source Sans Pro';-inkscape-font-specification:'Source Sans Pro';stroke:none"
       id="path48395" />
    <path
       d="m 44.295518,28.862511 -0.05927,0.240771 c 0.05927,0.02222 0.129646,0.03704 0.211137,0.03704 0.363009,0 0.548218,-0.270404 0.674159,-0.626004 l 0.677863,-1.948394 h -0.296333 l -0.322263,0.996422 c -0.04815,0.159279 -0.100013,0.344488 -0.151871,0.507471 h -0.01482 c -0.05556,-0.166687 -0.118533,-0.351896 -0.174096,-0.507471 l -0.366712,-0.996422 h -0.314855 l 0.722313,1.803931 -0.04075,0.13335 c -0.07408,0.22225 -0.203729,0.385234 -0.407458,0.385234 -0.04445,0 -0.100013,-0.01482 -0.137055,-0.02593 z m 1.129772,-3.141137 h -0.318558 l -0.333376,0.522288 h 0.233363 z"
       style="font-family:'Source Sans Pro';-inkscape-font-specification:'Source Sans Pro';stroke:none"
       id="path48397" />
    <path
       d="m 46.895849,28.366152 h 0.303742 v -1.303868 c 0.166688,-0.185209 0.318559,-0.277813 0.451909,-0.277813 0.229658,0 0.337079,0.144463 0.337079,0.481542 v 1.100139 h 0.303742 v -1.303868 c 0.166688,-0.185209 0.311151,-0.277813 0.451909,-0.277813 0.225954,0 0.333375,0.144463 0.333375,0.481542 v 1.100139 h 0.303742 v -1.140885 c 0,-0.459317 -0.1778,-0.703792 -0.548217,-0.703792 -0.218546,0 -0.403754,0.140759 -0.592667,0.344488 -0.07408,-0.214842 -0.22225,-0.344488 -0.496359,-0.344488 -0.214842,0 -0.403754,0.13335 -0.55933,0.303742 h -0.01111 l -0.02593,-0.259292 h -0.251884 z"
       style="font-family:'Source Sans Pro';-inkscape-font-specification:'Source Sans Pro';stroke:none"
       id="path48399" />
    <path
       d="m 49.833256,27.469743 c 0,0.596371 0.392642,0.940859 0.833438,0.940859 0.440796,0 0.833438,-0.344488 0.833438,-0.940859 0,-0.60378 -0.392642,-0.948268 -0.833438,-0.948268 -0.440796,0 -0.833438,0.344488 -0.833438,0.948268 z m 0.314854,0 c 0,-0.414867 0.211138,-0.696384 0.518584,-0.696384 0.311151,0 0.518584,0.281517 0.518584,0.696384 0,0.411163 -0.207433,0.688975 -0.518584,0.688975 -0.307446,0 -0.518584,-0.277812 -0.518584,-0.688975 z"
       style="font-family:'Source Sans Pro';-inkscape-font-specification:'Source Sans Pro';stroke:none"
       id="path48401" />
    <path
       d="m 51.84462,27.469743 c 0,0.600075 0.29263,0.940859 0.744538,0.940859 0.211138,0 0.403755,-0.118534 0.544513,-0.255588 h 0.01111 l 0.02593,0.211138 h 0.251883 V 25.728783 H 53.11515 v 0.69268 l 0.01482,0.307446 c -0.159279,-0.129646 -0.296334,-0.207434 -0.503767,-0.207434 -0.411163,0 -0.78158,0.363009 -0.78158,0.948268 z m 0.314855,-0.0037 c 0,-0.411163 0.229658,-0.688976 0.518583,-0.688976 0.148167,0 0.285221,0.05186 0.437092,0.188913 v 0.940859 c -0.148166,0.166687 -0.292629,0.248179 -0.459317,0.248179 -0.314854,0 -0.496358,-0.259292 -0.496358,-0.688975 z"
       style="font-family:'Source Sans Pro';-inkscape-font-specification:'Source Sans Pro';stroke:none"
       id="path48403" />
    <path
       d="m 53.896731,27.469743 c 0,0.588963 0.381529,0.940859 0.863071,0.940859 0.244475,0 0.437092,-0.0852 0.592667,-0.185209 l -0.10742,-0.200025 c -0.133351,0.0852 -0.277813,0.140759 -0.448205,0.140759 -0.344488,0 -0.577851,-0.244476 -0.600076,-0.633413 h 1.214968 c 0.0074,-0.04445 0.01111,-0.103717 0.01111,-0.166688 0,-0.51488 -0.259292,-0.844551 -0.718609,-0.844551 -0.411163,0 -0.807509,0.359305 -0.807509,0.948268 z m 0.296333,-0.137055 c 0.03704,-0.363008 0.2667,-0.570442 0.518584,-0.570442 0.281517,0 0.4445,0.20373 0.4445,0.570442 z"
       style="font-family:'Source Sans Pro';-inkscape-font-specification:'Source Sans Pro';stroke:none"
       id="path48405" />
    <path
       d="m 55.867352,28.003143 c 0,0.262996 0.0926,0.407459 0.322262,0.407459 0.08149,0 0.13335,-0.01111 0.174096,-0.02963 l -0.04075,-0.229658 c -0.03334,0.0074 -0.04815,0.0074 -0.06667,0.0074 -0.04445,0 -0.0852,-0.03704 -0.0852,-0.13335 v -2.296585 h -0.303741 z"
       style="font-family:'Source Sans Pro';-inkscape-font-specification:'Source Sans Pro';stroke:none"
       id="path48407" />
  </g>
  <g
     aria-label="AI model"
     id="text43346"
     style="font-size:3.70417px;line-height:1.25;font-family:'Small Fonts';-inkscape-font-specification:'Small Fonts';text-align:center;text-anchor:middle;fill:#e8eaec;stroke:#cf2f25;stroke-width:0.264583;stroke-linecap:round">
    <path
       d="m 18.16894,32.672371 0.118533,-0.370417 c 0.0852,-0.270404 0.162984,-0.537104 0.240771,-0.818621 h 0.01482 c 0.07779,0.281517 0.155575,0.548217 0.240771,0.818621 l 0.114829,0.370417 z m 1.040872,0.989014 h 0.325967 l -0.822326,-2.429936 h -0.348192 l -0.822326,2.429936 h 0.314855 l 0.233362,-0.740834 h 0.885297 z"
       style="font-family:'Source Sans Pro';-inkscape-font-specification:'Source Sans Pro';stroke:none"
       id="path48410" />
    <path
       d="m 19.858042,33.661385 h 0.31115 v -2.429936 h -0.31115 z"
       style="font-family:'Source Sans Pro';-inkscape-font-specification:'Source Sans Pro';stroke:none"
       id="path48412" />
    <path
       d="m 21.543436,33.661385 h 0.303742 v -1.303868 c 0.166687,-0.185209 0.318558,-0.277813 0.451909,-0.277813 0.229658,0 0.337079,0.144463 0.337079,0.481542 v 1.100139 h 0.303742 v -1.303868 c 0.166688,-0.185209 0.31115,-0.277813 0.451909,-0.277813 0.225954,0 0.333375,0.144463 0.333375,0.481542 v 1.100139 h 0.303742 V 32.5205 c 0,-0.459317 -0.1778,-0.703792 -0.548217,-0.703792 -0.218546,0 -0.403755,0.140758 -0.592667,0.344488 -0.07408,-0.214842 -0.222251,-0.344488 -0.496359,-0.344488 -0.214842,0 -0.403755,0.13335 -0.55933,0.303742 h -0.01111 l -0.02593,-0.259292 h -0.251883 z"
       style="font-family:'Source Sans Pro';-inkscape-font-specification:'Source Sans Pro';stroke:none"
       id="path48414" />
    <path
       d="m 24.480844,32.764975 c 0,0.596372 0.392642,0.94086 0.833438,0.94086 0.440797,0 0.833439,-0.344488 0.833439,-0.94086 0,-0.603779 -0.392642,-0.948267 -0.833439,-0.948267 -0.440796,0 -0.833438,0.344488 -0.833438,0.948267 z m 0.314855,0 c 0,-0.414867 0.211137,-0.696384 0.518583,-0.696384 0.311151,0 0.518584,0.281517 0.518584,0.696384 0,0.411163 -0.207433,0.688976 -0.518584,0.688976 -0.307446,0 -0.518583,-0.277813 -0.518583,-0.688976 z"
       style="font-family:'Source Sans Pro';-inkscape-font-specification:'Source Sans Pro';stroke:none"
       id="path48416" />
    <path
       d="m 26.492208,32.764975 c 0,0.600076 0.29263,0.94086 0.744538,0.94086 0.211138,0 0.403755,-0.118534 0.544513,-0.255588 h 0.01111 l 0.02593,0.211138 h 0.251884 v -2.637369 h -0.307446 v 0.692679 l 0.01482,0.307446 c -0.159279,-0.129646 -0.296333,-0.207433 -0.503767,-0.207433 -0.411163,0 -0.78158,0.363009 -0.78158,0.948267 z m 0.314855,-0.0037 c 0,-0.411163 0.229658,-0.688975 0.518583,-0.688975 0.148167,0 0.285222,0.05186 0.437093,0.188912 v 0.94086 c -0.148167,0.166687 -0.29263,0.248179 -0.459318,0.248179 -0.314854,0 -0.496358,-0.259292 -0.496358,-0.688976 z"
       style="font-family:'Source Sans Pro';-inkscape-font-specification:'Source Sans Pro';stroke:none"
       id="path48418" />
    <path
       d="m 28.544319,32.764975 c 0,0.588963 0.381529,0.94086 0.863071,0.94086 0.244476,0 0.437092,-0.0852 0.592668,-0.185209 l -0.107421,-0.200025 c -0.13335,0.0852 -0.277813,0.140758 -0.448205,0.140758 -0.344488,0 -0.57785,-0.244475 -0.600075,-0.633413 h 1.214967 c 0.0074,-0.04445 0.01111,-0.103716 0.01111,-0.166687 0,-0.51488 -0.259292,-0.844551 -0.718609,-0.844551 -0.411163,0 -0.807509,0.359304 -0.807509,0.948267 z m 0.296333,-0.137054 c 0.03704,-0.363009 0.266701,-0.570442 0.518584,-0.570442 0.281517,0 0.444501,0.203729 0.444501,0.570442 z"
       style="font-family:'Source Sans Pro';-inkscape-font-specification:'Source Sans Pro';stroke:none"
       id="path48420" />
    <path
       d="m 30.514939,33.298376 c 0,0.262996 0.0926,0.407459 0.322262,0.407459 0.08149,0 0.133351,-0.01111 0.174096,-0.02963 l -0.04074,-0.229658 c -0.03334,0.0074 -0.04816,0.0074 -0.06668,0.0074 -0.04445,0 -0.0852,-0.03704 -0.0852,-0.13335 v -2.296585 h -0.303742 z"
       style="font-family:'Source Sans Pro';-inkscape-font-specification:'Source Sans Pro';stroke:none"
       id="path48422" />
  </g>
</svg>
