<?xml version="1.0" encoding="UTF-8" standalone="no"?>
<svg
   width="406.00003"
   height="223.70219"
   version="1.1"
   viewBox="0 0 107.42207 59.187518"
   id="svg7128"
   sodipodi:docname="pcm_attributes_hrhd_cs.svg"
   inkscape:version="1.2.2 (732a01da63, 2022-12-09)"
   xmlns:inkscape="http://www.inkscape.org/namespaces/inkscape"
   xmlns:sodipodi="http://sodipodi.sourceforge.net/DTD/sodipodi-0.dtd"
   xmlns="http://www.w3.org/2000/svg"
   xmlns:svg="http://www.w3.org/2000/svg"
   xmlns:rdf="http://www.w3.org/1999/02/22-rdf-syntax-ns#"
   xmlns:cc="http://creativecommons.org/ns#"
   xmlns:dc="http://purl.org/dc/elements/1.1/">
  <defs
     id="defs7132" />
  <sodipodi:namedview
     id="namedview7130"
     pagecolor="#ffffff"
     bordercolor="#000000"
     borderopacity="0.25"
     inkscape:showpageshadow="2"
     inkscape:pageopacity="0.0"
     inkscape:pagecheckerboard="0"
     inkscape:deskcolor="#d1d1d1"
     showgrid="false"
     inkscape:zoom="2.1072315"
     inkscape:cx="155.17991"
     inkscape:cy="70.234333"
     inkscape:window-width="1920"
     inkscape:window-height="1017"
     inkscape:window-x="-8"
     inkscape:window-y="-8"
     inkscape:window-maximized="1"
     inkscape:current-layer="svg7128" />
  <metadata
     id="metadata6956">
    <rdf:RDF>
      <cc:Work
         rdf:about="">
        <dc:format>image/svg+xml</dc:format>
        <dc:type
           rdf:resource="http://purl.org/dc/dcmitype/StillImage" />
      </cc:Work>
    </rdf:RDF>
  </metadata>
  <path
     style="fill:#2f3744;fill-opacity:1;stroke:#535e70;stroke-width:0.132293;stroke-linecap:round;stroke-miterlimit:40;stroke-dasharray:none;stroke-dashoffset:1.2;stroke-opacity:1"
     d="M 6.087076,5.5318315 V 58.383868"
     id="path4582"
     inkscape:connector-curvature="0"
     sodipodi:nodetypes="cc" />
  <path
     style="fill:#2f3744;fill-opacity:1;stroke:#535e70;stroke-width:0.132293;stroke-linecap:round;stroke-miterlimit:40;stroke-dasharray:none;stroke-dashoffset:1.2;stroke-opacity:1"
     d="M 11.378796,5.5318315 V 58.383868"
     id="path4585"
     inkscape:connector-curvature="0"
     sodipodi:nodetypes="cc" />
  <path
     style="fill:#2f3744;fill-opacity:1;stroke:#535e70;stroke-width:0.132293;stroke-linecap:round;stroke-miterlimit:40;stroke-dasharray:none;stroke-dashoffset:1.2;stroke-opacity:1"
     d="M 16.670526,5.5318315 V 58.383868"
     id="path4587"
     inkscape:connector-curvature="0"
     sodipodi:nodetypes="cc" />
  <path
     style="fill:#2f3744;fill-opacity:1;stroke:#535e70;stroke-width:0.132293;stroke-linecap:round;stroke-miterlimit:40;stroke-dasharray:none;stroke-dashoffset:1.2;stroke-opacity:1"
     d="M 21.962256,5.5318315 V 58.383868"
     id="path4589"
     inkscape:connector-curvature="0"
     sodipodi:nodetypes="cc" />
  <path
     style="fill:#2f3744;fill-opacity:1;stroke:#535e70;stroke-width:0.132293;stroke-linecap:round;stroke-miterlimit:40;stroke-dasharray:none;stroke-dashoffset:1.2;stroke-opacity:1"
     d="M 27.253976,5.5318315 V 58.383868"
     id="path4591"
     inkscape:connector-curvature="0"
     sodipodi:nodetypes="cc" />
  <path
     style="fill:#2f3744;fill-opacity:1;stroke:#535e70;stroke-width:0.132293;stroke-linecap:round;stroke-miterlimit:40;stroke-dasharray:none;stroke-dashoffset:1.2;stroke-opacity:1"
     d="M 32.545706,5.5318315 V 58.383868"
     id="path4593"
     inkscape:connector-curvature="0"
     sodipodi:nodetypes="cc" />
  <path
     style="fill:#2f3744;fill-opacity:1;stroke:#535e70;stroke-width:0.132293;stroke-linecap:round;stroke-miterlimit:40;stroke-dasharray:none;stroke-dashoffset:1.2;stroke-opacity:1"
     d="M 37.837436,5.5318315 V 58.383868"
     id="path4595"
     inkscape:connector-curvature="0"
     sodipodi:nodetypes="cc" />
  <path
     style="fill:#2f3744;fill-opacity:1;stroke:#535e70;stroke-width:0.132293;stroke-linecap:round;stroke-miterlimit:40;stroke-dasharray:none;stroke-dashoffset:1.2;stroke-opacity:1"
     d="M 43.129166,5.5318315 V 58.383868"
     id="path4597"
     inkscape:connector-curvature="0"
     sodipodi:nodetypes="cc" />
  <path
     style="fill:#2f3744;fill-opacity:1;stroke:#535e70;stroke-width:0.132293;stroke-linecap:round;stroke-miterlimit:40;stroke-dasharray:none;stroke-dashoffset:1.2;stroke-opacity:1"
     d="M 48.420886,5.5318315 V 58.383868"
     id="path4599"
     inkscape:connector-curvature="0"
     sodipodi:nodetypes="cc" />
  <path
     style="fill:#2f3744;fill-opacity:1;stroke:#535e70;stroke-width:0.132293;stroke-linecap:round;stroke-miterlimit:40;stroke-dasharray:none;stroke-dashoffset:1.2;stroke-opacity:1"
     d="M 53.712616,5.5318315 V 58.383868"
     id="path4601"
     inkscape:connector-curvature="0"
     sodipodi:nodetypes="cc" />
  <path
     style="fill:#2f3744;fill-opacity:1;stroke:#535e70;stroke-width:0.132293;stroke-linecap:round;stroke-miterlimit:40;stroke-dasharray:none;stroke-dashoffset:1.2;stroke-opacity:1"
     d="M 59.004346,5.5318315 V 58.383868"
     id="path4603"
     inkscape:connector-curvature="0"
     sodipodi:nodetypes="cc" />
  <path
     style="fill:#2f3744;fill-opacity:1;stroke:#535e70;stroke-width:0.132293;stroke-linecap:round;stroke-miterlimit:40;stroke-dasharray:none;stroke-dashoffset:1.2;stroke-opacity:1"
     d="M 64.296076,5.5318315 V 58.383868"
     id="path4606"
     inkscape:connector-curvature="0"
     sodipodi:nodetypes="cc" />
  <path
     style="fill:#2f3744;fill-opacity:1;stroke:#535e70;stroke-width:0.132293;stroke-linecap:round;stroke-miterlimit:40;stroke-dasharray:none;stroke-dashoffset:1.2;stroke-opacity:1"
     d="M 69.587796,5.5318315 V 58.383868"
     id="path4609"
     inkscape:connector-curvature="0"
     sodipodi:nodetypes="cc" />
  <path
     style="fill:#2f3744;fill-opacity:1;stroke:#535e70;stroke-width:0.132293;stroke-linecap:round;stroke-miterlimit:40;stroke-dasharray:none;stroke-dashoffset:1.2;stroke-opacity:1"
     d="M 74.879526,5.5318315 V 58.383868"
     id="path4611"
     inkscape:connector-curvature="0"
     sodipodi:nodetypes="cc" />
  <path
     style="fill:#2f3744;fill-opacity:1;stroke:#535e70;stroke-width:0.132293;stroke-linecap:round;stroke-miterlimit:40;stroke-dasharray:none;stroke-dashoffset:1.2;stroke-opacity:1"
     d="M 80.171256,5.5318315 V 58.383868"
     id="path4613"
     inkscape:connector-curvature="0"
     sodipodi:nodetypes="cc" />
  <path
     sodipodi:nodetypes="cc"
     inkscape:connector-curvature="0"
     id="path4615"
     d="M 0.92793605,53.098778 H 106.54962"
     style="fill:#2f3744;fill-opacity:1;stroke:#535e70;stroke-width:0.132293;stroke-linecap:round;stroke-miterlimit:40;stroke-dasharray:none;stroke-dashoffset:1.2;stroke-opacity:1" />
  <path
     sodipodi:nodetypes="cc"
     inkscape:connector-curvature="0"
     id="path4617"
     d="M 0.92793605,47.807058 H 106.54962"
     style="fill:#2f3744;fill-opacity:1;stroke:#535e70;stroke-width:0.132293;stroke-linecap:round;stroke-miterlimit:40;stroke-dasharray:none;stroke-dashoffset:1.2;stroke-opacity:1" />
  <path
     sodipodi:nodetypes="cc"
     inkscape:connector-curvature="0"
     id="path4619"
     d="M 0.92793605,42.515327 H 106.54962"
     style="fill:#2f3744;fill-opacity:1;stroke:#535e70;stroke-width:0.132293;stroke-linecap:round;stroke-miterlimit:40;stroke-dasharray:none;stroke-dashoffset:1.2;stroke-opacity:1" />
  <path
     sodipodi:nodetypes="cc"
     inkscape:connector-curvature="0"
     id="path4621"
     d="M 0.92793605,37.2236 H 106.54962"
     style="fill:#2f3744;fill-opacity:1;stroke:#535e70;stroke-width:0.132293;stroke-linecap:round;stroke-miterlimit:40;stroke-dasharray:none;stroke-dashoffset:1.2;stroke-opacity:1" />
  <path
     sodipodi:nodetypes="cc"
     inkscape:connector-curvature="0"
     id="path4623"
     d="M 0.92793605,26.640146 H 106.54962"
     style="fill:#2f3744;fill-opacity:1;stroke:#535e70;stroke-width:0.132293;stroke-linecap:round;stroke-miterlimit:40;stroke-dasharray:none;stroke-dashoffset:1.2;stroke-opacity:1" />
  <path
     sodipodi:nodetypes="cc"
     inkscape:connector-curvature="0"
     id="path4627"
     d="M 0.92793605,21.348418 H 106.54962"
     style="fill:#2f3744;fill-opacity:1;stroke:#535e70;stroke-width:0.132293;stroke-linecap:round;stroke-miterlimit:40;stroke-dasharray:none;stroke-dashoffset:1.2;stroke-opacity:1" />
  <path
     sodipodi:nodetypes="cc"
     inkscape:connector-curvature="0"
     id="path4631"
     d="M 0.92793605,16.056691 H 106.54962"
     style="fill:#2f3744;fill-opacity:1;stroke:#535e70;stroke-width:0.132293;stroke-linecap:round;stroke-miterlimit:40;stroke-dasharray:none;stroke-dashoffset:1.2;stroke-opacity:1" />
  <path
     sodipodi:nodetypes="cc"
     inkscape:connector-curvature="0"
     id="path4635"
     d="M 0.92793605,10.764964 H 106.54962"
     style="fill:#2f3744;fill-opacity:1;stroke:#535e70;stroke-width:0.132293;stroke-linecap:round;stroke-miterlimit:40;stroke-dasharray:none;stroke-dashoffset:1.2;stroke-opacity:1" />
  <path
     sodipodi:nodetypes="cc"
     inkscape:connector-curvature="0"
     id="path4639"
     d="M 0.79534605,5.5318315 V 58.383868"
     style="fill:#2f3744;fill-opacity:1;stroke:#535e70;stroke-width:0.132293;stroke-linecap:round;stroke-miterlimit:40;stroke-dasharray:none;stroke-dashoffset:1.2;stroke-opacity:1" />
  <path
     style="fill:#2f3744;fill-opacity:1;stroke:#535e70;stroke-width:0.132293;stroke-linecap:round;stroke-miterlimit:40;stroke-dasharray:none;stroke-dashoffset:1.2;stroke-opacity:1"
     d="M 0.92793605,5.4732255 H 106.54962"
     id="path4643"
     inkscape:connector-curvature="0"
     sodipodi:nodetypes="cc" />
  <path
     sodipodi:nodetypes="cc"
     inkscape:connector-curvature="0"
     id="path4647"
     d="M 0.92793605,58.390508 H 106.54962"
     style="fill:#2f3744;fill-opacity:1;stroke:#535e70;stroke-width:0.132293;stroke-linecap:round;stroke-miterlimit:40;stroke-dasharray:none;stroke-dashoffset:1.2;stroke-opacity:1" />
  <path
     style="fill:#2f3744;fill-opacity:1;stroke:#535e70;stroke-width:0.132293;stroke-linecap:round;stroke-miterlimit:40;stroke-dasharray:none;stroke-dashoffset:1.2;stroke-opacity:1"
     d="M 0.92793605,31.931873 H 106.54962"
     id="path4651"
     inkscape:connector-curvature="0"
     sodipodi:nodetypes="cc" />
  <path
     sodipodi:nodetypes="cc"
     inkscape:connector-curvature="0"
     id="path4655"
     d="M 85.462976,5.5318315 V 58.383868"
     style="fill:#2f3744;fill-opacity:1;stroke:#535e70;stroke-width:0.132293;stroke-linecap:round;stroke-miterlimit:40;stroke-dasharray:none;stroke-dashoffset:1.2;stroke-opacity:1" />
  <path
     sodipodi:nodetypes="cc"
     inkscape:connector-curvature="0"
     id="path4659"
     d="M 90.754706,5.5318315 V 58.383868"
     style="fill:#2f3744;fill-opacity:1;stroke:#535e70;stroke-width:0.132293;stroke-linecap:round;stroke-miterlimit:40;stroke-dasharray:none;stroke-dashoffset:1.2;stroke-opacity:1" />
  <path
     sodipodi:nodetypes="cc"
     inkscape:connector-curvature="0"
     id="path4663"
     d="M 96.046436,5.5318315 V 58.383868"
     style="fill:#2f3744;fill-opacity:1;stroke:#535e70;stroke-width:0.132293;stroke-linecap:round;stroke-miterlimit:40;stroke-dasharray:none;stroke-dashoffset:1.2;stroke-opacity:1" />
  <path
     sodipodi:nodetypes="cc"
     inkscape:connector-curvature="0"
     id="path4667"
     d="M 101.33817,5.5318315 V 58.383868"
     style="fill:#2f3744;fill-opacity:1;stroke:#535e70;stroke-width:0.132293;stroke-linecap:round;stroke-miterlimit:40;stroke-dasharray:none;stroke-dashoffset:1.2;stroke-opacity:1" />
  <path
     sodipodi:nodetypes="cc"
     inkscape:connector-curvature="0"
     id="path4671"
     d="M 106.62989,5.5318315 V 58.383868"
     style="fill:#2f3744;fill-opacity:1;stroke:#535e70;stroke-width:0.132293;stroke-linecap:round;stroke-miterlimit:40;stroke-dasharray:none;stroke-dashoffset:1.2;stroke-opacity:1" />
  <path
     style="fill:none;fill-opacity:1;stroke:#535e70;stroke-width:0.264586;stroke-linecap:round;stroke-miterlimit:4;stroke-dasharray:none;stroke-dashoffset:0;stroke-opacity:1"
     d="m 0.79375605,31.935656 c 0,0 13.89078995,-26.4586735 26.45863995,-26.4586735 18.19031,0 33.07329,52.9173655 52.91727,52.9173655 15.54445,0 26.458644,-26.458692 26.458644,-26.458692"
     id="path4675"
     inkscape:connector-curvature="0"
     sodipodi:nodetypes="cssc" />
  <circle
     style="fill:#d2d6dc;fill-opacity:1;stroke:none;stroke-width:0.264586;stroke-linecap:round;stroke-miterlimit:4;stroke-dasharray:none;stroke-dashoffset:0;stroke-opacity:1"
     id="circle4677"
     cx="0.79375911"
     cy="31.935635"
     r="0.79375911" />
  <circle
     r="0.79375911"
     cy="23.204288"
     cx="6.085484"
     id="circle4679"
     style="fill:#d2d6dc;fill-opacity:1;stroke:none;stroke-width:0.264586;stroke-linecap:round;stroke-miterlimit:4;stroke-dasharray:none;stroke-dashoffset:0;stroke-opacity:1" />
  <circle
     style="fill:#d2d6dc;fill-opacity:1;stroke:none;stroke-width:0.264586;stroke-linecap:round;stroke-miterlimit:4;stroke-dasharray:none;stroke-dashoffset:0;stroke-opacity:1"
     id="circle4681"
     cx="11.37721"
     cy="16.060459"
     r="0.79375911" />
  <circle
     r="0.79375911"
     cy="10.768726"
     cx="16.668949"
     id="circle4683"
     style="fill:#d2d6dc;fill-opacity:1;stroke:none;stroke-width:0.264586;stroke-linecap:round;stroke-miterlimit:4;stroke-dasharray:none;stroke-dashoffset:0;stroke-opacity:1" />
  <circle
     style="fill:#d2d6dc;fill-opacity:1;stroke:none;stroke-width:0.264586;stroke-linecap:round;stroke-miterlimit:4;stroke-dasharray:none;stroke-dashoffset:0;stroke-opacity:1"
     id="circle4685"
     cx="21.960667"
     cy="6.7999344"
     r="0.79375911" />
  <circle
     r="0.79375911"
     cy="5.4770012"
     cx="27.252392"
     id="circle4687"
     style="fill:#d2d6dc;fill-opacity:1;stroke:none;stroke-width:0.264586;stroke-linecap:round;stroke-miterlimit:4;stroke-dasharray:none;stroke-dashoffset:0;stroke-opacity:1" />
  <circle
     style="fill:#d2d6dc;fill-opacity:1;stroke:none;stroke-width:0.264586;stroke-linecap:round;stroke-miterlimit:4;stroke-dasharray:none;stroke-dashoffset:0;stroke-opacity:1"
     id="circle4689"
     cx="32.544125"
     cy="6.7999344"
     r="0.79375911" />
  <circle
     r="0.79375911"
     cy="10.768726"
     cx="37.835842"
     id="circle4691"
     style="fill:#d2d6dc;fill-opacity:1;stroke:none;stroke-width:0.264586;stroke-linecap:round;stroke-miterlimit:4;stroke-dasharray:none;stroke-dashoffset:0;stroke-opacity:1" />
  <circle
     style="fill:#d2d6dc;fill-opacity:1;stroke:none;stroke-width:0.264586;stroke-linecap:round;stroke-miterlimit:4;stroke-dasharray:none;stroke-dashoffset:0;stroke-opacity:1"
     id="circle4693"
     cx="43.127575"
     cy="16.854214"
     r="0.79375911" />
  <circle
     r="0.79375911"
     cy="24.527218"
     cx="48.419308"
     id="circle4695"
     style="fill:#d2d6dc;fill-opacity:1;stroke:none;stroke-width:0.264586;stroke-linecap:round;stroke-miterlimit:4;stroke-dasharray:none;stroke-dashoffset:0;stroke-opacity:1" />
  <circle
     style="fill:#d2d6dc;fill-opacity:1;stroke:none;stroke-width:0.264586;stroke-linecap:round;stroke-miterlimit:4;stroke-dasharray:none;stroke-dashoffset:0;stroke-opacity:1"
     id="circle4697"
     cx="53.711025"
     cy="32.729397"
     r="0.79375911" />
  <circle
     r="0.79375911"
     cy="40.931576"
     cx="59.002758"
     id="circle4699"
     style="fill:#d2d6dc;fill-opacity:1;stroke:none;stroke-width:0.264586;stroke-linecap:round;stroke-miterlimit:4;stroke-dasharray:none;stroke-dashoffset:0;stroke-opacity:1" />
  <circle
     style="fill:#d2d6dc;fill-opacity:1;stroke:none;stroke-width:0.264586;stroke-linecap:round;stroke-miterlimit:4;stroke-dasharray:none;stroke-dashoffset:0;stroke-opacity:1"
     id="circle4701"
     cx="64.294479"
     cy="47.810818"
     r="0.79375911" />
  <circle
     r="0.79375911"
     cy="53.631718"
     cx="69.586212"
     id="circle4703"
     style="fill:#d2d6dc;fill-opacity:1;stroke:none;stroke-width:0.264586;stroke-linecap:round;stroke-miterlimit:4;stroke-dasharray:none;stroke-dashoffset:0;stroke-opacity:1" />
  <circle
     style="fill:#d2d6dc;fill-opacity:1;stroke:none;stroke-width:0.264586;stroke-linecap:round;stroke-miterlimit:4;stroke-dasharray:none;stroke-dashoffset:0;stroke-opacity:1"
     id="circle4705"
     cx="74.877945"
     cy="57.071339"
     r="0.79375911" />
  <circle
     r="0.79375911"
     cy="58.394276"
     cx="80.169662"
     id="circle4707"
     style="fill:#d2d6dc;fill-opacity:1;stroke:none;stroke-width:0.264586;stroke-linecap:round;stroke-miterlimit:4;stroke-dasharray:none;stroke-dashoffset:0;stroke-opacity:1" />
  <circle
     style="fill:#d2d6dc;fill-opacity:1;stroke:none;stroke-width:0.264586;stroke-linecap:round;stroke-miterlimit:4;stroke-dasharray:none;stroke-dashoffset:0;stroke-opacity:1"
     id="circle4709"
     cx="85.461395"
     cy="57.071339"
     r="0.79375911" />
  <circle
     r="0.79375911"
     cy="54.42548"
     cx="90.753128"
     id="circle4711"
     style="fill:#d2d6dc;fill-opacity:1;stroke:none;stroke-width:0.264586;stroke-linecap:round;stroke-miterlimit:4;stroke-dasharray:none;stroke-dashoffset:0;stroke-opacity:1" />
  <circle
     style="fill:#d2d6dc;fill-opacity:1;stroke:none;stroke-width:0.264586;stroke-linecap:round;stroke-miterlimit:4;stroke-dasharray:none;stroke-dashoffset:0;stroke-opacity:1"
     id="circle4713"
     cx="96.044846"
     cy="49.133747"
     r="0.79375911" />
  <circle
     r="0.79375911"
     cy="42.254505"
     cx="101.33658"
     id="circle4715"
     style="fill:#d2d6dc;fill-opacity:1;stroke:none;stroke-width:0.264586;stroke-linecap:round;stroke-miterlimit:4;stroke-dasharray:none;stroke-dashoffset:0;stroke-opacity:1" />
  <circle
     style="fill:#d2d6dc;fill-opacity:1;stroke:none;stroke-width:0.264586;stroke-linecap:round;stroke-miterlimit:4;stroke-dasharray:none;stroke-dashoffset:0;stroke-opacity:1"
     id="circle4717"
     cx="103.98244"
     cy="37.227367"
     r="0.79375911" />
  <circle
     r="0.79375911"
     cy="31.935635"
     cx="106.62831"
     id="circle4719"
     style="fill:#d2d6dc;fill-opacity:1;stroke:none;stroke-width:0.264586;stroke-linecap:round;stroke-miterlimit:4;stroke-dasharray:none;stroke-dashoffset:0;stroke-opacity:1" />
  <g
     aria-label="Vysoký sample rate, vysoká bitová hloubka"
     id="text4723"
     style="font-size:3.17504px;line-height:1.25;font-family:'Small Fonts';-inkscape-font-specification:'Small Fonts';text-align:center;text-anchor:middle;fill:#e8eaec;stroke:#cf2f25;stroke-width:0.264586;stroke-linecap:round">
    <path
       d="M 1.0915775,3.0221176 H 1.5022154 L 2.3827584,0.24502044 H 2.0229211 L 1.5784162,1.7436369 C 1.4852818,2.0738405 1.4133144,2.3363101 1.3117133,2.6622803 H 1.2947798 C 1.1931786,2.3363101 1.1254446,2.0738405 1.0280768,1.7436369 L 0.57933856,0.24502044 H 0.20680114 Z"
       style="font-size:4.23338px;font-family:'Source Sans Pro';-inkscape-font-specification:'Source Sans Pro';text-align:start;text-anchor:start;stroke:none"
       id="path10820" />
    <path
       d="m 2.5436244,3.5893905 -0.067734,0.2751697 c 0.067734,0.0254 0.1481683,0.042334 0.2413027,0.042334 0.4148712,0 0.6265402,-0.3090367 0.7704751,-0.7154412 L 4.2623766,0.96469501 H 3.9237062 L 3.5554022,2.1034742 C 3.5003682,2.2855095 3.4411009,2.4971785 3.3818336,2.6834472 H 3.3649001 C 3.3013994,2.4929451 3.2294319,2.2812761 3.1659312,2.1034742 L 2.7468266,0.96469501 H 2.3869894 L 3.2124984,3.026351 3.1659312,3.1787527 c -0.084668,0.2540028 -0.2328358,0.4402715 -0.4656717,0.4402715 -0.050801,0 -0.1143013,-0.016933 -0.1566351,-0.029634 z"
       style="font-size:4.23338px;font-family:'Source Sans Pro';-inkscape-font-specification:'Source Sans Pro';text-align:start;text-anchor:start;stroke:none"
       id="path10822" />
    <path
       d="m 4.4317158,2.7892817 c 0.1947355,0.1608685 0.4741385,0.2836365 0.7662417,0.2836365 0.4868387,0 0.7535417,-0.2794031 0.7535417,-0.6138401 0,-0.3894709 -0.3302037,-0.512239 -0.6265403,-0.6223068 -0.2328358,-0.088901 -0.457205,-0.1651019 -0.457205,-0.3556039 0,-0.1566351 0.1185347,-0.2963366 0.3767708,-0.2963366 0.1820354,0 0.3302037,0.076201 0.4699052,0.1820353 L 5.8795317,1.1467303 C 5.7228966,1.019729 5.4985275,0.91389445 5.2402913,0.91389445 c -0.4445048,0 -0.7069744,0.25400275 -0.7069744,0.58420645 0,0.3471371 0.3217369,0.4868387 0.6138401,0.5926731 0.2243691,0.084668 0.4699052,0.177802 0.4699052,0.389471 0,0.1778019 -0.1354682,0.3217369 -0.4064045,0.3217369 -0.245536,0 -0.4275714,-0.1016012 -0.6053733,-0.2455361 z"
       style="font-size:4.23338px;font-family:'Source Sans Pro';-inkscape-font-specification:'Source Sans Pro';text-align:start;text-anchor:start;stroke:none"
       id="path10824" />
    <path
       d="m 6.2817056,1.9976397 c 0,0.6815741 0.4487382,1.0752785 0.9525104,1.0752785 0.5037722,0 0.9525105,-0.3937044 0.9525105,-1.0752785 0,-0.6900409 -0.4487383,-1.08374525 -0.9525105,-1.08374525 -0.5037722,0 -0.9525104,0.39370435 -0.9525104,1.08374525 z m 0.3598373,0 c 0,-0.4741385 0.2413026,-0.7958754 0.5926731,-0.7958754 0.3556039,0 0.5926732,0.3217369 0.5926732,0.7958754 0,0.4699052 -0.2370693,0.7874086 -0.5926732,0.7874086 -0.3513705,0 -0.5926731,-0.3175034 -0.5926731,-0.7874086 z"
       style="font-size:4.23338px;font-family:'Source Sans Pro';-inkscape-font-specification:'Source Sans Pro';text-align:start;text-anchor:start;stroke:none"
       id="path10826" />
    <path
       d="M 8.7285981,3.0221176 H 9.0715018 V 2.480245 L 9.4567394,2.0315067 10.057879,3.0221176 h 0.381005 L 9.6557082,1.7902041 10.345749,0.96469501 H 9.9605116 L 9.084202,2.0484403 h -0.0127 V 0.00795117 H 8.7285981 Z"
       style="font-size:4.23338px;font-family:'Source Sans Pro';-inkscape-font-specification:'Source Sans Pro';text-align:start;text-anchor:start;stroke:none"
       id="path10828" />
    <path
       d="m 10.684423,3.5893905 -0.06773,0.2751697 c 0.06773,0.0254 0.148168,0.042334 0.241303,0.042334 0.414871,0 0.62654,-0.3090367 0.770475,-0.7154412 l 0.774708,-2.22675779 h -0.33867 L 11.696201,2.1034742 c -0.05503,0.1820353 -0.114301,0.3937043 -0.173569,0.579973 h -0.01693 C 11.442198,2.4929451 11.370231,2.2812761 11.30673,2.1034742 L 10.887625,0.96469501 H 10.527788 L 11.353297,3.026351 11.30673,3.1787527 c -0.08467,0.2540028 -0.232836,0.4402715 -0.465672,0.4402715 -0.0508,0 -0.114301,-0.016933 -0.156635,-0.029634 z M 11.975604,-5.1559162e-4 H 11.611533 L 11.230529,0.59639097 h 0.266703 z"
       style="font-size:4.23338px;font-family:'Source Sans Pro';-inkscape-font-specification:'Source Sans Pro';text-align:start;text-anchor:start;stroke:none"
       id="path10830" />
    <path
       d="m 13.427656,2.7892817 c 0.194735,0.1608685 0.474138,0.2836365 0.766241,0.2836365 0.486839,0 0.753542,-0.2794031 0.753542,-0.6138401 0,-0.3894709 -0.330204,-0.512239 -0.62654,-0.6223068 -0.232836,-0.088901 -0.457205,-0.1651019 -0.457205,-0.3556039 0,-0.1566351 0.118534,-0.2963366 0.37677,-0.2963366 0.182036,0 0.330204,0.076201 0.469906,0.1820353 L 14.875471,1.1467303 C 14.718836,1.019729 14.494467,0.91389445 14.236231,0.91389445 c -0.444505,0 -0.706974,0.25400275 -0.706974,0.58420645 0,0.3471371 0.321737,0.4868387 0.61384,0.5926731 0.224369,0.084668 0.469905,0.177802 0.469905,0.389471 0,0.1778019 -0.135468,0.3217369 -0.406405,0.3217369 -0.245536,0 -0.427571,-0.1016012 -0.605373,-0.2455361 z"
       style="font-size:4.23338px;font-family:'Source Sans Pro';-inkscape-font-specification:'Source Sans Pro';text-align:start;text-anchor:start;stroke:none"
       id="path10832" />
    <path
       d="m 15.328446,2.4887118 c 0,0.368304 0.258237,0.5842064 0.605374,0.5842064 0.254002,0 0.482605,-0.1354682 0.681574,-0.2963366 h 0.0085 l 0.02963,0.245536 h 0.28787 V 1.7605704 c 0,-0.5122389 -0.211669,-0.84667595 -0.715441,-0.84667595 -0.330204,0 -0.618074,0.14393495 -0.808576,0.26670295 L 15.557049,1.4219 c 0.160868,-0.1100678 0.372537,-0.2201357 0.61384,-0.2201357 0.334437,0 0.423338,0.2540028 0.423338,0.5164723 -0.87631,0.097368 -1.265781,0.3217369 -1.265781,0.7704752 z m 0.342904,-0.0254 c 0,-0.2624696 0.232836,-0.4318048 0.922877,-0.5164724 v 0.5715063 c -0.198969,0.177802 -0.364071,0.2751697 -0.56304,0.2751697 -0.203202,0 -0.359837,-0.097368 -0.359837,-0.3302036 z"
       style="font-size:4.23338px;font-family:'Source Sans Pro';-inkscape-font-specification:'Source Sans Pro';text-align:start;text-anchor:start;stroke:none"
       id="path10834" />
    <path
       d="m 17.597535,3.0221176 h 0.347137 V 1.5319679 c 0.190502,-0.211669 0.36407,-0.3175035 0.516472,-0.3175035 0.26247,0 0.385238,0.1651018 0.385238,0.5503394 v 1.2573138 h 0.347137 V 1.5319679 c 0.190502,-0.211669 0.355604,-0.3175035 0.516472,-0.3175035 0.258236,0 0.381004,0.1651018 0.381004,0.5503394 v 1.2573138 h 0.347137 v -1.303881 c 0,-0.5249391 -0.203202,-0.80434215 -0.62654,-0.80434215 -0.249769,0 -0.461438,0.16086845 -0.677341,0.39370435 -0.08467,-0.2455361 -0.254002,-0.39370435 -0.567272,-0.39370435 -0.245536,0 -0.461439,0.15240165 -0.639241,0.34713715 h -0.0127 l -0.02963,-0.29633659 h -0.287869 z"
       style="font-size:4.23338px;font-family:'Source Sans Pro';-inkscape-font-specification:'Source Sans Pro';text-align:start;text-anchor:start;stroke:none"
       id="path10836" />
    <path
       d="m 21.445679,2.8358489 c 0.190502,0.1481683 0.381004,0.2370693 0.571506,0.2370693 0.469905,0 0.88901,-0.4106379 0.88901,-1.1091455 0,-0.6392404 -0.283637,-1.04987825 -0.812809,-1.04987825 -0.241303,0 -0.469905,0.13123475 -0.656174,0.28786985 h -0.0127 l -0.02963,-0.23706929 h -0.28787 V 3.8899605 h 0.347138 V 3.1956862 Z m 0.0085,-0.2709363 V 1.4854007 c 0.203202,-0.1820353 0.37677,-0.279403 0.550339,-0.279403 0.389471,0 0.541873,0.3048033 0.541873,0.757775 0,0.5080055 -0.24977,0.8170423 -0.58844,0.8170423 -0.135468,0 -0.317504,-0.059267 -0.503772,-0.2159024 z"
       style="font-size:4.23338px;font-family:'Source Sans Pro';-inkscape-font-specification:'Source Sans Pro';text-align:start;text-anchor:start;stroke:none"
       id="path10838" />
    <path
       d="m 23.456536,2.6072464 c 0,0.30057 0.105834,0.4656718 0.368304,0.4656718 0.09313,0 0.152401,-0.0127 0.198969,-0.033867 l -0.04657,-0.2624695 c -0.0381,0.00847 -0.05503,0.00847 -0.0762,0.00847 -0.0508,0 -0.09737,-0.042334 -0.09737,-0.1524016 V 0.00795117 h -0.347137 z"
       style="font-size:4.23338px;font-family:'Source Sans Pro';-inkscape-font-specification:'Source Sans Pro';text-align:start;text-anchor:start;stroke:none"
       id="path10840" />
    <path
       d="m 24.383642,1.9976397 c 0,0.6731074 0.436038,1.0752785 0.986377,1.0752785 0.279403,0 0.499539,-0.097368 0.677341,-0.211669 L 25.924592,2.6326467 c -0.152402,0.097368 -0.317503,0.1608684 -0.512239,0.1608684 -0.393704,0 -0.660407,-0.2794031 -0.685807,-0.7239079 h 1.388548 c 0.0085,-0.050801 0.0127,-0.1185347 0.0127,-0.1905021 0,-0.5884398 -0.296336,-0.96521065 -0.821275,-0.96521065 -0.469905,0 -0.922877,0.41063785 -0.922877,1.08374525 z m 0.33867,-0.1566351 c 0.04233,-0.4148712 0.304804,-0.6519405 0.592673,-0.6519405 0.321737,0 0.508006,0.2328359 0.508006,0.6519405 z"
       style="font-size:4.23338px;font-family:'Source Sans Pro';-inkscape-font-specification:'Source Sans Pro';text-align:start;text-anchor:start;stroke:none"
       id="path10842" />
    <path
       d="M 27.490942,3.0221176 H 27.83808 V 1.7013031 c 0.139701,-0.3471371 0.347137,-0.4741385 0.520705,-0.4741385 0.08467,0 0.131235,0.0127 0.198969,0.033867 l 0.06773,-0.30480335 c -0.06773,-0.0296337 -0.131235,-0.0423338 -0.220136,-0.0423338 -0.232835,0 -0.444504,0.16510185 -0.584206,0.42333795 h -0.0127 l -0.02963,-0.37253739 h -0.28787 z"
       style="font-size:4.23338px;font-family:'Source Sans Pro';-inkscape-font-specification:'Source Sans Pro';text-align:start;text-anchor:start;stroke:none"
       id="path10844" />
    <path
       d="m 28.752491,2.4887118 c 0,0.368304 0.258236,0.5842064 0.605373,0.5842064 0.254003,0 0.482606,-0.1354682 0.681574,-0.2963366 h 0.0085 l 0.02963,0.245536 h 0.28787 V 1.7605704 c 0,-0.5122389 -0.211669,-0.84667595 -0.715442,-0.84667595 -0.330203,0 -0.618073,0.14393495 -0.808575,0.26670295 L 28.981093,1.4219 c 0.160869,-0.1100678 0.372538,-0.2201357 0.613841,-0.2201357 0.334437,0 0.423338,0.2540028 0.423338,0.5164723 -0.87631,0.097368 -1.265781,0.3217369 -1.265781,0.7704752 z m 0.342904,-0.0254 c 0,-0.2624696 0.232836,-0.4318048 0.922877,-0.5164724 v 0.5715063 c -0.198969,0.177802 -0.364071,0.2751697 -0.56304,0.2751697 -0.203202,0 -0.359837,-0.097368 -0.359837,-0.3302036 z"
       style="font-size:4.23338px;font-family:'Source Sans Pro';-inkscape-font-specification:'Source Sans Pro';text-align:start;text-anchor:start;stroke:none"
       id="path10846" />
    <path
       d="m 31.080847,2.3871106 c 0,0.4064045 0.148169,0.6858076 0.58844,0.6858076 0.127002,0 0.266703,-0.0381 0.381004,-0.076201 l -0.06773,-0.2624695 c -0.06773,0.0254 -0.160868,0.055034 -0.232836,0.055034 -0.237069,0 -0.317503,-0.1439349 -0.317503,-0.3979377 V 1.2483315 h 0.554573 V 0.96469501 H 31.432218 V 0.38895535 h -0.292103 l -0.04233,0.57573966 -0.321737,0.0211669 V 1.2483315 h 0.304803 z"
       style="font-size:4.23338px;font-family:'Source Sans Pro';-inkscape-font-specification:'Source Sans Pro';text-align:start;text-anchor:start;stroke:none"
       id="path10848" />
    <path
       d="m 32.257723,1.9976397 c 0,0.6731074 0.436038,1.0752785 0.986377,1.0752785 0.279403,0 0.499539,-0.097368 0.677341,-0.211669 L 33.798673,2.6326467 c -0.152402,0.097368 -0.317504,0.1608684 -0.512239,0.1608684 -0.393704,0 -0.660407,-0.2794031 -0.685808,-0.7239079 h 1.388549 c 0.0085,-0.050801 0.0127,-0.1185347 0.0127,-0.1905021 0,-0.5884398 -0.296337,-0.96521065 -0.821276,-0.96521065 -0.469905,0 -0.922876,0.41063785 -0.922876,1.08374525 z m 0.33867,-0.1566351 c 0.04233,-0.4148712 0.304803,-0.6519405 0.592673,-0.6519405 0.321737,0 0.508006,0.2328359 0.508006,0.6519405 z"
       style="font-size:4.23338px;font-family:'Source Sans Pro';-inkscape-font-specification:'Source Sans Pro';text-align:start;text-anchor:start;stroke:none"
       id="path10850" />
    <path
       d="m 34.44638,3.7417922 c 0.342904,-0.1439349 0.554573,-0.4275714 0.554573,-0.791642 0,-0.2540028 -0.110068,-0.4106379 -0.292104,-0.4106379 -0.139701,0 -0.258236,0.093134 -0.258236,0.245536 0,0.1566351 0.114301,0.2413027 0.24977,0.2413027 0.0127,0 0.02963,0 0.04233,-0.00423 0,0.2286025 -0.143935,0.4106379 -0.381004,0.5164724 z"
       style="font-size:4.23338px;font-family:'Source Sans Pro';-inkscape-font-specification:'Source Sans Pro';text-align:start;text-anchor:start;stroke:none"
       id="path10852" />
    <path
       d="m 36.863641,3.0221176 h 0.406405 L 37.998187,0.96469501 H 37.655283 L 37.265812,2.1331078 c -0.05927,0.2032023 -0.127001,0.4106379 -0.186268,0.6053734 H 37.06261 C 36.999109,2.5437457 36.931375,2.3363101 36.872108,2.1331078 L 36.482637,0.96469501 H 36.1228 Z"
       style="font-size:4.23338px;font-family:'Source Sans Pro';-inkscape-font-specification:'Source Sans Pro';text-align:start;text-anchor:start;stroke:none"
       id="path10854" />
    <path
       d="m 38.256428,3.5893905 -0.06773,0.2751697 c 0.06773,0.0254 0.148169,0.042334 0.241303,0.042334 0.414871,0 0.62654,-0.3090367 0.770475,-0.7154412 L 39.975181,0.96469501 H 39.63651 L 39.268206,2.1034742 c -0.05503,0.1820353 -0.114301,0.3937043 -0.173568,0.579973 h -0.01693 C 39.014203,2.4929451 38.942236,2.2812761 38.878735,2.1034742 L 38.459631,0.96469501 h -0.359838 l 0.825509,2.06165599 -0.04657,0.1524017 c -0.08467,0.2540028 -0.232836,0.4402715 -0.465671,0.4402715 -0.0508,0 -0.114302,-0.016933 -0.156636,-0.029634 z"
       style="font-size:4.23338px;font-family:'Source Sans Pro';-inkscape-font-specification:'Source Sans Pro';text-align:start;text-anchor:start;stroke:none"
       id="path10856" />
    <path
       d="m 40.144521,2.7892817 c 0.194736,0.1608685 0.474139,0.2836365 0.766242,0.2836365 0.486839,0 0.753541,-0.2794031 0.753541,-0.6138401 0,-0.3894709 -0.330203,-0.512239 -0.62654,-0.6223068 -0.232836,-0.088901 -0.457205,-0.1651019 -0.457205,-0.3556039 0,-0.1566351 0.118535,-0.2963366 0.376771,-0.2963366 0.182035,0 0.330204,0.076201 0.469905,0.1820353 L 41.592337,1.1467303 C 41.435702,1.019729 41.211333,0.91389445 40.953097,0.91389445 c -0.444505,0 -0.706975,0.25400275 -0.706975,0.58420645 0,0.3471371 0.321737,0.4868387 0.61384,0.5926731 0.224369,0.084668 0.469905,0.177802 0.469905,0.389471 0,0.1778019 -0.135468,0.3217369 -0.406404,0.3217369 -0.245536,0 -0.427571,-0.1016012 -0.605373,-0.2455361 z"
       style="font-size:4.23338px;font-family:'Source Sans Pro';-inkscape-font-specification:'Source Sans Pro';text-align:start;text-anchor:start;stroke:none"
       id="path10858" />
    <path
       d="m 41.99451,1.9976397 c 0,0.6815741 0.448739,1.0752785 0.952511,1.0752785 0.503772,0 0.95251,-0.3937044 0.95251,-1.0752785 0,-0.6900409 -0.448738,-1.08374525 -0.95251,-1.08374525 -0.503772,0 -0.952511,0.39370435 -0.952511,1.08374525 z m 0.359838,0 c 0,-0.4741385 0.241302,-0.7958754 0.592673,-0.7958754 0.355604,0 0.592673,0.3217369 0.592673,0.7958754 0,0.4699052 -0.237069,0.7874086 -0.592673,0.7874086 -0.351371,0 -0.592673,-0.3175034 -0.592673,-0.7874086 z"
       style="font-size:4.23338px;font-family:'Source Sans Pro';-inkscape-font-specification:'Source Sans Pro';text-align:start;text-anchor:start;stroke:none"
       id="path10860" />
    <path
       d="m 44.441403,3.0221176 h 0.342904 V 2.480245 l 0.385237,-0.4487383 0.60114,0.9906109 h 0.381004 L 45.368513,1.7902041 46.058554,0.96469501 H 45.673316 L 44.797007,2.0484403 h -0.0127 V 0.00795117 h -0.342904 z"
       style="font-size:4.23338px;font-family:'Source Sans Pro';-inkscape-font-specification:'Source Sans Pro';text-align:start;text-anchor:start;stroke:none"
       id="path10862" />
    <path
       d="m 46.392994,2.4887118 c 0,0.368304 0.258236,0.5842064 0.605373,0.5842064 0.254003,0 0.482605,-0.1354682 0.681574,-0.2963366 h 0.0085 l 0.02963,0.245536 h 0.28787 V 1.7605704 c 0,-0.5122389 -0.211669,-0.84667595 -0.715442,-0.84667595 -0.330203,0 -0.618073,0.14393495 -0.808575,0.26670295 L 46.621596,1.4219 c 0.160869,-0.1100678 0.372538,-0.2201357 0.61384,-0.2201357 0.334437,0 0.423338,0.2540028 0.423338,0.5164723 -0.876309,0.097368 -1.26578,0.3217369 -1.26578,0.7704752 z m 0.342904,-0.0254 c 0,-0.2624696 0.232836,-0.4318048 0.922876,-0.5164724 v 0.5715063 c -0.198968,0.177802 -0.36407,0.2751697 -0.563039,0.2751697 -0.203202,0 -0.359837,-0.097368 -0.359837,-0.3302036 z m 1.020244,-2.46382709162 h -0.36407 L 47.011067,0.59639097 h 0.266703 z"
       style="font-size:4.23338px;font-family:'Source Sans Pro';-inkscape-font-specification:'Source Sans Pro';text-align:start;text-anchor:start;stroke:none"
       id="path10864" />
    <path
       d="m 49.517224,3.0221176 h 0.279403 l 0.02963,-0.2032022 h 0.0127 c 0.182035,0.1608684 0.397937,0.2540028 0.588439,0.2540028 0.469906,0 0.88901,-0.4106379 0.88901,-1.1133789 0,-0.635007 -0.283636,-1.04564485 -0.817042,-1.04564485 -0.228603,0 -0.457205,0.12276805 -0.643474,0.28786985 l 0.0085,-0.37253744 V 0.00795117 h -0.347137 z m 0.347137,-0.457205 V 1.4854007 c 0.194735,-0.1820353 0.376771,-0.279403 0.550339,-0.279403 0.389471,0 0.541873,0.3048033 0.541873,0.757775 0,0.5080055 -0.249769,0.8170423 -0.58844,0.8170423 -0.135468,0 -0.321737,-0.059267 -0.503772,-0.2159024 z"
       style="font-size:4.23338px;font-family:'Source Sans Pro';-inkscape-font-specification:'Source Sans Pro';text-align:start;text-anchor:start;stroke:none"
       id="path10866" />
    <path
       d="m 52.044551,0.54135703 c 0.135468,0 0.241303,-0.0931344 0.241303,-0.22436913 0,-0.13546816 -0.105835,-0.22436914 -0.241303,-0.22436914 -0.135468,0 -0.241302,0.08890098 -0.241302,0.22436914 0,0.13123477 0.105834,0.22436913 0.241302,0.22436913 z M 51.866749,3.0221176 h 0.347137 V 0.96469501 h -0.347137 z"
       style="font-size:4.23338px;font-family:'Source Sans Pro';-inkscape-font-specification:'Source Sans Pro';text-align:start;text-anchor:start;stroke:none"
       id="path10868" />
    <path
       d="m 52.967429,2.3871106 c 0,0.4064045 0.148168,0.6858076 0.58844,0.6858076 0.127001,0 0.266703,-0.0381 0.381004,-0.076201 l -0.06773,-0.2624695 c -0.06773,0.0254 -0.160869,0.055034 -0.232836,0.055034 -0.237069,0 -0.317504,-0.1439349 -0.317504,-0.3979377 V 1.2483315 h 0.554573 V 0.96469501 H 53.318799 V 0.38895535 h -0.292103 l -0.04233,0.57573966 -0.321736,0.0211669 V 1.2483315 h 0.304803 z"
       style="font-size:4.23338px;font-family:'Source Sans Pro';-inkscape-font-specification:'Source Sans Pro';text-align:start;text-anchor:start;stroke:none"
       id="path10870" />
    <path
       d="m 54.144306,1.9976397 c 0,0.6815741 0.448738,1.0752785 0.95251,1.0752785 0.503773,0 0.952511,-0.3937044 0.952511,-1.0752785 0,-0.6900409 -0.448738,-1.08374525 -0.952511,-1.08374525 -0.503772,0 -0.95251,0.39370435 -0.95251,1.08374525 z m 0.359837,0 c 0,-0.4741385 0.241303,-0.7958754 0.592673,-0.7958754 0.355604,0 0.592674,0.3217369 0.592674,0.7958754 0,0.4699052 -0.23707,0.7874086 -0.592674,0.7874086 -0.35137,0 -0.592673,-0.3175034 -0.592673,-0.7874086 z"
       style="font-size:4.23338px;font-family:'Source Sans Pro';-inkscape-font-specification:'Source Sans Pro';text-align:start;text-anchor:start;stroke:none"
       id="path10872" />
    <path
       d="m 57.01877,3.0221176 h 0.406404 L 58.153316,0.96469501 H 57.810412 L 57.420941,2.1331078 c -0.05927,0.2032023 -0.127001,0.4106379 -0.186269,0.6053734 h -0.01693 C 57.154238,2.5437457 57.086504,2.3363101 57.027237,2.1331078 L 56.637766,0.96469501 h -0.359838 z"
       style="font-size:4.23338px;font-family:'Source Sans Pro';-inkscape-font-specification:'Source Sans Pro';text-align:start;text-anchor:start;stroke:none"
       id="path10874" />
    <path
       d="m 58.364986,2.4887118 c 0,0.368304 0.258237,0.5842064 0.605374,0.5842064 0.254002,0 0.482605,-0.1354682 0.681574,-0.2963366 h 0.0085 l 0.02963,0.245536 h 0.28787 V 1.7605704 c 0,-0.5122389 -0.211669,-0.84667595 -0.715441,-0.84667595 -0.330204,0 -0.618074,0.14393495 -0.808576,0.26670295 L 58.593589,1.4219 c 0.160868,-0.1100678 0.372537,-0.2201357 0.61384,-0.2201357 0.334437,0 0.423338,0.2540028 0.423338,0.5164723 -0.87631,0.097368 -1.265781,0.3217369 -1.265781,0.7704752 z m 0.342904,-0.0254 c 0,-0.2624696 0.232836,-0.4318048 0.922877,-0.5164724 v 0.5715063 c -0.198969,0.177802 -0.364071,0.2751697 -0.56304,0.2751697 -0.203202,0 -0.359837,-0.097368 -0.359837,-0.3302036 z M 59.728135,-5.1559162e-4 H 59.364064 L 58.98306,0.59639097 h 0.266703 z"
       style="font-size:4.23338px;font-family:'Source Sans Pro';-inkscape-font-specification:'Source Sans Pro';text-align:start;text-anchor:start;stroke:none"
       id="path10876" />
    <path
       d="m 61.489216,3.0221176 h 0.347137 V 1.5319679 c 0.207436,-0.2074356 0.351371,-0.3175035 0.56304,-0.3175035 0.270936,0 0.389471,0.1651018 0.389471,0.5503394 v 1.2573138 h 0.347137 v -1.303881 c 0,-0.5249391 -0.194735,-0.80434215 -0.62654,-0.80434215 -0.283637,0 -0.491072,0.15240165 -0.685808,0.33867035 l 0.0127,-0.42333794 V 0.00795117 h -0.347137 z"
       style="font-size:4.23338px;font-family:'Source Sans Pro';-inkscape-font-specification:'Source Sans Pro';text-align:start;text-anchor:start;stroke:none"
       id="path10878" />
    <path
       d="m 63.79218,2.6072464 c 0,0.30057 0.105834,0.4656718 0.368304,0.4656718 0.09313,0 0.152401,-0.0127 0.198968,-0.033867 l -0.04657,-0.2624695 c -0.0381,0.00847 -0.05503,0.00847 -0.0762,0.00847 -0.0508,0 -0.09737,-0.042334 -0.09737,-0.1524016 V 0.00795117 H 63.79218 Z"
       style="font-size:4.23338px;font-family:'Source Sans Pro';-inkscape-font-specification:'Source Sans Pro';text-align:start;text-anchor:start;stroke:none"
       id="path10880" />
    <path
       d="m 64.719284,1.9976397 c 0,0.6815741 0.448738,1.0752785 0.95251,1.0752785 0.503772,0 0.952511,-0.3937044 0.952511,-1.0752785 0,-0.6900409 -0.448739,-1.08374525 -0.952511,-1.08374525 -0.503772,0 -0.95251,0.39370435 -0.95251,1.08374525 z m 0.359837,0 c 0,-0.4741385 0.241303,-0.7958754 0.592673,-0.7958754 0.355604,0 0.592673,0.3217369 0.592673,0.7958754 0,0.4699052 -0.237069,0.7874086 -0.592673,0.7874086 -0.35137,0 -0.592673,-0.3175034 -0.592673,-0.7874086 z"
       style="font-size:4.23338px;font-family:'Source Sans Pro';-inkscape-font-specification:'Source Sans Pro';text-align:start;text-anchor:start;stroke:none"
       id="path10882" />
    <path
       d="m 67.136546,2.268576 c 0,0.5249391 0.194736,0.8043422 0.630774,0.8043422 0.283636,0 0.486839,-0.1481683 0.677341,-0.3725375 h 0.0127 l 0.02963,0.3217369 h 0.287869 V 0.96469501 H 68.427727 V 2.4252111 c -0.194735,0.2413026 -0.342904,0.3471371 -0.554572,0.3471371 -0.270937,0 -0.385238,-0.1651018 -0.385238,-0.5503394 V 0.96469501 h -0.351371 z"
       style="font-size:4.23338px;font-family:'Source Sans Pro';-inkscape-font-specification:'Source Sans Pro';text-align:start;text-anchor:start;stroke:none"
       id="path10884" />
    <path
       d="m 69.469136,3.0221176 h 0.279403 l 0.02963,-0.2032022 h 0.0127 c 0.182035,0.1608684 0.397937,0.2540028 0.588439,0.2540028 0.469906,0 0.88901,-0.4106379 0.88901,-1.1133789 0,-0.635007 -0.283636,-1.04564485 -0.817042,-1.04564485 -0.228603,0 -0.457205,0.12276805 -0.643474,0.28786985 l 0.0085,-0.37253744 V 0.00795117 h -0.347137 z m 0.347137,-0.457205 V 1.4854007 c 0.194735,-0.1820353 0.376771,-0.279403 0.550339,-0.279403 0.389471,0 0.541873,0.3048033 0.541873,0.757775 0,0.5080055 -0.24977,0.8170423 -0.58844,0.8170423 -0.135468,0 -0.321737,-0.059267 -0.503772,-0.2159024 z"
       style="font-size:4.23338px;font-family:'Source Sans Pro';-inkscape-font-specification:'Source Sans Pro';text-align:start;text-anchor:start;stroke:none"
       id="path10886" />
    <path
       d="m 71.818669,3.0221176 h 0.342904 V 2.480245 l 0.385237,-0.4487383 0.60114,0.9906109 h 0.381004 L 72.745779,1.7902041 73.43582,0.96469501 H 73.050582 L 72.174273,2.0484403 h -0.0127 V 0.00795117 h -0.342904 z"
       style="font-size:4.23338px;font-family:'Source Sans Pro';-inkscape-font-specification:'Source Sans Pro';text-align:start;text-anchor:start;stroke:none"
       id="path10888" />
    <path
       d="m 73.77026,2.4887118 c 0,0.368304 0.258236,0.5842064 0.605373,0.5842064 0.254003,0 0.482605,-0.1354682 0.681574,-0.2963366 h 0.0085 l 0.02963,0.245536 h 0.28787 V 1.7605704 c 0,-0.5122389 -0.211669,-0.84667595 -0.715442,-0.84667595 -0.330203,0 -0.618073,0.14393495 -0.808575,0.26670295 L 73.998862,1.4219 c 0.160869,-0.1100678 0.372538,-0.2201357 0.61384,-0.2201357 0.334437,0 0.423338,0.2540028 0.423338,0.5164723 -0.876309,0.097368 -1.26578,0.3217369 -1.26578,0.7704752 z m 0.342904,-0.0254 c 0,-0.2624696 0.232835,-0.4318048 0.922876,-0.5164724 v 0.5715063 c -0.198968,0.177802 -0.36407,0.2751697 -0.563039,0.2751697 -0.203202,0 -0.359837,-0.097368 -0.359837,-0.3302036 z"
       style="font-size:4.23338px;font-family:'Source Sans Pro';-inkscape-font-specification:'Source Sans Pro';text-align:start;text-anchor:start;stroke:none"
       id="path10890" />
  </g>
</svg>
