<?xml version="1.0" encoding="UTF-8" standalone="no"?>
<svg
   width="406"
   height="221.20247"
   version="1.1"
   viewBox="0 0 107.41735 58.527591"
   id="svg11871"
   sodipodi:docname="pcm_attributes_hrld_cs.svg"
   inkscape:version="1.2.2 (732a01da63, 2022-12-09)"
   xmlns:inkscape="http://www.inkscape.org/namespaces/inkscape"
   xmlns:sodipodi="http://sodipodi.sourceforge.net/DTD/sodipodi-0.dtd"
   xmlns="http://www.w3.org/2000/svg"
   xmlns:svg="http://www.w3.org/2000/svg"
   xmlns:rdf="http://www.w3.org/1999/02/22-rdf-syntax-ns#"
   xmlns:cc="http://creativecommons.org/ns#"
   xmlns:dc="http://purl.org/dc/elements/1.1/">
  <defs
     id="defs11875" />
  <sodipodi:namedview
     id="namedview11873"
     pagecolor="#ffffff"
     bordercolor="#000000"
     borderopacity="0.25"
     inkscape:showpageshadow="2"
     inkscape:pageopacity="0.0"
     inkscape:pagecheckerboard="0"
     inkscape:deskcolor="#d1d1d1"
     showgrid="false"
     inkscape:zoom="1.490111"
     inkscape:cx="-35.567819"
     inkscape:cy="-62.411456"
     inkscape:window-width="1920"
     inkscape:window-height="1017"
     inkscape:window-x="-8"
     inkscape:window-y="-8"
     inkscape:window-maximized="1"
     inkscape:current-layer="svg11871" />
  <metadata
     id="metadata11715">
    <rdf:RDF>
      <cc:Work
         rdf:about="">
        <dc:format>image/svg+xml</dc:format>
        <dc:type
           rdf:resource="http://purl.org/dc/dcmitype/StillImage" />
      </cc:Work>
    </rdf:RDF>
  </metadata>
  <path
     sodipodi:nodetypes="cc"
     inkscape:connector-curvature="0"
     id="path4452"
     d="M 6.0843625,5.5323887 V 58.384817"
     style="fill:#2f3744;fill-opacity:1;stroke:#535e70;stroke-width:0.132294;stroke-linecap:round;stroke-miterlimit:40;stroke-dasharray:none;stroke-dashoffset:1.2;stroke-opacity:1" />
  <path
     sodipodi:nodetypes="cc"
     inkscape:connector-curvature="0"
     id="path4455"
     d="M 11.376129,5.5323887 V 58.384817"
     style="fill:#2f3744;fill-opacity:1;stroke:#535e70;stroke-width:0.132294;stroke-linecap:round;stroke-miterlimit:40;stroke-dasharray:none;stroke-dashoffset:1.2;stroke-opacity:1" />
  <path
     sodipodi:nodetypes="cc"
     inkscape:connector-curvature="0"
     id="path4457"
     d="M 16.667896,5.5323887 V 58.384817"
     style="fill:#2f3744;fill-opacity:1;stroke:#535e70;stroke-width:0.132294;stroke-linecap:round;stroke-miterlimit:40;stroke-dasharray:none;stroke-dashoffset:1.2;stroke-opacity:1" />
  <path
     sodipodi:nodetypes="cc"
     inkscape:connector-curvature="0"
     id="path4459"
     d="M 21.959662,5.5323887 V 58.384817"
     style="fill:#2f3744;fill-opacity:1;stroke:#535e70;stroke-width:0.132294;stroke-linecap:round;stroke-miterlimit:40;stroke-dasharray:none;stroke-dashoffset:1.2;stroke-opacity:1" />
  <path
     sodipodi:nodetypes="cc"
     inkscape:connector-curvature="0"
     id="path4463"
     d="M 27.251431,5.5323887 V 58.384817"
     style="fill:#2f3744;fill-opacity:1;stroke:#535e70;stroke-width:0.132294;stroke-linecap:round;stroke-miterlimit:40;stroke-dasharray:none;stroke-dashoffset:1.2;stroke-opacity:1" />
  <path
     sodipodi:nodetypes="cc"
     inkscape:connector-curvature="0"
     id="path4465"
     d="M 32.543191,5.5323887 V 58.384817"
     style="fill:#2f3744;fill-opacity:1;stroke:#535e70;stroke-width:0.132294;stroke-linecap:round;stroke-miterlimit:40;stroke-dasharray:none;stroke-dashoffset:1.2;stroke-opacity:1" />
  <path
     sodipodi:nodetypes="cc"
     inkscape:connector-curvature="0"
     id="path4467"
     d="M 37.834961,5.5323887 V 58.384817"
     style="fill:#2f3744;fill-opacity:1;stroke:#535e70;stroke-width:0.132294;stroke-linecap:round;stroke-miterlimit:40;stroke-dasharray:none;stroke-dashoffset:1.2;stroke-opacity:1" />
  <path
     sodipodi:nodetypes="cc"
     inkscape:connector-curvature="0"
     id="path4469"
     d="M 43.126731,5.5323887 V 58.384817"
     style="fill:#2f3744;fill-opacity:1;stroke:#535e70;stroke-width:0.132294;stroke-linecap:round;stroke-miterlimit:40;stroke-dasharray:none;stroke-dashoffset:1.2;stroke-opacity:1" />
  <path
     sodipodi:nodetypes="cc"
     inkscape:connector-curvature="0"
     id="path4471"
     d="M 48.418491,5.5323887 V 58.384817"
     style="fill:#2f3744;fill-opacity:1;stroke:#535e70;stroke-width:0.132294;stroke-linecap:round;stroke-miterlimit:40;stroke-dasharray:none;stroke-dashoffset:1.2;stroke-opacity:1" />
  <path
     sodipodi:nodetypes="cc"
     inkscape:connector-curvature="0"
     id="path4475"
     d="M 53.710261,5.5323887 V 58.384817"
     style="fill:#2f3744;fill-opacity:1;stroke:#535e70;stroke-width:0.132294;stroke-linecap:round;stroke-miterlimit:40;stroke-dasharray:none;stroke-dashoffset:1.2;stroke-opacity:1" />
  <path
     sodipodi:nodetypes="cc"
     inkscape:connector-curvature="0"
     id="path4477"
     d="M 59.002031,5.5323887 V 58.384817"
     style="fill:#2f3744;fill-opacity:1;stroke:#535e70;stroke-width:0.132294;stroke-linecap:round;stroke-miterlimit:40;stroke-dasharray:none;stroke-dashoffset:1.2;stroke-opacity:1" />
  <path
     sodipodi:nodetypes="cc"
     inkscape:connector-curvature="0"
     id="path4479"
     d="M 64.293791,5.5323887 V 58.384817"
     style="fill:#2f3744;fill-opacity:1;stroke:#535e70;stroke-width:0.132294;stroke-linecap:round;stroke-miterlimit:40;stroke-dasharray:none;stroke-dashoffset:1.2;stroke-opacity:1" />
  <path
     sodipodi:nodetypes="cc"
     inkscape:connector-curvature="0"
     id="path4481"
     d="M 69.585561,5.5323887 V 58.384817"
     style="fill:#2f3744;fill-opacity:1;stroke:#535e70;stroke-width:0.132294;stroke-linecap:round;stroke-miterlimit:40;stroke-dasharray:none;stroke-dashoffset:1.2;stroke-opacity:1" />
  <path
     sodipodi:nodetypes="cc"
     inkscape:connector-curvature="0"
     id="path4483"
     d="M 74.877331,5.5323887 V 58.384817"
     style="fill:#2f3744;fill-opacity:1;stroke:#535e70;stroke-width:0.132294;stroke-linecap:round;stroke-miterlimit:40;stroke-dasharray:none;stroke-dashoffset:1.2;stroke-opacity:1" />
  <path
     sodipodi:nodetypes="cc"
     inkscape:connector-curvature="0"
     id="path4487"
     d="M 80.169091,5.5323887 V 58.384817"
     style="fill:#2f3744;fill-opacity:1;stroke:#535e70;stroke-width:0.132294;stroke-linecap:round;stroke-miterlimit:40;stroke-dasharray:none;stroke-dashoffset:1.2;stroke-opacity:1" />
  <path
     style="fill:#2f3744;fill-opacity:1;stroke:#535e70;stroke-width:0.132294;stroke-linecap:round;stroke-miterlimit:40;stroke-dasharray:none;stroke-dashoffset:1.2;stroke-opacity:1"
     d="M 0.92518651,53.099693 H 106.54764"
     id="path4491"
     inkscape:connector-curvature="0"
     sodipodi:nodetypes="cc" />
  <path
     style="fill:#2f3744;fill-opacity:1;stroke:#535e70;stroke-width:0.132294;stroke-linecap:round;stroke-miterlimit:40;stroke-dasharray:none;stroke-dashoffset:1.2;stroke-opacity:1"
     d="M 0.92518651,42.51616 H 106.54764"
     id="path4495"
     inkscape:connector-curvature="0"
     sodipodi:nodetypes="cc" />
  <path
     style="fill:#2f3744;fill-opacity:1;stroke:#535e70;stroke-width:0.132294;stroke-linecap:round;stroke-miterlimit:40;stroke-dasharray:none;stroke-dashoffset:1.2;stroke-opacity:1"
     d="M 0.92518651,21.349093 H 106.54764"
     id="path4499"
     inkscape:connector-curvature="0"
     sodipodi:nodetypes="cc" />
  <path
     style="fill:#2f3744;fill-opacity:1;stroke:#535e70;stroke-width:0.132294;stroke-linecap:round;stroke-miterlimit:40;stroke-dasharray:none;stroke-dashoffset:1.2;stroke-opacity:1"
     d="M 0.92518651,10.76556 H 106.54764"
     id="path4503"
     inkscape:connector-curvature="0"
     sodipodi:nodetypes="cc" />
  <path
     style="fill:#2f3744;fill-opacity:1;stroke:#535e70;stroke-width:0.132294;stroke-linecap:round;stroke-miterlimit:40;stroke-dasharray:none;stroke-dashoffset:1.2;stroke-opacity:1"
     d="M 0.79259551,5.5323887 V 58.384817"
     id="path4507"
     inkscape:connector-curvature="0"
     sodipodi:nodetypes="cc" />
  <path
     sodipodi:nodetypes="cc"
     inkscape:connector-curvature="0"
     id="path4511"
     d="M 0.92518651,31.932627 H 106.54764"
     style="fill:#2f3744;fill-opacity:1;stroke:#535e70;stroke-width:0.132294;stroke-linecap:round;stroke-miterlimit:40;stroke-dasharray:none;stroke-dashoffset:1.2;stroke-opacity:1" />
  <path
     style="fill:#2f3744;fill-opacity:1;stroke:#535e70;stroke-width:0.132294;stroke-linecap:round;stroke-miterlimit:40;stroke-dasharray:none;stroke-dashoffset:1.2;stroke-opacity:1"
     d="M 85.460861,5.5323887 V 58.384817"
     id="path4515"
     inkscape:connector-curvature="0"
     sodipodi:nodetypes="cc" />
  <path
     style="fill:#2f3744;fill-opacity:1;stroke:#535e70;stroke-width:0.132294;stroke-linecap:round;stroke-miterlimit:40;stroke-dasharray:none;stroke-dashoffset:1.2;stroke-opacity:1"
     d="M 90.752631,5.5323887 V 58.384817"
     id="path4519"
     inkscape:connector-curvature="0"
     sodipodi:nodetypes="cc" />
  <path
     style="fill:#2f3744;fill-opacity:1;stroke:#535e70;stroke-width:0.132294;stroke-linecap:round;stroke-miterlimit:40;stroke-dasharray:none;stroke-dashoffset:1.2;stroke-opacity:1"
     d="M 96.044391,5.5323887 V 58.384817"
     id="path4523"
     inkscape:connector-curvature="0"
     sodipodi:nodetypes="cc" />
  <path
     style="fill:#2f3744;fill-opacity:1;stroke:#535e70;stroke-width:0.132294;stroke-linecap:round;stroke-miterlimit:40;stroke-dasharray:none;stroke-dashoffset:1.2;stroke-opacity:1"
     d="M 101.33616,5.5323887 V 58.384817"
     id="path4527"
     inkscape:connector-curvature="0"
     sodipodi:nodetypes="cc" />
  <path
     style="fill:#2f3744;fill-opacity:1;stroke:#535e70;stroke-width:0.132294;stroke-linecap:round;stroke-miterlimit:40;stroke-dasharray:none;stroke-dashoffset:1.2;stroke-opacity:1"
     d="M 106.62793,5.5323887 V 58.384817"
     id="path4530"
     inkscape:connector-curvature="0"
     sodipodi:nodetypes="cc" />
  <path
     sodipodi:nodetypes="cssc"
     inkscape:connector-curvature="0"
     id="path4534"
     d="m 0.79100851,31.93641 c 0,0 13.89088749,-26.4588703 26.45883249,-26.4588703 18.19045,0 33.07354,52.9177573 52.91767,52.9177573 15.54456,0 26.458829,-26.458887 26.458829,-26.458887"
     style="fill:none;fill-opacity:1;stroke:#535e70;stroke-width:0.264588;stroke-linecap:round;stroke-miterlimit:4;stroke-dasharray:none;stroke-dashoffset:0;stroke-opacity:1" />
  <circle
     r="0.79376501"
     cy="31.936394"
     cx="0.7910102"
     id="circle4536"
     style="fill:#d2d6dc;fill-opacity:1;stroke:none;stroke-width:0.264588;stroke-linecap:round;stroke-miterlimit:4;stroke-dasharray:none;stroke-dashoffset:0;stroke-opacity:1" />
  <circle
     style="fill:#d2d6dc;fill-opacity:1;stroke:none;stroke-width:0.264588;stroke-linecap:round;stroke-miterlimit:4;stroke-dasharray:none;stroke-dashoffset:0;stroke-opacity:1"
     id="circle4538"
     cx="6.0827737"
     cy="21.352859"
     r="0.79376501" />
  <circle
     r="0.79376501"
     cy="21.352859"
     cx="11.374544"
     id="circle4540"
     style="fill:#d2d6dc;fill-opacity:1;stroke:none;stroke-width:0.264588;stroke-linecap:round;stroke-miterlimit:4;stroke-dasharray:none;stroke-dashoffset:0;stroke-opacity:1" />
  <circle
     style="fill:#d2d6dc;fill-opacity:1;stroke:none;stroke-width:0.264588;stroke-linecap:round;stroke-miterlimit:4;stroke-dasharray:none;stroke-dashoffset:0;stroke-opacity:1"
     id="circle4542"
     cx="16.666307"
     cy="10.769324"
     r="0.79376501" />
  <circle
     r="0.79376501"
     cy="10.769324"
     cx="21.958071"
     id="circle4544"
     style="fill:#d2d6dc;fill-opacity:1;stroke:none;stroke-width:0.264588;stroke-linecap:round;stroke-miterlimit:4;stroke-dasharray:none;stroke-dashoffset:0;stroke-opacity:1" />
  <circle
     style="fill:#d2d6dc;fill-opacity:1;stroke:none;stroke-width:0.264588;stroke-linecap:round;stroke-miterlimit:4;stroke-dasharray:none;stroke-dashoffset:0;stroke-opacity:1"
     id="circle4546"
     cx="27.249842"
     cy="10.769324"
     r="0.79376501" />
  <circle
     r="0.79376501"
     cy="10.769324"
     cx="32.541599"
     id="circle4548"
     style="fill:#d2d6dc;fill-opacity:1;stroke:none;stroke-width:0.264588;stroke-linecap:round;stroke-miterlimit:4;stroke-dasharray:none;stroke-dashoffset:0;stroke-opacity:1" />
  <circle
     style="fill:#d2d6dc;fill-opacity:1;stroke:none;stroke-width:0.264588;stroke-linecap:round;stroke-miterlimit:4;stroke-dasharray:none;stroke-dashoffset:0;stroke-opacity:1"
     id="circle4550"
     cx="37.833385"
     cy="10.769324"
     r="0.79376501" />
  <circle
     r="0.79376501"
     cy="21.352859"
     cx="43.125141"
     id="circle4552"
     style="fill:#d2d6dc;fill-opacity:1;stroke:none;stroke-width:0.264588;stroke-linecap:round;stroke-miterlimit:4;stroke-dasharray:none;stroke-dashoffset:0;stroke-opacity:1" />
  <circle
     style="fill:#d2d6dc;fill-opacity:1;stroke:none;stroke-width:0.264588;stroke-linecap:round;stroke-miterlimit:4;stroke-dasharray:none;stroke-dashoffset:0;stroke-opacity:1"
     id="circle4554"
     cx="48.416912"
     cy="21.352859"
     r="0.79376501" />
  <circle
     r="0.79376501"
     cy="31.936394"
     cx="53.708683"
     id="circle4556"
     style="fill:#d2d6dc;fill-opacity:1;stroke:none;stroke-width:0.264588;stroke-linecap:round;stroke-miterlimit:4;stroke-dasharray:none;stroke-dashoffset:0;stroke-opacity:1" />
  <circle
     style="fill:#d2d6dc;fill-opacity:1;stroke:none;stroke-width:0.264588;stroke-linecap:round;stroke-miterlimit:4;stroke-dasharray:none;stroke-dashoffset:0;stroke-opacity:1"
     id="circle4558"
     cx="59.000446"
     cy="42.519928"
     r="0.79376501" />
  <circle
     r="0.79376501"
     cy="42.519928"
     cx="64.292206"
     id="circle4560"
     style="fill:#d2d6dc;fill-opacity:1;stroke:none;stroke-width:0.264588;stroke-linecap:round;stroke-miterlimit:4;stroke-dasharray:none;stroke-dashoffset:0;stroke-opacity:1" />
  <circle
     style="fill:#d2d6dc;fill-opacity:1;stroke:none;stroke-width:0.264588;stroke-linecap:round;stroke-miterlimit:4;stroke-dasharray:none;stroke-dashoffset:0;stroke-opacity:1"
     id="circle4562"
     cx="69.583969"
     cy="53.103462"
     r="0.79376501" />
  <circle
     r="0.79376501"
     cy="53.103462"
     cx="74.875732"
     id="circle4564"
     style="fill:#d2d6dc;fill-opacity:1;stroke:none;stroke-width:0.264588;stroke-linecap:round;stroke-miterlimit:4;stroke-dasharray:none;stroke-dashoffset:0;stroke-opacity:1" />
  <circle
     style="fill:#d2d6dc;fill-opacity:1;stroke:none;stroke-width:0.264588;stroke-linecap:round;stroke-miterlimit:4;stroke-dasharray:none;stroke-dashoffset:0;stroke-opacity:1"
     id="circle4566"
     cx="80.167511"
     cy="53.103462"
     r="0.79376501" />
  <circle
     r="0.79376501"
     cy="53.103462"
     cx="85.459274"
     id="circle4568"
     style="fill:#d2d6dc;fill-opacity:1;stroke:none;stroke-width:0.264588;stroke-linecap:round;stroke-miterlimit:4;stroke-dasharray:none;stroke-dashoffset:0;stroke-opacity:1" />
  <circle
     style="fill:#d2d6dc;fill-opacity:1;stroke:none;stroke-width:0.264588;stroke-linecap:round;stroke-miterlimit:4;stroke-dasharray:none;stroke-dashoffset:0;stroke-opacity:1"
     id="circle4570"
     cx="90.751038"
     cy="53.103462"
     r="0.79376501" />
  <circle
     r="0.79376501"
     cy="52.838867"
     cx="96.042801"
     id="circle4572"
     style="fill:#d2d6dc;fill-opacity:1;stroke:none;stroke-width:0.264588;stroke-linecap:round;stroke-miterlimit:4;stroke-dasharray:none;stroke-dashoffset:0;stroke-opacity:1" />
  <circle
     style="fill:#d2d6dc;fill-opacity:1;stroke:none;stroke-width:0.264588;stroke-linecap:round;stroke-miterlimit:4;stroke-dasharray:none;stroke-dashoffset:0;stroke-opacity:1"
     id="circle4574"
     cx="101.33456"
     cy="42.519928"
     r="0.79376501" />
  <circle
     style="fill:#d2d6dc;fill-opacity:1;stroke:none;stroke-width:0.264588;stroke-linecap:round;stroke-miterlimit:4;stroke-dasharray:none;stroke-dashoffset:0;stroke-opacity:1"
     id="circle4576"
     cx="106.62634"
     cy="31.936394"
     r="0.79376501" />
  <g
     aria-label="Vysoký sample rate, nízká bitová hloubka"
     id="text4580"
     style="font-size:3.17506px;line-height:1.25;font-family:'Small Fonts';-inkscape-font-specification:'Small Fonts';text-align:center;text-anchor:middle;fill:#e8eaec;stroke:#cf2f25;stroke-width:0.264588;stroke-linecap:round">
    <path
       d="M 1.0888272,3.0226548 H 1.499468 L 2.3800172,0.24553789 H 2.0201774 L 1.5756694,1.744165 C 1.4825343,2.074371 1.4105664,2.3368424 1.3089645,2.6628149 H 1.2920309 C 1.1904291,2.3368424 1.1226945,2.074371 1.0253261,1.744165 L 0.57658463,0.24553789 H 0.20404456 Z"
       style="font-size:4.23341px;font-family:'Source Sans Pro';-inkscape-font-specification:'Source Sans Pro';text-align:start;text-anchor:start;stroke:none"
       id="path15528" />
    <path
       d="m 2.5408844,3.5899317 -0.067735,0.2751716 c 0.067735,0.0254 0.1481694,0.042334 0.2413044,0.042334 0.4148742,0 0.6265446,-0.3090389 0.7704806,-0.7154462 L 4.2596488,0.96521757 H 3.920976 L 3.5526693,2.1040048 C 3.497635,2.2860415 3.4383673,2.4977119 3.3790995,2.683982 H 3.3621659 C 3.2986647,2.4934785 3.2266968,2.281808 3.1631956,2.1040048 L 2.7440881,0.96521757 H 2.3842482 L 3.2097631,3.0268882 3.1631956,3.1792909 c -0.084668,0.2540046 -0.2328375,0.4402747 -0.4656751,0.4402747 -0.050801,0 -0.114302,-0.016934 -0.1566361,-0.029634 z"
       style="font-size:4.23341px;font-family:'Source Sans Pro';-inkscape-font-specification:'Source Sans Pro';text-align:start;text-anchor:start;stroke:none"
       id="path15530" />
    <path
       d="m 4.4289892,2.7898172 c 0.1947369,0.1608696 0.4741419,0.2836385 0.7662472,0.2836385 0.4868421,0 0.753547,-0.2794051 0.753547,-0.6138444 0,-0.3894738 -0.330206,-0.5122426 -0.6265447,-0.6223113 C 5.0894011,1.7483984 4.8650304,1.672197 4.8650304,1.4816936 c 0,-0.1566362 0.1185355,-0.2963387 0.3767735,-0.2963387 0.1820366,0 0.330206,0.076201 0.4699085,0.1820366 L 5.8768154,1.1472542 C 5.7201792,1.0202519 5.4958085,0.91441665 5.2375705,0.91441665 c -0.444508,0 -0.7069795,0.25400455 -0.7069795,0.58421055 0,0.3471396 0.3217392,0.4868422 0.6138445,0.5926774 0.2243707,0.084668 0.4699085,0.1778032 0.4699085,0.3894737 0,0.1778032 -0.1354691,0.3217392 -0.4064074,0.3217392 -0.2455378,0 -0.4275744,-0.1016019 -0.6053776,-0.2455378 z"
       style="font-size:4.23341px;font-family:'Source Sans Pro';-inkscape-font-specification:'Source Sans Pro';text-align:start;text-anchor:start;stroke:none"
       id="path15532" />
    <path
       d="m 6.2789919,1.9981696 c 0,0.681579 0.4487415,1.0752861 0.9525172,1.0752861 0.5037758,0 0.9525173,-0.3937071 0.9525173,-1.0752861 0,-0.6900458 -0.4487415,-1.08375295 -0.9525173,-1.08375295 -0.5037757,0 -0.9525172,0.39370715 -0.9525172,1.08375295 z m 0.3598398,0 c 0,-0.4741419 0.2413044,-0.7958811 0.5926774,-0.7958811 0.3556065,0 0.5926774,0.3217392 0.5926774,0.7958811 0,0.4699085 -0.2370709,0.7874142 -0.5926774,0.7874142 -0.351373,0 -0.5926774,-0.3175057 -0.5926774,-0.7874142 z"
       style="font-size:4.23341px;font-family:'Source Sans Pro';-inkscape-font-specification:'Source Sans Pro';text-align:start;text-anchor:start;stroke:none"
       id="path15534" />
    <path
       d="M 8.7259022,3.0226548 H 9.0688084 V 2.4807783 L 9.4540487,2.0320369 10.055193,3.0226548 H 10.4362 L 9.6530189,1.7907325 10.343065,0.96521757 H 9.9578244 L 9.0815086,2.0489705 h -0.0127 V 0.00846694 H 8.7259022 Z"
       style="font-size:4.23341px;font-family:'Source Sans Pro';-inkscape-font-specification:'Source Sans Pro';text-align:start;text-anchor:start;stroke:none"
       id="path15536" />
    <path
       d="m 10.681741,3.5899317 -0.06774,0.2751716 c 0.06774,0.0254 0.148169,0.042334 0.241304,0.042334 0.414875,0 0.626545,-0.3090389 0.770481,-0.7154462 L 12.400505,0.96521757 H 12.061832 L 11.693526,2.1040048 c -0.05504,0.1820367 -0.114302,0.3937071 -0.17357,0.5799772 h -0.01693 C 11.439521,2.4934785 11.367553,2.281808 11.304052,2.1040048 L 10.884944,0.96521757 h -0.35984 l 0.825515,2.06167063 -0.04657,0.1524027 c -0.08467,0.2540046 -0.232838,0.4402747 -0.465675,0.4402747 -0.0508,0 -0.114302,-0.016934 -0.156636,-0.029634 z M 11.972931,1.1634827e-7 H 11.608857 L 11.227851,0.59691091 h 0.266704 z"
       style="font-size:4.23341px;font-family:'Source Sans Pro';-inkscape-font-specification:'Source Sans Pro';text-align:start;text-anchor:start;stroke:none"
       id="path15538" />
    <path
       d="m 13.424993,2.7898172 c 0.194737,0.1608696 0.474142,0.2836385 0.766247,0.2836385 0.486843,0 0.753547,-0.2794051 0.753547,-0.6138444 0,-0.3894738 -0.330206,-0.5122426 -0.626544,-0.6223113 -0.232838,-0.088902 -0.457208,-0.165103 -0.457208,-0.3556064 0,-0.1566362 0.118535,-0.2963387 0.376773,-0.2963387 0.182037,0 0.330206,0.076201 0.469909,0.1820366 L 14.872819,1.1472542 C 14.716183,1.0202519 14.491813,0.91441665 14.233575,0.91441665 c -0.444508,0 -0.70698,0.25400455 -0.70698,0.58421055 0,0.3471396 0.321739,0.4868422 0.613845,0.5926774 0.22437,0.084668 0.469908,0.1778032 0.469908,0.3894737 0,0.1778032 -0.135469,0.3217392 -0.406407,0.3217392 -0.245538,0 -0.427575,-0.1016019 -0.605378,-0.2455378 z"
       style="font-size:4.23341px;font-family:'Source Sans Pro';-inkscape-font-specification:'Source Sans Pro';text-align:start;text-anchor:start;stroke:none"
       id="path15540" />
    <path
       d="m 15.325797,2.4892451 c 0,0.3683067 0.258238,0.5842106 0.605378,0.5842106 0.254005,0 0.482609,-0.1354691 0.681579,-0.2963387 h 0.0085 l 0.02963,0.2455378 h 0.287872 V 1.7610986 c 0,-0.5122426 -0.211671,-0.84668195 -0.715447,-0.84668195 -0.330206,0 -0.618078,0.14393595 -0.808581,0.26670485 l 0.139703,0.2413043 c 0.160869,-0.1100686 0.37254,-0.2201373 0.613844,-0.2201373 0.334439,0 0.423341,0.2540046 0.423341,0.516476 -0.876316,0.097368 -1.26579,0.3217392 -1.26579,0.7704806 z m 0.342907,-0.0254 c 0,-0.2624714 0.232837,-0.4318078 0.922883,-0.516476 V 2.518879 c -0.19897,0.1778032 -0.364073,0.2751716 -0.563044,0.2751716 -0.203203,0 -0.359839,-0.097368 -0.359839,-0.3302059 z"
       style="font-size:4.23341px;font-family:'Source Sans Pro';-inkscape-font-specification:'Source Sans Pro';text-align:start;text-anchor:start;stroke:none"
       id="path15542" />
    <path
       d="M 17.594901,3.0226548 H 17.94204 V 1.5324945 c 0.190504,-0.2116705 0.364074,-0.3175057 0.516476,-0.3175057 0.262472,0 0.385241,0.1651029 0.385241,0.5503432 v 1.2573228 h 0.347139 V 1.5324945 C 19.3814,1.320824 19.546503,1.2149888 19.707372,1.2149888 c 0.258238,0 0.381007,0.1651029 0.381007,0.5503432 v 1.2573228 h 0.34714 V 1.7187645 c 0,-0.5249428 -0.203204,-0.80434785 -0.626545,-0.80434785 -0.249771,0 -0.461442,0.16086955 -0.677346,0.39370715 -0.08467,-0.2455378 -0.254004,-0.39370715 -0.567276,-0.39370715 -0.245538,0 -0.461442,0.15240275 -0.639245,0.34713965 h -0.0127 l -0.02963,-0.29633873 h -0.287872 z"
       style="font-size:4.23341px;font-family:'Source Sans Pro';-inkscape-font-specification:'Source Sans Pro';text-align:start;text-anchor:start;stroke:none"
       id="path15544" />
    <path
       d="m 21.443072,2.8363847 c 0.190504,0.1481694 0.381007,0.237071 0.57151,0.237071 0.469909,0 0.889016,-0.4106408 0.889016,-1.1091534 0,-0.6392449 -0.283638,-1.04988565 -0.812814,-1.04988565 -0.241305,0 -0.469909,0.13123575 -0.656179,0.28787185 h -0.0127 L 21.392271,0.96521757 H 21.104399 V 3.8905038 h 0.34714 V 3.1962246 Z m 0.0085,-0.2709382 V 1.485927 c 0.203204,-0.1820366 0.376773,-0.2794051 0.550343,-0.2794051 0.389474,0 0.541877,0.3048055 0.541877,0.7577804 0,0.5080092 -0.249772,0.8170481 -0.588444,0.8170481 -0.135469,0 -0.317506,-0.059268 -0.503776,-0.2159039 z"
       style="font-size:4.23341px;font-family:'Source Sans Pro';-inkscape-font-specification:'Source Sans Pro';text-align:start;text-anchor:start;stroke:none"
       id="path15546" />
    <path
       d="m 23.453944,2.6077806 c 0,0.3005721 0.105835,0.4656751 0.368306,0.4656751 0.09314,0 0.152403,-0.0127 0.198971,-0.033867 L 23.974653,2.777117 c -0.0381,0.00847 -0.05503,0.00847 -0.0762,0.00847 -0.0508,0 -0.09737,-0.042334 -0.09737,-0.1524027 V 0.00846694 h -0.347139 z"
       style="font-size:4.23341px;font-family:'Source Sans Pro';-inkscape-font-specification:'Source Sans Pro';text-align:start;text-anchor:start;stroke:none"
       id="path15548" />
    <path
       d="m 24.381057,1.9981696 c 0,0.6731122 0.436041,1.0752861 0.986384,1.0752861 0.279405,0 0.499542,-0.097368 0.677346,-0.2116705 L 25.922018,2.6331811 c -0.152403,0.097368 -0.317506,0.1608695 -0.512243,0.1608695 -0.393707,0 -0.660412,-0.279405 -0.685812,-0.7239131 h 1.388558 c 0.0085,-0.050801 0.0127,-0.1185354 0.0127,-0.1905034 0,-0.588444 -0.296338,-0.96521745 -0.821281,-0.96521745 -0.469909,0 -0.922883,0.41064075 -0.922883,1.08375295 z m 0.338672,-0.1566362 c 0.04233,-0.4148742 0.304806,-0.6519451 0.592678,-0.6519451 0.321739,0 0.508009,0.2328375 0.508009,0.6519451 z"
       style="font-size:4.23341px;font-family:'Source Sans Pro';-inkscape-font-specification:'Source Sans Pro';text-align:start;text-anchor:start;stroke:none"
       id="path15550" />
    <path
       d="m 27.488379,3.0226548 h 0.34714 V 1.7018309 c 0.139702,-0.3471396 0.347139,-0.4741419 0.520709,-0.4741419 0.08467,0 0.131236,0.0127 0.19897,0.033867 l 0.06773,-0.30480555 c -0.06773,-0.0296339 -0.131236,-0.0423341 -0.220137,-0.0423341 -0.232838,0 -0.444508,0.16510295 -0.584211,0.42334095 h -0.0127 l -0.02963,-0.37254003 h -0.287872 z"
       style="font-size:4.23341px;font-family:'Source Sans Pro';-inkscape-font-specification:'Source Sans Pro';text-align:start;text-anchor:start;stroke:none"
       id="path15552" />
    <path
       d="m 28.749938,2.4892451 c 0,0.3683067 0.258238,0.5842106 0.605378,0.5842106 0.254005,0 0.482609,-0.1354691 0.681579,-0.2963387 h 0.0085 l 0.02963,0.2455378 h 0.287872 V 1.7610986 c 0,-0.5122426 -0.211671,-0.84668195 -0.715447,-0.84668195 -0.330206,0 -0.618078,0.14393595 -0.808581,0.26670485 l 0.139702,0.2413043 c 0.16087,-0.1100686 0.372541,-0.2201373 0.613845,-0.2201373 0.334439,0 0.423341,0.2540046 0.423341,0.516476 -0.876316,0.097368 -1.26579,0.3217392 -1.26579,0.7704806 z m 0.342907,-0.0254 c 0,-0.2624714 0.232837,-0.4318078 0.922883,-0.516476 V 2.518879 c -0.19897,0.1778032 -0.364073,0.2751716 -0.563044,0.2751716 -0.203203,0 -0.359839,-0.097368 -0.359839,-0.3302059 z"
       style="font-size:4.23341px;font-family:'Source Sans Pro';-inkscape-font-specification:'Source Sans Pro';text-align:start;text-anchor:start;stroke:none"
       id="path15554" />
    <path
       d="m 31.078309,2.3876433 c 0,0.4064073 0.14817,0.6858124 0.588444,0.6858124 0.127003,0 0.266705,-0.038101 0.381007,-0.076201 l -0.06773,-0.2624714 c -0.06773,0.0254 -0.16087,0.055034 -0.232838,0.055034 -0.237071,0 -0.317506,-0.1439359 -0.317506,-0.3979405 V 1.248856 h 0.554577 V 0.96521757 H 31.429682 V 0.38947383 h -0.292105 l -0.04233,0.57574374 -0.321739,0.0211671 V 1.248856 h 0.304805 z"
       style="font-size:4.23341px;font-family:'Source Sans Pro';-inkscape-font-specification:'Source Sans Pro';text-align:start;text-anchor:start;stroke:none"
       id="path15556" />
    <path
       d="m 32.255194,1.9981696 c 0,0.6731122 0.436042,1.0752861 0.986385,1.0752861 0.279405,0 0.499542,-0.097368 0.677345,-0.2116705 L 33.796156,2.6331811 c -0.152403,0.097368 -0.317506,0.1608695 -0.512243,0.1608695 -0.393707,0 -0.660412,-0.279405 -0.685812,-0.7239131 h 1.388558 c 0.0085,-0.050801 0.0127,-0.1185354 0.0127,-0.1905034 0,-0.588444 -0.296338,-0.96521745 -0.821281,-0.96521745 -0.469909,0 -0.922884,0.41064075 -0.922884,1.08375295 z m 0.338673,-0.1566362 c 0.04233,-0.4148742 0.304806,-0.6519451 0.592678,-0.6519451 0.321739,0 0.508009,0.2328375 0.508009,0.6519451 z"
       style="font-size:4.23341px;font-family:'Source Sans Pro';-inkscape-font-specification:'Source Sans Pro';text-align:start;text-anchor:start;stroke:none"
       id="path15558" />
    <path
       d="m 34.443869,3.7423345 c 0.342907,-0.143936 0.554577,-0.4275744 0.554577,-0.7916477 0,-0.2540046 -0.110069,-0.4106408 -0.292105,-0.4106408 -0.139703,0 -0.258238,0.093135 -0.258238,0.2455378 0,0.1566362 0.114302,0.2413044 0.249771,0.2413044 0.0127,0 0.02963,0 0.04233,-0.00423 0,0.2286041 -0.143936,0.4106407 -0.381007,0.516476 z"
       style="font-size:4.23341px;font-family:'Source Sans Pro';-inkscape-font-specification:'Source Sans Pro';text-align:start;text-anchor:start;stroke:none"
       id="path15560" />
    <path
       d="m 36.416638,3.0226548 h 0.34714 V 1.5324945 c 0.207437,-0.2074371 0.351373,-0.3175057 0.563043,-0.3175057 0.270938,0 0.389474,0.1651029 0.389474,0.5503432 v 1.2573228 h 0.347139 V 1.7187645 c 0,-0.5249428 -0.194736,-0.80434785 -0.626544,-0.80434785 -0.283639,0 -0.495309,0.15240275 -0.690046,0.34713965 h -0.0127 L 36.70451,0.96521757 h -0.287872 z"
       style="font-size:4.23341px;font-family:'Source Sans Pro';-inkscape-font-specification:'Source Sans Pro';text-align:start;text-anchor:start;stroke:none"
       id="path15562" />
    <path
       d="m 38.732316,3.0226548 h 0.347139 V 0.96521757 H 38.732316 Z M 39.375794,1.1634827e-7 H 39.011721 L 38.630714,0.59691091 h 0.266705 z"
       style="font-size:4.23341px;font-family:'Source Sans Pro';-inkscape-font-specification:'Source Sans Pro';text-align:start;text-anchor:start;stroke:none"
       id="path15564" />
    <path
       d="m 39.557832,3.0226548 h 1.557895 V 2.7390163 H 39.998106 L 41.081859,1.1514876 V 0.96521757 H 39.676367 V 1.248856 h 0.965218 l -1.083753,1.5875287 z"
       style="font-size:4.23341px;font-family:'Source Sans Pro';-inkscape-font-specification:'Source Sans Pro';text-align:start;text-anchor:start;stroke:none"
       id="path15566" />
    <path
       d="M 41.572934,3.0226548 H 41.91584 V 2.4807783 l 0.38524,-0.4487414 0.601144,0.9906179 h 0.381007 l -0.78318,-1.2319223 0.690045,-0.82551493 h -0.38524 L 41.92854,2.0489705 h -0.0127 V 0.00846694 h -0.342906 z"
       style="font-size:4.23341px;font-family:'Source Sans Pro';-inkscape-font-specification:'Source Sans Pro';text-align:start;text-anchor:start;stroke:none"
       id="path15568" />
    <path
       d="m 43.524536,2.4892451 c 0,0.3683067 0.258238,0.5842106 0.605377,0.5842106 0.254005,0 0.482609,-0.1354691 0.681579,-0.2963387 h 0.0085 l 0.02963,0.2455378 h 0.287872 V 1.7610986 c 0,-0.5122426 -0.211671,-0.84668195 -0.715447,-0.84668195 -0.330206,0 -0.618077,0.14393595 -0.808581,0.26670485 l 0.139703,0.2413043 c 0.160869,-0.1100686 0.37254,-0.2201373 0.613844,-0.2201373 0.334439,0 0.423341,0.2540046 0.423341,0.516476 -0.876316,0.097368 -1.265789,0.3217392 -1.265789,0.7704806 z m 0.342906,-0.0254 c 0,-0.2624714 0.232837,-0.4318078 0.922883,-0.516476 V 2.518879 c -0.19897,0.1778032 -0.364073,0.2751716 -0.563043,0.2751716 -0.203204,0 -0.35984,-0.097368 -0.35984,-0.3302059 z M 44.887693,1.1634827e-7 H 44.52362 L 44.142613,0.59691091 h 0.266705 z"
       style="font-size:4.23341px;font-family:'Source Sans Pro';-inkscape-font-specification:'Source Sans Pro';text-align:start;text-anchor:start;stroke:none"
       id="path15570" />
    <path
       d="m 46.648789,3.0226548 h 0.279405 l 0.02963,-0.2032037 h 0.0127 c 0.182037,0.1608696 0.397941,0.2540046 0.588444,0.2540046 0.469909,0 0.889016,-0.4106408 0.889016,-1.1133868 0,-0.6350115 -0.283638,-1.04565225 -0.817048,-1.04565225 -0.228604,0 -0.457208,0.12276885 -0.643478,0.28787185 l 0.0085,-0.37254005 V 0.00846694 h -0.34714 z m 0.34714,-0.4572083 V 1.485927 c 0.194736,-0.1820366 0.376773,-0.2794051 0.550343,-0.2794051 0.389474,0 0.541876,0.3048055 0.541876,0.7577804 0,0.5080092 -0.249771,0.8170481 -0.588444,0.8170481 -0.135469,0 -0.321739,-0.059268 -0.503775,-0.2159039 z"
       style="font-size:4.23341px;font-family:'Source Sans Pro';-inkscape-font-specification:'Source Sans Pro';text-align:start;text-anchor:start;stroke:none"
       id="path15572" />
    <path
       d="m 49.176137,0.54187658 c 0.135469,0 0.241304,-0.093135 0.241304,-0.22437072 0,-0.13546912 -0.105835,-0.22437073 -0.241304,-0.22437073 -0.135469,0 -0.241305,0.08890161 -0.241305,0.22437073 0,0.1312357 0.105836,0.22437072 0.241305,0.22437072 z M 48.998334,3.0226548 h 0.347139 V 0.96521757 h -0.347139 z"
       style="font-size:4.23341px;font-family:'Source Sans Pro';-inkscape-font-specification:'Source Sans Pro';text-align:start;text-anchor:start;stroke:none"
       id="path15574" />
    <path
       d="m 50.099021,2.3876433 c 0,0.4064073 0.14817,0.6858124 0.588444,0.6858124 0.127003,0 0.266705,-0.038101 0.381007,-0.076201 l -0.06773,-0.2624714 c -0.06773,0.0254 -0.16087,0.055034 -0.232838,0.055034 -0.237071,0 -0.317506,-0.1439359 -0.317506,-0.3979405 V 1.248856 h 0.554577 V 0.96521757 H 50.450394 V 0.38947383 h -0.292105 l -0.04233,0.57574374 -0.321739,0.0211671 V 1.248856 h 0.304805 z"
       style="font-size:4.23341px;font-family:'Source Sans Pro';-inkscape-font-specification:'Source Sans Pro';text-align:start;text-anchor:start;stroke:none"
       id="path15576" />
    <path
       d="m 51.275904,1.9981696 c 0,0.681579 0.448742,1.0752861 0.952518,1.0752861 0.503775,0 0.952517,-0.3937071 0.952517,-1.0752861 0,-0.6900458 -0.448742,-1.08375295 -0.952517,-1.08375295 -0.503776,0 -0.952518,0.39370715 -0.952518,1.08375295 z m 0.35984,0 c 0,-0.4741419 0.241305,-0.7958811 0.592678,-0.7958811 0.355606,0 0.592677,0.3217392 0.592677,0.7958811 0,0.4699085 -0.237071,0.7874142 -0.592677,0.7874142 -0.351373,0 -0.592678,-0.3175057 -0.592678,-0.7874142 z"
       style="font-size:4.23341px;font-family:'Source Sans Pro';-inkscape-font-specification:'Source Sans Pro';text-align:start;text-anchor:start;stroke:none"
       id="path15578" />
    <path
       d="m 54.150392,3.0226548 h 0.406407 L 55.284945,0.96521757 H 54.942039 L 54.552566,2.1336387 c -0.05927,0.2032037 -0.127003,0.4106408 -0.18627,0.6053776 h -0.01693 C 54.285861,2.5442795 54.218126,2.3368424 54.158858,2.1336387 L 53.769385,0.96521757 h -0.35984 z"
       style="font-size:4.23341px;font-family:'Source Sans Pro';-inkscape-font-specification:'Source Sans Pro';text-align:start;text-anchor:start;stroke:none"
       id="path15580" />
    <path
       d="m 55.496616,2.4892451 c 0,0.3683067 0.258238,0.5842106 0.605377,0.5842106 0.254005,0 0.482609,-0.1354691 0.681579,-0.2963387 h 0.0085 l 0.02963,0.2455378 h 0.287872 V 1.7610986 c 0,-0.5122426 -0.211671,-0.84668195 -0.715446,-0.84668195 -0.330206,0 -0.618078,0.14393595 -0.808582,0.26670485 l 0.139703,0.2413043 c 0.160869,-0.1100686 0.37254,-0.2201373 0.613844,-0.2201373 0.33444,0 0.423341,0.2540046 0.423341,0.516476 -0.876316,0.097368 -1.265789,0.3217392 -1.265789,0.7704806 z m 0.342906,-0.0254 c 0,-0.2624714 0.232837,-0.4318078 0.922883,-0.516476 V 2.518879 c -0.19897,0.1778032 -0.364073,0.2751716 -0.563043,0.2751716 -0.203204,0 -0.35984,-0.097368 -0.35984,-0.3302059 z M 56.859774,1.1634827e-7 H 56.4957 L 56.114694,0.59691091 h 0.266704 z"
       style="font-size:4.23341px;font-family:'Source Sans Pro';-inkscape-font-specification:'Source Sans Pro';text-align:start;text-anchor:start;stroke:none"
       id="path15582" />
    <path
       d="m 58.620869,3.0226548 h 0.34714 V 1.5324945 c 0.207437,-0.2074371 0.351373,-0.3175057 0.563043,-0.3175057 0.270939,0 0.389474,0.1651029 0.389474,0.5503432 v 1.2573228 h 0.34714 V 1.7187645 c 0,-0.5249428 -0.194737,-0.80434785 -0.626545,-0.80434785 -0.283638,0 -0.491076,0.15240275 -0.685812,0.33867275 l 0.0127,-0.42334095 V 0.00846694 h -0.34714 z"
       style="font-size:4.23341px;font-family:'Source Sans Pro';-inkscape-font-specification:'Source Sans Pro';text-align:start;text-anchor:start;stroke:none"
       id="path15584" />
    <path
       d="m 60.923844,2.6077806 c 0,0.3005721 0.105835,0.4656751 0.368307,0.4656751 0.09314,0 0.152402,-0.0127 0.19897,-0.033867 L 61.444553,2.777117 c -0.0381,0.00847 -0.05503,0.00847 -0.0762,0.00847 -0.0508,0 -0.09737,-0.042334 -0.09737,-0.1524027 V 0.00846694 h -0.34714 z"
       style="font-size:4.23341px;font-family:'Source Sans Pro';-inkscape-font-specification:'Source Sans Pro';text-align:start;text-anchor:start;stroke:none"
       id="path15586" />
    <path
       d="m 61.850959,1.9981696 c 0,0.681579 0.448741,1.0752861 0.952517,1.0752861 0.503776,0 0.952517,-0.3937071 0.952517,-1.0752861 0,-0.6900458 -0.448741,-1.08375295 -0.952517,-1.08375295 -0.503776,0 -0.952517,0.39370715 -0.952517,1.08375295 z m 0.359839,0 c 0,-0.4741419 0.241305,-0.7958811 0.592678,-0.7958811 0.355606,0 0.592677,0.3217392 0.592677,0.7958811 0,0.4699085 -0.237071,0.7874142 -0.592677,0.7874142 -0.351373,0 -0.592678,-0.3175057 -0.592678,-0.7874142 z"
       style="font-size:4.23341px;font-family:'Source Sans Pro';-inkscape-font-specification:'Source Sans Pro';text-align:start;text-anchor:start;stroke:none"
       id="path15588" />
    <path
       d="m 64.268234,2.2691078 c 0,0.5249428 0.194736,0.8043479 0.630778,0.8043479 0.283638,0 0.486842,-0.1481694 0.677345,-0.3725401 h 0.0127 l 0.02963,0.3217392 h 0.287872 V 0.96521757 H 65.559424 V 2.425744 c -0.194737,0.2413043 -0.342907,0.3471396 -0.554577,0.3471396 -0.270938,0 -0.38524,-0.165103 -0.38524,-0.5503433 V 0.96521757 h -0.351373 z"
       style="font-size:4.23341px;font-family:'Source Sans Pro';-inkscape-font-specification:'Source Sans Pro';text-align:start;text-anchor:start;stroke:none"
       id="path15590" />
    <path
       d="m 66.60085,3.0226548 h 0.279405 l 0.02963,-0.2032037 h 0.0127 c 0.182036,0.1608696 0.39794,0.2540046 0.588444,0.2540046 0.469908,0 0.889016,-0.4106408 0.889016,-1.1133868 0,-0.6350115 -0.283639,-1.04565225 -0.817048,-1.04565225 -0.228604,0 -0.457208,0.12276885 -0.643478,0.28787185 l 0.0085,-0.37254005 V 0.00846694 H 66.60085 Z M 66.947989,2.5654465 V 1.485927 c 0.194737,-0.1820366 0.376774,-0.2794051 0.550344,-0.2794051 0.389473,0 0.541876,0.3048055 0.541876,0.7577804 0,0.5080092 -0.249771,0.8170481 -0.588444,0.8170481 -0.135469,0 -0.321739,-0.059268 -0.503776,-0.2159039 z"
       style="font-size:4.23341px;font-family:'Source Sans Pro';-inkscape-font-specification:'Source Sans Pro';text-align:start;text-anchor:start;stroke:none"
       id="path15592" />
    <path
       d="m 68.95039,3.0226548 h 0.342907 V 2.4807783 l 0.38524,-0.4487414 0.601144,0.9906179 h 0.381007 L 69.877507,1.7907325 70.567553,0.96521757 h -0.38524 L 69.305997,2.0489705 h -0.0127 V 0.00846694 H 68.95039 Z"
       style="font-size:4.23341px;font-family:'Source Sans Pro';-inkscape-font-specification:'Source Sans Pro';text-align:start;text-anchor:start;stroke:none"
       id="path15594" />
    <path
       d="m 70.901996,2.4892451 c 0,0.3683067 0.258238,0.5842106 0.605378,0.5842106 0.254004,0 0.482608,-0.1354691 0.681579,-0.2963387 h 0.0085 l 0.02963,0.2455378 h 0.287872 V 1.7610986 c 0,-0.5122426 -0.21167,-0.84668195 -0.715446,-0.84668195 -0.330206,0 -0.618078,0.14393595 -0.808581,0.26670485 L 71.1306,1.4224258 c 0.16087,-0.1100686 0.37254,-0.2201373 0.613845,-0.2201373 0.334439,0 0.423341,0.2540046 0.423341,0.516476 -0.876316,0.097368 -1.26579,0.3217392 -1.26579,0.7704806 z m 0.342906,-0.0254 c 0,-0.2624714 0.232838,-0.4318078 0.922884,-0.516476 V 2.518879 c -0.198971,0.1778032 -0.364074,0.2751716 -0.563044,0.2751716 -0.203204,0 -0.35984,-0.097368 -0.35984,-0.3302059 z"
       style="font-size:4.23341px;font-family:'Source Sans Pro';-inkscape-font-specification:'Source Sans Pro';text-align:start;text-anchor:start;stroke:none"
       id="path15596" />
  </g>
</svg>
