<?xml version="1.0" encoding="UTF-8" standalone="no"?>
<svg
   width="377"
   height="75.534187"
   version="1.1"
   viewBox="0 0 377.00001 75.534188"
   id="svg7629"
   sodipodi:docname="challenge_loop.svg"
   inkscape:version="1.2.2 (732a01da63, 2022-12-09)"
   xmlns:inkscape="http://www.inkscape.org/namespaces/inkscape"
   xmlns:sodipodi="http://sodipodi.sourceforge.net/DTD/sodipodi-0.dtd"
   xmlns="http://www.w3.org/2000/svg"
   xmlns:svg="http://www.w3.org/2000/svg"
   xmlns:rdf="http://www.w3.org/1999/02/22-rdf-syntax-ns#"
   xmlns:cc="http://creativecommons.org/ns#"
   xmlns:dc="http://purl.org/dc/elements/1.1/">
  <defs
     id="defs7633" />
  <sodipodi:namedview
     id="namedview7631"
     pagecolor="#ffffff"
     bordercolor="#000000"
     borderopacity="0.25"
     inkscape:showpageshadow="2"
     inkscape:pageopacity="0.0"
     inkscape:pagecheckerboard="0"
     inkscape:deskcolor="#d1d1d1"
     showgrid="false"
     inkscape:zoom="3.008489"
     inkscape:cx="139.77116"
     inkscape:cy="22.270316"
     inkscape:window-width="1920"
     inkscape:window-height="1017"
     inkscape:window-x="-8"
     inkscape:window-y="-8"
     inkscape:window-maximized="1"
     inkscape:current-layer="svg7629" />
  <metadata
     id="metadata6715">
    <rdf:RDF>
      <cc:Work
         rdf:about="">
        <dc:format>image/svg+xml</dc:format>
        <dc:type
           rdf:resource="http://purl.org/dc/dcmitype/StillImage" />
      </cc:Work>
    </rdf:RDF>
  </metadata>
  <g
     aria-label="Larry 
Koopa"
     id="text9442"
     style="font-size:12px;line-height:1.25;font-family:'Small Fonts';-inkscape-font-specification:'Small Fonts';text-align:center;text-anchor:middle;fill:#e8eaec;stroke:#cf2f25;stroke-linecap:round">
    <path
       d="m 5.4836458,11.201995 h 4.44 v -0.852 h -3.432 V 3.3299949 h -1.008 z"
       style="font-family:'Source Sans Pro';-inkscape-font-specification:'Source Sans Pro';stroke:none"
       id="path12124" />
    <path
       d="m 10.907657,9.6899949 c 0,1.0440001 0.732,1.6560001 1.716,1.6560001 0.72,0 1.368,-0.384 1.932,-0.84 h 0.024 l 0.084,0.696 h 0.816 V 7.6259949 c 0,-1.452 -0.6,-2.4 -2.028,-2.4 -0.936,0 -1.752,0.408 -2.292,0.756 l 0.396,0.684 c 0.456,-0.312 1.056,-0.624 1.74,-0.624 0.948,0 1.2,0.72 1.2,1.464 -2.484,0.276 -3.588,0.912 -3.588,2.184 z m 0.972,-0.072 c 0,-0.744 0.66,-1.224 2.616,-1.464 v 1.62 c -0.564,0.5040001 -1.032,0.7800001 -1.596,0.7800001 -0.576,0 -1.02,-0.276 -1.02,-0.9360001 z"
       style="font-family:'Source Sans Pro';-inkscape-font-specification:'Source Sans Pro';stroke:none"
       id="path12126" />
    <path
       d="m 17.339646,11.201995 h 0.984 V 7.4579949 c 0.396,-0.984 0.984,-1.344 1.476,-1.344 0.24,0 0.372,0.036 0.564,0.096 l 0.192,-0.864 c -0.192,-0.084 -0.372,-0.12 -0.624,-0.12 -0.66,0 -1.26,0.468 -1.656,1.2 h -0.036 l -0.084,-1.056 h -0.816 z"
       style="font-family:'Source Sans Pro';-inkscape-font-specification:'Source Sans Pro';stroke:none"
       id="path12128" />
    <path
       d="m 21.503648,11.201995 h 0.984 V 7.4579949 c 0.396,-0.984 0.984,-1.344 1.476,-1.344 0.24,0 0.372,0.036 0.564,0.096 l 0.192,-0.864 c -0.192,-0.084 -0.372,-0.12 -0.624,-0.12 -0.66,0 -1.26,0.468 -1.656,1.2 h -0.036 l -0.084,-1.056 h -0.816 z"
       style="font-family:'Source Sans Pro';-inkscape-font-specification:'Source Sans Pro';stroke:none"
       id="path12130" />
    <path
       d="m 25.499638,12.809995 -0.192,0.78 c 0.192,0.072 0.42,0.12 0.684,0.12 1.176,0 1.776,-0.876 2.184,-2.028 l 2.196,-6.3120001 h -0.96 l -1.044,3.228 c -0.156,0.516 -0.324,1.116 -0.492,1.6440001 h -0.048 c -0.18,-0.5400001 -0.384,-1.1400001 -0.564,-1.6440001 l -1.188,-3.228 h -1.02 l 2.34,5.8440001 -0.132,0.432 c -0.24,0.72 -0.66,1.248 -1.32,1.248 -0.144,0 -0.324,-0.048 -0.444,-0.084 z"
       style="font-family:'Source Sans Pro';-inkscape-font-specification:'Source Sans Pro';stroke:none"
       id="path12132" />
    <path
       d="m 3.5036577,26.649959 h 1.008 v -2.496 l 1.344,-1.596 2.352,4.092 h 1.116 l -2.844,-4.872 2.472,-3 h -1.14 l -3.276,3.948 h -0.024 v -3.948 h -1.008 z"
       style="font-family:'Source Sans Pro';-inkscape-font-specification:'Source Sans Pro';stroke:none"
       id="path12134" />
    <path
       d="m 9.8276443,23.745959 c 0,1.932 1.2719997,3.048 2.6999997,3.048 1.428,0 2.7,-1.116 2.7,-3.048 0,-1.956 -1.272,-3.072 -2.7,-3.072 -1.428,0 -2.6999997,1.116 -2.6999997,3.072 z m 1.0199997,0 c 0,-1.344 0.684,-2.256 1.68,-2.256 1.008,0 1.68,0.912 1.68,2.256 0,1.332 -0.672,2.232 -1.68,2.232 -0.996,0 -1.68,-0.9 -1.68,-2.232 z"
       style="font-family:'Source Sans Pro';-inkscape-font-specification:'Source Sans Pro';stroke:none"
       id="path12136" />
    <path
       d="m 16.331642,23.745959 c 0,1.932 1.272,3.048 2.7,3.048 1.428,0 2.7,-1.116 2.7,-3.048 0,-1.956 -1.272,-3.072 -2.7,-3.072 -1.428,0 -2.7,1.116 -2.7,3.072 z m 1.02,0 c 0,-1.344 0.684,-2.256 1.68,-2.256 1.008,0 1.68,0.912 1.68,2.256 0,1.332 -0.672,2.232 -1.68,2.232 -0.996,0 -1.68,-0.9 -1.68,-2.232 z"
       style="font-family:'Source Sans Pro';-inkscape-font-specification:'Source Sans Pro';stroke:none"
       id="path12138" />
    <path
       d="m 24.22764,26.121959 c 0.54,0.42 1.08,0.672 1.62,0.672 1.332,0 2.52,-1.164 2.52,-3.144 0,-1.812 -0.804,-2.976 -2.304,-2.976 -0.684,0 -1.332,0.372 -1.86,0.816 h -0.036 l -0.084,-0.672 h -0.816 v 8.292 h 0.984 v -1.968 z m 0.024,-0.768 v -3.06 c 0.576,-0.516 1.068,-0.792 1.56,-0.792 1.104,0 1.536,0.864 1.536,2.148 0,1.44 -0.708,2.316 -1.668,2.316 -0.384,0 -0.9,-0.168 -1.428,-0.612 z"
       style="font-family:'Source Sans Pro';-inkscape-font-specification:'Source Sans Pro';stroke:none"
       id="path12140" />
    <path
       d="m 29.471644,25.137959 c 0,1.044 0.732,1.656 1.716,1.656 0.72,0 1.368,-0.384 1.932,-0.84 h 0.024 l 0.084,0.696 h 0.816 v -3.576 c 0,-1.452 -0.6,-2.4 -2.028,-2.4 -0.936,0 -1.752,0.408 -2.292,0.756 l 0.396,0.684 c 0.456,-0.312 1.056,-0.624 1.74,-0.624 0.948,0 1.2,0.72 1.2,1.464 -2.484,0.276 -3.588,0.912 -3.588,2.184 z m 0.972,-0.072 c 0,-0.744 0.66,-1.224 2.616,-1.464 v 1.62 c -0.564,0.504 -1.032,0.78 -1.596,0.78 -0.576,0 -1.02,-0.276 -1.02,-0.936 z"
       style="font-family:'Source Sans Pro';-inkscape-font-specification:'Source Sans Pro';stroke:none"
       id="path12142" />
  </g>
  <path
     sodipodi:nodetypes="ccccccc"
     inkscape:connector-curvature="0"
     d="M 0.5,0.5 V 27.26 L 6.125,32.3 H 56.5 V 5.54 L 50.875,0.5 Z"
     style="fill:#1d232d;fill-opacity:1;stroke:#6f8ce9;stroke-width:1;stroke-linecap:round;stroke-miterlimit:4;stroke-dasharray:none;stroke-opacity:1"
     id="path9444" />
  <g
     aria-label="Zájem"
     id="text9450"
     style="font-size:12px;line-height:1.25;font-family:'Small Fonts';-inkscape-font-specification:'Small Fonts';text-align:center;text-anchor:middle;fill:#e8eaec;stroke:#cf2f25;stroke-linecap:round">
    <path
       d="m 13.58165,19.201996 h 5.424 v -0.852 h -4.188 l 4.152,-6.432 v -0.588 h -5.016 v 0.84 h 3.78 l -4.152,6.432 z"
       style="font-family:'Source Sans Pro';-inkscape-font-specification:'Source Sans Pro';stroke:none"
       id="path12145" />
    <path
       d="m 19.989646,17.689996 c 0,1.044 0.732,1.656 1.716,1.656 0.72,0 1.368,-0.384 1.932,-0.84 h 0.024 l 0.084,0.696 h 0.816 v -3.576 c 0,-1.452 -0.6,-2.4 -2.028,-2.4 -0.936,0 -1.752,0.408 -2.292,0.756 l 0.396,0.684 c 0.456,-0.312 1.056,-0.624 1.74,-0.624 0.948,0 1.2,0.72 1.2,1.464 -2.484,0.276 -3.588,0.912 -3.588,2.184 z m 0.972,-0.072 c 0,-0.744 0.66,-1.224 2.616,-1.464 v 1.62 c -0.564,0.504 -1.032,0.78 -1.596,0.78 -0.576,0 -1.02,-0.276 -1.02,-0.936 z m 2.892,-6.984 h -1.032 l -1.08,1.692 h 0.756 z"
       style="font-family:'Source Sans Pro';-inkscape-font-specification:'Source Sans Pro';stroke:none"
       id="path12147" />
    <path
       d="m 26.433635,19.861996 c 0,0.708 -0.144,1.14 -0.72,1.14 -0.204,0 -0.408,-0.048 -0.552,-0.096 l -0.204,0.744 c 0.204,0.084 0.504,0.156 0.864,0.156 1.164,0 1.596,-0.756 1.596,-1.944 v -6.492 h -0.984 z m 0.504,-7.692 c 0.372,0 0.672,-0.264 0.672,-0.636 0,-0.384 -0.3,-0.636 -0.672,-0.636 -0.384,0 -0.684,0.252 -0.684,0.636 0,0.372 0.3,0.636 0.684,0.636 z"
       style="font-family:'Source Sans Pro';-inkscape-font-specification:'Source Sans Pro';stroke:none"
       id="path12149" />
    <path
       d="m 28.953632,16.297996 c 0,1.908 1.236,3.048 2.796,3.048 0.792,0 1.416,-0.276 1.92,-0.6 l -0.348,-0.648 c -0.432,0.276 -0.9,0.456 -1.452,0.456 -1.116,0 -1.872,-0.792 -1.944,-2.052 h 3.936 c 0.024,-0.144 0.036,-0.336 0.036,-0.54 0,-1.668 -0.84,-2.736 -2.328,-2.736 -1.332,0 -2.616,1.164 -2.616,3.072 z m 0.96,-0.444 c 0.12,-1.176 0.864,-1.848 1.68,-1.848 0.912,0 1.44,0.66 1.44,1.848 z"
       style="font-family:'Source Sans Pro';-inkscape-font-specification:'Source Sans Pro';stroke:none"
       id="path12151" />
    <path
       d="m 35.337636,19.201996 h 0.984 v -4.224 c 0.54,-0.6 1.032,-0.9 1.464,-0.9 0.744,0 1.092,0.468 1.092,1.56 v 3.564 h 0.984 v -4.224 c 0.54,-0.6 1.008,-0.9 1.464,-0.9 0.732,0 1.08,0.468 1.08,1.56 v 3.564 h 0.984 v -3.696 c 0,-1.488 -0.576,-2.28 -1.776,-2.28 -0.708,0 -1.308,0.456 -1.92,1.116 -0.24,-0.696 -0.72,-1.116 -1.608,-1.116 -0.696,0 -1.308,0.432 -1.812,0.984 h -0.036 l -0.084,-0.84 h -0.816 z"
       style="font-family:'Source Sans Pro';-inkscape-font-specification:'Source Sans Pro';stroke:none"
       id="path12153" />
  </g>
  <g
     aria-label="Larry 
Koopa"
     id="text9458"
     style="font-size:12px;line-height:1.25;font-family:'Small Fonts';-inkscape-font-specification:'Small Fonts';text-align:center;text-anchor:middle;fill:#e8eaec;stroke:#cf2f25;stroke-linecap:round">
    <path
       d="m 85.483644,11.201995 h 4.44 v -0.852 h -3.432 V 3.3299949 h -1.008 z"
       style="font-family:'Source Sans Pro';-inkscape-font-specification:'Source Sans Pro';stroke:none"
       id="path12156" />
    <path
       d="m 90.907655,9.6899949 c 0,1.0440001 0.732,1.6560001 1.716,1.6560001 0.72,0 1.368,-0.384 1.932,-0.84 h 0.024 l 0.084,0.696 h 0.816 V 7.6259949 c 0,-1.452 -0.6,-2.4 -2.028,-2.4 -0.936,0 -1.752,0.408 -2.292,0.756 l 0.396,0.684 c 0.456,-0.312 1.056,-0.624 1.74,-0.624 0.948,0 1.2,0.72 1.2,1.464 -2.484,0.276 -3.588,0.912 -3.588,2.184 z m 0.972,-0.072 c 0,-0.744 0.66,-1.224 2.616,-1.464 v 1.62 c -0.564,0.5040001 -1.032,0.7800001 -1.596,0.7800001 -0.576,0 -1.02,-0.276 -1.02,-0.9360001 z"
       style="font-family:'Source Sans Pro';-inkscape-font-specification:'Source Sans Pro';stroke:none"
       id="path12158" />
    <path
       d="m 97.339644,11.201995 h 0.984 V 7.4579949 c 0.396,-0.984 0.984,-1.344 1.476,-1.344 0.239996,0 0.371996,0.036 0.563996,0.096 l 0.192,-0.864 c -0.192,-0.084 -0.372,-0.12 -0.623996,-0.12 -0.66,0 -1.26,0.468 -1.656,1.2 h -0.036 l -0.084,-1.056 h -0.816 z"
       style="font-family:'Source Sans Pro';-inkscape-font-specification:'Source Sans Pro';stroke:none"
       id="path12160" />
    <path
       d="m 101.50365,11.201995 h 0.984 V 7.4579949 c 0.396,-0.984 0.984,-1.344 1.476,-1.344 0.24,0 0.372,0.036 0.564,0.096 l 0.192,-0.864 c -0.192,-0.084 -0.372,-0.12 -0.624,-0.12 -0.66,0 -1.26,0.468 -1.656,1.2 h -0.036 l -0.084,-1.056 h -0.816 z"
       style="font-family:'Source Sans Pro';-inkscape-font-specification:'Source Sans Pro';stroke:none"
       id="path12162" />
    <path
       d="m 105.49964,12.809995 -0.192,0.78 c 0.192,0.072 0.42,0.12 0.684,0.12 1.176,0 1.776,-0.876 2.184,-2.028 l 2.196,-6.3120001 h -0.96 l -1.044,3.228 c -0.156,0.516 -0.324,1.116 -0.492,1.6440001 h -0.048 c -0.18,-0.5400001 -0.384,-1.1400001 -0.564,-1.6440001 l -1.188,-3.228 h -1.02 l 2.34,5.8440001 -0.132,0.432 c -0.24,0.72 -0.66,1.248 -1.32,1.248 -0.144,0 -0.324,-0.048 -0.444,-0.084 z"
       style="font-family:'Source Sans Pro';-inkscape-font-specification:'Source Sans Pro';stroke:none"
       id="path12164" />
    <path
       d="m 83.503656,26.649959 h 1.008 v -2.496 l 1.344,-1.596 2.352,4.092 h 1.116 l -2.844,-4.872 2.472,-3 h -1.14 l -3.276,3.948 h -0.024 v -3.948 h -1.008 z"
       style="font-family:'Source Sans Pro';-inkscape-font-specification:'Source Sans Pro';stroke:none"
       id="path12166" />
    <path
       d="m 89.827642,23.745959 c 0,1.932 1.272,3.048 2.7,3.048 1.428,0 2.7,-1.116 2.7,-3.048 0,-1.956 -1.272,-3.072 -2.7,-3.072 -1.428,0 -2.7,1.116 -2.7,3.072 z m 1.02,0 c 0,-1.344 0.684,-2.256 1.68,-2.256 1.008,0 1.68,0.912 1.68,2.256 0,1.332 -0.672,2.232 -1.68,2.232 -0.996,0 -1.68,-0.9 -1.68,-2.232 z"
       style="font-family:'Source Sans Pro';-inkscape-font-specification:'Source Sans Pro';stroke:none"
       id="path12168" />
    <path
       d="m 96.33164,23.745959 c 0,1.932 1.272,3.048 2.7,3.048 1.428,0 2.7,-1.116 2.7,-3.048 0,-1.956 -1.272,-3.072 -2.7,-3.072 -1.428,0 -2.7,1.116 -2.7,3.072 z m 1.02,0 c 0,-1.344 0.684,-2.256 1.68,-2.256 1.008,0 1.68,0.912 1.68,2.256 0,1.332 -0.672,2.232 -1.68,2.232 -0.996,0 -1.68,-0.9 -1.68,-2.232 z"
       style="font-family:'Source Sans Pro';-inkscape-font-specification:'Source Sans Pro';stroke:none"
       id="path12170" />
    <path
       d="m 104.22764,26.121959 c 0.54,0.42 1.08,0.672 1.62,0.672 1.332,0 2.52,-1.164 2.52,-3.144 0,-1.812 -0.804,-2.976 -2.304,-2.976 -0.684,0 -1.332,0.372 -1.86,0.816 h -0.036 l -0.084,-0.672 h -0.816 v 8.292 h 0.984 v -1.968 z m 0.024,-0.768 v -3.06 c 0.576,-0.516 1.068,-0.792 1.56,-0.792 1.104,0 1.536,0.864 1.536,2.148 0,1.44 -0.708,2.316 -1.668,2.316 -0.384,0 -0.9,-0.168 -1.428,-0.612 z"
       style="font-family:'Source Sans Pro';-inkscape-font-specification:'Source Sans Pro';stroke:none"
       id="path12172" />
    <path
       d="m 109.47164,25.137959 c 0,1.044 0.732,1.656 1.716,1.656 0.72,0 1.368,-0.384 1.932,-0.84 h 0.024 l 0.084,0.696 h 0.816 v -3.576 c 0,-1.452 -0.6,-2.4 -2.028,-2.4 -0.936,0 -1.752,0.408 -2.292,0.756 l 0.396,0.684 c 0.456,-0.312 1.056,-0.624 1.74,-0.624 0.948,0 1.2,0.72 1.2,1.464 -2.484,0.276 -3.588,0.912 -3.588,2.184 z m 0.972,-0.072 c 0,-0.744 0.66,-1.224 2.616,-1.464 v 1.62 c -0.564,0.504 -1.032,0.78 -1.596,0.78 -0.576,0 -1.02,-0.276 -1.02,-0.936 z"
       style="font-family:'Source Sans Pro';-inkscape-font-specification:'Source Sans Pro';stroke:none"
       id="path12174" />
  </g>
  <path
     sodipodi:nodetypes="ccccccc"
     inkscape:connector-curvature="0"
     d="m 80.5,0.5 v 26.76 l 5.625,5.04 H 136.5 V 5.54 L 130.875,0.5 Z"
     style="fill:#1d232d;fill-opacity:1;stroke:#6f8ce9;stroke-width:1;stroke-linecap:round;stroke-miterlimit:4;stroke-dasharray:none;stroke-opacity:1"
     id="path9460" />
  <g
     aria-label="Podnět"
     id="text9464"
     style="font-size:12px;line-height:1.25;font-family:'Small Fonts';-inkscape-font-specification:'Small Fonts';text-align:center;text-anchor:middle;fill:#e8eaec;stroke:#cf2f25;stroke-linecap:round">
    <path
       d="m 91.667638,19.201996 h 1.008 v -3.12 h 1.416 c 1.716,0 2.904,-0.78 2.904,-2.436 0,-1.728 -1.164,-2.316 -2.904,-2.316 h -2.424 z m 1.008,-3.936 v -3.132 h 1.284 c 1.356,0 2.04,0.372 2.04,1.512 0,1.116 -0.66,1.62 -2.04,1.62 z"
       style="font-family:'Source Sans Pro';-inkscape-font-specification:'Source Sans Pro';stroke:none"
       id="path12177" />
    <path
       d="m 97.739626,16.297996 c 0,1.932 1.272,3.048 2.700004,3.048 1.428,0 2.7,-1.116 2.7,-3.048 0,-1.956 -1.272,-3.072 -2.7,-3.072 -1.428004,0 -2.700004,1.116 -2.700004,3.072 z m 1.02,0 c 0,-1.344 0.684,-2.256 1.680004,-2.256 1.008,0 1.68,0.912 1.68,2.256 0,1.332 -0.672,2.232 -1.68,2.232 -0.996004,0 -1.680004,-0.9 -1.680004,-2.232 z"
       style="font-family:'Source Sans Pro';-inkscape-font-specification:'Source Sans Pro';stroke:none"
       id="path12179" />
    <path
       d="m 104.25562,16.297996 c 0,1.944 0.948,3.048 2.412,3.048 0.684,0 1.308,-0.384 1.764,-0.828 h 0.036 l 0.084,0.684 h 0.816 v -8.544 h -0.996 v 2.244 l 0.048,0.996 c -0.516,-0.42 -0.96,-0.672 -1.632,-0.672 -1.332,0 -2.532,1.176 -2.532,3.072 z m 1.02,-0.012 c 0,-1.332 0.744,-2.232 1.68,-2.232 0.48,0 0.924,0.168 1.416,0.612 v 3.048 c -0.48,0.54 -0.948,0.804 -1.488,0.804 -1.02,0 -1.608,-0.84 -1.608,-2.232 z"
       style="font-family:'Source Sans Pro';-inkscape-font-specification:'Source Sans Pro';stroke:none"
       id="path12181" />
    <path
       d="m 111.33563,19.201996 h 0.984 v -4.224 c 0.588,-0.588 0.996,-0.9 1.596,-0.9 0.768,0 1.104,0.468 1.104,1.56 v 3.564 h 0.984 v -3.696 c 0,-1.488 -0.552,-2.28 -1.776,-2.28 -0.804,0 -1.404,0.432 -1.956,0.984 h -0.036 l -0.084,-0.84 h -0.816 z"
       style="font-family:'Source Sans Pro';-inkscape-font-specification:'Source Sans Pro';stroke:none"
       id="path12183" />
    <path
       d="m 117.46764,16.297996 c 0,1.908 1.236,3.048 2.796,3.048 0.792,0 1.416,-0.276 1.92,-0.6 l -0.348,-0.648 c -0.432,0.276 -0.9,0.456 -1.452,0.456 -1.116,0 -1.872,-0.792 -1.944,-2.052 h 3.936 c 0.024,-0.144 0.036,-0.336 0.036,-0.54 0,-1.668 -0.84,-2.736 -2.328,-2.736 -1.332,0 -2.616,1.164 -2.616,3.072 z m 0.96,-0.444 c 0.12,-1.176 0.864,-1.848 1.68,-1.848 0.912,0 1.44,0.66 1.44,1.848 z m 1.26,-3.528 h 0.804 l 1.14,-1.692 h -0.72 l -0.804,1.104 h -0.048 l -0.804,-1.104 h -0.708 z"
       style="font-family:'Source Sans Pro';-inkscape-font-specification:'Source Sans Pro';stroke:none"
       id="path12185" />
    <path
       d="m 123.85164,17.401996 c 0,1.152 0.42,1.944 1.668,1.944 0.36,0 0.756,-0.108 1.08,-0.216 l -0.192,-0.744 c -0.192,0.072 -0.456,0.156 -0.66,0.156 -0.672,0 -0.9,-0.408 -0.9,-1.128 v -3.24 h 1.572 v -0.804 h -1.572 v -1.632 h -0.828 l -0.12,1.632 -0.912,0.06 v 0.744 h 0.864 z"
       style="font-family:'Source Sans Pro';-inkscape-font-specification:'Source Sans Pro';stroke:none"
       id="path12187" />
  </g>
  <g
     aria-label="Larry 
Koopa"
     id="text9470"
     style="font-size:12px;line-height:1.25;font-family:'Small Fonts';-inkscape-font-specification:'Small Fonts';text-align:center;text-anchor:middle;fill:#e8eaec;stroke:#cf2f25;stroke-linecap:round">
    <path
       d="m 165.48364,11.201995 h 4.44 v -0.852 h -3.432 V 3.3299949 h -1.008 z"
       style="font-family:'Source Sans Pro';-inkscape-font-specification:'Source Sans Pro';stroke:none"
       id="path12190" />
    <path
       d="m 170.90765,9.6899949 c 0,1.0440001 0.732,1.6560001 1.716,1.6560001 0.72,0 1.368,-0.384 1.932,-0.84 h 0.024 l 0.084,0.696 h 0.816 V 7.6259949 c 0,-1.452 -0.6,-2.4 -2.028,-2.4 -0.936,0 -1.752,0.408 -2.292,0.756 l 0.396,0.684 c 0.456,-0.312 1.056,-0.624 1.74,-0.624 0.948,0 1.2,0.72 1.2,1.464 -2.484,0.276 -3.588,0.912 -3.588,2.184 z m 0.972,-0.072 c 0,-0.744 0.66,-1.224 2.616,-1.464 v 1.62 c -0.564,0.5040001 -1.032,0.7800001 -1.596,0.7800001 -0.576,0 -1.02,-0.276 -1.02,-0.9360001 z"
       style="font-family:'Source Sans Pro';-inkscape-font-specification:'Source Sans Pro';stroke:none"
       id="path12192" />
    <path
       d="m 177.33964,11.201995 h 0.984 V 7.4579949 c 0.396,-0.984 0.984,-1.344 1.476,-1.344 0.24,0 0.372,0.036 0.564,0.096 l 0.192,-0.864 c -0.192,-0.084 -0.372,-0.12 -0.624,-0.12 -0.66,0 -1.26,0.468 -1.656,1.2 h -0.036 l -0.084,-1.056 h -0.816 z"
       style="font-family:'Source Sans Pro';-inkscape-font-specification:'Source Sans Pro';stroke:none"
       id="path12194" />
    <path
       d="m 181.50364,11.201995 h 0.984 V 7.4579949 c 0.396,-0.984 0.984,-1.344 1.476,-1.344 0.24,0 0.372,0.036 0.564,0.096 l 0.192,-0.864 c -0.192,-0.084 -0.372,-0.12 -0.624,-0.12 -0.66,0 -1.26,0.468 -1.656,1.2 h -0.036 l -0.084,-1.056 h -0.816 z"
       style="font-family:'Source Sans Pro';-inkscape-font-specification:'Source Sans Pro';stroke:none"
       id="path12196" />
    <path
       d="m 185.49963,12.809995 -0.192,0.78 c 0.192,0.072 0.42,0.12 0.684,0.12 1.176,0 1.776,-0.876 2.184,-2.028 l 2.196,-6.3120001 h -0.96 l -1.044,3.228 c -0.156,0.516 -0.324,1.116 -0.492,1.6440001 h -0.048 c -0.18,-0.5400001 -0.384,-1.1400001 -0.564,-1.6440001 l -1.188,-3.228 h -1.02 l 2.34,5.8440001 -0.132,0.432 c -0.24,0.72 -0.66,1.248 -1.32,1.248 -0.144,0 -0.324,-0.048 -0.444,-0.084 z"
       style="font-family:'Source Sans Pro';-inkscape-font-specification:'Source Sans Pro';stroke:none"
       id="path12198" />
    <path
       d="m 163.50365,26.649959 h 1.008 v -2.496 l 1.344,-1.596 2.352,4.092 h 1.116 l -2.844,-4.872 2.472,-3 h -1.14 l -3.276,3.948 h -0.024 v -3.948 h -1.008 z"
       style="font-family:'Source Sans Pro';-inkscape-font-specification:'Source Sans Pro';stroke:none"
       id="path12200" />
    <path
       d="m 169.82763,23.745959 c 0,1.932 1.272,3.048 2.7,3.048 1.428,0 2.7,-1.116 2.7,-3.048 0,-1.956 -1.272,-3.072 -2.7,-3.072 -1.428,0 -2.7,1.116 -2.7,3.072 z m 1.02,0 c 0,-1.344 0.684,-2.256 1.68,-2.256 1.008,0 1.68,0.912 1.68,2.256 0,1.332 -0.672,2.232 -1.68,2.232 -0.996,0 -1.68,-0.9 -1.68,-2.232 z"
       style="font-family:'Source Sans Pro';-inkscape-font-specification:'Source Sans Pro';stroke:none"
       id="path12202" />
    <path
       d="m 176.33163,23.745959 c 0,1.932 1.272,3.048 2.7,3.048 1.428,0 2.7,-1.116 2.7,-3.048 0,-1.956 -1.272,-3.072 -2.7,-3.072 -1.428,0 -2.7,1.116 -2.7,3.072 z m 1.02,0 c 0,-1.344 0.684,-2.256 1.68,-2.256 1.008,0 1.68,0.912 1.68,2.256 0,1.332 -0.672,2.232 -1.68,2.232 -0.996,0 -1.68,-0.9 -1.68,-2.232 z"
       style="font-family:'Source Sans Pro';-inkscape-font-specification:'Source Sans Pro';stroke:none"
       id="path12204" />
    <path
       d="m 184.22763,26.121959 c 0.54,0.42 1.08,0.672 1.62,0.672 1.332,0 2.52,-1.164 2.52,-3.144 0,-1.812 -0.804,-2.976 -2.304,-2.976 -0.684,0 -1.332,0.372 -1.86,0.816 h -0.036 l -0.084,-0.672 h -0.816 v 8.292 h 0.984 v -1.968 z m 0.024,-0.768 v -3.06 c 0.576,-0.516 1.068,-0.792 1.56,-0.792 1.104,0 1.536,0.864 1.536,2.148 0,1.44 -0.708,2.316 -1.668,2.316 -0.384,0 -0.9,-0.168 -1.428,-0.612 z"
       style="font-family:'Source Sans Pro';-inkscape-font-specification:'Source Sans Pro';stroke:none"
       id="path12206" />
    <path
       d="m 189.47163,25.137959 c 0,1.044 0.732,1.656 1.716,1.656 0.72,0 1.368,-0.384 1.932,-0.84 h 0.024 l 0.084,0.696 h 0.816 v -3.576 c 0,-1.452 -0.6,-2.4 -2.028,-2.4 -0.936,0 -1.752,0.408 -2.292,0.756 l 0.396,0.684 c 0.456,-0.312 1.056,-0.624 1.74,-0.624 0.948,0 1.2,0.72 1.2,1.464 -2.484,0.276 -3.588,0.912 -3.588,2.184 z m 0.972,-0.072 c 0,-0.744 0.66,-1.224 2.616,-1.464 v 1.62 c -0.564,0.504 -1.032,0.78 -1.596,0.78 -0.576,0 -1.02,-0.276 -1.02,-0.936 z"
       style="font-family:'Source Sans Pro';-inkscape-font-specification:'Source Sans Pro';stroke:none"
       id="path12208" />
  </g>
  <path
     sodipodi:nodetypes="ccccccc"
     inkscape:connector-curvature="0"
     d="m 160.5,0.5 v 26.76 l 5.625,5.04 H 216.5 V 5.54 L 210.875,0.5 Z"
     style="fill:#1d232d;fill-opacity:1;stroke:#6f8ce9;stroke-width:1;stroke-linecap:round;stroke-miterlimit:4;stroke-dasharray:none;stroke-opacity:1"
     id="path9472" />
  <g
     aria-label="Výzva"
     id="text9476"
     style="font-size:12px;line-height:1.25;font-family:'Small Fonts';-inkscape-font-specification:'Small Fonts';text-align:center;text-anchor:middle;fill:#e8eaec;stroke:#cf2f25;stroke-linecap:round">
    <path
       d="m 177.22966,19.201996 h 1.164 l 2.496,-7.872 h -1.02 l -1.26,4.248 c -0.264,0.936 -0.468,1.68 -0.756,2.604 h -0.048 c -0.288,-0.924 -0.48,-1.668 -0.756,-2.604 l -1.272,-4.248 h -1.056 z"
       style="font-family:'Source Sans Pro';-inkscape-font-specification:'Source Sans Pro';stroke:none"
       id="path12211" />
    <path
       d="m 181.34565,20.809996 -0.192,0.78 c 0.192,0.072 0.42,0.12 0.684,0.12 1.176,0 1.776,-0.876 2.184,-2.028 l 2.196,-6.312 h -0.96 l -1.044,3.228 c -0.156,0.516 -0.324,1.116 -0.492,1.644 h -0.048 c -0.18,-0.54 -0.384,-1.14 -0.564,-1.644 l -1.188,-3.228 h -1.02 l 2.34,5.844 -0.132,0.432 c -0.24,0.72 -0.66,1.248 -1.32,1.248 -0.144,0 -0.324,-0.048 -0.444,-0.084 z m 3.66,-10.176 h -1.032 l -1.08,1.692 h 0.756 z"
       style="font-family:'Source Sans Pro';-inkscape-font-specification:'Source Sans Pro';stroke:none"
       id="path12213" />
    <path
       d="m 186.44566,19.201996 h 4.416 v -0.804 h -3.168 l 3.072,-4.5 v -0.528 h -3.984 v 0.804 h 2.736 l -3.072,4.5 z"
       style="font-family:'Source Sans Pro';-inkscape-font-specification:'Source Sans Pro';stroke:none"
       id="path12215" />
    <path
       d="m 193.36965,19.201996 h 1.152 l 2.064,-5.832 h -0.972 l -1.104,3.312 c -0.168,0.576 -0.36,1.164 -0.528,1.716 h -0.048 c -0.18,-0.552 -0.372,-1.14 -0.54,-1.716 l -1.104,-3.312 h -1.02 z"
       style="font-family:'Source Sans Pro';-inkscape-font-specification:'Source Sans Pro';stroke:none"
       id="path12217" />
    <path
       d="m 197.18566,17.689996 c 0,1.044 0.732,1.656 1.716,1.656 0.72,0 1.368,-0.384 1.932,-0.84 h 0.024 l 0.084,0.696 h 0.816 v -3.576 c 0,-1.452 -0.6,-2.4 -2.028,-2.4 -0.936,0 -1.752,0.408 -2.292,0.756 l 0.396,0.684 c 0.456,-0.312 1.056,-0.624 1.74,-0.624 0.948,0 1.2,0.72 1.2,1.464 -2.484,0.276 -3.588,0.912 -3.588,2.184 z m 0.972,-0.072 c 0,-0.744 0.66,-1.224 2.616,-1.464 v 1.62 c -0.564,0.504 -1.032,0.78 -1.596,0.78 -0.576,0 -1.02,-0.276 -1.02,-0.936 z"
       style="font-family:'Source Sans Pro';-inkscape-font-specification:'Source Sans Pro';stroke:none"
       id="path12219" />
  </g>
  <g
     aria-label="Larry 
Koopa"
     id="text9482"
     style="font-size:12px;line-height:1.25;font-family:'Small Fonts';-inkscape-font-specification:'Small Fonts';text-align:center;text-anchor:middle;fill:#e8eaec;stroke:#cf2f25;stroke-linecap:round">
    <path
       d="m 245.48364,11.201995 h 4.44 v -0.852 h -3.432 V 3.3299949 h -1.008 z"
       style="font-family:'Source Sans Pro';-inkscape-font-specification:'Source Sans Pro';stroke:none"
       id="path12222" />
    <path
       d="m 250.90765,9.6899949 c 0,1.0440001 0.732,1.6560001 1.716,1.6560001 0.72,0 1.368,-0.384 1.932,-0.84 h 0.024 l 0.084,0.696 h 0.816 V 7.6259949 c 0,-1.452 -0.6,-2.4 -2.028,-2.4 -0.936,0 -1.752,0.408 -2.292,0.756 l 0.396,0.684 c 0.456,-0.312 1.056,-0.624 1.74,-0.624 0.948,0 1.2,0.72 1.2,1.464 -2.484,0.276 -3.588,0.912 -3.588,2.184 z m 0.972,-0.072 c 0,-0.744 0.66,-1.224 2.616,-1.464 v 1.62 c -0.564,0.5040001 -1.032,0.7800001 -1.596,0.7800001 -0.576,0 -1.02,-0.276 -1.02,-0.9360001 z"
       style="font-family:'Source Sans Pro';-inkscape-font-specification:'Source Sans Pro';stroke:none"
       id="path12224" />
    <path
       d="m 257.33964,11.201995 h 0.984 V 7.4579949 c 0.396,-0.984 0.984,-1.344 1.476,-1.344 0.24,0 0.372,0.036 0.564,0.096 l 0.192,-0.864 c -0.192,-0.084 -0.372,-0.12 -0.624,-0.12 -0.66,0 -1.26,0.468 -1.656,1.2 h -0.036 l -0.084,-1.056 h -0.816 z"
       style="font-family:'Source Sans Pro';-inkscape-font-specification:'Source Sans Pro';stroke:none"
       id="path12226" />
    <path
       d="m 261.50364,11.201995 h 0.984 V 7.4579949 c 0.396,-0.984 0.984,-1.344 1.476,-1.344 0.24,0 0.372,0.036 0.564,0.096 l 0.192,-0.864 c -0.192,-0.084 -0.372,-0.12 -0.624,-0.12 -0.66,0 -1.26,0.468 -1.656,1.2 h -0.036 l -0.084,-1.056 h -0.816 z"
       style="font-family:'Source Sans Pro';-inkscape-font-specification:'Source Sans Pro';stroke:none"
       id="path12228" />
    <path
       d="m 265.49963,12.809995 -0.192,0.78 c 0.192,0.072 0.42,0.12 0.684,0.12 1.176,0 1.776,-0.876 2.184,-2.028 l 2.196,-6.3120001 h -0.96 l -1.044,3.228 c -0.156,0.516 -0.324,1.116 -0.492,1.6440001 h -0.048 c -0.18,-0.5400001 -0.384,-1.1400001 -0.564,-1.6440001 l -1.188,-3.228 h -1.02 l 2.34,5.8440001 -0.132,0.432 c -0.24,0.72 -0.66,1.248 -1.32,1.248 -0.144,0 -0.324,-0.048 -0.444,-0.084 z"
       style="font-family:'Source Sans Pro';-inkscape-font-specification:'Source Sans Pro';stroke:none"
       id="path12230" />
    <path
       d="m 243.50365,26.649959 h 1.008 v -2.496 l 1.344,-1.596 2.352,4.092 h 1.116 l -2.844,-4.872 2.472,-3 h -1.14 l -3.276,3.948 h -0.024 v -3.948 h -1.008 z"
       style="font-family:'Source Sans Pro';-inkscape-font-specification:'Source Sans Pro';stroke:none"
       id="path12232" />
    <path
       d="m 249.82763,23.745959 c 0,1.932 1.272,3.048 2.7,3.048 1.428,0 2.7,-1.116 2.7,-3.048 0,-1.956 -1.272,-3.072 -2.7,-3.072 -1.428,0 -2.7,1.116 -2.7,3.072 z m 1.02,0 c 0,-1.344 0.684,-2.256 1.68,-2.256 1.008,0 1.68,0.912 1.68,2.256 0,1.332 -0.672,2.232 -1.68,2.232 -0.996,0 -1.68,-0.9 -1.68,-2.232 z"
       style="font-family:'Source Sans Pro';-inkscape-font-specification:'Source Sans Pro';stroke:none"
       id="path12234" />
    <path
       d="m 256.33163,23.745959 c 0,1.932 1.272,3.048 2.7,3.048 1.428,0 2.7,-1.116 2.7,-3.048 0,-1.956 -1.272,-3.072 -2.7,-3.072 -1.428,0 -2.7,1.116 -2.7,3.072 z m 1.02,0 c 0,-1.344 0.684,-2.256 1.68,-2.256 1.008,0 1.68,0.912 1.68,2.256 0,1.332 -0.672,2.232 -1.68,2.232 -0.996,0 -1.68,-0.9 -1.68,-2.232 z"
       style="font-family:'Source Sans Pro';-inkscape-font-specification:'Source Sans Pro';stroke:none"
       id="path12236" />
    <path
       d="m 264.22763,26.121959 c 0.54,0.42 1.08,0.672 1.62,0.672 1.332,0 2.52,-1.164 2.52,-3.144 0,-1.812 -0.804,-2.976 -2.304,-2.976 -0.684,0 -1.332,0.372 -1.86,0.816 h -0.036 l -0.084,-0.672 h -0.816 v 8.292 h 0.984 v -1.968 z m 0.024,-0.768 v -3.06 c 0.576,-0.516 1.068,-0.792 1.56,-0.792 1.104,0 1.536,0.864 1.536,2.148 0,1.44 -0.708,2.316 -1.668,2.316 -0.384,0 -0.9,-0.168 -1.428,-0.612 z"
       style="font-family:'Source Sans Pro';-inkscape-font-specification:'Source Sans Pro';stroke:none"
       id="path12238" />
    <path
       d="m 269.47163,25.137959 c 0,1.044 0.732,1.656 1.716,1.656 0.72,0 1.368,-0.384 1.932,-0.84 h 0.024 l 0.084,0.696 h 0.816 v -3.576 c 0,-1.452 -0.6,-2.4 -2.028,-2.4 -0.936,0 -1.752,0.408 -2.292,0.756 l 0.396,0.684 c 0.456,-0.312 1.056,-0.624 1.74,-0.624 0.948,0 1.2,0.72 1.2,1.464 -2.484,0.276 -3.588,0.912 -3.588,2.184 z m 0.972,-0.072 c 0,-0.744 0.66,-1.224 2.616,-1.464 v 1.62 c -0.564,0.504 -1.032,0.78 -1.596,0.78 -0.576,0 -1.02,-0.276 -1.02,-0.936 z"
       style="font-family:'Source Sans Pro';-inkscape-font-specification:'Source Sans Pro';stroke:none"
       id="path12240" />
  </g>
  <path
     sodipodi:nodetypes="ccccccc"
     inkscape:connector-curvature="0"
     d="m 240.5,0.5 v 26.76 l 5.625,5.04 H 296.5 V 5.54 L 290.875,0.5 Z"
     style="fill:#1d232d;fill-opacity:1;stroke:#6f8ce9;stroke-width:1;stroke-linecap:round;stroke-miterlimit:4;stroke-dasharray:none;stroke-opacity:1"
     id="path9484" />
  <g
     aria-label="Odměna"
     id="text9488"
     style="font-size:12px;line-height:1.25;font-family:'Small Fonts';-inkscape-font-specification:'Small Fonts';text-align:center;text-anchor:middle;fill:#e8eaec;stroke:#cf2f25;stroke-linecap:round">
    <path
       d="m 251.06163,19.345996 c 1.968,0 3.36,-1.584 3.36,-4.116 0,-2.508 -1.392,-4.044 -3.36,-4.044 -1.98,0 -3.372,1.524 -3.372,4.044 0,2.532 1.392,4.116 3.372,4.116 z m 0,-0.876 c -1.416,0 -2.34,-1.272 -2.34,-3.24 0,-1.956 0.924,-3.168 2.34,-3.168 1.404,0 2.328,1.212 2.328,3.168 0,1.968 -0.924,3.24 -2.328,3.24 z"
       style="font-family:'Source Sans Pro';-inkscape-font-specification:'Source Sans Pro';stroke:none"
       id="path12243" />
    <path
       d="m 255.57363,16.297996 c 0,1.944 0.948,3.048 2.412,3.048 0.684,0 1.308,-0.384 1.764,-0.828 h 0.036 l 0.084,0.684 h 0.816 v -8.544 h -0.996 v 2.244 l 0.048,0.996 c -0.516,-0.42 -0.96,-0.672 -1.632,-0.672 -1.332,0 -2.532,1.176 -2.532,3.072 z m 1.02,-0.012 c 0,-1.332 0.744,-2.232 1.68,-2.232 0.48,0 0.924,0.168 1.416,0.612 v 3.048 c -0.48,0.54 -0.948,0.804 -1.488,0.804 -1.02,0 -1.608,-0.84 -1.608,-2.232 z"
       style="font-family:'Source Sans Pro';-inkscape-font-specification:'Source Sans Pro';stroke:none"
       id="path12245" />
    <path
       d="m 262.65364,19.201996 h 0.984 v -4.224 c 0.54,-0.6 1.032,-0.9 1.464,-0.9 0.744,0 1.092,0.468 1.092,1.56 v 3.564 h 0.984 v -4.224 c 0.54,-0.6 1.008,-0.9 1.464,-0.9 0.732,0 1.08,0.468 1.08,1.56 v 3.564 h 0.984 v -3.696 c 0,-1.488 -0.576,-2.28 -1.776,-2.28 -0.708,0 -1.308,0.456 -1.92,1.116 -0.24,-0.696 -0.72,-1.116 -1.608,-1.116 -0.696,0 -1.308,0.432 -1.812,0.984 h -0.036 l -0.084,-0.84 h -0.816 z"
       style="font-family:'Source Sans Pro';-inkscape-font-specification:'Source Sans Pro';stroke:none"
       id="path12247" />
    <path
       d="m 272.16964,16.297996 c 0,1.908 1.236,3.048 2.796,3.048 0.792,0 1.416,-0.276 1.92,-0.6 l -0.348,-0.648 c -0.432,0.276 -0.9,0.456 -1.452,0.456 -1.116,0 -1.872,-0.792 -1.944,-2.052 h 3.936 c 0.024,-0.144 0.036,-0.336 0.036,-0.54 0,-1.668 -0.84,-2.736 -2.328,-2.736 -1.332,0 -2.616,1.164 -2.616,3.072 z m 0.96,-0.444 c 0.12,-1.176 0.864,-1.848 1.68,-1.848 0.912,0 1.44,0.66 1.44,1.848 z m 1.26,-3.528 h 0.804 l 1.14,-1.692 h -0.72 l -0.804,1.104 h -0.048 l -0.804,-1.104 h -0.708 z"
       style="font-family:'Source Sans Pro';-inkscape-font-specification:'Source Sans Pro';stroke:none"
       id="path12249" />
    <path
       d="m 278.55364,19.201996 h 0.984 v -4.224 c 0.588,-0.588 0.996,-0.9 1.596,-0.9 0.768,0 1.104,0.468 1.104,1.56 v 3.564 h 0.984 v -3.696 c 0,-1.488 -0.552,-2.28 -1.776,-2.28 -0.804,0 -1.404,0.432 -1.956,0.984 h -0.036 l -0.084,-0.84 h -0.816 z"
       style="font-family:'Source Sans Pro';-inkscape-font-specification:'Source Sans Pro';stroke:none"
       id="path12251" />
    <path
       d="m 284.82966,17.689996 c 0,1.044 0.732,1.656 1.716,1.656 0.72,0 1.368,-0.384 1.932,-0.84 h 0.024 l 0.084,0.696 h 0.816 v -3.576 c 0,-1.452 -0.6,-2.4 -2.028,-2.4 -0.936,0 -1.752,0.408 -2.292,0.756 l 0.396,0.684 c 0.456,-0.312 1.056,-0.624 1.74,-0.624 0.948,0 1.2,0.72 1.2,1.464 -2.484,0.276 -3.588,0.912 -3.588,2.184 z m 0.972,-0.072 c 0,-0.744 0.66,-1.224 2.616,-1.464 v 1.62 c -0.564,0.504 -1.032,0.78 -1.596,0.78 -0.576,0 -1.02,-0.276 -1.02,-0.936 z"
       style="font-family:'Source Sans Pro';-inkscape-font-specification:'Source Sans Pro';stroke:none"
       id="path12253" />
  </g>
  <g
     aria-label="Larry 
Koopa"
     id="text9494"
     style="font-size:12px;line-height:1.25;font-family:'Small Fonts';-inkscape-font-specification:'Small Fonts';text-align:center;text-anchor:middle;fill:#e8eaec;stroke:#cf2f25;stroke-linecap:round">
    <path
       d="m 325.48364,11.201995 h 4.44 v -0.852 h -3.432 V 3.3299949 h -1.008 z"
       style="font-family:'Source Sans Pro';-inkscape-font-specification:'Source Sans Pro';stroke:none"
       id="path12256" />
    <path
       d="m 330.90765,9.6899949 c 0,1.0440001 0.732,1.6560001 1.716,1.6560001 0.72,0 1.368,-0.384 1.932,-0.84 h 0.024 l 0.084,0.696 h 0.816 V 7.6259949 c 0,-1.452 -0.6,-2.4 -2.028,-2.4 -0.936,0 -1.752,0.408 -2.292,0.756 l 0.396,0.684 c 0.456,-0.312 1.056,-0.624 1.74,-0.624 0.948,0 1.2,0.72 1.2,1.464 -2.484,0.276 -3.588,0.912 -3.588,2.184 z m 0.972,-0.072 c 0,-0.744 0.66,-1.224 2.616,-1.464 v 1.62 c -0.564,0.5040001 -1.032,0.7800001 -1.596,0.7800001 -0.576,0 -1.02,-0.276 -1.02,-0.9360001 z"
       style="font-family:'Source Sans Pro';-inkscape-font-specification:'Source Sans Pro';stroke:none"
       id="path12258" />
    <path
       d="m 337.33964,11.201995 h 0.984 V 7.4579949 c 0.396,-0.984 0.984,-1.344 1.476,-1.344 0.24,0 0.372,0.036 0.564,0.096 l 0.192,-0.864 c -0.192,-0.084 -0.372,-0.12 -0.624,-0.12 -0.66,0 -1.26,0.468 -1.656,1.2 h -0.036 l -0.084,-1.056 h -0.816 z"
       style="font-family:'Source Sans Pro';-inkscape-font-specification:'Source Sans Pro';stroke:none"
       id="path12260" />
    <path
       d="m 341.50364,11.201995 h 0.984 V 7.4579949 c 0.396,-0.984 0.984,-1.344 1.476,-1.344 0.24,0 0.372,0.036 0.564,0.096 l 0.192,-0.864 c -0.192,-0.084 -0.372,-0.12 -0.624,-0.12 -0.66,0 -1.26,0.468 -1.656,1.2 h -0.036 l -0.084,-1.056 h -0.816 z"
       style="font-family:'Source Sans Pro';-inkscape-font-specification:'Source Sans Pro';stroke:none"
       id="path12262" />
    <path
       d="m 345.49963,12.809995 -0.192,0.78 c 0.192,0.072 0.42,0.12 0.684,0.12 1.176,0 1.776,-0.876 2.184,-2.028 l 2.196,-6.3120001 h -0.96 l -1.044,3.228 c -0.156,0.516 -0.324,1.116 -0.492,1.6440001 h -0.048 c -0.18,-0.5400001 -0.384,-1.1400001 -0.564,-1.6440001 l -1.188,-3.228 h -1.02 l 2.34,5.8440001 -0.132,0.432 c -0.24,0.72 -0.66,1.248 -1.32,1.248 -0.144,0 -0.324,-0.048 -0.444,-0.084 z"
       style="font-family:'Source Sans Pro';-inkscape-font-specification:'Source Sans Pro';stroke:none"
       id="path12264" />
    <path
       d="m 323.50365,26.649959 h 1.008 v -2.496 l 1.344,-1.596 2.352,4.092 h 1.116 l -2.844,-4.872 2.472,-3 h -1.14 l -3.276,3.948 h -0.024 v -3.948 h -1.008 z"
       style="font-family:'Source Sans Pro';-inkscape-font-specification:'Source Sans Pro';stroke:none"
       id="path12266" />
    <path
       d="m 329.82763,23.745959 c 0,1.932 1.272,3.048 2.7,3.048 1.428,0 2.7,-1.116 2.7,-3.048 0,-1.956 -1.272,-3.072 -2.7,-3.072 -1.428,0 -2.7,1.116 -2.7,3.072 z m 1.02,0 c 0,-1.344 0.684,-2.256 1.68,-2.256 1.008,0 1.68,0.912 1.68,2.256 0,1.332 -0.672,2.232 -1.68,2.232 -0.996,0 -1.68,-0.9 -1.68,-2.232 z"
       style="font-family:'Source Sans Pro';-inkscape-font-specification:'Source Sans Pro';stroke:none"
       id="path12268" />
    <path
       d="m 336.33163,23.745959 c 0,1.932 1.272,3.048 2.7,3.048 1.428,0 2.7,-1.116 2.7,-3.048 0,-1.956 -1.272,-3.072 -2.7,-3.072 -1.428,0 -2.7,1.116 -2.7,3.072 z m 1.02,0 c 0,-1.344 0.684,-2.256 1.68,-2.256 1.008,0 1.68,0.912 1.68,2.256 0,1.332 -0.672,2.232 -1.68,2.232 -0.996,0 -1.68,-0.9 -1.68,-2.232 z"
       style="font-family:'Source Sans Pro';-inkscape-font-specification:'Source Sans Pro';stroke:none"
       id="path12270" />
    <path
       d="m 344.22763,26.121959 c 0.54,0.42 1.08,0.672 1.62,0.672 1.332,0 2.52,-1.164 2.52,-3.144 0,-1.812 -0.804,-2.976 -2.304,-2.976 -0.684,0 -1.332,0.372 -1.86,0.816 h -0.036 l -0.084,-0.672 h -0.816 v 8.292 h 0.984 v -1.968 z m 0.024,-0.768 v -3.06 c 0.576,-0.516 1.068,-0.792 1.56,-0.792 1.104,0 1.536,0.864 1.536,2.148 0,1.44 -0.708,2.316 -1.668,2.316 -0.384,0 -0.9,-0.168 -1.428,-0.612 z"
       style="font-family:'Source Sans Pro';-inkscape-font-specification:'Source Sans Pro';stroke:none"
       id="path12272" />
    <path
       d="m 349.47163,25.137959 c 0,1.044 0.732,1.656 1.716,1.656 0.72,0 1.368,-0.384 1.932,-0.84 h 0.024 l 0.084,0.696 h 0.816 v -3.576 c 0,-1.452 -0.6,-2.4 -2.028,-2.4 -0.936,0 -1.752,0.408 -2.292,0.756 l 0.396,0.684 c 0.456,-0.312 1.056,-0.624 1.74,-0.624 0.948,0 1.2,0.72 1.2,1.464 -2.484,0.276 -3.588,0.912 -3.588,2.184 z m 0.972,-0.072 c 0,-0.744 0.66,-1.224 2.616,-1.464 v 1.62 c -0.564,0.504 -1.032,0.78 -1.596,0.78 -0.576,0 -1.02,-0.276 -1.02,-0.936 z"
       style="font-family:'Source Sans Pro';-inkscape-font-specification:'Source Sans Pro';stroke:none"
       id="path12274" />
  </g>
  <path
     sodipodi:nodetypes="ccccccc"
     inkscape:connector-curvature="0"
     d="m 320.5,0.5 v 26.76 l 5.625,5.04 H 376.5 V 5.54 L 370.875,0.5 Z"
     style="fill:#1d232d;fill-opacity:1;stroke:#6f8ce9;stroke-width:1;stroke-linecap:round;stroke-miterlimit:4;stroke-dasharray:none;stroke-opacity:1"
     id="path9496" />
  <g
     aria-label="Feedback"
     id="text9500"
     style="font-size:12px;line-height:1.25;font-family:'Small Fonts';-inkscape-font-specification:'Small Fonts';text-align:center;text-anchor:middle;fill:#e8eaec;stroke:#cf2f25;stroke-linecap:round">
    <path
       d="m 325.57763,19.201996 h 1.008 v -3.528 h 3 v -0.84 h -3 v -2.664 h 3.54 v -0.84 h -4.548 z"
       style="font-family:'Source Sans Pro';-inkscape-font-specification:'Source Sans Pro';stroke:none"
       id="path12277" />
    <path
       d="m 330.78563,16.297996 c 0,1.908 1.236,3.048 2.796,3.048 0.792,0 1.416,-0.276 1.92,-0.6 l -0.348,-0.648 c -0.432,0.276 -0.9,0.456 -1.452,0.456 -1.116,0 -1.872,-0.792 -1.944,-2.052 h 3.936 c 0.024,-0.144 0.036,-0.336 0.036,-0.54 0,-1.668 -0.84,-2.736 -2.328,-2.736 -1.332,0 -2.616,1.164 -2.616,3.072 z m 0.96,-0.444 c 0.12,-1.176 0.864,-1.848 1.68,-1.848 0.912,0 1.44,0.66 1.44,1.848 z"
       style="font-family:'Source Sans Pro';-inkscape-font-specification:'Source Sans Pro';stroke:none"
       id="path12279" />
    <path
       d="m 336.73764,16.297996 c 0,1.908 1.236,3.048 2.796,3.048 0.792,0 1.416,-0.276 1.92,-0.6 l -0.348,-0.648 c -0.432,0.276 -0.9,0.456 -1.452,0.456 -1.116,0 -1.872,-0.792 -1.944,-2.052 h 3.936 c 0.024,-0.144 0.036,-0.336 0.036,-0.54 0,-1.668 -0.84,-2.736 -2.328,-2.736 -1.332,0 -2.616,1.164 -2.616,3.072 z m 0.96,-0.444 c 0.12,-1.176 0.864,-1.848 1.68,-1.848 0.912,0 1.44,0.66 1.44,1.848 z"
       style="font-family:'Source Sans Pro';-inkscape-font-specification:'Source Sans Pro';stroke:none"
       id="path12281" />
    <path
       d="m 342.70164,16.297996 c 0,1.944 0.948,3.048 2.412,3.048 0.684,0 1.308,-0.384 1.764,-0.828 h 0.036 l 0.084,0.684 h 0.816 v -8.544 h -0.996 v 2.244 l 0.048,0.996 c -0.516,-0.42 -0.96,-0.672 -1.632,-0.672 -1.332,0 -2.532,1.176 -2.532,3.072 z m 1.02,-0.012 c 0,-1.332 0.744,-2.232 1.68,-2.232 0.48,0 0.924,0.168 1.416,0.612 v 3.048 c -0.48,0.54 -0.948,0.804 -1.488,0.804 -1.02,0 -1.608,-0.84 -1.608,-2.232 z"
       style="font-family:'Source Sans Pro';-inkscape-font-specification:'Source Sans Pro';stroke:none"
       id="path12283" />
    <path
       d="m 349.78165,19.201996 h 0.792 l 0.084,-0.576 h 0.036 c 0.516,0.456 1.128,0.72 1.668,0.72 1.332,0 2.52,-1.164 2.52,-3.156 0,-1.8 -0.804,-2.964 -2.316,-2.964 -0.648,0 -1.296,0.348 -1.824,0.816 l 0.024,-1.056 v -2.328 h -0.984 z m 0.984,-1.296 v -3.06 c 0.552,-0.516 1.068,-0.792 1.56,-0.792 1.104,0 1.536,0.864 1.536,2.148 0,1.44 -0.708,2.316 -1.668,2.316 -0.384,0 -0.912,-0.168 -1.428,-0.612 z"
       style="font-family:'Source Sans Pro';-inkscape-font-specification:'Source Sans Pro';stroke:none"
       id="path12285" />
    <path
       d="m 355.98565,17.689996 c 0,1.044 0.732,1.656 1.716,1.656 0.72,0 1.368,-0.384 1.932,-0.84 h 0.024 l 0.084,0.696 h 0.816 v -3.576 c 0,-1.452 -0.6,-2.4 -2.028,-2.4 -0.936,0 -1.752,0.408 -2.292,0.756 l 0.396,0.684 c 0.456,-0.312 1.056,-0.624 1.74,-0.624 0.948,0 1.2,0.72 1.2,1.464 -2.484,0.276 -3.588,0.912 -3.588,2.184 z m 0.972,-0.072 c 0,-0.744 0.66,-1.224 2.616,-1.464 v 1.62 c -0.564,0.504 -1.032,0.78 -1.596,0.78 -0.576,0 -1.02,-0.276 -1.02,-0.936 z"
       style="font-family:'Source Sans Pro';-inkscape-font-specification:'Source Sans Pro';stroke:none"
       id="path12287" />
    <path
       d="m 361.98564,16.297996 c 0,1.932 1.188,3.048 2.736,3.048 0.696,0 1.368,-0.288 1.896,-0.756 l -0.444,-0.648 c -0.348,0.312 -0.816,0.588 -1.368,0.588 -1.068,0 -1.8,-0.9 -1.8,-2.232 0,-1.344 0.768,-2.256 1.824,-2.256 0.468,0 0.828,0.216 1.176,0.516 l 0.492,-0.636 c -0.396,-0.372 -0.936,-0.696 -1.704,-0.696 -1.5,0 -2.808,1.116 -2.808,3.072 z"
       style="font-family:'Source Sans Pro';-inkscape-font-specification:'Source Sans Pro';stroke:none"
       id="path12289" />
    <path
       d="m 367.88963,19.201996 h 0.972 v -1.536 l 1.092,-1.272 1.704,2.808 h 1.08 l -2.22,-3.492 1.956,-2.34 h -1.092 l -2.484,3.072 h -0.036 v -5.784 h -0.972 z"
       style="font-family:'Source Sans Pro';-inkscape-font-specification:'Source Sans Pro';stroke:none"
       id="path12291" />
  </g>
  <path
     sodipodi:nodetypes="ccccc"
     inkscape:connector-curvature="0"
     d="M 55.9052,15.26677 H 76.08 v 2.92461 H 55.9052 Z"
     style="fill:#6f8ce9;fill-opacity:1;stroke:none;stroke-width:0.999998;stroke-miterlimit:4;stroke-dasharray:0.999998, 2;stroke-dashoffset:0;stroke-opacity:1"
     id="path9504" />
  <g
     id="g9510"
     transform="matrix(0.01983966,0,0,0.02017943,69.3855,10.98798)"
     style="fill:#6f8ce9;fill-opacity:1;stroke-width:49.9778">
    <g
       id="g9508"
       style="fill:#6f8ce9;fill-opacity:1;stroke-width:49.9778">
      <path
         id="path9506"
         d="M 486.413,221.412 122.347,12.916 C 69.409,-17.402 26.495,7.476 26.495,68.479 v 415.652 c 0,61.004 42.914,85.882 95.852,55.563 l 364.066,-208.49 c 52.938,-30.317 52.938,-79.473 0,-109.792 z"
         inkscape:connector-curvature="0"
         style="fill:#6f8ce9;fill-opacity:1;stroke-width:49.9778" />
    </g>
  </g>
  <path
     sodipodi:nodetypes="ccccc"
     inkscape:connector-curvature="0"
     d="M 135.9052,15.26677 H 156.08 v 2.92461 h -20.1748 z"
     style="fill:#6f8ce9;fill-opacity:1;stroke:none;stroke-width:0.999998;stroke-miterlimit:4;stroke-dasharray:0.999998, 2;stroke-dashoffset:0;stroke-opacity:1"
     id="path9512" />
  <g
     id="g9518"
     transform="matrix(0.01983966,0,0,0.02017943,149.3855,10.98798)"
     style="fill:#6f8ce9;fill-opacity:1;stroke-width:49.9778">
    <g
       id="g9516"
       style="fill:#6f8ce9;fill-opacity:1;stroke-width:49.9778">
      <path
         id="path9514"
         d="M 486.413,221.412 122.347,12.916 C 69.409,-17.402 26.495,7.476 26.495,68.479 v 415.652 c 0,61.004 42.914,85.882 95.852,55.563 l 364.066,-208.49 c 52.938,-30.317 52.938,-79.473 0,-109.792 z"
         inkscape:connector-curvature="0"
         style="fill:#6f8ce9;fill-opacity:1;stroke-width:49.9778" />
    </g>
  </g>
  <path
     sodipodi:nodetypes="ccccc"
     inkscape:connector-curvature="0"
     d="M 215.9052,15.26677 H 236.08 v 2.92461 h -20.1748 z"
     style="fill:#6f8ce9;fill-opacity:1;stroke:none;stroke-width:0.999998;stroke-miterlimit:4;stroke-dasharray:0.999998, 2;stroke-dashoffset:0;stroke-opacity:1"
     id="path9520" />
  <g
     id="g9526"
     transform="matrix(0.01983966,0,0,0.02017943,229.3855,10.98798)"
     style="fill:#6f8ce9;fill-opacity:1;stroke-width:49.9778">
    <g
       id="g9524"
       style="fill:#6f8ce9;fill-opacity:1;stroke-width:49.9778">
      <path
         id="path9522"
         d="M 486.413,221.412 122.347,12.916 C 69.409,-17.402 26.495,7.476 26.495,68.479 v 415.652 c 0,61.004 42.914,85.882 95.852,55.563 l 364.066,-208.49 c 52.938,-30.317 52.938,-79.473 0,-109.792 z"
         inkscape:connector-curvature="0"
         style="fill:#6f8ce9;fill-opacity:1;stroke-width:49.9778" />
    </g>
  </g>
  <path
     sodipodi:nodetypes="ccccc"
     inkscape:connector-curvature="0"
     d="M 295.9052,15.26677 H 316.08 v 2.92461 h -20.1748 z"
     style="fill:#6f8ce9;fill-opacity:1;stroke:none;stroke-width:0.999998;stroke-miterlimit:4;stroke-dasharray:0.999998, 2;stroke-dashoffset:0;stroke-opacity:1"
     id="path9528" />
  <g
     id="g9534"
     transform="matrix(0.01983966,0,0,0.02017943,309.3855,10.98798)"
     style="fill:#6f8ce9;fill-opacity:1;stroke-width:49.9778">
    <g
       id="g9532"
       style="fill:#6f8ce9;fill-opacity:1;stroke-width:49.9778">
      <path
         id="path9530"
         d="M 486.413,221.412 122.347,12.916 C 69.409,-17.402 26.495,7.476 26.495,68.479 v 415.652 c 0,61.004 42.914,85.882 95.852,55.563 l 364.066,-208.49 c 52.938,-30.317 52.938,-79.473 0,-109.792 z"
         inkscape:connector-curvature="0"
         style="fill:#6f8ce9;fill-opacity:1;stroke-width:49.9778" />
    </g>
  </g>
  <path
     style="fill:none;fill-opacity:0.498607;stroke:#6f8ce9;stroke-width:3;stroke-dasharray:none;stroke-opacity:1"
     d="M 351.3125,32.3 V 74.03419 H 27.5044 V 36.3"
     id="path10343"
     sodipodi:nodetypes="cccc" />
  <g
     id="g10556"
     transform="matrix(0,-0.01983966,0.02017943,0,21.8156,43.09388)"
     style="fill:#6f8ce9;fill-opacity:1;stroke-width:49.9778">
    <g
       id="g10554"
       style="fill:#6f8ce9;fill-opacity:1;stroke-width:49.9778">
      <path
         id="path10552"
         d="M 486.413,221.412 122.347,12.916 C 69.409,-17.402 26.495,7.476 26.495,68.479 v 415.652 c 0,61.004 42.914,85.882 95.852,55.563 l 364.066,-208.49 c 52.938,-30.317 52.938,-79.473 0,-109.792 z"
         inkscape:connector-curvature="0"
         style="fill:#6f8ce9;fill-opacity:1;stroke-width:49.9778" />
    </g>
  </g>
</svg>
