<?xml version="1.0" encoding="UTF-8" standalone="no"?>
<svg
   width="204.3876"
   height="274.18561"
   version="1.1"
   viewBox="0 0 204.38761 274.18561"
   id="svg7629"
   sodipodi:docname="flow_mario.svg"
   inkscape:version="1.2.2 (732a01da63, 2022-12-09)"
   xmlns:inkscape="http://www.inkscape.org/namespaces/inkscape"
   xmlns:sodipodi="http://sodipodi.sourceforge.net/DTD/sodipodi-0.dtd"
   xmlns="http://www.w3.org/2000/svg"
   xmlns:svg="http://www.w3.org/2000/svg"
   xmlns:rdf="http://www.w3.org/1999/02/22-rdf-syntax-ns#"
   xmlns:cc="http://creativecommons.org/ns#"
   xmlns:dc="http://purl.org/dc/elements/1.1/">
  <defs
     id="defs7633" />
  <sodipodi:namedview
     id="namedview7631"
     pagecolor="#ffffff"
     bordercolor="#000000"
     borderopacity="0.25"
     inkscape:showpageshadow="2"
     inkscape:pageopacity="0.0"
     inkscape:pagecheckerboard="0"
     inkscape:deskcolor="#d1d1d1"
     showgrid="false"
     inkscape:zoom="2.127323"
     inkscape:cx="27.49935"
     inkscape:cy="178.15818"
     inkscape:window-width="1920"
     inkscape:window-height="1017"
     inkscape:window-x="-8"
     inkscape:window-y="-8"
     inkscape:window-maximized="1"
     inkscape:current-layer="svg7629" />
  <metadata
     id="metadata6715">
    <rdf:RDF>
      <cc:Work
         rdf:about="">
        <dc:format>image/svg+xml</dc:format>
        <dc:type
           rdf:resource="http://purl.org/dc/dcmitype/StillImage" />
      </cc:Work>
    </rdf:RDF>
  </metadata>
  <path
     style="fill:#d2d6dc;fill-opacity:1;stroke:#d2d6dc;stroke-width:2;stroke-linecap:round;stroke-miterlimit:40;stroke-dasharray:none;stroke-dashoffset:1.2;stroke-opacity:1"
     d="m 11.5,104.18562 v 169"
     id="path5161"
     inkscape:connector-curvature="0"
     sodipodi:nodetypes="cc" />
  <path
     sodipodi:nodetypes="cc"
     inkscape:connector-curvature="0"
     id="path5163"
     d="M 1,263.68562 H 171"
     style="fill:#d2d6dc;fill-opacity:1;stroke:#d2d6dc;stroke-width:2;stroke-linecap:round;stroke-miterlimit:40;stroke-dasharray:none;stroke-dashoffset:1.2;stroke-opacity:1" />
  <path
     sodipodi:nodetypes="csssssssssssssssc"
     inkscape:connector-curvature="0"
     id="path5165"
     d="m 12.5098,262.67595 c 0,0 2.337,-24.05722 9.9056,-25.66483 4.1416,-0.87981 4.7788,11.91636 8.9151,10.99915 8.5797,-1.90227 2.3598,-27.15132 10.8962,-29.33137 4.3501,-1.11081 5.572,12.20405 9.9057,10.99926 8.375,-2.32793 1.5305,-27.00331 9.9056,-29.33137 4.3335,-1.20442 5.5721,12.20393 9.9056,10.99939 8.3751,-2.32794 1.5306,-27.00344 9.9057,-29.33137 4.3335,-1.20455 5.5719,12.2038 9.9056,10.99926 8.375,-2.32793 1.5306,-27.00344 9.9056,-29.33137 4.3337,-1.20466 5.5721,12.20381 9.9057,10.99914 8.375,-2.32781 1.5307,-27.00344 9.9056,-29.33137 4.3337,-1.20454 5.5721,12.20393 9.9056,10.99927 8.3751,-2.32794 1.5306,-27.00332 9.9057,-29.33137 4.3337,-1.20455 5.5721,12.20392 9.9056,10.99938 8.3751,-2.32793 1.5307,-27.00343 9.9056,-29.33137 4.3337,-1.20454 5.5721,12.20381 9.9058,10.99927"
     style="font-style:normal;font-variant:normal;font-weight:500;font-stretch:normal;font-size:medium;line-height:0%;font-family:Inconsolata;-inkscape-font-specification:'Inconsolata Medium';letter-spacing:0px;word-spacing:0px;fill:none;fill-opacity:0.0700935;stroke:#e9e56f;stroke-width:1;stroke-linecap:square;stroke-linejoin:miter;stroke-miterlimit:40;stroke-dasharray:none;stroke-dashoffset:1.2;stroke-opacity:1" />
  <g
     id="g5171"
     transform="matrix(0,-0.01200909,-0.01221476,0,14.8845,104.20692)"
     style="fill:#d2d6dc;fill-opacity:1;stroke-width:82.566"
     inkscape:export-xdpi="96"
     inkscape:export-ydpi="96">
    <g
       id="g5169"
       style="fill:#d2d6dc;fill-opacity:1;stroke-width:82.566">
      <path
         id="path5167"
         d="M 486.413,221.412 122.347,12.916 C 69.409,-17.402 26.495,7.476 26.495,68.479 v 415.652 c 0,61.004 42.914,85.882 95.852,55.563 l 364.066,-208.49 c 52.938,-30.317 52.938,-79.473 0,-109.792 z"
         inkscape:connector-curvature="0"
         style="fill:#d2d6dc;fill-opacity:1;stroke-width:82.566" />
    </g>
  </g>
  <g
     inkscape:export-ydpi="96"
     inkscape:export-xdpi="96"
     style="fill:#d2d6dc;fill-opacity:1;stroke-width:82.566"
     transform="matrix(0.01200909,0,0,-0.01221476,170.9285,266.95812)"
     id="g5177">
    <g
       style="fill:#d2d6dc;fill-opacity:1;stroke-width:82.566"
       id="g5175">
      <path
         style="fill:#d2d6dc;fill-opacity:1;stroke-width:82.566"
         inkscape:connector-curvature="0"
         d="M 486.413,221.412 122.347,12.916 C 69.409,-17.402 26.495,7.476 26.495,68.479 v 415.652 c 0,61.004 42.914,85.882 95.852,55.563 l 364.066,-208.49 c 52.938,-30.317 52.938,-79.473 0,-109.792 z"
         id="path5173" />
    </g>
  </g>
  <path
     style="fill:#d2d6dc;fill-opacity:1;stroke:#6f8ce9;stroke-width:1;stroke-linecap:round;stroke-miterlimit:4;stroke-dasharray:none;stroke-dashoffset:1.2;stroke-opacity:1"
     d="m 11.5097,243.67592 140,-140"
     id="path5179"
     inkscape:connector-curvature="0" />
  <path
     style="fill:#d2d6dc;fill-opacity:1;stroke:#6f8ce9;stroke-width:1;stroke-linecap:round;stroke-miterlimit:4;stroke-dasharray:none;stroke-dashoffset:1.2;stroke-opacity:1"
     d="m 31.5097,263.67592 140,-140"
     id="path5181"
     inkscape:connector-curvature="0" />
  <path
     inkscape:connector-curvature="0"
     id="path5262"
     d="M 21.8876,238.5 V 23.5"
     style="fill:none;fill-opacity:1;stroke:#6f8ce9;stroke-width:1;stroke-miterlimit:4;stroke-dasharray:1, 2;stroke-dashoffset:0;stroke-opacity:1"
     sodipodi:nodetypes="cc" />
  <g
     aria-label="Larry 
Koopa"
     id="text5272"
     style="font-size:12px;line-height:1.25;font-family:'Small Fonts';-inkscape-font-specification:'Small Fonts';text-align:center;text-anchor:middle;fill:#e8eaec;stroke:#cf2f25;stroke-linecap:round">
    <path
       d="m 26.871202,11.202004 h 4.44 v -0.852 h -3.432 V 3.3300044 h -1.008 z"
       style="font-family:'Source Sans Pro';-inkscape-font-specification:'Source Sans Pro';stroke:none"
       id="path9113" />
    <path
       d="m 32.295213,9.6900044 c 0,1.0439996 0.732,1.6559996 1.716,1.6559996 0.72,0 1.368,-0.384 1.932,-0.84 h 0.024 l 0.084,0.696 h 0.816 V 7.6260044 c 0,-1.452 -0.6,-2.4 -2.028,-2.4 -0.936,0 -1.752,0.408 -2.292,0.756 l 0.396,0.684 c 0.456,-0.312 1.056,-0.624 1.74,-0.624 0.948,0 1.2,0.72 1.2,1.464 -2.484,0.276 -3.588,0.912 -3.588,2.184 z m 0.972,-0.072 c 0,-0.744 0.66,-1.224 2.616,-1.464 v 1.62 c -0.564,0.5039996 -1.032,0.7799996 -1.596,0.7799996 -0.576,0 -1.02,-0.276 -1.02,-0.9359996 z"
       style="font-family:'Source Sans Pro';-inkscape-font-specification:'Source Sans Pro';stroke:none"
       id="path9115" />
    <path
       d="m 38.727202,11.202004 h 0.984 V 7.4580044 c 0.396,-0.984 0.984,-1.344 1.476,-1.344 0.24,0 0.372,0.036 0.564,0.096 l 0.192,-0.864 c -0.192,-0.084 -0.372,-0.12 -0.624,-0.12 -0.66,0 -1.26,0.468 -1.656,1.2 h -0.036 l -0.084,-1.056 h -0.816 z"
       style="font-family:'Source Sans Pro';-inkscape-font-specification:'Source Sans Pro';stroke:none"
       id="path9117" />
    <path
       d="m 42.891204,11.202004 h 0.984 V 7.4580044 c 0.396,-0.984 0.984,-1.344 1.476,-1.344 0.24,0 0.372,0.036 0.564,0.096 l 0.192,-0.864 c -0.192,-0.084 -0.372,-0.12 -0.624,-0.12 -0.66,0 -1.26,0.468 -1.656,1.2 h -0.036 l -0.084,-1.056 h -0.816 z"
       style="font-family:'Source Sans Pro';-inkscape-font-specification:'Source Sans Pro';stroke:none"
       id="path9119" />
    <path
       d="m 46.887194,12.810004 -0.192,0.78 c 0.192,0.072 0.42,0.12 0.684,0.12 1.176,0 1.776,-0.876 2.184,-2.028 l 2.196,-6.3119996 h -0.96 l -1.044,3.228 c -0.156,0.516 -0.324,1.116 -0.492,1.6439996 h -0.048 c -0.18,-0.5399996 -0.384,-1.1399996 -0.564,-1.6439996 l -1.188,-3.228 h -1.02 l 2.34,5.8439996 -0.132,0.432 c -0.24,0.72 -0.66,1.248 -1.32,1.248 -0.144,0 -0.324,-0.048 -0.444,-0.084 z"
       style="font-family:'Source Sans Pro';-inkscape-font-specification:'Source Sans Pro';stroke:none"
       id="path9121" />
    <path
       d="m 24.891214,26.649968 h 1.008 v -2.496 l 1.344,-1.596 2.352,4.092 h 1.116 l -2.844,-4.872 2.472,-3 h -1.14 l -3.276,3.948 h -0.024 v -3.948 h -1.008 z"
       style="font-family:'Source Sans Pro';-inkscape-font-specification:'Source Sans Pro';stroke:none"
       id="path9123" />
    <path
       d="m 31.2152,23.745968 c 0,1.932 1.272,3.048 2.7,3.048 1.428,0 2.7,-1.116 2.7,-3.048 0,-1.956 -1.272,-3.072 -2.7,-3.072 -1.428,0 -2.7,1.116 -2.7,3.072 z m 1.02,0 c 0,-1.344 0.684,-2.256 1.68,-2.256 1.008,0 1.68,0.912 1.68,2.256 0,1.332 -0.672,2.232 -1.68,2.232 -0.996,0 -1.68,-0.9 -1.68,-2.232 z"
       style="font-family:'Source Sans Pro';-inkscape-font-specification:'Source Sans Pro';stroke:none"
       id="path9125" />
    <path
       d="m 37.719198,23.745968 c 0,1.932 1.272,3.048 2.7,3.048 1.428,0 2.7,-1.116 2.7,-3.048 0,-1.956 -1.272,-3.072 -2.7,-3.072 -1.428,0 -2.7,1.116 -2.7,3.072 z m 1.02,0 c 0,-1.344 0.684,-2.256 1.68,-2.256 1.008,0 1.68,0.912 1.68,2.256 0,1.332 -0.672,2.232 -1.68,2.232 -0.996,0 -1.68,-0.9 -1.68,-2.232 z"
       style="font-family:'Source Sans Pro';-inkscape-font-specification:'Source Sans Pro';stroke:none"
       id="path9127" />
    <path
       d="m 45.615196,26.121968 c 0.54,0.42 1.08,0.672 1.62,0.672 1.332,0 2.52,-1.164 2.52,-3.144 0,-1.812 -0.804,-2.976 -2.304,-2.976 -0.684,0 -1.332,0.372 -1.86,0.816 h -0.036 l -0.084,-0.672 h -0.816 v 8.292 h 0.984 v -1.968 z m 0.024,-0.768 v -3.06 c 0.576,-0.516 1.068,-0.792 1.56,-0.792 1.104,0 1.536,0.864 1.536,2.148 0,1.44 -0.708,2.316 -1.668,2.316 -0.384,0 -0.9,-0.168 -1.428,-0.612 z"
       style="font-family:'Source Sans Pro';-inkscape-font-specification:'Source Sans Pro';stroke:none"
       id="path9129" />
    <path
       d="m 50.8592,25.137968 c 0,1.044 0.732,1.656 1.716,1.656 0.72,0 1.368,-0.384 1.932,-0.84 h 0.024 l 0.084,0.696 h 0.816 v -3.576 c 0,-1.452 -0.6,-2.4 -2.028,-2.4 -0.936,0 -1.752,0.408 -2.292,0.756 l 0.396,0.684 c 0.456,-0.312 1.056,-0.624 1.74,-0.624 0.948,0 1.2,0.72 1.2,1.464 -2.484,0.276 -3.588,0.912 -3.588,2.184 z m 0.972,-0.072 c 0,-0.744 0.66,-1.224 2.616,-1.464 v 1.62 c -0.564,0.504 -1.032,0.78 -1.596,0.78 -0.576,0 -1.02,-0.276 -1.02,-0.936 z"
       style="font-family:'Source Sans Pro';-inkscape-font-specification:'Source Sans Pro';stroke:none"
       id="path9131" />
  </g>
  <path
     sodipodi:nodetypes="ccccccc"
     inkscape:connector-curvature="0"
     d="m 21.8876,0.5 v 26.76 l 5.625,5.04 h 30.375 V 5.54 L 52.2626,0.5 Z"
     style="fill:#1d232d;fill-opacity:1;stroke:#6f8ce9;stroke-width:1;stroke-linecap:round;stroke-miterlimit:4;stroke-dasharray:none;stroke-opacity:1"
     id="path5281" />
  <g
     aria-label="Larry 
Koopa"
     id="text5287"
     style="font-size:12px;line-height:1.25;font-family:'Small Fonts';-inkscape-font-specification:'Small Fonts';text-align:center;text-anchor:middle;fill:#e8eaec;stroke:#cf2f25;stroke-linecap:round">
    <path
       d="m 26.871202,11.202004 h 4.44 v -0.852 h -3.432 V 3.3300044 h -1.008 z"
       style="font-family:'Source Sans Pro';-inkscape-font-specification:'Source Sans Pro';stroke:none"
       id="path9134" />
    <path
       d="m 32.295213,9.6900044 c 0,1.0439996 0.732,1.6559996 1.716,1.6559996 0.72,0 1.368,-0.384 1.932,-0.84 h 0.024 l 0.084,0.696 h 0.816 V 7.6260044 c 0,-1.452 -0.6,-2.4 -2.028,-2.4 -0.936,0 -1.752,0.408 -2.292,0.756 l 0.396,0.684 c 0.456,-0.312 1.056,-0.624 1.74,-0.624 0.948,0 1.2,0.72 1.2,1.464 -2.484,0.276 -3.588,0.912 -3.588,2.184 z m 0.972,-0.072 c 0,-0.744 0.66,-1.224 2.616,-1.464 v 1.62 c -0.564,0.5039996 -1.032,0.7799996 -1.596,0.7799996 -0.576,0 -1.02,-0.276 -1.02,-0.9359996 z"
       style="font-family:'Source Sans Pro';-inkscape-font-specification:'Source Sans Pro';stroke:none"
       id="path9136" />
    <path
       d="m 38.727202,11.202004 h 0.984 V 7.4580044 c 0.396,-0.984 0.984,-1.344 1.476,-1.344 0.24,0 0.372,0.036 0.564,0.096 l 0.192,-0.864 c -0.192,-0.084 -0.372,-0.12 -0.624,-0.12 -0.66,0 -1.26,0.468 -1.656,1.2 h -0.036 l -0.084,-1.056 h -0.816 z"
       style="font-family:'Source Sans Pro';-inkscape-font-specification:'Source Sans Pro';stroke:none"
       id="path9138" />
    <path
       d="m 42.891204,11.202004 h 0.984 V 7.4580044 c 0.396,-0.984 0.984,-1.344 1.476,-1.344 0.24,0 0.372,0.036 0.564,0.096 l 0.192,-0.864 c -0.192,-0.084 -0.372,-0.12 -0.624,-0.12 -0.66,0 -1.26,0.468 -1.656,1.2 h -0.036 l -0.084,-1.056 h -0.816 z"
       style="font-family:'Source Sans Pro';-inkscape-font-specification:'Source Sans Pro';stroke:none"
       id="path9140" />
    <path
       d="m 46.887194,12.810004 -0.192,0.78 c 0.192,0.072 0.42,0.12 0.684,0.12 1.176,0 1.776,-0.876 2.184,-2.028 l 2.196,-6.3119996 h -0.96 l -1.044,3.228 c -0.156,0.516 -0.324,1.116 -0.492,1.6439996 h -0.048 c -0.18,-0.5399996 -0.384,-1.1399996 -0.564,-1.6439996 l -1.188,-3.228 h -1.02 l 2.34,5.8439996 -0.132,0.432 c -0.24,0.72 -0.66,1.248 -1.32,1.248 -0.144,0 -0.324,-0.048 -0.444,-0.084 z"
       style="font-family:'Source Sans Pro';-inkscape-font-specification:'Source Sans Pro';stroke:none"
       id="path9142" />
    <path
       d="m 24.891214,26.649968 h 1.008 v -2.496 l 1.344,-1.596 2.352,4.092 h 1.116 l -2.844,-4.872 2.472,-3 h -1.14 l -3.276,3.948 h -0.024 v -3.948 h -1.008 z"
       style="font-family:'Source Sans Pro';-inkscape-font-specification:'Source Sans Pro';stroke:none"
       id="path9144" />
    <path
       d="m 31.2152,23.745968 c 0,1.932 1.272,3.048 2.7,3.048 1.428,0 2.7,-1.116 2.7,-3.048 0,-1.956 -1.272,-3.072 -2.7,-3.072 -1.428,0 -2.7,1.116 -2.7,3.072 z m 1.02,0 c 0,-1.344 0.684,-2.256 1.68,-2.256 1.008,0 1.68,0.912 1.68,2.256 0,1.332 -0.672,2.232 -1.68,2.232 -0.996,0 -1.68,-0.9 -1.68,-2.232 z"
       style="font-family:'Source Sans Pro';-inkscape-font-specification:'Source Sans Pro';stroke:none"
       id="path9146" />
    <path
       d="m 37.719198,23.745968 c 0,1.932 1.272,3.048 2.7,3.048 1.428,0 2.7,-1.116 2.7,-3.048 0,-1.956 -1.272,-3.072 -2.7,-3.072 -1.428,0 -2.7,1.116 -2.7,3.072 z m 1.02,0 c 0,-1.344 0.684,-2.256 1.68,-2.256 1.008,0 1.68,0.912 1.68,2.256 0,1.332 -0.672,2.232 -1.68,2.232 -0.996,0 -1.68,-0.9 -1.68,-2.232 z"
       style="font-family:'Source Sans Pro';-inkscape-font-specification:'Source Sans Pro';stroke:none"
       id="path9148" />
    <path
       d="m 45.615196,26.121968 c 0.54,0.42 1.08,0.672 1.62,0.672 1.332,0 2.52,-1.164 2.52,-3.144 0,-1.812 -0.804,-2.976 -2.304,-2.976 -0.684,0 -1.332,0.372 -1.86,0.816 h -0.036 l -0.084,-0.672 h -0.816 v 8.292 h 0.984 v -1.968 z m 0.024,-0.768 v -3.06 c 0.576,-0.516 1.068,-0.792 1.56,-0.792 1.104,0 1.536,0.864 1.536,2.148 0,1.44 -0.708,2.316 -1.668,2.316 -0.384,0 -0.9,-0.168 -1.428,-0.612 z"
       style="font-family:'Source Sans Pro';-inkscape-font-specification:'Source Sans Pro';stroke:none"
       id="path9150" />
    <path
       d="m 50.8592,25.137968 c 0,1.044 0.732,1.656 1.716,1.656 0.72,0 1.368,-0.384 1.932,-0.84 h 0.024 l 0.084,0.696 h 0.816 v -3.576 c 0,-1.452 -0.6,-2.4 -2.028,-2.4 -0.936,0 -1.752,0.408 -2.292,0.756 l 0.396,0.684 c 0.456,-0.312 1.056,-0.624 1.74,-0.624 0.948,0 1.2,0.72 1.2,1.464 -2.484,0.276 -3.588,0.912 -3.588,2.184 z m 0.972,-0.072 c 0,-0.744 0.66,-1.224 2.616,-1.464 v 1.62 c -0.564,0.504 -1.032,0.78 -1.596,0.78 -0.576,0 -1.02,-0.276 -1.02,-0.936 z"
       style="font-family:'Source Sans Pro';-inkscape-font-specification:'Source Sans Pro';stroke:none"
       id="path9152" />
  </g>
  <path
     sodipodi:nodetypes="ccccccc"
     inkscape:connector-curvature="0"
     d="m 41.8876,40.5 v 26.76 l 5.625,5.04 h 34.375 V 45.54 l -5.625,-5.04 z"
     style="fill:#1d232d;fill-opacity:1;stroke:#6f8ce9;stroke-width:1;stroke-linecap:round;stroke-miterlimit:4;stroke-dasharray:none;stroke-opacity:1"
     id="path5321" />
  <g
     aria-label="Morton
Koopa"
     id="text5335"
     style="font-size:12px;line-height:1.25;font-family:'Small Fonts';-inkscape-font-specification:'Small Fonts';text-align:center;text-anchor:middle;fill:#e8eaec;stroke:#cf2f25;stroke-linecap:round">
    <path
       d="m 42.953203,51.202007 h 0.924 v -4.332 c 0,-0.696 -0.072,-1.632 -0.12,-2.328 h 0.048 l 0.624,1.752 1.512,4.116 h 0.576 l 1.512,-4.116 0.624,-1.752 h 0.048 c -0.048,0.696 -0.132,1.632 -0.132,2.328 v 4.332 h 0.948 v -7.872 h -1.176 l -1.512,4.224 -0.552,1.608 h -0.048 l -0.564,-1.608 -1.524,-4.224 h -1.188 z"
       style="font-family:'Source Sans Pro';-inkscape-font-specification:'Source Sans Pro';stroke:none"
       id="path9155" />
    <path
       d="m 51.125204,48.298007 c 0,1.932 1.272,3.048 2.7,3.048 1.428,0 2.7,-1.116 2.7,-3.048 0,-1.956 -1.272,-3.072 -2.7,-3.072 -1.428,0 -2.7,1.116 -2.7,3.072 z m 1.02,0 c 0,-1.344 0.684,-2.256 1.68,-2.256 1.008,0 1.68,0.912 1.68,2.256 0,1.332 -0.672,2.232 -1.68,2.232 -0.996,0 -1.68,-0.9 -1.68,-2.232 z"
       style="font-family:'Source Sans Pro';-inkscape-font-specification:'Source Sans Pro';stroke:none"
       id="path9157" />
    <path
       d="m 58.061202,51.202007 h 0.984 v -3.744 c 0.396,-0.984 0.984,-1.344 1.476,-1.344 0.24,0 0.372,0.036 0.564,0.096 l 0.192,-0.864 c -0.192,-0.084 -0.372,-0.12 -0.624,-0.12 -0.66,0 -1.26,0.468 -1.656,1.2 h -0.036 l -0.084,-1.056 h -0.816 z"
       style="font-family:'Source Sans Pro';-inkscape-font-specification:'Source Sans Pro';stroke:none"
       id="path9159" />
    <path
       d="m 62.393203,49.402007 c 0,1.152 0.42,1.944 1.668,1.944 0.36,0 0.756,-0.108 1.08,-0.216 l -0.192,-0.744 c -0.192,0.072 -0.456,0.156 -0.66,0.156 -0.672,0 -0.9,-0.408 -0.9,-1.128 v -3.24 h 1.572 v -0.804 h -1.572 v -1.632 h -0.828 l -0.12,1.632 -0.912,0.06 v 0.744 h 0.864 z"
       style="font-family:'Source Sans Pro';-inkscape-font-specification:'Source Sans Pro';stroke:none"
       id="path9161" />
    <path
       d="m 65.729193,48.298007 c 0,1.932 1.272,3.048 2.7,3.048 1.428,0 2.7,-1.116 2.7,-3.048 0,-1.956 -1.272,-3.072 -2.7,-3.072 -1.428,0 -2.7,1.116 -2.7,3.072 z m 1.02,0 c 0,-1.344 0.684,-2.256 1.68,-2.256 1.008,0 1.68,0.912 1.68,2.256 0,1.332 -0.672,2.232 -1.68,2.232 -0.996,0 -1.68,-0.9 -1.68,-2.232 z"
       style="font-family:'Source Sans Pro';-inkscape-font-specification:'Source Sans Pro';stroke:none"
       id="path9163" />
    <path
       d="m 72.66519,51.202007 h 0.984 v -4.224 c 0.588,-0.588 0.996,-0.9 1.596,-0.9 0.768,0 1.104,0.468 1.104,1.56 v 3.564 h 0.984 v -3.696 c 0,-1.488 -0.552,-2.28 -1.776,-2.28 -0.804,0 -1.404,0.432 -1.956,0.984 h -0.036 l -0.084,-0.84 h -0.816 z"
       style="font-family:'Source Sans Pro';-inkscape-font-specification:'Source Sans Pro';stroke:none"
       id="path9165" />
    <path
       d="m 44.891214,66.649971 h 1.008 v -2.496 l 1.344,-1.596 2.352,4.092 h 1.116 l -2.844,-4.872 2.472,-3 h -1.14 l -3.276,3.948 h -0.024 v -3.948 h -1.008 z"
       style="font-family:'Source Sans Pro';-inkscape-font-specification:'Source Sans Pro';stroke:none"
       id="path9167" />
    <path
       d="m 51.2152,63.745971 c 0,1.932 1.272,3.048 2.7,3.048 1.428,0 2.7,-1.116 2.7,-3.048 0,-1.956 -1.272,-3.072 -2.7,-3.072 -1.428,0 -2.7,1.116 -2.7,3.072 z m 1.02,0 c 0,-1.344 0.684,-2.256 1.68,-2.256 1.008,0 1.68,0.912 1.68,2.256 0,1.332 -0.672,2.232 -1.68,2.232 -0.996,0 -1.68,-0.9 -1.68,-2.232 z"
       style="font-family:'Source Sans Pro';-inkscape-font-specification:'Source Sans Pro';stroke:none"
       id="path9169" />
    <path
       d="m 57.719198,63.745971 c 0,1.932 1.272,3.048 2.7,3.048 1.428,0 2.7,-1.116 2.7,-3.048 0,-1.956 -1.272,-3.072 -2.7,-3.072 -1.428,0 -2.7,1.116 -2.7,3.072 z m 1.02,0 c 0,-1.344 0.684,-2.256 1.68,-2.256 1.008,0 1.68,0.912 1.68,2.256 0,1.332 -0.672,2.232 -1.68,2.232 -0.996,0 -1.68,-0.9 -1.68,-2.232 z"
       style="font-family:'Source Sans Pro';-inkscape-font-specification:'Source Sans Pro';stroke:none"
       id="path9171" />
    <path
       d="m 65.615196,66.121971 c 0.54,0.42 1.08,0.672 1.62,0.672 1.332,0 2.52,-1.164 2.52,-3.144 0,-1.812 -0.804,-2.976 -2.304,-2.976 -0.684,0 -1.332,0.372 -1.86,0.816 h -0.036 l -0.084,-0.672 h -0.816 v 8.292 h 0.984 v -1.968 z m 0.024,-0.768 v -3.06 c 0.576,-0.516 1.068,-0.792 1.56,-0.792 1.104,0 1.536,0.864 1.536,2.148 0,1.44 -0.708,2.316 -1.668,2.316 -0.384,0 -0.9,-0.168 -1.428,-0.612 z"
       style="font-family:'Source Sans Pro';-inkscape-font-specification:'Source Sans Pro';stroke:none"
       id="path9173" />
    <path
       d="m 70.8592,65.137971 c 0,1.044 0.732,1.656 1.716,1.656 0.72,0 1.368,-0.384 1.932,-0.84 h 0.024 l 0.084,0.696 h 0.816 v -3.576 c 0,-1.452 -0.6,-2.4 -2.028,-2.4 -0.936,0 -1.752,0.408 -2.292,0.756 l 0.396,0.684 c 0.456,-0.312 1.056,-0.624 1.74,-0.624 0.948,0 1.2,0.72 1.2,1.464 -2.484,0.276 -3.588,0.912 -3.588,2.184 z m 0.972,-0.072 c 0,-0.744 0.66,-1.224 2.616,-1.464 v 1.62 c -0.564,0.504 -1.032,0.78 -1.596,0.78 -0.576,0 -1.02,-0.276 -1.02,-0.936 z"
       style="font-family:'Source Sans Pro';-inkscape-font-specification:'Source Sans Pro';stroke:none"
       id="path9175" />
  </g>
  <path
     sodipodi:nodetypes="ccccccc"
     inkscape:connector-curvature="0"
     d="m 61.8876,80.5 v 26.76 l 5.625,5.04 h 34.375 V 85.54 l -5.625,-5.04 z"
     style="fill:#1d232d;fill-opacity:1;stroke:#6f8ce9;stroke-width:1;stroke-linecap:round;stroke-miterlimit:4;stroke-dasharray:none;stroke-opacity:1"
     id="path5337" />
  <g
     aria-label="Wendy
Koopa"
     id="text5351"
     style="font-size:12px;line-height:1.25;font-family:'Small Fonts';-inkscape-font-specification:'Small Fonts';text-align:center;text-anchor:middle;fill:#e8eaec;stroke:#cf2f25;stroke-linecap:round">
    <path
       d="m 64.909186,91.202003 h 1.188 l 1.176,-4.74 c 0.132,-0.612 0.264,-1.176 0.396,-1.788 h 0.048 c 0.108,0.612 0.24,1.176 0.372,1.788 l 1.188,4.74 h 1.212 l 1.632,-7.872 h -0.972 l -0.828,4.284 c -0.144,0.84 -0.288,1.692 -0.444,2.544 h -0.048 c -0.192,-0.852 -0.384,-1.716 -0.564,-2.544 l -1.092,-4.284 h -0.912 l -1.092,4.284 c -0.192,0.84 -0.384,1.692 -0.552,2.544 h -0.048 c -0.156,-0.852 -0.312,-1.692 -0.468,-2.544 l -0.828,-4.284 h -1.032 z"
       style="font-family:'Source Sans Pro';-inkscape-font-specification:'Source Sans Pro';stroke:none"
       id="path9178" />
    <path
       d="m 72.925188,88.298003 c 0,1.908 1.236,3.048 2.796,3.048 0.792,0 1.416,-0.276 1.92,-0.6 l -0.348,-0.648 c -0.432,0.276 -0.9,0.456 -1.452,0.456 -1.116,0 -1.872,-0.792 -1.944,-2.052 h 3.936 c 0.024,-0.144 0.036,-0.336 0.036,-0.54 0,-1.668 -0.84,-2.736 -2.328,-2.736 -1.332,0 -2.616,1.164 -2.616,3.072 z m 0.96,-0.444 c 0.12,-1.176 0.864,-1.848 1.68,-1.848 0.912,0 1.44,0.66 1.44,1.848 z"
       style="font-family:'Source Sans Pro';-inkscape-font-specification:'Source Sans Pro';stroke:none"
       id="path9180" />
    <path
       d="m 79.309191,91.202003 h 0.984 v -4.224 c 0.588,-0.588 0.996,-0.9 1.596,-0.9 0.768,0 1.104,0.468 1.104,1.56 v 3.564 h 0.984 v -3.696 c 0,-1.488 -0.552,-2.28 -1.776,-2.28 -0.804,0 -1.404,0.432 -1.956,0.984 h -0.036 l -0.084,-0.84 h -0.816 z"
       style="font-family:'Source Sans Pro';-inkscape-font-specification:'Source Sans Pro';stroke:none"
       id="path9182" />
    <path
       d="m 85.453202,88.298003 c 0,1.944 0.948,3.048 2.412,3.048 0.684,0 1.308,-0.384 1.764,-0.828 h 0.036 l 0.084,0.684 h 0.816 v -8.544 h -0.996 v 2.244 l 0.048,0.996 c -0.516,-0.42 -0.96,-0.672 -1.632,-0.672 -1.332,0 -2.532,1.176 -2.532,3.072 z m 1.02,-0.012 c 0,-1.332 0.744,-2.232 1.68,-2.232 0.48,0 0.924,0.168 1.416,0.612 v 3.048 c -0.48,0.54 -0.948,0.804 -1.488,0.804 -1.02,0 -1.608,-0.84 -1.608,-2.232 z"
       style="font-family:'Source Sans Pro';-inkscape-font-specification:'Source Sans Pro';stroke:none"
       id="path9184" />
    <path
       d="m 92.137206,92.810003 -0.192,0.78 c 0.192,0.072 0.42,0.12 0.684,0.12 1.176,0 1.776,-0.876 2.184,-2.028 l 2.196,-6.312 h -0.96 l -1.044,3.228 c -0.156,0.516 -0.324,1.116 -0.492,1.644 h -0.048 c -0.18,-0.54 -0.384,-1.14 -0.564,-1.644 l -1.188,-3.228 h -1.02 l 2.34,5.844 -0.132,0.432 c -0.24,0.72 -0.66,1.248 -1.32,1.248 -0.144,0 -0.324,-0.048 -0.444,-0.084 z"
       style="font-family:'Source Sans Pro';-inkscape-font-specification:'Source Sans Pro';stroke:none"
       id="path9186" />
    <path
       d="m 64.891214,106.64997 h 1.008 v -2.496 l 1.344,-1.596 2.352,4.092 h 1.116 l -2.844,-4.872 2.472,-3.000003 h -1.14 l -3.276,3.948003 h -0.024 v -3.948003 h -1.008 z"
       style="font-family:'Source Sans Pro';-inkscape-font-specification:'Source Sans Pro';stroke:none"
       id="path9188" />
    <path
       d="m 71.2152,103.74597 c 0,1.932 1.272,3.048 2.7,3.048 1.428,0 2.7,-1.116 2.7,-3.048 0,-1.956 -1.272,-3.072 -2.7,-3.072 -1.428,0 -2.7,1.116 -2.7,3.072 z m 1.02,0 c 0,-1.344 0.684,-2.256 1.68,-2.256 1.008,0 1.68,0.912 1.68,2.256 0,1.332 -0.672,2.232 -1.68,2.232 -0.996,0 -1.68,-0.9 -1.68,-2.232 z"
       style="font-family:'Source Sans Pro';-inkscape-font-specification:'Source Sans Pro';stroke:none"
       id="path9190" />
    <path
       d="m 77.719198,103.74597 c 0,1.932 1.272,3.048 2.7,3.048 1.428,0 2.7,-1.116 2.7,-3.048 0,-1.956 -1.272,-3.072 -2.7,-3.072 -1.428,0 -2.7,1.116 -2.7,3.072 z m 1.02,0 c 0,-1.344 0.684,-2.256 1.68,-2.256 1.008,0 1.68,0.912 1.68,2.256 0,1.332 -0.672,2.232 -1.68,2.232 -0.996,0 -1.68,-0.9 -1.68,-2.232 z"
       style="font-family:'Source Sans Pro';-inkscape-font-specification:'Source Sans Pro';stroke:none"
       id="path9192" />
    <path
       d="m 85.615196,106.12197 c 0.54,0.42 1.08,0.672 1.62,0.672 1.332,0 2.52,-1.164 2.52,-3.144 0,-1.812 -0.804,-2.976 -2.304,-2.976 -0.684,0 -1.332,0.372 -1.86,0.816 h -0.036 l -0.084,-0.672 h -0.816 v 8.292 h 0.984 v -1.968 z m 0.024,-0.768 v -3.06 c 0.576,-0.516 1.068,-0.792 1.56,-0.792 1.104,0 1.536,0.864 1.536,2.148 0,1.44 -0.708,2.316 -1.668,2.316 -0.384,0 -0.9,-0.168 -1.428,-0.612 z"
       style="font-family:'Source Sans Pro';-inkscape-font-specification:'Source Sans Pro';stroke:none"
       id="path9194" />
    <path
       d="m 90.8592,105.13797 c 0,1.044 0.732,1.656 1.716,1.656 0.72,0 1.368,-0.384 1.932,-0.84 h 0.024 l 0.084,0.696 h 0.816 v -3.576 c 0,-1.452 -0.6,-2.4 -2.028,-2.4 -0.936,0 -1.752,0.408 -2.292,0.756 l 0.396,0.684 c 0.456,-0.312 1.056,-0.624 1.74,-0.624 0.948,0 1.2,0.72 1.2,1.464 -2.484,0.276 -3.588,0.912 -3.588,2.184 z m 0.972,-0.072 c 0,-0.744 0.66,-1.224 2.616,-1.464 v 1.62 c -0.564,0.504 -1.032,0.78 -1.596,0.78 -0.576,0 -1.02,-0.276 -1.02,-0.936 z"
       style="font-family:'Source Sans Pro';-inkscape-font-specification:'Source Sans Pro';stroke:none"
       id="path9196" />
  </g>
  <path
     sodipodi:nodetypes="ccccccc"
     inkscape:connector-curvature="0"
     d="m 81.8876,0.5 v 26.76 l 5.625,5.04 h 32.375 V 5.54 l -5.625,-5.04 z"
     style="fill:#1d232d;fill-opacity:1;stroke:#6f8ce9;stroke-width:1;stroke-linecap:round;stroke-miterlimit:4;stroke-dasharray:none;stroke-opacity:1"
     id="path5353" />
  <g
     aria-label="Iggy
Koopa"
     id="text5367"
     style="font-size:12px;line-height:1.25;font-family:'Small Fonts';-inkscape-font-specification:'Small Fonts';text-align:center;text-anchor:middle;fill:#e8eaec;stroke:#cf2f25;stroke-linecap:round">
    <path
       d="m 90.747201,11.202004 h 1.008 V 3.3300044 h -1.008 z"
       style="font-family:'Source Sans Pro';-inkscape-font-specification:'Source Sans Pro';stroke:none"
       id="path9199" />
    <path
       d="m 94.203194,12.186004 c 0,-0.336 0.18,-0.684 0.6,-0.984 0.252,0.072 0.528,0.096 0.756,0.096 h 1.008 c 0.756,0 1.176,0.18 1.176,0.72 0,0.612 -0.732,1.188 -1.848,1.188 -1.056,0 -1.692,-0.396 -1.692,-1.02 z m -0.864,0.132 c 0,1.008 0.984,1.572 2.412,1.572 1.812,0 2.952,-0.936 2.952,-2.016 0,-0.972 -0.684,-1.392 -2.04,-1.392 h -1.128 c -0.792,0 -1.032,-0.264 -1.032,-0.6359996 0,-0.324 0.168,-0.516 0.372,-0.696 0.264,0.132 0.588,0.204 0.876,0.204 1.188,0 2.136,-0.78 2.136,-2.028 0,-0.492 -0.204,-0.936 -0.48,-1.2 h 1.2 v -0.756 h -2.028 c -0.216,-0.084 -0.504,-0.144 -0.828,-0.144 -1.188,0 -2.196,0.804 -2.196,2.076 0,0.696 0.372,1.26 0.756,1.572 v 0.048 c -0.3,0.204 -0.636,0.588 -0.636,1.0799996 0,0.456 0.228,0.768 0.516,0.948 v 0.048 c -0.528,0.36 -0.852,0.828 -0.852,1.32 z m 2.412,-3.6239996 c -0.672,0 -1.236,-0.54 -1.236,-1.392 0,-0.852 0.552,-1.356 1.236,-1.356 0.684,0 1.236,0.504 1.236,1.356 0,0.852 -0.564,1.392 -1.236,1.392 z"
       style="font-family:'Source Sans Pro';-inkscape-font-specification:'Source Sans Pro';stroke:none"
       id="path9201" />
    <path
       d="m 100.25119,12.186004 c 0,-0.336 0.18,-0.684 0.6,-0.984 0.252,0.072 0.528,0.096 0.756,0.096 h 1.008 c 0.756,0 1.176,0.18 1.176,0.72 0,0.612 -0.732,1.188 -1.848,1.188 -1.056,0 -1.692,-0.396 -1.692,-1.02 z m -0.863999,0.132 c 0,1.008 0.983999,1.572 2.411999,1.572 1.812,0 2.952,-0.936 2.952,-2.016 0,-0.972 -0.684,-1.392 -2.04,-1.392 h -1.128 c -0.792,0 -1.032,-0.264 -1.032,-0.6359996 0,-0.324 0.168,-0.516 0.372,-0.696 0.264,0.132 0.588,0.204 0.876,0.204 1.188,0 2.136,-0.78 2.136,-2.028 0,-0.492 -0.204,-0.936 -0.48,-1.2 h 1.2 v -0.756 h -2.028 c -0.216,-0.084 -0.504,-0.144 -0.828,-0.144 -1.188,0 -2.195999,0.804 -2.195999,2.076 0,0.696 0.372,1.26 0.755999,1.572 v 0.048 c -0.3,0.204 -0.635999,0.588 -0.635999,1.0799996 0,0.456 0.228,0.768 0.515999,0.948 v 0.048 c -0.527999,0.36 -0.851999,0.828 -0.851999,1.32 z m 2.411999,-3.6239996 c -0.672,0 -1.236,-0.54 -1.236,-1.392 0,-0.852 0.552,-1.356 1.236,-1.356 0.684,0 1.236,0.504 1.236,1.356 0,0.852 -0.564,1.392 -1.236,1.392 z"
       style="font-family:'Source Sans Pro';-inkscape-font-specification:'Source Sans Pro';stroke:none"
       id="path9203" />
    <path
       d="m 105.43519,12.810004 -0.192,0.78 c 0.192,0.072 0.42,0.12 0.684,0.12 1.176,0 1.776,-0.876 2.184,-2.028 l 2.196,-6.3119996 h -0.96 l -1.044,3.228 c -0.156,0.516 -0.324,1.116 -0.492,1.6439996 h -0.048 c -0.18,-0.5399996 -0.384,-1.1399996 -0.564,-1.6439996 l -1.188,-3.228 h -1.02 l 2.34,5.8439996 -0.132,0.432 c -0.24,0.72 -0.66,1.248 -1.32,1.248 -0.144,0 -0.324,-0.048 -0.444,-0.084 z"
       style="font-family:'Source Sans Pro';-inkscape-font-specification:'Source Sans Pro';stroke:none"
       id="path9205" />
    <path
       d="m 84.891214,26.649968 h 1.008 v -2.496 l 1.344,-1.596 2.352,4.092 h 1.116 l -2.844,-4.872 2.472,-3 h -1.14 l -3.276,3.948 h -0.024 v -3.948 h -1.008 z"
       style="font-family:'Source Sans Pro';-inkscape-font-specification:'Source Sans Pro';stroke:none"
       id="path9207" />
    <path
       d="m 91.2152,23.745968 c 0,1.932 1.272,3.048 2.7,3.048 1.428,0 2.7,-1.116 2.7,-3.048 0,-1.956 -1.272,-3.072 -2.7,-3.072 -1.428,0 -2.7,1.116 -2.7,3.072 z m 1.02,0 c 0,-1.344 0.684,-2.256 1.68,-2.256 1.008,0 1.68,0.912 1.68,2.256 0,1.332 -0.672,2.232 -1.68,2.232 -0.996,0 -1.68,-0.9 -1.68,-2.232 z"
       style="font-family:'Source Sans Pro';-inkscape-font-specification:'Source Sans Pro';stroke:none"
       id="path9209" />
    <path
       d="m 97.719198,23.745968 c 0,1.932 1.272,3.048 2.700002,3.048 1.428,0 2.7,-1.116 2.7,-3.048 0,-1.956 -1.272,-3.072 -2.7,-3.072 -1.428002,0 -2.700002,1.116 -2.700002,3.072 z m 1.02,0 c 0,-1.344 0.684,-2.256 1.680002,-2.256 1.008,0 1.68,0.912 1.68,2.256 0,1.332 -0.672,2.232 -1.68,2.232 -0.996002,0 -1.680002,-0.9 -1.680002,-2.232 z"
       style="font-family:'Source Sans Pro';-inkscape-font-specification:'Source Sans Pro';stroke:none"
       id="path9211" />
    <path
       d="m 105.6152,26.121968 c 0.54,0.42 1.08,0.672 1.62,0.672 1.332,0 2.52,-1.164 2.52,-3.144 0,-1.812 -0.804,-2.976 -2.304,-2.976 -0.684,0 -1.332,0.372 -1.86,0.816 h -0.036 l -0.084,-0.672 h -0.816 v 8.292 h 0.984 v -1.968 z m 0.024,-0.768 v -3.06 c 0.576,-0.516 1.068,-0.792 1.56,-0.792 1.104,0 1.536,0.864 1.536,2.148 0,1.44 -0.708,2.316 -1.668,2.316 -0.384,0 -0.9,-0.168 -1.428,-0.612 z"
       style="font-family:'Source Sans Pro';-inkscape-font-specification:'Source Sans Pro';stroke:none"
       id="path9213" />
    <path
       d="m 110.8592,25.137968 c 0,1.044 0.732,1.656 1.716,1.656 0.72,0 1.368,-0.384 1.932,-0.84 h 0.024 l 0.084,0.696 h 0.816 v -3.576 c 0,-1.452 -0.6,-2.4 -2.028,-2.4 -0.936,0 -1.752,0.408 -2.292,0.756 l 0.396,0.684 c 0.456,-0.312 1.056,-0.624 1.74,-0.624 0.948,0 1.2,0.72 1.2,1.464 -2.484,0.276 -3.588,0.912 -3.588,2.184 z m 0.972,-0.072 c 0,-0.744 0.66,-1.224 2.616,-1.464 v 1.62 c -0.564,0.504 -1.032,0.78 -1.596,0.78 -0.576,0 -1.02,-0.276 -1.02,-0.936 z"
       style="font-family:'Source Sans Pro';-inkscape-font-specification:'Source Sans Pro';stroke:none"
       id="path9215" />
  </g>
  <path
     sodipodi:nodetypes="ccccccc"
     inkscape:connector-curvature="0"
     d="m 99.8876,40.5 v 26.76 l 5.625,5.04 h 32.375 V 45.54 l -5.625,-5.04 z"
     style="fill:#1d232d;fill-opacity:1;stroke:#6f8ce9;stroke-width:1;stroke-linecap:round;stroke-miterlimit:4;stroke-dasharray:none;stroke-opacity:1"
     id="path5369" />
  <g
     aria-label="Roy
Koopa"
     id="text5383"
     style="font-size:12px;line-height:1.25;font-family:'Small Fonts';-inkscape-font-specification:'Small Fonts';text-align:center;text-anchor:middle;fill:#e8eaec;stroke:#cf2f25;stroke-linecap:round">
    <path
       d="m 110.7032,44.134007 h 1.32 c 1.224,0 1.896,0.372 1.896,1.404 0,1.02 -0.672,1.524 -1.896,1.524 h -1.32 z m 4.452,7.068 -2.004,-3.432 c 1.068,-0.276 1.764,-1.008 1.764,-2.232 0,-1.632 -1.152,-2.208 -2.748,-2.208 h -2.472 v 7.872 h 1.008 v -3.324 h 1.416 l 1.896,3.324 z"
       style="font-family:'Source Sans Pro';-inkscape-font-specification:'Source Sans Pro';stroke:none"
       id="path9218" />
    <path
       d="m 115.9952,48.298007 c 0,1.932 1.272,3.048 2.7,3.048 1.428,0 2.7,-1.116 2.7,-3.048 0,-1.956 -1.272,-3.072 -2.7,-3.072 -1.428,0 -2.7,1.116 -2.7,3.072 z m 1.02,0 c 0,-1.344 0.684,-2.256 1.68,-2.256 1.008,0 1.68,0.912 1.68,2.256 0,1.332 -0.672,2.232 -1.68,2.232 -0.996,0 -1.68,-0.9 -1.68,-2.232 z"
       style="font-family:'Source Sans Pro';-inkscape-font-specification:'Source Sans Pro';stroke:none"
       id="path9220" />
    <path
       d="m 122.4872,52.810007 -0.192,0.78 c 0.192,0.072 0.42,0.12 0.684,0.12 1.176,0 1.776,-0.876 2.184,-2.028 l 2.196,-6.312 h -0.96 l -1.044,3.228 c -0.156,0.516 -0.324,1.116 -0.492,1.644 h -0.048 c -0.18,-0.54 -0.384,-1.14 -0.564,-1.644 l -1.188,-3.228 h -1.02 l 2.34,5.844 -0.132,0.432 c -0.24,0.72 -0.66,1.248 -1.32,1.248 -0.144,0 -0.324,-0.048 -0.444,-0.084 z"
       style="font-family:'Source Sans Pro';-inkscape-font-specification:'Source Sans Pro';stroke:none"
       id="path9222" />
    <path
       d="m 102.89121,66.649971 h 1.008 v -2.496 l 1.344,-1.596 2.352,4.092 h 1.116 l -2.844,-4.872 2.472,-3 h -1.14 l -3.276,3.948 h -0.024 v -3.948 h -1.008 z"
       style="font-family:'Source Sans Pro';-inkscape-font-specification:'Source Sans Pro';stroke:none"
       id="path9224" />
    <path
       d="m 109.2152,63.745971 c 0,1.932 1.272,3.048 2.7,3.048 1.428,0 2.7,-1.116 2.7,-3.048 0,-1.956 -1.272,-3.072 -2.7,-3.072 -1.428,0 -2.7,1.116 -2.7,3.072 z m 1.02,0 c 0,-1.344 0.684,-2.256 1.68,-2.256 1.008,0 1.68,0.912 1.68,2.256 0,1.332 -0.672,2.232 -1.68,2.232 -0.996,0 -1.68,-0.9 -1.68,-2.232 z"
       style="font-family:'Source Sans Pro';-inkscape-font-specification:'Source Sans Pro';stroke:none"
       id="path9226" />
    <path
       d="m 115.7192,63.745971 c 0,1.932 1.272,3.048 2.7,3.048 1.428,0 2.7,-1.116 2.7,-3.048 0,-1.956 -1.272,-3.072 -2.7,-3.072 -1.428,0 -2.7,1.116 -2.7,3.072 z m 1.02,0 c 0,-1.344 0.684,-2.256 1.68,-2.256 1.008,0 1.68,0.912 1.68,2.256 0,1.332 -0.672,2.232 -1.68,2.232 -0.996,0 -1.68,-0.9 -1.68,-2.232 z"
       style="font-family:'Source Sans Pro';-inkscape-font-specification:'Source Sans Pro';stroke:none"
       id="path9228" />
    <path
       d="m 123.6152,66.121971 c 0.54,0.42 1.08,0.672 1.62,0.672 1.332,0 2.52,-1.164 2.52,-3.144 0,-1.812 -0.804,-2.976 -2.304,-2.976 -0.684,0 -1.332,0.372 -1.86,0.816 h -0.036 l -0.084,-0.672 h -0.816 v 8.292 h 0.984 v -1.968 z m 0.024,-0.768 v -3.06 c 0.576,-0.516 1.068,-0.792 1.56,-0.792 1.104,0 1.536,0.864 1.536,2.148 0,1.44 -0.708,2.316 -1.668,2.316 -0.384,0 -0.9,-0.168 -1.428,-0.612 z"
       style="font-family:'Source Sans Pro';-inkscape-font-specification:'Source Sans Pro';stroke:none"
       id="path9230" />
    <path
       d="m 128.8592,65.137971 c 0,1.044 0.732,1.656 1.716,1.656 0.72,0 1.368,-0.384 1.932,-0.84 h 0.024 l 0.084,0.696 h 0.816 v -3.576 c 0,-1.452 -0.6,-2.4 -2.028,-2.4 -0.936,0 -1.752,0.408 -2.292,0.756 l 0.396,0.684 c 0.456,-0.312 1.056,-0.624 1.74,-0.624 0.948,0 1.2,0.72 1.2,1.464 -2.484,0.276 -3.588,0.912 -3.588,2.184 z m 0.972,-0.072 c 0,-0.744 0.66,-1.224 2.616,-1.464 v 1.62 c -0.564,0.504 -1.032,0.78 -1.596,0.78 -0.576,0 -1.02,-0.276 -1.02,-0.936 z"
       style="font-family:'Source Sans Pro';-inkscape-font-specification:'Source Sans Pro';stroke:none"
       id="path9232" />
  </g>
  <path
     sodipodi:nodetypes="ccccccc"
     inkscape:connector-curvature="0"
     d="m 121.8876,80.5 v 26.76 l 5.625,5.04 h 32.375 V 85.54 l -5.625,-5.04 z"
     style="fill:#1d232d;fill-opacity:1;stroke:#6f8ce9;stroke-width:1;stroke-linecap:round;stroke-miterlimit:4;stroke-dasharray:none;stroke-opacity:1"
     id="path5385" />
  <g
     aria-label="Lenny
Koopa"
     id="text5399"
     style="font-size:12px;line-height:1.25;font-family:'Small Fonts';-inkscape-font-specification:'Small Fonts';text-align:center;text-anchor:middle;fill:#e8eaec;stroke:#cf2f25;stroke-linecap:round">
    <path
       d="m 125.96518,91.202003 h 4.44 v -0.852 h -3.432 v -7.02 h -1.008 z"
       style="font-family:'Source Sans Pro';-inkscape-font-specification:'Source Sans Pro';stroke:none"
       id="path9235" />
    <path
       d="m 131.1012,88.298003 c 0,1.908 1.236,3.048 2.796,3.048 0.792,0 1.416,-0.276 1.92,-0.6 l -0.348,-0.648 c -0.432,0.276 -0.9,0.456 -1.452,0.456 -1.116,0 -1.872,-0.792 -1.944,-2.052 h 3.936 c 0.024,-0.144 0.036,-0.336 0.036,-0.54 0,-1.668 -0.84,-2.736 -2.328,-2.736 -1.332,0 -2.616,1.164 -2.616,3.072 z m 0.96,-0.444 c 0.12,-1.176 0.864,-1.848 1.68,-1.848 0.912,0 1.44,0.66 1.44,1.848 z"
       style="font-family:'Source Sans Pro';-inkscape-font-specification:'Source Sans Pro';stroke:none"
       id="path9237" />
    <path
       d="m 137.48521,91.202003 h 0.984 v -4.224 c 0.588,-0.588 0.996,-0.9 1.596,-0.9 0.768,0 1.104,0.468 1.104,1.56 v 3.564 h 0.984 v -3.696 c 0,-1.488 -0.552,-2.28 -1.776,-2.28 -0.804,0 -1.404,0.432 -1.956,0.984 h -0.036 l -0.084,-0.84 h -0.816 z"
       style="font-family:'Source Sans Pro';-inkscape-font-specification:'Source Sans Pro';stroke:none"
       id="path9239" />
    <path
       d="m 144.04922,91.202003 h 0.984 v -4.224 c 0.588,-0.588 0.996,-0.9 1.596,-0.9 0.768,0 1.104,0.468 1.104,1.56 v 3.564 h 0.984 v -3.696 c 0,-1.488 -0.552,-2.28 -1.776,-2.28 -0.804,0 -1.404,0.432 -1.956,0.984 h -0.036 l -0.084,-0.84 h -0.816 z"
       style="font-family:'Source Sans Pro';-inkscape-font-specification:'Source Sans Pro';stroke:none"
       id="path9241" />
    <path
       d="m 150.21723,92.810003 -0.192,0.78 c 0.192,0.072 0.42,0.12 0.684,0.12 1.176,0 1.776,-0.876 2.184,-2.028 l 2.196,-6.312 h -0.96 l -1.044,3.228 c -0.156,0.516 -0.324,1.116 -0.492,1.644 h -0.048 c -0.18,-0.54 -0.384,-1.14 -0.564,-1.644 l -1.188,-3.228 h -1.02 l 2.34,5.844 -0.132,0.432 c -0.24,0.72 -0.66,1.248 -1.32,1.248 -0.144,0 -0.324,-0.048 -0.444,-0.084 z"
       style="font-family:'Source Sans Pro';-inkscape-font-specification:'Source Sans Pro';stroke:none"
       id="path9243" />
    <path
       d="m 124.89122,106.64997 h 1.008 v -2.496 l 1.344,-1.596 2.352,4.092 h 1.116 l -2.844,-4.872 2.472,-3.000003 h -1.14 l -3.276,3.948003 h -0.024 v -3.948003 h -1.008 z"
       style="font-family:'Source Sans Pro';-inkscape-font-specification:'Source Sans Pro';stroke:none"
       id="path9245" />
    <path
       d="m 131.21521,103.74597 c 0,1.932 1.272,3.048 2.7,3.048 1.428,0 2.7,-1.116 2.7,-3.048 0,-1.956 -1.272,-3.072 -2.7,-3.072 -1.428,0 -2.7,1.116 -2.7,3.072 z m 1.02,0 c 0,-1.344 0.684,-2.256 1.68,-2.256 1.008,0 1.68,0.912 1.68,2.256 0,1.332 -0.672,2.232 -1.68,2.232 -0.996,0 -1.68,-0.9 -1.68,-2.232 z"
       style="font-family:'Source Sans Pro';-inkscape-font-specification:'Source Sans Pro';stroke:none"
       id="path9247" />
    <path
       d="m 137.71921,103.74597 c 0,1.932 1.272,3.048 2.7,3.048 1.428,0 2.7,-1.116 2.7,-3.048 0,-1.956 -1.272,-3.072 -2.7,-3.072 -1.428,0 -2.7,1.116 -2.7,3.072 z m 1.02,0 c 0,-1.344 0.684,-2.256 1.68,-2.256 1.008,0 1.68,0.912 1.68,2.256 0,1.332 -0.672,2.232 -1.68,2.232 -0.996,0 -1.68,-0.9 -1.68,-2.232 z"
       style="font-family:'Source Sans Pro';-inkscape-font-specification:'Source Sans Pro';stroke:none"
       id="path9249" />
    <path
       d="m 145.6152,106.12197 c 0.54,0.42 1.08,0.672 1.62,0.672 1.332,0 2.52,-1.164 2.52,-3.144 0,-1.812 -0.804,-2.976 -2.304,-2.976 -0.684,0 -1.332,0.372 -1.86,0.816 h -0.036 l -0.084,-0.672 h -0.816 v 8.292 h 0.984 v -1.968 z m 0.024,-0.768 v -3.06 c 0.576,-0.516 1.068,-0.792 1.56,-0.792 1.104,0 1.536,0.864 1.536,2.148 0,1.44 -0.708,2.316 -1.668,2.316 -0.384,0 -0.9,-0.168 -1.428,-0.612 z"
       style="font-family:'Source Sans Pro';-inkscape-font-specification:'Source Sans Pro';stroke:none"
       id="path9251" />
    <path
       d="m 150.85921,105.13797 c 0,1.044 0.732,1.656 1.716,1.656 0.72,0 1.368,-0.384 1.932,-0.84 h 0.024 l 0.084,0.696 h 0.816 v -3.576 c 0,-1.452 -0.6,-2.4 -2.028,-2.4 -0.936,0 -1.752,0.408 -2.292,0.756 l 0.396,0.684 c 0.456,-0.312 1.056,-0.624 1.74,-0.624 0.948,0 1.2,0.72 1.2,1.464 -2.484,0.276 -3.588,0.912 -3.588,2.184 z m 0.972,-0.072 c 0,-0.744 0.66,-1.224 2.616,-1.464 v 1.62 c -0.564,0.504 -1.032,0.78 -1.596,0.78 -0.576,0 -1.02,-0.276 -1.02,-0.936 z"
       style="font-family:'Source Sans Pro';-inkscape-font-specification:'Source Sans Pro';stroke:none"
       id="path9253" />
  </g>
  <path
     sodipodi:nodetypes="ccccccc"
     inkscape:connector-curvature="0"
     d="m 141.8876,180.5 v 42.76 l 5.625,5.04 h 34.375 v -42.76 l -5.625,-5.04 z"
     style="fill:#1d232d;fill-opacity:1;stroke:#6f8ce9;stroke-width:1;stroke-linecap:round;stroke-miterlimit:4;stroke-dasharray:none;stroke-opacity:1"
     id="path5401" />
  <g
     aria-label="Ludwig
von
Koopa"
     id="text5415"
     style="font-size:12px;line-height:1.25;font-family:'Small Fonts';-inkscape-font-specification:'Small Fonts';text-align:center;text-anchor:middle;fill:#e8eaec;stroke:#cf2f25;stroke-linecap:round">
    <path
       d="m 143.63441,192.314 h 4.44 v -0.852 h -3.432 v -7.02 h -1.008 z"
       style="font-family:'Source Sans Pro';-inkscape-font-specification:'Source Sans Pro';stroke:none"
       id="path9256" />
    <path
       d="m 149.14242,190.178 c 0,1.488 0.552,2.28 1.788,2.28 0.804,0 1.38,-0.42 1.92,-1.056 h 0.036 l 0.084,0.912 h 0.816 v -5.832 h -0.984 v 4.14 c -0.552,0.684 -0.972,0.984 -1.572,0.984 -0.768,0 -1.092,-0.468 -1.092,-1.56 v -3.564 h -0.996 z"
       style="font-family:'Source Sans Pro';-inkscape-font-specification:'Source Sans Pro';stroke:none"
       id="path9258" />
    <path
       d="m 155.33442,189.41 c 0,1.944 0.948,3.048 2.412,3.048 0.684,0 1.308,-0.384 1.764,-0.828 h 0.036 l 0.084,0.684 h 0.816 v -8.544 h -0.996 v 2.244 l 0.048,0.996 c -0.516,-0.42 -0.96,-0.672 -1.632,-0.672 -1.332,0 -2.532,1.176 -2.532,3.072 z m 1.02,-0.012 c 0,-1.332 0.744,-2.232 1.68,-2.232 0.48,0 0.924,0.168 1.416,0.612 v 3.048 c -0.48,0.54 -0.948,0.804 -1.488,0.804 -1.02,0 -1.608,-0.84 -1.608,-2.232 z"
       style="font-family:'Source Sans Pro';-inkscape-font-specification:'Source Sans Pro';stroke:none"
       id="path9260" />
    <path
       d="m 163.33843,192.314 h 1.152 l 0.816,-3.12 c 0.156,-0.552 0.276,-1.104 0.408,-1.692 h 0.048 c 0.144,0.588 0.252,1.128 0.396,1.68 l 0.84,3.132 h 1.2 l 1.56,-5.832 h -0.936 l -0.852,3.372 c -0.12,0.552 -0.228,1.08 -0.36,1.62 h -0.048 c -0.132,-0.54 -0.264,-1.068 -0.408,-1.62 l -0.912,-3.372 h -0.96 l -0.9,3.372 c -0.144,0.54 -0.264,1.08 -0.396,1.62 h -0.048 c -0.108,-0.54 -0.216,-1.068 -0.348,-1.62 l -0.864,-3.372 h -1.008 z"
       style="font-family:'Source Sans Pro';-inkscape-font-specification:'Source Sans Pro';stroke:none"
       id="path9262" />
    <path
       d="m 171.53443,185.282 c 0.384,0 0.684,-0.264 0.684,-0.636 0,-0.384 -0.3,-0.636 -0.684,-0.636 -0.384,0 -0.684,0.252 -0.684,0.636 0,0.372 0.3,0.636 0.684,0.636 z m -0.504,7.032 h 0.984 v -5.832 h -0.984 z"
       style="font-family:'Source Sans Pro';-inkscape-font-specification:'Source Sans Pro';stroke:none"
       id="path9264" />
    <path
       d="m 174.40244,193.298 c 0,-0.336 0.18,-0.684 0.6,-0.984 0.252,0.072 0.528,0.096 0.756,0.096 h 1.008 c 0.756,0 1.176,0.18 1.176,0.72 0,0.612 -0.732,1.188 -1.848,1.188 -1.056,0 -1.692,-0.396 -1.692,-1.02 z m -0.864,0.132 c 0,1.008 0.984,1.572 2.412,1.572 1.812,0 2.952,-0.936 2.952,-2.016 0,-0.972 -0.684,-1.392 -2.04,-1.392 h -1.128 c -0.792,0 -1.032,-0.264 -1.032,-0.636 0,-0.324 0.168,-0.516 0.372,-0.696 0.264,0.132 0.588,0.204 0.876,0.204 1.188,0 2.136,-0.78 2.136,-2.028 0,-0.492 -0.204,-0.936 -0.48,-1.2 h 1.2 v -0.756 h -2.028 c -0.216,-0.084 -0.504,-0.144 -0.828,-0.144 -1.188,0 -2.196,0.804 -2.196,2.076 0,0.696 0.372,1.26 0.756,1.572 v 0.048 c -0.3,0.204 -0.636,0.588 -0.636,1.08 0,0.456 0.228,0.768 0.516,0.948 v 0.048 c -0.528,0.36 -0.852,0.828 -0.852,1.32 z m 2.412,-3.624 c -0.672,0 -1.236,-0.54 -1.236,-1.392 0,-0.852 0.552,-1.356 1.236,-1.356 0.684,0 1.236,0.504 1.236,1.356 0,0.852 -0.564,1.392 -1.236,1.392 z"
       style="font-family:'Source Sans Pro';-inkscape-font-specification:'Source Sans Pro';stroke:none"
       id="path9266" />
    <path
       d="m 153.75041,207.76196 h 1.152 l 2.064,-5.832 h -0.972 l -1.104,3.312 c -0.168,0.576 -0.36,1.164 -0.528,1.716 h -0.048 c -0.18,-0.552 -0.372,-1.14 -0.54,-1.716 l -1.104,-3.312 h -1.02 z"
       style="font-family:'Source Sans Pro';-inkscape-font-specification:'Source Sans Pro';stroke:none"
       id="path9268" />
    <path
       d="m 157.61442,204.85796 c 0,1.932 1.272,3.048 2.7,3.048 1.428,0 2.7,-1.116 2.7,-3.048 0,-1.956 -1.272,-3.072 -2.7,-3.072 -1.428,0 -2.7,1.116 -2.7,3.072 z m 1.02,0 c 0,-1.344 0.684,-2.256 1.68,-2.256 1.008,0 1.68,0.912 1.68,2.256 0,1.332 -0.672,2.232 -1.68,2.232 -0.996,0 -1.68,-0.9 -1.68,-2.232 z"
       style="font-family:'Source Sans Pro';-inkscape-font-specification:'Source Sans Pro';stroke:none"
       id="path9270" />
    <path
       d="m 164.55042,207.76196 h 0.984 v -4.224 c 0.588,-0.588 0.996,-0.9 1.596,-0.9 0.768,0 1.104,0.468 1.104,1.56 v 3.564 h 0.984 v -3.696 c 0,-1.488 -0.552,-2.28 -1.776,-2.28 -0.804,0 -1.404,0.432 -1.956,0.984 h -0.036 l -0.084,-0.84 h -0.816 z"
       style="font-family:'Source Sans Pro';-inkscape-font-specification:'Source Sans Pro';stroke:none"
       id="path9272" />
    <path
       d="m 145.63243,223.20992 h 1.008 v -2.496 l 1.344,-1.596 2.352,4.092 h 1.116 l -2.844,-4.872 2.472,-3 h -1.14 l -3.276,3.948 h -0.024 v -3.948 h -1.008 z"
       style="font-family:'Source Sans Pro';-inkscape-font-specification:'Source Sans Pro';stroke:none"
       id="path9274" />
    <path
       d="m 151.95642,220.30592 c 0,1.932 1.272,3.048 2.7,3.048 1.428,0 2.7,-1.116 2.7,-3.048 0,-1.956 -1.272,-3.072 -2.7,-3.072 -1.428,0 -2.7,1.116 -2.7,3.072 z m 1.02,0 c 0,-1.344 0.684,-2.256 1.68,-2.256 1.008,0 1.68,0.912 1.68,2.256 0,1.332 -0.672,2.232 -1.68,2.232 -0.996,0 -1.68,-0.9 -1.68,-2.232 z"
       style="font-family:'Source Sans Pro';-inkscape-font-specification:'Source Sans Pro';stroke:none"
       id="path9276" />
    <path
       d="m 158.46042,220.30592 c 0,1.932 1.272,3.048 2.7,3.048 1.428,0 2.7,-1.116 2.7,-3.048 0,-1.956 -1.272,-3.072 -2.7,-3.072 -1.428,0 -2.7,1.116 -2.7,3.072 z m 1.02,0 c 0,-1.344 0.684,-2.256 1.68,-2.256 1.008,0 1.68,0.912 1.68,2.256 0,1.332 -0.672,2.232 -1.68,2.232 -0.996,0 -1.68,-0.9 -1.68,-2.232 z"
       style="font-family:'Source Sans Pro';-inkscape-font-specification:'Source Sans Pro';stroke:none"
       id="path9278" />
    <path
       d="m 166.35641,222.68192 c 0.54,0.42 1.08,0.672 1.62,0.672 1.332,0 2.52,-1.164 2.52,-3.144 0,-1.812 -0.804,-2.976 -2.304,-2.976 -0.684,0 -1.332,0.372 -1.86,0.816 h -0.036 l -0.084,-0.672 h -0.816 v 8.292 h 0.984 v -1.968 z m 0.024,-0.768 v -3.06 c 0.576,-0.516 1.068,-0.792 1.56,-0.792 1.104,0 1.536,0.864 1.536,2.148 0,1.44 -0.708,2.316 -1.668,2.316 -0.384,0 -0.9,-0.168 -1.428,-0.612 z"
       style="font-family:'Source Sans Pro';-inkscape-font-specification:'Source Sans Pro';stroke:none"
       id="path9280" />
    <path
       d="m 171.60042,221.69792 c 0,1.044 0.732,1.656 1.716,1.656 0.72,0 1.368,-0.384 1.932,-0.84 h 0.024 l 0.084,0.696 h 0.816 v -3.576 c 0,-1.452 -0.6,-2.4 -2.028,-2.4 -0.936,0 -1.752,0.408 -2.292,0.756 l 0.396,0.684 c 0.456,-0.312 1.056,-0.624 1.74,-0.624 0.948,0 1.2,0.72 1.2,1.464 -2.484,0.276 -3.588,0.912 -3.588,2.184 z m 0.972,-0.072 c 0,-0.744 0.66,-1.224 2.616,-1.464 v 1.62 c -0.564,0.504 -1.032,0.78 -1.596,0.78 -0.576,0 -1.02,-0.276 -1.02,-0.936 z"
       style="font-family:'Source Sans Pro';-inkscape-font-specification:'Source Sans Pro';stroke:none"
       id="path9282" />
  </g>
  <path
     sodipodi:nodetypes="ccccccc"
     inkscape:connector-curvature="0"
     d="m 161.8876,148.5 v 12.76 l 5.625,5.04 h 36.375 v -12.76 l -5.625,-5.04 z"
     style="fill:#1d232d;fill-opacity:1;stroke:#6f8ce9;stroke-width:1;stroke-linecap:round;stroke-miterlimit:4;stroke-dasharray:none;stroke-opacity:1"
     id="path5417" />
  <g
     aria-label="Bowser"
     id="text5431"
     style="font-size:12px;line-height:1.25;font-family:'Small Fonts';-inkscape-font-specification:'Small Fonts';text-align:center;text-anchor:middle;fill:#e8eaec;stroke:#cf2f25;stroke-linecap:round">
    <path
       d="m 164.8858,159.94333 h 2.52 c 1.752,0 2.976,-0.756 2.976,-2.304 0,-1.08 -0.672,-1.704 -1.824,-1.884 v -0.048 c 0.936,-0.24 1.38,-0.936 1.38,-1.716 0,-1.38 -1.116,-1.92 -2.712,-1.92 h -2.34 z m 1.008,-4.512 v -2.568 h 1.212 c 1.212,0 1.848,0.36 1.848,1.212 0,0.876 -0.564,1.356 -1.896,1.356 z m 0,3.72 v -2.976 h 1.368 c 1.38,0 2.136,0.444 2.136,1.416 0,1.068 -0.792,1.56 -2.136,1.56 z"
       style="font-family:'Source Sans Pro';-inkscape-font-specification:'Source Sans Pro';stroke:none"
       id="path9285" />
    <path
       d="m 171.38981,157.03933 c 0,1.932 1.272,3.048 2.7,3.048 1.428,0 2.7,-1.116 2.7,-3.048 0,-1.956 -1.272,-3.072 -2.7,-3.072 -1.428,0 -2.7,1.116 -2.7,3.072 z m 1.02,0 c 0,-1.344 0.684,-2.256 1.68,-2.256 1.008,0 1.68,0.912 1.68,2.256 0,1.332 -0.672,2.232 -1.68,2.232 -0.996,0 -1.68,-0.9 -1.68,-2.232 z"
       style="font-family:'Source Sans Pro';-inkscape-font-specification:'Source Sans Pro';stroke:none"
       id="path9287" />
    <path
       d="m 179.20181,159.94333 h 1.152 l 0.816,-3.12 c 0.156,-0.552 0.276,-1.104 0.408,-1.692 h 0.048 c 0.144,0.588 0.252,1.128 0.396,1.68 l 0.84,3.132 h 1.2 l 1.56,-5.832 h -0.936 l -0.852,3.372 c -0.12,0.552 -0.228,1.08 -0.36,1.62 h -0.048 c -0.132,-0.54 -0.264,-1.068 -0.408,-1.62 l -0.912,-3.372 h -0.96 l -0.9,3.372 c -0.144,0.54 -0.264,1.08 -0.396,1.62 h -0.048 c -0.108,-0.54 -0.216,-1.068 -0.348,-1.62 l -0.864,-3.372 h -1.008 z"
       style="font-family:'Source Sans Pro';-inkscape-font-specification:'Source Sans Pro';stroke:none"
       id="path9289" />
    <path
       d="m 186.24581,159.28333 c 0.552,0.456 1.344,0.804 2.172,0.804 1.38,0 2.136,-0.792 2.136,-1.74 0,-1.104 -0.936,-1.452 -1.776,-1.764 -0.66,-0.252 -1.296,-0.468 -1.296,-1.008 0,-0.444 0.336,-0.84 1.068,-0.84 0.516,0 0.936,0.216 1.332,0.516 l 0.468,-0.624 c -0.444,-0.36 -1.08,-0.66 -1.812,-0.66 -1.26,0 -2.004,0.72 -2.004,1.656 0,0.984 0.912,1.38 1.74,1.68 0.636,0.24 1.332,0.504 1.332,1.104 0,0.504 -0.384,0.912 -1.152,0.912 -0.696,0 -1.212,-0.288 -1.716,-0.696 z"
       style="font-family:'Source Sans Pro';-inkscape-font-specification:'Source Sans Pro';stroke:none"
       id="path9291" />
    <path
       d="m 191.48982,157.03933 c 0,1.908 1.236,3.048 2.796,3.048 0.792,0 1.416,-0.276 1.92,-0.6 l -0.348,-0.648 c -0.432,0.276 -0.9,0.456 -1.452,0.456 -1.116,0 -1.872,-0.792 -1.944,-2.052 h 3.936 c 0.024,-0.144 0.036,-0.336 0.036,-0.54 0,-1.668 -0.84,-2.736 -2.328,-2.736 -1.332,0 -2.616,1.164 -2.616,3.072 z m 0.96,-0.444 c 0.12,-1.176 0.864,-1.848 1.68,-1.848 0.912,0 1.44,0.66 1.44,1.848 z"
       style="font-family:'Source Sans Pro';-inkscape-font-specification:'Source Sans Pro';stroke:none"
       id="path9293" />
    <path
       d="m 197.87382,159.94333 h 0.984 v -3.744 c 0.396,-0.984 0.984,-1.344 1.476,-1.344 0.24,0 0.372,0.036 0.564,0.096 l 0.192,-0.864 c -0.192,-0.084 -0.372,-0.12 -0.624,-0.12 -0.66,0 -1.26,0.468 -1.656,1.2 h -0.036 l -0.084,-1.056 h -0.816 z"
       style="font-family:'Source Sans Pro';-inkscape-font-specification:'Source Sans Pro';stroke:none"
       id="path9295" />
  </g>
  <path
     inkscape:connector-curvature="0"
     id="path5510"
     d="M 41.8876,218.5 V 43.5"
     style="fill:none;fill-opacity:1;stroke:#6f8ce9;stroke-width:1;stroke-miterlimit:4;stroke-dasharray:1, 2;stroke-dashoffset:0;stroke-opacity:1"
     sodipodi:nodetypes="cc" />
  <path
     inkscape:connector-curvature="0"
     id="path5512"
     d="M 61.8876,200.5 V 87.5"
     style="fill:none;fill-opacity:1;stroke:#6f8ce9;stroke-width:1;stroke-miterlimit:4;stroke-dasharray:1, 2;stroke-dashoffset:0;stroke-opacity:1"
     sodipodi:nodetypes="cc" />
  <path
     inkscape:connector-curvature="0"
     id="path5514"
     d="M 81.8876,182.5 V 23.5"
     style="fill:none;fill-opacity:1;stroke:#6f8ce9;stroke-width:1;stroke-miterlimit:4;stroke-dasharray:1, 2;stroke-dashoffset:0;stroke-opacity:1"
     sodipodi:nodetypes="cc" />
  <path
     inkscape:connector-curvature="0"
     id="path5516"
     d="M 99.8876,164.5 V 51.5"
     style="fill:none;fill-opacity:1;stroke:#6f8ce9;stroke-width:1;stroke-miterlimit:4;stroke-dasharray:1, 2;stroke-dashoffset:0;stroke-opacity:1"
     sodipodi:nodetypes="cc" />
  <path
     inkscape:connector-curvature="0"
     id="path5518"
     d="m 121.8876,144.5 v -53"
     style="fill:none;fill-opacity:1;stroke:#6f8ce9;stroke-width:1;stroke-miterlimit:4;stroke-dasharray:1, 2;stroke-dashoffset:0;stroke-opacity:1"
     sodipodi:nodetypes="cc" />
  <path
     inkscape:connector-curvature="0"
     id="path5520"
     d="m 141.8876,198.5 v -71"
     style="fill:none;fill-opacity:1;stroke:#6f8ce9;stroke-width:1;stroke-miterlimit:4;stroke-dasharray:1, 2;stroke-dashoffset:0;stroke-opacity:1"
     sodipodi:nodetypes="cc" />
  <path
     inkscape:connector-curvature="0"
     id="path5522"
     d="m 161.8876,156.5 v -47"
     style="fill:none;fill-opacity:1;stroke:#6f8ce9;stroke-width:1;stroke-miterlimit:4;stroke-dasharray:1, 2;stroke-dashoffset:0;stroke-opacity:1"
     sodipodi:nodetypes="cc" />
</svg>
