<?xml version="1.0" encoding="UTF-8" standalone="no"?>
<svg
   width="355.30441"
   height="201.89378"
   version="1.1"
   viewBox="0 0 94.010171 53.420001"
   id="svg9235"
   sodipodi:docname="steering_seek_cs.svg"
   inkscape:version="1.2.2 (732a01da63, 2022-12-09)"
   xmlns:inkscape="http://www.inkscape.org/namespaces/inkscape"
   xmlns:sodipodi="http://sodipodi.sourceforge.net/DTD/sodipodi-0.dtd"
   xmlns="http://www.w3.org/2000/svg"
   xmlns:svg="http://www.w3.org/2000/svg"
   xmlns:rdf="http://www.w3.org/1999/02/22-rdf-syntax-ns#"
   xmlns:cc="http://creativecommons.org/ns#"
   xmlns:dc="http://purl.org/dc/elements/1.1/">
  <defs
     id="defs9239" />
  <sodipodi:namedview
     id="namedview9237"
     pagecolor="#ffffff"
     bordercolor="#000000"
     borderopacity="0.25"
     inkscape:showpageshadow="2"
     inkscape:pageopacity="0.0"
     inkscape:pagecheckerboard="0"
     inkscape:deskcolor="#d1d1d1"
     showgrid="false"
     inkscape:zoom="2.4081037"
     inkscape:cx="63.743103"
     inkscape:cy="53.153858"
     inkscape:window-width="1920"
     inkscape:window-height="1017"
     inkscape:window-x="-8"
     inkscape:window-y="-8"
     inkscape:window-maximized="1"
     inkscape:current-layer="svg9235" />
  <metadata
     id="metadata8967">
    <rdf:RDF>
      <cc:Work
         rdf:about="">
        <dc:format>image/svg+xml</dc:format>
        <dc:type
           rdf:resource="http://purl.org/dc/dcmitype/StillImage" />
      </cc:Work>
    </rdf:RDF>
  </metadata>
  <path
     sodipodi:nodetypes="cc"
     style="fill:none;fill-rule:evenodd;stroke:#e8eaec;stroke-width:0.264595;stroke-linecap:butt;stroke-linejoin:miter;stroke-miterlimit:4;stroke-dasharray:none;stroke-opacity:1"
     d="M 44.76956,52.145052 58.88209,27.494101"
     id="path3384"
     inkscape:connector-curvature="0" />
  <path
     sodipodi:type="star"
     style="fill:#6f8ce9;fill-opacity:1;stroke:none;stroke-width:0.612053;stroke-linecap:butt;stroke-linejoin:miter;stroke-miterlimit:4;stroke-dasharray:none;stroke-dashoffset:0;stroke-opacity:1"
     id="path3386"
     sodipodi:sides="3"
     sodipodi:cx="59.573746"
     sodipodi:cy="404.25464"
     sodipodi:r1="13.569411"
     sodipodi:r2="6.7847052"
     sodipodi:arg1="0"
     sodipodi:arg2="1.0471976"
     inkscape:flatsided="true"
     inkscape:rounded="0"
     inkscape:randomized="0"
     d="m 73.143157,404.25464 -20.354117,11.75145 0,-23.50291 z"
     inkscape:transform-center-x="2.9479157"
     transform="matrix(0.26207434,-0.50093901,0.29290768,0.15323938,-128.80258,-5.3287775)"
     inkscape:transform-center-y="-2.831056" />
  <path
     style="fill:none;fill-rule:evenodd;stroke:#e8eaec;stroke-width:0.264595;stroke-linecap:butt;stroke-linejoin:miter;stroke-miterlimit:4;stroke-dasharray:none;stroke-opacity:1"
     d="M 4.7524913,27.338335 H 57.17638"
     id="path3388"
     inkscape:connector-curvature="0"
     sodipodi:nodetypes="cc" />
  <circle
     r="6.4677877"
     cy="27.161421"
     cx="87.410812"
     id="circle3390"
     style="fill:#1d232d;fill-opacity:1;stroke:#a6aeb8;stroke-width:0.264595;stroke-linecap:butt;stroke-linejoin:miter;stroke-miterlimit:4;stroke-dasharray:none;stroke-dashoffset:0;stroke-opacity:1" />
  <path
     inkscape:connector-curvature="0"
     id="path3392"
     d="M 4.7998533,27.258295 11.85609,14.932871 15.38427,8.7701185 17.14832,5.6887025"
     style="fill:none;fill-rule:evenodd;stroke:#e8eaec;stroke-width:0.264595;stroke-linecap:butt;stroke-linejoin:miter;stroke-miterlimit:4;stroke-dasharray:none;stroke-opacity:1"
     sodipodi:nodetypes="cccc" />
  <path
     style="fill:none;fill-rule:evenodd;stroke:#e9e56f;stroke-width:0.529189;stroke-linecap:butt;stroke-linejoin:miter;stroke-miterlimit:4;stroke-dasharray:none;stroke-opacity:1"
     d="M 4.8151203,27.376489 36.1477,15.748536"
     id="path3394"
     inkscape:connector-curvature="0"
     sodipodi:nodetypes="cc" />
  <path
     style="fill:none;fill-opacity:1;stroke:#e8eaec;stroke-width:0.264595;stroke-linecap:square;stroke-miterlimit:4;stroke-dasharray:0.264595, 0.793784;stroke-dashoffset:0;stroke-opacity:1"
     d="m 20.98188,38.473692 20.04198,13.38444"
     id="path3396"
     inkscape:connector-curvature="0" />
  <path
     sodipodi:nodetypes="cc"
     style="fill:none;fill-rule:evenodd;stroke:#e8eaec;stroke-width:0.264595;stroke-linecap:butt;stroke-linejoin:miter;stroke-miterlimit:4;stroke-dasharray:none;stroke-opacity:1"
     d="M 4.5506583,27.650556 21.96146,39.153222"
     id="path3398"
     inkscape:connector-curvature="0" />
  <circle
     style="fill:#e8eaec;fill-opacity:1;stroke:none;stroke-width:0.388068;stroke-linecap:butt;stroke-linejoin:miter;stroke-miterlimit:4;stroke-dasharray:none;stroke-dashoffset:0;stroke-opacity:1"
     id="circle3400"
     cx="4.703979"
     cy="27.452658"
     r="0.84889728" />
  <path
     inkscape:connector-curvature="0"
     id="path3402"
     d="M 18.77976,2.4261725 36.19061,13.928866"
     style="fill:none;fill-rule:evenodd;stroke:#e8eaec;stroke-width:0.264595;stroke-linecap:butt;stroke-linejoin:miter;stroke-miterlimit:4;stroke-dasharray:none;stroke-opacity:1"
     sodipodi:nodetypes="cc" />
  <g
     aria-label="cíl"
     id="text3406"
     style="font-size:7.76135px;line-height:0%;letter-spacing:0px;word-spacing:0px;fill:#e8eaec;stroke-width:0.646778px">
    <path
       d="m 85.698027,35.366579 c 0,0.511196 0.314338,0.806483 0.72393,0.806483 0.184158,0 0.361965,-0.0762 0.501671,-0.200033 l -0.11748,-0.171457 c -0.09208,0.08255 -0.215909,0.155581 -0.361965,0.155581 -0.282587,0 -0.47627,-0.238135 -0.47627,-0.590574 0,-0.355615 0.203209,-0.596925 0.48262,-0.596925 0.12383,0 0.219084,0.05715 0.311163,0.136531 l 0.13018,-0.168282 c -0.104779,-0.09843 -0.24766,-0.184158 -0.450868,-0.184158 -0.396891,0 -0.742981,0.295288 -0.742981,0.812834 z"
       style="font-size:3.17513px;line-height:1.25;font-family:'Source Sans Pro';-inkscape-font-specification:'Source Sans Pro'"
       id="path9555" />
    <path
       d="m 87.260189,36.13496 h 0.260361 v -1.543113 h -0.260361 z m 0.48262,-2.267043 h -0.273061 l -0.285762,0.447694 h 0.200033 z"
       style="font-size:3.17513px;line-height:1.25;font-family:'Source Sans Pro';-inkscape-font-specification:'Source Sans Pro'"
       id="path9557" />
    <path
       d="m 88.041272,35.823797 c 0,0.225435 0.07938,0.349265 0.276236,0.349265 0.06985,0 0.114305,-0.0095 0.149232,-0.0254 l -0.03493,-0.196858 c -0.02858,0.0063 -0.04128,0.0063 -0.05715,0.0063 -0.0381,0 -0.07303,-0.03175 -0.07303,-0.114305 v -1.96858 h -0.260361 z"
       style="font-size:3.17513px;line-height:1.25;font-family:'Source Sans Pro';-inkscape-font-specification:'Source Sans Pro'"
       id="path9559" />
  </g>
  <g
     aria-label="-současná rychlost"
     transform="rotate(-60)"
     id="text3410"
     style="font-size:7.76135px;line-height:0%;letter-spacing:0px;word-spacing:0px;fill:#e8eaec;stroke-width:0.646778px">
    <path
       d="m -19.519197,67.147855 h 0.730279 v -0.200033 h -0.730279 z"
       style="font-size:3.17513px;line-height:1.25;font-family:'Source Sans Pro';-inkscape-font-specification:'Source Sans Pro'"
       id="path9562" />
    <path
       d="m -18.573006,67.668576 c 0.146056,0.120655 0.355614,0.212734 0.574698,0.212734 0.36514,0 0.565173,-0.209559 0.565173,-0.460394 0,-0.292112 -0.24766,-0.384191 -0.469919,-0.466744 -0.174632,-0.06668 -0.342914,-0.12383 -0.342914,-0.266711 0,-0.11748 0.0889,-0.222259 0.282587,-0.222259 0.13653,0 0.24766,0.05715 0.352439,0.136531 l 0.12383,-0.165107 c -0.11748,-0.09525 -0.285761,-0.174632 -0.479444,-0.174632 -0.333389,0 -0.530247,0.190507 -0.530247,0.438168 0,0.26036 0.24131,0.365139 0.460394,0.444518 0.168282,0.0635 0.352439,0.133355 0.352439,0.292112 0,0.133355 -0.101604,0.24131 -0.304812,0.24131 -0.184158,0 -0.320688,-0.0762 -0.454044,-0.184158 z"
       style="font-size:3.17513px;line-height:1.25;font-family:'Source Sans Pro';-inkscape-font-specification:'Source Sans Pro'"
       id="path9564" />
    <path
       d="m -17.185472,67.074827 c 0,0.511196 0.336563,0.806483 0.714404,0.806483 0.37784,0 0.714404,-0.295287 0.714404,-0.806483 0,-0.517546 -0.336564,-0.812833 -0.714404,-0.812833 -0.377841,0 -0.714404,0.295287 -0.714404,0.812833 z m 0.269886,0 c 0,-0.355615 0.180982,-0.596925 0.444518,-0.596925 0.266711,0 0.444518,0.24131 0.444518,0.596925 0,0.352439 -0.177807,0.590574 -0.444518,0.590574 -0.263536,0 -0.444518,-0.238135 -0.444518,-0.590574 z"
       style="font-size:3.17513px;line-height:1.25;font-family:'Source Sans Pro';-inkscape-font-specification:'Source Sans Pro'"
       id="path9566" />
    <path
       d="m -15.372474,67.278035 c 0,0.393716 0.146056,0.603275 0.473095,0.603275 0.212733,0 0.365139,-0.11113 0.50802,-0.279412 h 0.0095 l 0.02223,0.24131 h 0.215908 v -1.543113 h -0.26036 v 1.09542 c -0.146056,0.180982 -0.257186,0.260361 -0.415942,0.260361 -0.203209,0 -0.288937,-0.12383 -0.288937,-0.412767 v -0.943014 h -0.263536 z"
       style="font-size:3.17513px;line-height:1.25;font-family:'Source Sans Pro';-inkscape-font-specification:'Source Sans Pro'"
       id="path9568" />
    <path
       d="m -13.73728,67.074827 c 0,0.511196 0.314338,0.806483 0.72393,0.806483 0.184157,0 0.361964,-0.0762 0.50167,-0.200033 l -0.11748,-0.171457 c -0.09208,0.08255 -0.215909,0.155581 -0.361965,0.155581 -0.282586,0 -0.476269,-0.238135 -0.476269,-0.590574 0,-0.355615 0.203208,-0.596925 0.48262,-0.596925 0.12383,0 0.219084,0.05715 0.311162,0.136531 l 0.130181,-0.168282 c -0.10478,-0.09843 -0.24766,-0.184157 -0.450869,-0.184157 -0.396891,0 -0.74298,0.295287 -0.74298,0.812833 z m 0.631851,-1.050968 h 0.212733 l 0.301638,-0.447693 h -0.187333 l -0.212734,0.292112 h -0.0127 l -0.212734,-0.292112 h -0.190508 z"
       style="font-size:3.17513px;line-height:1.25;font-family:'Source Sans Pro';-inkscape-font-specification:'Source Sans Pro'"
       id="path9570" />
    <path
       d="m -12.283073,67.443142 c 0,0.276236 0.193683,0.438168 0.454043,0.438168 0.190508,0 0.361965,-0.101604 0.511196,-0.222259 h 0.0063 l 0.02223,0.184157 h 0.215909 V 66.89702 c 0,-0.384191 -0.158756,-0.635026 -0.536597,-0.635026 -0.24766,0 -0.463569,0.107954 -0.60645,0.200033 l 0.10478,0.180982 c 0.120655,-0.08255 0.279411,-0.165107 0.460394,-0.165107 0.250835,0 0.317513,0.190508 0.317513,0.387366 -0.657252,0.07303 -0.949364,0.24131 -0.949364,0.577874 z m 0.257185,-0.01905 c 0,-0.196858 0.174632,-0.323863 0.692179,-0.387366 v 0.428643 c -0.149232,0.133355 -0.273062,0.206383 -0.422293,0.206383 -0.152406,0 -0.269886,-0.07303 -0.269886,-0.24766 z"
       style="font-size:3.17513px;line-height:1.25;font-family:'Source Sans Pro';-inkscape-font-specification:'Source Sans Pro'"
       id="path9572" />
    <path
       d="m -10.752663,67.668576 c 0.146056,0.120655 0.355614,0.212734 0.574698,0.212734 0.36514,0 0.5651732,-0.209559 0.5651732,-0.460394 0,-0.292112 -0.2476601,-0.384191 -0.4699192,-0.466744 -0.174632,-0.06668 -0.342914,-0.12383 -0.342914,-0.266711 0,-0.11748 0.0889,-0.222259 0.282587,-0.222259 0.13653,0 0.2476597,0.05715 0.352439,0.136531 l 0.12383,-0.165107 c -0.1174798,-0.09525 -0.2857617,-0.174632 -0.479445,-0.174632 -0.333388,0 -0.530246,0.190507 -0.530246,0.438168 0,0.26036 0.24131,0.365139 0.460394,0.444518 0.168281,0.0635 0.352439,0.133355 0.352439,0.292112 0,0.133355 -0.1016042,0.24131 -0.304813,0.24131 -0.184157,0 -0.320688,-0.0762 -0.454043,-0.184158 z"
       style="font-size:3.17513px;line-height:1.25;font-family:'Source Sans Pro';-inkscape-font-specification:'Source Sans Pro'"
       id="path9574" />
    <path
       d="m -9.250825,67.843208 h 0.2603607 v -1.117645 c 0.1555813,-0.155582 0.2635357,-0.238135 0.4222922,-0.238135 0.2032083,0 0.292112,0.12383 0.292112,0.412767 v 0.943013 h 0.2603606 v -0.97794 c 0,-0.393716 -0.1460559,-0.603274 -0.4699192,-0.603274 -0.2127337,0 -0.3714902,0.114304 -0.5175462,0.26036 h -0.00953 l -0.022226,-0.222259 H -9.250825 Z"
       style="font-size:3.17513px;line-height:1.25;font-family:'Source Sans Pro';-inkscape-font-specification:'Source Sans Pro'"
       id="path9576" />
    <path
       d="m -7.5902289,67.443142 c 0,0.276236 0.193683,0.438168 0.4540436,0.438168 0.1905078,0 0.3619648,-0.101604 0.5111959,-0.222259 h 0.00635 l 0.022226,0.184157 h 0.2159088 V 66.89702 c 0,-0.384191 -0.1587565,-0.635026 -0.5365969,-0.635026 -0.2476602,0 -0.463569,0.107954 -0.6064498,0.200033 l 0.1047792,0.180982 c 0.120655,-0.08255 0.2794115,-0.165107 0.4603939,-0.165107 0.2508352,0 0.317513,0.190508 0.317513,0.387366 -0.6572519,0.07303 -0.9493639,0.24131 -0.9493639,0.577874 z m 0.2571855,-0.01905 c 0,-0.196858 0.1746322,-0.323863 0.6921784,-0.387366 v 0.428643 c -0.1492311,0.133355 -0.2730612,0.206383 -0.4222923,0.206383 -0.1524062,0 -0.2698861,-0.07303 -0.2698861,-0.24766 z m 0.7652064,-1.847925 h -0.2730612 l -0.2857617,0.447693 h 0.2000332 z"
       style="font-size:3.17513px;line-height:1.25;font-family:'Source Sans Pro';-inkscape-font-specification:'Source Sans Pro'"
       id="path9578" />
    <path
       d="m -5.2469874,67.843208 h 0.2603606 v -0.99064 c 0.1047793,-0.260361 0.2603607,-0.355615 0.390541,-0.355615 0.063503,0 0.098429,0.0095 0.1492311,0.0254 l 0.050802,-0.228609 c -0.050802,-0.02223 -0.098429,-0.03175 -0.1651068,-0.03175 -0.1746321,0 -0.3333886,0.12383 -0.4381679,0.317513 h -0.00953 l -0.022226,-0.279412 h -0.2159088 z"
       style="font-size:3.17513px;line-height:1.25;font-family:'Source Sans Pro';-inkscape-font-specification:'Source Sans Pro'"
       id="path9580" />
    <path
       d="m -4.1896716,68.268676 -0.050802,0.206383 c 0.050802,0.01905 0.1111295,0.03175 0.1809824,0.03175 0.3111627,0 0.4699192,-0.231784 0.5778736,-0.536596 l 0.5810488,-1.670119 h -0.2540104 l -0.2762363,0.85411 c -0.041277,0.136531 -0.085729,0.295287 -0.1301803,0.434993 h -0.012701 c -0.047627,-0.142881 -0.1016042,-0.301637 -0.1492311,-0.434993 l -0.3143379,-0.85411 h -0.269886 l 0.6191503,1.546288 -0.034926,0.114305 c -0.063503,0.190508 -0.1746322,0.330214 -0.3492643,0.330214 -0.038102,0 -0.085729,-0.0127 -0.1174798,-0.02223 z"
       style="font-size:3.17513px;line-height:1.25;font-family:'Source Sans Pro';-inkscape-font-specification:'Source Sans Pro'"
       id="path9582" />
    <path
       d="m -2.7291081,67.074827 c 0,0.511196 0.3143379,0.806483 0.7239297,0.806483 0.1841575,0 0.3619648,-0.0762 0.5016705,-0.200033 L -1.6209877,67.50982 c -0.092079,0.08255 -0.2159089,0.155581 -0.3619648,0.155581 -0.2825866,0 -0.4762695,-0.238135 -0.4762695,-0.590574 0,-0.355615 0.2032083,-0.596925 0.4826197,-0.596925 0.1238301,0 0.219084,0.05715 0.3111628,0.136531 l 0.1301803,-0.168282 c -0.1047793,-0.09843 -0.2476601,-0.184157 -0.4508685,-0.184157 -0.3968912,0 -0.7429804,0.295287 -0.7429804,0.812833 z"
       style="font-size:3.17513px;line-height:1.25;font-family:'Source Sans Pro';-inkscape-font-specification:'Source Sans Pro'"
       id="path9584" />
    <path
       d="m -1.1669465,67.843208 h 0.26036067 v -1.117645 c 0.15558137,-0.155582 0.26353578,-0.238135 0.42229228,-0.238135 0.20320831,0 0.29211195,0.12383 0.29211195,0.412767 v 0.943013 h 0.26036065 v -0.97794 c 0,-0.393716 -0.14605598,-0.603274 -0.46991922,-0.603274 -0.21273371,0 -0.36831507,0.114304 -0.51437105,0.25401 l 0.009525,-0.317513 V 65.582516 H -1.1669465 Z"
       style="font-size:3.17513px;line-height:1.25;font-family:'Source Sans Pro';-inkscape-font-specification:'Source Sans Pro'"
       id="path9586" />
    <path
       d="m 0.56032746,67.532046 c 0,0.225434 0.0793782,0.349264 0.2762363,0.349264 0.0698529,0 0.11430468,-0.0095 0.14923111,-0.0254 l -0.0349264,-0.196858 c -0.0285762,0.0063 -0.0412767,0.0063 -0.0571523,0.0063 -0.0381016,0 -0.073028,-0.03175 -0.073028,-0.114305 v -1.96858 H 0.56032746 Z"
       style="font-size:3.17513px;line-height:1.25;font-family:'Source Sans Pro';-inkscape-font-specification:'Source Sans Pro'"
       id="path9588" />
    <path
       d="m 1.255677,67.074827 c 0,0.511196 0.3365638,0.806483 0.7144042,0.806483 0.3778405,0 0.7144043,-0.295287 0.7144043,-0.806483 0,-0.517546 -0.3365638,-0.812833 -0.7144043,-0.812833 -0.3778404,0 -0.7144042,0.295287 -0.7144042,0.812833 z m 0.2698861,0 c 0,-0.355615 0.1809824,-0.596925 0.4445181,-0.596925 0.266711,0 0.4445182,0.24131 0.4445182,0.596925 0,0.352439 -0.1778072,0.590574 -0.4445182,0.590574 -0.2635357,0 -0.4445181,-0.238135 -0.4445181,-0.590574 z"
       style="font-size:3.17513px;line-height:1.25;font-family:'Source Sans Pro';-inkscape-font-specification:'Source Sans Pro'"
       id="path9590" />
    <path
       d="m 2.9194452,67.668576 c 0.146056,0.120655 0.3556146,0.212734 0.5746986,0.212734 0.3651399,0 0.5651731,-0.209559 0.5651731,-0.460394 0,-0.292112 -0.2476602,-0.384191 -0.4699192,-0.466744 -0.1746322,-0.06668 -0.3429141,-0.12383 -0.3429141,-0.266711 0,-0.11748 0.088904,-0.222259 0.2825866,-0.222259 0.1365306,0 0.2476601,0.05715 0.3524394,0.136531 L 4.0053397,66.436626 C 3.8878599,66.341372 3.719578,66.261994 3.5258951,66.261994 c -0.3333887,0 -0.5302467,0.190507 -0.5302467,0.438168 0,0.26036 0.2413098,0.365139 0.4603938,0.444518 0.1682819,0.0635 0.3524394,0.133355 0.3524394,0.292112 0,0.133355 -0.1016041,0.24131 -0.3048125,0.24131 -0.1841575,0 -0.3206881,-0.0762 -0.4540435,-0.184158 z"
       style="font-size:3.17513px;line-height:1.25;font-family:'Source Sans Pro';-inkscape-font-specification:'Source Sans Pro'"
       id="path9592" />
    <path
       d="m 4.4657355,67.366939 c 0,0.304812 0.1111295,0.514371 0.441343,0.514371 0.095254,0 0.2000332,-0.02858 0.2857617,-0.05715 l -0.050802,-0.196859 c -0.050802,0.01905 -0.1206549,0.04128 -0.1746321,0.04128 -0.1778073,0 -0.2381347,-0.107954 -0.2381347,-0.298462 v -0.857285 h 0.415942 v -0.212734 h -0.415942 v -0.431817 h -0.219084 l -0.031751,0.431817 -0.2413099,0.01588 v 0.196858 h 0.2286094 z"
       style="font-size:3.17513px;line-height:1.25;font-family:'Source Sans Pro';-inkscape-font-specification:'Source Sans Pro'"
       id="path9594" />
  </g>
  <g
     aria-label="steering síla"
     transform="rotate(33.466932)"
     id="text3414"
     style="font-size:7.76135px;line-height:0%;letter-spacing:0px;word-spacing:0px;fill:#e8eaec;stroke-width:0.646778px">
    <path
       d="m 17.475277,-10.145552 c 0.146056,0.120655 0.355615,0.2127339 0.574699,0.2127339 0.36514,0 0.565173,-0.2095589 0.565173,-0.4603939 0,-0.292112 -0.24766,-0.384191 -0.469919,-0.466744 -0.174633,-0.06668 -0.342914,-0.12383 -0.342914,-0.266711 0,-0.11748 0.0889,-0.222259 0.282586,-0.222259 0.136531,0 0.24766,0.05715 0.35244,0.136531 l 0.12383,-0.165107 c -0.11748,-0.09525 -0.285762,-0.174632 -0.479445,-0.174632 -0.333389,0 -0.530247,0.190507 -0.530247,0.438168 0,0.26036 0.24131,0.36514 0.460394,0.444518 0.168282,0.0635 0.35244,0.133355 0.35244,0.292112 0,0.133355 -0.101605,0.24131 -0.304813,0.24131 -0.184157,0 -0.320688,-0.0762 -0.454044,-0.184158 z"
       style="font-size:3.17513px;line-height:1.25;font-family:'Source Sans Pro';-inkscape-font-specification:'Source Sans Pro'"
       id="path9597" />
    <path
       d="m 19.021567,-10.447189 c 0,0.304812 0.11113,0.5143709 0.441343,0.5143709 0.09525,0 0.200034,-0.028576 0.285762,-0.057152 l -0.0508,-0.1968576 c -0.0508,0.01905 -0.120655,0.04128 -0.174632,0.04128 -0.177807,0 -0.238135,-0.107954 -0.238135,-0.298462 v -0.857285 h 0.415942 v -0.212734 h -0.415942 v -0.431817 h -0.219084 l -0.03175,0.431817 -0.24131,0.01588 v 0.196858 h 0.228609 z"
       style="font-size:3.17513px;line-height:1.25;font-family:'Source Sans Pro';-inkscape-font-specification:'Source Sans Pro'"
       id="path9599" />
    <path
       d="m 19.904251,-10.739301 c 0,0.504846 0.327038,0.8064829 0.739805,0.8064829 0.209558,0 0.374665,-0.073028 0.508021,-0.1587569 l -0.09208,-0.171457 c -0.114305,0.07303 -0.238135,0.120655 -0.384191,0.120655 -0.295287,0 -0.49532,-0.209558 -0.514371,-0.542947 h 1.041443 c 0.0064,-0.0381 0.0095,-0.0889 0.0095,-0.142881 0,-0.441343 -0.222259,-0.723929 -0.615975,-0.723929 -0.352439,0 -0.692178,0.307987 -0.692178,0.812833 z m 0.25401,-0.11748 c 0.03175,-0.311163 0.228609,-0.48897 0.444518,-0.48897 0.24131,0 0.381016,0.174632 0.381016,0.48897 z"
       style="font-size:3.17513px;line-height:1.25;font-family:'Source Sans Pro';-inkscape-font-specification:'Source Sans Pro'"
       id="path9601" />
    <path
       d="m 21.479116,-10.739301 c 0,0.504846 0.327038,0.8064829 0.739805,0.8064829 0.209559,0 0.374666,-0.073028 0.508021,-0.1587569 l -0.09208,-0.171457 c -0.114304,0.07303 -0.238134,0.120655 -0.38419,0.120655 -0.295288,0 -0.495321,-0.209558 -0.514371,-0.542947 h 1.041442 c 0.0064,-0.0381 0.0095,-0.0889 0.0095,-0.142881 0,-0.441343 -0.22226,-0.723929 -0.615976,-0.723929 -0.352439,0 -0.692178,0.307987 -0.692178,0.812833 z m 0.25401,-0.11748 c 0.03175,-0.311163 0.22861,-0.48897 0.444519,-0.48897 0.241309,0 0.381015,0.174632 0.381015,0.48897 z"
       style="font-size:3.17513px;line-height:1.25;font-family:'Source Sans Pro';-inkscape-font-specification:'Source Sans Pro'"
       id="path9603" />
    <path
       d="m 23.168286,-9.9709196 h 0.260361 V -10.96156 c 0.104779,-0.260361 0.260361,-0.355615 0.390541,-0.355615 0.0635,0 0.09843,0.0095 0.149231,0.0254 l 0.0508,-0.228609 c -0.0508,-0.02223 -0.09843,-0.03175 -0.165107,-0.03175 -0.174632,0 -0.333388,0.12383 -0.438168,0.317513 h -0.0095 l -0.02223,-0.279412 h -0.215909 z"
       style="font-size:3.17513px;line-height:1.25;font-family:'Source Sans Pro';-inkscape-font-specification:'Source Sans Pro'"
       id="path9605" />
    <path
       d="m 24.403412,-11.831546 c 0.101604,0 0.180983,-0.06985 0.180983,-0.168282 0,-0.101604 -0.07938,-0.168281 -0.180983,-0.168281 -0.101604,0 -0.180982,0.06668 -0.180982,0.168281 0,0.09843 0.07938,0.168282 0.180982,0.168282 z m -0.133355,1.8606264 h 0.26036 v -1.5431134 h -0.26036 z"
       style="font-size:3.17513px;line-height:1.25;font-family:'Source Sans Pro';-inkscape-font-specification:'Source Sans Pro'"
       id="path9607" />
    <path
       d="M 25.051139,-9.9709196 H 25.3115 v -1.1176454 c 0.155581,-0.155582 0.263536,-0.238135 0.422292,-0.238135 0.203209,0 0.292112,0.12383 0.292112,0.412767 v 0.9430134 h 0.260361 V -10.94886 c 0,-0.393716 -0.146056,-0.603274 -0.469919,-0.603274 -0.212734,0 -0.371491,0.114304 -0.517547,0.26036 h -0.0095 l -0.02223,-0.222259 h -0.215909 z"
       style="font-size:3.17513px;line-height:1.25;font-family:'Source Sans Pro';-inkscape-font-specification:'Source Sans Pro'"
       id="path9609" />
    <path
       d="m 26.899068,-9.710559 c 0,-0.088904 0.04763,-0.1809824 0.158756,-0.2603606 0.06668,0.019051 0.139706,0.025401 0.200033,0.025401 h 0.266711 c 0.200033,0 0.311163,0.047627 0.311163,0.1905078 0,0.1619316 -0.193683,0.3143379 -0.48897,0.3143379 -0.279412,0 -0.447693,-0.1047793 -0.447693,-0.2698861 z m -0.22861,0.034926 c 0,0.2667109 0.260361,0.415942 0.638201,0.415942 0.479445,0 0.781082,-0.2476601 0.781082,-0.5334218 0,-0.2571857 -0.180982,-0.3683147 -0.539772,-0.3683147 h -0.298462 c -0.209559,0 -0.273061,-0.06985 -0.273061,-0.168282 0,-0.08573 0.04445,-0.136531 0.09843,-0.184158 0.06985,0.03493 0.155581,0.05398 0.231784,0.05398 0.314338,0 0.565173,-0.206383 0.565173,-0.536597 0,-0.13018 -0.05398,-0.24766 -0.127005,-0.317513 h 0.317513 v -0.200033 h -0.536597 c -0.05715,-0.02223 -0.133355,-0.0381 -0.219084,-0.0381 -0.314338,0 -0.581048,0.212733 -0.581048,0.549297 0,0.184158 0.09843,0.333389 0.200033,0.415942 v 0.0127 c -0.07938,0.05398 -0.168282,0.155581 -0.168282,0.285761 0,0.120655 0.06033,0.203209 0.13653,0.250836 v 0.0127 c -0.139705,0.095254 -0.225434,0.2190841 -0.225434,0.3492645 z m 0.638201,-0.9588895 c -0.177807,0 -0.327038,-0.142881 -0.327038,-0.368315 0,-0.225434 0.146056,-0.35879 0.327038,-0.35879 0.180983,0 0.327039,0.133356 0.327039,0.35879 0,0.225434 -0.149231,0.368315 -0.327039,0.368315 z"
       style="font-size:3.17513px;line-height:1.25;font-family:'Source Sans Pro';-inkscape-font-specification:'Source Sans Pro'"
       id="path9611" />
    <path
       d="m 28.858121,-10.145552 c 0.146056,0.120655 0.355615,0.2127339 0.574699,0.2127339 0.36514,0 0.565173,-0.2095589 0.565173,-0.4603939 0,-0.292112 -0.24766,-0.384191 -0.469919,-0.466744 -0.174633,-0.06668 -0.342914,-0.12383 -0.342914,-0.266711 0,-0.11748 0.0889,-0.222259 0.282586,-0.222259 0.136531,0 0.24766,0.05715 0.352439,0.136531 l 0.123831,-0.165107 c -0.11748,-0.09525 -0.285762,-0.174632 -0.479445,-0.174632 -0.333389,0 -0.530247,0.190507 -0.530247,0.438168 0,0.26036 0.24131,0.36514 0.460394,0.444518 0.168282,0.0635 0.352439,0.133355 0.352439,0.292112 0,0.133355 -0.101604,0.24131 -0.304812,0.24131 -0.184158,0 -0.320688,-0.0762 -0.454044,-0.184158 z"
       style="font-size:3.17513px;line-height:1.25;font-family:'Source Sans Pro';-inkscape-font-specification:'Source Sans Pro'"
       id="path9613" />
    <path
       d="m 30.35996,-9.9709196 h 0.26036 v -1.5431134 h -0.26036 z m 0.482619,-2.2670424 h -0.273061 l -0.285762,0.447693 h 0.200034 z"
       style="font-size:3.17513px;line-height:1.25;font-family:'Source Sans Pro';-inkscape-font-specification:'Source Sans Pro'"
       id="path9615" />
    <path
       d="m 31.141043,-10.282082 c 0,0.225434 0.07938,0.3492639 0.276236,0.3492639 0.06985,0 0.114305,-0.00953 0.149231,-0.025401 l -0.03493,-0.1968579 c -0.02858,0.0064 -0.04128,0.0064 -0.05715,0.0064 -0.0381,0 -0.07303,-0.03175 -0.07303,-0.114305 v -1.96858 h -0.26036 z"
       style="font-size:3.17513px;line-height:1.25;font-family:'Source Sans Pro';-inkscape-font-specification:'Source Sans Pro'"
       id="path9617" />
    <path
       d="m 31.874495,-10.370986 c 0,0.276236 0.193683,0.4381679 0.454043,0.4381679 0.190508,0 0.361965,-0.1016039 0.511196,-0.2222589 h 0.0063 l 0.02223,0.1841574 h 0.215909 v -0.9461884 c 0,-0.384191 -0.158756,-0.635026 -0.536597,-0.635026 -0.24766,0 -0.463569,0.107954 -0.60645,0.200033 l 0.10478,0.180982 c 0.120655,-0.08255 0.279411,-0.165106 0.460394,-0.165106 0.250835,0 0.317513,0.190507 0.317513,0.387365 -0.657252,0.07303 -0.949364,0.24131 -0.949364,0.577874 z m 0.257185,-0.01905 c 0,-0.196858 0.174632,-0.323863 0.692179,-0.387366 v 0.428643 c -0.149232,0.133355 -0.273062,0.206383 -0.422293,0.206383 -0.152406,0 -0.269886,-0.07303 -0.269886,-0.24766 z"
       style="font-size:3.17513px;line-height:1.25;font-family:'Source Sans Pro';-inkscape-font-specification:'Source Sans Pro'"
       id="path9619" />
  </g>
  <g
     aria-label="steering síla"
     transform="rotate(34.419793)"
     id="text3418"
     style="font-size:7.76135px;line-height:0%;letter-spacing:0px;word-spacing:0px;fill:#e8eaec;stroke-width:0.646778px">
    <path
       d="m 19.936247,25.099465 c 0.146057,0.120655 0.355616,0.212734 0.574701,0.212734 0.365141,0 0.565175,-0.209559 0.565175,-0.460395 0,-0.292113 -0.247661,-0.384192 -0.469921,-0.466746 -0.174633,-0.06668 -0.342915,-0.12383 -0.342915,-0.266711 0,-0.117481 0.0889,-0.22226 0.282587,-0.22226 0.136531,0 0.247661,0.05715 0.352441,0.136531 l 0.12383,-0.165108 c -0.11748,-0.09525 -0.285762,-0.174632 -0.479446,-0.174632 -0.33339,0 -0.530248,0.190508 -0.530248,0.438169 0,0.260362 0.24131,0.365141 0.460395,0.44452 0.168282,0.0635 0.352441,0.133356 0.352441,0.292113 0,0.133355 -0.101605,0.24131 -0.304814,0.24131 -0.184158,0 -0.320689,-0.0762 -0.454045,-0.184158 z"
       style="font-size:3.17514px;line-height:1.25;font-family:'Source Sans Pro';-inkscape-font-specification:'Source Sans Pro'"
       id="path9622" />
    <path
       d="m 21.482542,24.797826 c 0,0.304814 0.11113,0.514373 0.441345,0.514373 0.09525,0 0.200034,-0.02858 0.285762,-0.05715 l -0.0508,-0.196859 c -0.0508,0.01905 -0.120655,0.04128 -0.174632,0.04128 -0.177808,0 -0.238136,-0.107955 -0.238136,-0.298463 v -0.857288 h 0.415943 V 23.730979 H 21.746079 V 23.29916 h -0.219085 l -0.03175,0.431819 -0.241311,0.01588 v 0.196859 h 0.22861 z"
       style="font-size:3.17514px;line-height:1.25;font-family:'Source Sans Pro';-inkscape-font-specification:'Source Sans Pro'"
       id="path9624" />
    <path
       d="m 22.365228,24.505714 c 0,0.504847 0.32704,0.806485 0.739808,0.806485 0.209559,0 0.374667,-0.07303 0.508022,-0.158757 l -0.09208,-0.171457 c -0.114305,0.07303 -0.238135,0.120655 -0.384192,0.120655 -0.295288,0 -0.495321,-0.209559 -0.514372,-0.542949 h 1.041446 c 0.0063,-0.0381 0.0095,-0.0889 0.0095,-0.142881 0,-0.441345 -0.22226,-0.723932 -0.615977,-0.723932 -0.352441,0 -0.692181,0.307988 -0.692181,0.812836 z m 0.254012,-0.117481 c 0.03175,-0.311163 0.22861,-0.488971 0.444519,-0.488971 0.241311,0 0.381017,0.174633 0.381017,0.488971 z"
       style="font-size:3.17514px;line-height:1.25;font-family:'Source Sans Pro';-inkscape-font-specification:'Source Sans Pro'"
       id="path9626" />
    <path
       d="m 23.940099,24.505714 c 0,0.504847 0.327039,0.806485 0.739808,0.806485 0.209559,0 0.374666,-0.07303 0.508022,-0.158757 l -0.09208,-0.171457 c -0.114305,0.07303 -0.238136,0.120655 -0.384192,0.120655 -0.295288,0 -0.495322,-0.209559 -0.514373,-0.542949 h 1.041446 c 0.0064,-0.0381 0.0095,-0.0889 0.0095,-0.142881 0,-0.441345 -0.22226,-0.723932 -0.615977,-0.723932 -0.352441,0 -0.692181,0.307988 -0.692181,0.812836 z m 0.254011,-0.117481 c 0.03175,-0.311163 0.22861,-0.488971 0.44452,-0.488971 0.24131,0 0.381017,0.174633 0.381017,0.488971 z"
       style="font-size:3.17514px;line-height:1.25;font-family:'Source Sans Pro';-inkscape-font-specification:'Source Sans Pro'"
       id="path9628" />
    <path
       d="m 25.629274,25.274097 h 0.260362 v -0.990643 c 0.104779,-0.260362 0.260361,-0.355616 0.390542,-0.355616 0.0635,0 0.09843,0.0095 0.149231,0.0254 l 0.0508,-0.22861 c -0.0508,-0.02223 -0.09843,-0.03175 -0.165108,-0.03175 -0.174632,0 -0.333389,0.12383 -0.438169,0.317514 h -0.0095 l -0.02223,-0.279413 h -0.21591 z"
       style="font-size:3.17514px;line-height:1.25;font-family:'Source Sans Pro';-inkscape-font-specification:'Source Sans Pro'"
       id="path9630" />
    <path
       d="m 26.864404,23.413465 c 0.101605,0 0.180983,-0.06985 0.180983,-0.168282 0,-0.101604 -0.07938,-0.168282 -0.180983,-0.168282 -0.101604,0 -0.180983,0.06668 -0.180983,0.168282 0,0.09843 0.07938,0.168282 0.180983,0.168282 z m -0.133356,1.860632 h 0.260362 v -1.543118 h -0.260362 z"
       style="font-size:3.17514px;line-height:1.25;font-family:'Source Sans Pro';-inkscape-font-specification:'Source Sans Pro'"
       id="path9632" />
    <path
       d="m 27.512133,25.274097 h 0.260362 v -1.117649 c 0.155582,-0.155582 0.263536,-0.238135 0.422293,-0.238135 0.203209,0 0.292113,0.12383 0.292113,0.412768 v 0.943016 h 0.260362 v -0.977943 c 0,-0.393717 -0.146057,-0.603276 -0.469921,-0.603276 -0.212734,0 -0.371491,0.114305 -0.517548,0.260361 h -0.0095 l -0.02223,-0.22226 h -0.21591 z"
       style="font-size:3.17514px;line-height:1.25;font-family:'Source Sans Pro';-inkscape-font-specification:'Source Sans Pro'"
       id="path9634" />
    <path
       d="m 29.360068,25.534459 c 0,-0.0889 0.04763,-0.180983 0.158757,-0.260362 0.06668,0.01905 0.139706,0.0254 0.200034,0.0254 h 0.266712 c 0.200034,0 0.311164,0.04763 0.311164,0.190508 0,0.161932 -0.193684,0.314339 -0.488972,0.314339 -0.279412,0 -0.447695,-0.10478 -0.447695,-0.269887 z m -0.22861,0.03493 c 0,0.266712 0.260362,0.415944 0.638203,0.415944 0.479446,0 0.781085,-0.247661 0.781085,-0.533424 0,-0.257186 -0.180983,-0.368316 -0.539774,-0.368316 h -0.298463 c -0.209559,0 -0.273062,-0.06985 -0.273062,-0.168282 0,-0.08573 0.04445,-0.136531 0.09843,-0.184158 0.06985,0.03493 0.155582,0.05398 0.231785,0.05398 0.314339,0 0.565175,-0.206384 0.565175,-0.536599 0,-0.13018 -0.05398,-0.247661 -0.127005,-0.317514 h 0.317514 v -0.200034 h -0.536599 c -0.05715,-0.02223 -0.133356,-0.0381 -0.219085,-0.0381 -0.314339,0 -0.58105,0.212734 -0.58105,0.549299 0,0.184158 0.09843,0.33339 0.200034,0.415943 v 0.0127 c -0.07938,0.05398 -0.168283,0.155582 -0.168283,0.285762 0,0.120656 0.06033,0.203209 0.136531,0.250837 v 0.0127 c -0.139706,0.09525 -0.225435,0.219085 -0.225435,0.349265 z m 0.638203,-0.958892 c -0.177808,0 -0.327039,-0.142881 -0.327039,-0.368316 0,-0.225435 0.146056,-0.358791 0.327039,-0.358791 0.180983,0 0.32704,0.133356 0.32704,0.358791 0,0.225435 -0.149232,0.368316 -0.32704,0.368316 z"
       style="font-size:3.17514px;line-height:1.25;font-family:'Source Sans Pro';-inkscape-font-specification:'Source Sans Pro'"
       id="path9636" />
    <path
       d="m 31.319128,25.099465 c 0.146056,0.120655 0.355615,0.212734 0.5747,0.212734 0.365141,0 0.565175,-0.209559 0.565175,-0.460395 0,-0.292113 -0.247661,-0.384192 -0.469921,-0.466746 -0.174633,-0.06668 -0.342915,-0.12383 -0.342915,-0.266711 0,-0.117481 0.0889,-0.22226 0.282587,-0.22226 0.136531,0 0.247661,0.05715 0.352441,0.136531 l 0.12383,-0.165108 c -0.11748,-0.09525 -0.285762,-0.174632 -0.479446,-0.174632 -0.333389,0 -0.530248,0.190508 -0.530248,0.438169 0,0.260362 0.241311,0.365141 0.460395,0.44452 0.168283,0.0635 0.352441,0.133356 0.352441,0.292113 0,0.133355 -0.101605,0.24131 -0.304814,0.24131 -0.184158,0 -0.320689,-0.0762 -0.454045,-0.184158 z"
       style="font-size:3.17514px;line-height:1.25;font-family:'Source Sans Pro';-inkscape-font-specification:'Source Sans Pro'"
       id="path9638" />
    <path
       d="m 32.82097,25.274097 h 0.260362 V 23.730979 H 32.82097 Z m 0.482622,-2.267049 H 33.03053 l -0.285763,0.447694 h 0.200034 z"
       style="font-size:3.17514px;line-height:1.25;font-family:'Source Sans Pro';-inkscape-font-specification:'Source Sans Pro'"
       id="path9640" />
    <path
       d="m 33.602055,24.962934 c 0,0.225435 0.07938,0.349265 0.276238,0.349265 0.06985,0 0.114305,-0.0095 0.149231,-0.0254 l -0.03493,-0.196859 c -0.02858,0.0064 -0.04128,0.0064 -0.05715,0.0064 -0.0381,0 -0.07303,-0.03175 -0.07303,-0.114305 v -1.968587 h -0.260362 z"
       style="font-size:3.17514px;line-height:1.25;font-family:'Source Sans Pro';-inkscape-font-specification:'Source Sans Pro'"
       id="path9642" />
    <path
       d="m 34.33551,24.87403 c 0,0.276237 0.193684,0.438169 0.454045,0.438169 0.190508,0 0.361966,-0.101604 0.511198,-0.22226 h 0.0063 l 0.02223,0.184158 h 0.215909 v -0.946191 c 0,-0.384192 -0.158757,-0.635028 -0.536598,-0.635028 -0.247661,0 -0.463571,0.107955 -0.606452,0.200034 l 0.10478,0.180983 c 0.120655,-0.08255 0.279412,-0.165108 0.460395,-0.165108 0.250836,0 0.317514,0.190509 0.317514,0.387367 -0.657254,0.07303 -0.949367,0.241311 -0.949367,0.577876 z m 0.257186,-0.01905 c 0,-0.196859 0.174633,-0.323864 0.692181,-0.387367 v 0.428644 c -0.149232,0.133356 -0.273062,0.206384 -0.422294,0.206384 -0.152406,0 -0.269887,-0.07303 -0.269887,-0.247661 z"
       style="font-size:3.17514px;line-height:1.25;font-family:'Source Sans Pro';-inkscape-font-specification:'Source Sans Pro'"
       id="path9644" />
  </g>
  <g
     aria-label="současná rychlost"
     transform="rotate(-60)"
     id="text3422"
     style="font-size:7.76135px;line-height:0%;letter-spacing:0px;word-spacing:0px;fill:#e8eaec;stroke-width:0.646778px">
    <path
       d="m -17.788027,15.14735 c 0.146056,0.120655 0.355615,0.212734 0.574699,0.212734 0.36514,0 0.565173,-0.209559 0.565173,-0.460394 0,-0.292112 -0.24766,-0.384191 -0.469919,-0.466744 -0.174632,-0.06668 -0.342914,-0.12383 -0.342914,-0.266711 0,-0.11748 0.0889,-0.222259 0.282586,-0.222259 0.136531,0 0.24766,0.05715 0.35244,0.136531 l 0.12383,-0.165107 c -0.11748,-0.09525 -0.285762,-0.174632 -0.479445,-0.174632 -0.333388,0 -0.530246,0.190507 -0.530246,0.438168 0,0.26036 0.241309,0.36514 0.460393,0.444518 0.168282,0.0635 0.35244,0.133355 0.35244,0.292112 0,0.133355 -0.101604,0.24131 -0.304813,0.24131 -0.184157,0 -0.320688,-0.0762 -0.454043,-0.184158 z"
       style="font-size:3.17513px;line-height:1.25;font-family:'Source Sans Pro';-inkscape-font-specification:'Source Sans Pro'"
       id="path9647" />
    <path
       d="m -16.400493,14.553601 c 0,0.511196 0.336564,0.806483 0.714404,0.806483 0.377841,0 0.714405,-0.295287 0.714405,-0.806483 0,-0.517546 -0.336564,-0.812833 -0.714405,-0.812833 -0.37784,0 -0.714404,0.295287 -0.714404,0.812833 z m 0.269886,0 c 0,-0.355615 0.180983,-0.596924 0.444518,-0.596924 0.266711,0 0.444519,0.241309 0.444519,0.596924 0,0.352439 -0.177808,0.590574 -0.444519,0.590574 -0.263535,0 -0.444518,-0.238135 -0.444518,-0.590574 z"
       style="font-size:3.17513px;line-height:1.25;font-family:'Source Sans Pro';-inkscape-font-specification:'Source Sans Pro'"
       id="path9649" />
    <path
       d="m -14.587494,14.756809 c 0,0.393716 0.146056,0.603275 0.473094,0.603275 0.212734,0 0.36514,-0.11113 0.508021,-0.279411 h 0.0095 l 0.02223,0.241309 h 0.215909 v -1.543113 h -0.260361 v 1.09542 c -0.146056,0.180982 -0.257185,0.260361 -0.415942,0.260361 -0.203208,0 -0.288936,-0.12383 -0.288936,-0.412767 v -0.943014 h -0.263536 z"
       style="font-size:3.17513px;line-height:1.25;font-family:'Source Sans Pro';-inkscape-font-specification:'Source Sans Pro'"
       id="path9651" />
    <path
       d="m -12.9523,14.553601 c 0,0.511196 0.314338,0.806483 0.723929,0.806483 0.184158,0 0.361965,-0.0762 0.501671,-0.200033 l -0.11748,-0.171457 c -0.09208,0.08255 -0.215909,0.155581 -0.361965,0.155581 -0.282586,0 -0.476269,-0.238135 -0.476269,-0.590574 0,-0.355615 0.203208,-0.596924 0.48262,-0.596924 0.12383,0 0.219083,0.05715 0.311162,0.13653 l 0.130181,-0.168282 c -0.10478,-0.09843 -0.247661,-0.184157 -0.450869,-0.184157 -0.396891,0 -0.74298,0.295287 -0.74298,0.812833 z m 0.631851,-1.050968 h 0.212733 l 0.301638,-0.447693 h -0.187333 l -0.212734,0.292112 h -0.0127 l -0.212734,-0.292112 h -0.190508 z"
       style="font-size:3.17513px;line-height:1.25;font-family:'Source Sans Pro';-inkscape-font-specification:'Source Sans Pro'"
       id="path9653" />
    <path
       d="m -11.498093,14.921916 c 0,0.276236 0.193682,0.438168 0.454043,0.438168 0.190508,0 0.361965,-0.101604 0.511196,-0.222259 h 0.0064 l 0.02223,0.184157 h 0.215909 v -0.946188 c 0,-0.384191 -0.158756,-0.635026 -0.536597,-0.635026 -0.24766,0 -0.463569,0.107954 -0.60645,0.200033 l 0.10478,0.180982 c 0.120655,-0.08255 0.279411,-0.165106 0.460393,-0.165106 0.250836,0 0.317513,0.190507 0.317513,0.387365 -0.657251,0.07303 -0.949363,0.24131 -0.949363,0.577874 z m 0.257185,-0.01905 c 0,-0.196858 0.174632,-0.323863 0.692178,-0.387366 v 0.428643 c -0.149231,0.133355 -0.273061,0.206383 -0.422292,0.206383 -0.152406,0 -0.269886,-0.07303 -0.269886,-0.24766 z"
       style="font-size:3.17513px;line-height:1.25;font-family:'Source Sans Pro';-inkscape-font-specification:'Source Sans Pro'"
       id="path9655" />
    <path
       d="m -9.9676836,15.14735 c 0.146056,0.120655 0.3556146,0.212734 0.5746985,0.212734 0.36514,0 0.5651731,-0.209559 0.5651731,-0.460394 0,-0.292112 -0.2476601,-0.384191 -0.4699192,-0.466744 -0.1746321,-0.06668 -0.342914,-0.12383 -0.342914,-0.266711 0,-0.11748 0.088904,-0.222259 0.2825866,-0.222259 0.1365305,0 0.2476601,0.05715 0.3524394,0.136531 l 0.12383,-0.165107 c -0.1174798,-0.09525 -0.2857616,-0.174632 -0.4794446,-0.174632 -0.3333886,0 -0.5302467,0.190507 -0.5302467,0.438168 0,0.26036 0.2413099,0.36514 0.4603939,0.444518 0.1682819,0.0635 0.3524394,0.133355 0.3524394,0.292112 0,0.133355 -0.1016042,0.24131 -0.3048125,0.24131 -0.1841575,0 -0.3206881,-0.0762 -0.4540436,-0.184158 z"
       style="font-size:3.17513px;line-height:1.25;font-family:'Source Sans Pro';-inkscape-font-specification:'Source Sans Pro'"
       id="path9657" />
    <path
       d="m -8.4658452,15.321982 h 0.2603607 v -1.117645 c 0.1555813,-0.155582 0.2635358,-0.238135 0.4222923,-0.238135 0.2032083,0 0.2921119,0.12383 0.2921119,0.412767 v 0.943013 h 0.2603607 v -0.97794 c 0,-0.393716 -0.146056,-0.603274 -0.4699193,-0.603274 -0.2127337,0 -0.3714902,0.114304 -0.5175461,0.26036 h -0.00953 l -0.022226,-0.222259 h -0.2159089 z"
       style="font-size:3.17513px;line-height:1.25;font-family:'Source Sans Pro';-inkscape-font-specification:'Source Sans Pro'"
       id="path9659" />
    <path
       d="m -6.8052491,14.921916 c 0,0.276236 0.193683,0.438168 0.4540436,0.438168 0.1905078,0 0.3619648,-0.101604 0.5111959,-0.222259 h 0.00635 l 0.022226,0.184157 h 0.2159088 v -0.946188 c 0,-0.384191 -0.1587565,-0.635026 -0.5365969,-0.635026 -0.2476601,0 -0.463569,0.107954 -0.6064498,0.200033 l 0.1047793,0.180982 c 0.1206549,-0.08255 0.2794114,-0.165106 0.4603938,-0.165106 0.2508353,0 0.317513,0.190507 0.317513,0.387365 -0.6572519,0.07303 -0.9493639,0.24131 -0.9493639,0.577874 z m 0.2571856,-0.01905 c 0,-0.196858 0.1746321,-0.323863 0.6921783,-0.387366 v 0.428643 c -0.1492311,0.133355 -0.2730612,0.206383 -0.4222923,0.206383 -0.1524062,0 -0.269886,-0.07303 -0.269886,-0.24766 z m 0.7652063,-1.847925 h -0.2730612 l -0.2857617,0.447693 h 0.2000332 z"
       style="font-size:3.17513px;line-height:1.25;font-family:'Source Sans Pro';-inkscape-font-specification:'Source Sans Pro'"
       id="path9661" />
    <path
       d="m -4.4620076,15.321982 h 0.2603607 v -0.99064 c 0.1047792,-0.260361 0.2603606,-0.355615 0.3905409,-0.355615 0.063503,0 0.098429,0.0095 0.1492311,0.0254 l 0.050802,-0.228609 c -0.050802,-0.02223 -0.098429,-0.03175 -0.1651067,-0.03175 -0.1746322,0 -0.3333887,0.12383 -0.438168,0.317513 h -0.00953 l -0.022226,-0.279412 h -0.2159088 z"
       style="font-size:3.17513px;line-height:1.25;font-family:'Source Sans Pro';-inkscape-font-specification:'Source Sans Pro'"
       id="path9663" />
    <path
       d="m -3.4046918,15.74745 -0.050802,0.206383 c 0.050802,0.01905 0.1111296,0.03175 0.1809824,0.03175 0.3111627,0 0.4699192,-0.231785 0.5778737,-0.536597 l 0.5810487,-1.670119 h -0.2540104 l -0.2762363,0.85411 c -0.041277,0.136531 -0.085729,0.295287 -0.1301803,0.434993 h -0.0127 c -0.047627,-0.142881 -0.1016042,-0.301637 -0.1492311,-0.434993 l -0.3143379,-0.85411 h -0.269886 l 0.6191503,1.546289 -0.034926,0.114304 c -0.063503,0.190508 -0.1746322,0.330214 -0.3492643,0.330214 -0.038102,0 -0.085729,-0.0127 -0.1174798,-0.02223 z"
       style="font-size:3.17513px;line-height:1.25;font-family:'Source Sans Pro';-inkscape-font-specification:'Source Sans Pro'"
       id="path9665" />
    <path
       d="m -1.9441282,14.553601 c 0,0.511196 0.3143378,0.806483 0.7239296,0.806483 0.1841575,0 0.36196479,-0.0762 0.5016705,-0.200033 l -0.11747981,-0.171457 c -0.0920788,0.08255 -0.21590879,0.155581 -0.36196479,0.155581 -0.2825866,0 -0.4762695,-0.238135 -0.4762695,-0.590574 0,-0.355615 0.2032083,-0.596924 0.4826197,-0.596924 0.1238301,0 0.21908401,0.05715 0.31116278,0.13653 l 0.13018032,-0.168282 c -0.10477928,-0.09843 -0.24766013,-0.184157 -0.4508684,-0.184157 -0.3968913,0 -0.7429804,0.295287 -0.7429804,0.812833 z"
       style="font-size:3.17513px;line-height:1.25;font-family:'Source Sans Pro';-inkscape-font-specification:'Source Sans Pro'"
       id="path9667" />
    <path
       d="m -0.3819657,15.321982 h 0.26036065 v -1.117645 c 0.15558136,-0.155582 0.26353578,-0.238135 0.42229227,-0.238135 0.20320832,0 0.29211195,0.12383 0.29211195,0.412767 v 0.943013 h 0.26036065 v -0.97794 c 0,-0.393716 -0.14605597,-0.603274 -0.46991922,-0.603274 -0.2127337,0 -0.36831507,0.114304 -0.51437104,0.25401 l 0.009525,-0.317513 V 13.06129 H -0.3819657 Z"
       style="font-size:3.17513px;line-height:1.25;font-family:'Source Sans Pro';-inkscape-font-specification:'Source Sans Pro'"
       id="path9669" />
    <path
       d="m 1.3453063,15.01082 c 0,0.225434 0.079378,0.349264 0.2762363,0.349264 0.069853,0 0.1143047,-0.0095 0.1492311,-0.0254 l -0.034926,-0.196858 c -0.028576,0.0064 -0.041277,0.0064 -0.057152,0.0064 -0.038102,0 -0.073028,-0.03175 -0.073028,-0.114305 V 13.06129 H 1.3453063 Z"
       style="font-size:3.17513px;line-height:1.25;font-family:'Source Sans Pro';-inkscape-font-specification:'Source Sans Pro'"
       id="path9671" />
    <path
       d="m 2.0406578,14.553601 c 0,0.511196 0.3365638,0.806483 0.7144042,0.806483 0.3778405,0 0.7144042,-0.295287 0.7144042,-0.806483 0,-0.517546 -0.3365637,-0.812833 -0.7144042,-0.812833 -0.3778404,0 -0.7144042,0.295287 -0.7144042,0.812833 z m 0.269886,0 c 0,-0.355615 0.1809824,-0.596924 0.4445182,-0.596924 0.2667109,0 0.4445182,0.241309 0.4445182,0.596924 0,0.352439 -0.1778073,0.590574 -0.4445182,0.590574 -0.2635358,0 -0.4445182,-0.238135 -0.4445182,-0.590574 z"
       style="font-size:3.17513px;line-height:1.25;font-family:'Source Sans Pro';-inkscape-font-specification:'Source Sans Pro'"
       id="path9673" />
    <path
       d="m 3.7044241,15.14735 c 0.146056,0.120655 0.3556146,0.212734 0.5746985,0.212734 0.36514,0 0.5651731,-0.209559 0.5651731,-0.460394 0,-0.292112 -0.2476601,-0.384191 -0.4699192,-0.466744 -0.1746321,-0.06668 -0.342914,-0.12383 -0.342914,-0.266711 0,-0.11748 0.088904,-0.222259 0.2825866,-0.222259 0.1365305,0 0.2476601,0.05715 0.3524394,0.136531 l 0.12383,-0.165107 c -0.1174798,-0.09525 -0.2857617,-0.174632 -0.4794446,-0.174632 -0.3333886,0 -0.5302467,0.190507 -0.5302467,0.438168 0,0.26036 0.2413099,0.36514 0.4603939,0.444518 0.1682818,0.0635 0.3524394,0.133355 0.3524394,0.292112 0,0.133355 -0.1016042,0.24131 -0.3048125,0.24131 -0.1841575,0 -0.3206881,-0.0762 -0.4540436,-0.184158 z"
       style="font-size:3.17513px;line-height:1.25;font-family:'Source Sans Pro';-inkscape-font-specification:'Source Sans Pro'"
       id="path9675" />
    <path
       d="m 5.2507143,14.845713 c 0,0.304812 0.1111296,0.514371 0.4413431,0.514371 0.095254,0 0.2000332,-0.02858 0.2857617,-0.05715 L 5.927017,15.106074 c -0.050802,0.01905 -0.1206549,0.04128 -0.1746321,0.04128 -0.1778073,0 -0.2381348,-0.107954 -0.2381348,-0.298462 v -0.857285 h 0.415942 V 13.778869 H 5.5142501 V 13.347052 H 5.2951662 l -0.031751,0.431817 -0.2413099,0.01588 v 0.196858 h 0.2286093 z"
       style="font-size:3.17513px;line-height:1.25;font-family:'Source Sans Pro';-inkscape-font-specification:'Source Sans Pro'"
       id="path9677" />
  </g>
  <g
     aria-label="výslednice rychlosti"
     transform="rotate(-20.56213)"
     id="text3426"
     style="font-size:7.76135px;line-height:0%;letter-spacing:0px;word-spacing:0px;fill:#e8eaec;stroke-width:0.646778px">
    <path
       d="m -0.74238884,26.445547 h 0.30481247 L 0.10854597,24.902434 H -0.14863955 L -0.4407515,25.77877 c -0.0444518,0.152406 -0.0952539,0.307987 -0.13970572,0.454043 h -0.0127005 c -0.0476269,-0.146056 -0.098429,-0.301637 -0.14288085,-0.454043 L -1.0281505,24.902434 h -0.2698861 z"
       style="font-size:3.17513px;line-height:1.25;font-family:'Source Sans Pro';-inkscape-font-specification:'Source Sans Pro'"
       id="path9680" />
    <path
       d="m 0.30223192,26.871015 -0.0508021,0.206383 c 0.0508021,0.01905 0.11112955,0.03175 0.1809824,0.03175 0.31116273,0 0.46991923,-0.231784 0.57787366,-0.536597 L 1.5913347,24.902434 H 1.3373243 l -0.2762363,0.85411 c -0.041277,0.136531 -0.0857286,0.295287 -0.13018036,0.434993 H 0.91820712 C 0.87058017,26.048656 0.81660296,25.889899 0.76897601,25.756544 L 0.45463815,24.902434 H 0.18475211 l 0.61915033,1.546288 -0.0349264,0.114305 c -0.0635026,0.190508 -0.17463214,0.330213 -0.34926429,0.330213 -0.0381016,0 -0.0857285,-0.0127 -0.1174798,-0.02222 z M 1.2706465,24.178504 H 0.99758536 l -0.28576169,0.447694 h 0.20003319 z"
       style="font-size:3.17513px;line-height:1.25;font-family:'Source Sans Pro';-inkscape-font-specification:'Source Sans Pro'"
       id="path9682" />
    <path
       d="m 1.7183429,26.270915 c 0.1460559,0.120655 0.3556145,0.212734 0.5746985,0.212734 0.3651399,0 0.5651731,-0.209559 0.5651731,-0.460394 0,-0.292112 -0.2476601,-0.384191 -0.4699192,-0.466744 -0.1746322,-0.06668 -0.342914,-0.12383 -0.342914,-0.266711 0,-0.11748 0.088904,-0.222259 0.2825865,-0.222259 0.1365306,0 0.2476601,0.05715 0.3524394,0.13653 l 0.1238301,-0.165106 c -0.1174798,-0.09525 -0.2857617,-0.174633 -0.4794446,-0.174633 -0.3333887,0 -0.5302467,0.190508 -0.5302467,0.438168 0,0.260361 0.2413099,0.36514 0.4603938,0.444519 0.1682819,0.0635 0.3524394,0.133355 0.3524394,0.292111 0,0.133356 -0.1016041,0.24131 -0.3048124,0.24131 -0.1841576,0 -0.3206881,-0.0762 -0.4540436,-0.184157 z"
       style="font-size:3.17513px;line-height:1.25;font-family:'Source Sans Pro';-inkscape-font-specification:'Source Sans Pro'"
       id="path9684" />
    <path
       d="m 3.220181,26.134384 c 0,0.225435 0.079378,0.349265 0.2762363,0.349265 0.069853,0 0.1143047,-0.0095 0.1492311,-0.0254 L 3.610722,26.26139 c -0.028576,0.0064 -0.041277,0.0064 -0.057152,0.0064 -0.038102,0 -0.073028,-0.03175 -0.073028,-0.114305 v -1.96858 H 3.220181 Z"
       style="font-size:3.17513px;line-height:1.25;font-family:'Source Sans Pro';-inkscape-font-specification:'Source Sans Pro'"
       id="path9686" />
    <path
       d="m 3.915532,25.677166 c 0,0.504845 0.3270384,0.806483 0.7398053,0.806483 0.2095586,0 0.3746653,-0.07303 0.5080208,-0.158757 l -0.092079,-0.171457 c -0.1143047,0.07303 -0.2381347,0.120655 -0.3841907,0.120655 -0.2952871,0 -0.4953203,-0.209558 -0.514371,-0.542947 h 1.0414426 c 0.00635,-0.0381 0.00953,-0.0889 0.00953,-0.142881 0,-0.441343 -0.222259,-0.72393 -0.6159752,-0.72393 -0.3524394,0 -0.6921783,0.307988 -0.6921783,0.812834 z m 0.2540104,-0.11748 c 0.031751,-0.311163 0.2286094,-0.48897 0.4445182,-0.48897 0.2413099,0 0.3810156,0.174632 0.3810156,0.48897 z"
       style="font-size:3.17513px;line-height:1.25;font-family:'Source Sans Pro';-inkscape-font-specification:'Source Sans Pro'"
       id="path9688" />
    <path
       d="m 5.4935725,25.677166 c 0,0.514371 0.2508353,0.806483 0.6382011,0.806483 0.1809824,0 0.3460892,-0.101604 0.4667441,-0.219084 h 0.00953 l 0.022226,0.180982 H 6.8461778 V 24.184855 H 6.5826421 v 0.593749 l 0.012701,0.263536 C 6.458812,24.93101 6.3413322,24.864332 6.1635249,24.864332 c -0.3524394,0 -0.6699524,0.311163 -0.6699524,0.812834 z m 0.269886,-0.0032 c 0,-0.35244 0.1968581,-0.590575 0.4445182,-0.590575 0.1270052,0 0.244485,0.04445 0.3746654,0.161932 v 0.806483 c -0.1270052,0.142881 -0.2508353,0.212734 -0.3937162,0.212734 -0.269886,0 -0.4254674,-0.222259 -0.4254674,-0.590574 z"
       style="font-size:3.17513px;line-height:1.25;font-family:'Source Sans Pro';-inkscape-font-specification:'Source Sans Pro'"
       id="path9690" />
    <path
       d="m 7.3669,26.445547 h 0.2603607 v -1.117646 c 0.1555813,-0.155581 0.2635358,-0.238134 0.4222922,-0.238134 0.2032084,0 0.292112,0.12383 0.292112,0.412767 v 0.943013 h 0.2603606 v -0.97794 c 0,-0.393716 -0.1460559,-0.603275 -0.4699192,-0.603275 -0.2127337,0 -0.3714902,0.114305 -0.5175461,0.260361 h -0.00953 L 7.5828089,24.902434 H 7.3669 Z"
       style="font-size:3.17513px;line-height:1.25;font-family:'Source Sans Pro';-inkscape-font-specification:'Source Sans Pro'"
       id="path9692" />
    <path
       d="m 9.2370547,24.584921 c 0.1016042,0 0.1809824,-0.06985 0.1809824,-0.168282 0,-0.101604 -0.079378,-0.168282 -0.1809824,-0.168282 -0.1016041,0 -0.1809824,0.06668 -0.1809824,0.168282 0,0.09843 0.079378,0.168282 0.1809824,0.168282 z M 9.1036993,26.445547 H 9.3640599 V 24.902434 H 9.1036993 Z"
       style="font-size:3.17513px;line-height:1.25;font-family:'Source Sans Pro';-inkscape-font-specification:'Source Sans Pro'"
       id="path9694" />
    <path
       d="m 9.7704777,25.677166 c 0,0.511196 0.3143383,0.806483 0.7239293,0.806483 0.184158,0 0.361965,-0.0762 0.501671,-0.200034 l -0.11748,-0.171457 c -0.09208,0.08255 -0.215909,0.155582 -0.361965,0.155582 -0.282586,0 -0.476269,-0.238135 -0.476269,-0.590574 0,-0.355615 0.203208,-0.596925 0.482619,-0.596925 0.123831,0 0.219084,0.05715 0.311163,0.136531 l 0.130181,-0.168282 c -0.10478,-0.09843 -0.247661,-0.184158 -0.450869,-0.184158 -0.396891,0 -0.7429803,0.295287 -0.7429803,0.812834 z"
       style="font-size:3.17513px;line-height:1.25;font-family:'Source Sans Pro';-inkscape-font-specification:'Source Sans Pro'"
       id="path9696" />
    <path
       d="m 11.151658,25.677166 c 0,0.504845 0.327038,0.806483 0.739805,0.806483 0.209558,0 0.374665,-0.07303 0.508021,-0.158757 l -0.09208,-0.171457 c -0.114305,0.07303 -0.238135,0.120655 -0.384191,0.120655 -0.295287,0 -0.49532,-0.209558 -0.514371,-0.542947 h 1.041443 c 0.0063,-0.0381 0.0095,-0.0889 0.0095,-0.142881 0,-0.441343 -0.222259,-0.72393 -0.615975,-0.72393 -0.35244,0 -0.692178,0.307988 -0.692178,0.812834 z m 0.25401,-0.11748 c 0.03175,-0.311163 0.228609,-0.48897 0.444518,-0.48897 0.24131,0 0.381016,0.174632 0.381016,0.48897 z"
       style="font-size:3.17513px;line-height:1.25;font-family:'Source Sans Pro';-inkscape-font-specification:'Source Sans Pro'"
       id="path9698" />
    <path
       d="m 13.482202,26.445547 h 0.260361 v -0.99064 c 0.104779,-0.260361 0.26036,-0.355615 0.390541,-0.355615 0.0635,0 0.09843,0.0095 0.149231,0.0254 l 0.0508,-0.228609 c -0.0508,-0.02223 -0.09843,-0.03175 -0.165107,-0.03175 -0.174632,0 -0.333388,0.12383 -0.438168,0.317513 h -0.0095 l -0.02223,-0.279411 h -0.215909 z"
       style="font-size:3.17513px;line-height:1.25;font-family:'Source Sans Pro';-inkscape-font-specification:'Source Sans Pro'"
       id="path9700" />
    <path
       d="m 14.539518,26.871015 -0.0508,0.206383 c 0.0508,0.01905 0.111129,0.03175 0.180982,0.03175 0.311163,0 0.469919,-0.231784 0.577874,-0.536597 l 0.581049,-1.670118 H 15.57461 l -0.276236,0.85411 c -0.04128,0.136531 -0.08573,0.295287 -0.13018,0.434993 h -0.0127 c -0.04763,-0.142881 -0.101604,-0.301638 -0.149231,-0.434993 l -0.314338,-0.85411 h -0.269886 l 0.61915,1.546288 -0.03493,0.114305 c -0.0635,0.190508 -0.174632,0.330213 -0.349264,0.330213 -0.0381,0 -0.08573,-0.0127 -0.11748,-0.02222 z"
       style="font-size:3.17513px;line-height:1.25;font-family:'Source Sans Pro';-inkscape-font-specification:'Source Sans Pro'"
       id="path9702" />
    <path
       d="m 16.000082,25.677166 c 0,0.511196 0.314338,0.806483 0.72393,0.806483 0.184158,0 0.361965,-0.0762 0.501671,-0.200034 l -0.11748,-0.171457 c -0.09208,0.08255 -0.215909,0.155582 -0.361965,0.155582 -0.282587,0 -0.47627,-0.238135 -0.47627,-0.590574 0,-0.355615 0.203209,-0.596925 0.48262,-0.596925 0.12383,0 0.219084,0.05715 0.311163,0.136531 l 0.13018,-0.168282 c -0.104779,-0.09843 -0.24766,-0.184158 -0.450868,-0.184158 -0.396891,0 -0.742981,0.295287 -0.742981,0.812834 z"
       style="font-size:3.17513px;line-height:1.25;font-family:'Source Sans Pro';-inkscape-font-specification:'Source Sans Pro'"
       id="path9704" />
    <path
       d="m 17.562244,26.445547 h 0.260361 v -1.117646 c 0.155581,-0.155581 0.263535,-0.238134 0.422292,-0.238134 0.203208,0 0.292112,0.12383 0.292112,0.412767 v 0.943013 h 0.260361 v -0.97794 c 0,-0.393716 -0.146056,-0.603275 -0.46992,-0.603275 -0.212733,0 -0.368315,0.114305 -0.514371,0.254011 l 0.0095,-0.317513 v -0.615975 h -0.260361 z"
       style="font-size:3.17513px;line-height:1.25;font-family:'Source Sans Pro';-inkscape-font-specification:'Source Sans Pro'"
       id="path9706" />
    <path
       d="m 19.289516,26.134384 c 0,0.225435 0.07938,0.349265 0.276236,0.349265 0.06985,0 0.114305,-0.0095 0.149231,-0.0254 l -0.03493,-0.196858 c -0.02858,0.0064 -0.04128,0.0064 -0.05715,0.0064 -0.0381,0 -0.07303,-0.03175 -0.07303,-0.114305 v -1.96858 h -0.260361 z"
       style="font-size:3.17513px;line-height:1.25;font-family:'Source Sans Pro';-inkscape-font-specification:'Source Sans Pro'"
       id="path9708" />
    <path
       d="m 19.984867,25.677166 c 0,0.511196 0.336564,0.806483 0.714405,0.806483 0.37784,0 0.714404,-0.295287 0.714404,-0.806483 0,-0.517547 -0.336564,-0.812834 -0.714404,-0.812834 -0.377841,0 -0.714405,0.295287 -0.714405,0.812834 z m 0.269887,0 c 0,-0.355615 0.180982,-0.596925 0.444518,-0.596925 0.266711,0 0.444518,0.24131 0.444518,0.596925 0,0.352439 -0.177807,0.590574 -0.444518,0.590574 -0.263536,0 -0.444518,-0.238135 -0.444518,-0.590574 z"
       style="font-size:3.17513px;line-height:1.25;font-family:'Source Sans Pro';-inkscape-font-specification:'Source Sans Pro'"
       id="path9710" />
    <path
       d="m 21.648634,26.270915 c 0.146056,0.120655 0.355614,0.212734 0.574698,0.212734 0.36514,0 0.565173,-0.209559 0.565173,-0.460394 0,-0.292112 -0.24766,-0.384191 -0.469919,-0.466744 -0.174632,-0.06668 -0.342914,-0.12383 -0.342914,-0.266711 0,-0.11748 0.0889,-0.222259 0.282587,-0.222259 0.13653,0 0.24766,0.05715 0.352439,0.13653 l 0.12383,-0.165106 c -0.11748,-0.09525 -0.285761,-0.174633 -0.479444,-0.174633 -0.333389,0 -0.530247,0.190508 -0.530247,0.438168 0,0.260361 0.24131,0.36514 0.460394,0.444519 0.168282,0.0635 0.352439,0.133355 0.352439,0.292111 0,0.133356 -0.101604,0.24131 -0.304812,0.24131 -0.184158,0 -0.320688,-0.0762 -0.454044,-0.184157 z"
       style="font-size:3.17513px;line-height:1.25;font-family:'Source Sans Pro';-inkscape-font-specification:'Source Sans Pro'"
       id="path9712" />
    <path
       d="m 23.194924,25.969278 c 0,0.304812 0.11113,0.514371 0.441343,0.514371 0.09525,0 0.200033,-0.02858 0.285762,-0.05715 l -0.0508,-0.196858 c -0.0508,0.01905 -0.120655,0.04128 -0.174632,0.04128 -0.177808,0 -0.238135,-0.107954 -0.238135,-0.298462 v -0.857285 h 0.415942 V 24.902434 H 23.45846 v -0.431818 h -0.219084 l -0.03175,0.431818 -0.24131,0.01588 v 0.196858 h 0.228609 z"
       style="font-size:3.17513px;line-height:1.25;font-family:'Source Sans Pro';-inkscape-font-specification:'Source Sans Pro'"
       id="path9714" />
    <path
       d="m 24.35702,24.584921 c 0.101604,0 0.180983,-0.06985 0.180983,-0.168282 0,-0.101604 -0.07938,-0.168282 -0.180983,-0.168282 -0.101604,0 -0.180982,0.06668 -0.180982,0.168282 0,0.09843 0.07938,0.168282 0.180982,0.168282 z m -0.133355,1.860626 h 0.26036 v -1.543113 h -0.26036 z"
       style="font-size:3.17513px;line-height:1.25;font-family:'Source Sans Pro';-inkscape-font-specification:'Source Sans Pro'"
       id="path9716" />
  </g>
  <g
     aria-label="požadovaná rychlost"
     id="text3430"
     style="font-size:7.76135px;line-height:0%;letter-spacing:0px;word-spacing:0px;fill:#e8eaec;stroke-width:0.646778px">
    <path
       d="m 20.112065,25.912592 c 0.142881,0.111129 0.285762,0.177807 0.428643,0.177807 0.352439,0 0.666777,-0.307987 0.666777,-0.831884 0,-0.479444 -0.212733,-0.787432 -0.609625,-0.787432 -0.180982,0 -0.352439,0.09843 -0.492145,0.215909 h -0.0095 l -0.02223,-0.177808 h -0.215909 v 2.194015 h 0.260361 v -0.520721 z m 0.0064,-0.203208 v -0.809659 c 0.152406,-0.13653 0.282586,-0.209558 0.412767,-0.209558 0.292112,0 0.406416,0.228609 0.406416,0.568348 0,0.381016 -0.187332,0.6128 -0.441343,0.6128 -0.101604,0 -0.238135,-0.04445 -0.37784,-0.161931 z"
       style="font-size:3.17513px;line-height:1.25;font-family:'Source Sans Pro';-inkscape-font-specification:'Source Sans Pro'"
       id="path9719" />
    <path
       d="m 21.505948,25.283916 c 0,0.511196 0.336564,0.806483 0.714405,0.806483 0.37784,0 0.714404,-0.295287 0.714404,-0.806483 0,-0.517546 -0.336564,-0.812833 -0.714404,-0.812833 -0.377841,0 -0.714405,0.295287 -0.714405,0.812833 z m 0.269887,0 c 0,-0.355614 0.180982,-0.596924 0.444518,-0.596924 0.266711,0 0.444518,0.24131 0.444518,0.596924 0,0.35244 -0.177807,0.590574 -0.444518,0.590574 -0.263536,0 -0.444518,-0.238134 -0.444518,-0.590574 z"
       style="font-size:3.17513px;line-height:1.25;font-family:'Source Sans Pro';-inkscape-font-specification:'Source Sans Pro'"
       id="path9721" />
    <path
       d="m 23.160189,26.052298 h 1.168448 v -0.212734 h -0.838235 l 0.812834,-1.190674 v -0.139706 h -1.054143 v 0.212734 h 0.723929 l -0.812833,1.190674 z m 0.520721,-1.81935 h 0.212734 l 0.301637,-0.447693 h -0.187332 l -0.212734,0.292112 h -0.0127 l -0.212733,-0.292112 h -0.190508 z"
       style="font-size:3.17513px;line-height:1.25;font-family:'Source Sans Pro';-inkscape-font-specification:'Source Sans Pro'"
       id="path9723" />
    <path
       d="m 24.522315,25.652231 c 0,0.276237 0.193683,0.438168 0.454043,0.438168 0.190508,0 0.361965,-0.101604 0.511196,-0.222259 h 0.0064 l 0.02223,0.184158 h 0.215909 v -0.946189 c 0,-0.384191 -0.158756,-0.635026 -0.536597,-0.635026 -0.24766,0 -0.463569,0.107954 -0.60645,0.200033 l 0.10478,0.180982 c 0.120655,-0.08255 0.279411,-0.165106 0.460394,-0.165106 0.250835,0 0.317513,0.190508 0.317513,0.387366 -0.657252,0.07303 -0.949364,0.241309 -0.949364,0.577873 z M 24.7795,25.63318 c 0,-0.196858 0.174632,-0.323863 0.692179,-0.387365 v 0.428642 c -0.149232,0.133356 -0.273062,0.206384 -0.422293,0.206384 -0.152406,0 -0.269886,-0.07303 -0.269886,-0.247661 z"
       style="font-size:3.17513px;line-height:1.25;font-family:'Source Sans Pro';-inkscape-font-specification:'Source Sans Pro'"
       id="path9725" />
    <path
       d="m 26.113052,25.283916 c 0,0.514371 0.250835,0.806483 0.638201,0.806483 0.180983,0 0.346089,-0.101604 0.466744,-0.219084 h 0.0095 l 0.02223,0.180983 h 0.215908 v -2.260693 h -0.263535 v 0.593749 l 0.0127,0.263536 c -0.13653,-0.111129 -0.25401,-0.177807 -0.431818,-0.177807 -0.352439,0 -0.669952,0.311163 -0.669952,0.812833 z m 0.269886,-0.0032 c 0,-0.352439 0.196858,-0.590574 0.444518,-0.590574 0.127005,0 0.244485,0.04445 0.374666,0.161931 v 0.806483 c -0.127006,0.142881 -0.250836,0.212734 -0.393717,0.212734 -0.269886,0 -0.425467,-0.222259 -0.425467,-0.590574 z"
       style="font-size:3.17513px;line-height:1.25;font-family:'Source Sans Pro';-inkscape-font-specification:'Source Sans Pro'"
       id="path9727" />
    <path
       d="m 27.872075,25.283916 c 0,0.511196 0.336564,0.806483 0.714404,0.806483 0.377841,0 0.714404,-0.295287 0.714404,-0.806483 0,-0.517546 -0.336563,-0.812833 -0.714404,-0.812833 -0.37784,0 -0.714404,0.295287 -0.714404,0.812833 z m 0.269886,0 c 0,-0.355614 0.180982,-0.596924 0.444518,-0.596924 0.266711,0 0.444518,0.24131 0.444518,0.596924 0,0.35244 -0.177807,0.590574 -0.444518,0.590574 -0.263536,0 -0.444518,-0.238134 -0.444518,-0.590574 z"
       style="font-size:3.17513px;line-height:1.25;font-family:'Source Sans Pro';-inkscape-font-specification:'Source Sans Pro'"
       id="path9729" />
    <path
       d="m 30.027989,26.052298 h 0.304812 l 0.546122,-1.543114 h -0.257185 l -0.292112,0.876336 c -0.04445,0.152407 -0.09525,0.307988 -0.139706,0.454044 h -0.0127 c -0.04763,-0.146056 -0.09843,-0.301637 -0.142881,-0.454044 l -0.292112,-0.876336 h -0.269886 z"
       style="font-size:3.17513px;line-height:1.25;font-family:'Source Sans Pro';-inkscape-font-specification:'Source Sans Pro'"
       id="path9731" />
    <path
       d="m 31.037682,25.652231 c 0,0.276237 0.193683,0.438168 0.454043,0.438168 0.190508,0 0.361965,-0.101604 0.511196,-0.222259 h 0.0063 l 0.02223,0.184158 h 0.215909 v -0.946189 c 0,-0.384191 -0.158756,-0.635026 -0.536597,-0.635026 -0.24766,0 -0.463569,0.107954 -0.60645,0.200033 l 0.10478,0.180982 c 0.120655,-0.08255 0.279411,-0.165106 0.460394,-0.165106 0.250835,0 0.317513,0.190508 0.317513,0.387366 -0.657252,0.07303 -0.949364,0.241309 -0.949364,0.577873 z m 0.257185,-0.01905 c 0,-0.196858 0.174632,-0.323863 0.692179,-0.387365 v 0.428642 c -0.149232,0.133356 -0.273062,0.206384 -0.422293,0.206384 -0.152406,0 -0.269886,-0.07303 -0.269886,-0.247661 z"
       style="font-size:3.17513px;line-height:1.25;font-family:'Source Sans Pro';-inkscape-font-specification:'Source Sans Pro'"
       id="path9733" />
    <path
       d="m 32.739549,26.052298 h 0.26036 v -1.117646 c 0.155582,-0.155581 0.263536,-0.238135 0.422293,-0.238135 0.203208,0 0.292111,0.12383 0.292111,0.412767 v 0.943014 h 0.260361 v -0.97794 c 0,-0.393717 -0.146056,-0.603275 -0.469919,-0.603275 -0.212734,0 -0.37149,0.114305 -0.517546,0.260361 h -0.0095 l -0.02223,-0.22226 h -0.215908 z"
       style="font-size:3.17513px;line-height:1.25;font-family:'Source Sans Pro';-inkscape-font-specification:'Source Sans Pro'"
       id="path9735" />
    <path
       d="m 34.400144,25.652231 c 0,0.276237 0.193683,0.438168 0.454043,0.438168 0.190508,0 0.361965,-0.101604 0.511196,-0.222259 h 0.0064 l 0.02223,0.184158 h 0.215909 v -0.946189 c 0,-0.384191 -0.158756,-0.635026 -0.536597,-0.635026 -0.24766,0 -0.463569,0.107954 -0.606449,0.200033 l 0.104779,0.180982 c 0.120655,-0.08255 0.279411,-0.165106 0.460394,-0.165106 0.250835,0 0.317513,0.190508 0.317513,0.387366 -0.657252,0.07303 -0.949364,0.241309 -0.949364,0.577873 z m 0.257185,-0.01905 c 0,-0.196858 0.174632,-0.323863 0.692179,-0.387365 v 0.428642 c -0.149231,0.133356 -0.273062,0.206384 -0.422293,0.206384 -0.152406,0 -0.269886,-0.07303 -0.269886,-0.247661 z m 0.765207,-1.847925 h -0.273062 l -0.285761,0.447693 h 0.200033 z"
       style="font-size:3.17513px;line-height:1.25;font-family:'Source Sans Pro';-inkscape-font-specification:'Source Sans Pro'"
       id="path9737" />
    <path
       d="m 36.743387,26.052298 h 0.260361 v -0.990641 c 0.104779,-0.260361 0.26036,-0.355614 0.390541,-0.355614 0.0635,0 0.09843,0.0095 0.149231,0.0254 l 0.0508,-0.22861 c -0.0508,-0.02223 -0.09843,-0.03175 -0.165107,-0.03175 -0.174632,0 -0.333388,0.12383 -0.438168,0.317513 h -0.0095 l -0.02223,-0.279412 h -0.215909 z"
       style="font-size:3.17513px;line-height:1.25;font-family:'Source Sans Pro';-inkscape-font-specification:'Source Sans Pro'"
       id="path9739" />
    <path
       d="m 37.800702,26.477765 -0.0508,0.206383 c 0.0508,0.01905 0.111129,0.03175 0.180982,0.03175 0.311163,0 0.46992,-0.231785 0.577874,-0.536597 l 0.581049,-1.670119 h -0.254011 l -0.276236,0.85411 c -0.04128,0.136531 -0.08573,0.295287 -0.13018,0.434993 h -0.0127 C 38.36905,25.655406 38.315073,25.49665 38.267446,25.363294 l -0.314338,-0.85411 h -0.269886 l 0.619151,1.546289 -0.03493,0.114304 c -0.0635,0.190508 -0.174632,0.330214 -0.349264,0.330214 -0.0381,0 -0.08573,-0.0127 -0.11748,-0.02223 z"
       style="font-size:3.17513px;line-height:1.25;font-family:'Source Sans Pro';-inkscape-font-specification:'Source Sans Pro'"
       id="path9741" />
    <path
       d="m 39.261266,25.283916 c 0,0.511196 0.314337,0.806483 0.723929,0.806483 0.184158,0 0.361965,-0.0762 0.501671,-0.200033 l -0.11748,-0.171457 c -0.09208,0.08255 -0.215909,0.155581 -0.361965,0.155581 -0.282586,0 -0.476269,-0.238134 -0.476269,-0.590574 0,-0.355614 0.203208,-0.596924 0.482619,-0.596924 0.12383,0 0.219084,0.05715 0.311163,0.13653 l 0.13018,-0.168282 c -0.104779,-0.09843 -0.24766,-0.184157 -0.450868,-0.184157 -0.396891,0 -0.74298,0.295287 -0.74298,0.812833 z"
       style="font-size:3.17513px;line-height:1.25;font-family:'Source Sans Pro';-inkscape-font-specification:'Source Sans Pro'"
       id="path9743" />
    <path
       d="m 40.823427,26.052298 h 0.260361 v -1.117646 c 0.155581,-0.155581 0.263536,-0.238135 0.422292,-0.238135 0.203208,0 0.292112,0.12383 0.292112,0.412767 v 0.943014 h 0.260361 v -0.97794 c 0,-0.393717 -0.146056,-0.603275 -0.46992,-0.603275 -0.212733,0 -0.368315,0.114305 -0.514371,0.25401 l 0.0095,-0.317513 v -0.615975 h -0.260361 z"
       style="font-size:3.17513px;line-height:1.25;font-family:'Source Sans Pro';-inkscape-font-specification:'Source Sans Pro'"
       id="path9745" />
    <path
       d="m 42.550701,25.741135 c 0,0.225434 0.07938,0.349264 0.276236,0.349264 0.06985,0 0.114305,-0.0095 0.149231,-0.0254 l -0.03493,-0.196858 c -0.02858,0.0064 -0.04128,0.0064 -0.05715,0.0064 -0.0381,0 -0.07303,-0.03175 -0.07303,-0.114304 v -1.968581 h -0.260361 z"
       style="font-size:3.17513px;line-height:1.25;font-family:'Source Sans Pro';-inkscape-font-specification:'Source Sans Pro'"
       id="path9747" />
    <path
       d="m 43.246051,25.283916 c 0,0.511196 0.336563,0.806483 0.714404,0.806483 0.37784,0 0.714404,-0.295287 0.714404,-0.806483 0,-0.517546 -0.336564,-0.812833 -0.714404,-0.812833 -0.377841,0 -0.714404,0.295287 -0.714404,0.812833 z m 0.269886,0 c 0,-0.355614 0.180982,-0.596924 0.444518,-0.596924 0.266711,0 0.444518,0.24131 0.444518,0.596924 0,0.35244 -0.177807,0.590574 -0.444518,0.590574 -0.263536,0 -0.444518,-0.238134 -0.444518,-0.590574 z"
       style="font-size:3.17513px;line-height:1.25;font-family:'Source Sans Pro';-inkscape-font-specification:'Source Sans Pro'"
       id="path9749" />
    <path
       d="m 44.909819,25.877665 c 0.146056,0.120655 0.355614,0.212734 0.574698,0.212734 0.36514,0 0.565173,-0.209558 0.565173,-0.460394 0,-0.292112 -0.24766,-0.38419 -0.469919,-0.466744 -0.174632,-0.06668 -0.342914,-0.12383 -0.342914,-0.266711 0,-0.117479 0.0889,-0.222259 0.282587,-0.222259 0.13653,0 0.24766,0.05715 0.352439,0.136531 l 0.12383,-0.165107 c -0.11748,-0.09525 -0.285761,-0.174632 -0.479444,-0.174632 -0.333389,0 -0.530247,0.190508 -0.530247,0.438168 0,0.26036 0.24131,0.36514 0.460394,0.444518 0.168282,0.0635 0.352439,0.133355 0.352439,0.292112 0,0.133355 -0.101604,0.24131 -0.304812,0.24131 -0.184158,0 -0.320688,-0.0762 -0.454044,-0.184158 z"
       style="font-size:3.17513px;line-height:1.25;font-family:'Source Sans Pro';-inkscape-font-specification:'Source Sans Pro'"
       id="path9751" />
    <path
       d="m 46.456109,25.576028 c 0,0.304813 0.11113,0.514371 0.441343,0.514371 0.09525,0 0.200033,-0.02858 0.285762,-0.05715 l -0.0508,-0.196858 c -0.0508,0.01905 -0.120655,0.04128 -0.174632,0.04128 -0.177808,0 -0.238135,-0.107954 -0.238135,-0.298462 v -0.857285 h 0.415942 v -0.212734 h -0.415942 v -0.431817 h -0.219084 l -0.03175,0.431817 -0.24131,0.01588 v 0.196858 h 0.228609 z"
       style="font-size:3.17513px;line-height:1.25;font-family:'Source Sans Pro';-inkscape-font-specification:'Source Sans Pro'"
       id="path9753" />
  </g>
  <g
     id="g3436"
     transform="matrix(0.00619035,0,0,-0.00629636,55.63212,29.046769)"
     style="fill:#e8eaec;fill-opacity:1;stroke-width:201.795">
    <g
       id="g3434"
       style="fill:#e8eaec;fill-opacity:1;stroke-width:201.795">
      <path
         id="path3432"
         d="M 486.413,221.412 122.347,12.916 C 69.409,-17.402 26.495,7.476 26.495,68.479 v 415.652 c 0,61.004 42.914,85.882 95.852,55.563 l 364.066,-208.49 c 52.938,-30.317 52.938,-79.473 0,-109.792 z"
         inkscape:connector-curvature="0"
         style="fill:#e8eaec;fill-opacity:1;stroke-width:201.795" />
    </g>
  </g>
  <g
     style="fill:#e8eaec;fill-opacity:1;stroke-width:201.795"
     transform="matrix(0.00513306,0.00346008,0.00351933,-0.00522096,19.98052,39.859662)"
     id="g3442">
    <g
       style="fill:#e8eaec;fill-opacity:1;stroke-width:201.795"
       id="g3440">
      <path
         style="fill:#e8eaec;fill-opacity:1;stroke-width:201.795"
         inkscape:connector-curvature="0"
         d="M 486.413,221.412 122.347,12.916 C 69.409,-17.402 26.495,7.476 26.495,68.479 v 415.652 c 0,61.004 42.914,85.882 95.852,55.563 l 364.066,-208.49 c 52.938,-30.317 52.938,-79.473 0,-109.792 z"
         id="path3438" />
    </g>
  </g>
  <g
     id="g3448"
     transform="matrix(0.00513306,0.00346008,0.00351933,-0.00522096,39.46447,52.891292)"
     style="fill:#e8eaec;fill-opacity:1;stroke-width:201.795">
    <g
       id="g3446"
       style="fill:#e8eaec;fill-opacity:1;stroke-width:201.795">
      <path
         id="path3444"
         d="M 486.413,221.412 122.347,12.916 C 69.409,-17.402 26.495,7.476 26.495,68.479 v 415.652 c 0,61.004 42.914,85.882 95.852,55.563 l 364.066,-208.49 c 52.938,-30.317 52.938,-79.473 0,-109.792 z"
         inkscape:connector-curvature="0"
         style="fill:#e8eaec;fill-opacity:1;stroke-width:201.795" />
    </g>
  </g>
  <g
     style="fill:#e8eaec;fill-opacity:1;stroke-width:201.795"
     transform="matrix(-0.0033515,0.0052046,0.00529373,0.00340889,44.22648,49.593442)"
     id="g3454">
    <g
       style="fill:#e8eaec;fill-opacity:1;stroke-width:201.795"
       id="g3452">
      <path
         style="fill:#e8eaec;fill-opacity:1;stroke-width:201.795"
         inkscape:connector-curvature="0"
         d="M 486.413,221.412 122.347,12.916 C 69.409,-17.402 26.495,7.476 26.495,68.479 v 415.652 c 0,61.004 42.914,85.882 95.852,55.563 l 364.066,-208.49 c 52.938,-30.317 52.938,-79.473 0,-109.792 z"
         id="path3450" />
    </g>
  </g>
  <g
     id="g3460"
     transform="matrix(0.00284446,-0.00549813,-0.00559229,-0.00289317,18.55546,6.9408435)"
     style="fill:#e8eaec;fill-opacity:1;stroke-width:201.795">
    <g
       id="g3458"
       style="fill:#e8eaec;fill-opacity:1;stroke-width:201.795">
      <path
         id="path3456"
         d="M 486.413,221.412 122.347,12.916 C 69.409,-17.402 26.495,7.476 26.495,68.479 v 415.652 c 0,61.004 42.914,85.882 95.852,55.563 l 364.066,-208.49 c 52.938,-30.317 52.938,-79.473 0,-109.792 z"
         inkscape:connector-curvature="0"
         style="fill:#e8eaec;fill-opacity:1;stroke-width:201.795" />
    </g>
  </g>
  <g
     style="fill:#e8eaec;fill-opacity:1;stroke-width:201.795"
     transform="matrix(0.00581536,-0.00212179,-0.00215813,-0.00591495,34.91177,18.123775)"
     id="g3466">
    <g
       style="fill:#e8eaec;fill-opacity:1;stroke-width:201.795"
       id="g3464">
      <path
         style="fill:#e8eaec;fill-opacity:1;stroke-width:201.795"
         inkscape:connector-curvature="0"
         d="M 486.413,221.412 122.347,12.916 C 69.409,-17.402 26.495,7.476 26.495,68.479 v 415.652 c 0,61.004 42.914,85.882 95.852,55.563 l 364.066,-208.49 c 52.938,-30.317 52.938,-79.473 0,-109.792 z"
         id="path3462" />
    </g>
  </g>
  <g
     id="g3472"
     transform="matrix(0.00317119,0.00205999,0.00209527,-0.00322549,34.09513,13.829194)"
     style="fill:#e8eaec;fill-opacity:1;stroke-width:201.795">
    <g
       id="g3470"
       style="fill:#e8eaec;fill-opacity:1;stroke-width:201.795">
      <path
         id="path3468"
         d="M 486.413,221.412 122.347,12.916 C 69.409,-17.402 26.495,7.476 26.495,68.479 v 415.652 c 0,61.004 42.914,85.882 95.852,55.563 l 364.066,-208.49 c 52.938,-30.317 52.938,-79.473 0,-109.792 z"
         inkscape:connector-curvature="0"
         style="fill:#e8eaec;fill-opacity:1;stroke-width:201.795" />
    </g>
  </g>
  <path
     style="fill:none;fill-opacity:1;stroke:#a6aeb8;stroke-width:0.264595;stroke-linecap:square;stroke-miterlimit:4;stroke-dasharray:0.264595, 0.793784;stroke-dashoffset:0;stroke-opacity:1"
     d="M 58.88587,27.329682 H 87.39811"
     id="path3474"
     inkscape:connector-curvature="0"
     sodipodi:nodetypes="cc" />
  <circle
     r="0.83003497"
     cy="27.243689"
     cx="87.485687"
     id="circle3476"
     style="fill:#a6aeb8;fill-opacity:1;stroke:#a6aeb8;stroke-width:0.743823;stroke-linecap:butt;stroke-linejoin:miter;stroke-miterlimit:4;stroke-dasharray:none;stroke-dashoffset:0;stroke-opacity:1" />
</svg>
