<?xml version="1.0" encoding="UTF-8" standalone="no"?>
<svg
   width="324.77576"
   height="186.49858"
   version="1.1"
   viewBox="0 0 85.927878 49.343625"
   id="svg15311"
   sodipodi:docname="steering_wander_cs.svg"
   inkscape:version="1.2.2 (732a01da63, 2022-12-09)"
   xmlns:inkscape="http://www.inkscape.org/namespaces/inkscape"
   xmlns:sodipodi="http://sodipodi.sourceforge.net/DTD/sodipodi-0.dtd"
   xmlns="http://www.w3.org/2000/svg"
   xmlns:svg="http://www.w3.org/2000/svg"
   xmlns:rdf="http://www.w3.org/1999/02/22-rdf-syntax-ns#"
   xmlns:cc="http://creativecommons.org/ns#"
   xmlns:dc="http://purl.org/dc/elements/1.1/">
  <defs
     id="defs15315" />
  <sodipodi:namedview
     id="namedview15313"
     pagecolor="#ffffff"
     bordercolor="#000000"
     borderopacity="0.25"
     inkscape:showpageshadow="2"
     inkscape:pageopacity="0.0"
     inkscape:pagecheckerboard="0"
     inkscape:deskcolor="#d1d1d1"
     showgrid="false"
     inkscape:zoom="0.93139972"
     inkscape:cx="117.56499"
     inkscape:cy="267.33957"
     inkscape:window-width="1920"
     inkscape:window-height="1017"
     inkscape:window-x="-8"
     inkscape:window-y="-8"
     inkscape:window-maximized="1"
     inkscape:current-layer="svg15311" />
  <metadata
     id="metadata15147">
    <rdf:RDF>
      <cc:Work
         rdf:about="">
        <dc:format>image/svg+xml</dc:format>
        <dc:type
           rdf:resource="http://purl.org/dc/dcmitype/StillImage" />
      </cc:Work>
    </rdf:RDF>
  </metadata>
  <path
     inkscape:transform-center-y="0.0073754084"
     transform="matrix(0.4356663,-3.0734565e-4,1.7971234e-4,0.2547416,-23.069441,-83.047903)"
     inkscape:transform-center-x="-5.2331458"
     d="m 73.143157,404.25464 -20.354117,11.75145 0,-23.50291 z"
     inkscape:randomized="0"
     inkscape:rounded="0"
     inkscape:flatsided="true"
     sodipodi:arg2="1.0471976"
     sodipodi:arg1="0"
     sodipodi:r2="6.7847052"
     sodipodi:r1="13.569411"
     sodipodi:cy="404.25464"
     sodipodi:cx="59.573746"
     sodipodi:sides="3"
     id="path10451"
     style="fill:#6f8ce9;fill-opacity:1;stroke:none;stroke-width:0.794197;stroke-linecap:butt;stroke-linejoin:miter;stroke-miterlimit:4;stroke-dasharray:none;stroke-dashoffset:0;stroke-opacity:1"
     sodipodi:type="star" />
  <path
     sodipodi:nodetypes="cc"
     inkscape:connector-curvature="0"
     id="path10453"
     d="M 2.5975615,19.973586 H 42.99596"
     style="fill:none;fill-rule:evenodd;stroke:#e8eaec;stroke-width:0.264579;stroke-linecap:butt;stroke-linejoin:miter;stroke-miterlimit:4;stroke-dasharray:none;stroke-opacity:1" />
  <path
     style="fill:none;fill-rule:evenodd;stroke:#a6aeb8;stroke-width:0.264579;stroke-linecap:butt;stroke-linejoin:miter;stroke-miterlimit:4;stroke-dasharray:none;stroke-opacity:1"
     d="M 66.22804,19.636221 H 85.74397"
     id="path10456"
     inkscape:connector-curvature="0" />
  <circle
     style="fill:none;fill-opacity:1;stroke:#a6aeb8;stroke-width:0.264579;stroke-linecap:butt;stroke-linejoin:miter;stroke-miterlimit:4;stroke-dasharray:none;stroke-dashoffset:0;stroke-opacity:1"
     id="circle10458"
     cx="66.294998"
     cy="19.633373"
     r="19.501083" />
  <path
     style="fill:none;fill-rule:evenodd;stroke:#e9e56f;stroke-width:0.529158;stroke-linecap:butt;stroke-linejoin:miter;stroke-miterlimit:4;stroke-dasharray:none;stroke-opacity:1"
     d="M 2.5975615,19.973586 48.50272,6.8454892"
     id="path10460"
     inkscape:connector-curvature="0"
     sodipodi:nodetypes="cc" />
  <circle
     r="0.87443978"
     cy="20.017712"
     cx="2.7033317"
     id="circle10462"
     style="fill:#e8eaec;fill-opacity:1;stroke:none;stroke-width:0.299048;stroke-linecap:butt;stroke-linejoin:miter;stroke-miterlimit:4;stroke-dasharray:none;stroke-dashoffset:0;stroke-opacity:1" />
  <circle
     style="fill:#a6aeb8;fill-opacity:1;stroke:#a6aeb8;stroke-width:0.743779;stroke-linecap:butt;stroke-linejoin:miter;stroke-miterlimit:4;stroke-dasharray:none;stroke-dashoffset:0;stroke-opacity:1"
     id="circle10464"
     cx="66.298645"
     cy="19.630661"
     r="0.82998639" />
  <circle
     r="1.7426664"
     cy="6.0131068"
     cx="51.999786"
     id="circle10466"
     style="fill:#a6aeb8;fill-opacity:1;stroke:#a6aeb8;stroke-width:1.56166;stroke-linecap:butt;stroke-linejoin:miter;stroke-miterlimit:4;stroke-dasharray:none;stroke-dashoffset:0;stroke-opacity:1" />
  <g
     aria-label="poloměr"
     id="text10470"
     style="font-size:5.98097px;line-height:0%;letter-spacing:0px;word-spacing:0px;fill:#e8eaec;stroke-width:0.498414px">
    <path
       d="m 70.797438,23.682049 c 0.142873,0.111123 0.285746,0.177797 0.428618,0.177797 0.35242,0 0.66674,-0.30797 0.66674,-0.831837 0,-0.479417 -0.212722,-0.787387 -0.60959,-0.787387 -0.180973,0 -0.35242,0.09842 -0.492118,0.215896 h -0.0095 l -0.02222,-0.177797 h -0.215897 v 2.193891 h 0.260346 V 23.95192 Z m 0.0063,-0.203197 V 22.66924 c 0.152398,-0.136523 0.282571,-0.209547 0.412744,-0.209547 0.292095,0 0.406393,0.228597 0.406393,0.568316 0,0.380994 -0.187322,0.612766 -0.441318,0.612766 -0.101598,0 -0.238121,-0.04445 -0.377819,-0.161923 z"
       style="font-size:3.17495px;line-height:1.25;font-family:'Source Sans Pro';-inkscape-font-specification:'Source Sans Pro'"
       id="path15571" />
    <path
       d="m 72.191242,23.053409 c 0,0.511167 0.336545,0.806437 0.714364,0.806437 0.377819,0 0.714364,-0.29527 0.714364,-0.806437 0,-0.517517 -0.336545,-0.812787 -0.714364,-0.812787 -0.377819,0 -0.714364,0.29527 -0.714364,0.812787 z m 0.269871,0 c 0,-0.355594 0.180972,-0.596891 0.444493,-0.596891 0.266696,0 0.444493,0.241297 0.444493,0.596891 0,0.352419 -0.177797,0.590541 -0.444493,0.590541 -0.263521,0 -0.444493,-0.238122 -0.444493,-0.590541 z"
       style="font-size:3.17495px;line-height:1.25;font-family:'Source Sans Pro';-inkscape-font-specification:'Source Sans Pro'"
       id="path15573" />
    <path
       d="m 74.026363,23.510602 c 0,0.225421 0.07937,0.349244 0.27622,0.349244 0.06985,0 0.114298,-0.0095 0.149223,-0.0254 L 74.416881,23.6376 c -0.02857,0.0064 -0.04127,0.0064 -0.05715,0.0064 -0.0381,0 -0.07302,-0.03175 -0.07302,-0.114299 v -1.968468 h -0.260346 z"
       style="font-size:3.17495px;line-height:1.25;font-family:'Source Sans Pro';-inkscape-font-specification:'Source Sans Pro'"
       id="path15575" />
    <path
       d="m 74.721674,23.053409 c 0,0.511167 0.336545,0.806437 0.714364,0.806437 0.377819,0 0.714364,-0.29527 0.714364,-0.806437 0,-0.517517 -0.336545,-0.812787 -0.714364,-0.812787 -0.377819,0 -0.714364,0.29527 -0.714364,0.812787 z m 0.269871,0 c 0,-0.355594 0.180972,-0.596891 0.444493,-0.596891 0.266696,0 0.444493,0.241297 0.444493,0.596891 0,0.352419 -0.177797,0.590541 -0.444493,0.590541 -0.263521,0 -0.444493,-0.238122 -0.444493,-0.590541 z"
       style="font-size:3.17495px;line-height:1.25;font-family:'Source Sans Pro';-inkscape-font-specification:'Source Sans Pro'"
       id="path15577" />
    <path
       d="m 76.556795,23.821747 h 0.260345 v -1.117583 c 0.142873,-0.158747 0.273046,-0.238121 0.387344,-0.238121 0.196847,0 0.288921,0.123823 0.288921,0.412744 v 0.94296 h 0.260346 v -1.117583 c 0.142872,-0.158747 0.266695,-0.238121 0.387344,-0.238121 0.193672,0 0.285745,0.123823 0.285745,0.412744 v 0.94296 h 0.260346 v -0.977885 c 0,-0.393694 -0.152398,-0.60324 -0.469893,-0.60324 -0.187322,0 -0.346069,0.120648 -0.507992,0.29527 -0.0635,-0.184147 -0.190497,-0.29527 -0.425443,-0.29527 -0.184147,0 -0.346069,0.114298 -0.479417,0.260346 h -0.0095 l -0.02223,-0.222247 h -0.215896 z"
       style="font-size:3.17495px;line-height:1.25;font-family:'Source Sans Pro';-inkscape-font-specification:'Source Sans Pro'"
       id="path15579" />
    <path
       d="m 79.074532,23.053409 c 0,0.504817 0.327019,0.806437 0.739763,0.806437 0.209547,0 0.374644,-0.07302 0.507992,-0.158747 l -0.09207,-0.171448 c -0.114298,0.07302 -0.238121,0.120649 -0.384169,0.120649 -0.29527,0 -0.495292,-0.209547 -0.514341,-0.542917 h 1.041383 c 0.0063,-0.0381 0.0095,-0.0889 0.0095,-0.142873 0,-0.441318 -0.222246,-0.723888 -0.61594,-0.723888 -0.35242,0 -0.692139,0.30797 -0.692139,0.812787 z m 0.253996,-0.117473 c 0.03175,-0.311145 0.228596,-0.488942 0.444493,-0.488942 0.241296,0 0.380994,0.174622 0.380994,0.488942 z m 0.333369,-0.933435 h 0.212722 l 0.30162,-0.447668 h -0.190497 l -0.212721,0.292095 h -0.0127 l -0.212722,-0.292095 h -0.187322 z"
       style="font-size:3.17495px;line-height:1.25;font-family:'Source Sans Pro';-inkscape-font-specification:'Source Sans Pro'"
       id="path15581" />
    <path
       d="m 80.763606,23.821747 h 0.260345 v -0.990585 c 0.104774,-0.260345 0.260346,-0.355594 0.390519,-0.355594 0.0635,0 0.09842,0.0095 0.149223,0.0254 l 0.0508,-0.228597 c -0.0508,-0.02222 -0.09842,-0.03175 -0.165097,-0.03175 -0.174623,0 -0.33337,0.123823 -0.438143,0.317495 h -0.0095 l -0.02223,-0.279396 h -0.215896 z"
       style="font-size:3.17495px;line-height:1.25;font-family:'Source Sans Pro';-inkscape-font-specification:'Source Sans Pro'"
       id="path15583" />
  </g>
  <path
     style="fill:none;fill-opacity:1;stroke:#a6aeb8;stroke-width:0.264579;stroke-linecap:butt;stroke-linejoin:miter;stroke-miterlimit:4;stroke-dasharray:none;stroke-dashoffset:0;stroke-opacity:1"
     d="m 60.10986,4.9914772 c -1.90116,0.804135 -3.61328,1.967701 -5.05113,3.405556 -1.43781,1.437829 -2.60142,3.1499198 -3.40548,5.0511328"
     id="path10472"
     inkscape:connector-curvature="0"
     sodipodi:nodetypes="csc" />
  <g
     aria-label="současná rychlost"
     id="text10476"
     style="font-size:5.98097px;line-height:0%;letter-spacing:0px;word-spacing:0px;fill:#e8eaec;stroke-width:0.498414px">
    <path
       d="m 12.525522,23.647125 c 0.146048,0.120648 0.355595,0.212721 0.574666,0.212721 0.365119,0 0.565141,-0.209546 0.565141,-0.460368 0,-0.292095 -0.247646,-0.384168 -0.469892,-0.466717 -0.174623,-0.06667 -0.342895,-0.123823 -0.342895,-0.266696 0,-0.117473 0.0889,-0.222246 0.282571,-0.222246 0.136522,0 0.247646,0.05715 0.352419,0.136522 l 0.123823,-0.165097 c -0.117473,-0.09525 -0.285745,-0.174622 -0.479417,-0.174622 -0.33337,0 -0.530217,0.190497 -0.530217,0.438143 0,0.260346 0.241296,0.365119 0.460368,0.444493 0.168272,0.0635 0.352419,0.133348 0.352419,0.292095 0,0.133348 -0.101598,0.241296 -0.304795,0.241296 -0.184147,0 -0.32067,-0.0762 -0.454018,-0.184147 z"
       style="font-size:3.17495px;line-height:1.25;font-family:'Source Sans Pro';-inkscape-font-specification:'Source Sans Pro'"
       id="path15586" />
    <path
       d="m 13.912977,23.053409 c 0,0.511167 0.336545,0.806437 0.714364,0.806437 0.377819,0 0.714364,-0.29527 0.714364,-0.806437 0,-0.517517 -0.336545,-0.812787 -0.714364,-0.812787 -0.377819,0 -0.714364,0.29527 -0.714364,0.812787 z m 0.269871,0 c 0,-0.355594 0.180972,-0.596891 0.444493,-0.596891 0.266696,0 0.444493,0.241297 0.444493,0.596891 0,0.352419 -0.177797,0.590541 -0.444493,0.590541 -0.263521,0 -0.444493,-0.238122 -0.444493,-0.590541 z"
       style="font-size:3.17495px;line-height:1.25;font-family:'Source Sans Pro';-inkscape-font-specification:'Source Sans Pro'"
       id="path15588" />
    <path
       d="m 15.725873,23.256606 c 0,0.393694 0.146048,0.60324 0.473067,0.60324 0.212722,0 0.36512,-0.111123 0.507992,-0.279395 h 0.0095 l 0.02223,0.241296 h 0.215897 v -1.543026 h -0.260346 v 1.095358 c -0.146048,0.180972 -0.257171,0.260346 -0.415919,0.260346 -0.203197,0 -0.28892,-0.123823 -0.28892,-0.412744 v -0.94296 h -0.263521 z"
       style="font-size:3.17495px;line-height:1.25;font-family:'Source Sans Pro';-inkscape-font-specification:'Source Sans Pro'"
       id="path15590" />
    <path
       d="m 17.360974,23.053409 c 0,0.511167 0.31432,0.806437 0.723889,0.806437 0.184147,0 0.361944,-0.0762 0.501642,-0.200022 l -0.117473,-0.171447 c -0.09207,0.08255 -0.215897,0.155573 -0.361944,0.155573 -0.282571,0 -0.476243,-0.238122 -0.476243,-0.590541 0,-0.355594 0.203197,-0.596891 0.482593,-0.596891 0.123823,0 0.219071,0.05715 0.311145,0.136523 l 0.130173,-0.168272 c -0.104774,-0.09842 -0.247647,-0.184147 -0.450843,-0.184147 -0.396869,0 -0.742939,0.29527 -0.742939,0.812787 z m 0.631815,-1.050908 h 0.212722 l 0.30162,-0.447668 h -0.187322 l -0.212721,0.292095 h -0.0127 l -0.212722,-0.292095 h -0.190497 z"
       style="font-size:3.17495px;line-height:1.25;font-family:'Source Sans Pro';-inkscape-font-specification:'Source Sans Pro'"
       id="path15592" />
    <path
       d="m 18.815098,23.421703 c 0,0.276221 0.193672,0.438143 0.454018,0.438143 0.190497,0 0.361945,-0.101598 0.511167,-0.222246 h 0.0063 l 0.02223,0.184147 h 0.215896 v -0.946135 c 0,-0.384169 -0.158747,-0.63499 -0.536566,-0.63499 -0.247646,0 -0.463543,0.107948 -0.606416,0.200022 l 0.104774,0.180972 c 0.120648,-0.08255 0.279395,-0.165098 0.460368,-0.165098 0.250821,0 0.317495,0.190497 0.317495,0.387344 -0.657215,0.07302 -0.949311,0.241296 -0.949311,0.577841 z m 0.257171,-0.01905 c 0,-0.196846 0.174623,-0.323844 0.69214,-0.387343 v 0.428618 c -0.149223,0.133348 -0.273046,0.206372 -0.422269,0.206372 -0.152397,0 -0.269871,-0.07302 -0.269871,-0.247647 z"
       style="font-size:3.17495px;line-height:1.25;font-family:'Source Sans Pro';-inkscape-font-specification:'Source Sans Pro'"
       id="path15594" />
    <path
       d="m 20.345422,23.647125 c 0.146047,0.120648 0.355594,0.212721 0.574666,0.212721 0.365119,0 0.565141,-0.209546 0.565141,-0.460368 0,-0.292095 -0.247646,-0.384168 -0.469893,-0.466717 -0.174622,-0.06667 -0.342894,-0.123823 -0.342894,-0.266696 0,-0.117473 0.0889,-0.222246 0.28257,-0.222246 0.136523,0 0.247646,0.05715 0.35242,0.136522 l 0.123823,-0.165097 c -0.117474,-0.09525 -0.285746,-0.174622 -0.479418,-0.174622 -0.33337,0 -0.530216,0.190497 -0.530216,0.438143 0,0.260346 0.241296,0.365119 0.460367,0.444493 0.168273,0.0635 0.35242,0.133348 0.35242,0.292095 0,0.133348 -0.101599,0.241296 -0.304795,0.241296 -0.184148,0 -0.32067,-0.0762 -0.454018,-0.184147 z"
       style="font-size:3.17495px;line-height:1.25;font-family:'Source Sans Pro';-inkscape-font-specification:'Source Sans Pro'"
       id="path15596" />
    <path
       d="m 21.847175,23.821747 h 0.260346 v -1.117583 c 0.155573,-0.155572 0.263521,-0.238121 0.422268,-0.238121 0.203197,0 0.292096,0.123823 0.292096,0.412744 v 0.94296 h 0.260346 v -0.977885 c 0,-0.393694 -0.146048,-0.60324 -0.469893,-0.60324 -0.212722,0 -0.371469,0.114298 -0.517517,0.260346 h -0.0095 l -0.02222,-0.222247 h -0.215897 z"
       style="font-size:3.17495px;line-height:1.25;font-family:'Source Sans Pro';-inkscape-font-specification:'Source Sans Pro'"
       id="path15598" />
    <path
       d="m 23.507676,23.421703 c 0,0.276221 0.193672,0.438143 0.454018,0.438143 0.190497,0 0.361944,-0.101598 0.511167,-0.222246 h 0.0063 l 0.02223,0.184147 h 0.215896 v -0.946135 c 0,-0.384169 -0.158747,-0.63499 -0.536566,-0.63499 -0.247646,0 -0.463543,0.107948 -0.606416,0.200022 l 0.104774,0.180972 c 0.120648,-0.08255 0.279395,-0.165098 0.460367,-0.165098 0.250821,0 0.317495,0.190497 0.317495,0.387344 -0.657214,0.07302 -0.94931,0.241296 -0.94931,0.577841 z m 0.257171,-0.01905 c 0,-0.196846 0.174623,-0.323844 0.692139,-0.387343 v 0.428618 c -0.149222,0.133348 -0.273045,0.206372 -0.422268,0.206372 -0.152398,0 -0.269871,-0.07302 -0.269871,-0.247647 z m 0.765163,-1.84782 h -0.273045 l -0.285746,0.447668 h 0.200022 z"
       style="font-size:3.17495px;line-height:1.25;font-family:'Source Sans Pro';-inkscape-font-specification:'Source Sans Pro'"
       id="path15600" />
    <path
       d="m 25.850786,23.821747 h 0.260346 v -0.990585 c 0.104773,-0.260345 0.260345,-0.355594 0.390518,-0.355594 0.0635,0 0.09842,0.0095 0.149223,0.0254 l 0.0508,-0.228597 c -0.0508,-0.02222 -0.09842,-0.03175 -0.165097,-0.03175 -0.174622,0 -0.33337,0.123823 -0.438143,0.317495 h -0.0095 l -0.02222,-0.279396 h -0.215896 z"
       style="font-size:3.17495px;line-height:1.25;font-family:'Source Sans Pro';-inkscape-font-specification:'Source Sans Pro'"
       id="path15602" />
    <path
       d="m 26.908042,24.24719 -0.0508,0.206372 c 0.0508,0.01905 0.111124,0.03175 0.180973,0.03175 0.311145,0 0.469892,-0.231771 0.57784,-0.536566 l 0.581016,-1.670024 h -0.253996 l -0.27622,0.854062 c -0.04128,0.136523 -0.08572,0.29527 -0.130173,0.434968 h -0.0127 c -0.04762,-0.142873 -0.101599,-0.30162 -0.149223,-0.434968 l -0.31432,-0.854062 h -0.269871 l 0.619116,1.546201 -0.03492,0.114298 c -0.0635,0.190497 -0.174622,0.330195 -0.349244,0.330195 -0.0381,0 -0.08572,-0.0127 -0.117473,-0.02222 z"
       style="font-size:3.17495px;line-height:1.25;font-family:'Source Sans Pro';-inkscape-font-specification:'Source Sans Pro'"
       id="path15604" />
    <path
       d="m 28.368523,23.053409 c 0,0.511167 0.31432,0.806437 0.723888,0.806437 0.184147,0 0.361945,-0.0762 0.501642,-0.200022 L 29.47658,23.488377 c -0.09207,0.08255 -0.215896,0.155573 -0.361944,0.155573 -0.282571,0 -0.476243,-0.238122 -0.476243,-0.590541 0,-0.355594 0.203197,-0.596891 0.482593,-0.596891 0.123823,0 0.219071,0.05715 0.311145,0.136523 l 0.130173,-0.168272 c -0.104773,-0.09842 -0.247646,-0.184147 -0.450843,-0.184147 -0.396869,0 -0.742938,0.29527 -0.742938,0.812787 z"
       style="font-size:3.17495px;line-height:1.25;font-family:'Source Sans Pro';-inkscape-font-specification:'Source Sans Pro'"
       id="path15606" />
    <path
       d="m 29.930595,23.821747 h 0.260346 v -1.117583 c 0.155572,-0.155572 0.263521,-0.238121 0.422268,-0.238121 0.203197,0 0.292095,0.123823 0.292095,0.412744 v 0.94296 h 0.260346 v -0.977885 c 0,-0.393694 -0.146047,-0.60324 -0.469892,-0.60324 -0.212722,0 -0.368294,0.114298 -0.514342,0.253996 l 0.0095,-0.317495 v -0.61594 h -0.260346 z"
       style="font-size:3.17495px;line-height:1.25;font-family:'Source Sans Pro';-inkscape-font-specification:'Source Sans Pro'"
       id="path15608" />
    <path
       d="m 31.65777,23.510602 c 0,0.225421 0.07937,0.349244 0.27622,0.349244 0.06985,0 0.114298,-0.0095 0.149223,-0.0254 L 32.048288,23.6376 c -0.02857,0.0064 -0.04127,0.0064 -0.05715,0.0064 -0.0381,0 -0.07302,-0.03175 -0.07302,-0.114299 V 21.561183 H 31.65777 Z"
       style="font-size:3.17495px;line-height:1.25;font-family:'Source Sans Pro';-inkscape-font-specification:'Source Sans Pro'"
       id="path15610" />
    <path
       d="m 32.353082,23.053409 c 0,0.511167 0.336544,0.806437 0.714364,0.806437 0.377819,0 0.714363,-0.29527 0.714363,-0.806437 0,-0.517517 -0.336544,-0.812787 -0.714363,-0.812787 -0.37782,0 -0.714364,0.29527 -0.714364,0.812787 z m 0.269871,0 c 0,-0.355594 0.180972,-0.596891 0.444493,-0.596891 0.266695,0 0.444493,0.241297 0.444493,0.596891 0,0.352419 -0.177798,0.590541 -0.444493,0.590541 -0.263521,0 -0.444493,-0.238122 -0.444493,-0.590541 z"
       style="font-size:3.17495px;line-height:1.25;font-family:'Source Sans Pro';-inkscape-font-specification:'Source Sans Pro'"
       id="path15612" />
    <path
       d="m 34.016754,23.647125 c 0.146048,0.120648 0.355594,0.212721 0.574666,0.212721 0.365119,0 0.565141,-0.209546 0.565141,-0.460368 0,-0.292095 -0.247646,-0.384168 -0.469892,-0.466717 -0.174623,-0.06667 -0.342895,-0.123823 -0.342895,-0.266696 0,-0.117473 0.0889,-0.222246 0.28257,-0.222246 0.136523,0 0.247647,0.05715 0.35242,0.136522 l 0.123823,-0.165097 c -0.117473,-0.09525 -0.285746,-0.174622 -0.479417,-0.174622 -0.33337,0 -0.530217,0.190497 -0.530217,0.438143 0,0.260346 0.241296,0.365119 0.460368,0.444493 0.168272,0.0635 0.352419,0.133348 0.352419,0.292095 0,0.133348 -0.101598,0.241296 -0.304795,0.241296 -0.184147,0 -0.32067,-0.0762 -0.454018,-0.184147 z"
       style="font-size:3.17495px;line-height:1.25;font-family:'Source Sans Pro';-inkscape-font-specification:'Source Sans Pro'"
       id="path15614" />
    <path
       d="m 35.562958,23.345504 c 0,0.304796 0.111123,0.514342 0.441318,0.514342 0.09525,0 0.200022,-0.02857 0.285745,-0.05715 l -0.0508,-0.196847 c -0.0508,0.01905 -0.120648,0.04127 -0.174622,0.04127 -0.177797,0 -0.238121,-0.107949 -0.238121,-0.298446 v -0.857236 h 0.415918 v -0.212722 h -0.415918 v -0.431793 h -0.219072 l -0.03175,0.431793 -0.241296,0.01587 v 0.196847 h 0.228597 z"
       style="font-size:3.17495px;line-height:1.25;font-family:'Source Sans Pro';-inkscape-font-specification:'Source Sans Pro'"
       id="path15616" />
  </g>
  <g
     aria-label="steering síla"
     transform="rotate(-16.619358)"
     id="text10480"
     style="font-size:5.98097px;line-height:0%;letter-spacing:0px;word-spacing:0px;fill:#e8eaec;stroke-width:0.498414px">
    <path
       d="m 5.0837988,18.574857 c 0.1460477,0.120648 0.3555944,0.212722 0.574666,0.212722 0.3651192,0 0.565141,-0.209547 0.565141,-0.460368 0,-0.292095 -0.2476461,-0.384169 -0.4698926,-0.466718 -0.1746222,-0.06667 -0.3428945,-0.123823 -0.3428945,-0.266695 0,-0.117474 0.088899,-0.222247 0.2825705,-0.222247 0.1365228,0 0.2476461,0.05715 0.3524194,0.136523 l 0.1238231,-0.165098 c -0.1174732,-0.09525 -0.2857455,-0.174622 -0.4794174,-0.174622 -0.3333698,0 -0.5302167,0.190497 -0.5302167,0.438143 0,0.260346 0.2412962,0.36512 0.4603678,0.444493 0.1682723,0.0635 0.3524194,0.133348 0.3524194,0.292096 0,0.133348 -0.1015984,0.241296 -0.3047952,0.241296 -0.1841471,0 -0.3206699,-0.0762 -0.4540178,-0.184147 z"
       style="font-size:3.17495px;line-height:1.25;font-family:'Source Sans Pro';-inkscape-font-specification:'Source Sans Pro'"
       id="path15619" />
    <path
       d="m 6.6300013,18.273237 c 0,0.304795 0.1111233,0.514342 0.4413181,0.514342 0.095249,0 0.2000218,-0.02858 0.2857455,-0.05715 l -0.050799,-0.196847 c -0.050799,0.01905 -0.1206481,0.04127 -0.1746223,0.04127 -0.1777972,0 -0.2381212,-0.107948 -0.2381212,-0.298445 V 17.419175 H 7.3094406 V 17.206454 H 6.8935222 V 16.77466 H 6.6744506 l -0.03175,0.431794 -0.2412961,0.01587 v 0.196847 h 0.2285963 z"
       style="font-size:3.17495px;line-height:1.25;font-family:'Source Sans Pro';-inkscape-font-specification:'Source Sans Pro'"
       id="path15621" />
    <path
       d="m 7.5126346,17.981141 c 0,0.504817 0.3270199,0.806438 0.7397633,0.806438 0.2095467,0 0.3746441,-0.07302 0.507992,-0.158748 l -0.092073,-0.171447 c -0.1142982,0.07302 -0.2381213,0.120648 -0.384169,0.120648 -0.2952703,0 -0.4952921,-0.209547 -0.5143418,-0.542916 h 1.0413835 c 0.00635,-0.0381 0.00952,-0.0889 0.00952,-0.142873 0,-0.441318 -0.2222465,-0.723889 -0.6159403,-0.723889 -0.3524194,0 -0.6921391,0.30797 -0.6921391,0.812787 z m 0.253996,-0.117473 c 0.03175,-0.311145 0.2285964,-0.488942 0.444493,-0.488942 0.2412962,0 0.380994,0.174622 0.380994,0.488942 z"
       style="font-size:3.17495px;line-height:1.25;font-family:'Source Sans Pro';-inkscape-font-specification:'Source Sans Pro'"
       id="path15623" />
    <path
       d="m 9.0874106,17.981141 c 0,0.504817 0.3270198,0.806438 0.7397633,0.806438 0.2095471,0 0.3746441,-0.07302 0.5079921,-0.158748 l -0.09207,-0.171447 c -0.114298,0.07302 -0.238121,0.120648 -0.3841686,0.120648 -0.2952704,0 -0.4952922,-0.209547 -0.5143419,-0.542916 h 1.0413835 c 0.0063,-0.0381 0.0095,-0.0889 0.0095,-0.142873 0,-0.441318 -0.222247,-0.723889 -0.6159404,-0.723889 -0.3524194,0 -0.692139,0.30797 -0.692139,0.812787 z m 0.2539959,-0.117473 c 0.03175,-0.311145 0.2285964,-0.488942 0.444493,-0.488942 0.2412965,0 0.3809945,0.174622 0.3809945,0.488942 z"
       style="font-size:3.17495px;line-height:1.25;font-family:'Source Sans Pro';-inkscape-font-specification:'Source Sans Pro'"
       id="path15625" />
    <path
       d="m 10.776485,18.749479 h 0.260346 v -0.990584 c 0.104773,-0.260346 0.260346,-0.355594 0.390519,-0.355594 0.0635,0 0.09842,0.0095 0.149222,0.0254 l 0.0508,-0.228596 c -0.0508,-0.02222 -0.09842,-0.03175 -0.165097,-0.03175 -0.174622,0 -0.33337,0.123823 -0.438143,0.317495 h -0.0095 l -0.02222,-0.279395 h -0.215897 z"
       style="font-size:3.17495px;line-height:1.25;font-family:'Source Sans Pro';-inkscape-font-specification:'Source Sans Pro'"
       id="path15627" />
    <path
       d="m 12.011541,16.888959 c 0.101598,0 0.180972,-0.06985 0.180972,-0.168273 0,-0.101598 -0.07937,-0.168272 -0.180972,-0.168272 -0.101599,0 -0.180972,0.06667 -0.180972,0.168272 0,0.09842 0.07937,0.168273 0.180972,0.168273 z m -0.133348,1.86052 h 0.260346 v -1.543025 h -0.260346 z"
       style="font-size:3.17495px;line-height:1.25;font-family:'Source Sans Pro';-inkscape-font-specification:'Source Sans Pro'"
       id="path15629" />
    <path
       d="m 12.659232,18.749479 h 0.260346 v -1.117582 c 0.155572,-0.155573 0.26352,-0.238121 0.422268,-0.238121 0.203197,0 0.292095,0.123823 0.292095,0.412743 v 0.94296 h 0.260346 v -0.977884 c 0,-0.393694 -0.146048,-0.603241 -0.469892,-0.603241 -0.212722,0 -0.37147,0.114298 -0.517517,0.260346 h -0.0095 l -0.02223,-0.222246 h -0.215896 z"
       style="font-size:3.17495px;line-height:1.25;font-family:'Source Sans Pro';-inkscape-font-specification:'Source Sans Pro'"
       id="path15631" />
    <path
       d="m 14.507055,19.009825 c 0,-0.0889 0.04763,-0.180972 0.158748,-0.260346 0.06667,0.01905 0.139698,0.0254 0.200022,0.0254 h 0.266696 c 0.200021,0 0.311145,0.04762 0.311145,0.190497 0,0.161922 -0.193672,0.31432 -0.488943,0.31432 -0.279395,0 -0.447668,-0.104773 -0.447668,-0.269871 z m -0.228596,0.03493 c 0,0.266695 0.260346,0.415918 0.638165,0.415918 0.479417,0 0.781038,-0.247646 0.781038,-0.533392 0,-0.25717 -0.180973,-0.368294 -0.539742,-0.368294 h -0.298445 c -0.209547,0 -0.273046,-0.06985 -0.273046,-0.168272 0,-0.08572 0.04445,-0.136523 0.09842,-0.184147 0.06985,0.03492 0.155572,0.05397 0.231771,0.05397 0.31432,0 0.565141,-0.206372 0.565141,-0.536567 0,-0.130172 -0.05397,-0.247646 -0.126998,-0.317495 h 0.317495 v -0.200021 h -0.536567 c -0.05715,-0.02223 -0.133347,-0.0381 -0.219071,-0.0381 -0.31432,0 -0.581016,0.212722 -0.581016,0.549267 0,0.184147 0.09842,0.333369 0.200022,0.415918 v 0.0127 c -0.07937,0.05397 -0.168272,0.155572 -0.168272,0.285745 0,0.120648 0.06032,0.203197 0.136522,0.250821 v 0.0127 c -0.139697,0.09525 -0.225421,0.219072 -0.225421,0.349245 z m 0.638165,-0.958835 c -0.177797,0 -0.32702,-0.142873 -0.32702,-0.368294 0,-0.225422 0.146048,-0.35877 0.32702,-0.35877 0.180972,0 0.32702,0.133348 0.32702,0.35877 0,0.225421 -0.149223,0.368294 -0.32702,0.368294 z"
       style="font-size:3.17495px;line-height:1.25;font-family:'Source Sans Pro';-inkscape-font-specification:'Source Sans Pro'"
       id="path15633" />
    <path
       d="m 16.465997,18.574857 c 0.146048,0.120648 0.355595,0.212722 0.574666,0.212722 0.365119,0 0.565141,-0.209547 0.565141,-0.460368 0,-0.292095 -0.247646,-0.384169 -0.469892,-0.466718 -0.174623,-0.06667 -0.342895,-0.123823 -0.342895,-0.266695 0,-0.117474 0.0889,-0.222247 0.282571,-0.222247 0.136522,0 0.247646,0.05715 0.352419,0.136523 l 0.123823,-0.165098 c -0.117473,-0.09525 -0.285745,-0.174622 -0.479417,-0.174622 -0.33337,0 -0.530217,0.190497 -0.530217,0.438143 0,0.260346 0.241296,0.36512 0.460368,0.444493 0.168272,0.0635 0.352419,0.133348 0.352419,0.292096 0,0.133348 -0.101598,0.241296 -0.304795,0.241296 -0.184147,0 -0.32067,-0.0762 -0.454018,-0.184147 z"
       style="font-size:3.17495px;line-height:1.25;font-family:'Source Sans Pro';-inkscape-font-specification:'Source Sans Pro'"
       id="path15635" />
    <path
       d="m 17.967751,18.749479 h 0.260345 v -1.543025 h -0.260345 z m 0.482592,-2.266914 h -0.273046 l -0.285745,0.447668 h 0.200022 z"
       style="font-size:3.17495px;line-height:1.25;font-family:'Source Sans Pro';-inkscape-font-specification:'Source Sans Pro'"
       id="path15637" />
    <path
       d="m 18.748789,18.438334 c 0,0.225422 0.07937,0.349245 0.27622,0.349245 0.06985,0 0.114299,-0.0095 0.149223,-0.0254 l -0.03492,-0.196847 c -0.02858,0.0063 -0.04127,0.0063 -0.05715,0.0063 -0.0381,0 -0.07302,-0.03175 -0.07302,-0.114298 v -1.968469 h -0.260346 z"
       style="font-size:3.17495px;line-height:1.25;font-family:'Source Sans Pro';-inkscape-font-specification:'Source Sans Pro'"
       id="path15639" />
    <path
       d="m 19.482199,18.349436 c 0,0.27622 0.193672,0.438143 0.454018,0.438143 0.190497,0 0.361945,-0.101599 0.511167,-0.222247 h 0.0064 l 0.02222,0.184147 h 0.215896 v -0.946135 c 0,-0.384169 -0.158747,-0.63499 -0.536566,-0.63499 -0.247646,0 -0.463543,0.107949 -0.606416,0.200022 l 0.104774,0.180972 c 0.120648,-0.08255 0.279395,-0.165097 0.460367,-0.165097 0.250821,0 0.317495,0.190497 0.317495,0.387344 -0.657214,0.07302 -0.94931,0.241296 -0.94931,0.577841 z m 0.257171,-0.01905 c 0,-0.196847 0.174623,-0.323845 0.692139,-0.387344 v 0.428618 c -0.149222,0.133348 -0.273045,0.206372 -0.422268,0.206372 -0.152398,0 -0.269871,-0.07302 -0.269871,-0.247646 z"
       style="font-size:3.17495px;line-height:1.25;font-family:'Source Sans Pro';-inkscape-font-specification:'Source Sans Pro'"
       id="path15641" />
  </g>
  <g
     aria-label="vzdálenost"
     id="text10484"
     style="font-size:5.98097px;line-height:0%;letter-spacing:0px;word-spacing:0px;fill:#e8eaec;stroke-width:0.498414px">
    <path
       d="m 28.642384,49.303181 h 0.323568 l 0.579726,-1.638063 h -0.273011 l -0.310086,0.930258 c -0.04719,0.161784 -0.101115,0.326938 -0.148302,0.481981 h -0.01348 C 28.75024,48.922314 28.696312,48.75716 28.649125,48.595376 l -0.310086,-0.930258 h -0.286493 z"
       style="font-size:3.3705px;line-height:1.25;font-family:'Source Sans Pro';-inkscape-font-specification:'Source Sans Pro'"
       id="path15644" />
    <path
       d="m 29.60972,49.303181 h 1.240344 V 49.077357 H 29.960252 L 30.8231,47.81342 v -0.148302 h -1.119006 v 0.225823 h 0.768474 l -0.862848,1.263938 z"
       style="font-size:3.3705px;line-height:1.25;font-family:'Source Sans Pro';-inkscape-font-specification:'Source Sans Pro'"
       id="path15646" />
    <path
       d="m 31.062402,48.48752 c 0,0.546021 0.26627,0.856107 0.677471,0.856107 0.192118,0 0.367384,-0.107856 0.495463,-0.232565 h 0.01011 l 0.02359,0.192119 h 0.229194 v -2.399796 h -0.279751 v 0.630283 l 0.01348,0.279752 c -0.144932,-0.117968 -0.26964,-0.188748 -0.458388,-0.188748 -0.374126,0 -0.711176,0.330309 -0.711176,0.862848 z m 0.286493,-0.0034 c 0,-0.374125 0.208971,-0.626913 0.47187,-0.626913 0.13482,0 0.259528,0.04719 0.397719,0.171896 v 0.856107 c -0.13482,0.151672 -0.26627,0.225823 -0.417942,0.225823 -0.286493,0 -0.451647,-0.235935 -0.451647,-0.626913 z"
       style="font-size:3.3705px;line-height:1.25;font-family:'Source Sans Pro';-inkscape-font-specification:'Source Sans Pro'"
       id="path15648" />
    <path
       d="m 32.970106,48.878498 c 0,0.293233 0.205601,0.465129 0.481982,0.465129 0.20223,0 0.384237,-0.107856 0.54265,-0.235935 h 0.0067 l 0.02359,0.195489 h 0.229194 v -1.004409 c 0,-0.407831 -0.168525,-0.6741 -0.569615,-0.6741 -0.262899,0 -0.492093,0.114597 -0.643765,0.212341 l 0.111226,0.192119 c 0.128079,-0.08763 0.296604,-0.175266 0.488723,-0.175266 0.266269,0 0.33705,0.20223 0.33705,0.411201 -0.697694,0.07752 -1.00778,0.256158 -1.00778,0.613431 z m 0.273011,-0.02022 c 0,-0.208971 0.185377,-0.343791 0.734769,-0.411201 v 0.455017 c -0.158414,0.141561 -0.289863,0.219083 -0.448277,0.219083 -0.161784,0 -0.286492,-0.07752 -0.286492,-0.262899 z m 0.81229,-1.961631 h -0.289863 l -0.303345,0.47524 h 0.212342 z"
       style="font-size:3.3705px;line-height:1.25;font-family:'Source Sans Pro';-inkscape-font-specification:'Source Sans Pro'"
       id="path15650" />
    <path
       d="m 34.776691,48.972872 c 0,0.239305 0.08426,0.370755 0.293234,0.370755 0.07415,0 0.121338,-0.01011 0.158413,-0.02696 l -0.03708,-0.208971 c -0.03034,0.0067 -0.04382,0.0067 -0.06067,0.0067 -0.04045,0 -0.07752,-0.0337 -0.07752,-0.121338 v -2.08971 h -0.276381 z"
       style="font-size:3.3705px;line-height:1.25;font-family:'Source Sans Pro';-inkscape-font-specification:'Source Sans Pro'"
       id="path15652" />
    <path
       d="m 35.514828,48.48752 c 0,0.535909 0.347162,0.856107 0.785327,0.856107 0.222453,0 0.397719,-0.07752 0.53928,-0.168525 l -0.09775,-0.182007 c -0.121338,0.07752 -0.252787,0.128079 -0.40783,0.128079 -0.313457,0 -0.525798,-0.222453 -0.546021,-0.576356 h 1.105524 c 0.0067,-0.04045 0.01011,-0.09437 0.01011,-0.151672 0,-0.4685 -0.235935,-0.768474 -0.653877,-0.768474 -0.374125,0 -0.734769,0.326938 -0.734769,0.862848 z m 0.26964,-0.124709 c 0.03371,-0.330309 0.242676,-0.519057 0.47187,-0.519057 0.256158,0 0.40446,0.185378 0.40446,0.519057 z"
       style="font-size:3.3705px;line-height:1.25;font-family:'Source Sans Pro';-inkscape-font-specification:'Source Sans Pro'"
       id="path15654" />
    <path
       d="m 37.307935,49.303181 h 0.276381 v -1.186416 c 0.165155,-0.165155 0.279752,-0.252788 0.448277,-0.252788 0.215712,0 0.310086,0.13145 0.310086,0.438165 v 1.001039 h 0.276381 v -1.038114 c 0,-0.417942 -0.155043,-0.640395 -0.498834,-0.640395 -0.225824,0 -0.394349,0.121338 -0.549392,0.276381 h -0.01011 l -0.02359,-0.235935 h -0.229194 z"
       style="font-size:3.3705px;line-height:1.25;font-family:'Source Sans Pro';-inkscape-font-specification:'Source Sans Pro'"
       id="path15656" />
    <path
       d="m 39.030263,48.48752 c 0,0.54265 0.357273,0.856107 0.758363,0.856107 0.401089,0 0.758362,-0.313457 0.758362,-0.856107 0,-0.549392 -0.357273,-0.862848 -0.758362,-0.862848 -0.40109,0 -0.758363,0.313456 -0.758363,0.862848 z m 0.286493,0 c 0,-0.377496 0.192118,-0.633654 0.47187,-0.633654 0.283122,0 0.47187,0.256158 0.47187,0.633654 0,0.374125 -0.188748,0.626913 -0.47187,0.626913 -0.279752,0 -0.47187,-0.252788 -0.47187,-0.626913 z"
       style="font-size:3.3705px;line-height:1.25;font-family:'Source Sans Pro';-inkscape-font-specification:'Source Sans Pro'"
       id="path15658" />
    <path
       d="m 40.796405,49.117803 c 0.155043,0.128079 0.377496,0.225824 0.610061,0.225824 0.387607,0 0.599949,-0.222453 0.599949,-0.488723 0,-0.310086 -0.262899,-0.40783 -0.498834,-0.495463 -0.185378,-0.07078 -0.364014,-0.13145 -0.364014,-0.283122 0,-0.124709 0.09437,-0.235935 0.299974,-0.235935 0.144932,0 0.262899,0.06067 0.374126,0.144931 l 0.131449,-0.175266 c -0.124708,-0.101115 -0.303345,-0.185377 -0.508945,-0.185377 -0.353903,0 -0.562874,0.20223 -0.562874,0.465129 0,0.276381 0.256158,0.387607 0.488723,0.47187 0.178636,0.06741 0.374125,0.141561 0.374125,0.310086 0,0.141561 -0.107856,0.256158 -0.323568,0.256158 -0.195489,0 -0.34042,-0.08089 -0.481981,-0.195489 z"
       style="font-size:3.3705px;line-height:1.25;font-family:'Source Sans Pro';-inkscape-font-specification:'Source Sans Pro'"
       id="path15660" />
    <path
       d="m 42.437841,48.797606 c 0,0.323568 0.117968,0.546021 0.4685,0.546021 0.101115,0 0.212341,-0.03034 0.303345,-0.06067 l -0.05393,-0.208971 c -0.05393,0.02022 -0.128079,0.04382 -0.185378,0.04382 -0.188748,0 -0.252787,-0.114597 -0.252787,-0.316827 v -0.910035 h 0.441535 V 47.665118 H 42.717593 V 47.20673 h -0.232565 l -0.0337,0.458388 -0.256158,0.01685 v 0.208971 h 0.242676 z"
       style="font-size:3.3705px;line-height:1.25;font-family:'Source Sans Pro';-inkscape-font-specification:'Source Sans Pro'"
       id="path15662" />
  </g>
  <g
     aria-label="dislokace"
     transform="rotate(-45)"
     id="text10488"
     style="font-size:5.98097px;line-height:0%;letter-spacing:0px;word-spacing:0px;fill:#e8eaec;stroke-width:0.498414px">
    <path
       d="m 27.059116,49.008655 c 0,0.514342 0.250821,0.806437 0.638165,0.806437 0.180972,0 0.346069,-0.101598 0.466717,-0.219071 h 0.0095 l 0.02222,0.180972 h 0.215896 v -2.260565 h -0.263521 v 0.593716 l 0.0127,0.263521 C 28.0243,48.262542 27.906827,48.195868 27.72903,48.195868 c -0.352419,0 -0.669914,0.311145 -0.669914,0.812787 z m 0.26987,-0.0032 c 0,-0.352419 0.196847,-0.590541 0.444493,-0.590541 0.126998,0 0.244472,0.04445 0.374644,0.161923 v 0.806437 c -0.126998,0.142873 -0.250821,0.212722 -0.393693,0.212722 -0.269871,0 -0.425444,-0.222247 -0.425444,-0.590541 z"
       style="font-size:3.17495px;line-height:1.25;font-family:'Source Sans Pro';-inkscape-font-specification:'Source Sans Pro'"
       id="path15665" />
    <path
       d="m 29.065685,47.916472 c 0.101598,0 0.180972,-0.06985 0.180972,-0.168272 0,-0.101599 -0.07937,-0.168273 -0.180972,-0.168273 -0.101598,0 -0.180972,0.06667 -0.180972,0.168273 0,0.09842 0.07937,0.168272 0.180972,0.168272 z m -0.133348,1.860521 h 0.260346 v -1.543026 h -0.260346 z"
       style="font-size:3.17495px;line-height:1.25;font-family:'Source Sans Pro';-inkscape-font-specification:'Source Sans Pro'"
       id="path15667" />
    <path
       d="m 29.541928,49.602371 c 0.146048,0.120648 0.355595,0.212721 0.574666,0.212721 0.36512,0 0.565141,-0.209546 0.565141,-0.460368 0,-0.292095 -0.247646,-0.384168 -0.469892,-0.466717 -0.174622,-0.06667 -0.342895,-0.123823 -0.342895,-0.266696 0,-0.117473 0.0889,-0.222246 0.282571,-0.222246 0.136523,0 0.247646,0.05715 0.352419,0.136522 l 0.123823,-0.165097 c -0.117473,-0.09525 -0.285745,-0.174622 -0.479417,-0.174622 -0.33337,0 -0.530217,0.190497 -0.530217,0.438143 0,0.260346 0.241296,0.365119 0.460368,0.444493 0.168272,0.0635 0.352419,0.133348 0.352419,0.292095 0,0.133348 -0.101598,0.241296 -0.304795,0.241296 -0.184147,0 -0.32067,-0.0762 -0.454018,-0.184147 z"
       style="font-size:3.17495px;line-height:1.25;font-family:'Source Sans Pro';-inkscape-font-specification:'Source Sans Pro'"
       id="path15669" />
    <path
       d="m 31.043682,49.465848 c 0,0.225421 0.07937,0.349244 0.27622,0.349244 0.06985,0 0.114298,-0.0095 0.149223,-0.0254 L 31.4342,49.592846 c -0.02857,0.0063 -0.04127,0.0063 -0.05715,0.0063 -0.0381,0 -0.07302,-0.03175 -0.07302,-0.114299 v -1.968469 h -0.260345 z"
       style="font-size:3.17495px;line-height:1.25;font-family:'Source Sans Pro';-inkscape-font-specification:'Source Sans Pro'"
       id="path15671" />
    <path
       d="m 31.738993,49.008655 c 0,0.511167 0.336544,0.806437 0.714364,0.806437 0.377819,0 0.714363,-0.29527 0.714363,-0.806437 0,-0.517517 -0.336544,-0.812787 -0.714363,-0.812787 -0.37782,0 -0.714364,0.29527 -0.714364,0.812787 z m 0.269871,0 c 0,-0.355594 0.180972,-0.596891 0.444493,-0.596891 0.266695,0 0.444493,0.241297 0.444493,0.596891 0,0.352419 -0.177798,0.590541 -0.444493,0.590541 -0.263521,0 -0.444493,-0.238122 -0.444493,-0.590541 z"
       style="font-size:3.17495px;line-height:1.25;font-family:'Source Sans Pro';-inkscape-font-specification:'Source Sans Pro'"
       id="path15673" />
    <path
       d="m 33.574113,49.776993 h 0.257171 v -0.406394 l 0.288921,-0.336544 0.450843,0.742938 h 0.285745 l -0.587366,-0.923911 0.517517,-0.619115 h -0.28892 l -0.657215,0.812787 h -0.0095 v -1.530326 h -0.257171 z"
       style="font-size:3.17495px;line-height:1.25;font-family:'Source Sans Pro';-inkscape-font-specification:'Source Sans Pro'"
       id="path15675" />
    <path
       d="m 35.037767,49.376949 c 0,0.276221 0.193672,0.438143 0.454018,0.438143 0.190497,0 0.361944,-0.101598 0.511167,-0.222246 h 0.0063 l 0.02222,0.184147 h 0.215897 v -0.946135 c 0,-0.384169 -0.158747,-0.63499 -0.536566,-0.63499 -0.247647,0 -0.463543,0.107948 -0.606416,0.200022 l 0.104773,0.180972 c 0.120649,-0.08255 0.279396,-0.165098 0.460368,-0.165098 0.250821,0 0.317495,0.190497 0.317495,0.387344 -0.657214,0.07302 -0.94931,0.241296 -0.94931,0.577841 z m 0.257171,-0.01905 c 0,-0.196846 0.174622,-0.323844 0.692139,-0.387343 v 0.428618 c -0.149222,0.133348 -0.273046,0.206372 -0.422268,0.206372 -0.152398,0 -0.269871,-0.07302 -0.269871,-0.247647 z"
       style="font-size:3.17495px;line-height:1.25;font-family:'Source Sans Pro';-inkscape-font-specification:'Source Sans Pro'"
       id="path15677" />
    <path
       d="m 36.625239,49.008655 c 0,0.511167 0.314321,0.806437 0.723889,0.806437 0.184147,0 0.361944,-0.0762 0.501642,-0.200022 l -0.117473,-0.171447 c -0.09207,0.08255 -0.215897,0.155573 -0.361944,0.155573 -0.282571,0 -0.476243,-0.238122 -0.476243,-0.590541 0,-0.355594 0.203197,-0.596891 0.482593,-0.596891 0.123823,0 0.219071,0.05715 0.311145,0.136523 l 0.130173,-0.168272 c -0.104774,-0.09842 -0.247646,-0.184147 -0.450843,-0.184147 -0.396869,0 -0.742939,0.29527 -0.742939,0.812787 z"
       style="font-size:3.17495px;line-height:1.25;font-family:'Source Sans Pro';-inkscape-font-specification:'Source Sans Pro'"
       id="path15679" />
    <path
       d="m 38.006341,49.008655 c 0,0.504817 0.32702,0.806437 0.739763,0.806437 0.209547,0 0.374644,-0.07302 0.507992,-0.158747 l -0.09207,-0.171448 c -0.114298,0.07302 -0.238121,0.120649 -0.384169,0.120649 -0.29527,0 -0.495292,-0.209547 -0.514342,-0.542917 h 1.041384 c 0.0063,-0.0381 0.0095,-0.0889 0.0095,-0.142873 0,-0.441318 -0.222246,-0.723888 -0.61594,-0.723888 -0.352419,0 -0.692139,0.30797 -0.692139,0.812787 z m 0.253996,-0.117473 c 0.03175,-0.311145 0.228596,-0.488943 0.444493,-0.488943 0.241296,0 0.380994,0.174623 0.380994,0.488943 z"
       style="font-size:3.17495px;line-height:1.25;font-family:'Source Sans Pro';-inkscape-font-specification:'Source Sans Pro'"
       id="path15681" />
  </g>
  <path
     style="fill:none;stroke:#a6aeb8;stroke-width:0.264579;stroke-linecap:butt;stroke-linejoin:miter;stroke-miterlimit:4;stroke-dasharray:none;stroke-opacity:1"
     d="M 3.8360295,43.166774 V 45.50306 H 66.91663 v -2.336286"
     id="path10490"
     inkscape:connector-curvature="0" />
  <g
     style="fill:#e8eaec;fill-opacity:1;stroke-width:201.795"
     transform="matrix(0.00477036,0,0,-0.00485204,42.78715,21.324712)"
     id="g10497">
    <g
       style="fill:#e8eaec;fill-opacity:1;stroke-width:201.795"
       id="g10495">
      <path
         style="fill:#e8eaec;fill-opacity:1;stroke-width:201.795"
         inkscape:connector-curvature="0"
         d="M 486.413,221.412 122.347,12.916 C 69.409,-17.402 26.495,7.476 26.495,68.479 v 415.652 c 0,61.004 42.914,85.882 95.852,55.563 l 364.066,-208.49 c 52.938,-30.317 52.938,-79.473 0,-109.792 z"
         id="path10493" />
    </g>
  </g>
  <g
     id="g10503"
     transform="matrix(0.00461907,-0.00119182,-0.00121223,-0.00469817,47.4429,8.5399322)"
     style="fill:#e8eaec;fill-opacity:1;stroke-width:201.795">
    <g
       id="g10501"
       style="fill:#e8eaec;fill-opacity:1;stroke-width:201.795">
      <path
         id="path10499"
         d="M 486.413,221.412 122.347,12.916 C 69.409,-17.402 26.495,7.476 26.495,68.479 v 415.652 c 0,61.004 42.914,85.882 95.852,55.563 l 364.066,-208.49 c 52.938,-30.317 52.938,-79.473 0,-109.792 z"
         inkscape:connector-curvature="0"
         style="fill:#e8eaec;fill-opacity:1;stroke-width:201.795" />
    </g>
  </g>
  <g
     style="fill:#e8eaec;fill-opacity:1;stroke-width:201.795"
     transform="matrix(-2.7127559e-4,0.00290144,0.00295112,2.7592424e-4,59.53668,4.2329822)"
     id="g10509">
    <g
       style="fill:#e8eaec;fill-opacity:1;stroke-width:201.795"
       id="g10507">
      <path
         style="fill:#e8eaec;fill-opacity:1;stroke-width:201.795"
         inkscape:connector-curvature="0"
         d="M 486.413,221.412 122.347,12.916 C 69.409,-17.402 26.495,7.476 26.495,68.479 v 415.652 c 0,61.004 42.914,85.882 95.852,55.563 l 364.066,-208.49 c 52.938,-30.317 52.938,-79.473 0,-109.792 z"
         id="path10505" />
    </g>
  </g>
  <g
     id="g10515"
     transform="matrix(-6.9074192e-4,0.00283104,0.00287952,7.0257125e-4,51.00392,12.823865)"
     style="fill:#e8eaec;fill-opacity:1;stroke-width:201.795">
    <g
       id="g10513"
       style="fill:#e8eaec;fill-opacity:1;stroke-width:201.795">
      <path
         id="path10511"
         d="M 486.413,221.412 122.347,12.916 C 69.409,-17.402 26.495,7.476 26.495,68.479 v 415.652 c 0,61.004 42.914,85.882 95.852,55.563 l 364.066,-208.49 c 52.938,-30.317 52.938,-79.473 0,-109.792 z"
         inkscape:connector-curvature="0"
         style="fill:#e8eaec;fill-opacity:1;stroke-width:201.795" />
    </g>
  </g>
</svg>
