<?xml version="1.0" encoding="UTF-8" standalone="no"?>
<svg
   width="302.44885"
   height="242.39272"
   version="1.1"
   viewBox="0 0 80.024572 64.130727"
   id="svg10001"
   sodipodi:docname="steering_follow_cs.svg"
   inkscape:version="1.2.2 (732a01da63, 2022-12-09)"
   xmlns:inkscape="http://www.inkscape.org/namespaces/inkscape"
   xmlns:sodipodi="http://sodipodi.sourceforge.net/DTD/sodipodi-0.dtd"
   xmlns="http://www.w3.org/2000/svg"
   xmlns:svg="http://www.w3.org/2000/svg"
   xmlns:rdf="http://www.w3.org/1999/02/22-rdf-syntax-ns#"
   xmlns:cc="http://creativecommons.org/ns#"
   xmlns:dc="http://purl.org/dc/elements/1.1/">
  <defs
     id="defs10005" />
  <sodipodi:namedview
     id="namedview10003"
     pagecolor="#ffffff"
     bordercolor="#000000"
     borderopacity="0.25"
     inkscape:showpageshadow="2"
     inkscape:pageopacity="0.0"
     inkscape:pagecheckerboard="0"
     inkscape:deskcolor="#d1d1d1"
     showgrid="false"
     inkscape:zoom="2.8207759"
     inkscape:cx="188.06882"
     inkscape:cy="134.3602"
     inkscape:window-width="1920"
     inkscape:window-height="1017"
     inkscape:window-x="-8"
     inkscape:window-y="-8"
     inkscape:window-maximized="1"
     inkscape:current-layer="svg10001" />
  <metadata
     id="metadata9897">
    <rdf:RDF>
      <cc:Work
         rdf:about="">
        <dc:format>image/svg+xml</dc:format>
        <dc:type
           rdf:resource="http://purl.org/dc/dcmitype/StillImage" />
      </cc:Work>
    </rdf:RDF>
  </metadata>
  <path
     inkscape:transform-center-y="0.073423423"
     transform="matrix(0.2271113,0.23611402,-0.13805993,0.13279589,45.444785,-64.58803)"
     inkscape:transform-center-x="0.14443884"
     d="m 73.143157,404.25464 -20.354117,11.75145 0,-23.50291 z"
     inkscape:randomized="0"
     inkscape:rounded="0"
     inkscape:flatsided="true"
     sodipodi:arg2="1.0471976"
     sodipodi:arg1="0"
     sodipodi:r2="6.7847052"
     sodipodi:r1="13.569411"
     sodipodi:cy="404.25464"
     sodipodi:cx="59.573746"
     sodipodi:sides="3"
     id="path15769"
     style="fill:#6f8ce9;fill-opacity:1;stroke:none;stroke-width:1.05618;stroke-linecap:butt;stroke-linejoin:miter;stroke-miterlimit:4;stroke-dasharray:none;stroke-dashoffset:0;stroke-opacity:1"
     sodipodi:type="star" />
  <path
     inkscape:connector-curvature="0"
     id="path15771"
     d="m 6.6292656,6.8629797 c 0,0 10.9426784,11.7937543 15.6051294,12.7495283 5.981982,1.226263 12.569872,-1.282462 17.75647,-4.505365 3.06013,-1.901494 3.42344,-8.0644553 7.02304,-8.2156413 5.33625,-0.224133 6.13851,10.3227203 11.39591,11.2633863 6.11015,1.093254 16.96142,-7.685616 16.96142,-7.685616"
     style="fill:none;fill-rule:evenodd;stroke:#6f8ce9;stroke-width:0.264589;stroke-linecap:butt;stroke-linejoin:miter;stroke-miterlimit:4;stroke-dasharray:0.264589, 0.529178;stroke-dashoffset:0;stroke-opacity:1"
     sodipodi:nodetypes="cssssc" />
  <path
     style="fill:none;fill-rule:evenodd;stroke:#a6aeb8;stroke-width:0.264589;stroke-linecap:butt;stroke-linejoin:miter;stroke-miterlimit:4;stroke-dasharray:none;stroke-opacity:1"
     d="m 6.6591906,6.9700587 15.5752044,12.6424493 17.75647,-4.505365 7.02304,-8.2156413 11.39591,11.2633863 16.96142,-7.685616"
     id="path15773"
     inkscape:connector-curvature="0"
     sodipodi:nodetypes="cccccc" />
  <circle
     r="0.93159455"
     cy="19.571316"
     cx="22.161638"
     id="circle15775"
     style="fill:#a6aeb8;fill-opacity:1;stroke:none;stroke-width:0.224878;stroke-linecap:butt;stroke-linejoin:miter;stroke-miterlimit:4;stroke-dasharray:none;stroke-dashoffset:0;stroke-opacity:1" />
  <circle
     style="fill:#a6aeb8;fill-opacity:1;stroke:none;stroke-width:0.224878;stroke-linecap:butt;stroke-linejoin:miter;stroke-miterlimit:4;stroke-dasharray:none;stroke-dashoffset:0;stroke-opacity:1"
     id="circle15777"
     cx="40.058208"
     cy="15.073696"
     r="0.93159455" />
  <circle
     r="0.93159455"
     cy="7.1092262"
     cx="47.085629"
     id="circle15779"
     style="fill:#a6aeb8;fill-opacity:1;stroke:none;stroke-width:0.224878;stroke-linecap:butt;stroke-linejoin:miter;stroke-miterlimit:4;stroke-dasharray:none;stroke-dashoffset:0;stroke-opacity:1" />
  <circle
     style="fill:#a6aeb8;fill-opacity:1;stroke:none;stroke-width:0.224878;stroke-linecap:butt;stroke-linejoin:miter;stroke-miterlimit:4;stroke-dasharray:none;stroke-dashoffset:0;stroke-opacity:1"
     id="circle15781"
     cx="58.286015"
     cy="17.912148"
     r="0.93159455" />
  <circle
     r="0.93159455"
     cy="10.548687"
     cx="75.085655"
     id="circle15783"
     style="fill:#a6aeb8;fill-opacity:1;stroke:none;stroke-width:0.224878;stroke-linecap:butt;stroke-linejoin:miter;stroke-miterlimit:4;stroke-dasharray:none;stroke-dashoffset:0;stroke-opacity:1" />
  <g
     aria-label="poloměr = 1"
     id="text15787"
     style="font-size:4.49756px;line-height:0%;letter-spacing:0px;word-spacing:0px;fill:#e8eaec;stroke-width:0.374798px">
    <path
       d="m 16.637967,11.613845 c 0.142878,0.111127 0.285756,0.177804 0.428635,0.177804 0.352432,0 0.666764,-0.307982 0.666764,-0.831869 0,-0.479435 -0.212729,-0.787417 -0.609613,-0.787417 -0.180979,0 -0.352433,0.09843 -0.492136,0.215905 h -0.0095 l -0.02223,-0.177804 h -0.215905 v 2.193973 h 0.260356 v -0.520711 z m 0.0064,-0.203205 v -0.809643 c 0.152404,-0.136528 0.282581,-0.209554 0.412759,-0.209554 0.292107,0 0.406409,0.228605 0.406409,0.568337 0,0.381009 -0.187329,0.612789 -0.441334,0.612789 -0.101603,0 -0.238131,-0.04445 -0.377834,-0.161929 z"
       style="font-size:3.17507px;line-height:1.25;font-family:'Source Sans Pro';-inkscape-font-specification:'Source Sans Pro'"
       id="path18505" />
    <path
       d="m 18.031824,10.985181 c 0,0.511186 0.336557,0.806468 0.714391,0.806468 0.377833,0 0.71439,-0.295282 0.71439,-0.806468 0,-0.517537 -0.336557,-0.812818 -0.71439,-0.812818 -0.377834,0 -0.714391,0.295281 -0.714391,0.812818 z m 0.269881,0 c 0,-0.355608 0.180979,-0.596913 0.44451,-0.596913 0.266705,0 0.444509,0.241305 0.444509,0.596913 0,0.352432 -0.177804,0.590563 -0.444509,0.590563 -0.263531,0 -0.44451,-0.238131 -0.44451,-0.590563 z"
       style="font-size:3.17507px;line-height:1.25;font-family:'Source Sans Pro';-inkscape-font-specification:'Source Sans Pro'"
       id="path18507" />
    <path
       d="m 19.867014,11.442391 c 0,0.22543 0.07938,0.349258 0.276231,0.349258 0.06985,0 0.114302,-0.0095 0.149228,-0.0254 l -0.03493,-0.196854 c -0.02858,0.0063 -0.04128,0.0063 -0.05715,0.0063 -0.0381,0 -0.07303,-0.03175 -0.07303,-0.114303 V 9.4928978 h -0.260355 z"
       style="font-size:3.17507px;line-height:1.25;font-family:'Source Sans Pro';-inkscape-font-specification:'Source Sans Pro'"
       id="path18509" />
    <path
       d="m 20.562351,10.985181 c 0,0.511186 0.336558,0.806468 0.714391,0.806468 0.377833,0 0.714391,-0.295282 0.714391,-0.806468 0,-0.517537 -0.336558,-0.812818 -0.714391,-0.812818 -0.377833,0 -0.714391,0.295281 -0.714391,0.812818 z m 0.269881,0 c 0,-0.355608 0.180979,-0.596913 0.44451,-0.596913 0.266706,0 0.44451,0.241305 0.44451,0.596913 0,0.352432 -0.177804,0.590563 -0.44451,0.590563 -0.263531,0 -0.44451,-0.238131 -0.44451,-0.590563 z"
       style="font-size:3.17507px;line-height:1.25;font-family:'Source Sans Pro';-inkscape-font-specification:'Source Sans Pro'"
       id="path18511" />
    <path
       d="m 22.397541,11.753548 h 0.260356 v -1.117625 c 0.142878,-0.158753 0.273056,-0.23813 0.387359,-0.23813 0.196854,0 0.288931,0.123827 0.288931,0.412759 v 0.942996 h 0.260356 v -1.117625 c 0.142878,-0.158753 0.266706,-0.23813 0.387358,-0.23813 0.19368,0 0.285757,0.123827 0.285757,0.412759 v 0.942996 h 0.260355 v -0.977922 c 0,-0.393709 -0.152403,-0.603263 -0.46991,-0.603263 -0.187329,0 -0.346083,0.120652 -0.508011,0.295281 -0.0635,-0.184154 -0.190504,-0.295281 -0.42546,-0.295281 -0.184154,0 -0.346082,0.114302 -0.479435,0.260356 h -0.0095 l -0.02223,-0.222255 h -0.215905 z"
       style="font-size:3.17507px;line-height:1.25;font-family:'Source Sans Pro';-inkscape-font-specification:'Source Sans Pro'"
       id="path18513" />
    <path
       d="m 24.915374,10.985181 c 0,0.504836 0.327032,0.806468 0.739791,0.806468 0.209555,0 0.374658,-0.07303 0.508011,-0.158754 l -0.09208,-0.171454 c -0.114302,0.07303 -0.23813,0.120653 -0.384183,0.120653 -0.295282,0 -0.495311,-0.209555 -0.514362,-0.542937 h 1.041423 c 0.0064,-0.0381 0.0095,-0.0889 0.0095,-0.142878 0,-0.441335 -0.222255,-0.723916 -0.615964,-0.723916 -0.352433,0 -0.692165,0.307982 -0.692165,0.812818 z m 0.254005,-0.117478 c 0.03175,-0.311157 0.228605,-0.488961 0.44451,-0.488961 0.241305,0 0.381009,0.174629 0.381009,0.488961 z m 0.333383,-0.9334705 h 0.212729 l 0.301632,-0.4476848 h -0.190504 l -0.21273,0.2921064 h -0.0127 L 25.388459,9.4865477 H 25.20113 Z"
       style="font-size:3.17507px;line-height:1.25;font-family:'Source Sans Pro';-inkscape-font-specification:'Source Sans Pro'"
       id="path18515" />
    <path
       d="m 26.604512,11.753548 h 0.260356 v -0.990622 c 0.104777,-0.260356 0.260355,-0.355608 0.390533,-0.355608 0.0635,0 0.09843,0.0095 0.149229,0.0254 l 0.0508,-0.228606 c -0.0508,-0.02222 -0.09843,-0.03175 -0.165104,-0.03175 -0.174629,0 -0.333382,0.123828 -0.43816,0.317507 h -0.0095 l -0.02223,-0.279406 h -0.215905 z"
       style="font-size:3.17507px;line-height:1.25;font-family:'Source Sans Pro';-inkscape-font-specification:'Source Sans Pro'"
       id="path18517" />
    <path
       d="m 28.195221,10.464469 h 1.362105 v -0.196854 h -1.362105 z m 0,0.679465 h 1.362105 V 10.94708 h -1.362105 z"
       style="font-size:3.17507px;line-height:1.25;font-family:'Source Sans Pro';-inkscape-font-specification:'Source Sans Pro'"
       id="path18519" />
    <path
       d="m 30.557471,11.753548 h 1.143025 V 11.537643 H 31.281387 V 9.727853 H 31.081358 C 30.97023,9.7945294 30.836877,9.8453306 30.652723,9.8770813 V 10.04536 h 0.368308 v 1.492283 h -0.46356 z"
       style="font-size:3.17507px;line-height:1.25;font-family:'Source Sans Pro';-inkscape-font-specification:'Source Sans Pro'"
       id="path18521" />
  </g>
  <path
     sodipodi:type="star"
     style="fill:#6f8ce9;fill-opacity:1;stroke:none;stroke-width:1.05618;stroke-linecap:butt;stroke-linejoin:miter;stroke-miterlimit:4;stroke-dasharray:none;stroke-dashoffset:0;stroke-opacity:1"
     id="path15789"
     sodipodi:sides="3"
     sodipodi:cx="59.573746"
     sodipodi:cy="404.25464"
     sodipodi:r1="13.569411"
     sodipodi:r2="6.7847052"
     sodipodi:arg1="0"
     sodipodi:arg2="1.0471976"
     inkscape:flatsided="true"
     inkscape:rounded="0"
     inkscape:randomized="0"
     d="m 73.143157,404.25464 -20.354117,11.75145 0,-23.50291 z"
     inkscape:transform-center-x="0.14443884"
     transform="matrix(0.2271113,0.23611402,-0.13805993,0.13279589,45.444785,-46.642402)"
     inkscape:transform-center-y="0.073423199" />
  <circle
     r="2.8524292"
     cy="37.516911"
     cx="22.161638"
     id="circle15791"
     style="fill:#1d232d;fill-opacity:1;stroke:#a6aeb8;stroke-width:0.264589;stroke-linecap:butt;stroke-linejoin:miter;stroke-miterlimit:4;stroke-dasharray:none;stroke-dashoffset:0;stroke-opacity:1" />
  <circle
     style="fill:#1d232d;fill-opacity:1;stroke:#a6aeb8;stroke-width:0.264589;stroke-linecap:butt;stroke-linejoin:miter;stroke-miterlimit:4;stroke-dasharray:none;stroke-dashoffset:0;stroke-opacity:1"
     id="circle15793"
     cx="40.151867"
     cy="33.019352"
     r="2.8524292" />
  <circle
     r="2.8524292"
     cy="25.054882"
     cx="47.132496"
     id="circle15795"
     style="fill:#1d232d;fill-opacity:1;stroke:#a6aeb8;stroke-width:0.264589;stroke-linecap:butt;stroke-linejoin:miter;stroke-miterlimit:4;stroke-dasharray:none;stroke-dashoffset:0;stroke-opacity:1" />
  <circle
     style="fill:#1d232d;fill-opacity:1;stroke:#a6aeb8;stroke-width:0.264589;stroke-linecap:butt;stroke-linejoin:miter;stroke-miterlimit:4;stroke-dasharray:none;stroke-dashoffset:0;stroke-opacity:1"
     id="circle15797"
     cx="58.329556"
     cy="35.830288"
     r="2.8524292" />
  <circle
     r="2.8524292"
     cy="28.381229"
     cx="75.101707"
     id="circle15799"
     style="fill:#1d232d;fill-opacity:1;stroke:#a6aeb8;stroke-width:0.264589;stroke-linecap:butt;stroke-linejoin:miter;stroke-miterlimit:4;stroke-dasharray:none;stroke-dashoffset:0;stroke-opacity:1" />
  <circle
     style="fill:#1d232d;fill-opacity:1;stroke:#a6aeb8;stroke-width:0.264589;stroke-linecap:butt;stroke-linejoin:miter;stroke-miterlimit:4;stroke-dasharray:none;stroke-dashoffset:0;stroke-opacity:1"
     id="circle15801"
     cx="22.161638"
     cy="59.210545"
     r="4.7905645" />
  <circle
     r="4.7905645"
     cy="54.712986"
     cx="39.964535"
     id="circle15803"
     style="fill:#1d232d;fill-opacity:1;stroke:#a6aeb8;stroke-width:0.264589;stroke-linecap:butt;stroke-linejoin:miter;stroke-miterlimit:4;stroke-dasharray:none;stroke-dashoffset:0;stroke-opacity:1" />
  <circle
     style="fill:#1d232d;fill-opacity:1;stroke:#a6aeb8;stroke-width:0.264589;stroke-linecap:butt;stroke-linejoin:miter;stroke-miterlimit:4;stroke-dasharray:none;stroke-dashoffset:0;stroke-opacity:1"
     id="circle15805"
     cx="46.991932"
     cy="46.795345"
     r="4.7905645" />
  <circle
     r="4.7905645"
     cy="57.523914"
     cx="58.235828"
     id="circle15807"
     style="fill:#1d232d;fill-opacity:1;stroke:#a6aeb8;stroke-width:0.264589;stroke-linecap:butt;stroke-linejoin:miter;stroke-miterlimit:4;stroke-dasharray:none;stroke-dashoffset:0;stroke-opacity:1" />
  <circle
     style="fill:#1d232d;fill-opacity:1;stroke:#a6aeb8;stroke-width:0.264589;stroke-linecap:butt;stroke-linejoin:miter;stroke-miterlimit:4;stroke-dasharray:none;stroke-dashoffset:0;stroke-opacity:1"
     id="circle15809"
     cx="75.101707"
     cy="50.028034"
     r="4.7905645" />
  <path
     sodipodi:nodetypes="cssssc"
     style="fill:none;fill-rule:evenodd;stroke:#6f8ce9;stroke-width:0.264589;stroke-linecap:butt;stroke-linejoin:miter;stroke-miterlimit:4;stroke-dasharray:0.264589, 0.529178;stroke-dashoffset:0;stroke-opacity:1"
     d="m 6.6292656,24.808608 c 0,0 11.0089574,9.541124 15.6714094,10.496898 5.981981,1.226237 11.344111,-0.686237 16.53074,-3.909087 3.0601,-1.90152 3.79211,-5.433357 7.38745,-5.664846 3.48112,-0.224133 4.61461,8.10319 9.87205,9.043883 6.11012,1.093228 17.85582,-7.254998 17.85582,-7.254998"
     id="path15811"
     inkscape:connector-curvature="0" />
  <path
     inkscape:connector-curvature="0"
     id="path15813"
     d="m 6.6591906,24.915687 15.5752044,12.642502 17.75647,-4.505365 7.02304,-8.215693 11.39591,11.263412 16.96142,-7.685643"
     style="fill:none;fill-rule:evenodd;stroke:#a6aeb8;stroke-width:0.264589;stroke-linecap:butt;stroke-linejoin:miter;stroke-miterlimit:4;stroke-dasharray:none;stroke-opacity:1"
     sodipodi:nodetypes="cccccc" />
  <circle
     style="fill:#a6aeb8;fill-opacity:1;stroke:none;stroke-width:0.224878;stroke-linecap:butt;stroke-linejoin:miter;stroke-miterlimit:4;stroke-dasharray:none;stroke-dashoffset:0;stroke-opacity:1"
     id="circle15815"
     cx="22.161638"
     cy="37.516911"
     r="0.93159455" />
  <circle
     r="0.93159455"
     cy="33.019352"
     cx="40.058208"
     id="circle15817"
     style="fill:#a6aeb8;fill-opacity:1;stroke:none;stroke-width:0.224878;stroke-linecap:butt;stroke-linejoin:miter;stroke-miterlimit:4;stroke-dasharray:none;stroke-dashoffset:0;stroke-opacity:1" />
  <circle
     style="fill:#a6aeb8;fill-opacity:1;stroke:none;stroke-width:0.224878;stroke-linecap:butt;stroke-linejoin:miter;stroke-miterlimit:4;stroke-dasharray:none;stroke-dashoffset:0;stroke-opacity:1"
     id="circle15819"
     cx="47.085629"
     cy="25.054882"
     r="0.93159455" />
  <circle
     r="0.93159455"
     cy="35.857738"
     cx="58.286015"
     id="circle15821"
     style="fill:#a6aeb8;fill-opacity:1;stroke:none;stroke-width:0.224878;stroke-linecap:butt;stroke-linejoin:miter;stroke-miterlimit:4;stroke-dasharray:none;stroke-dashoffset:0;stroke-opacity:1" />
  <circle
     style="fill:#a6aeb8;fill-opacity:1;stroke:none;stroke-width:0.224878;stroke-linecap:butt;stroke-linejoin:miter;stroke-miterlimit:4;stroke-dasharray:none;stroke-dashoffset:0;stroke-opacity:1"
     id="circle15823"
     cx="75.085655"
     cy="28.494274"
     r="0.93159455" />
  <g
     aria-label="poloměr = 10"
     id="text15827"
     style="font-size:4.49756px;line-height:0%;letter-spacing:0px;word-spacing:0px;fill:#e8eaec;stroke-width:0.374798px">
    <path
       d="m 16.351545,29.559497 c 0.142878,0.111127 0.285757,0.177804 0.428635,0.177804 0.352433,0 0.666764,-0.307982 0.666764,-0.831869 0,-0.479435 -0.212729,-0.787417 -0.609613,-0.787417 -0.180979,0 -0.352433,0.09843 -0.492136,0.215905 h -0.0095 l -0.02223,-0.177804 H 16.09754 v 2.193973 h 0.260355 v -0.520711 z m 0.0063,-0.203205 v -0.809643 c 0.152404,-0.136528 0.282582,-0.209554 0.41276,-0.209554 0.292106,0 0.406409,0.228605 0.406409,0.568337 0,0.381009 -0.18733,0.612789 -0.441335,0.612789 -0.101602,0 -0.23813,-0.04445 -0.377834,-0.161929 z"
       style="font-size:3.17507px;line-height:1.25;font-family:'Source Sans Pro';-inkscape-font-specification:'Source Sans Pro'"
       id="path18524" />
    <path
       d="m 17.745402,28.930833 c 0,0.511186 0.336557,0.806468 0.714391,0.806468 0.377833,0 0.714391,-0.295282 0.714391,-0.806468 0,-0.517537 -0.336558,-0.812818 -0.714391,-0.812818 -0.377834,0 -0.714391,0.295281 -0.714391,0.812818 z m 0.269881,0 c 0,-0.355608 0.180979,-0.596913 0.44451,-0.596913 0.266706,0 0.44451,0.241305 0.44451,0.596913 0,0.352433 -0.177804,0.590563 -0.44451,0.590563 -0.263531,0 -0.44451,-0.23813 -0.44451,-0.590563 z"
       style="font-size:3.17507px;line-height:1.25;font-family:'Source Sans Pro';-inkscape-font-specification:'Source Sans Pro'"
       id="path18526" />
    <path
       d="m 19.580592,29.388043 c 0,0.22543 0.07938,0.349258 0.276231,0.349258 0.06985,0 0.114303,-0.0095 0.149228,-0.0254 l -0.03492,-0.196854 c -0.02858,0.0063 -0.04128,0.0063 -0.05715,0.0063 -0.0381,0 -0.07303,-0.03175 -0.07303,-0.114303 V 27.43855 h -0.260356 z"
       style="font-size:3.17507px;line-height:1.25;font-family:'Source Sans Pro';-inkscape-font-specification:'Source Sans Pro'"
       id="path18528" />
    <path
       d="m 20.275929,28.930833 c 0,0.511186 0.336558,0.806468 0.714391,0.806468 0.377833,0 0.714391,-0.295282 0.714391,-0.806468 0,-0.517537 -0.336558,-0.812818 -0.714391,-0.812818 -0.377833,0 -0.714391,0.295281 -0.714391,0.812818 z m 0.269881,0 c 0,-0.355608 0.180979,-0.596913 0.44451,-0.596913 0.266706,0 0.44451,0.241305 0.44451,0.596913 0,0.352433 -0.177804,0.590563 -0.44451,0.590563 -0.263531,0 -0.44451,-0.23813 -0.44451,-0.590563 z"
       style="font-size:3.17507px;line-height:1.25;font-family:'Source Sans Pro';-inkscape-font-specification:'Source Sans Pro'"
       id="path18530" />
    <path
       d="m 22.11112,29.6992 h 0.260355 v -1.117625 c 0.142878,-0.158753 0.273056,-0.23813 0.387359,-0.23813 0.196854,0 0.288931,0.123827 0.288931,0.412759 V 29.6992 h 0.260356 v -1.117625 c 0.142878,-0.158753 0.266706,-0.23813 0.387358,-0.23813 0.19368,0 0.285757,0.123827 0.285757,0.412759 V 29.6992 h 0.260356 v -0.977922 c 0,-0.393709 -0.152404,-0.603263 -0.469911,-0.603263 -0.187329,0 -0.346082,0.120652 -0.508011,0.295281 -0.0635,-0.184154 -0.190504,-0.295281 -0.425459,-0.295281 -0.184154,0 -0.346083,0.114302 -0.479436,0.260356 h -0.0095 l -0.02223,-0.222255 H 22.11112 Z"
       style="font-size:3.17507px;line-height:1.25;font-family:'Source Sans Pro';-inkscape-font-specification:'Source Sans Pro'"
       id="path18532" />
    <path
       d="m 24.628952,28.930833 c 0,0.504836 0.327032,0.806468 0.739791,0.806468 0.209555,0 0.374659,-0.07303 0.508011,-0.158754 l -0.09208,-0.171454 c -0.114302,0.07303 -0.23813,0.120653 -0.384183,0.120653 -0.295282,0 -0.495311,-0.209555 -0.514361,-0.542937 h 1.041423 c 0.0064,-0.0381 0.0095,-0.0889 0.0095,-0.142878 0,-0.441335 -0.222255,-0.723916 -0.615964,-0.723916 -0.352433,0 -0.692165,0.307982 -0.692165,0.812818 z m 0.254006,-0.117478 c 0.03175,-0.311157 0.228605,-0.488961 0.444509,-0.488961 0.241306,0 0.381009,0.174629 0.381009,0.488961 z m 0.333382,-0.93347 h 0.21273 L 25.730701,27.4322 h -0.190504 l -0.21273,0.292106 h -0.0127 L 25.102037,27.4322 h -0.187329 z"
       style="font-size:3.17507px;line-height:1.25;font-family:'Source Sans Pro';-inkscape-font-specification:'Source Sans Pro'"
       id="path18534" />
    <path
       d="m 26.31809,29.6992 h 0.260356 v -0.990622 c 0.104777,-0.260356 0.260356,-0.355608 0.390534,-0.355608 0.0635,0 0.09843,0.0095 0.149228,0.0254 l 0.0508,-0.228606 c -0.0508,-0.02222 -0.09843,-0.03175 -0.165104,-0.03175 -0.174628,0 -0.333382,0.123828 -0.438159,0.317507 h -0.0095 l -0.02222,-0.279406 H 26.31809 Z"
       style="font-size:3.17507px;line-height:1.25;font-family:'Source Sans Pro';-inkscape-font-specification:'Source Sans Pro'"
       id="path18536" />
    <path
       d="m 27.908799,28.410121 h 1.362105 v -0.196854 h -1.362105 z m 0,0.679465 h 1.362105 v -0.196854 h -1.362105 z"
       style="font-size:3.17507px;line-height:1.25;font-family:'Source Sans Pro';-inkscape-font-specification:'Source Sans Pro'"
       id="path18538" />
    <path
       d="m 30.271049,29.6992 h 1.143026 v -0.215905 h -0.41911 v -1.80979 h -0.200029 c -0.111128,0.06668 -0.24448,0.117478 -0.428635,0.149228 v 0.168279 h 0.368309 v 1.492283 h -0.463561 z"
       style="font-size:3.17507px;line-height:1.25;font-family:'Source Sans Pro';-inkscape-font-specification:'Source Sans Pro'"
       id="path18540" />
    <path
       d="m 32.38882,29.737301 c 0.403234,0 0.647714,-0.377834 0.647714,-1.057299 0,-0.679465 -0.24448,-1.044598 -0.647714,-1.044598 -0.406409,0 -0.650889,0.365133 -0.650889,1.044598 0,0.679465 0.24448,1.057299 0.650889,1.057299 z m 0,-0.209555 c -0.23813,0 -0.396884,-0.254006 -0.396884,-0.847744 0,-0.593738 0.158754,-0.835043 0.396884,-0.835043 0.234955,0 0.393709,0.241305 0.393709,0.835043 0,0.593738 -0.158754,0.847744 -0.393709,0.847744 z"
       style="font-size:3.17507px;line-height:1.25;font-family:'Source Sans Pro';-inkscape-font-specification:'Source Sans Pro'"
       id="path18542" />
  </g>
  <path
     inkscape:transform-center-y="0.073413468"
     transform="matrix(0.2271113,0.23611402,-0.13805993,0.13279589,45.444785,-24.948794)"
     inkscape:transform-center-x="0.14443884"
     d="m 73.143157,404.25464 -20.354117,11.75145 0,-23.50291 z"
     inkscape:randomized="0"
     inkscape:rounded="0"
     inkscape:flatsided="true"
     sodipodi:arg2="1.0471976"
     sodipodi:arg1="0"
     sodipodi:r2="6.7847052"
     sodipodi:r1="13.569411"
     sodipodi:cy="404.25464"
     sodipodi:cx="59.573746"
     sodipodi:sides="3"
     id="path15829"
     style="fill:#6f8ce9;fill-opacity:1;stroke:none;stroke-width:1.05618;stroke-linecap:butt;stroke-linejoin:miter;stroke-miterlimit:4;stroke-dasharray:none;stroke-dashoffset:0;stroke-opacity:1"
     sodipodi:type="star" />
  <path
     inkscape:connector-curvature="0"
     id="path15831"
     d="m 6.6292656,46.502216 c 0,0 7.7886474,10.320073 12.4511254,11.275847 5.981955,1.226263 14.585351,-1.732368 19.771954,-4.955271 3.06013,-1.901468 4.57572,-9.408407 8.17534,-9.559593 5.33618,-0.224107 6.22411,9.515565 11.48154,10.456258 6.11012,1.09328 16.03382,-5.963011 16.03382,-5.963011"
     style="fill:none;fill-rule:evenodd;stroke:#6f8ce9;stroke-width:0.264589;stroke-linecap:butt;stroke-linejoin:miter;stroke-miterlimit:4;stroke-dasharray:0.264589, 0.529178;stroke-dashoffset:0;stroke-opacity:1"
     sodipodi:nodetypes="cssssc" />
  <path
     style="fill:none;fill-rule:evenodd;stroke:#a6aeb8;stroke-width:0.264589;stroke-linecap:butt;stroke-linejoin:miter;stroke-miterlimit:4;stroke-dasharray:none;stroke-opacity:1"
     d="m 6.6591906,46.609295 15.5752044,12.642501 17.75647,-4.505364 7.02304,-8.215694 11.39591,11.263412 16.96142,-7.685642"
     id="path15833"
     inkscape:connector-curvature="0"
     sodipodi:nodetypes="cccccc" />
  <circle
     r="0.93159455"
     cy="59.210545"
     cx="22.161638"
     id="circle15835"
     style="fill:#a6aeb8;fill-opacity:1;stroke:none;stroke-width:0.224878;stroke-linecap:butt;stroke-linejoin:miter;stroke-miterlimit:4;stroke-dasharray:none;stroke-dashoffset:0;stroke-opacity:1" />
  <circle
     style="fill:#a6aeb8;fill-opacity:1;stroke:none;stroke-width:0.224878;stroke-linecap:butt;stroke-linejoin:miter;stroke-miterlimit:4;stroke-dasharray:none;stroke-dashoffset:0;stroke-opacity:1"
     id="circle15837"
     cx="40.058208"
     cy="54.712986"
     r="0.93159455" />
  <circle
     r="0.93159455"
     cy="46.748516"
     cx="47.085629"
     id="circle15839"
     style="fill:#a6aeb8;fill-opacity:1;stroke:none;stroke-width:0.224878;stroke-linecap:butt;stroke-linejoin:miter;stroke-miterlimit:4;stroke-dasharray:none;stroke-dashoffset:0;stroke-opacity:1" />
  <circle
     style="fill:#a6aeb8;fill-opacity:1;stroke:none;stroke-width:0.224878;stroke-linecap:butt;stroke-linejoin:miter;stroke-miterlimit:4;stroke-dasharray:none;stroke-dashoffset:0;stroke-opacity:1"
     id="circle15841"
     cx="58.286015"
     cy="57.551373"
     r="0.93159455" />
  <circle
     r="0.93159455"
     cy="50.187908"
     cx="75.085655"
     id="circle15843"
     style="fill:#a6aeb8;fill-opacity:1;stroke:none;stroke-width:0.224878;stroke-linecap:butt;stroke-linejoin:miter;stroke-miterlimit:4;stroke-dasharray:none;stroke-dashoffset:0;stroke-opacity:1" />
  <g
     aria-label="poloměr = 20"
     id="text15847"
     style="font-size:4.49756px;line-height:0%;letter-spacing:0px;word-spacing:0px;fill:#e8eaec;stroke-width:0.374798px">
    <path
       d="m 14.764013,50.283145 c 0.142878,0.111127 0.285757,0.177804 0.428635,0.177804 0.352432,0 0.666764,-0.307982 0.666764,-0.831869 0,-0.479435 -0.212729,-0.787417 -0.609613,-0.787417 -0.180979,0 -0.352433,0.09843 -0.492136,0.215905 h -0.0095 l -0.02223,-0.177804 h -0.215904 v 2.193973 h 0.260355 v -0.520711 z m 0.0063,-0.203205 v -0.809643 c 0.152404,-0.136528 0.282582,-0.209554 0.41276,-0.209554 0.292106,0 0.406408,0.228605 0.406408,0.568337 0,0.381009 -0.187329,0.612789 -0.441334,0.612789 -0.101603,0 -0.238131,-0.04445 -0.377834,-0.161929 z"
       style="font-size:3.17507px;line-height:1.25;font-family:'Source Sans Pro';-inkscape-font-specification:'Source Sans Pro'"
       id="path18545" />
    <path
       d="m 16.15787,49.654481 c 0,0.511186 0.336557,0.806468 0.714391,0.806468 0.377833,0 0.71439,-0.295282 0.71439,-0.806468 0,-0.517537 -0.336557,-0.812818 -0.71439,-0.812818 -0.377834,0 -0.714391,0.295281 -0.714391,0.812818 z m 0.269881,0 c 0,-0.355608 0.180979,-0.596913 0.44451,-0.596913 0.266706,0 0.44451,0.241305 0.44451,0.596913 0,0.352433 -0.177804,0.590563 -0.44451,0.590563 -0.263531,0 -0.44451,-0.23813 -0.44451,-0.590563 z"
       style="font-size:3.17507px;line-height:1.25;font-family:'Source Sans Pro';-inkscape-font-specification:'Source Sans Pro'"
       id="path18547" />
    <path
       d="m 17.99306,50.111691 c 0,0.22543 0.07938,0.349258 0.276231,0.349258 0.06985,0 0.114303,-0.0095 0.149228,-0.0254 l -0.03493,-0.196854 c -0.02858,0.0063 -0.04128,0.0063 -0.05715,0.0063 -0.0381,0 -0.07303,-0.03175 -0.07303,-0.114303 V 48.162198 H 17.99306 Z"
       style="font-size:3.17507px;line-height:1.25;font-family:'Source Sans Pro';-inkscape-font-specification:'Source Sans Pro'"
       id="path18549" />
    <path
       d="m 18.688397,49.654481 c 0,0.511186 0.336558,0.806468 0.714391,0.806468 0.377833,0 0.714391,-0.295282 0.714391,-0.806468 0,-0.517537 -0.336558,-0.812818 -0.714391,-0.812818 -0.377833,0 -0.714391,0.295281 -0.714391,0.812818 z m 0.269881,0 c 0,-0.355608 0.180979,-0.596913 0.44451,-0.596913 0.266706,0 0.44451,0.241305 0.44451,0.596913 0,0.352433 -0.177804,0.590563 -0.44451,0.590563 -0.263531,0 -0.44451,-0.23813 -0.44451,-0.590563 z"
       style="font-size:3.17507px;line-height:1.25;font-family:'Source Sans Pro';-inkscape-font-specification:'Source Sans Pro'"
       id="path18551" />
    <path
       d="m 20.523587,50.422848 h 0.260356 v -1.117625 c 0.142878,-0.158753 0.273056,-0.23813 0.387359,-0.23813 0.196854,0 0.288931,0.123828 0.288931,0.412759 v 0.942996 h 0.260356 v -1.117625 c 0.142878,-0.158753 0.266706,-0.23813 0.387358,-0.23813 0.19368,0 0.285757,0.123828 0.285757,0.412759 v 0.942996 h 0.260355 v -0.977922 c 0,-0.393709 -0.152403,-0.603263 -0.46991,-0.603263 -0.187329,0 -0.346083,0.120653 -0.508011,0.295281 -0.0635,-0.184154 -0.190504,-0.295281 -0.425459,-0.295281 -0.184155,0 -0.346083,0.114302 -0.479436,0.260356 h -0.0095 l -0.02223,-0.222255 h -0.215905 z"
       style="font-size:3.17507px;line-height:1.25;font-family:'Source Sans Pro';-inkscape-font-specification:'Source Sans Pro'"
       id="path18553" />
    <path
       d="m 23.04142,49.654481 c 0,0.504836 0.327032,0.806468 0.739791,0.806468 0.209555,0 0.374658,-0.07303 0.508011,-0.158754 l -0.09208,-0.171454 c -0.114302,0.07303 -0.23813,0.120653 -0.384183,0.120653 -0.295282,0 -0.495311,-0.209555 -0.514361,-0.542937 h 1.041423 c 0.0064,-0.0381 0.0095,-0.0889 0.0095,-0.142878 0,-0.441335 -0.222255,-0.723916 -0.615964,-0.723916 -0.352433,0 -0.692165,0.307982 -0.692165,0.812818 z m 0.254005,-0.117478 c 0.03175,-0.311157 0.228606,-0.488961 0.44451,-0.488961 0.241306,0 0.381009,0.174629 0.381009,0.488961 z m 0.333383,-0.93347 h 0.21273 l 0.301631,-0.447685 h -0.190504 l -0.21273,0.292106 h -0.0127 l -0.21273,-0.292106 h -0.187329 z"
       style="font-size:3.17507px;line-height:1.25;font-family:'Source Sans Pro';-inkscape-font-specification:'Source Sans Pro'"
       id="path18555" />
    <path
       d="m 24.730558,50.422848 h 0.260356 v -0.990622 c 0.104777,-0.260356 0.260356,-0.355608 0.390534,-0.355608 0.0635,0 0.09843,0.0095 0.149228,0.0254 l 0.0508,-0.228605 c -0.0508,-0.02223 -0.09843,-0.03175 -0.165104,-0.03175 -0.174629,0 -0.333382,0.123828 -0.438159,0.317507 h -0.0095 l -0.02222,-0.279406 h -0.215905 z"
       style="font-size:3.17507px;line-height:1.25;font-family:'Source Sans Pro';-inkscape-font-specification:'Source Sans Pro'"
       id="path18557" />
    <path
       d="m 26.321267,49.133769 h 1.362105 v -0.196854 h -1.362105 z m 0,0.679465 h 1.362105 V 49.61638 h -1.362105 z"
       style="font-size:3.17507px;line-height:1.25;font-family:'Source Sans Pro';-inkscape-font-specification:'Source Sans Pro'"
       id="path18559" />
    <path
       d="m 28.55969,50.422848 h 1.308128 v -0.22543 h -0.587387 c -0.104778,0 -0.228606,0.0095 -0.339733,0.01905 0.479436,-0.501661 0.825518,-0.879494 0.825518,-1.260503 0,-0.358783 -0.23178,-0.596913 -0.606438,-0.596913 -0.263531,0 -0.44451,0.123828 -0.612789,0.307982 l 0.149229,0.149228 c 0.117477,-0.136528 0.26353,-0.24448 0.431809,-0.24448 0.257181,0 0.384184,0.165104 0.384184,0.396884 0,0.327032 -0.342908,0.692165 -0.952521,1.298603 z"
       style="font-size:3.17507px;line-height:1.25;font-family:'Source Sans Pro';-inkscape-font-specification:'Source Sans Pro'"
       id="path18561" />
    <path
       d="m 30.801288,50.460949 c 0.403234,0 0.647714,-0.377834 0.647714,-1.057299 0,-0.679465 -0.24448,-1.044598 -0.647714,-1.044598 -0.406409,0 -0.650889,0.365133 -0.650889,1.044598 0,0.679465 0.24448,1.057299 0.650889,1.057299 z m 0,-0.209555 c -0.23813,0 -0.396884,-0.254006 -0.396884,-0.847744 0,-0.593738 0.158754,-0.835043 0.396884,-0.835043 0.234955,0 0.393709,0.241305 0.393709,0.835043 0,0.593738 -0.158754,0.847744 -0.393709,0.847744 z"
       style="font-size:3.17507px;line-height:1.25;font-family:'Source Sans Pro';-inkscape-font-specification:'Source Sans Pro'"
       id="path18563" />
  </g>
</svg>
