<?xml version="1.0" encoding="UTF-8" standalone="no"?>
<svg
   width="213.64191"
   height="130.68401"
   version="1.1"
   viewBox="0 0 56.527251 34.575545"
   id="svg10001"
   sodipodi:docname="steering_arrive_cs.svg"
   inkscape:version="1.2.2 (732a01da63, 2022-12-09)"
   xmlns:inkscape="http://www.inkscape.org/namespaces/inkscape"
   xmlns:sodipodi="http://sodipodi.sourceforge.net/DTD/sodipodi-0.dtd"
   xmlns="http://www.w3.org/2000/svg"
   xmlns:svg="http://www.w3.org/2000/svg"
   xmlns:rdf="http://www.w3.org/1999/02/22-rdf-syntax-ns#"
   xmlns:cc="http://creativecommons.org/ns#"
   xmlns:dc="http://purl.org/dc/elements/1.1/">
  <defs
     id="defs10005" />
  <sodipodi:namedview
     id="namedview10003"
     pagecolor="#ffffff"
     bordercolor="#000000"
     borderopacity="0.25"
     inkscape:showpageshadow="2"
     inkscape:pageopacity="0.0"
     inkscape:pagecheckerboard="0"
     inkscape:deskcolor="#d1d1d1"
     showgrid="false"
     inkscape:zoom="3.9891795"
     inkscape:cx="65.803005"
     inkscape:cy="44.119348"
     inkscape:window-width="1920"
     inkscape:window-height="1017"
     inkscape:window-x="-8"
     inkscape:window-y="-8"
     inkscape:window-maximized="1"
     inkscape:current-layer="svg10001" />
  <metadata
     id="metadata9897">
    <rdf:RDF>
      <cc:Work
         rdf:about="">
        <dc:format>image/svg+xml</dc:format>
        <dc:type
           rdf:resource="http://purl.org/dc/dcmitype/StillImage" />
      </cc:Work>
    </rdf:RDF>
  </metadata>
  <path
     inkscape:transform-center-y="-1.6405041"
     transform="matrix(0.15186751,-0.29028543,0.16973489,0.08879955,-73.060983,7.2264418)"
     inkscape:transform-center-x="1.7082671"
     d="m 73.143157,404.25464 -20.354117,11.75145 0,-23.50291 z"
     inkscape:randomized="0"
     inkscape:rounded="0"
     inkscape:flatsided="true"
     sodipodi:arg2="1.0471976"
     sodipodi:arg1="0"
     sodipodi:r2="6.7847052"
     sodipodi:r1="13.569411"
     sodipodi:cy="404.25464"
     sodipodi:cx="59.573746"
     sodipodi:sides="3"
     id="path10124"
     style="fill:#6f8ce9;fill-opacity:1;stroke:#6f8ce9;stroke-width:1.05618;stroke-linecap:butt;stroke-linejoin:miter;stroke-miterlimit:4;stroke-dasharray:none;stroke-dashoffset:0;stroke-opacity:1"
     sodipodi:type="star" />
  <circle
     style="fill:#1d232d;fill-opacity:1;stroke:#7b8694;stroke-width:0.264589;stroke-linecap:butt;stroke-linejoin:miter;stroke-miterlimit:4;stroke-dasharray:none;stroke-dashoffset:0;stroke-opacity:1"
     id="circle10126"
     cx="52.646984"
     cy="27.49556"
     r="3.7479703" />
  <path
     style="fill:none;fill-rule:evenodd;stroke:#7b8694;stroke-width:0.264589;stroke-linecap:butt;stroke-linejoin:miter;stroke-miterlimit:4;stroke-dasharray:none;stroke-opacity:1"
     d="m 4.4352766,26.174782 c 10.2082244,-21.7489862 40.6886364,-19.9474282 47.6075064,0"
     id="path10128"
     inkscape:connector-curvature="0"
     sodipodi:nodetypes="cc" />
  <path
     style="fill:none;fill-rule:evenodd;stroke:#e8eaec;stroke-width:0.264589;stroke-linecap:butt;stroke-linejoin:miter;stroke-miterlimit:4;stroke-dasharray:none;stroke-opacity:1"
     d="M 4.4318006,26.05741 17.21913,2.6360908"
     id="path10130"
     inkscape:connector-curvature="0" />
  <path
     sodipodi:type="star"
     style="fill:#6f8ce9;fill-opacity:1;stroke:#6f8ce9;stroke-width:1.05618;stroke-linecap:butt;stroke-linejoin:miter;stroke-miterlimit:4;stroke-dasharray:none;stroke-dashoffset:0;stroke-opacity:1"
     id="path10132"
     sodipodi:sides="3"
     sodipodi:cx="59.573746"
     sodipodi:cy="404.25464"
     sodipodi:r1="13.569411"
     sodipodi:r2="6.7847052"
     sodipodi:arg1="0"
     sodipodi:arg2="1.0471976"
     inkscape:flatsided="true"
     inkscape:rounded="0"
     inkscape:randomized="0"
     d="m 73.143157,404.25464 -20.354117,11.75145 0,-23.50291 z"
     inkscape:transform-center-x="-0.27793676"
     transform="matrix(0.24424834,-0.21833945,0.12766684,0.14281622,-57.052858,-25.786697)"
     inkscape:transform-center-y="0.34886782" />
  <path
     inkscape:transform-center-y="2.0755256"
     transform="matrix(0.30014851,-0.13130211,0.07677461,0.175502,-32.6306,-49.566587)"
     inkscape:transform-center-x="-2.0093531"
     d="m 73.143157,404.25464 -20.354117,11.75145 0,-23.50291 z"
     inkscape:randomized="0"
     inkscape:rounded="0"
     inkscape:flatsided="true"
     sodipodi:arg2="1.0471976"
     sodipodi:arg1="0"
     sodipodi:r2="6.7847052"
     sodipodi:r1="13.569411"
     sodipodi:cy="404.25464"
     sodipodi:cx="59.573746"
     sodipodi:sides="3"
     id="path10134"
     style="fill:#6f8ce9;fill-opacity:1;stroke:#6f8ce9;stroke-width:1.05618;stroke-linecap:butt;stroke-linejoin:miter;stroke-miterlimit:4;stroke-dasharray:none;stroke-dashoffset:0;stroke-opacity:1"
     sodipodi:type="star" />
  <path
     sodipodi:type="star"
     style="fill:#6f8ce9;fill-opacity:1;stroke:#6f8ce9;stroke-width:1.05618;stroke-linecap:butt;stroke-linejoin:miter;stroke-miterlimit:4;stroke-dasharray:none;stroke-dashoffset:0;stroke-opacity:1"
     id="path10136"
     sodipodi:sides="3"
     sodipodi:cx="59.573746"
     sodipodi:cy="404.25464"
     sodipodi:r1="13.569411"
     sodipodi:r2="6.7847052"
     sodipodi:arg1="0"
     sodipodi:arg2="1.0471976"
     inkscape:flatsided="true"
     inkscape:rounded="0"
     inkscape:randomized="0"
     d="m 73.143157,404.25464 -20.354117,11.75145 0,-23.50291 z"
     inkscape:transform-center-x="-3.484266"
     transform="matrix(0.32569664,-0.0353703,0.02068162,0.19044045,-3.6278354,-63.931933)"
     inkscape:transform-center-y="0.85033451" />
  <path
     inkscape:transform-center-y="-1.049128"
     transform="matrix(0.32469211,0.04363946,-0.02551674,0.18985307,22.501026,-68.499793)"
     inkscape:transform-center-x="-3.3715253"
     d="m 73.143157,404.25464 -20.354117,11.75145 0,-23.50291 z"
     inkscape:randomized="0"
     inkscape:rounded="0"
     inkscape:flatsided="true"
     sodipodi:arg2="1.0471976"
     sodipodi:arg1="0"
     sodipodi:r2="6.7847052"
     sodipodi:r1="13.569411"
     sodipodi:cy="404.25464"
     sodipodi:cx="59.573746"
     sodipodi:sides="3"
     id="path10138"
     style="fill:#6f8ce9;fill-opacity:1;stroke:#6f8ce9;stroke-width:1.05618;stroke-linecap:butt;stroke-linejoin:miter;stroke-miterlimit:4;stroke-dasharray:none;stroke-dashoffset:0;stroke-opacity:1"
     sodipodi:type="star" />
  <path
     sodipodi:type="star"
     style="fill:#6f8ce9;fill-opacity:1;stroke:#6f8ce9;stroke-width:1.05618;stroke-linecap:butt;stroke-linejoin:miter;stroke-miterlimit:4;stroke-dasharray:none;stroke-dashoffset:0;stroke-opacity:1"
     id="path10140"
     sodipodi:sides="3"
     sodipodi:cx="59.573746"
     sodipodi:cy="404.25464"
     sodipodi:r1="13.569411"
     sodipodi:r2="6.7847052"
     sodipodi:arg1="0"
     sodipodi:arg2="1.0471976"
     inkscape:flatsided="true"
     inkscape:rounded="0"
     inkscape:randomized="0"
     d="m 73.143157,404.25464 -20.354117,11.75145 0,-23.50291 z"
     inkscape:transform-center-x="-2.1600908"
     transform="matrix(0.30382605,0.12255241,-0.07165851,0.17765233,48.183033,-67.120915)"
     inkscape:transform-center-y="-2.2254483" />
  <path
     inkscape:transform-center-y="-1.3388201"
     transform="matrix(0.2792058,0.17138696,-0.10021291,0.16325644,65.268923,-62.172629)"
     inkscape:transform-center-x="-1.269686"
     d="m 73.143157,404.25464 -20.354117,11.75145 0,-23.50291 z"
     inkscape:randomized="0"
     inkscape:rounded="0"
     inkscape:flatsided="true"
     sodipodi:arg2="1.0471976"
     sodipodi:arg1="0"
     sodipodi:r2="6.7847052"
     sodipodi:r1="13.569411"
     sodipodi:cy="404.25464"
     sodipodi:cx="59.573746"
     sodipodi:sides="3"
     id="path10142"
     style="fill:#6f8ce9;fill-opacity:1;stroke:#6f8ce9;stroke-width:1.05618;stroke-linecap:butt;stroke-linejoin:miter;stroke-miterlimit:4;stroke-dasharray:none;stroke-dashoffset:0;stroke-opacity:1"
     sodipodi:type="star" />
  <path
     sodipodi:type="star"
     style="fill:#6f8ce9;fill-opacity:1;stroke:#6f8ce9;stroke-width:1.05618;stroke-linecap:butt;stroke-linejoin:miter;stroke-miterlimit:4;stroke-dasharray:none;stroke-dashoffset:0;stroke-opacity:1"
     id="path10144"
     sodipodi:sides="3"
     sodipodi:cx="59.573746"
     sodipodi:cy="404.25464"
     sodipodi:r1="13.569411"
     sodipodi:r2="6.7847052"
     sodipodi:arg1="0"
     sodipodi:arg2="1.0471976"
     inkscape:flatsided="true"
     inkscape:rounded="0"
     inkscape:randomized="0"
     d="m 73.143157,404.25464 -20.354117,11.75145 0,-23.50291 z"
     inkscape:transform-center-x="0.07021242"
     transform="matrix(0.23021794,0.23308596,-0.13628938,0.1346124,86.331973,-51.832605)"
     inkscape:transform-center-y="-0.00079156516" />
  <path
     inkscape:transform-center-y="0.69211908"
     transform="matrix(0.19963164,0.25976253,-0.15188763,0.11672806,96.802263,-44.083779)"
     inkscape:transform-center-x="0.76260702"
     d="m 73.143157,404.25464 -20.354117,11.75145 0,-23.50291 z"
     inkscape:randomized="0"
     inkscape:rounded="0"
     inkscape:flatsided="true"
     sodipodi:arg2="1.0471976"
     sodipodi:arg1="0"
     sodipodi:r2="6.7847052"
     sodipodi:r1="13.569411"
     sodipodi:cy="404.25464"
     sodipodi:cx="59.573746"
     sodipodi:sides="3"
     id="path10146"
     style="fill:#6f8ce9;fill-opacity:1;stroke:#6f8ce9;stroke-width:1.05618;stroke-linecap:butt;stroke-linejoin:miter;stroke-miterlimit:4;stroke-dasharray:none;stroke-dashoffset:0;stroke-opacity:1"
     sodipodi:type="star" />
  <path
     sodipodi:type="star"
     style="fill:#6f8ce9;fill-opacity:1;stroke:#6f8ce9;stroke-width:1.05618;stroke-linecap:butt;stroke-linejoin:miter;stroke-miterlimit:4;stroke-dasharray:none;stroke-dashoffset:0;stroke-opacity:1"
     id="path10148"
     sodipodi:sides="3"
     sodipodi:cx="59.573746"
     sodipodi:cy="404.25464"
     sodipodi:r1="13.569411"
     sodipodi:r2="6.7847052"
     sodipodi:arg1="0"
     sodipodi:arg2="1.0471976"
     inkscape:flatsided="true"
     inkscape:rounded="0"
     inkscape:randomized="0"
     d="m 73.143157,404.25464 -20.354117,11.75145 0,-23.50291 z"
     inkscape:transform-center-x="1.0814334"
     transform="matrix(0.18432483,0.27083892,-0.15836419,0.10777791,101.7584,-39.348037)"
     inkscape:transform-center-y="1.0116576" />
  <path
     inkscape:transform-center-y="1.4074651"
     transform="matrix(0.16426696,0.28345322,-0.16573999,0.09604972,106.74662,-34.198848)"
     inkscape:transform-center-x="1.4760805"
     d="m 73.143157,404.25464 -20.354117,11.75145 0,-23.50291 z"
     inkscape:randomized="0"
     inkscape:rounded="0"
     inkscape:flatsided="true"
     sodipodi:arg2="1.0471976"
     sodipodi:arg1="0"
     sodipodi:r2="6.7847052"
     sodipodi:r1="13.569411"
     sodipodi:cy="404.25464"
     sodipodi:cx="59.573746"
     sodipodi:sides="3"
     id="path10150"
     style="fill:#6f8ce9;fill-opacity:1;stroke:#6f8ce9;stroke-width:1.05618;stroke-linecap:butt;stroke-linejoin:miter;stroke-miterlimit:4;stroke-dasharray:none;stroke-dashoffset:0;stroke-opacity:1"
     sodipodi:type="star" />
  <path
     sodipodi:type="star"
     style="fill:#6f8ce9;fill-opacity:1;stroke:#6f8ce9;stroke-width:1.05618;stroke-linecap:butt;stroke-linejoin:miter;stroke-miterlimit:4;stroke-dasharray:none;stroke-dashoffset:0;stroke-opacity:1"
     id="path10152"
     sodipodi:sides="3"
     sodipodi:cx="59.573746"
     sodipodi:cy="404.25464"
     sodipodi:r1="13.569411"
     sodipodi:r2="6.7847052"
     sodipodi:arg1="0"
     sodipodi:arg2="1.0471976"
     inkscape:flatsided="true"
     inkscape:rounded="0"
     inkscape:randomized="0"
     d="m 73.143157,404.25464 -20.354117,11.75145 0,-23.50291 z"
     inkscape:transform-center-x="1.7790254"
     transform="matrix(0.14799894,0.29227673,-0.17089924,0.08653753,110.44741,-29.819084)"
     inkscape:transform-center-y="1.7114865" />
  <path
     inkscape:transform-center-y="1.7115353"
     transform="matrix(0.14799894,0.29227673,-0.17089924,0.08653753,110.84495,-29.024021)"
     inkscape:transform-center-x="1.7790274"
     d="m 73.143157,404.25464 -20.354117,11.75145 0,-23.50291 z"
     inkscape:randomized="0"
     inkscape:rounded="0"
     inkscape:flatsided="true"
     sodipodi:arg2="1.0471976"
     sodipodi:arg1="0"
     sodipodi:r2="6.7847052"
     sodipodi:r1="13.569411"
     sodipodi:cy="404.25464"
     sodipodi:cx="59.573746"
     sodipodi:sides="3"
     id="path10154"
     style="fill:#6f8ce9;fill-opacity:1;stroke:#6f8ce9;stroke-width:1.05618;stroke-linecap:butt;stroke-linejoin:miter;stroke-miterlimit:4;stroke-dasharray:none;stroke-dashoffset:0;stroke-opacity:1"
     sodipodi:type="star" />
  <g
     aria-label="cíl"
     id="text10158"
     style="font-size:4.49756px;line-height:0%;letter-spacing:0px;word-spacing:0px;fill:#e8eaec;stroke-width:0.374798px">
    <path
       d="m 50.891724,33.770062 c 0,0.511187 0.314331,0.806468 0.723916,0.806468 0.184154,0 0.361957,-0.0762 0.501661,-0.200029 l -0.117478,-0.171454 c -0.09208,0.08255 -0.215905,0.155578 -0.361958,0.155578 -0.282581,0 -0.476261,-0.23813 -0.476261,-0.590563 0,-0.355608 0.203205,-0.596913 0.482611,-0.596913 0.123828,0 0.21908,0.05715 0.311157,0.136528 l 0.130178,-0.168279 c -0.104777,-0.09843 -0.247656,-0.184154 -0.45086,-0.184154 -0.396884,0 -0.742966,0.295282 -0.742966,0.812818 z"
       style="font-size:3.17507px;line-height:1.25;font-family:'Source Sans Pro';-inkscape-font-specification:'Source Sans Pro'"
       id="path10380" />
    <path
       d="m 52.453856,34.538429 h 0.260356 v -1.543084 h -0.260356 z m 0.482611,-2.267 h -0.273056 l -0.285757,0.447685 h 0.20003 z"
       style="font-size:3.17507px;line-height:1.25;font-family:'Source Sans Pro';-inkscape-font-specification:'Source Sans Pro'"
       id="path10382" />
    <path
       d="m 53.234924,34.227272 c 0,0.22543 0.07938,0.349258 0.276231,0.349258 0.06985,0 0.114303,-0.0095 0.149228,-0.0254 l -0.03493,-0.196855 c -0.02858,0.0063 -0.04128,0.0063 -0.05715,0.0063 -0.0381,0 -0.07303,-0.03175 -0.07303,-0.114302 v -1.968544 h -0.260356 z"
       style="font-size:3.17507px;line-height:1.25;font-family:'Source Sans Pro';-inkscape-font-specification:'Source Sans Pro'"
       id="path10384" />
  </g>
  <circle
     style="fill:#e8eaec;fill-opacity:1;stroke:none;stroke-width:0.224878;stroke-linecap:butt;stroke-linejoin:miter;stroke-miterlimit:4;stroke-dasharray:none;stroke-dashoffset:0;stroke-opacity:1"
     id="circle10160"
     cx="4.5034685"
     cy="26.083443"
     r="0.6003176" />
  <path
     inkscape:connector-curvature="0"
     id="path10162"
     d="M 9.1740246,19.0706 28.528013,0.69956578"
     style="fill:none;fill-rule:evenodd;stroke:#e8eaec;stroke-width:0.264589;stroke-linecap:butt;stroke-linejoin:miter;stroke-miterlimit:4;stroke-dasharray:none;stroke-opacity:1" />
  <circle
     r="0.6003176"
     cy="15.364008"
     cx="14.652401"
     id="circle10164"
     style="fill:#e8eaec;fill-opacity:1;stroke:none;stroke-width:0.224878;stroke-linecap:butt;stroke-linejoin:miter;stroke-miterlimit:4;stroke-dasharray:none;stroke-dashoffset:0;stroke-opacity:1"
     transform="rotate(17.859348)" />
  <path
     style="fill:none;fill-rule:evenodd;stroke:#e8eaec;stroke-width:0.264589;stroke-linecap:butt;stroke-linejoin:miter;stroke-miterlimit:4;stroke-dasharray:none;stroke-opacity:1"
     d="M 15.93982,13.689314 40.433693,3.1006288"
     id="path10166"
     inkscape:connector-curvature="0" />
  <circle
     transform="rotate(37.988091)"
     style="fill:#e8eaec;fill-opacity:1;stroke:none;stroke-width:0.224878;stroke-linecap:butt;stroke-linejoin:miter;stroke-miterlimit:4;stroke-dasharray:none;stroke-dashoffset:0;stroke-opacity:1"
     id="circle10168"
     cx="21.06044"
     cy="1.0044024"
     r="0.6003176" />
  <g
     aria-label="rychlost"
     id="text10172"
     style="font-size:4.49756px;line-height:0%;letter-spacing:0px;word-spacing:0px;fill:#e8eaec;stroke-width:0.374798px">
    <path
       d="M 0,10.276229 H 0.26035575 V 9.285607 C 0.36513306,9.0252513 0.52071149,8.9299992 0.65088936,8.9299992 c 0.0635014,0 0.0984272,0.00953 0.1492283,0.025401 L 0.85091878,8.7267947 C 0.80011766,8.7045692 0.7524916,8.695044 0.68581513,8.695044 c -0.17462885,0 -0.33338235,0.1238278 -0.43815966,0.317507 h -0.009525 L 0.21590477,8.7331449 H 0 Z"
       style="font-size:3.17507px;line-height:1.25;font-family:'Source Sans Pro';-inkscape-font-specification:'Source Sans Pro'"
       id="path10387" />
    <path
       d="m 1.0572958,10.701688 -0.050801,0.20638 c 0.050801,0.01905 0.1111275,0.03175 0.180979,0.03175 0.3111569,0 0.4699104,-0.231781 0.5778627,-0.536587 L 2.3463743,8.7331449 H 2.0923687 L 1.8161376,9.5872387 c -0.041276,0.136528 -0.085727,0.2952815 -0.1301779,0.4349843 h -0.0127 C 1.6256334,9.8793451 1.5716572,9.7205916 1.5240311,9.5872387 L 1.2096992,8.7331449 H 0.93981824 l 0.61913866,1.5462591 -0.034926,0.114302 c -0.063501,0.190505 -0.1746288,0.330208 -0.3492577,0.330208 -0.038101,0 -0.085727,-0.0127 -0.1174776,-0.02223 z"
       style="font-size:3.17507px;line-height:1.25;font-family:'Source Sans Pro';-inkscape-font-specification:'Source Sans Pro'"
       id="path10389" />
    <path
       d="m 2.5178319,9.507862 c 0,0.511186 0.314332,0.806468 0.723916,0.806468 0.1841541,0 0.361958,-0.0762 0.5016611,-0.20003 L 3.6259314,9.9428465 c -0.092077,0.082551 -0.2159048,0.1555785 -0.361958,0.1555785 -0.2825813,0 -0.4762605,-0.2381303 -0.4762605,-0.590563 0,-0.3556079 0.2032045,-0.5969132 0.4826106,-0.5969132 0.1238278,0 0.2190799,0.057151 0.3111569,0.136528 L 3.7116583,8.8791981 C 3.6068809,8.7807709 3.4640028,8.695044 3.2607983,8.695044 c -0.3968837,0 -0.7429664,0.2952815 -0.7429664,0.812818 z"
       style="font-size:3.17507px;line-height:1.25;font-family:'Source Sans Pro';-inkscape-font-specification:'Source Sans Pro'"
       id="path10391" />
    <path
       d="M 4.0799646,10.276229 H 4.3403204 V 9.1586042 C 4.4958988,9.0030258 4.6038512,8.920474 4.7626047,8.920474 c 0.2032045,0 0.2921064,0.1238277 0.2921064,0.4127591 V 10.276229 H 5.3150669 V 9.2983073 c 0,-0.3937087 -0.1460532,-0.6032633 -0.4699104,-0.6032633 -0.2127297,0 -0.3683081,0.1143025 -0.5143613,0.2540056 l 0.00953,-0.317507 V 8.015579 H 4.0799646 Z"
       style="font-size:3.17507px;line-height:1.25;font-family:'Source Sans Pro';-inkscape-font-specification:'Source Sans Pro'"
       id="path10393" />
    <path
       d="m 5.8072047,9.965072 c 0,0.22543 0.079377,0.349258 0.2762311,0.349258 0.069852,0 0.1143025,-0.0095 0.1492283,-0.0254 l -0.034926,-0.196854 c -0.028576,0.0064 -0.041276,0.0064 -0.057151,0.0064 -0.038101,0 -0.073027,-0.03175 -0.073027,-0.1143025 V 8.015579 H 5.8072047 Z"
       style="font-size:3.17507px;line-height:1.25;font-family:'Source Sans Pro';-inkscape-font-specification:'Source Sans Pro'"
       id="path10395" />
    <path
       d="m 6.5025421,9.507862 c 0,0.511186 0.3365575,0.806468 0.7143908,0.806468 0.3778333,0 0.7143908,-0.295282 0.7143908,-0.806468 0,-0.5175365 -0.3365575,-0.812818 -0.7143908,-0.812818 -0.3778333,0 -0.7143908,0.2952815 -0.7143908,0.812818 z m 0.269881,0 c 0,-0.3556079 0.180979,-0.5969132 0.4445098,-0.5969132 0.2667059,0 0.4445098,0.2413053 0.4445098,0.5969132 0,0.3524327 -0.1778039,0.590563 -0.4445098,0.590563 -0.2635308,0 -0.4445098,-0.2381303 -0.4445098,-0.590563 z"
       style="font-size:3.17507px;line-height:1.25;font-family:'Source Sans Pro';-inkscape-font-specification:'Source Sans Pro'"
       id="path10397" />
    <path
       d="m 8.1662785,10.1016 c 0.1460533,0.120653 0.3556079,0.21273 0.5746877,0.21273 0.3651331,0 0.5651625,-0.209555 0.5651625,-0.4603854 0,-0.2921065 -0.2476555,-0.3841835 -0.4699104,-0.4667353 C 8.6615895,9.3205328 8.4933108,9.2633816 8.4933108,9.1205034 c 0,-0.1174776 0.088902,-0.2222549 0.2825812,-0.2222549 0.136528,0 0.2476554,0.057151 0.3524328,0.136528 L 9.2521525,8.8696729 C 9.1346749,8.7744208 8.9663962,8.695044 8.7727169,8.695044 c -0.3333823,0 -0.5302367,0.1905042 -0.5302367,0.4381597 0,0.2603557 0.2413053,0.365133 0.4603852,0.4445098 0.1682787,0.063501 0.3524327,0.1333529 0.3524327,0.2921064 0,0.1333531 -0.1016022,0.2413051 -0.3048067,0.2413051 -0.184154,0 -0.3206821,-0.0762 -0.454035,-0.1841538 z"
       style="font-size:3.17507px;line-height:1.25;font-family:'Source Sans Pro';-inkscape-font-specification:'Source Sans Pro'"
       id="path10399" />
    <path
       d="m 9.7125399,9.7999684 c 0,0.3048066 0.1111274,0.5143616 0.4413351,0.5143616 0.09525,0 0.200029,-0.02858 0.285756,-0.05715 l -0.0508,-0.196854 c -0.0508,0.01905 -0.120653,0.04128 -0.174629,0.04128 -0.177804,0 -0.2381303,-0.1079523 -0.2381303,-0.2984565 V 8.9458746 H 10.392005 V 8.7331449 H 9.9760707 V 8.3013353 H 9.7569909 l -0.031751,0.4318096 -0.2413053,0.015875 v 0.1968544 h 0.228605 z"
       style="font-size:3.17507px;line-height:1.25;font-family:'Source Sans Pro';-inkscape-font-specification:'Source Sans Pro'"
       id="path10401" />
  </g>
  <g
     id="g10178"
     transform="matrix(0.00325097,-0.00151632,-0.00154229,-0.00330664,39.699203,4.4940068)"
     style="fill:#e8eaec;fill-opacity:1;stroke-width:201.795">
    <g
       id="g10176"
       style="fill:#e8eaec;fill-opacity:1;stroke-width:201.795">
      <path
         id="path10174"
         d="M 486.413,221.412 122.347,12.916 C 69.409,-17.402 26.495,7.476 26.495,68.479 v 415.652 c 0,61.004 42.914,85.882 95.852,55.563 l 364.066,-208.49 c 52.938,-30.317 52.938,-79.473 0,-109.792 z"
         inkscape:connector-curvature="0"
         style="fill:#e8eaec;fill-opacity:1;stroke-width:201.795" />
    </g>
  </g>
  <g
     style="fill:#e8eaec;fill-opacity:1;stroke-width:201.795"
     transform="matrix(0.00241657,-0.00265108,-0.00269648,-0.00245795,28.523553,2.1205658)"
     id="g10185">
    <g
       style="fill:#e8eaec;fill-opacity:1;stroke-width:201.795"
       id="g10183">
      <path
         style="fill:#e8eaec;fill-opacity:1;stroke-width:201.795"
         inkscape:connector-curvature="0"
         d="M 486.413,221.412 122.347,12.916 C 69.409,-17.402 26.495,7.476 26.495,68.479 v 415.652 c 0,61.004 42.914,85.882 95.852,55.563 l 364.066,-208.49 c 52.938,-30.317 52.938,-79.473 0,-109.792 z"
         id="path10180" />
    </g>
  </g>
  <g
     id="g10191"
     transform="matrix(0.00147087,-0.00327178,-0.00332781,-0.00149606,17.697099,3.9122818)"
     style="fill:#e8eaec;fill-opacity:1;stroke-width:201.795">
    <g
       id="g10189"
       style="fill:#e8eaec;fill-opacity:1;stroke-width:201.795">
      <path
         id="path10187"
         d="M 486.413,221.412 122.347,12.916 C 69.409,-17.402 26.495,7.476 26.495,68.479 v 415.652 c 0,61.004 42.914,85.882 95.852,55.563 l 364.066,-208.49 c 52.938,-30.317 52.938,-79.473 0,-109.792 z"
         inkscape:connector-curvature="0"
         style="fill:#e8eaec;fill-opacity:1;stroke-width:201.795" />
    </g>
  </g>
</svg>
