<?xml version="1.0" encoding="UTF-8" standalone="no"?>
<svg
   width="494.79132"
   height="149.85823"
   version="1.1"
   viewBox="0 0 130.90977 39.65347"
   id="svg25425"
   sodipodi:docname="primitives_comparison_cs.svg"
   inkscape:version="1.2.2 (732a01da63, 2022-12-09)"
   xmlns:inkscape="http://www.inkscape.org/namespaces/inkscape"
   xmlns:sodipodi="http://sodipodi.sourceforge.net/DTD/sodipodi-0.dtd"
   xmlns="http://www.w3.org/2000/svg"
   xmlns:svg="http://www.w3.org/2000/svg"
   xmlns:rdf="http://www.w3.org/1999/02/22-rdf-syntax-ns#"
   xmlns:cc="http://creativecommons.org/ns#"
   xmlns:dc="http://purl.org/dc/elements/1.1/">
  <defs
     id="defs25429" />
  <sodipodi:namedview
     id="namedview25427"
     pagecolor="#ffffff"
     bordercolor="#000000"
     borderopacity="0.25"
     inkscape:showpageshadow="2"
     inkscape:pageopacity="0.0"
     inkscape:pagecheckerboard="0"
     inkscape:deskcolor="#d1d1d1"
     showgrid="false"
     inkscape:zoom="1.7290771"
     inkscape:cx="268.06208"
     inkscape:cy="95.426629"
     inkscape:window-width="1920"
     inkscape:window-height="1017"
     inkscape:window-x="-8"
     inkscape:window-y="-8"
     inkscape:window-maximized="1"
     inkscape:current-layer="svg25425" />
  <metadata
     id="metadata25253">
    <rdf:RDF>
      <cc:Work
         rdf:about="">
        <dc:format>image/svg+xml</dc:format>
        <dc:type
           rdf:resource="http://purl.org/dc/dcmitype/StillImage" />
      </cc:Work>
    </rdf:RDF>
  </metadata>
  <g
     aria-label=" "
     id="text22626"
     style="font-size:4.97132px;line-height:0%;letter-spacing:0px;word-spacing:0px;fill:#e8eaec;stroke-width:0.414279" />
  <g
     aria-label=" "
     id="text22630"
     style="font-size:4.97132px;line-height:0%;letter-spacing:0px;word-spacing:0px;fill:#e8eaec;stroke-width:0.414279" />
  <g
     aria-label=" "
     id="text22634"
     style="font-size:4.97132px;line-height:0%;letter-spacing:0px;word-spacing:0px;fill:#e8eaec;stroke-width:0.414279" />
  <g
     aria-label=" "
     id="text22638"
     style="font-size:4.97132px;line-height:0%;letter-spacing:0px;word-spacing:0px;fill:#e8eaec;stroke-width:0.414279" />
  <g
     aria-label=" "
     id="text22642"
     style="font-size:4.97132px;line-height:0%;letter-spacing:0px;word-spacing:0px;fill:#e8eaec;stroke-width:0.414279" />
  <g
     aria-label=" "
     id="text22646"
     style="font-size:4.97132px;line-height:0%;letter-spacing:0px;word-spacing:0px;fill:#e8eaec;stroke-width:0.414279" />
  <circle
     style="fill:#1d232d;fill-opacity:1;stroke:#7b8694;stroke-width:0.264607;stroke-linecap:round;stroke-linejoin:miter;stroke-miterlimit:4;stroke-dasharray:none;stroke-dashoffset:0;stroke-opacity:1"
     id="circle22648"
     cx="8.9723597"
     cy="14.378619"
     r="8.8476839" />
  <rect
     style="fill:#1d232d;fill-opacity:1;stroke:#7b8694;stroke-width:0.264607;stroke-linecap:round;stroke-linejoin:miter;stroke-miterlimit:4;stroke-dasharray:none;stroke-dashoffset:0;stroke-opacity:1"
     id="rect22650"
     width="11.198705"
     height="17.01634"
     x="25.1665"
     y="5.609973" />
  <rect
     y="17.928743"
     x="44.10125"
     height="17.01634"
     width="11.198703"
     id="rect22652"
     style="fill:#1d232d;fill-opacity:1;stroke:#7b8694;stroke-width:0.264607;stroke-linecap:round;stroke-linejoin:miter;stroke-miterlimit:4;stroke-dasharray:none;stroke-dashoffset:0;stroke-opacity:1"
     transform="rotate(-13.331947)" />
  <path
     style="fill:#1d232d;fill-opacity:1;stroke:#7b8694;stroke-width:0.264607;stroke-linecap:round;stroke-linejoin:miter;stroke-miterlimit:4;stroke-dasharray:none;stroke-dashoffset:0;stroke-opacity:1"
     d="m 72.401503,6.8304669 2.70428,-0.724599 2.70428,-0.724625 3.2548,1.329966 0.55051,2.05459 1.10104,4.1091021 1.10105,4.109128 -1.60324,4.833753 -2.70428,0.724625 -2.70429,0.724598 -3.80532,-3.384555 -1.10103,-4.109102 -1.10104,-4.109128 -0.55052,-2.0545911 z"
     id="path22654"
     inkscape:connector-curvature="0"
     sodipodi:nodetypes="ccccccccccccccc" />
  <path
     style="fill:#1d232d;fill-opacity:1;stroke:#7b8694;stroke-width:0.264607;stroke-linecap:butt;stroke-linejoin:miter;stroke-miterlimit:4;stroke-dasharray:none;stroke-opacity:1"
     d="m 92.264793,10.650089 0.78956,-2.7634721 6.12767,-2.83211 4.994827,1.750743 v 4.9262061 l -1.51046,11.379961 -4.926167,-2.403025 z"
     id="path22656"
     inkscape:connector-curvature="0" />
  <path
     style="fill:#1d232d;fill-opacity:1;stroke:#7b8694;stroke-width:0.264607;stroke-linecap:butt;stroke-linejoin:miter;stroke-miterlimit:4;stroke-dasharray:none;stroke-opacity:1"
     d="m 115.77138,10.512785 -0.66083,-1.5962921 c 0,0 1.55337,-0.111585 1.5877,-0.145931 0.0343,-0.03416 1.29591,-1.716423 1.29591,-1.716423 l 1.76793,-1.141433 2.97802,-0.274609 0.96121,0.334701 -0.78098,1.261591 -0.21456,1.682104 1.08136,0.240289 1.51046,-2.883603 1.22725,0.420513 -0.90113,2.488836 0.99554,0.9097171 0.0858,0.986956 -1.56196,2.059724 0.1459,1.527653 -1.46756,-0.446312 -0.0858,0.351874 0.65224,1.261565 -0.0858,0.360447 -1.28732,-0.386167 0.0858,0.386167 0.9612,0.755266 -0.78097,0.274635 0.60075,1.553373 1.29591,1.587692 0.1459,2.008205 -0.50635,0.429139 -0.69516,-0.248889 -0.8153,-1.313083 -0.3862,-1.802262 -0.38621,-1.141433 -0.75522,-0.57499 -0.6265,-0.06009 0.59216,0.746666 0.33472,0.815306 0.12014,1.16718 -0.36045,0.635082 -0.44627,0.266035 -0.72091,-0.506324 -0.60933,-0.986983 -0.0515,-0.635082 -0.60076,-0.540671 -0.3347,-0.660828 0.3347,-0.420513 0.5321,-0.326127 -0.0515,-0.334701 -0.4806,0.300381 -0.87538,-0.20597 -0.4806,-0.57499 0.14589,-0.600762 0.57501,-0.446286 -0.80673,-0.334727 -0.4806,-0.514924 -0.54067,-0.02567 -0.33471,-0.420513 0.1459,-0.274661 0.33471,-0.08581 -0.78098,-0.875372 -0.54068,-0.806759 -0.12015,-0.660802 z"
     id="path22658"
     inkscape:connector-curvature="0" />
  <g
     aria-label=" "
     id="text22662"
     style="font-size:4.97132px;line-height:0%;letter-spacing:0px;word-spacing:0px;fill:#e9e56f;stroke-width:0.264607" />
  <g
     aria-label=" "
     id="text22666"
     style="font-size:4.97132px;line-height:0%;letter-spacing:0px;word-spacing:0px;fill:#e9e56f;stroke-width:0.264607" />
  <g
     aria-label=" "
     id="text22670"
     style="font-size:4.97132px;line-height:0%;letter-spacing:0px;word-spacing:0px;fill:#e9e56f;stroke-width:0.264607" />
  <g
     aria-label=" "
     id="text22674"
     style="font-size:4.97132px;line-height:0%;letter-spacing:0px;word-spacing:0px;fill:#e9e56f;stroke-width:0.264607" />
  <g
     aria-label=" "
     id="text22678"
     style="font-size:4.97132px;line-height:0%;letter-spacing:0px;word-spacing:0px;fill:#e9e56f;stroke-width:0.264607" />
  <g
     aria-label=" "
     id="text22682"
     style="font-size:4.97132px;line-height:0%;letter-spacing:0px;word-spacing:0px;fill:#e9e56f;stroke-width:0.264607" />
  <g
     aria-label=" "
     id="text22686"
     style="font-size:4.97132px;line-height:0%;letter-spacing:0px;word-spacing:0px;fill:#1d232d;stroke-width:0.264607" />
  <g
     aria-label="Kruh"
     id="text22690"
     style="font-size:4.97132px;line-height:0%;letter-spacing:0px;word-spacing:0px;fill:#e8eaec;stroke-width:0.414279px">
    <path
       d="M 5.2373972,2.2671499 H 5.5041207 V 1.6066917 L 5.8597521,1.1843794 6.482107,2.2671499 H 6.777408 L 6.0248666,0.97798621 6.6789743,0.18416618 H 6.3773227 L 5.5104712,1.2288333 h -0.00635 V 0.18416618 H 5.2373972 Z"
       style="font-size:3.17528px;line-height:1.25;font-family:'Source Sans Pro';-inkscape-font-specification:'Source Sans Pro'"
       id="path26114" />
    <path
       d="M 7.0441296,2.2671499 H 7.3045025 V 1.2764625 C 7.4092868,1.0160896 7.5648755,0.92083117 7.695062,0.92083117 c 0.063506,0 0.098434,0.009526 0.1492382,0.0254022 l 0.050804,-0.22862017 c -0.050804,-0.022227 -0.098434,-0.0317528 -0.1651145,-0.0317528 -0.1746404,0 -0.3334044,0.12383592 -0.4381887,0.31752796 h -0.00953 L 7.2600486,0.7239638 h -0.215919 z"
       style="font-size:3.17528px;line-height:1.25;font-family:'Source Sans Pro';-inkscape-font-specification:'Source Sans Pro'"
       id="path26116" />
    <path
       d="m 8.1237251,1.7019501 c 0,0.3937347 0.1460629,0.6033032 0.4731168,0.6033032 0.2127437,0 0.3651572,-0.1111348 0.5080448,-0.2794247 h 0.00953 l 0.022227,0.2413213 h 0.215919 V 0.7239638 h -0.260373 v 1.0954716 c -0.1460628,0.180991 -0.2571976,0.260373 -0.4159616,0.260373 -0.203218,0 -0.2889505,-0.1238359 -0.2889505,-0.4127864 V 0.7239638 H 8.1237251 Z"
       style="font-size:3.17528px;line-height:1.25;font-family:'Source Sans Pro';-inkscape-font-specification:'Source Sans Pro'"
       id="path26118" />
    <path
       d="M 9.8733066,2.2671499 H 10.13368 V 1.1494513 c 0.155588,-0.15558869 0.263548,-0.23814597 0.422312,-0.23814597 0.203218,0 0.292126,0.12383587 0.292126,0.41278637 v 0.9430582 h 0.260373 V 1.2891637 c 0,-0.39373478 -0.146063,-0.60330326 -0.469942,-0.60330326 -0.212744,0 -0.368332,0.11431008 -0.514395,0.25402241 l 0.0095,-0.31752801 V 0.0063505 H 9.8733066 Z"
       style="font-size:3.17528px;line-height:1.25;font-family:'Source Sans Pro';-inkscape-font-specification:'Source Sans Pro'"
       id="path26120" />
  </g>
  <g
     aria-label="AABB"
     id="text22694"
     style="font-size:4.97132px;line-height:0%;letter-spacing:0px;word-spacing:0px;fill:#e8eaec;stroke-width:0.414279px">
    <path
       d="m 27.955266,1.4193501 0.101609,-0.317528 c 0.07303,-0.23179542 0.139713,-0.46041558 0.206393,-0.70173687 h 0.0127 c 0.06668,0.24132129 0.133361,0.46994145 0.206393,0.70173687 l 0.09843,0.317528 z m 0.892254,0.8477998 h 0.279425 L 28.422032,0.18416618 H 28.123556 L 27.418644,2.2671499 h 0.269899 l 0.200042,-0.635056 h 0.758892 z"
       style="font-size:3.17528px;line-height:1.25;font-family:'Source Sans Pro';-inkscape-font-specification:'Source Sans Pro'"
       id="path26123" />
    <path
       d="m 29.663567,1.4193501 0.101609,-0.317528 c 0.07303,-0.23179542 0.139713,-0.46041558 0.206394,-0.70173687 h 0.0127 c 0.06668,0.24132129 0.133361,0.46994145 0.206393,0.70173687 l 0.09843,0.317528 z m 0.892254,0.8477998 h 0.279425 L 30.130334,0.18416618 H 29.831857 L 29.126945,2.2671499 h 0.269899 l 0.200042,-0.635056 h 0.758892 z"
       style="font-size:3.17528px;line-height:1.25;font-family:'Source Sans Pro';-inkscape-font-specification:'Source Sans Pro'"
       id="path26125" />
    <path
       d="m 31.111495,2.2671499 h 0.666809 c 0.463591,0 0.78747,-0.2000426 0.78747,-0.6096538 0,-0.2857752 -0.177816,-0.4508897 -0.482643,-0.4985189 v -0.012701 c 0.247672,-0.063506 0.365157,-0.2476719 0.365157,-0.4540651 0,-0.36515721 -0.295301,-0.50804482 -0.717613,-0.50804482 h -0.61918 z M 31.378219,1.0732446 V 0.39373467 h 0.320703 c 0.320704,0 0.488993,0.0952584 0.488993,0.32070329 0,0.23179545 -0.149238,0.35880664 -0.501694,0.35880664 z m 0,0.9843368 V 1.270112 h 0.361982 c 0.365157,0 0.5652,0.1174853 0.5652,0.374683 0,0.2826 -0.209569,0.4127864 -0.5652,0.4127864 z"
       style="font-size:3.17528px;line-height:1.25;font-family:'Source Sans Pro';-inkscape-font-specification:'Source Sans Pro'"
       id="path26127" />
    <path
       d="m 32.962684,2.2671499 h 0.666809 c 0.463591,0 0.787469,-0.2000426 0.787469,-0.6096538 0,-0.2857752 -0.177815,-0.4508897 -0.482642,-0.4985189 v -0.012701 c 0.247672,-0.063506 0.365157,-0.2476719 0.365157,-0.4540651 0,-0.36515721 -0.295301,-0.50804482 -0.717613,-0.50804482 h -0.61918 z M 33.229408,1.0732446 V 0.39373467 h 0.320703 c 0.320703,0 0.488993,0.0952584 0.488993,0.32070329 0,0.23179545 -0.149238,0.35880664 -0.501694,0.35880664 z m 0,0.9843368 V 1.270112 h 0.361982 c 0.365157,0 0.565199,0.1174853 0.565199,0.374683 0,0.2826 -0.209568,0.4127864 -0.565199,0.4127864 z"
       style="font-size:3.17528px;line-height:1.25;font-family:'Source Sans Pro';-inkscape-font-specification:'Source Sans Pro'"
       id="path26129" />
  </g>
  <g
     aria-label="OBB"
     id="text22698"
     style="font-size:4.97132px;line-height:0%;letter-spacing:0px;word-spacing:0px;fill:#e8eaec;stroke-width:0.414279px">
    <path
       d="m 51.65465,2.3052533 c 0.520746,0 0.889079,-0.419137 0.889079,-1.0891211 0,-0.66363353 -0.368333,-1.07006938 -0.889079,-1.07006938 -0.523921,0 -0.892254,0.40326057 -0.892254,1.07006938 0,0.6699841 0.368333,1.0891211 0.892254,1.0891211 z m 0,-0.2317955 c -0.374683,0 -0.619179,-0.3365797 -0.619179,-0.8573256 0,-0.51757064 0.244496,-0.83827393 0.619179,-0.83827393 0.371508,0 0.616004,0.32070329 0.616004,0.83827393 0,0.5207459 -0.244496,0.8573256 -0.616004,0.8573256 z"
       style="font-size:3.17528px;line-height:1.25;font-family:'Source Sans Pro';-inkscape-font-specification:'Source Sans Pro'"
       id="path26132" />
    <path
       d="m 52.975568,2.2671499 h 0.666809 c 0.463591,0 0.787469,-0.2000426 0.787469,-0.6096538 0,-0.2857752 -0.177815,-0.4508897 -0.482642,-0.4985189 v -0.012701 c 0.247672,-0.063506 0.365157,-0.2476719 0.365157,-0.4540651 0,-0.36515721 -0.295301,-0.50804482 -0.717613,-0.50804482 h -0.61918 z M 53.242292,1.0732446 V 0.39373467 h 0.320703 c 0.320703,0 0.488993,0.0952584 0.488993,0.32070329 0,0.23179545 -0.149238,0.35880664 -0.501694,0.35880664 z m 0,0.9843368 V 1.270112 h 0.361981 c 0.365158,0 0.5652,0.1174853 0.5652,0.374683 0,0.2826 -0.209568,0.4127864 -0.5652,0.4127864 z"
       style="font-size:3.17528px;line-height:1.25;font-family:'Source Sans Pro';-inkscape-font-specification:'Source Sans Pro'"
       id="path26134" />
    <path
       d="m 54.826757,2.2671499 h 0.666809 c 0.463591,0 0.787469,-0.2000426 0.787469,-0.6096538 0,-0.2857752 -0.177815,-0.4508897 -0.482642,-0.4985189 v -0.012701 c 0.247671,-0.063506 0.365157,-0.2476719 0.365157,-0.4540651 0,-0.36515721 -0.295301,-0.50804482 -0.717613,-0.50804482 h -0.61918 z M 55.09348,1.0732446 V 0.39373467 h 0.320704 c 0.320703,0 0.488993,0.0952584 0.488993,0.32070329 0,0.23179545 -0.149238,0.35880664 -0.501694,0.35880664 z m 0,0.9843368 V 1.270112 h 0.361982 c 0.365158,0 0.5652,0.1174853 0.5652,0.374683 0,0.2826 -0.209568,0.4127864 -0.5652,0.4127864 z"
       style="font-size:3.17528px;line-height:1.25;font-family:'Source Sans Pro';-inkscape-font-specification:'Source Sans Pro'"
       id="path26136" />
  </g>
  <g
     aria-label="8-DOP"
     id="text22702"
     style="font-size:4.97132px;line-height:0%;letter-spacing:0px;word-spacing:0px;fill:#e8eaec;stroke-width:0.414279px">
    <path
       d="m 72.23529,1.724177 c 0,-0.1841662 0.12066,-0.3334044 0.2826,-0.4413639 0.292125,0.1174854 0.549323,0.2127438 0.549323,0.4731167 0,0.2095685 -0.161939,0.3556314 -0.39691,0.3556314 -0.247672,0 -0.435013,-0.1619393 -0.435013,-0.3873842 z M 72.80684,1.1621525 C 72.562344,1.066894 72.340074,0.96528509 72.340074,0.7239638 c 0,-0.19686737 0.139712,-0.32705385 0.327054,-0.32705385 0.222269,0 0.352456,0.158764 0.352456,0.35880665 0,0.14923816 -0.07621,0.2857752 -0.212744,0.4064359 z m -0.806521,0.5874268 c 0,0.3207033 0.2826,0.555674 0.663633,0.555674 0.393735,0 0.654108,-0.238146 0.654108,-0.5397976 0,-0.2730741 -0.171465,-0.4159617 -0.352456,-0.520746 v -0.012701 c 0.123836,-0.095258 0.279425,-0.27624935 0.279425,-0.48899312 0,-0.31435273 -0.219095,-0.53979762 -0.571551,-0.53979762 -0.327054,0 -0.574725,0.20956849 -0.574725,0.52074594 0,0.21274377 0.133361,0.3619819 0.2826,0.4667662 v 0.012701 c -0.190517,0.101609 -0.381034,0.2825999 -0.381034,0.5461482 z"
       style="font-size:3.17528px;line-height:1.25;font-family:'Source Sans Pro';-inkscape-font-specification:'Source Sans Pro'"
       id="path26139" />
    <path
       d="m 73.578432,1.5717636 h 0.730315 V 1.3717209 h -0.730315 z"
       style="font-size:3.17528px;line-height:1.25;font-family:'Source Sans Pro';-inkscape-font-specification:'Source Sans Pro'"
       id="path26141" />
    <path
       d="m 74.71201,2.2671499 h 0.533447 c 0.628705,0 0.971636,-0.3873841 0.971636,-1.0510177 0,-0.66045825 -0.342931,-1.03196602 -0.984337,-1.03196602 H 74.71201 Z m 0.266723,-0.215919 V 0.40008523 h 0.234971 c 0.488993,0 0.730315,0.29212577 0.730315,0.81604697 0,0.5270965 -0.241322,0.8350987 -0.730315,0.8350987 z"
       style="font-size:3.17528px;line-height:1.25;font-family:'Source Sans Pro';-inkscape-font-specification:'Source Sans Pro'"
       id="path26143" />
    <path
       d="m 77.426873,2.3052533 c 0.520746,0 0.889078,-0.419137 0.889078,-1.0891211 0,-0.66363353 -0.368332,-1.07006938 -0.889078,-1.07006938 -0.523922,0 -0.892254,0.40326057 -0.892254,1.07006938 0,0.6699841 0.368332,1.0891211 0.892254,1.0891211 z m 0,-0.2317955 c -0.374683,0 -0.61918,-0.3365797 -0.61918,-0.8573256 0,-0.51757064 0.244497,-0.83827393 0.61918,-0.83827393 0.371507,0 0.616004,0.32070329 0.616004,0.83827393 0,0.5207459 -0.244497,0.8573256 -0.616004,0.8573256 z"
       style="font-size:3.17528px;line-height:1.25;font-family:'Source Sans Pro';-inkscape-font-specification:'Source Sans Pro'"
       id="path26145" />
    <path
       d="m 78.747791,2.2671499 h 0.266723 V 1.4415771 h 0.374683 c 0.454065,0 0.768418,-0.2063932 0.768418,-0.64458186 0,-0.45724033 -0.308002,-0.61282906 -0.768418,-0.61282906 H 78.747791 Z M 79.014514,1.2256581 V 0.39690995 h 0.339755 c 0.358807,0 0.539798,0.0984337 0.539798,0.40008529 0,0.29530106 -0.174641,0.42866286 -0.539798,0.42866286 z"
       style="font-size:3.17528px;line-height:1.25;font-family:'Source Sans Pro';-inkscape-font-specification:'Source Sans Pro'"
       id="path26147" />
  </g>
  <g
     aria-label="Konvexní obálka"
     id="text22706"
     style="font-size:4.97132px;line-height:0%;letter-spacing:0px;word-spacing:0px;fill:#e8eaec;stroke-width:0.414279px">
    <path
       d="M 87.090046,2.2671499 H 87.35677 V 1.6066917 l 0.355631,-0.4223123 0.622355,1.0827705 h 0.295301 L 87.877516,0.97798621 88.531624,0.18416618 H 88.229972 L 87.36312,1.2288333 h -0.0063 V 0.18416618 h -0.266724 z"
       style="font-size:3.17528px;line-height:1.25;font-family:'Source Sans Pro';-inkscape-font-specification:'Source Sans Pro'"
       id="path26150" />
    <path
       d="m 88.763415,1.4987321 c 0,0.5112201 0.33658,0.8065212 0.714439,0.8065212 0.377858,0 0.714438,-0.2953011 0.714438,-0.8065212 0,-0.51757061 -0.33658,-0.81287166 -0.714438,-0.81287166 -0.377859,0 -0.714439,0.29530105 -0.714439,0.81287166 z m 0.269899,0 c 0,-0.3556313 0.180991,-0.59695262 0.44454,-0.59695262 0.266723,0 0.444539,0.24132132 0.444539,0.59695262 0,0.3524561 -0.177816,0.5906021 -0.444539,0.5906021 -0.263549,0 -0.44454,-0.238146 -0.44454,-0.5906021 z"
       style="font-size:3.17528px;line-height:1.25;font-family:'Source Sans Pro';-inkscape-font-specification:'Source Sans Pro'"
       id="path26152" />
    <path
       d="M 90.598727,2.2671499 H 90.8591 V 1.1494513 c 0.155589,-0.15558869 0.263548,-0.23814597 0.422312,-0.23814597 0.203218,0 0.292126,0.12383587 0.292126,0.41278637 v 0.9430582 h 0.260373 V 1.2891637 c 0,-0.39373478 -0.146063,-0.60330326 -0.469942,-0.60330326 -0.212743,0 -0.371507,0.11431008 -0.51757,0.26037297 h -0.0095 L 90.814646,0.7239638 h -0.215919 z"
       style="font-size:3.17528px;line-height:1.25;font-family:'Source Sans Pro';-inkscape-font-specification:'Source Sans Pro'"
       id="path26154" />
    <path
       d="m 92.669012,2.2671499 h 0.304827 L 93.519987,0.7239638 H 93.26279 l -0.292126,0.8763773 c -0.04445,0.1524134 -0.09526,0.3080022 -0.139712,0.4540651 h -0.0127 C 92.770621,1.9083433 92.719817,1.7527545 92.675363,1.6003411 L 92.383237,0.7239638 h -0.269899 z"
       style="font-size:3.17528px;line-height:1.25;font-family:'Source Sans Pro';-inkscape-font-specification:'Source Sans Pro'"
       id="path26156" />
    <path
       d="m 93.691456,1.4987321 c 0,0.5048696 0.327054,0.8065212 0.739841,0.8065212 0.209568,0 0.374683,-0.073031 0.508044,-0.158764 l -0.09208,-0.1714651 c -0.11431,0.073031 -0.238146,0.1206606 -0.384209,0.1206606 -0.295301,0 -0.495343,-0.2095685 -0.514395,-0.5429729 h 1.041492 c 0.0063,-0.038103 0.0095,-0.088908 0.0095,-0.1428876 0,-0.44136393 -0.22227,-0.72396386 -0.616005,-0.72396386 -0.352456,0 -0.692211,0.30800217 -0.692211,0.81287166 z m 0.254023,-0.1174853 c 0.03175,-0.3111775 0.22862,-0.48899316 0.444539,-0.48899316 0.241321,0 0.381034,0.17464036 0.381034,0.48899316 z"
       style="font-size:3.17528px;line-height:1.25;font-family:'Source Sans Pro';-inkscape-font-specification:'Source Sans Pro'"
       id="path26158" />
    <path
       d="m 95.14256,2.2671499 h 0.273074 l 0.209569,-0.3588066 c 0.0508,-0.095258 0.101609,-0.1873416 0.155589,-0.2762494 h 0.0127 c 0.05716,0.088908 0.11431,0.1841663 0.16829,0.2762494 l 0.225444,0.3588066 h 0.2826 L 95.968133,1.4892063 96.434899,0.7239638 h -0.273074 l -0.187341,0.339755 c -0.04763,0.082557 -0.09526,0.1714651 -0.139713,0.2571977 h -0.0127 C 95.76809,1.2351839 95.717286,1.1462761 95.669657,1.0637188 l -0.206393,-0.339755 h -0.2826 l 0.466766,0.736665 z"
       style="font-size:3.17528px;line-height:1.25;font-family:'Source Sans Pro';-inkscape-font-specification:'Source Sans Pro'"
       id="path26160" />
    <path
       d="m 96.774651,2.2671499 h 0.260373 V 1.1494513 c 0.155589,-0.15558869 0.263549,-0.23814597 0.422313,-0.23814597 0.203218,0 0.292125,0.12383587 0.292125,0.41278637 v 0.9430582 h 0.260373 V 1.2891637 c 0,-0.39373478 -0.146063,-0.60330326 -0.469941,-0.60330326 -0.212744,0 -0.371508,0.11431008 -0.517571,0.26037297 h -0.0095 L 96.99057,0.7239638 h -0.215919 z"
       style="font-size:3.17528px;line-height:1.25;font-family:'Source Sans Pro';-inkscape-font-specification:'Source Sans Pro'"
       id="path26162" />
    <path
       d="m 98.511533,2.2671499 h 0.260373 V 0.7239638 H 98.511533 Z M 98.994175,-6.1988831e-8 H 98.721101 L 98.435326,0.44771443 h 0.200043 z"
       style="font-size:3.17528px;line-height:1.25;font-family:'Source Sans Pro';-inkscape-font-specification:'Source Sans Pro'"
       id="path26164" />
    <path
       d="m 99.819748,1.4987321 c 0,0.5112201 0.336582,0.8065212 0.714442,0.8065212 0.37785,0 0.71443,-0.2953011 0.71443,-0.8065212 0,-0.51757061 -0.33658,-0.81287166 -0.71443,-0.81287166 -0.37786,0 -0.714442,0.29530105 -0.714442,0.81287166 z m 0.269902,0 c 0,-0.3556313 0.18099,-0.59695262 0.44454,-0.59695262 0.26672,0 0.44454,0.24132132 0.44454,0.59695262 0,0.3524561 -0.17782,0.5906021 -0.44454,0.5906021 -0.26355,0 -0.44454,-0.238146 -0.44454,-0.5906021 z"
       style="font-size:3.17528px;line-height:1.25;font-family:'Source Sans Pro';-inkscape-font-specification:'Source Sans Pro'"
       id="path26166" />
    <path
       d="m 101.65506,2.2671499 h 0.20957 l 0.0222,-0.1524134 h 0.01 c 0.13654,0.1206606 0.29848,0.1905168 0.44136,0.1905168 0.35246,0 0.66681,-0.3080022 0.66681,-0.8350987 0,-0.47629199 -0.21274,-0.78429416 -0.61283,-0.78429416 -0.17146,0 -0.34293,0.0920831 -0.48264,0.21591904 l 0.006,-0.27942464 V 0.0063505 h -0.26037 z m 0.26037,-0.3429302 V 1.1145233 c 0.14607,-0.13653709 0.2826,-0.20956854 0.41279,-0.20956854 0.29212,0 0.40643,0.22862014 0.40643,0.56837514 0,0.3810336 -0.18734,0.6128291 -0.44136,0.6128291 -0.10161,0 -0.24132,-0.044454 -0.37786,-0.1619393 z"
       style="font-size:3.17528px;line-height:1.25;font-family:'Source Sans Pro';-inkscape-font-specification:'Source Sans Pro'"
       id="path26168" />
    <path
       d="m 103.29668,1.8670646 c 0,0.2762494 0.19369,0.4381887 0.45407,0.4381887 0.19051,0 0.36198,-0.101609 0.51122,-0.2222696 h 0.006 l 0.0222,0.1841662 h 0.21592 V 1.3209165 c 0,-0.38420893 -0.15876,-0.63505606 -0.53662,-0.63505606 -0.24767,0 -0.46359,0.10795952 -0.60648,0.20004264 l 0.10479,0.18099092 c 0.12066,-0.0825572 0.27942,-0.16511452 0.46041,-0.16511452 0.25085,0 0.31753,0.19051682 0.31753,0.38738422 -0.65728,0.073031 -0.94941,0.2413212 -0.94941,0.5779009 z m 0.2572,-0.019052 c 0,-0.1968674 0.17464,-0.3238786 0.69221,-0.3873842 v 0.4286628 c -0.14924,0.1333618 -0.27307,0.2063932 -0.42231,0.2063932 -0.15242,0 -0.2699,-0.073031 -0.2699,-0.2476718 z M 104.31912,-6.1988831e-8 h -0.27307 L 103.76027,0.44771443 h 0.20004 z"
       style="font-size:3.17528px;line-height:1.25;font-family:'Source Sans Pro';-inkscape-font-specification:'Source Sans Pro'"
       id="path26170" />
    <path
       d="m 104.99863,1.9559725 c 0,0.2254449 0.0794,0.3492808 0.27625,0.3492808 0.0699,0 0.11431,-0.00953 0.14924,-0.025402 l -0.0349,-0.1968673 c -0.0286,0.00635 -0.0413,0.00635 -0.0572,0.00635 -0.0381,0 -0.073,-0.031753 -0.073,-0.11431 V 0.0063505 h -0.26037 z"
       style="font-size:3.17528px;line-height:1.25;font-family:'Source Sans Pro';-inkscape-font-specification:'Source Sans Pro'"
       id="path26172" />
    <path
       d="m 105.80832,2.2671499 h 0.2572 V 1.8607141 l 0.28895,-0.3365797 0.45089,0.7430155 h 0.28577 l -0.58742,-0.9240065 0.51757,-0.6191796 h -0.28895 l -0.65728,0.8128717 h -0.01 v -1.530485 h -0.2572 z"
       style="font-size:3.17528px;line-height:1.25;font-family:'Source Sans Pro';-inkscape-font-specification:'Source Sans Pro'"
       id="path26174" />
    <path
       d="m 107.27213,1.8670646 c 0,0.2762494 0.19369,0.4381887 0.45406,0.4381887 0.19052,0 0.36198,-0.101609 0.51122,-0.2222696 h 0.006 l 0.0222,0.1841662 h 0.21592 V 1.3209165 c 0,-0.38420893 -0.15876,-0.63505606 -0.53662,-0.63505606 -0.24768,0 -0.46359,0.10795952 -0.60648,0.20004264 l 0.10478,0.18099092 c 0.12066,-0.0825572 0.27943,-0.16511452 0.46042,-0.16511452 0.25085,0 0.31753,0.19051682 0.31753,0.38738422 -0.65729,0.073031 -0.94941,0.2413212 -0.94941,0.5779009 z m 0.2572,-0.019052 c 0,-0.1968674 0.17464,-0.3238786 0.69221,-0.3873842 v 0.4286628 c -0.14924,0.1333618 -0.27308,0.2063932 -0.42232,0.2063932 -0.15241,0 -0.26989,-0.073031 -0.26989,-0.2476718 z"
       style="font-size:3.17528px;line-height:1.25;font-family:'Source Sans Pro';-inkscape-font-specification:'Source Sans Pro'"
       id="path26176" />
  </g>
  <g
     aria-label="Polygon shape"
     id="text22710"
     style="font-size:4.97132px;line-height:0%;letter-spacing:0px;word-spacing:0px;fill:#e8eaec;stroke-width:0.414279px">
    <path
       d="m 111.88795,2.2671499 h 0.26672 V 1.4415771 h 0.37469 c 0.45406,0 0.76842,-0.2063932 0.76842,-0.64458186 0,-0.45724033 -0.30801,-0.61282906 -0.76842,-0.61282906 h -0.64141 z m 0.26672,-1.0414918 V 0.39690995 h 0.33976 c 0.35881,0 0.5398,0.0984337 0.5398,0.40008529 0,0.29530106 -0.17464,0.42866286 -0.5398,0.42866286 z"
       style="font-size:3.17528px;line-height:1.25;font-family:'Source Sans Pro';-inkscape-font-specification:'Source Sans Pro'"
       id="path26179" />
    <path
       d="m 113.49464,1.4987321 c 0,0.5112201 0.33658,0.8065212 0.71444,0.8065212 0.37786,0 0.71444,-0.2953011 0.71444,-0.8065212 0,-0.51757061 -0.33658,-0.81287166 -0.71444,-0.81287166 -0.37786,0 -0.71444,0.29530105 -0.71444,0.81287166 z m 0.2699,0 c 0,-0.3556313 0.18099,-0.59695262 0.44454,-0.59695262 0.26672,0 0.44454,0.24132132 0.44454,0.59695262 0,0.3524561 -0.17782,0.5906021 -0.44454,0.5906021 -0.26355,0 -0.44454,-0.238146 -0.44454,-0.5906021 z"
       style="font-size:3.17528px;line-height:1.25;font-family:'Source Sans Pro';-inkscape-font-specification:'Source Sans Pro'"
       id="path26181" />
    <path
       d="m 115.32995,1.9559725 c 0,0.2254449 0.0794,0.3492808 0.27625,0.3492808 0.0699,0 0.11431,-0.00953 0.14924,-0.025402 l -0.0349,-0.1968673 c -0.0286,0.00635 -0.0413,0.00635 -0.0572,0.00635 -0.0381,0 -0.073,-0.031753 -0.073,-0.11431 V 0.0063505 h -0.26037 z"
       style="font-size:3.17528px;line-height:1.25;font-family:'Source Sans Pro';-inkscape-font-specification:'Source Sans Pro'"
       id="path26183" />
    <path
       d="m 116.03486,2.6926375 -0.0508,0.2063932 c 0.0508,0.019052 0.11113,0.031753 0.18099,0.031753 0.31117,0 0.46994,-0.2317955 0.5779,-0.5366224 l 0.58107,-1.6701973 H 117.07 l -0.27625,0.8541503 c -0.0413,0.1365371 -0.0857,0.2953011 -0.13018,0.4350134 h -0.0127 c -0.0476,-0.1428876 -0.10161,-0.3016516 -0.14924,-0.4350134 l -0.31436,-0.8541503 h -0.26989 l 0.61917,1.5463614 -0.0349,0.1143101 c -0.0635,0.1905168 -0.17464,0.3302291 -0.34928,0.3302291 -0.0381,0 -0.0857,-0.012701 -0.11749,-0.022227 z"
       style="font-size:3.17528px;line-height:1.25;font-family:'Source Sans Pro';-inkscape-font-specification:'Source Sans Pro'"
       id="path26185" />
    <path
       d="m 117.73364,2.5275229 c 0,-0.088908 0.0476,-0.180991 0.15876,-0.260373 0.0667,0.019052 0.13971,0.025402 0.20005,0.025402 h 0.26672 c 0.20004,0 0.31118,0.047629 0.31118,0.1905168 0,0.1619393 -0.1937,0.3143527 -0.489,0.3143527 -0.27942,0 -0.44771,-0.1047842 -0.44771,-0.2698988 z m -0.22862,0.034928 c 0,0.2667235 0.26037,0.4159617 0.63823,0.4159617 0.47947,0 0.78112,-0.2476719 0.78112,-0.5334471 0,-0.2571977 -0.18099,-0.3683325 -0.5398,-0.3683325 h -0.29848 c -0.20956,0 -0.27307,-0.069856 -0.27307,-0.1682898 0,-0.085733 0.0445,-0.1365371 0.0984,-0.1841663 0.0699,0.034928 0.15559,0.05398 0.2318,0.05398 0.31435,0 0.5652,-0.2063932 0.5652,-0.5366223 0,-0.1301865 -0.054,-0.24767189 -0.12701,-0.31752805 h 0.31753 V 0.7239638 h -0.53663 c -0.0572,-0.022227 -0.13336,-0.0381034 -0.21909,-0.0381034 -0.31435,0 -0.58108,0.21274376 -0.58108,0.54932346 0,0.1841662 0.0984,0.3334044 0.20005,0.4159617 v 0.012701 c -0.0794,0.05398 -0.16829,0.1555887 -0.16829,0.2857752 0,0.1206607 0.0603,0.2032179 0.13653,0.2508471 v 0.012701 c -0.13971,0.095258 -0.22544,0.2190943 -0.22544,0.3492808 z m 0.63823,-0.9589346 c -0.17782,0 -0.32705,-0.1428876 -0.32705,-0.3683325 0,-0.2254449 0.14606,-0.35880666 0.32705,-0.35880666 0.18099,0 0.32705,0.13336176 0.32705,0.35880666 0,0.2254449 -0.14923,0.3683325 -0.32705,0.3683325 z"
       style="font-size:3.17528px;line-height:1.25;font-family:'Source Sans Pro';-inkscape-font-specification:'Source Sans Pro'"
       id="path26187" />
    <path
       d="m 119.06408,1.4987321 c 0,0.5112201 0.33658,0.8065212 0.71444,0.8065212 0.37786,0 0.71444,-0.2953011 0.71444,-0.8065212 0,-0.51757061 -0.33658,-0.81287166 -0.71444,-0.81287166 -0.37786,0 -0.71444,0.29530105 -0.71444,0.81287166 z m 0.2699,0 c 0,-0.3556313 0.18099,-0.59695262 0.44454,-0.59695262 0.26672,0 0.44454,0.24132132 0.44454,0.59695262 0,0.3524561 -0.17782,0.5906021 -0.44454,0.5906021 -0.26355,0 -0.44454,-0.238146 -0.44454,-0.5906021 z"
       style="font-size:3.17528px;line-height:1.25;font-family:'Source Sans Pro';-inkscape-font-specification:'Source Sans Pro'"
       id="path26189" />
    <path
       d="m 120.89939,2.2671499 h 0.26037 V 1.1494513 c 0.15559,-0.15558869 0.26355,-0.23814597 0.42232,-0.23814597 0.20322,0 0.29212,0.12383587 0.29212,0.41278637 v 0.9430582 h 0.26038 V 1.2891637 c 0,-0.39373478 -0.14607,-0.60330326 -0.46995,-0.60330326 -0.21274,0 -0.3715,0.11431008 -0.51757,0.26037297 h -0.01 l -0.0222,-0.22226961 h -0.21592 z"
       style="font-size:3.17528px;line-height:1.25;font-family:'Source Sans Pro';-inkscape-font-specification:'Source Sans Pro'"
       id="path26191" />
    <path
       d="m 123.10621,2.0925095 c 0.14607,0.1206607 0.35563,0.2127438 0.57473,0.2127438 0.36516,0 0.5652,-0.2095685 0.5652,-0.4604156 0,-0.2921258 -0.24767,-0.3842089 -0.46994,-0.4667662 -0.17464,-0.066681 -0.34293,-0.1238359 -0.34293,-0.2667235 0,-0.11748539 0.0889,-0.22226964 0.2826,-0.22226964 0.13653,0 0.24767,0.0571551 0.35245,0.13653704 l 0.12384,-0.16511456 c -0.11749,-0.0952584 -0.28578,-0.1746404 -0.47947,-0.1746404 -0.3334,0 -0.53027,0.1905168 -0.53027,0.43818866 0,0.260373 0.24132,0.3651572 0.46042,0.4445392 0.16829,0.063506 0.35245,0.1333618 0.35245,0.2921258 0,0.1333617 -0.10161,0.2413213 -0.30483,0.2413213 -0.18416,0 -0.3207,-0.076207 -0.45406,-0.1841663 z"
       style="font-size:3.17528px;line-height:1.25;font-family:'Source Sans Pro';-inkscape-font-specification:'Source Sans Pro'"
       id="path26193" />
    <path
       d="m 124.60812,2.2671499 h 0.26038 V 1.1494513 c 0.15558,-0.15558869 0.26354,-0.23814597 0.42231,-0.23814597 0.20322,0 0.29212,0.12383587 0.29212,0.41278637 v 0.9430582 h 0.26038 V 1.2891637 c 0,-0.39373478 -0.14607,-0.60330326 -0.46994,-0.60330326 -0.21275,0 -0.36834,0.11431008 -0.5144,0.25402241 l 0.01,-0.31752801 V 0.0063505 h -0.26038 z"
       style="font-size:3.17528px;line-height:1.25;font-family:'Source Sans Pro';-inkscape-font-specification:'Source Sans Pro'"
       id="path26195" />
    <path
       d="m 126.25927,1.8670646 c 0,0.2762494 0.19369,0.4381887 0.45407,0.4381887 0.19051,0 0.36198,-0.101609 0.51122,-0.2222696 h 0.006 l 0.0222,0.1841662 h 0.21592 V 1.3209165 c 0,-0.38420893 -0.15876,-0.63505606 -0.53662,-0.63505606 -0.24767,0 -0.46359,0.10795952 -0.60648,0.20004264 l 0.10479,0.18099092 c 0.12066,-0.0825572 0.27942,-0.16511452 0.46041,-0.16511452 0.25085,0 0.31753,0.19051682 0.31753,0.38738422 -0.65728,0.073031 -0.94941,0.2413212 -0.94941,0.5779009 z m 0.2572,-0.019052 c 0,-0.1968674 0.17464,-0.3238786 0.69221,-0.3873842 v 0.4286628 c -0.14924,0.1333618 -0.27308,0.2063932 -0.42231,0.2063932 -0.15242,0 -0.2699,-0.073031 -0.2699,-0.2476718 z"
       style="font-size:3.17528px;line-height:1.25;font-family:'Source Sans Pro';-inkscape-font-specification:'Source Sans Pro'"
       id="path26197" />
    <path
       d="m 128.21524,2.1274376 c 0.14289,0.1111348 0.28577,0.1778157 0.42866,0.1778157 0.35246,0 0.66681,-0.3080022 0.66681,-0.8319234 0,-0.47946729 -0.21274,-0.78746946 -0.60965,-0.78746946 -0.18099,0 -0.35246,0.0984337 -0.49217,0.21591904 h -0.01 l -0.0222,-0.17781568 h -0.21592 v 2.1941185 h 0.26037 V 2.3973364 Z m 0.006,-0.2032179 V 1.1145233 c 0.15241,-0.13653709 0.2826,-0.20956854 0.41279,-0.20956854 0.29212,0 0.40643,0.22862014 0.40643,0.56837514 0,0.3810336 -0.18734,0.6128291 -0.44136,0.6128291 -0.10161,0 -0.23815,-0.044454 -0.37786,-0.1619393 z"
       style="font-size:3.17528px;line-height:1.25;font-family:'Source Sans Pro';-inkscape-font-specification:'Source Sans Pro'"
       id="path26199" />
    <path
       d="m 129.60919,1.4987321 c 0,0.5048696 0.32705,0.8065212 0.73984,0.8065212 0.20957,0 0.37468,-0.073031 0.50804,-0.158764 l -0.0921,-0.1714651 c -0.11431,0.073031 -0.23815,0.1206606 -0.38421,0.1206606 -0.2953,0 -0.49534,-0.2095685 -0.51439,-0.5429729 h 1.04149 c 0.006,-0.038103 0.01,-0.088908 0.01,-0.1428876 0,-0.44136393 -0.22227,-0.72396386 -0.616,-0.72396386 -0.35246,0 -0.69221,0.30800217 -0.69221,0.81287166 z m 0.25402,-0.1174853 c 0.0317,-0.3111775 0.22862,-0.48899316 0.44454,-0.48899316 0.24132,0 0.38103,0.17464036 0.38103,0.48899316 z"
       style="font-size:3.17528px;line-height:1.25;font-family:'Source Sans Pro';-inkscape-font-specification:'Source Sans Pro'"
       id="path26201" />
  </g>
  <g
     aria-label="Přesnější výsledky"
     id="text22714"
     style="font-size:4.97132px;line-height:0%;letter-spacing:0px;word-spacing:0px;fill:#e8eaec;stroke-width:0.414279px">
    <path
       d="m 55.945961,30.357857 h 0.266724 v -0.825573 h 0.374683 c 0.454065,0 0.768418,-0.206393 0.768418,-0.644582 0,-0.45724 -0.308002,-0.612829 -0.768418,-0.612829 h -0.641407 z m 0.266724,-1.041492 v -0.828748 h 0.339755 c 0.358807,0 0.539798,0.09843 0.539798,0.400085 0,0.295301 -0.174641,0.428663 -0.539798,0.428663 z"
       style="font-size:3.17528px;line-height:1.25;font-family:'Source Sans Pro';-inkscape-font-specification:'Source Sans Pro'"
       id="path26204" />
    <path
       d="m 57.743167,30.357857 h 0.260373 v -0.990688 c 0.104784,-0.260373 0.260373,-0.355631 0.39056,-0.355631 0.0635,0 0.09843,0.0095 0.149238,0.0254 l 0.0508,-0.22862 c -0.0508,-0.02223 -0.09843,-0.03175 -0.165114,-0.03175 -0.174641,0 -0.333405,0.123836 -0.438189,0.317528 h -0.0095 l -0.02223,-0.279424 h -0.215919 z m 0.323879,-1.819436 h 0.212744 l 0.301651,-0.447714 H 58.3941 l -0.212744,0.292126 h -0.0127 l -0.212744,-0.292126 h -0.190517 z"
       style="font-size:3.17528px;line-height:1.25;font-family:'Source Sans Pro';-inkscape-font-specification:'Source Sans Pro'"
       id="path26206" />
    <path
       d="m 58.698926,29.589439 c 0,0.50487 0.327054,0.806521 0.739841,0.806521 0.209568,0 0.374683,-0.07303 0.508044,-0.158764 l -0.09208,-0.171465 c -0.11431,0.07303 -0.238146,0.120661 -0.384209,0.120661 -0.295301,0 -0.495343,-0.209569 -0.514395,-0.542973 h 1.041492 c 0.0063,-0.0381 0.0095,-0.08891 0.0095,-0.142888 0,-0.441364 -0.22227,-0.723964 -0.616005,-0.723964 -0.352456,0 -0.692211,0.308002 -0.692211,0.812872 z m 0.254023,-0.117485 c 0.03175,-0.311178 0.22862,-0.488994 0.444539,-0.488994 0.241321,0 0.381033,0.174641 0.381033,0.488994 z"
       style="font-size:3.17528px;line-height:1.25;font-family:'Source Sans Pro';-inkscape-font-specification:'Source Sans Pro'"
       id="path26208" />
    <path
       d="m 60.216711,30.183216 c 0.146063,0.120661 0.355632,0.212744 0.574726,0.212744 0.365157,0 0.5652,-0.209568 0.5652,-0.460416 0,-0.292125 -0.247672,-0.384208 -0.469942,-0.466766 -0.17464,-0.06668 -0.34293,-0.123836 -0.34293,-0.266723 0,-0.117486 0.08891,-0.22227 0.2826,-0.22227 0.136537,0 0.247672,0.05716 0.352456,0.136537 l 0.123836,-0.165114 c -0.117485,-0.09526 -0.285775,-0.174641 -0.479467,-0.174641 -0.333405,0 -0.530272,0.190517 -0.530272,0.438189 0,0.260373 0.241321,0.365157 0.460416,0.444539 0.168289,0.06351 0.352456,0.133362 0.352456,0.292126 0,0.133362 -0.101609,0.241321 -0.304827,0.241321 -0.184167,0 -0.320704,-0.07621 -0.454065,-0.184166 z"
       style="font-size:3.17528px;line-height:1.25;font-family:'Source Sans Pro';-inkscape-font-specification:'Source Sans Pro'"
       id="path26210" />
    <path
       d="m 61.718621,30.357857 h 0.260373 v -1.117699 c 0.155588,-0.155589 0.263548,-0.238146 0.422312,-0.238146 0.203218,0 0.292126,0.123836 0.292126,0.412787 v 0.943058 h 0.260373 V 29.37987 c 0,-0.393734 -0.146063,-0.603303 -0.469942,-0.603303 -0.212744,0 -0.371508,0.11431 -0.517571,0.260373 h -0.0095 l -0.02223,-0.222269 h -0.215919 z"
       style="font-size:3.17528px;line-height:1.25;font-family:'Source Sans Pro';-inkscape-font-specification:'Source Sans Pro'"
       id="path26212" />
    <path
       d="m 63.341191,29.589439 c 0,0.50487 0.327054,0.806521 0.739841,0.806521 0.209568,0 0.374683,-0.07303 0.508044,-0.158764 l -0.09208,-0.171465 c -0.11431,0.07303 -0.238146,0.120661 -0.384209,0.120661 -0.295301,0 -0.495343,-0.209569 -0.514395,-0.542973 h 1.041492 c 0.0063,-0.0381 0.0095,-0.08891 0.0095,-0.142888 0,-0.441364 -0.22227,-0.723964 -0.616005,-0.723964 -0.352456,0 -0.692211,0.308002 -0.692211,0.812872 z m 0.254023,-0.117485 c 0.03175,-0.311178 0.22862,-0.488994 0.444539,-0.488994 0.241321,0 0.381034,0.174641 0.381034,0.488994 z m 0.333404,-0.933533 h 0.212744 l 0.301652,-0.447714 h -0.190517 l -0.212744,0.292126 h -0.0127 l -0.212744,-0.292126 h -0.187341 z"
       style="font-size:3.17528px;line-height:1.25;font-family:'Source Sans Pro';-inkscape-font-specification:'Source Sans Pro'"
       id="path26214" />
    <path
       d="m 65.033616,30.532497 c 0,0.187342 -0.0381,0.301652 -0.190516,0.301652 -0.05398,0 -0.10796,-0.0127 -0.146063,-0.0254 l -0.05398,0.196867 c 0.05398,0.02223 0.133362,0.04128 0.22862,0.04128 0.308002,0 0.422312,-0.200043 0.422312,-0.514396 v -1.717826 h -0.260373 z m 0.133362,-2.035354 c 0.09843,0 0.177816,-0.06986 0.177816,-0.16829 0,-0.101609 -0.07938,-0.16829 -0.177816,-0.16829 -0.101609,0 -0.180991,0.06668 -0.180991,0.16829 0,0.09843 0.07938,0.16829 0.180991,0.16829 z"
       style="font-size:3.17528px;line-height:1.25;font-family:'Source Sans Pro';-inkscape-font-specification:'Source Sans Pro'"
       id="path26216" />
    <path
       d="m 65.643269,30.183216 c 0.146063,0.120661 0.355632,0.212744 0.574726,0.212744 0.365157,0 0.5652,-0.209568 0.5652,-0.460416 0,-0.292125 -0.247672,-0.384208 -0.469942,-0.466766 -0.17464,-0.06668 -0.34293,-0.123836 -0.34293,-0.266723 0,-0.117486 0.08891,-0.22227 0.2826,-0.22227 0.136537,0 0.247672,0.05716 0.352456,0.136537 l 0.123836,-0.165114 c -0.117485,-0.09526 -0.285775,-0.174641 -0.479467,-0.174641 -0.333405,0 -0.530272,0.190517 -0.530272,0.438189 0,0.260373 0.241321,0.365157 0.460416,0.444539 0.168289,0.06351 0.352456,0.133362 0.352456,0.292126 0,0.133362 -0.101609,0.241321 -0.304827,0.241321 -0.184167,0 -0.320704,-0.07621 -0.454065,-0.184166 z m 0.501694,-1.644795 h 0.215919 l 0.298477,-0.447714 h -0.187342 l -0.212743,0.292126 h -0.0127 l -0.212743,-0.292126 h -0.190517 z"
       style="font-size:3.17528px;line-height:1.25;font-family:'Source Sans Pro';-inkscape-font-specification:'Source Sans Pro'"
       id="path26218" />
    <path
       d="m 67.145179,30.357857 h 0.260373 v -1.543186 h -0.260373 z m 0.482642,-2.26715 h -0.273074 l -0.285775,0.447714 h 0.200043 z"
       style="font-size:3.17528px;line-height:1.25;font-family:'Source Sans Pro';-inkscape-font-specification:'Source Sans Pro'"
       id="path26220" />
    <path
       d="m 68.901108,30.357857 h 0.304827 l 0.546149,-1.543186 h -0.257198 l -0.292126,0.876377 c -0.04445,0.152413 -0.09526,0.308002 -0.139712,0.454065 h -0.0127 c -0.04763,-0.146063 -0.09843,-0.301652 -0.142888,-0.454065 l -0.292126,-0.876377 h -0.269899 z"
       style="font-size:3.17528px;line-height:1.25;font-family:'Source Sans Pro';-inkscape-font-specification:'Source Sans Pro'"
       id="path26222" />
    <path
       d="m 69.945779,30.783344 -0.0508,0.206393 c 0.0508,0.01905 0.111135,0.03175 0.180991,0.03175 0.311177,0 0.469941,-0.231795 0.577901,-0.536622 l 0.581076,-1.670197 h -0.254022 l -0.27625,0.85415 c -0.04128,0.136537 -0.08573,0.295301 -0.130186,0.435013 h -0.0127 c -0.04763,-0.142887 -0.101609,-0.301651 -0.149238,-0.435013 l -0.314353,-0.85415 h -0.269899 l 0.61918,1.546361 -0.03493,0.11431 c -0.06351,0.190517 -0.174641,0.330229 -0.349281,0.330229 -0.0381,0 -0.08573,-0.0127 -0.117486,-0.02223 z m 0.968461,-2.692637 h -0.273074 l -0.285775,0.447714 h 0.200042 z"
       style="font-size:3.17528px;line-height:1.25;font-family:'Source Sans Pro';-inkscape-font-specification:'Source Sans Pro'"
       id="path26224" />
    <path
       d="m 71.361957,30.183216 c 0.146063,0.120661 0.355632,0.212744 0.574726,0.212744 0.365157,0 0.5652,-0.209568 0.5652,-0.460416 0,-0.292125 -0.247672,-0.384208 -0.469942,-0.466766 -0.17464,-0.06668 -0.34293,-0.123836 -0.34293,-0.266723 0,-0.117486 0.08891,-0.22227 0.2826,-0.22227 0.136537,0 0.247672,0.05716 0.352456,0.136537 l 0.123836,-0.165114 c -0.117485,-0.09526 -0.285775,-0.174641 -0.479467,-0.174641 -0.333405,0 -0.530272,0.190517 -0.530272,0.438189 0,0.260373 0.241321,0.365157 0.460416,0.444539 0.168289,0.06351 0.352456,0.133362 0.352456,0.292126 0,0.133362 -0.101609,0.241321 -0.304827,0.241321 -0.184167,0 -0.320704,-0.07621 -0.454065,-0.184166 z"
       style="font-size:3.17528px;line-height:1.25;font-family:'Source Sans Pro';-inkscape-font-specification:'Source Sans Pro'"
       id="path26226" />
    <path
       d="m 72.863866,30.046679 c 0,0.225445 0.07938,0.349281 0.276249,0.349281 0.06986,0 0.11431,-0.0095 0.149238,-0.0254 l -0.03493,-0.196867 c -0.02858,0.0063 -0.04128,0.0063 -0.05715,0.0063 -0.0381,0 -0.07303,-0.03175 -0.07303,-0.11431 v -1.968674 h -0.260373 z"
       style="font-size:3.17528px;line-height:1.25;font-family:'Source Sans Pro';-inkscape-font-specification:'Source Sans Pro'"
       id="path26228" />
    <path
       d="m 73.55925,29.589439 c 0,0.50487 0.327054,0.806521 0.73984,0.806521 0.209569,0 0.374683,-0.07303 0.508045,-0.158764 l -0.09208,-0.171465 c -0.11431,0.07303 -0.238146,0.120661 -0.384209,0.120661 -0.295301,0 -0.495344,-0.209569 -0.514395,-0.542973 h 1.041491 c 0.0064,-0.0381 0.0095,-0.08891 0.0095,-0.142888 0,-0.441364 -0.222269,-0.723964 -0.616004,-0.723964 -0.352456,0 -0.692211,0.308002 -0.692211,0.812872 z m 0.254022,-0.117485 c 0.03175,-0.311178 0.22862,-0.488994 0.44454,-0.488994 0.241321,0 0.381033,0.174641 0.381033,0.488994 z"
       style="font-size:3.17528px;line-height:1.25;font-family:'Source Sans Pro';-inkscape-font-specification:'Source Sans Pro'"
       id="path26230" />
    <path
       d="m 75.137365,29.589439 c 0,0.514395 0.250847,0.806521 0.638231,0.806521 0.180991,0 0.346106,-0.101609 0.466766,-0.219094 h 0.0095 l 0.02223,0.180991 h 0.215919 v -2.2608 h -0.263548 v 0.593778 l 0.0127,0.263548 c -0.136537,-0.111135 -0.254022,-0.177816 -0.431838,-0.177816 -0.352456,0 -0.669984,0.311178 -0.669984,0.812872 z m 0.269899,-0.0032 c 0,-0.352456 0.196867,-0.590602 0.444539,-0.590602 0.127011,0 0.244497,0.04445 0.374683,0.161939 v 0.806521 c -0.127011,0.142888 -0.250847,0.212744 -0.393735,0.212744 -0.269899,0 -0.425487,-0.22227 -0.425487,-0.590602 z"
       style="font-size:3.17528px;line-height:1.25;font-family:'Source Sans Pro';-inkscape-font-specification:'Source Sans Pro'"
       id="path26232" />
    <path
       d="m 77.010781,30.357857 h 0.257198 v -0.406436 l 0.28895,-0.33658 0.45089,0.743016 h 0.285775 l -0.587427,-0.924007 0.517571,-0.619179 h -0.28895 l -0.657283,0.812871 h -0.0095 v -1.530485 h -0.257198 z"
       style="font-size:3.17528px;line-height:1.25;font-family:'Source Sans Pro';-inkscape-font-specification:'Source Sans Pro'"
       id="path26234" />
    <path
       d="m 78.477763,30.783344 -0.0508,0.206393 c 0.0508,0.01905 0.111135,0.03175 0.180991,0.03175 0.311178,0 0.469942,-0.231795 0.577901,-0.536622 l 0.581077,-1.670197 h -0.254023 l -0.276249,0.85415 c -0.04128,0.136537 -0.08573,0.295301 -0.130187,0.435013 h -0.0127 c -0.04763,-0.142887 -0.101609,-0.301651 -0.149238,-0.435013 l -0.314353,-0.85415 h -0.269899 l 0.61918,1.546361 -0.03493,0.11431 c -0.06351,0.190517 -0.17464,0.330229 -0.349281,0.330229 -0.0381,0 -0.08573,-0.0127 -0.117485,-0.02223 z"
       style="font-size:3.17528px;line-height:1.25;font-family:'Source Sans Pro';-inkscape-font-specification:'Source Sans Pro'"
       id="path26236" />
  </g>
  <path
     style="fill:none;fill-rule:evenodd;stroke:#a6aeb8;stroke-width:0.264607;stroke-linecap:butt;stroke-linejoin:miter;stroke-miterlimit:4;stroke-dasharray:none;stroke-opacity:1"
     d="M 6.1308781,31.838908 H 119.22867"
     id="path22716"
     inkscape:connector-curvature="0" />
  <path
     inkscape:connector-curvature="0"
     id="path22718"
     d="M 120.51753,38.648584 H 7.4197821"
     style="fill:none;fill-rule:evenodd;stroke:#a6aeb8;stroke-width:0.264607;stroke-linecap:butt;stroke-linejoin:miter;stroke-miterlimit:4;stroke-dasharray:none;stroke-opacity:1" />
  <g
     aria-label="Rychlejší testování"
     id="text22722"
     style="font-size:4.97132px;line-height:0%;letter-spacing:0px;word-spacing:0px;fill:#e8eaec;stroke-width:0.414279px">
    <path
       d="m 56.247422,35.297294 h 0.34928 c 0.323879,0 0.501695,0.09843 0.501695,0.371508 0,0.269898 -0.177816,0.40326 -0.501695,0.40326 h -0.34928 z m 1.178029,1.87024 -0.530272,-0.90813 c 0.2826,-0.07303 0.466766,-0.266724 0.466766,-0.590602 0,-0.431838 -0.304827,-0.584252 -0.727139,-0.584252 h -0.654108 v 2.082984 h 0.266724 v -0.879553 h 0.374683 l 0.501694,0.879553 z"
       style="font-size:3.17528px;line-height:1.25;font-family:'Source Sans Pro';-inkscape-font-specification:'Source Sans Pro'"
       id="path26239" />
    <path
       d="m 57.688999,37.593021 -0.0508,0.206394 c 0.0508,0.01905 0.111135,0.03175 0.180991,0.03175 0.311177,0 0.469941,-0.231795 0.577901,-0.536622 l 0.581076,-1.670197 h -0.254022 l -0.27625,0.85415 c -0.04128,0.136537 -0.08573,0.295301 -0.130186,0.435013 h -0.0127 c -0.04763,-0.142887 -0.101609,-0.301651 -0.149238,-0.435013 l -0.314353,-0.85415 h -0.269899 l 0.61918,1.546361 -0.03493,0.11431 c -0.06351,0.190517 -0.174641,0.330229 -0.349281,0.330229 -0.0381,0 -0.08573,-0.0127 -0.117486,-0.02223 z"
       style="font-size:3.17528px;line-height:1.25;font-family:'Source Sans Pro';-inkscape-font-specification:'Source Sans Pro'"
       id="path26241" />
    <path
       d="m 59.149632,36.399116 c 0,0.51122 0.314353,0.806521 0.723964,0.806521 0.184166,0 0.361982,-0.07621 0.501694,-0.200042 l -0.117485,-0.171466 c -0.09208,0.08256 -0.215919,0.155589 -0.361982,0.155589 -0.2826,0 -0.476292,-0.238146 -0.476292,-0.590602 0,-0.355631 0.203218,-0.596953 0.482643,-0.596953 0.123836,0 0.219094,0.05716 0.311177,0.136537 l 0.130187,-0.168289 c -0.104785,-0.09843 -0.247672,-0.184167 -0.45089,-0.184167 -0.39691,0 -0.743016,0.295301 -0.743016,0.812872 z"
       style="font-size:3.17528px;line-height:1.25;font-family:'Source Sans Pro';-inkscape-font-specification:'Source Sans Pro'"
       id="path26243" />
    <path
       d="m 60.711868,37.167534 h 0.260373 v -1.117699 c 0.155589,-0.155588 0.263548,-0.238146 0.422312,-0.238146 0.203218,0 0.292126,0.123836 0.292126,0.412787 v 0.943058 h 0.260373 v -0.977986 c 0,-0.393735 -0.146063,-0.603304 -0.469941,-0.603304 -0.212744,0 -0.368333,0.11431 -0.514396,0.254023 l 0.0095,-0.317528 v -0.616005 h -0.260373 z"
       style="font-size:3.17528px;line-height:1.25;font-family:'Source Sans Pro';-inkscape-font-specification:'Source Sans Pro'"
       id="path26245" />
    <path
       d="m 62.439222,36.856356 c 0,0.225445 0.07938,0.349281 0.27625,0.349281 0.06986,0 0.11431,-0.0095 0.149238,-0.0254 l -0.03493,-0.196867 c -0.02858,0.0064 -0.04128,0.0064 -0.05716,0.0064 -0.0381,0 -0.07303,-0.03175 -0.07303,-0.11431 v -1.968674 h -0.260373 z"
       style="font-size:3.17528px;line-height:1.25;font-family:'Source Sans Pro';-inkscape-font-specification:'Source Sans Pro'"
       id="path26247" />
    <path
       d="m 63.134606,36.399116 c 0,0.50487 0.327054,0.806521 0.73984,0.806521 0.209569,0 0.374683,-0.07303 0.508045,-0.158764 l -0.09208,-0.171465 c -0.11431,0.07303 -0.238146,0.120661 -0.384209,0.120661 -0.295301,0 -0.495344,-0.209569 -0.514395,-0.542973 h 1.041491 c 0.0064,-0.0381 0.0095,-0.08891 0.0095,-0.142888 0,-0.441364 -0.222269,-0.723964 -0.616004,-0.723964 -0.352456,0 -0.692211,0.308003 -0.692211,0.812872 z m 0.254022,-0.117485 c 0.03175,-0.311178 0.22862,-0.488993 0.44454,-0.488993 0.241321,0 0.381033,0.17464 0.381033,0.488993 z"
       style="font-size:3.17528px;line-height:1.25;font-family:'Source Sans Pro';-inkscape-font-specification:'Source Sans Pro'"
       id="path26249" />
    <path
       d="m 64.827031,37.342174 c 0,0.187342 -0.0381,0.301652 -0.190516,0.301652 -0.05398,0 -0.10796,-0.0127 -0.146063,-0.0254 l -0.05398,0.196867 c 0.05398,0.02223 0.133362,0.04128 0.22862,0.04128 0.308002,0 0.422312,-0.200043 0.422312,-0.514396 v -1.717826 h -0.260373 z m 0.133362,-2.035354 c 0.09843,0 0.177816,-0.06986 0.177816,-0.16829 0,-0.101609 -0.07938,-0.16829 -0.177816,-0.16829 -0.101609,0 -0.180991,0.06668 -0.180991,0.16829 0,0.09843 0.07938,0.16829 0.180991,0.16829 z"
       style="font-size:3.17528px;line-height:1.25;font-family:'Source Sans Pro';-inkscape-font-specification:'Source Sans Pro'"
       id="path26251" />
    <path
       d="m 65.436684,36.992893 c 0.146063,0.120661 0.355632,0.212744 0.574726,0.212744 0.365157,0 0.5652,-0.209568 0.5652,-0.460415 0,-0.292126 -0.247672,-0.384209 -0.469942,-0.466767 -0.17464,-0.06668 -0.34293,-0.123835 -0.34293,-0.266723 0,-0.117485 0.08891,-0.22227 0.2826,-0.22227 0.136537,0 0.247672,0.05716 0.352456,0.136537 l 0.123836,-0.165114 c -0.117485,-0.09526 -0.285775,-0.174641 -0.479467,-0.174641 -0.333405,0 -0.530272,0.190517 -0.530272,0.438189 0,0.260373 0.241321,0.365157 0.460416,0.444539 0.168289,0.06351 0.352456,0.133362 0.352456,0.292126 0,0.133362 -0.101609,0.241321 -0.304827,0.241321 -0.184166,0 -0.320703,-0.07621 -0.454065,-0.184166 z m 0.501695,-1.644795 h 0.215919 l 0.298476,-0.447714 h -0.187342 l -0.212743,0.292126 h -0.0127 l -0.212743,-0.292126 h -0.190517 z"
       style="font-size:3.17528px;line-height:1.25;font-family:'Source Sans Pro';-inkscape-font-specification:'Source Sans Pro'"
       id="path26253" />
    <path
       d="m 66.938594,37.167534 h 0.260373 v -1.543186 h -0.260373 z m 0.482642,-2.26715 h -0.273074 l -0.285775,0.447714 h 0.200043 z"
       style="font-size:3.17528px;line-height:1.25;font-family:'Source Sans Pro';-inkscape-font-specification:'Source Sans Pro'"
       id="path26255" />
    <path
       d="m 68.405573,36.691242 c 0,0.304827 0.111135,0.514395 0.441364,0.514395 0.09526,0 0.200043,-0.02858 0.285775,-0.05716 l -0.0508,-0.196867 c -0.0508,0.01905 -0.120661,0.04128 -0.174641,0.04128 -0.177815,0 -0.238146,-0.107959 -0.238146,-0.298476 v -0.857325 h 0.415962 V 35.624348 H 68.669121 V 35.19251 h -0.219094 l -0.03175,0.431838 -0.241321,0.01588 v 0.196868 h 0.22862 z"
       style="font-size:3.17528px;line-height:1.25;font-family:'Source Sans Pro';-inkscape-font-specification:'Source Sans Pro'"
       id="path26257" />
    <path
       d="m 69.288298,36.399116 c 0,0.50487 0.327054,0.806521 0.73984,0.806521 0.209568,0 0.374683,-0.07303 0.508045,-0.158764 L 70.4441,36.875408 c -0.11431,0.07303 -0.238146,0.120661 -0.384209,0.120661 -0.295301,0 -0.495344,-0.209569 -0.514396,-0.542973 h 1.041492 c 0.0064,-0.0381 0.0095,-0.08891 0.0095,-0.142888 0,-0.441364 -0.22227,-0.723964 -0.616004,-0.723964 -0.352456,0 -0.692211,0.308003 -0.692211,0.812872 z m 0.254022,-0.117485 c 0.03175,-0.311178 0.22862,-0.488993 0.444539,-0.488993 0.241322,0 0.381034,0.17464 0.381034,0.488993 z"
       style="font-size:3.17528px;line-height:1.25;font-family:'Source Sans Pro';-inkscape-font-specification:'Source Sans Pro'"
       id="path26259" />
    <path
       d="m 70.806082,36.992893 c 0.146063,0.120661 0.355632,0.212744 0.574726,0.212744 0.365157,0 0.5652,-0.209568 0.5652,-0.460415 0,-0.292126 -0.247672,-0.384209 -0.469942,-0.466767 -0.17464,-0.06668 -0.34293,-0.123835 -0.34293,-0.266723 0,-0.117485 0.08891,-0.22227 0.2826,-0.22227 0.136537,0 0.247672,0.05716 0.352456,0.136537 l 0.123836,-0.165114 c -0.117485,-0.09526 -0.285775,-0.174641 -0.479467,-0.174641 -0.333405,0 -0.530272,0.190517 -0.530272,0.438189 0,0.260373 0.241321,0.365157 0.460416,0.444539 0.16829,0.06351 0.352456,0.133362 0.352456,0.292126 0,0.133362 -0.101609,0.241321 -0.304827,0.241321 -0.184166,0 -0.320703,-0.07621 -0.454065,-0.184166 z"
       style="font-size:3.17528px;line-height:1.25;font-family:'Source Sans Pro';-inkscape-font-specification:'Source Sans Pro'"
       id="path26261" />
    <path
       d="m 72.352446,36.691242 c 0,0.304827 0.111135,0.514395 0.441364,0.514395 0.09526,0 0.200042,-0.02858 0.285775,-0.05716 l -0.0508,-0.196867 c -0.0508,0.01905 -0.12066,0.04128 -0.17464,0.04128 -0.177816,0 -0.238146,-0.107959 -0.238146,-0.298476 v -0.857325 h 0.415962 V 35.624348 H 72.615994 V 35.19251 H 72.3969 l -0.03175,0.431838 -0.241321,0.01588 v 0.196868 h 0.22862 z"
       style="font-size:3.17528px;line-height:1.25;font-family:'Source Sans Pro';-inkscape-font-specification:'Source Sans Pro'"
       id="path26263" />
    <path
       d="m 73.23517,36.399116 c 0,0.51122 0.33658,0.806521 0.714438,0.806521 0.377859,0 0.714438,-0.295301 0.714438,-0.806521 0,-0.517571 -0.336579,-0.812872 -0.714438,-0.812872 -0.377858,0 -0.714438,0.295301 -0.714438,0.812872 z m 0.269899,0 c 0,-0.355631 0.180991,-0.596953 0.444539,-0.596953 0.266724,0 0.44454,0.241322 0.44454,0.596953 0,0.352456 -0.177816,0.590602 -0.44454,0.590602 -0.263548,0 -0.444539,-0.238146 -0.444539,-0.590602 z"
       style="font-size:3.17528px;line-height:1.25;font-family:'Source Sans Pro';-inkscape-font-specification:'Source Sans Pro'"
       id="path26265" />
    <path
       d="m 75.391186,37.167534 h 0.304827 l 0.546149,-1.543186 h -0.257198 l -0.292126,0.876377 c -0.04445,0.152413 -0.09526,0.308002 -0.139712,0.454065 h -0.0127 c -0.04763,-0.146063 -0.09843,-0.301652 -0.142888,-0.454065 l -0.292126,-0.876377 h -0.269899 z"
       style="font-size:3.17528px;line-height:1.25;font-family:'Source Sans Pro';-inkscape-font-specification:'Source Sans Pro'"
       id="path26267" />
    <path
       d="m 76.400927,36.767449 c 0,0.276249 0.193692,0.438188 0.454065,0.438188 0.190517,0 0.361982,-0.101609 0.51122,-0.222269 h 0.0064 l 0.02223,0.184166 h 0.215919 V 36.2213 c 0,-0.384208 -0.158764,-0.635056 -0.536623,-0.635056 -0.247672,0 -0.463591,0.10796 -0.606478,0.200043 l 0.104784,0.180991 c 0.120661,-0.08256 0.279425,-0.165115 0.460416,-0.165115 0.250847,0 0.317528,0.190517 0.317528,0.387385 -0.657283,0.07303 -0.949409,0.241321 -0.949409,0.577901 z m 0.257198,-0.01905 c 0,-0.196867 0.17464,-0.323879 0.692211,-0.387384 v 0.428663 c -0.149239,0.133361 -0.273074,0.206393 -0.422313,0.206393 -0.152413,0 -0.269898,-0.07303 -0.269898,-0.247672 z m 0.765242,-1.848013 h -0.273074 l -0.285775,0.447714 h 0.200042 z"
       style="font-size:3.17528px;line-height:1.25;font-family:'Source Sans Pro';-inkscape-font-specification:'Source Sans Pro'"
       id="path26269" />
    <path
       d="m 78.102876,37.167534 h 0.260373 v -1.117699 c 0.155588,-0.155588 0.263548,-0.238146 0.422312,-0.238146 0.203218,0 0.292126,0.123836 0.292126,0.412787 v 0.943058 h 0.260373 v -0.977986 c 0,-0.393735 -0.146063,-0.603304 -0.469942,-0.603304 -0.212744,0 -0.371508,0.11431 -0.517571,0.260373 h -0.0095 l -0.02223,-0.222269 h -0.215919 z"
       style="font-size:3.17528px;line-height:1.25;font-family:'Source Sans Pro';-inkscape-font-specification:'Source Sans Pro'"
       id="path26271" />
    <path
       d="m 79.839755,37.167534 h 0.260373 v -1.543186 h -0.260373 z m 0.482642,-2.26715 h -0.273074 l -0.285775,0.447714 h 0.200043 z"
       style="font-size:3.17528px;line-height:1.25;font-family:'Source Sans Pro';-inkscape-font-specification:'Source Sans Pro'"
       id="path26273" />
  </g>
  <g
     style="fill:#e8eaec;fill-opacity:1;stroke-width:201.795"
     transform="matrix(-0.00179372,-0.00310682,0.00316002,-0.00182444,119.27941,32.989285)"
     id="g22728">
    <g
       style="fill:#e8eaec;fill-opacity:1;stroke-width:201.795"
       id="g22726">
      <path
         style="fill:#e8eaec;fill-opacity:1;stroke-width:201.795"
         inkscape:connector-curvature="0"
         d="M 486.413,221.412 122.347,12.916 C 69.409,-17.402 26.495,7.476 26.495,68.479 v 415.652 c 0,61.004 42.914,85.882 95.852,55.563 l 364.066,-208.49 c 52.938,-30.317 52.938,-79.473 0,-109.792 z"
         id="path22724" />
    </g>
  </g>
  <g
     id="g22734"
     transform="matrix(0.00179372,-0.00310682,-0.00316002,-0.00182444,7.7417691,39.812509)"
     style="fill:#e8eaec;fill-opacity:1;stroke-width:201.795">
    <g
       id="g22732"
       style="fill:#e8eaec;fill-opacity:1;stroke-width:201.795">
      <path
         id="path22730"
         d="M 486.413,221.412 122.347,12.916 C 69.409,-17.402 26.495,7.476 26.495,68.479 v 415.652 c 0,61.004 42.914,85.882 95.852,55.563 l 364.066,-208.49 c 52.938,-30.317 52.938,-79.473 0,-109.792 z"
         inkscape:connector-curvature="0"
         style="fill:#e8eaec;fill-opacity:1;stroke-width:201.795" />
    </g>
  </g>
</svg>
