<?xml version="1.0" encoding="UTF-8"?>
<svg width="275.71" height="240.59" version="1.1" viewBox="0 0 72.95 63.659" xmlns="http://www.w3.org/2000/svg" xmlns:cc="http://creativecommons.org/ns#" xmlns:dc="http://purl.org/dc/elements/1.1/" xmlns:rdf="http://www.w3.org/1999/02/22-rdf-syntax-ns#">
 <metadata>
  <rdf:RDF>
   <cc:Work rdf:about="">
    <dc:format>image/svg+xml</dc:format>
    <dc:type rdf:resource="http://purl.org/dc/dcmitype/StillImage"/>
   </cc:Work>
  </rdf:RDF>
 </metadata>
 <g fill="none" stroke="#7b8694" stroke-dasharray="0.198447, 0.59534" stroke-linecap="square" stroke-width=".19845">
  <path d="m55.845 32.52h-45.605"/>
  <path d="m26.079 54.391 17.359-29.324"/>
  <path d="m39.515 61.697 16.428-29.079"/>
 </g>
 <g>
  <rect x="33.747" y="29.524" width="14.646" height="14.646" fill="#1d232d" stroke="#e9e56f" stroke-linecap="round" stroke-width=".2646"/>
  <path d="m50.5 12.365h-40.358" fill="none" stroke="#7b8694" stroke-dasharray="0.198447, 0.59534" stroke-linecap="square" stroke-width=".19845"/>
  <rect transform="rotate(30)" x="50.095" y="-14.51" width="14.646" height="14.646" fill="#1d232d" stroke="#6f8ce9" stroke-linecap="round" stroke-width=".2646"/>
 </g>
 <g fill="none" stroke-width=".52919">
  <path d="m7.8728 1.0594v53.181" stroke="#a6aeb8"/>
  <path d="m1.4573 47.233h66.508" stroke="#a6aeb8"/>
  <path d="m8.9164 44.376v-15.048" stroke="#e9e56f"/>
  <path d="m3.5041 54.533 30.201-53.487" stroke="#a6aeb8"/>
  <path d="m0.12539 42.916 38.038 20.511" stroke="#a6aeb8"/>
  <path d="m10.144 32.414v-20.325" stroke="#6f8ce9"/>
  <path d="m33.709 46.261h14.706" stroke="#e9e56f"/>
  <path d="m42.848 45.124h20.402" stroke="#6f8ce9"/>
  <path d="m15.989 34.557 10.027-17.81" stroke="#e9e56f"/>
  <path d="m26.645 15.701 7.2622-12.812" stroke="#6f8ce9"/>
  <path d="m19.973 52.494 18.357 9.8251" stroke="#e9e56f"/>
  <path d="m25.945 54.424 13.408 7.1151" stroke="#6f8ce9"/>
 </g>
 <g transform="matrix(-.0017936 -.0031067 .0031599 -.0018244 67.964 48.414)" fill="#e8eaec" stroke-width="201.8">
  <g fill="#e8eaec" stroke-width="201.8">
   <path d="m486.41 221.41-364.07-208.5c-52.938-30.318-95.852-5.44-95.852 55.563v415.65c0 61.004 42.914 85.882 95.852 55.563l364.07-208.49c52.938-30.317 52.938-79.473 0-109.79z" fill="#e8eaec" stroke-width="201.8"/>
  </g>
 </g>
 <g transform="matrix(0 -.0035873 .0036487 0 6.8999 1.8873)" fill="#e8eaec" stroke-width="201.8">
  <g fill="#e8eaec" stroke-width="201.8">
   <path d="m486.41 221.41-364.07-208.5c-52.938-30.318-95.852-5.44-95.852 55.563v415.65c0 61.004 42.914 85.882 95.852 55.563l364.07-208.49c52.938-30.317 52.938-79.473 0-109.79z" fill="#e8eaec" stroke-width="201.8"/>
  </g>
 </g>
 <path d="m27.281 16.371 28.273-7.5758" fill="none" stroke="#47d58a" stroke-dasharray="0.264595, 0.793786" stroke-linecap="square" stroke-width=".2646"/>
 <g fill="#e8eaec" stroke-linecap="round" stroke-width=".2646" aria-label="nejsou v kolizi">
  <path d="m54.82 7.9356h0.26036v-1.1176c0.15558-0.15558 0.26354-0.23814 0.42229-0.23814 0.20321 0 0.29211 0.12383 0.29211 0.41277v0.94302h0.26036v-0.97794c0-0.39372-0.14606-0.60328-0.46992-0.60328-0.21273 0-0.37149 0.1143-0.51755 0.26036h-0.0095l-0.02223-0.22226h-0.21591z"/>
  <path d="m56.443 7.1673c0 0.50485 0.32704 0.80649 0.73981 0.80649 0.20956 0 0.37467-0.073028 0.50802-0.15876l-0.09208-0.17146c-0.1143 0.073028-0.23814 0.12066-0.38419 0.12066-0.29529 0-0.49532-0.20956-0.51437-0.54295h1.0414c0.0063-0.038102 0.0095-0.088904 0.0095-0.14288 0-0.44134-0.22226-0.72393-0.61598-0.72393-0.35244 0-0.69218 0.30799-0.69218 0.81284zm0.25401-0.11748c0.03175-0.31116 0.22861-0.48897 0.44452-0.48897 0.24131 0 0.38102 0.17463 0.38102 0.48897z"/>
  <path d="m58.135 8.1103c0 0.18733-0.0381 0.30164-0.19051 0.30164-0.05398 0-0.10796-0.012701-0.14606-0.025401l-0.05398 0.19686c0.05398 0.022226 0.13336 0.041277 0.22861 0.041277 0.30799 0 0.42229-0.20003 0.42229-0.51437v-1.7178h-0.26036zm0.13336-2.0353c0.09843 0 0.17781-0.069853 0.17781-0.16828 0-0.1016-0.07938-0.16828-0.17781-0.16828-0.1016 0-0.18098 0.066678-0.18098 0.16828 0 0.098429 0.07938 0.16828 0.18098 0.16828z"/>
  <path d="m58.745 7.761c0.14606 0.12066 0.35562 0.21273 0.5747 0.21273 0.36514 0 0.56517-0.20956 0.56517-0.4604 0-0.29211-0.24766-0.38419-0.46992-0.46675-0.17463-0.066678-0.34292-0.12383-0.34292-0.26671 0-0.11748 0.0889-0.22226 0.28259-0.22226 0.13653 0 0.24766 0.057152 0.35244 0.13653l0.12383-0.16511c-0.11748-0.095254-0.28576-0.17463-0.47945-0.17463-0.33339 0-0.53025 0.19051-0.53025 0.43817 0 0.26036 0.24131 0.36514 0.4604 0.44452 0.16828 0.063503 0.35244 0.13336 0.35244 0.29211 0 0.13336-0.1016 0.24131-0.30481 0.24131-0.18416 0-0.32069-0.076203-0.45404-0.18416z"/>
  <path d="m60.132 7.1673c0 0.5112 0.33656 0.80649 0.71441 0.80649s0.71441-0.29529 0.71441-0.80649c0-0.51755-0.33656-0.81284-0.71441-0.81284s-0.71441 0.29529-0.71441 0.81284zm0.26989 0c0-0.35562 0.18098-0.59693 0.44452-0.59693 0.26671 0 0.44452 0.24131 0.44452 0.59693 0 0.35244-0.17781 0.59058-0.44452 0.59058-0.26354 0-0.44452-0.23814-0.44452-0.59058z"/>
  <path d="m61.945 7.3705c0 0.39372 0.14606 0.60328 0.4731 0.60328 0.21273 0 0.36514-0.11113 0.50802-0.27941h0.0095l0.02223 0.24131h0.21591v-1.5431h-0.26036v1.0954c-0.14606 0.18098-0.25719 0.26036-0.41594 0.26036-0.20321 0-0.28894-0.12383-0.28894-0.41277v-0.94302h-0.26354z"/>
  <path d="m64.669 7.9356h0.30481l0.54612-1.5431h-0.25719l-0.29211 0.87634c-0.04445 0.15241-0.09525 0.30799-0.13971 0.45404h-0.0127c-0.047628-0.14606-0.09843-0.30164-0.14288-0.45404l-0.29211-0.87634h-0.26989z"/>
  <path d="m66.46 7.9356h0.25719v-0.40642l0.28894-0.33656 0.45087 0.74298h0.28576l-0.5874-0.92397 0.51755-0.61915h-0.28894l-0.65725 0.81284h-0.0095v-1.5304h-0.25719z"/>
  <path d="m67.86 7.1673c0 0.5112 0.33656 0.80649 0.71441 0.80649 0.37784 0 0.71441-0.29529 0.71441-0.80649 0-0.51755-0.33656-0.81284-0.71441-0.81284-0.37784 0-0.71441 0.29529-0.71441 0.81284zm0.26989 0c0-0.35562 0.18098-0.59693 0.44452-0.59693 0.26671 0 0.44452 0.24131 0.44452 0.59693 0 0.35244-0.17781 0.59058-0.44452 0.59058-0.26354 0-0.44452-0.23814-0.44452-0.59058z"/>
  <path d="m69.696 7.6245c0 0.22543 0.07938 0.34927 0.27624 0.34927 0.06985 0 0.1143-0.00953 0.14923-0.025401l-0.034927-0.19686c-0.02858 0.00635-0.04128 0.00635-0.05715 0.00635-0.0381 0-0.07303-0.031751-0.07303-0.1143v-1.9686h-0.26036z"/>
  <path d="m70.639 6.075c0.1016 0 0.18098-0.069853 0.18098-0.16828 0-0.1016-0.07938-0.16828-0.18098-0.16828-0.1016 0-0.18098 0.066678-0.18098 0.16828 0 0.098429 0.07938 0.16828 0.18098 0.16828zm-0.13336 1.8606h0.26036v-1.5431h-0.26036z"/>
  <path d="m71.124 7.9356h1.1685v-0.21273h-0.83824l0.81284-1.1907v-0.13971h-1.0541v0.21273h0.72393l-0.81284 1.1907z"/>
  <path d="m72.769 6.075c0.1016 0 0.18098-0.069853 0.18098-0.16828 0-0.1016-0.07938-0.16828-0.18098-0.16828-0.1016 0-0.18098 0.066678-0.18098 0.16828 0 0.098429 0.07938 0.16828 0.18098 0.16828zm-0.13336 1.8606h0.26036v-1.5431h-0.26036z"/>
 </g>
 <g fill="none" stroke-linecap="square">
  <g stroke="#7b8694">
   <g stroke-dasharray="0.198447, 0.59534" stroke-width=".19845">
    <path d="m33.827 44.191-17.85-9.6604"/>
    <path d="m25.987 16.738 22.306 12.545"/>
    <path d="m43.34 25.066v19.762"/>
    <path d="m63.299 19.819v25.303"/>
    <path d="m50.598 12.611-17.04-9.838"/>
    <path d="m43.34 25.066-16.722-9.4152"/>
   </g>
   <path d="m33.631 44.044v2.4028" stroke-dasharray="0.132298, 0.396893" stroke-width=".1323"/>
   <path d="m48.44 44.289v2.0106" stroke-dasharray="0.132298, 0.396893" stroke-width=".1323"/>
   <g stroke-dasharray="0.198447, 0.59534" stroke-width=".19845">
    <path d="m19.9 52.625 13.731-23.146"/>
    <path d="m38.142 62.433 10.151-18.291"/>
    <path d="m33.631 29.431h-24.862"/>
    <path d="m33.778 44.191h-24.715"/>
   </g>
  </g>
  <circle cx="26.507" cy="16.072" r="3.6755" stroke="#e8eaec" stroke-width=".52919"/>
 </g>
</svg>
